/* XPM */
static char *_38539d9f20f4f02cdd7a9e8f521e07bEmWNURjeYSrO9YWp[] = {
/* columns rows colors chars-per-pixel */
"64 64 209 2 ",
"   c None",
".  c #151415",
"X  c #181416",
"o  c #151815",
"O  c #181817",
"+  c #151519",
"@  c #1A151A",
"#  c #16191C",
"$  c #191A1B",
"%  c #0F1215",
"&  c #20141E",
"*  c #19201F",
"=  c #28241D",
"-  c #1D1621",
";  c #1C1D23",
":  c #1E1D29",
">  c #251425",
",  c #2B152C",
"<  c #241A27",
"1  c #30162F",
"2  c #2B1832",
"3  c #3C1C3D",
"4  c #38143A",
"5  c #1E2129",
"6  c #1E2223",
"7  c #222225",
"8  c #2B2A2C",
"9  c #27252A",
"0  c #32292A",
"q  c #232532",
"w  c #262B34",
"e  c #2C2E34",
"r  c #25273D",
"t  c #2D323A",
"y  c #353739",
"u  c #372D35",
"i  c #401C3F",
"p  c #463734",
"a  c #49433D",
"s  c #3E1C41",
"d  c #272C45",
"f  c #292F41",
"g  c #2B3346",
"h  c #3A3D42",
"j  c #343A46",
"k  c #393A58",
"l  c #3E2342",
"z  c #393B66",
"x  c #421C43",
"c  c #481B4A",
"v  c #531B55",
"b  c #45274B",
"n  c #4B2A54",
"m  c #492753",
"M  c #553456",
"N  c #4E3059",
"B  c #493762",
"V  c #553565",
"C  c #74367A",
"Z  c #3E4143",
"A  c #3D424D",
"S  c #394458",
"D  c #3F4862",
"F  c #3D4577",
"G  c #434343",
"H  c #4B4C4C",
"J  c #414D5F",
"K  c #454A54",
"L  c #535659",
"P  c #6E5B53",
"I  c #6C6454",
"U  c #424966",
"Y  c #514B6A",
"T  c #49546B",
"R  c #535A6B",
"E  c #535C7E",
"W  c #5C5872",
"Q  c #434F7A",
"!  c #655676",
"~  c #5F6674",
"^  c #57606B",
"/  c #6C6C6E",
"(  c #70706F",
")  c #626879",
"_  c #747476",
"`  c #80787E",
"'  c #7E3E88",
"]  c #555C86",
"[  c #4E5898",
"{  c #5D6B8A",
"}  c #5A668B",
"|  c #5C6797",
" . c #687283",
".. c #757A84",
"X. c #757D88",
"o. c #67779B",
"O. c #6F7189",
"+. c #535CA7",
"@. c #5C6AA9",
"#. c #5F73AC",
"$. c #6777A7",
"%. c #6778B7",
"&. c #606FA8",
"*. c #6B7CC0",
"=. c #807A8C",
"-. c #798599",
";. c #798698",
":. c #7C8286",
">. c #6E84AA",
",. c #7586A8",
"<. c #7588BA",
"1. c #7B91B5",
"2. c #6C80BC",
"3. c #788CC7",
"4. c #7C92CB",
"5. c #7C93C5",
"6. c #7D95D4",
"7. c #85888A",
"8. c #838D99",
"9. c #969799",
"0. c #8C9099",
"q. c #A09D9D",
"w. c #B8A686",
"e. c #838EA7",
"r. c #8B96A9",
"t. c #989CA8",
"y. c #8C9AB2",
"u. c #8596B6",
"i. c #919FB5",
"p. c #92A1BB",
"a. c #99A2B4",
"s. c #9DA4AD",
"d. c #A5A6A8",
"f. c #A2ACBC",
"g. c #B6B6B6",
"h. c #CBB690",
"j. c #DAC49C",
"k. c #E3CEA7",
"l. c #849BC9",
"z. c #839BD3",
"x. c #8095D1",
"c. c #8BA4CC",
"v. c #97AAC8",
"b. c #9FB3CF",
"n. c #8BA4D5",
"m. c #8DAADC",
"M. c #88A2D8",
"N. c #92ADDC",
"B. c #94A9D5",
"V. c #9AB4DC",
"C. c #95B2DF",
"Z. c #ACB5C5",
"A. c #A4BBDE",
"S. c #A9B7D7",
"D. c #B4BCCB",
"F. c #92AFE1",
"G. c #95B1E1",
"H. c #9BB4E1",
"J. c #9FB8E3",
"K. c #A3BCE3",
"L. c #A9BEE3",
"P. c #B7C0CD",
"I. c #AEC1DB",
"U. c #B7C4DB",
"Y. c #ACC2E4",
"T. c #B2C5E4",
"R. c #B6C9E5",
"E. c #BBCBE4",
"W. c #B7C9E8",
"Q. c #BCCEEA",
"!. c #B5C7E5",
"~. c #CDCCCD",
"^. c #C6C5C8",
"/. c #C4CAD7",
"(. c #C4CBDB",
"). c #C7CCD8",
"_. c #CFD4DC",
"`. c #D3D3D3",
"'. c #DCDCDD",
"]. c #D2D7DE",
"[. c #C2CEE4",
"{. c #C5CFE4",
"}. c #CBD4E4",
"|. c #CDD8E6",
" X c #C3D2E9",
".X c #CBD6E9",
"XX c #CED9EA",
"oX c #C5D1E6",
"OX c #D2DAE6",
"+X c #D3DBEA",
"@X c #D9DEEB",
"#X c #D6DCE7",
"$X c #DDE3ED",
"%X c #D7E0EE",
"&X c #DDE4F0",
"*X c #E2E6ED",
"=X c #E5E8EE",
"-X c #EDEDEE",
";X c #E3E3E4",
":X c #F0EFEE",
">X c #EEF0EE",
",X c #F2F0EF",
"<X c #E2E6F1",
"1X c #E5EAF1",
"2X c #ECEDF1",
"3X c #F1EFF1",
"4X c #EEF0F1",
"5X c #F2F1F3",
"6X c #F8FAFC",
/* pixels */
"                                                                                                                                ",
"                                                                                                                                ",
"                                                                                                                                ",
"                                                                                                                                ",
"                                                                                                                                ",
"                                                        o o o o o . o o x                                                       ",
"                                                        < 7 6 * 7 6 < < m                                                       ",
"                                                    - w >.1.p.p.p.p.i.v.X.$ <                                                   ",
"                                                    @ w c.H.T.T.T.T.T.R.-.o ,                                                   ",
"                                                s B E } N.L.[.oXXX@X+X@XP.8.=.n x                                               ",
"                                              - + k 4.z.Y.R.XXOX-X5X4X5X=X@XP.8 >                                               ",
"                                              - o S l.M.L.R..XOX1X-X,X2X=X$X).R Y V                                             ",
"                                              + . S C.H.L.E..X+X2X-X-X,X:X>X=XE.I.H . 3                                         ",
"                                              b 9 T m.G.T.E.+X#X=X:X,X-X3X2X=XE.I.K @ s                                         ",
"                                          4 < E <.5.C.H. X+X2X-X5X:X-X,X:X4X=X+X|.H + s                                         ",
"                                          1 . ] 6.z.N.H..X#X-X:X-X>X5X-X:X:X-X#X}.L @ s                                         ",
"                                          1 # { m.N.L.Y.XX@X2X2X*X@X=X2X-X3X3X=X<Xf.r.) + s                                     ",
"                                          1 . { G.V.T.T.}.@X2X2X#XOX*X3X:X:X3X2X2X{.W. .% x                                     ",
"                                        n Y T >.F.K.Q.[.|.OX*X*X#X|.*X2X:X2X:X:X2X@XXXp.~ ! n                                   ",
"                                      @ 5 $.4.M.m.L.XX+XXXXX|.|.OXXX*X3X3X3X3X:X-X5X4X+XQ.y.- <                                 ",
"                                      o 5 $.z.m.H.L.+X|.|.+X|.OX@X@X*X3X:X=X-X=X2X=X1X+XT.y.; >                                 ",
"                                      o 5 1.C.K.L.E.XXOXXXXXOXOX1X3X3X3X<X@XOXOX+X|.+X[.R.y.6 >                                 ",
"                                      o 5 1.C.K.T.E.XXXXXXXXOX#X2X>X:X:X<X}. X(./././.U.R.y.; >                                 ",
"                                      o 5 1.G.J.T.E.XX.XE.[.<X2X-X>X-X2X|.z.1.A y y j X.E.r.* <                                 ",
"                                      o 5 1.C.K.Y.E.XX.XT.E.2X5X-X,X3X3X{.x.$.7 . . % ) W.y.< <                                 ",
"                                      + 5 >.z.m.A.L.Q.Q.T.E.1X-X2X>X{.S.e.U k ; + ~ ;.) R ! n                                   ",
"                                      @ : $.4.z.C.V.Y.Y.T.E.=X>X3X,XS.4.} # X O ; r.Q. .% i                                     ",
"                                          B S o.z.n.J.J.Y.E.-X,X3X5XS.4.} $ O O ; i.XX... x                                     ",
"                                          1 @ ] 6.z.F.G.T.E.=X:X3X4XS.4.} ; + X 6 s.%XX.X x                                     ",
"                                          v b Y ] o.M.n.L.E.2X3X3X2XU.B.o.@ @ o & d.1X:.o x                                     ",
"                                              > % S 3.l.L.E.2X3X3X3X|.T.,.$ O o $ g.6X7.. x                                     ",
"                                              h y ^ c.B.E.[.$X*X2X3XOXQ.0.O 7 y G q.~.` , c                                     ",
"                                          2 o 7.(.|.=X=X2X*XE.E.1X3X2X5Xd.+ y ~.$XL 7 b                                         ",
"                                          u 9 0.%X$X2X>X1X*XE.U.&X2X-X5Xd.8 G ~.'.H X i                                         ",
"                                      3 l t.D.].-X*X#XOX[.[.1X=X@X#X*X5X;X~.g.H y 7 + > 1 c                                     ",
"                                      + 7 Z.+X=X5X*XOX|.T.E.1X4X@X+X*X2X,X,X`.8 . + o # O b                                     ",
"                                  4 N ;.;.].=X-X:X-X*X_.^ ) ].$X*X*X1X3X-X5X`.8 @ ~ -.-.;.O.c 4                                 ",
"                                  @ Z S.R.=X5X,X3X5X5X`.0 y ).%X1X:X5X5X,X5X`.8 + r.W.W.Q.y.; >                                 ",
"                                  @ h U.[.=X,X,X,X`.q.9.I I 8.9.'.5X=X%X/.9.9.( / Z.XXf.-...I P M                               ",
"                                  @ Z {.OX=X:X,X6Xd.$ 0 j.h.7 5 ^.5X|.E.;.o u '.5X3X5X7.% a k.j.p ,                             ",
"                                  @ Z ).#X=X,X2X4Xd.o 0 w.w.a Z ~.5XP.v.;.t H '.5X-X>X7.. p h.w.p 4                             ",
"                                  @ G {.OX-X-X*X%X9.$ $ = y P.).=X5X_ 7 T Z.S.2X5X$X%X_ o $ = 0                                 ",
"                                  @ Z {.+X1X1X$X+Xr.$ $ # h /.OX2X5X( . T I.W.1X4X%X@XX.X @ < 1                                 ",
"                                  @ h I.E.+X@X}.E.e.# 9 o.u.oX@X*X3X( . J V.A.OX@X[.E. .. s C                                   ",
"                                  @ j I.T..X|.Q.W.e.@ e z.J.|.OX2X3X( % J B.C..XXXE.W. .X s                                     ",
"                                  o j V.A.R.E.r.) K o w v.Y.|.OX2X5X( % J B.H.Q.E.;.~ ! x                                       ",
"                                  @ j n.F.Y.R.^ . o o e b.W.|.@X1X3X( % U N.V.Y.I.A . i                                         ",
"                                  @ t z.m.J.Y.^ o O O w b.R.XX|.@X&X/ . S n.N.K.A.K X x                                         ",
"                                  @ f 3.l.m.F.T + O o t b.R.XXXXU.T.R . S 4.6.F.B.A @ x                                         ",
"                                  c V } { l.m.T + O X e v.Y. X XY.Y.R % k <.3.M.c.k @ s                                         ",
"                                      # 5 $.4.D @ O X w l.C.T.Y.V.H.T + k %.%.4.5.g @ s                                         ",
"                                      + : $.4.D X o O w l.F.Y.Y.c.l.Y > k | @.3.3.j @ s                                         ",
"                                      o ; | %.D + O X w <.z.N.c.A q N   n 2 d #.%.g ; s                                         ",
"                                      > 2 | %.z o - + w <.4.m.n.t #       - q @.#.g @ s                                         ",
"                                        C k g z F z o q #.3.6.5.f @       > : [ @.d @ l                                         ",
"                                          , @ z +.F # q @.%.4.<.f @       - : [ +.d @ x                                         ",
"                                            x k z B c m U Q 2.%.f @       x m z z N c                                           ",
"                                              - + x     @ q #.#.r @           > > C                                             ",
"                                                s v     x n ] ] N x           c c                                               ",
"                                                            : 2 '                                                               ",
"                                                            , 1                                                                 ",
"                                                                                                                                ",
"                                                                                                                                ",
"                                                                                                                                "
};
