/* XPM */
static char *result[] = {
/* columns rows colors chars-per-pixel */
"64 64 213 2 ",
"   c #0E0E11",
".  c #141415",
"X  c #191415",
"o  c #151816",
"O  c #181817",
"+  c #161519",
"@  c #1A141B",
"#  c #17191B",
"$  c #1A191C",
"%  c #110E12",
"&  c #21141E",
"*  c #24201C",
"=  c #171A21",
"-  c #1D1B23",
";  c #241325",
":  c #2B142B",
">  c #231C2C",
",  c #29192A",
"<  c #2B1932",
"1  c #391539",
"2  c #210F21",
"3  c #1E222A",
"4  c #1E2333",
"5  c #232426",
"6  c #22232A",
"7  c #282B2E",
"8  c #292232",
"9  c #252B32",
"0  c #292C34",
"q  c #252939",
"w  c #2D323C",
"e  c #36373B",
"r  c #443E37",
"t  c #3C1942",
"y  c #272942",
"u  c #352842",
"i  c #2F3644",
"p  c #353D49",
"a  c #383748",
"s  c #333A53",
"d  c #3C2B51",
"f  c #383C66",
"g  c #421C45",
"h  c #461D49",
"j  c #481B4A",
"k  c #511D55",
"l  c #4F1F50",
"z  c #482344",
"x  c #48244A",
"c  c #4F2253",
"v  c #482956",
"b  c #532B56",
"n  c #512E5C",
"m  c #453456",
"M  c #513058",
"N  c #5C3C69",
"B  c #642C6A",
"V  c #682A69",
"C  c #6D2A71",
"Z  c #6A3972",
"A  c #6D306F",
"S  c #3D434C",
"D  c #3A445A",
"F  c #3B4353",
"G  c #3E4564",
"H  c #43454D",
"J  c #4A4B4C",
"K  c #46474C",
"L  c #424C5D",
"P  c #444756",
"I  c #57585A",
"U  c #564E41",
"Y  c #685C4A",
"T  c #464968",
"R  c #435064",
"E  c #4B5361",
"W  c #4A566D",
"Q  c #46526A",
"!  c #585E67",
"~  c #454877",
"^  c #495376",
"/  c #54597B",
"(  c #514A6A",
")  c #655B79",
"_  c #664467",
"`  c #5B616B",
"'  c #5A6476",
"]  c #6B6B6B",
"[  c #66676B",
"{  c #76726B",
"}  c #616A7B",
"|  c #666876",
" . c #6D727D",
".. c #717070",
"X. c #76767A",
"o. c #706F71",
"O. c #887C66",
"+. c #8C6F70",
"@. c #92856B",
"#. c #A7987A",
"$. c #4E5A8A",
"%. c #4E579B",
"&. c #59648C",
"*. c #5C6A8D",
"=. c #556287",
"-. c #5C6999",
";. c #687486",
":. c #637399",
">. c #737C93",
",. c #7E7488",
"<. c #515CA7",
"1. c #5967A7",
"2. c #6979A8",
"3. c #6B7ABD",
"4. c #6677B9",
"5. c #887E94",
"6. c #7C879A",
"7. c #7D848A",
"8. c #6D81AD",
"9. c #7184AF",
"0. c #7F95BA",
"q. c #7083B3",
"w. c #7A8FC6",
"e. c #778BC6",
"r. c #7C91C6",
"t. c #7D93CC",
"y. c #7C95D0",
"u. c #7F98D2",
"i. c #8D8D8D",
"p. c #9C9D9D",
"a. c #949494",
"s. c #8A919B",
"d. c #A69B90",
"f. c #B0A181",
"g. c #989CA5",
"h. c #889BB7",
"j. c #848FA2",
"k. c #9AA1AC",
"l. c #96A3B8",
"z. c #A8A9AB",
"x. c #A3AAB7",
"c. c #B8B8BC",
"v. c #CEB790",
"b. c #F2DBAA",
"n. c #F6E0AD",
"m. c #839ACE",
"M. c #8497C8",
"N. c #849CD4",
"B. c #8096D1",
"V. c #8CA4CA",
"C. c #98ABC6",
"Z. c #8CA3D5",
"A. c #8AA6D9",
"S. c #8EA9DA",
"D. c #8BA6D5",
"F. c #92ADDC",
"G. c #95ACD6",
"H. c #94B1DE",
"J. c #9DB6DE",
"K. c #97B0D4",
"L. c #A2AEC2",
"P. c #A2AFCC",
"I. c #A3B3CD",
"U. c #A6B4C9",
"Y. c #B4BAC8",
"T. c #ADB7D6",
"R. c #ACBBD4",
"E. c #AABFDE",
"W. c #A2B7D8",
"Q. c #B1BFD8",
"!. c #93B1E1",
"~. c #9BB5E1",
"^. c #A4BBE2",
"/. c #A7BBE1",
"(. c #ADC0DC",
"). c #BAC5D9",
"_. c #BAC0CC",
"`. c #ACC2E4",
"'. c #AFC6E8",
"]. c #B2C5E4",
"[. c #B6C9E5",
"{. c #BBCBE5",
"}. c #B9C9E7",
"|. c #C5CBD8",
" X c #D4D4D8",
".X c #CACDD3",
"XX c #C2CEE4",
"oX c #C5D2E6",
"OX c #CBD4E4",
"+X c #CED9E6",
"@X c #C5D2E9",
"#X c #CBD6E9",
"$X c #CED9E9",
"%X c #D3DAE6",
"&X c #DADDE6",
"*X c #D3DBEA",
"=X c #D9DEEA",
"-X c #DDE2EC",
";X c #E2E5ED",
":X c #E6E9ED",
">X c #EDEDEE",
",X c #E1E2E1",
"<X c #F0EFEF",
"1X c #EEF0EE",
"2X c #F0F0EF",
"3X c #E2E6F1",
"4X c #E6E9F1",
"5X c #ECEDF1",
"6X c #F0EFF1",
"7X c #EEF0F2",
"8X c #F2F1F2",
"9X c #FAF9F9",
"0X c None",
/* pixels */
"0X0X0X0X0X0X0X0X0X0X0X0X0X0X0X0X0X0X0X0X0X0X0X0X0X0X0X0X0X0X0X0X0X0X0X0X0X0X0X0X0X0X0X0X0X0X0X0X0X0X0X0X0X0X0X0X0X0X0X0X0X0X0X0X",
"0X0X0X0X0X0X0X0X0X0X0X0X0X0X0X0X0X0X0X0X0X0X0X0X0X0X0X0X0X0X0X0X0X0X0X0X0X0X0X0X0X0X0X0X0X0X0X0X0X0X0X0X0X0X0X0X0X0X0X0X0X0X0X0X",
"0X0X0X0X0X0X0X0X0X0X0X0X0X0X0X0X0X0X0X0X0X0X0X0X0X0X0X0X0X0X0X0X0X0X0X0X0X0X0X0X0X0X0X0X0X0X0X0X0X0X0X0X0X0X0X0X0X0X0X0X0X0X0X0X",
"0X0X0X0X0X0X0X0X0X0X0X0X0X0X0X0X0X0X0X0X0X0X0X0X0X0X0X0X0X0X0X0X0X0X0X0X0X0X0X0X0X0X0X0X0X0X0X0X0X0X0X0X0X0X0X0X0X0X0X0X0X0X0X0X",
"0X0X0X0X0X0X0X0X0X0X0X0X0X0X0X0X0X0X0X0X0X0X0X0X0X0X0X0X0X0X0X0X0X0X0X0X0X0X0X0X0X0X0X0X0X0X0X0X0X0X0X0X0X0X0X0X0X0X0X0X0X0X0X0X",
"0X0X0X0X0X0X0X0X0X0X0X0X0X0X0X0X0X0X0X0X0X0X0X0X0X0X0X0Xh h j h h h h j 0X0X0X0X0X0X0X0X0X0X0X0X0X0X0X0X0X0X0X0X0X0X0X0X0X0X0X0X",
"0X0X0X0X0X0X0X0X0X0X0X0X0X0X0X0X0X0X0X0X0X0X0X0X0X0X0X0X& @ + O + + . X h 0X0X0X0X0X0X0X0X0X0X0X0X0X0X0X0X0X0X0X0X0X0X0X0X0X0X0X",
"0X0X0X0X0X0X0X0X0X0X0X0X0X0X0X0X0X0X0X0X0X0X0X0X0X0X0XM a S S S H S S H N 0X0X0X0X0X0X0X0X0X0X0X0X0X0X0X0X0X0X0X0X0X0X0X0X0X0X0X",
"0X0X0X0X0X0X0X0X0X0X0X0X0X0X0X0X0X0X0X0X0X0X0X0X0X@ . E D.F.E.E.E.E.E.(.6.@ h 0X0X0X0X0X0X0X0X0X0X0X0X0X0X0X0X0X0X0X0X0X0X0X0X0X",
"0X0X0X0X0X0X0X0X0X0X0X0X0X0X0X0X0X0X0X0X0X0X0X0X0X8 3 W H.~.].].].[.{.{.j.0 n 0X0X0X0X0X0X0X0X0X0X0X0X0X0X0X0X0X0X0X0X0X0X0X0X0X",
"0X0X0X0X0X0X0X0X0X0X0X0X0X0X0X0X0X0X0X0X0X0X0X1 , =.2.M./.[.#X#X;X4X:X4X X_.5.< 1 0X0X0X0X0X0X0X0X0X0X0X0X0X0X0X0X0X0X0X0X0X0X0X",
"0X0X0X0X0X0X0X0X0X0X0X0X0X0X0X0X0X0X0X0X0X0X0X: . =.B.Z.'.[.$X%X4X<X<X6X:X=Xs.. < 0X0X0X0X0X0X0X0X0X0X0X0X0X0X0X0X0X0X0X0X0X0X0X",
"0X0X0X0X0X0X0X0X0X0X0X0X0X0X0X0X0X0X0X0X0X0X0X: + *.D.J.].[.$X%X4X8X2X6X:X4X).6.>.8 ; 0X0X0X0X0X0X0X0X0X0X0X0X0X0X0X0X0X0X0X0X0X",
"0X0X0X0X0X0X0X0X0X0X0X0X0X0X0X0X0X0X0X0X0X0X0X: . :.!.J.`.[.$X$X4X2X>X2X2X8X=X{.x.5 : 0X0X0X0X0X0X0X0X0X0X0X0X0X0X0X0X0X0X0X0X0X",
"0X0X0X0X0X0X0X0X0X0X0X0X0X0X0X0X0X0X0X0X0X0Xn T G 9.!.^.{.@X=X;X>X<X2X2X<X2X-X{.L.6 : 0X0X0X0X0X0X0X0X0X0X0X0X0X0X0X0X0X0X0X0X0X",
"0X0X0X0X0X0X0X0X0X0X0X0X0X0X0X0X0X0X0X0X0X@ 6 2.t.D.F./.$X*X>X5X5X<X<X>X2X6X;X*XY.5 ; 0X0X0X0X0X0X0X0X0X0X0X0X0X0X0X0X0X0X0X0X0X",
"0X0X0X0X0X0X0X0X0X0X0X0X0X0X0X0X0X0X0X0X0Xo 3 9.y.Z.!./.*X=X>X>X4X:X>X1X5X2X:X-X_.S m Z 0X0X0X0X0X0X0X0X0X0X0X0X0X0X0X0X0X0X0X0X",
"0X0X0X0X0X0X0X0X0X0X0X0X0X0X0X0X0X0X0X0X0X. 3 0.!.^.`.{.$X=X5X>X&X%X:X8X6X2X:X5X;XR.I.S + 0X0X0X0X0X0X0X0X0X0X0X0X0X0X0X0X0X0X0X",
"0X0X0X0X0X0X0X0X0X0X0X0X0X0X0X0X0X0X0X0X0X= q 0.!./.E.XX$X*X5X5X=X%X;X5X<X<X<X2X:X).(.K - x 0X0X0X0X0X0X0X0X0X0X0X0X0X0X0X0X0X0X",
"0X0X0X0X0X0X0X0X0X0X0X0X0X0X0X0X0X0X0X1 m :.2.Z.!.}.#X#X$X*X=X%X%X%X;X6X<X8X7X>X1X3X-XC.l.) : j 0X0X0X0X0X0X0X0X0X0X0X0X0X0X0X0X",
"0X0X0X0X0X0X0X0X0X0X0X0X0X0X0X0X0X0Xg @ i r.t.S.F.[.$X%X%X$X$X%X$X+X;X5X7X6X5X2X1X8X7XoX}.' o z 0X0X0X0X0X0X0X0X0X0X0X0X0X0X0X0X",
"0X0X0X0X0X0X0X0X0X0X0X0X0X0X0X0X0X0Xt O i m.A.~.^.XX%X$X$X$X$X%X-X;X4X6X5X-X-X-X-X-X-X{.].| o z 0X0X0X0X0X0X0X0X0X0X0X0X0X0X0X0X",
"0X0X0X0X0X0X0X0X0X0X0X0X0X0X0X0X0X0Xg + S S.!.`.'.@X$X$X%X$X%X%X4X2X<X8X4X%X$X*X*X*X*X}.].*.@ h 0X0X0X0X0X0X0X0X0X0X0X0X0X0X0X0X",
"0X0X0X0X0X0X0X0X0X0X0X0X0X0X0X0X0X0Xg o i A.!.`.].XX%X$X@X#X&X-X5X1X<X6X-X).U.k.k.k.k.R.[.} . h 0X0X0X0X0X0X0X0X0X0X0X0X0X0X0X0X",
"0X0X0X0X0X0X0X0X0X0X0X0X0X0X0X0X0X0Xg @ p D.H.`.].@X$X@X].{.4X2X1X<X6X8XOXM.&.= $ # 3 h.}.*.. j 0X0X0X0X0X0X0X0X0X0X0X0X0X0X0X0X",
"0X0X0X0X0X0X0X0X0X0X0X0X0X0X0X0X0X0Xg O p N.A././.}.#X{.`.{.4X<X2X>X&XOXL.*.R + 3 J E 7.6.) g k 0X0X0X0X0X0X0X0X0X0X0X0X0X0X0X0X",
"0X0X0X0X0X0X0X0X0X0X0X0X0X0X0X0X0X0Xg X a w.y.F.H.^.].].].{.:X2X<X5XT.r.&.= @ . w U.(.S O z 0X0X0X0X0X0X0X0X0X0X0X0X0X0X0X0X0X0X",
"0X0X0X0X0X0X0X0X0X0X0X0X0X0X0X0X0X0X0X; s 2.q.A.S.^.`.`.].{.5X2X6X8XT.t.*.= O . w (.).F @ z 0X0X0X0X0X0X0X0X0X0X0X0X0X0X0X0X0X0X",
"0X0X0X0X0X0X0X0X0X0X0X0X0X0X0X0X0X0X0X0X0X4 w 2.y.A.H.J.'.{.:X8X6X7XT.w.&.@ # . e ).OXS O g 0X0X0X0X0X0X0X0X0X0X0X0X0X0X0X0X0X0X",
"0X0X0X0X0X0X0X0X0X0X0X0X0X0X0X0X0X0X0X0X0X& 8 2.w.A.!.~.`.{.:X<X6X5XT.t.*.= O + a .X XK X g 0X0X0X0X0X0X0X0X0X0X0X0X0X0X0X0X0X0X",
"0X0X0X0X0X0X0X0X0X0X0X0X0X0X0X0X0X0X0X0X0X0XB m s :.u.D.].{.:X>X<X<X{.^.6.# O + e  X;XJ X g 0X0X0X0X0X0X0X0X0X0X0X0X0X0X0X0X0X0X",
"0X0X0X0X0X0X0X0X0X0X0X0X0X0X0X0X0X0X0X0X0X0X0X: . =.y.Z.].{.5X7X6X1X#X].6.$ + . e ,X>XJ @ t 0X0X0X0X0X0X0X0X0X0X0X0X0X0X0X0X0X0X",
"0X0X0X0X0X0X0X0X0X0X0X0X0X0X0X0X0X0X0X0X0Xg c ,.7.L.).oX*X*X+X$X4X6X-X-Xg.. H i.i.X.X._ g 0X0X0X0X0X0X0X0X0X0X0X0X0X0X0X0X0X0X0X",
"0X0X0X0X0X0X0X0X0X0X0X0X0X0X0X0X0X0X0X0X0X. 5 Y.-X4X8X7X7X4X].).3X8X8X8Xz.  ] 9X X5 & 0X0X0X0X0X0X0X0X0X0X0X0X0X0X0X0X0X0X0X0X0X",
"0X0X0X0X0X0X0X0X0X0X0X0X0X0X0X0X0X0X0X0X0XI ! .X-X3X:X;X-X-X@XoX-X4X:X8Xc.I X.z.a.5 ; b 0X0X0X0X0X0X0X0X0X0X0X0X0X0X0X0X0X0X0X0X",
"0X0X0X0X0X0X0X0X0X0X0X0X0X0X0X0X0X0X0X2 P |.+X:X>X-X+XoX].{.:X>X*X%X:X7X8X2Xp.$ $ o O ; : j 0X0X0X0X0X0X0X0X0X0X0X0X0X0X0X0X0X0X",
"0X0X0X0X0X0X0X0X0X0X0X0X0X0X0X0X0X0Xn 9 I  X-X5X5X-X&X).P.R.;X:X-X*X:X2X8X2Xp.O $ 7 0 7 0 M 0X0X0X0X0X0X0X0X0X0X0X0X0X0X0X0X0X0X",
"0X0X0X0X0X0X0X0X0X0X0X0X0X0X0X0X: : | P.R.3X4X7X<X5X7Xz.7 K |.-X:X:X>X<X2X9Xp.X w l.U.C.C.| : j 0X0X0X0X0X0X0X0X0X0X0X0X0X0X0X0X",
"0X0X0X0X0X0X0X0X0X0X0X0X0X0X0X0Xo . } ].@X5X6X<X2X6X7Xp.. e _.%X4X2X1X5X2X8Xp.O w U.[.].[.| X z 0X0X0X0X0X0X0X0X0X0X0X0X0X0X0X0X",
"0X0X0X0X0X0X0X0X0X0X0X0X0X0X0X0X. .  .#X%X>X<X<X<Xa.I { #.#.I !  X8X&X+Xx.I X.z.c.-X&X;.P { f.+.g 1 0X0X0X0X0X0X0X0X0X0X0X0X0X0X",
"0X0X0X0X0X0X0X0X0X0X0X0X0X0X0X0X. .  .=X-X5X1X7X<X[   Y b.v.* 3 .X6X+X[.6.  [ 7X8X8X:XJ   O.n.#.$ : 0X0X0X0X0X0X0X0X0X0X0X0X0X0X",
"0X0X0X0X0X0X0X0X0X0X0X0X0X0X0X0Xo .  .*X-X5X5X;X;X[ % r @.O.] X. X<Xx.;.;.` p.5X>X;X&XJ . U @.+.r g 0X0X0X0X0X0X0X0X0X0X0X0X0X0X",
"0X0X0X0X0X0X0X0X0X0X0X0X0X0X0X0X. +  .$X-X1X5X*X+X` . +   e |.*X:X<Xo.  E `.#X7X:X*XOXK . . X h 0X0X0X0X0X0X0X0X0X0X0X0X0X0X0X0X",
"0X0X0X0X0X0X0X0X0X0X0X0X0X0X0X0X. .  .$X$X5X3X+XOX` . 6 w E |.%X5X<Xo.. E /.oX4X4X+X|.H . < h k 0X0X0X0X0X0X0X0X0X0X0X0X0X0X0X0X",
"0X0X0X0X0X0X0X0X0X0X0X0X0X0X0X0Xo # ' [.{.%X$X{.[.! % L V.K.#X%X4X6Xo.% L K.`.$X$X].Q.S X x 0X0X0X0X0X0X0X0X0X0X0X0X0X0X0X0X0X0X",
"0X0X0X0X0X0X0X0X0X0X0X0X0X0X0X0Xo $ ' '.[.#X+XE.R.E . R S.J.#X%X>X8Xo.. P S./.$X#XR.I.P ; 0X0X0X0X0X0X0X0X0X0X0X0X0X0X0X0X0X0X0X",
"0X0X0X0X0X0X0X0X0X0X0X0X0X0X0X0X. o ' J.J.}.T.E e 5 . R H.~.#X%X:X8Xo.% D t.S.{.L.S a Z 0X0X0X0X0X0X0X0X0X0X0X0X0X0X0X0X0X0X0X0X",
"0X0X0X0X0X0X0X0X0X0X0X0X0X0X0X0X. . / F.!.'.I.w . O . R F.J.@X+X4X6Xo.. D r.Z.].C.3 : 0X0X0X0X0X0X0X0X0X0X0X0X0X0X0X0X0X0X0X0X0X",
"0X0X0X0X0X0X0X0X0X0X0X0X0X0X0X0X+ + Q t.N.H.V.w . O . D r.N.(.{.$X*X[ . D w.N.~.h.6 : 0X0X0X0X0X0X0X0X0X0X0X0X0X0X0X0X0X0X0X0X0X",
"0X0X0X0X0X0X0X0X0X0X0X0X0X0X0X0X; + ^ t.B.H.V.i ; @ @ T M.M.'.[.@X$X| . D t.N.!.0.< : 0X0X0X0X0X0X0X0X0X0X0X0X0X0X0X0X0X0X0X0X0X",
"0X0X0X0X0X0X0X0X0X0X0X0X0X0X0Xc / =.2.t.q.Q ( Z C A A N G ^ K.~.[.{.` . s 3.1.R ( Z C 0X0X0X0X0X0X0X0X0X0X0X0X0X0X0X0X0X0X0X0X0X",
"0X0X0X0X0X0X0X0X0X0X0X0X0X0XX $ :.y.y.y.:.= : 0X0X0X0X0X+ 0 Z.!.`.}.! . s 4.^ # : 0X0X0X0X0X0X0X0X0X0X0X0X0X0X0X0X0X0X0X0X0X0X0X",
"0X0X0X0X0X0X0X0X0X0X0X0X0X0X. # &.e.1.=.$.t j 0X0X0X0X0X@ 0 e.N.F.J.W . q ^ ( t j 0X0X0X0X0X0X0X0X0X0X0X0X0X0X0X0X0X0X0X0X0X0X0X",
"0X0X0X0X0X0X0X0X0X0X0X0X0X0Xo $ $.4.~ # > 0X0X0X0X0X0X0X@ q 1.3.w.t.L . + @ k 0X0X0X0X0X0X0X0X0X0X0X0X0X0X0X0X0X0X0X0X0X0X0X0X0X",
"0X0X0X0X0X0X0X0X0X0X0X0X0X0X. $ $.4.G o , 0X0X0X0X0X0X0X1 v &.-.e.e.~ 4 4 + c 0X0X0X0X0X0X0X0X0X0X0X0X0X0X0X0X0X0X0X0X0X0X0X0X0X",
"0X0X0X0X0X0X0X0X0X0X0X0X0X0X. # $.<.f o , 0X0X0X0X0X0X0X0X0X- q -.4.1.%.G @ c 0X0X0X0X0X0X0X0X0X0X0X0X0X0X0X0X0X0X0X0X0X0X0X0X0X",
"0X0X0X0X0X0X0X0X0X0X0X0X0X0X@ > N <.f - < 0X0X0X0X0X0X0X0X0X; > $.4.<.%.G = k 0X0X0X0X0X0X0X0X0X0X0X0X0X0X0X0X0X0X0X0X0X0X0X0X0X",
"0X0X0X0X0X0X0X0X0X0X0X0X0X0X0X0Xy q d 0X0X0X0X0X0X0X0X0X0X0X0X0Xd y y q 4 = l 0X0X0X0X0X0X0X0X0X0X0X0X0X0X0X0X0X0X0X0X0X0X0X0X0X",
"0X0X0X0X0X0X0X0X0X0X0X0X0X0X0X0X@ 2 l 0X0X0X0X0X0X0X0X0X0X0X0X0X1 X @ - @ ; l 0X0X0X0X0X0X0X0X0X0X0X0X0X0X0X0X0X0X0X0X0X0X0X0X0X",
"0X0X0X0X0X0X0X0X0X0X0X0X0X0X0X0X0XV 0X0X0X0X0X0X0X0X0X0X0X0X0X0XV V V V V V 0X0X0X0X0X0X0X0X0X0X0X0X0X0X0X0X0X0X0X0X0X0X0X0X0X0X",
"0X0X0X0X0X0X0X0X0X0X0X0X0X0X0X0X0X0X0X0X0X0X0X0X0X0X0X0X0X0X0X0X0X0X0X0X0X0X0X0X0X0X0X0X0X0X0X0X0X0X0X0X0X0X0X0X0X0X0X0X0X0X0X0X",
"0X0X0X0X0X0X0X0X0X0X0X0X0X0X0X0X0X0X0X0X0X0X0X0X0X0X0X0X0X0X0X0X0X0X0X0X0X0X0X0X0X0X0X0X0X0X0X0X0X0X0X0X0X0X0X0X0X0X0X0X0X0X0X0X",
"0X0X0X0X0X0X0X0X0X0X0X0X0X0X0X0X0X0X0X0X0X0X0X0X0X0X0X0X0X0X0X0X0X0X0X0X0X0X0X0X0X0X0X0X0X0X0X0X0X0X0X0X0X0X0X0X0X0X0X0X0X0X0X0X",
"0X0X0X0X0X0X0X0X0X0X0X0X0X0X0X0X0X0X0X0X0X0X0X0X0X0X0X0X0X0X0X0X0X0X0X0X0X0X0X0X0X0X0X0X0X0X0X0X0X0X0X0X0X0X0X0X0X0X0X0X0X0X0X0X"
};
