/* XPM */
static char *result[] = {
/* columns rows colors chars-per-pixel */
"64 64 200 2 ",
"   c #161615",
".  c #191516",
"X  c #171815",
"o  c #191817",
"O  c #171619",
"+  c #1B151A",
"@  c #161918",
"#  c #19191B",
"$  c #0C0E0A",
"%  c #1C1D24",
"&  c #1F1122",
"*  c #241325",
"=  c #2A132B",
"-  c #241829",
";  c #2B1934",
":  c #321135",
">  c #3A133C",
",  c #2C0F29",
"<  c #1E212C",
"1  c #23252B",
"2  c #25292C",
"3  c #282A2E",
"4  c #212526",
"5  c #222533",
"6  c #242A35",
"7  c #2D233B",
"8  c #272C3A",
"9  c #2B2D3D",
"0  c #24273A",
"q  c #2D333C",
"w  c #30333A",
"e  c #3B1A44",
"r  c #2A2D41",
"t  c #2C2447",
"y  c #2D3444",
"u  c #2F334B",
"i  c #323A45",
"p  c #393E47",
"a  c #31364B",
"s  c #353B49",
"d  c #3A3F49",
"f  c #3A3447",
"g  c #3E2850",
"h  c #363C56",
"j  c #392B47",
"k  c #482956",
"l  c #433956",
"z  c #542C56",
"x  c #583D6E",
"c  c #762F77",
"v  c #3D424A",
"b  c #394047",
"n  c #3D465C",
"m  c #3A4457",
"M  c #3C4465",
"N  c #434953",
"B  c #474755",
"V  c #4D535A",
"C  c #464C6A",
"Z  c #4C576C",
"A  c #474D73",
"S  c #4C5679",
"D  c #5C5A7C",
"F  c #50527F",
"G  c #504A6B",
"H  c #6F4C7F",
"J  c #744A7A",
"K  c #54637A",
"L  c #5C6672",
"P  c #55616B",
"I  c #636A7C",
"U  c #4B5497",
"Y  c #535B90",
"T  c #4E5983",
"R  c #556480",
"E  c #5C6C84",
"W  c #59678B",
"Q  c #5D708B",
"!  c #5A699A",
"~  c #5F7390",
"^  c #6D7787",
"/  c #6B7689",
"(  c #667389",
")  c #757B89",
"_  c #606F9B",
"`  c #6A7D9D",
"'  c #697997",
"]  c #4C57A1",
"[  c #5C6AA3",
"{  c #5C6CAB",
"}  c #6373AD",
"|  c #687BA1",
" . c #6373B4",
".. c #6577BA",
"X. c #6B7EBB",
"o. c #687AB9",
"O. c #616CA6",
"+. c #6B7CC1",
"@. c #88368D",
"#. c #86378C",
"$. c #9C409F",
"%. c #9B40A1",
"&. c #DE4FE5",
"*. c #DE51E5",
"=. c #6D819D",
"-. c #79879B",
";. c #6E84A7",
":. c #778AAA",
">. c #7689B6",
",. c #7C92B5",
"<. c #6E82C0",
"1. c #768BC2",
"2. c #788EC2",
"3. c #788ECA",
"4. c #748BC8",
"5. c #7D94C5",
"6. c #7C93CC",
"7. c #7E98CE",
"8. c #7C95D0",
"9. c #828D9E",
"0. c #83888E",
"q. c #8393B2",
"w. c #8397BC",
"e. c #879CBE",
"r. c #8593AA",
"t. c #98A5BD",
"y. c #839BC4",
"u. c #8299CE",
"i. c #8195CC",
"p. c #929FC8",
"a. c #839CD3",
"s. c #8AA2C4",
"d. c #8BA4CD",
"f. c #9BADCB",
"g. c #95A7C3",
"h. c #8AA5D6",
"j. c #8DA8D4",
"k. c #89A5D9",
"l. c #8EABDC",
"z. c #86A1D6",
"x. c #95ABD6",
"c. c #91AEDD",
"v. c #97ACD4",
"b. c #92B1DE",
"n. c #9AB4DE",
"m. c #9EB9DF",
"M. c #9DB4D6",
"N. c #ADB7C6",
"B. c #B4BDCB",
"V. c #B8BFCB",
"C. c #A4B5D3",
"Z. c #AABEDC",
"A. c #A4B8D7",
"S. c #92AFE0",
"D. c #93B2E2",
"F. c #99B5E0",
"G. c #9CB8E2",
"H. c #A4BCE2",
"J. c #AABFE2",
"K. c #A0B7E2",
"L. c #ACC0DD",
"P. c #B3C4DE",
"I. c #BBC9DE",
"U. c #ADC3E3",
"Y. c #AEC4E9",
"T. c #A6C0E2",
"R. c #B2C6E3",
"E. c #B4C9E6",
"W. c #BBCCE5",
"Q. c #B2C7E9",
"!. c #B4C9E8",
"~. c #BCCCE8",
"^. c #BFD0E8",
"/. c #C0C9D9",
"(. c #D3D7DD",
"). c #C1CFE6",
"_. c #C2CFE8",
"`. c #C4D2E6",
"'. c #CAD5E6",
"]. c #CFD9E7",
"[. c #C4D2E9",
"{. c #CAD7E9",
"}. c #CED9E9",
"|. c #D1DAE7",
" X c #D3DBE9",
".X c #D9DFEA",
"XX c #DCE2EB",
"oX c #DAE1E7",
"OX c #E2E6EC",
"+X c #E5E9EE",
"@X c #EEEFEF",
"#X c #F0EFEE",
"$X c #EEF0EE",
"%X c #F0F0EE",
"&X c #EEEEF0",
"*X c #E5E9F1",
"=X c #F0EFF0",
"-X c #EEF0F1",
";X c #F1F0F1",
":X c None",
/* pixels */
":X:X:X:X:X:X:X:X:X:X:X:X:X:X:X:X:X:X:X:X:X:X:X:X:X:X:X:X:X:X:X:X:X:X:X:X:X:X:X:X:X:X:X:X:X:X:X:X:X:X:X:X:X:X:X:X:X:X:X:X:X:X:X:X",
":X:X:X:X:X:X:X:X:X:X:X:X:X:X:X:X:X:X:X:X:X:X:X:X:X:X:X:X:X:X:X:X:X:X:X:X:X:X:X:X:X:X:X:X:X:X:X:X:X:X:X:X:X:X:X:X:X:X:X:X:X:X:X:X",
":X:X:X:X:X:X:X:X:X:X:X:X:X:X:X:X:X:X:X:X:X:X:X:X:X:X:X:X:X:X:X:X:X:X:X:X:X:X:X:X:X:X:X:X:X:X:X:X:X:X:X:X:X:X:X:X:X:X:X:X:X:X:X:X",
":X:X:X:X:X:X:X:X:X:X:X:X:X:X:X:X:X:X:X:X:X:X:X:X:X:X:X:X:X:X:X:X:X:X:X:X:X:X:X:X:X:X:X:X:X:X:X:X:X:X:X:X:X:X:X:X:X:X:X:X:X:X:X:X",
":X:X:X:X:X:X:X:X:X:X:X:X:X:X:X:X:X:X:X:X:X:X:X:X:X:X:X:X:X:X:X:X:X:X:X:X:X:X:X:X:X:X:X:X:X:X:X:X:X:X:X:X:X:X:X:X:X:X:X:X:X:X:X:X",
":X:X:X:X:X:X:X:X:X:X:X:X:X:X:X:X:X:X:X:X:X:X:X:X:X:X:X:X, . X X   X X X + :X:X:X:X:X:X:X:X:X:X:X:X:X:X:X:X:X:X:X:X:X:X:X:X:X:X:X",
":X:X:X:X:X:X:X:X:X:X:X:X:X:X:X:X:X:X:X:X:X:X:X:X:X:X:X:Xj 9 q q q w w 9 r :X:X:X:X:X:X:X:X:X:X:X:X:X:X:X:X:X:X:X:X:X:X:X:X:X:X:X",
":X:X:X:X:X:X:X:X:X:X:X:X:X:X:X:X:X:X:X:X:X:X:X:X:X:X* 7 ,.d.f.C.C.C.M.d.p.B * :X:X:X:X:X:X:X:X:X:X:X:X:X:X:X:X:X:X:X:X:X:X:X:X:X",
":X:X:X:X:X:X:X:X:X:X:X:X:X:X:X:X:X:X:X:X:X:X:X:X:X:X@ 6 e.D.H.R.E.R.U.D.b.n # :X:X:X:X:X:X:X:X:X:X:X:X:X:X:X:X:X:X:X:X:X:X:X:X:X",
":X:X:X:X:X:X:X:X:X:X:X:X:X:X:X:X:X:X:X:X:X:X:X:X  m ;.:.m.L.~.[.'.'.[.J.T.,.;.K @ = :X:X:X:X:X:X:X:X:X:X:X:X:X:X:X:X:X:X:X:X:X:X",
":X:X:X:X:X:X:X:X:X:X:X:X:X:X:X:X:X:X:X:X:X:X:X:X  m c.F.U.U.`.].].|.{.E.Y.G.D.~ # = :X:X:X:X:X:X:X:X:X:X:X:X:X:X:X:X:X:X:X:X:X:X",
":X:X:X:X:X:X:X:X:X:X:X:X:X:X:X:X:X:X:X:X:X:X:X:XX m n.Z.[.].XXXXXXXXXX].{.U.H.( @ = :X:X:X:X:X:X:X:X:X:X:X:X:X:X:X:X:X:X:X:X:X:X",
":X:X:X:X:X:X:X:X:X:X:X:X:X:X:X:X:X:X:X:X:X:X:X:X  B R.W.*X-X;X=X=X=X#X$X-X[.Q.) X , :X:X:X:X:X:X:X:X:X:X:X:X:X:X:X:X:X:X:X:X:X:X",
":X:X:X:X:X:X:X:X:X:X:X:X:X:X:X:X:X:X:X:X:X:X:X:Xw L P.W.+X%X$X%X#X#X#X#X@X`.E.9.w l :X:X:X:X:X:X:X:X:X:X:X:X:X:X:X:X:X:X:X:X:X:X",
":X:X:X:X:X:X:X:X:X:X:X:X:X:X:X:X:X:X:X:X:X> . N C.P.].|.@X=X#X@X@X#X&X=X=X.X}.I.Z.t.1 + :X:X:X:X:X:X:X:X:X:X:X:X:X:X:X:X:X:X:X:X",
":X:X:X:X:X:X:X:X:X:X:X:X:X:X:X:X:X:X:X:X:X> . N R._..X.X+X@X=X=X#X=X#X@X@XXX.X{.W.t.< X :X:X:X:X:X:X:X:X:X:X:X:X:X:X:X:X:X:X:X:X",
":X:X:X:X:X:X:X:X:X:X:X:X:X:X:X:X:X:X:X:X:X> + B '..X@X@X@X@X@X$X-X@X=X$X@X@X@XOX|.N.4   :X:X:X:X:X:X:X:X:X:X:X:X:X:X:X:X:X:X:X:X",
":X:X:X:X:X:X:X:X:X:X:X:X:X:X:X:X:X:X:X:X:Xe % V '.XX@X@X@X@X#X@X#X#X@X@X%X&X#XOX XN.6 % :X:X:X:X:X:X:X:X:X:X:X:X:X:X:X:X:X:X:X:X",
":X:X:X:X:X:X:X:X:X:X:X:X:X:X:X:X:X:X:X: = D ,.g.]..X=X&X@X@X#X#X@X#X&X%X@X#X%XOX XI.q.,.l , :X:X:X:X:X:X:X:X:X:X:X:X:X:X:X:X:X:X",
":X:X:X:X:X:X:X:X:X:X:X:X:X:X:X:X:X:X:X+   E D.Z.}.XX@X#X#X@X@X@X&X@X#X@X#X#X%XOX|.[.n.l.s . :X:X:X:X:X:X:X:X:X:X:X:X:X:X:X:X:X:X",
":X:X:X:X:X:X:X:X:X:X:X:X:X:X:X:X:X:X:Xo O ( H.U.}..X&X=X@X#X@X$X%X&X%X@X#X#X%XOX|.[.H.m.b   :X:X:X:X:X:X:X:X:X:X:X:X:X:X:X:X:X:X",
":X:X:X:X:X:X:X:X:X:X:X:X:X:X:X:X:X:X:X# O / !.E.|..X&X=X$X@X#X#X@X#X$X=X#X#X=XOX|.{.P.Z.v   :X:X:X:X:X:X:X:X:X:X:X:X:X:X:X:X:X:X",
":X:X:X:X:X:X:X:X:X:X:X:X:X:X:X:X:X:X:X+   ^ !.W.}. X*X+X&X@X#X@X=X&X&X=X#X+X+XoX|.{.E.L.v . :X:X:X:X:X:X:X:X:X:X:X:X:X:X:X:X:X:X",
":X:X:X:X:X:X:X:X:X:X:X:X:X:X:X:X:X:X:X#   ^ R.E.|.|.|.|.&X#X$X%X#X#X#X#X#X.X|.|.|.{.Q.Z.v   :X:X:X:X:X:X:X:X:X:X:X:X:X:X:X:X:X:X",
":X:X:X:X:X:X:X:X:X:X:X:X:X:X:X:X:X:X:X+ O / Y.E.{.].].|.+X-X@X$X&X@X$X@X@XXX].}.].[.Y.Z.v   :X:X:X:X:X:X:X:X:X:X:X:X:X:X:X:X:X:X",
":X:X:X:X:X:X:X:X:X:X:X:X:X:X:X:X:X:X:X# O E F.m.E.).|.|. X X X X|. X X X X|.|.`.Q.R.n.x.s O :X:X:X:X:X:X:X:X:X:X:X:X:X:X:X:X:X:X",
":X:X:X:X:X:X:X:X:X:X:X:X:X:X:X:X:X:X:X+ O E S.F.Y.~.}.}.}.}.}.}.|.].].].].}.}.[.R.J.c.l.s X :X:X:X:X:X:X:X:X:X:X:X:X:X:X:X:X:X:X",
":X:X:X:X:X:X:X:X:X:X:X:X:X:X:X:X:X:X:X# O R a.k.m.K.J.J.W.^.~.W.~.~.~.W.W.Y.H.Z.G.n.a.7.s O :X:X:X:X:X:X:X:X:X:X:X:X:X:X:X:X:X:X",
":X:X:X:X:X:X:X:X:X:X:X:X:X:X:X:X:X:X:X+ . S 8.a.c.c.l.b.U.R.R.R.R.R.Y.R.U.n.c.c.S.l.8.5.y . :X:X:X:X:X:X:X:X:X:X:X:X:X:X:X:X:X:X",
":X:X:X:X:X:X:X:X:X:X:X:X:X:X:X:X:X:X:X:X# G W | a.a.k.h.H.H.H.H.H.T.H.H.T.c.k.z.a.5.! W w + :X:X:X:X:X:X:X:X:X:X:X:X:X:X:X:X:X:X",
":X:X:X:X:X:X:X:X:X:X:X:X:X:X:X:X:X:X:X:X:Xe + u  .X.6.6.l.D.S.S.b.c.S.S.S.a.6.<...! < + :X:X:X:X:X:X:X:X:X:X:X:X:X:X:X:X:X:X:X:X",
":X:X:X:X:X:X:X:X:X:X:X:X:X:X:X:X:X:X:X:X:X>   q [ } 3.6.k.l.l.S.S.b.l.l.l.8.4.>.[ T % # :X:X:X:X:X:X:X:X:X:X:X:X:X:X:X:X:X:X:X:X",
":X:X:X:X:X:X:X:X:X:X:X:X:X:X:X:X:X:X:X:X:X> . % < h ..X.6.6.h.S.l.S.l.7.6.<.+.T < 1 # # :X:X:X:X:X:X:X:X:X:X:X:X:X:X:X:X:X:X:X:X",
":X:X:X:X:X:X:X:X:X:X:X:X:X:X:X:X:X:X:X:X:X> # @ @ y  ...3.3.k.c.S.S.l.6.6.>...M o X o # :X:X:X:X:X:X:X:X:X:X:X:X:X:X:X:X:X:X:X:X",
":X:X:X:X:X:X:X:X:X:X:X:X:X:X:X:X:X:X:X:X+ D ` =.:.r.v.x.h.k.l.S.S.S.l.k.k.x.l.y.-.:.` ' i + :X:X:X:X:X:X:X:X:X:X:X:X:X:X:X:X:X:X",
":X:X:X:X:X:X:X:X:X:X:X:X:X:X:X:X:X:X:X@ @ E D.G.!.!.!.Y.b.b.b.c.S.b.S.S.S.J.!.!.Q.Y.F.l.d + :X:X:X:X:X:X:X:X:X:X:X:X:X:X:X:X:X:X",
":X:X:X:X:X:X:X:X:X:X:X:X:X:X:X:X:X- % ~ ` g.^.`..X X'._.~.W.W.W.W.W.~.~.~.).`.|.XX.X).W.,.| y + :X:X:X:X:X:X:X:X:X:X:X:X:X:X:X:X",
":X:X:X:X:X:X:X:X:X:X:X:X:X:X:X:X:X& # ,.D.E. XXX;X&X].|.].|.|.|.}.|.|.|.|.|.}.XX=X+X|.].H.j.i   > :X:X:X:X:X:X:X:X:X:X:X:X:X:X:X",
":X:X:X:X:X:X:X:X:X:X:X:X:X:X:X:Xz Z Z v.T.{.XXXX X.XXXXXXXXXXXoXXXXXXXXXXXXXOX.X.X.XXXXXU.n.E Z x :X:X:X:X:X:X:X:X:X:X:X:X:X:X:X",
":X:X:X:X:X:X:X:X:X:X:X:X:X:X:X+ s j.b.[.}.OX;XXXR.`.#X=X%X#X#X@X$X@X$X$X-X=X=X XR.W.+X@X).Y.F.D.K O + :X:X:X:X:X:X:X:X:X:X:X:X:X",
":X:X:X:X:X:X:X:X:X:X:X:X:X:X:X  s x.n.'..X+X=XOXW.~..XOX@X#X@X@X#X#X#X#X$XoXoX].E.W.+X$X[.Q.n.S.K   # :X:X:X:X:X:X:X:X:X:X:X:X:X",
":X:X:X:X:X:X:X:X:X:X:X:X:X:X:XX b A.R.OX+X#X=X+X].R.i.p.XX#X#X@X&X%X@X@X-XM.7.A.}.oX$X$X.X[.Z.l.K   . :X:X:X:X:X:X:X:X:X:X:X:X:X",
":X:X:X:X:X:X:X:X:X:X:X:X:X:X:X  b Z.E.OX&X&X&X+X XR.2.w..X#X@X@X$X@X-X@X-Xf.%.f.}. X+X$X.X].G.l.K   # :X:X:X:X:X:X:X:X:X:X:X:X:X",
":X:X:X:X:X:X:X:X:X:X:X:X:X:X:X  b Z.E.|..X'.).W.H.q.a n /..X+X#X@X#X&XoX XE m ) ~.W.XXoX|.}.K.F.K   + :X:X:X:X:X:X:X:X:X:X:X:X:X",
":X:X:X:X:X:X:X:X:X:X:X:X:X:X:X  b Z.R.{.].~.R.H.D.| # 2 P. XOX%X#X#X&X.X}.V . P !.!.}.|.].].H.D.K   + :X:X:X:X:X:X:X:X:X:X:X:X:X",
":X:X:X:X:X:X:X:X:X:X:X:X:X:X:X  p M.H.E.).R.Z.s.E V # 3 V. XOX-X+XOX(.0.) J c Y ( -.I.^.E.U.' R G :X:X:X:X:X:X:X:X:X:X:X:X:X:X:X",
":X:X:X:X:X:X:X:X:X:X:X:X:X:X:X  s j.S.U.R.H.D.;.# . @ 5 V.|.OX-X+X.XB.2 + %.*.@.$ w A.Q.n.j.s   > :X:X:X:X:X:X:X:X:X:X:X:X:X:X:X",
":X:X:X:X:X:X:X:X:X:X:X:X:X:X:XX i j.S.G.Z.s.:._ ; *   3 N.`.XX&XXX{.B.3 + @.*.@.X w f.H.x.u.i O > :X:X:X:X:X:X:X:X:X:X:X:X:X:X:X",
":X:X:X:X:X:X:X:X:X:X:X:X:X:X:X  s j.l.a.6.A % < :X:X@ 1 e.b.W. X`.R.f.2 & %.&.@.  9 2.i.<. .9 + e :X:X:X:X:X:X:X:X:X:X:X:X:X:X:X",
":X:X:X:X:X:X:X:X:X:X:X:X:X:X:X  i j.l.5.2.C . X :X:X. 5 ,.j.P.}.`.E.f.3 + %.&.@.  9 >.3...{ r + :X:X:X:X:X:X:X:X:X:X:X:X:X:X:X:X",
":X:X:X:X:X:X:X:X:X:X:X:X:X:X:X  y 6.6.n 9 k :X:X:X:X:X:Xj i r.~.U.n.e.2 & %.&.@.  0 } o.m 0 :X:X:X:X:X:X:X:X:X:X:X:X:X:X:X:X:X:X",
":X:X:X:X:X:X:X:X:X:X:X:X:X:X:X  y >.1.9 . :X:X:X:X:X:X:X,   -.E.T.b.7.2 + %.*.@.  0 } } r + :X:X:X:X:X:X:X:X:X:X:X:X:X:X:X:X:X:X",
":X:X:X:X:X:X:X:X:X:X:X:X:X:X:X@ r X.X.9 . e :X:X:X:X:X:X= @ ( c.j.D.y.2 . z c x C M M M k :X:X:X:X:X:X:X:X:X:X:X:X:X:X:X:X:X:X:X",
":X:X:X:X:X:X:X:X:X:X:X:X:X:X:X  r {  .8 + e :X:X:X:X:X:X= @ W 8.a.D.5.1   @   n +.! % O :X:X:X:X:X:X:X:X:X:X:X:X:X:X:X:X:X:X:X:X",
":X:X:X:X:X:X:X:X:X:X:X:X:X:X:X+ r { { 6 + :X:X:X:X:X:X:X= @ S _ ;.l.5.v r -   a Y T < & :X:X:X:X:X:X:X:X:X:X:X:X:X:X:X:X:X:X:X:X",
":X:X:X:X:X:X:X:X:X:X:X:X:X:X:XX r U ] 5 + :X:X:X:X:X:X:X:X:X# @ M 6.3... .u   O + ; :X:X:X:X:X:X:X:X:X:X:X:X:X:X:X:X:X:X:X:X:X:X",
":X:X:X:X:X:X:X:X:X:X:X:X:X:X:X* t U U t , :X:X:X:X:X:X:X:X:X:X* B >.>.{ O.h % % # = :X:X:X:X:X:X:X:X:X:X:X:X:X:X:X:X:X:X:X:X:X:X",
":X:X:X:X:X:X:X:X:X:X:X:X:X:X:X:X:X7 % :X:X:X:X:X:X:X:X:X:X:X:X:Xk r 6 5 0 S [ M . = :X:X:X:X:X:X:X:X:X:X:X:X:X:X:X:X:X:X:X:X:X:X",
":X:X:X:X:X:X:X:X:X:X:X:X:X:X:X:X:X= * :X:X:X:X:X:X:X:X:X:X:X:X:X:X= * * - T { A * : :X:X:X:X:X:X:X:X:X:X:X:X:X:X:X:X:X:X:X:X:X:X",
":X:X:X:X:X:X:X:X:X:X:X:X:X:X:X:X:X:X:X:X:X:X:X:X:X:X:X:X:X:X:X:X:X:X:X:X:Xe 5 7 :X:X:X:X:X:X:X:X:X:X:X:X:X:X:X:X:X:X:X:X:X:X:X:X",
":X:X:X:X:X:X:X:X:X:X:X:X:X:X:X:X:X:X:X:X:X:X:X:X:X:X:X:X:X:X:X:X:X:X:X:X:X: + :X:X:X:X:X:X:X:X:X:X:X:X:X:X:X:X:X:X:X:X:X:X:X:X:X",
":X:X:X:X:X:X:X:X:X:X:X:X:X:X:X:X:X:X:X:X:X:X:X:X:X:X:X:X:X:X:X:X:X:X:X:X:X:X:X:X:X:X:X:X:X:X:X:X:X:X:X:X:X:X:X:X:X:X:X:X:X:X:X:X",
":X:X:X:X:X:X:X:X:X:X:X:X:X:X:X:X:X:X:X:X:X:X:X:X:X:X:X:X:X:X:X:X:X:X:X:X:X:X:X:X:X:X:X:X:X:X:X:X:X:X:X:X:X:X:X:X:X:X:X:X:X:X:X:X",
":X:X:X:X:X:X:X:X:X:X:X:X:X:X:X:X:X:X:X:X:X:X:X:X:X:X:X:X:X:X:X:X:X:X:X:X:X:X:X:X:X:X:X:X:X:X:X:X:X:X:X:X:X:X:X:X:X:X:X:X:X:X:X:X"
};
