/* XPM */
static char *result[] = {
/* columns rows colors chars-per-pixel */
"64 64 212 2 ",
"   c #0F1710",
".  c #141515",
"X  c #191416",
"o  c #161519",
"O  c #1C141D",
"+  c #16191B",
"@  c #1A1C1D",
"#  c #151816",
"$  c #21121D",
"%  c #1E1321",
"&  c #1A1D24",
"*  c #191C27",
"=  c #1F1F30",
"-  c #231324",
";  c #241B26",
":  c #261528",
">  c #2A142B",
",  c #231C2B",
"<  c #291829",
"1  c #2E1432",
"2  c #291D36",
"3  c #311533",
"4  c #361339",
"5  c #3B123A",
"6  c #3C1A3C",
"7  c #371C3C",
"8  c #30192F",
"9  c #1C2024",
"0  c #1E222B",
"q  c #1E2831",
"w  c #24252B",
"e  c #26292D",
"r  c #282A2E",
"t  c #2A2234",
"y  c #222339",
"u  c #242A39",
"i  c #282C39",
"p  c #3A213C",
"a  c #2E353E",
"s  c #421E3E",
"d  c #41203E",
"f  c #3D1C42",
"g  c #3F1743",
"h  c #282C44",
"j  c #3D2345",
"k  c #372548",
"l  c #2D334A",
"z  c #2C3647",
"x  c #323A43",
"c  c #353D4D",
"v  c #30344A",
"b  c #3C3D51",
"n  c #343D5B",
"m  c #4C164E",
"M  c #451947",
"N  c #4D1951",
"B  c #591E5C",
"V  c #452249",
"C  c #4A224C",
"Z  c #582559",
"A  c #4B3C5D",
"S  c #423351",
"D  c #60255F",
"F  c #5B2D63",
"G  c #4C3461",
"H  c #4A3C61",
"J  c #553365",
"K  c #64336A",
"L  c #75377A",
"P  c #653C74",
"I  c #3C434C",
"U  c #3B4453",
"Y  c #394658",
"T  c #3C4967",
"R  c #43464C",
"E  c #47484F",
"W  c #424A54",
"Q  c #44435A",
"!  c #43486C",
"~  c #444E76",
"^  c #474E79",
"/  c #4D5B7B",
"(  c #555778",
")  c #4B4D6D",
"_  c #605E7F",
"`  c #614767",
"'  c #546377",
"]  c #4F6075",
"[  c #656D7B",
"{  c #70757C",
"}  c #4C5684",
"|  c #555C8A",
" . c #535A83",
".. c #525E93",
"X. c #4B518F",
"o. c #5B6B84",
"O. c #596787",
"+. c #596799",
"@. c #616E85",
"#. c #656389",
"$. c #6A7687",
"%. c #6A7689",
"&. c #737882",
"*. c #687896",
"=. c #6C759A",
"-. c #5059A4",
";. c #5C68A5",
":. c #616DA4",
">. c #6475A3",
",. c #6C7AAB",
"<. c #6979AA",
"1. c #717EA6",
"2. c #6574B4",
"3. c #6A79B6",
"4. c #6C7DBC",
"5. c #6678B9",
"6. c #8F4994",
"7. c #A947AD",
"8. c #AB46B1",
"9. c #CB51D3",
"0. c #CC50D2",
"q. c #798AAC",
"w. c #7987A1",
"e. c #7C8EB4",
"r. c #7487BA",
"t. c #7D94B7",
"y. c #6C81BC",
"u. c #7185C3",
"i. c #7B8CC3",
"p. c #7A8DCB",
"a. c #768AC6",
"s. c #7C93CD",
"d. c #7D94C7",
"f. c #7E97D0",
"g. c #6E82C0",
"h. c #8D9299",
"j. c #8397B6",
"k. c #919FB9",
"l. c #95A5BA",
"z. c #99A4BB",
"x. c #A8ACBA",
"c. c #869CC5",
"v. c #8094CC",
"b. c #8297CA",
"n. c #849CD4",
"m. c #8197D3",
"M. c #8DA4C6",
"N. c #9DABC3",
"B. c #9CAECA",
"V. c #91A2C7",
"C. c #8CA2D4",
"Z. c #8FABD4",
"A. c #8DA5D9",
"S. c #8EABDC",
"D. c #87A3D7",
"F. c #92ABD3",
"G. c #92AEDD",
"H. c #96ABD6",
"J. c #96B1DE",
"K. c #9BB4DD",
"L. c #A2BADE",
"P. c #ABBDDA",
"I. c #A8B8D0",
"U. c #AEB9D1",
"Y. c #92AEE1",
"T. c #95B2E2",
"R. c #9BB5E2",
"E. c #9DB8E0",
"W. c #8FABE0",
"Q. c #A3BBE3",
"!. c #A8BEE2",
"~. c #A2B7E0",
"^. c #AEC2DE",
"/. c #AFC2D7",
"(. c #B3C4DB",
"). c #B9C5DB",
"_. c #B9C8DF",
"`. c #ADC3E4",
"'. c #ADC3E8",
"]. c #AAC5E6",
"[. c #B2C6E4",
"{. c #B5C8E4",
"}. c #BBCBE5",
"|. c #B3C6E9",
" X c #B9CBE8",
".X c #CBD2DE",
"XX c #C2CEE4",
"oX c #C3D1E5",
"OX c #CAD5E5",
"+X c #CDDAE7",
"@X c #C4D1E9",
"#X c #CBD6EB",
"$X c #CDD9EA",
"%X c #D2DAE6",
"&X c #D3DBE9",
"*X c #DADDEA",
"=X c #D5DAE7",
"-X c #DDE3EC",
";X c #D7E0ED",
":X c #E1E5EC",
">X c #E5EAEE",
",X c #EEEEEF",
"<X c #F0EFEE",
"1X c #EFF0EE",
"2X c #F0F0EF",
"3X c #E5E9F1",
"4X c #EDEEF1",
"5X c #E1E6F1",
"6X c #F1EEF1",
"7X c #EFF0F2",
"8X c #F1F1F2",
"9X c None",
/* pixels */
"9X9X9X9X9X9X9X9X9X9X9X9X9X9X9X9X9X9X9X9X9X9X9X9X9X9X9X9X9X9X9X9X9X9X9X9X9X9X9X9X9X9X9X9X9X9X9X9X9X9X9X9X9X9X9X9X9X9X9X9X9X9X9X9X",
"9X9X9X9X9X9X9X9X9X9X9X9X9X9X9X9X9X9X9X9X9X9X9X9X9X9X9X9X9X9X9X9X9X9X9X9X9X9X9X9X9X9X9X9X9X9X9X9X9X9X9X9X9X9X9X9X9X9X9X9X9X9X9X9X",
"9X9X9X9X9X9X9X9X9X9X9X9X9X9X9X9X9X9X9X9X9X9X9X9X9X9X9X9X9X9X9X9X9X9X9X9X9X9X9X9X9X9X9X9X9X9X9X9X9X9X9X9X9X9X9X9X9X9X9X9X9X9X9X9X",
"9X9X9X9X9X9X9X9X9X9X9X9X9X9X9X9X9X9X9X9X9X9X9X9X9X9X9X9X9X9X9X9X9X9X9X9X9X9X9X9X9X9X9X9X9X9X9X9X9X9X9X9X9X9X9X9X9X9X9X9X9X9X9X9X",
"9X9X9X9X9X9X9X9X9X9X9X9X9X9X9X9X9X9X9X9X9X9X9X9X9X9X9X4 O % O O O O O - B 9X9X9X9X9X9X9X9X9X9X9X9X9X9X9X9X9X9X9X9X9X9X9X9X9X9X9X",
"9X9X9X9X9X9X9X9X9X9X9X9X9X9X9X9X9X9X9X9X9X9X9X9X9X9X9Xk e e r e e e e t F 9X9X9X9X9X9X9X9X9X9X9X9X9X9X9X9X9X9X9X9X9X9X9X9X9X9X9X",
"9X9X9X9X9X9X9X9X9X9X9X9X9X9X9X9X9X9X9X9X9X9X9X9X9X1 9 1.c.M.B.B.B.B.M.b.( % 3 9X9X9X9X9X9X9X9X9X9X9X9X9X9X9X9X9X9X9X9X9X9X9X9X9X",
"9X9X9X9X9X9X9X9X9X9X9X9X9X9X9X9X9X9X9X9X9X9X9X9X9X3 9 q.T.E.|.|.{.'.T.T.' + 8 9X9X9X9X9X9X9X9X9X9X9X9X9X9X9X9X9X9X9X9X9X9X9X9X9X",
"9X9X9X9X9X9X9X9X9X9X9X9X9X9X9X9X9X9X9X9X9X9X9X6 V #.*.F.!.[.@XoX@X}.`.Q.j.*.#.k M 9X9X9X9X9X9X9X9X9X9X9X9X9X9X9X9X9X9X9X9X9X9X9X",
"9X9X9X9X9X9X9X9X9X9X9X9X9X9X9X9X9X9X9X9X9X9X9XX 9 e.T.].'.}.&X%X&X$X_.[.Q.T.e.& - 9X9X9X9X9X9X9X9X9X9X9X9X9X9X9X9X9X9X9X9X9X9X9X",
"9X9X9X9X9X9X9X9X9X9X9X9X9X9X9X9X9X9X9X9X9X9X9Xo 9 t.Q.{.@X$X-X*X;X;XOX@X`.E.j.9 > 9X9X9X9X9X9X9X9X9X9X9X9X9X9X9X9X9X9X9X9X9X9X9X",
"9X9X9X9X9X9X9X9X9X9X9X9X9X9X9X9X9X9X9X9X9X9X9X# @ k.{.:X,X<X4X<X,X7X7X7X+X[.k.9 > 9X9X9X9X9X9X9X9X9X9X9X9X9X9X9X9X9X9X9X9X9X9X9X",
"9X9X9X9X9X9X9X9X9X9X9X9X9X9X9X9X9X9X9X9X9X9X9Xw i l.}.:X8X<X,X,X,X4X8X4X&X{.l.i t L 9X9X9X9X9X9X9X9X9X9X9X9X9X9X9X9X9X9X9X9X9X9X",
"9X9X9X9X9X9X9X9X9X9X9X9X9X9X9X9X9X9X9X9X9X> A l.N.oX+X>X6X<X,X2X2X6X6X4X-X#XXXN.z.Q 3 9X9X9X9X9X9X9X9X9X9X9X9X9X9X9X9X9X9X9X9X9X",
"9X9X9X9X9X9X9X9X9X9X9X9X9X9X9X9X9X9X9X9XM X I (.}.$X=X3X<X<X4X2X,X8X<X1X:X=X$X{.).I X p 9X9X9X9X9X9X9X9X9X9X9X9X9X9X9X9X9X9X9X9X",
"9X9X9X9X9X9X9X9X9X9X9X9X9X9X9X9X9X9X9X9X6 X R XX#X>X3X6X<X<X8X,X1X4X,X2X,X>X:X$XXXE X f 9X9X9X9X9X9X9X9X9X9X9X9X9X9X9X9X9X9X9X9X",
"9X9X9X9X9X9X9X9X9X9X9X9X9X9X9X9X9X9X9X9Xf . R .X=X3X2X,X6X1X7X,X,X<X2X,X6X<X3X%XOXR . p 9X9X9X9X9X9X9X9X9X9X9X9X9X9X9X9X9X9X9X9X",
"9X9X9X9X9X9X9X9X9X9X9X9X9X9X9X9X9X9X9X9X( o.w.OX=X3X8X1X,X,X6X,X2X2X4X<X<X6X3X%XOXw.O.( 9X9X9X9X9X9X9X9X9X9X9X9X9X9X9X9X9X9X9X9X",
"9X9X9X9X9X9X9X9X9X9X9X9X9X9X9X9X9X9X. . o.T.~.$X%X3X<X<X2X<X1X1X,X8X<X,X<X<X4X=X#XQ.R.o.# 7 9X9X9X9X9X9X9X9X9X9X9X9X9X9X9X9X9X9X",
"9X9X9X9X9X9X9X9X9X9X9X9X9X9X9X9X9X9X. # @.R.!.$X=X>X1X1X4X2X6X,X,X,X,X,X6X<X>X&X#X!.K.o.o 6 9X9X9X9X9X9X9X9X9X9X9X9X9X9X9X9X9X9X",
"9X9X9X9X9X9X9X9X9X9X9X9X9X9X9X9X9X9X# o $.|.{.$X%X3X1X2X,X2X,X2X2X,X1X<X,X<X>X=X$X{. X%.o 6 9X9X9X9X9X9X9X9X9X9X9X9X9X9X9X9X9X9X",
"9X9X9X9X9X9X9X9X9X9X9X9X9X9X9X9X9X9X# o $.[.{.+X%X>X4X4X7X,X<X,X,X<X1X,X6X4X3X=X$X{.[.$.# 6 9X9X9X9X9X9X9X9X9X9X9X9X9X9X9X9X9X9X",
"9X9X9X9X9X9X9X9X9X9X9X9X9X9X9X9X9X9Xo o %.|.{.&X%X=X*X4X7X<X<X,X,X,X6X4X:X=X&X&X&X{.|.$.X 6 9X9X9X9X9X9X9X9X9X9X9X9X9X9X9X9X9X9X",
"9X9X9X9X9X9X9X9X9X9X9X9X9X9X9X9X9X9Xo o %.|. X$X$X$X%X3X4X6X8X7X8X7X6X7X:X%X&X$X$X{.{.%.o 6 9X9X9X9X9X9X9X9X9X9X9X9X9X9X9X9X9X9X",
"9X9X9X9X9X9X9X9X9X9X9X9X9X9X9X9X9X9Xo o @.Q.L.}..X+X%X-X-X:X-X-X:X-X*X:X&X$X$XoX}.P.!.@.. 6 9X9X9X9X9X9X9X9X9X9X9X9X9X9X9X9X9X9X",
"9X9X9X9X9X9X9X9X9X9X9X9X9X9X9X9X9X9Xo o o.J.R.[.[.@X$X%X%X+X%X%X%X&X%X+X&X&X#X[.'.J.T.o.. 6 9X9X9X9X9X9X9X9X9X9X9X9X9X9X9X9X9X9X",
"9X9X9X9X9X9X9X9X9X9X9X9X9X9X9X9X9X9X# o o.S.G.!.`.}.oX@X#X@X@X#X@XOX#X#X@X@X{.`.].G.S.O.o 6 9X9X9X9X9X9X9X9X9X9X9X9X9X9X9X9X9X9X",
"9X9X9X9X9X9X9X9X9X9X9X9X9X9X9X9X9X9X# o / v.m.G.G.G.J.`.[.[.{.{.[.[.[.[.L.G.T.G.G.n.s./ o 6 9X9X9X9X9X9X9X9X9X9X9X9X9X9X9X9X9X9X",
"9X9X9X9X9X9X9X9X9X9X9X9X9X9X9X9X9X9X- : ( i.b.S.G.Y.G.!.'.'.'.].'.[.'.].L.G.S.S.S.d.i.( - f 9X9X9X9X9X9X9X9X9X9X9X9X9X9X9X9X9X9X",
"9X9X9X9X9X9X9X9X9X9X9X9X9X9X9X9X9X9X9X9XG l T 4.g.s.m.G.K.K.R.J.J.K.J.R.A.m.d.u.y.T l G 9X9X9X9X9X9X9X9X9X9X9X9X9X9X9X9X9X9X9X9X",
"9X9X9X9X9X9X9X9X9X9X9X9X9X9X9X9X9X9X9X9Xf o h 2.5.a.s.S.T.S.Y.G.J.G.S.T.D.s.p.5.2.i X s 9X9X9X9X9X9X9X9X9X9X9X9X9X9X9X9X9X9X9X9X",
"9X9X9X9X9X9X9X9X9X9X9X9X9X9X9X9X9X9X9X9Xf o w ! ^ 2.u.n.D.A.Y.G.J.S.D.D.s.u.2.^ ! t o d 9X9X9X9X9X9X9X9X9X9X9X9X9X9X9X9X9X9X9X9X",
"9X9X9X9X9X9X9X9X9X9X9X9X9X9X9X9X9X9X9X9Xs X o o & | 5.a.s.n.Y.Y.S.S.f.s.y.5...& . o o 6 9X9X9X9X9X9X9X9X9X9X9X9X9X9X9X9X9X9X9X9X",
"9X9X9X9X9X9X9X9X9X9X9X9X9X9X9X9X9X9X9X9XH c c I Y ,.a.d.m.A.G.G.Y.Y.n.f.s.a.,.U I I c A 9X9X9X9X9X9X9X9X9X9X9X9X9X9X9X9X9X9X9X9X",
"9X9X9X9X9X9X9X9X9X9X9X9X9X9X9X9X9X9X; % O.F.H.P.P.[.'.T.S.G.S.G.S.J.S.J.R.'.!.P.P.H.H.o.- 4 9X9X9X9X9X9X9X9X9X9X9X9X9X9X9X9X9X9X",
"9X9X9X9X9X9X9X9X9X9X9X9X9X9X9X9X9X9XS x =.~.!.}.XX_.[.^.L.K.~.~.Q.K.K.L.^.}.}.XX}.^.~.=.x A 9X9X9X9X9X9X9X9X9X9X9X9X9X9X9X9X9X9X",
"9X9X9X9X9X9X9X9X9X9X9X9X9X9X9X9X> t e.Z.`.$X%X4X4X&X$X$X#X#X$X#X#X#X#X$X$X$X=X4X4X&X#X^.F.e.t > 9X9X9X9X9X9X9X9X9X9X9X9X9X9X9X9X",
"9X9X9X9X9X9X9X9X9X9X9X9X9X9X9X9X, e t.J.{.&X;X4X4X=X$X&X=X=X%X%X%X%X&X%X=X&X;X>X4X*X&X{.J.j.q ; 9X9X9X9X9X9X9X9X9X9X9X9X9X9X9X9X",
"9X9X9X9X9X9X9X9X9X9X9X9X9X9X1 A q.e.K.`.$X3X-XXXoX-X3X3X>X4X3X:X3X3X>X4X3X3X-XoXXX-X3X&X@X[.e.q.A 5 9X9X9X9X9X9X9X9X9X9X9X9X9X9X",
"9X9X9X9X9X9X9X9X9X9X9X9X9X  . U Y.Y.].(.&X8X-X[._.3X8X8X<X<X<X<X6X8X8X2X1X7X3X(.{.5X6X:X+X@XK.G.U O 9X9X9X9X9X9X9X9X9X9X9X9X9X9X",
"9X9X9X9X9X9X9X9X9X9X9X9X9X. . U Z.T. X}.;X7X:XXXXXP.XX:X<X<X<X6X<X2X6X6X=XP.XXXXXX5X6X3X:X&X!.K.U O 9X9X9X9X9X9X9X9X9X9X9X9X9X9X",
"9X9X9X9X9X9X9X9X9X9X9X9X9X  o U Z.J.@X%X:X8X>X&X#Xc.v.=X6X<X<X<X6X4X<X7XP.t.V.#X=X3X<X6X8X3X{.`.W $ 9X9X9X9X9X9X9X9X9X9X9X9X9X9X",
"9X9X9X9X9X9X9X9X9X9X9X9X9X  # I G.T.oX%X-X>X:X$X@Xj.1.OX6X4X<X<X2X4X4X4XI.>.t.}.@X*X:X3X>X-X[.^.W O 9X9X9X9X9X9X9X9X9X9X9X9X9X9X",
"9X9X9X9X9X9X9X9X9X9X9X9X9X. . U Z.T.oX&X=X&X+X{.P.R w x.=X:X<X4X<X4X*X=X&.& b Z.K.`.{.@X%X+X[.^.W O 9X9X9X9X9X9X9X9X9X9X9X9X9X9X",
"9X9X9X9X9X9X9X9X9X9X9X9X9X$ - Q F.J.@X$X$X$XOXP.I.S < x.OX*X8X<X,X4X=X;X{   a M.H.~.[.}.&X#X[.^.W O 9X9X9X9X9X9X9X9X9X9X9X9X9X9X",
"9X9X9X9X9X9X9X9X9X9X9X9X9X9XL P U Y M.E.`.}.N.W E 6.6.` E h.-X-X4X4X;X+X{ o ; c Y j.J.].{.|.L.H.U O 9X9X9X9X9X9X9X9X9X9X9X9X9X9X",
"9X9X9X9X9X9X9X9X9X9X9X9X9X9X9X9X$ 9 t.W.Q.{.j.@ > 7.9.M   { &X&X4X4X;X;X&.X o o & q.J.E.|.'.H.G.U O 9X9X9X9X9X9X9X9X9X9X9X9X9X9X",
"9X9X9X9X9X9X9X9X9X9X9X9X9X9X9X9X% 0 q.f.C.K.q.$ < 8.0.C . [ @XOX:X5X}.{.[ # ; f j #.o.q.J.G.G.G.U $ 9X9X9X9X9X9X9X9X9X9X9X9X9X9X",
"9X9X9X9X9X9X9X9X9X9X9X9X9X9X9X9XO & +.5.u.s.>.@ : 8.9.C # [ {._.=X$XQ.T.' # 3 9X9X3 . ! v.b.G.G.U O 9X9X9X9X9X9X9X9X9X9X9X9X9X9X",
"9X9X9X9X9X9X9X9X9X9X9X9X9X9X9X9XM j | +.3.p.:.@ ; 8.0.C X ' '.`.@X@XM.j.( 7 N 9X9XN 6 ) ,.r.C.S.U % 9X9X9X9X9X9X9X9X9X9X9X9X9X9X",
"9X9X9X9X9X9X9X9X9X9X9X9X9X9X9X9X9X9Xy = ^ 4.+.o - 7.0.C o ] R.K.[.P.W , K 9X9X9X9X9X9XF , l r.b.c % 9X9X9X9X9X9X9X9X9X9X9X9X9X9X",
"9X9X9X9X9X9X9X9X9X9X9X9X9X9X9X9X9X9XO O ! 5...& ; 7.0.C o / Y.J.'.I.x $ Z 9X9X9X9X9X9Xm + i r.p.c O 9X9X9X9X9X9X9X9X9X9X9X9X9X9X",
"9X9X9X9X9X9X9X9X9X9X9X9X9X9X9X9X9X9X9X9XG v n } } J Z ; o ] Y.G.C.c.x O Z 9X9X9X9X9X9XN o u 2.4.l O 9X9X9X9X9X9X9X9X9X9X9X9X9X9X",
"9X9X9X9X9X9X9X9X9X9X9X9X9X9X9X9X9X9X9X9Xg O i 3.2.i # X . ] T.A.f.r.i % D 9X9X9X9X9X9XN O h :.2.l $ 9X9X9X9X9X9X9X9X9X9X9X9X9X9X",
"9X9X9X9X9X9X9X9X9X9X9X9X9X9X9X9X9X9X9X9X9X1 S ^ ~ w + v n +.Z.c.O. .J Z 9X9X9X9X9X9X9Xm o q ;.;.l % 9X9X9X9X9X9X9X9X9X9X9X9X9X9X",
"9X9X9X9X9X9X9X9X9X9X9X9X9X9X9X9X9X9X9X9X9X9X9XO o O & | 3.y.v.<.9 : 9X9X9X9X9X9X9X9X9Xm % q X.-.h % 9X9X9X9X9X9X9X9X9X9X9X9X9X9X",
"9X9X9X9X9X9X9X9X9X9X9X9X9X9X9X9X9X9X9X9X9X9X9X+ + 0 u  .:.>.3.=.2 4 9X9X9X9X9X9X9X9X9X9X1 k X.X.k 3 9X9X9X9X9X9X9X9X9X9X9X9X9X9X",
"9X9X9X9X9X9X9X9X9X9X9X9X9X9X9X9X9X9X9X9X9X9X9Xo *  .;.l * q 0 V 9X9X9X9X9X9X9X9X9X9X9X9X9X9X2 , 9X9X9X9X9X9X9X9X9X9X9X9X9X9X9X9X",
"9X9X9X9X9X9X9X9X9X9X9X9X9X9X9X9X9X9X9X9X9X9X9X> 2 | ;.k > > < 5 9X9X9X9X9X9X9X9X9X9X9X9X9X9X4 1 9X9X9X9X9X9X9X9X9X9X9X9X9X9X9X9X",
"9X9X9X9X9X9X9X9X9X9X9X9X9X9X9X9X9X9X9X9X9X9X9X9X9Xk t K 9X9X9X9X9X9X9X9X9X9X9X9X9X9X9X9X9X9X9X9X9X9X9X9X9X9X9X9X9X9X9X9X9X9X9X9X",
"9X9X9X9X9X9X9X9X9X9X9X9X9X9X9X9X9X9X9X9X9X9X9X9X9X5 > 9X9X9X9X9X9X9X9X9X9X9X9X9X9X9X9X9X9X9X9X9X9X9X9X9X9X9X9X9X9X9X9X9X9X9X9X9X",
"9X9X9X9X9X9X9X9X9X9X9X9X9X9X9X9X9X9X9X9X9X9X9X9X9X9X9X9X9X9X9X9X9X9X9X9X9X9X9X9X9X9X9X9X9X9X9X9X9X9X9X9X9X9X9X9X9X9X9X9X9X9X9X9X",
"9X9X9X9X9X9X9X9X9X9X9X9X9X9X9X9X9X9X9X9X9X9X9X9X9X9X9X9X9X9X9X9X9X9X9X9X9X9X9X9X9X9X9X9X9X9X9X9X9X9X9X9X9X9X9X9X9X9X9X9X9X9X9X9X",
"9X9X9X9X9X9X9X9X9X9X9X9X9X9X9X9X9X9X9X9X9X9X9X9X9X9X9X9X9X9X9X9X9X9X9X9X9X9X9X9X9X9X9X9X9X9X9X9X9X9X9X9X9X9X9X9X9X9X9X9X9X9X9X9X"
};
