/* XPM */
static char *result[] = {
/* columns rows colors chars-per-pixel */
"64 64 203 2 ",
"   c #151515",
".  c #191616",
"X  c #161916",
"o  c #181816",
"O  c #161518",
"+  c #1B141B",
"@  c #17181A",
"#  c #1A1A1B",
"$  c #21141F",
"%  c #1E1422",
"&  c #1B1D21",
"*  c #171D23",
"=  c #221423",
"-  c #261429",
";  c #2B132B",
":  c #28182A",
">  c #31132F",
",  c #2E1431",
"<  c #281E34",
"1  c #331336",
"2  c #36123A",
"3  c #34173B",
"4  c #350E35",
"5  c #1F2023",
"6  c #1F242C",
"7  c #22262A",
"8  c #252B2F",
"9  c #242532",
"0  c #262C33",
"q  c #2A2B34",
"w  c #252D3A",
"e  c #2B2C3B",
"r  c #24273D",
"t  c #322B3E",
"y  c #2D333B",
"u  c #31373C",
"i  c #34393E",
"p  c #3A1941",
"a  c #372B47",
"s  c #2F3445",
"d  c #343342",
"f  c #3A3C44",
"g  c #353A49",
"h  c #3B2D57",
"j  c #343D53",
"k  c #37365C",
"l  c #2B2E4D",
"z  c #353963",
"x  c #431444",
"c  c #482854",
"v  c #492F56",
"b  c #4C3965",
"n  c #3D4148",
"m  c #3B4354",
"M  c #3C4857",
"N  c #3B445C",
"B  c #394454",
"V  c #3C4561",
"C  c #434953",
"Z  c #454D59",
"A  c #494F57",
"S  c #4D515A",
"D  c #414448",
"F  c #414966",
"G  c #424C69",
"H  c #454969",
"J  c #514261",
"K  c #4B576E",
"L  c #4D5A6E",
"P  c #455165",
"I  c #54596A",
"U  c #4D567A",
"Y  c #545879",
"T  c #576171",
"R  c #5A6372",
"E  c #5B636E",
"W  c #636C7C",
"Q  c #424D8C",
"!  c #4D5683",
"~  c #4B568C",
"^  c #555F90",
"/  c #4E5994",
"(  c #5A6584",
")  c #596883",
"_  c #5B698A",
"`  c #5F718B",
"'  c #576597",
"]  c #5F719C",
"[  c #636E82",
"{  c #687487",
"}  c #646F9C",
"|  c #677798",
" . c #717B8B",
".. c #515DA5",
"X. c #4D58A2",
"o. c #5B67AC",
"O. c #5E6FB0",
"+. c #6577A7",
"@. c #7179A0",
"#. c #6272B2",
"$. c #6A7CB6",
"%. c #6576BC",
"&. c #6679BB",
"*. c #697EBD",
"=. c #727FC0",
"-. c #7F848D",
";. c #78859C",
":. c #6E81A3",
">. c #6B81AB",
",. c #7688A9",
"<. c #798EB3",
"1. c #7589BA",
"2. c #7D94B8",
"3. c #6F84B6",
"4. c #768AC4",
"5. c #7A8FCA",
"6. c #7388C5",
"7. c #7C92C4",
"8. c #7C92CC",
"9. c #7F99D2",
"0. c #7E95D0",
"q. c #6F84C6",
"w. c #83878F",
"e. c #828EA3",
"r. c #8596AE",
"t. c #899AB6",
"y. c #919EB4",
"u. c #91A1B8",
"i. c #A9B1BE",
"p. c #A3A9B6",
"a. c #829BCB",
"s. c #859CC8",
"d. c #839CD2",
"f. c #8BA2CC",
"g. c #8EA3C1",
"h. c #96A7C6",
"j. c #9EB2CC",
"k. c #8AA5D2",
"l. c #8BA5DB",
"z. c #8EACDD",
"x. c #89A5D4",
"c. c #92ACD4",
"v. c #9BACD1",
"b. c #91AEDD",
"n. c #93A8D7",
"m. c #9CB3D7",
"M. c #93B1DE",
"N. c #9AB4DF",
"B. c #9CB8DE",
"V. c #A1B2CD",
"C. c #A8B4C9",
"Z. c #A6B9D4",
"A. c #AABBD6",
"S. c #A5BBDC",
"D. c #ABBDDA",
"F. c #A3B4D9",
"G. c #B5BAC3",
"H. c #8FAEE1",
"J. c #91AEE0",
"K. c #94B2E2",
"L. c #9CB6E1",
"P. c #9EB9E2",
"I. c #A3BCE3",
"U. c #A9BEE2",
"Y. c #A0B7E1",
"T. c #ACC0DE",
"R. c #B4C4DC",
"E. c #BAC7DB",
"W. c #A7C0E5",
"Q. c #ADC3E3",
"!. c #B2C5E4",
"~. c #BBC7E3",
"^. c #B5C9E5",
"/. c #BCCCE5",
"(. c #B3C9E9",
"). c #BED0E4",
"_. c #C9D0DD",
"`. c #C3CCDB",
"'. c #C2CEE4",
"]. c #C5D2E6",
"[. c #CBD5E6",
"{. c #CED8E7",
"}. c #C4D2E8",
"|. c #CBD5E8",
" X c #CED9E9",
".X c #D2DAE6",
"XX c #D3DBE9",
"oX c #D9DFE9",
"OX c #D2D7E6",
"+X c #DDE2EC",
"@X c #E2E5EC",
"#X c #E6E9EE",
"$X c #EEEEEF",
"%X c #F0EFEE",
"&X c #EEF0EE",
"*X c #F1F1EE",
"=X c #E4E7F1",
"-X c #E7EAF1",
";X c #EDEEF1",
":X c #F0EFF0",
">X c #EFF0F1",
",X c #F0F1F1",
"<X c None",
/* pixels */
"<X<X<X<X<X<X<X<X<X<X<X<X<X<X<X<X<X<X<X<X<X<X<X<X<X<X<X<X<X<X<X<X<X<X<X<X<X<X<X<X<X<X<X<X<X<X<X<X<X<X<X<X<X<X<X<X<X<X<X<X<X<X<X<X",
"<X<X<X<X<X<X<X<X<X<X<X<X<X<X<X<X<X<X<X<X<X<X<X<X<X<X<X<X<X<X<X<X<X<X<X<X<X<X<X<X<X<X<X<X<X<X<X<X<X<X<X<X<X<X<X<X<X<X<X<X<X<X<X<X",
"<X<X<X<X<X<X<X<X<X<X<X<X<X<X<X<X<X<X<X<X<X<X<X<X<X<X<X<X<X<X<X<X<X<X<X<X<X<X<X<X<X<X<X<X<X<X<X<X<X<X<X<X<X<X<X<X<X<X<X<X<X<X<X<X",
"<X<X<X<X<X<X<X<X<X<X<X<X<X<X<X<X<X<X<X<X<X<X<X<X<X<X<X<X<X<X<X<X<X<X<X<X<X<X<X<X<X<X<X<X<X<X<X<X<X<X<X<X<X<X<X<X<X<X<X<X<X<X<X<X",
"<X<X<X<X<X<X<X<X<X<X<X<X<X<X<X<X<X<X<X<X<X<X<X<X<X<X<X+ + + . . + + + = <X<X<X<X<X<X<X<X<X<X<X<X<X<X<X<X<X<X<X<X<X<X<X<X<X<X<X<X",
"<X<X<X<X<X<X<X<X<X<X<X<X<X<X<X<X<X<X<X<X<X<X<X<X<X<X<Xy d y i i d d u d <X<X<X<X<X<X<X<X<X<X<X<X<X<X<X<X<X<X<X<X<X<X<X<X<X<X<X<X",
"<X<X<X<X<X<X<X<X<X<X<X<X<X<X<X<X<X<X<X<X<X<X<X<X<X, O _ x.c.S.A.A.A.c.f.j . <X<X<X<X<X<X<X<X<X<X<X<X<X<X<X<X<X<X<X<X<X<X<X<X<X<X",
"<X<X<X<X<X<X<X<X<X<X<X<X<X<X<X<X<X<X<X<X<X<X<X<X<X3 & ` K.P.!.!.!.(.F.b.M & < <X<X<X<X<X<X<X<X<X<X<X<X<X<X<X<X<X<X<X<X<X<X<X<X<X",
"<X<X<X<X<X<X<X<X<X<X<X<X<X<X<X<X<X<X<X<X<X<X<X, 3 | <.c.U.~.}.[.].].!.Q.t.<.( , p <X<X<X<X<X<X<X<X<X<X<X<X<X<X<X<X<X<X<X<X<X<X<X",
"<X<X<X<X<X<X<X<X<X<X<X<X<X<X<X<X<X<X<X<X<X<X<Xo 5 <.K.I.!.^. X.XXXXX^.Q.K.K.)   ; <X<X<X<X<X<X<X<X<X<X<X<X<X<X<X<X<X<X<X<X<X<X<X",
"<X<X<X<X<X<X<X<X<X<X<X<X<X<X<X<X<X<X<X<X<X<X<XO 6 t.I./.XXoX@X@X@X@XoXXXQ.W.)   , <X<X<X<X<X<X<X<X<X<X<X<X<X<X<X<X<X<X<X<X<X<X<X",
"<X<X<X<X<X<X<X<X<X<X<X<X<X<X<X<X<X<X<X<X<X<X<X  # u.!.oX,X>X$X*X:X:X,X>X[.^.W   ; <X<X<X<X<X<X<X<X<X<X<X<X<X<X<X<X<X<X<X<X<X<X<X",
"<X<X<X<X<X<X<X<X<X<X<X<X<X<X<X<X<X<X<X<X<X<X<XZ P V./.oX%X;X%X*X;X,X%X;X[./.e.C J <X<X<X<X<X<X<X<X<X<X<X<X<X<X<X<X<X<X<X<X<X<X<X",
"<X<X<X<X<X<X<X<X<X<X<X<X<X<X<X<X<X<X<X<X<X= f Z.R. X X@X,X$X%X$X:X$X%X>X+X X'.Q.t.: = <X<X<X<X<X<X<X<X<X<X<X<X<X<X<X<X<X<X<X<X<X",
"<X<X<X<X<X<X<X<X<X<X<X<X<X<X<X<X<X<X<X<X<X. f D.^. X.X@X*X$X$X:X;X%X%X;X+X.X].^.y.7 o <X<X<X<X<X<X<X<X<X<X<X<X<X<X<X<X<X<X<X<X<X",
"<X<X<X<X<X<X<X<X<X<X<X<X<X<X<X<X<X<X<X<Xx + f `..X-X#X$X$X$X*X$X,X$X$X$X#X$X+X Xp.#   <X<X<X<X<X<X<X<X<X<X<X<X<X<X<X<X<X<X<X<X<X",
"<X<X<X<X<X<X<X<X<X<X<X<X<X<X<X<X<X<X<X<Xc q Z _.XX;X*X$X$X*X;X*X$X*X$X*X&X;X@XXXC.y q <X<X<X<X<X<X<X<X<X<X<X<X<X<X<X<X<X<X<X<X<X",
"<X<X<X<X<X<X<X<X<X<X<X<X<X<X<X<X<X<X+ O K s.c.|.XX#X*X$X%X;X%X$X:X;X%X;X%X%X@X{./.s.2.u $ <X<X<X<X<X<X<X<X<X<X<X<X<X<X<X<X<X<X<X",
"<X<X<X<X<X<X<X<X<X<X<X<X<X<X<X<X<X<Xo   L M.F.|.XX#X%X$X$X*X$X*X$X*X&X%X$X:X@XXX'.M.k.y + <X<X<X<X<X<X<X<X<X<X<X<X<X<X<X<X<X<X<X",
"<X<X<X<X<X<X<X<X<X<X<X<X<X<X<X<X<X<X.   T W.!.{..X-X$X%X*X;X%X;X;X$X:X$X&X>X+X{.}.T.m.u + <X<X<X<X<X<X<X<X<X<X<X<X<X<X<X<X<X<X<X",
"<X<X<X<X<X<X<X<X<X<X<X<X<X<X<X<X<X<X. O R !.^. X.X-X,X*X%X>X:X%X*X:X$X&X*X:X@XXX|.!.Z.u + <X<X<X<X<X<X<X<X<X<X<X<X<X<X<X<X<X<X<X",
"<X<X<X<X<X<X<X<X<X<X<X<X<X<X<X<X<X<X+   R !.^. X{.+X@X#X$X$X%X%X$X%X*X;X@X@XoX.X|.!.Z.u + <X<X<X<X<X<X<X<X<X<X<X<X<X<X<X<X<X<X<X",
"<X<X<X<X<X<X<X<X<X<X<X<X<X<X<X<X<X<X# O R !.^.XXXXXX.X@X>X,X%X%X,X:X:X;X+X.XXXXX|.!.S.u + <X<X<X<X<X<X<X<X<X<X<X<X<X<X<X<X<X<X<X",
"<X<X<X<X<X<X<X<X<X<X<X<X<X<X<X<X<X<X.   T Q.Q.}.]. XXX+X#X#X#X#X-X-X-X-XXX{.|.}.'.Q.m.u + <X<X<X<X<X<X<X<X<X<X<X<X<X<X<X<X<X<X<X",
"<X<X<X<X<X<X<X<X<X<X<X<X<X<X<X<X<X<X+ O L N.N.!.R.|. XXX.X.XXX.X.X.X.X.XOXXX'.!.U.M.f.y + <X<X<X<X<X<X<X<X<X<X<X<X<X<X<X<X<X<X<X",
"<X<X<X<X<X<X<X<X<X<X<X<X<X<X<X<X<X<X@ O L b.K.Q.!.}.|.|. X X X{. XXX X X|. X/.Q.U.b.k.y + <X<X<X<X<X<X<X<X<X<X<X<X<X<X<X<X<X<X<X",
"<X<X<X<X<X<X<X<X<X<X<X<X<X<X<X<X<X<X@ O G a.d.M.K.B.B.Q.^.^.^.^.!.!.^.!.S.B.L.M.b.a.7.w + <X<X<X<X<X<X<X<X<X<X<X<X<X<X<X<X<X<X<X",
"<X<X<X<X<X<X<X<X<X<X<X<X<X<X<X<X<X<X= . G 8.a.b.J.z.z.I.!.!.Q.Q.!.!.!.(.L.J.J.J.l.8.1.e $ <X<X<X<X<X<X<X<X<X<X<X<X<X<X<X<X<X<X<X",
"<X<X<X<X<X<X<X<X<X<X<X<X<X<X<X<X<X<X<X<Xb F U 6.5.d.d.b.L.L.P.P.L.B.L.L.x.d.0.5.$.F F c <X<X<X<X<X<X<X<X<X<X<X<X<X<X<X<X<X<X<X<X",
"<X<X<X<X<X<X<X<X<X<X<X<X<X<X<X<X<X<X<X<X<X+ r #.&.4.5.x.J.J.b.b.b.b.b.H.d.5.q.=.^ *   <X<X<X<X<X<X<X<X<X<X<X<X<X<X<X<X<X<X<X<X<X",
"<X<X<X<X<X<X<X<X<X<X<X<X<X<X<X<X<X<X<X<Xx + 7 ! ~ $.4.a.l.l.z.H.H.H.x.l.5.6.o.! G # @ <X<X<X<X<X<X<X<X<X<X<X<X<X<X<X<X<X<X<X<X<X",
"<X<X<X<X<X<X<X<X<X<X<X<X<X<X<X<X<X<X<X<X<X. . O & ' %.q.8.d.z.M.H.H.9.5.q.&.V   .   X <X<X<X<X<X<X<X<X<X<X<X<X<X<X<X<X<X<X<X<X<X",
"<X<X<X<X<X<X<X<X<X<X<X<X<X<X<X<X<X<X<X<Xc 0 0 0 y } 3.4.8.d.K.z.M.b.d.8.6.=.U q q 0 e <X<X<X<X<X<X<X<X<X<X<X<X<X<X<X<X<X<X<X<X<X",
"<X<X<X<X<X<X<X<X<X<X<X<X<X<X<X<X<X<X; = Y g.f.j.V.U.U.K.b.z.z.b.H.b.J.z.B.U.Z.V.j.s.t.a - <X<X<X<X<X<X<X<X<X<X<X<X<X<X<X<X<X<X<X",
"<X<X<X<X<X<X<X<X<X<X<X<X<X<X<X<X<X<X# O L J.N.Q.!.!.^.P.M.M.b.M.M.H.b.M.U.!.!.(.Q.K.k.y + <X<X<X<X<X<X<X<X<X<X<X<X<X<X<X<X<X<X<X",
"<X<X<X<X<X<X<X<X<X<X<X<X<X<X<X<X- @ ) :.g.'.].+X+X X}.)././././.)./.)./.}.}.XX+XXX].^.<.:.H + <X<X<X<X<X<X<X<X<X<X<X<X<X<X<X<X<X",
"<X<X<X<X<X<X<X<X<X<X<X<X<X<X<X<X, 5 >.K.Q..X+X&X;XoXOXXXXX.XXXXXXXXX.X.XXXXX+X$X#X.X{.P.N.L # # <X<X<X<X<X<X<X<X<X<X<X<X<X<X<X<X",
"<X<X<X<X<X<X<X<X<X<X<X<X<X<X; t @.,.v.W.}.#X+X].'.+X-X-X#X#X#X#X-X#X#X#X#X-XXX).|.@X#X}.).g.,.) + ; <X<X<X<X<X<X<X<X<X<X<X<X<X<X",
"<X<X<X<X<X<X<X<X<X<X<X<X<X<X- 8 f.K.T.Q.|.*X#X!.!.=X,X:X%X%X*X%X%X%X%X$X%X*XXXQ./.&X$XoX XQ.K.| @ ; <X<X<X<X<X<X<X<X<X<X<X<X<X<X",
"<X<X<X<X<X<X<X<X<X<X<X<X<X<X- 8 g.P.!.).XX:X=X'./.E.R..X*X%X;X;X$X$X$X$X_.R.^.'.[.$X$XXX X!.I.;.o ; <X<X<X<X<X<X<X<X<X<X<X<X<X<X",
"<X<X<X<X<X<X<X<X<X<X<X<X<X<X- q j.^.[. X+X%X#X.X|.f.8.~.,X*X$X:X%X$X%X;Xv.5.F.XXoX;X;XXXXX/.!.,.X ; <X<X<X<X<X<X<X<X<X<X<X<X<X<X",
"<X<X<X<X<X<X<X<X<X<X<X<X<X<X- 8 j.!.}. X+X%X#X|.'.,.] C.;X$X$X%X$X$X#X@Xr.] y. XXX$X;XoX|.'.!.;.o ; <X<X<X<X<X<X<X<X<X<X<X<X<X<X",
"<X<X<X<X<X<X<X<X<X<X<X<X<X<X; 8 j.^.}.XX+X%X#X^.A.n @ w.XX+X;X%X$X$X+X{.S . W ^.'.;X;XXX.X/.^.;.o : <X<X<X<X<X<X<X<X<X<X<X<X<X<X",
"<X<X<X<X<X<X<X<X<X<X<X<X<X<X1 t h.Z.`. XoX;X@XA.j.d   -. X+X;X;X:X$XoX[.C   E Z.E.-X;XXX XR.A.;.= 1 <X<X<X<X<X<X<X<X<X<X<X<X<X<X",
"<X<X<X<X<X<X<X<X<X<X<X<X<X<X<X<Xc i r.^.}.oXG.g y # X  .^.].&X&X;X;X].R.C   7 y I _.XX/.^.[ y d <X<X<X<X<X<X<X<X<X<X<X<X<X<X<X<X",
"<X<X<X<X<X<X<X<X<X<X<X<X<X<X<X<X= o e.^.'.XXi.5   o .  .^.].>X&X%X;X].T.C       D _.XX^.^.I   . <X<X<X<X<X<X<X<X<X<X<X<X<X<X<X<X",
"<X<X<X<X<X<X<X<X<X<X<X<X<X<X<X<X= o | l.N.Q.t.7   @   { P.!.+X+X+X+X!.m.m   @   D E.^.n.n.P o o <X<X<X<X<X<X<X<X<X<X<X<X<X<X<X<X",
"<X<X<X<X<X<X<X<X<X<X<X<X<X<X<X<X; # ] 0.d.K.<.# @ O O ` K.I.{.{.XX XI.c.B   + . D D.Q.d.8.N . . <X<X<X<X<X<X<X<X<X<X<X<X<X<X<X<X",
"<X<X<X<X<X<X<X<X<X<X<X<X<X<X<X<Xx 2 U _ $.l.3.7 . 1 2 Y | <.].].[.'.r.| b 2 ; O g v.n.} _ b 2 <X<X<X<X<X<X<X<X<X<X<X<X<X<X<X<X<X",
"<X<X<X<X<X<X<X<X<X<X<X<X<X<X<X<X<X<X+ . G 8.+.& = <X<X= O Z R.!.!.!.C % <X<X<X. s 7.1.w + <X<X<X<X<X<X<X<X<X<X<X<X<X<X<X<X<X<X<X",
"<X<X<X<X<X<X<X<X<X<X<X<X<X<X<X<X<X<X.   G 8.+.& = <X<X@   Z U.Q.U.D.Z + <X<X<X  s 4.1.w + <X<X<X<X<X<X<X<X<X<X<X<X<X<X<X<X<X<X<X",
"<X<X<X<X<X<X<X<X<X<X<X<X<X<X<X<X<X<X@ @ N &.' & = <X<X@   C b.K.M.b.M + <X<X<X. y #.#.0 + <X<X<X<X<X<X<X<X<X<X<X<X<X<X<X<X<X<X<X",
"<X<X<X<X<X<X<X<X<X<X<X<X<X<X<X<X<X<X. @ z &.' 5 = <X<X@ . M b.b.b.b.M + <X<X<Xo s #.O.9 + <X<X<X<X<X<X<X<X<X<X<X<X<X<X<X<X<X<X<X",
"<X<X<X<X<X<X<X<X<X<X<X<X<X<X<X<X<X<X+ . j o.Q # = <X<X#   B 8.d.d.8.j + <X<X<XO r ..X.9 # <X<X<X<X<X<X<X<X<X<X<X<X<X<X<X<X<X<X<X",
"<X<X<X<X<X<X<X<X<X<X<X<X<X<X<X<X<X<XO O k ..Q * = <X<X# . B 8.0.8.5.j $ <X<X<X. r X.X.7 + <X<X<X<X<X<X<X<X<X<X<X<X<X<X<X<X<X<X<X",
"<X<X<X<X<X<X<X<X<X<X<X<X<X<X<X<X<X<X<X<Xh z k % <X<X<X<X<Xh K Y 1.8.j + <X<X<X<Xl z k < <X<X<X<X<X<X<X<X<X<X<X<X<X<X<X<X<X<X<X<X",
"<X<X<X<X<X<X<X<X<X<X<X<X<X<X<X<X<X<X<X<X<X. . <X<X<X<X<X<X<X+ 6 3.a.j + <X<X<X<X<X= O <X<X<X<X<X<X<X<X<X<X<X<X<X<X<X<X<X<X<X<X<X",
"<X<X<X<X<X<X<X<X<X<X<X<X<X<X<X<X<X<X<X<X<X1 1 <X<X<X<X<X<X<X% 7 $.6.j % <X<X<X<X<X2 1 <X<X<X<X<X<X<X<X<X<X<X<X<X<X<X<X<X<X<X<X<X",
"<X<X<X<X<X<X<X<X<X<X<X<X<X<X<X<X<X<X<X<X<X<X<X<X<X<X<X<X<X<X+ 7 o.$.g + <X<X<X<X<X<X<X<X<X<X<X<X<X<X<X<X<X<X<X<X<X<X<X<X<X<X<X<X",
"<X<X<X<X<X<X<X<X<X<X<X<X<X<X<X<X<X<X<X<X<X<X<X<X<X<X<X<X<X<X2 p Y ~ c 2 <X<X<X<X<X<X<X<X<X<X<X<X<X<X<X<X<X<X<X<X<X<X<X<X<X<X<X<X",
"<X<X<X<X<X<X<X<X<X<X<X<X<X<X<X<X<X<X<X<X<X<X<X<X<X<X<X<X<X<X<X<X& % <X<X<X<X<X<X<X<X<X<X<X<X<X<X<X<X<X<X<X<X<X<X<X<X<X<X<X<X<X<X",
"<X<X<X<X<X<X<X<X<X<X<X<X<X<X<X<X<X<X<X<X<X<X<X<X<X<X<X<X<X<X<X<X+ $ <X<X<X<X<X<X<X<X<X<X<X<X<X<X<X<X<X<X<X<X<X<X<X<X<X<X<X<X<X<X",
"<X<X<X<X<X<X<X<X<X<X<X<X<X<X<X<X<X<X<X<X<X<X<X<X<X<X<X<X<X<X<X<X<X<X<X<X<X<X<X<X<X<X<X<X<X<X<X<X<X<X<X<X<X<X<X<X<X<X<X<X<X<X<X<X",
"<X<X<X<X<X<X<X<X<X<X<X<X<X<X<X<X<X<X<X<X<X<X<X<X<X<X<X<X<X<X<X<X<X<X<X<X<X<X<X<X<X<X<X<X<X<X<X<X<X<X<X<X<X<X<X<X<X<X<X<X<X<X<X<X"
};
