/* XPM */
static char *result[] = {
/* columns rows colors chars-per-pixel */
"64 64 218 2 ",
"   c #180F17",
".  c #0E1711",
"X  c #151515",
"o  c #191616",
"O  c #161816",
"+  c #191817",
"@  c #15151A",
"#  c #1A151B",
"$  c #17181A",
"%  c #181919",
"&  c #10160B",
"*  c #21141F",
"=  c #221E1C",
"-  c #1D1421",
";  c #161B22",
":  c #1C1D22",
">  c #1A1D2B",
",  c #1D1F31",
"<  c #221423",
"1  c #231C24",
"2  c #2A142A",
"3  c #251A2A",
"4  c #281629",
"5  c #2B1B30",
"6  c #2E1530",
"7  c #331434",
"8  c #3C1C3E",
"9  c #38183A",
"0  c #1D2125",
"q  c #1E222C",
"w  c #1E2433",
"e  c #212226",
"r  c #24252C",
"t  c #25292B",
"y  c #292A2D",
"u  c #242532",
"i  c #282638",
"p  c #333639",
"a  c #352A3F",
"s  c #433B31",
"d  c #504436",
"f  c #3F1C42",
"g  c #3E2343",
"h  c #352A48",
"j  c #2E3549",
"k  c #353A44",
"l  c #3A3D44",
"z  c #30344B",
"x  c #373C4A",
"c  c #383A57",
"v  c #2A2D45",
"b  c #441546",
"n  c #411A44",
"m  c #49194B",
"M  c #571D5B",
"N  c #43244A",
"B  c #55245A",
"V  c #562659",
"C  c #453759",
"Z  c #462955",
"A  c #543666",
"S  c #543661",
"D  c #682B6A",
"F  c #693774",
"G  c #733377",
"H  c #77367B",
"J  c #3C424C",
"K  c #3D4146",
"L  c #3B4555",
"P  c #3F4667",
"I  c #444546",
"U  c #43464C",
"Y  c #46494E",
"T  c #434952",
"R  c #444557",
"E  c #55445E",
"W  c #454A68",
"Q  c #48536E",
"!  c #565C68",
"~  c #474C75",
"^  c #4E5C7C",
"/  c #4A5378",
"(  c #535C75",
")  c #515C7C",
"_  c #595D7B",
"`  c #5E4C76",
"'  c #674777",
"]  c #5A697E",
"[  c #59657A",
"{  c #5F6069",
"}  c #646C7C",
"|  c #6D617F",
" . c #6B727C",
".. c #72767F",
"X. c #793982",
"o. c #525B85",
"O. c #4E5787",
"+. c #5A6681",
"@. c #5A6889",
"#. c #5B669B",
"$. c #5F7392",
"%. c #646885",
"&. c #687385",
"*. c #727680",
"=. c #787A87",
"-. c #626B95",
";. c #647393",
":. c #63729A",
">. c #6C7B9B",
",. c #5D6AA1",
"<. c #616FA4",
"1. c #6778A8",
"2. c #717BA9",
"3. c #697AB5",
"4. c #6A7ABB",
"5. c #6775B0",
"6. c #817E91",
"7. c #AE44B6",
"8. c #AA46AF",
"9. c #D254DA",
"0. c #D853E0",
"q. c #778599",
"w. c #7D878E",
"e. c #7487AA",
"r. c #6E80B8",
"t. c #768BB5",
"y. c #7B92B6",
"u. c #7A8DC2",
"i. c #768AC9",
"p. c #7D93CD",
"a. c #7D91C4",
"s. c #7F96D0",
"d. c #878788",
"f. c #848A9A",
"g. c #908F8B",
"h. c #AC9F82",
"j. c #B3A485",
"k. c #ACA287",
"l. c #8394B4",
"z. c #8C9BB1",
"x. c #899ABB",
"c. c #8D93A9",
"v. c #93A3BB",
"b. c #9CA6BB",
"n. c #9FA4AE",
"m. c #A4ABB7",
"M. c #ABB1BC",
"N. c #A7B1BC",
"B. c #A0A5AF",
"V. c #E6CEA5",
"C. c #E5D3AB",
"Z. c #8295CC",
"A. c #869DC8",
"S. c #879CD3",
"D. c #919EC8",
"F. c #8DA3CC",
"G. c #9AA9C2",
"H. c #9CAECC",
"J. c #94A5CD",
"K. c #8EAADC",
"L. c #8FA4D5",
"P. c #92ADD9",
"I. c #96AAD4",
"U. c #95B1DD",
"Y. c #9CB3DC",
"T. c #98B0D7",
"R. c #A9B5C9",
"E. c #B1B9C7",
"W. c #ACBDDB",
"Q. c #A7B8D7",
"!. c #B0BED0",
"~. c #94B2E2",
"^. c #9BB5E2",
"/. c #9FB9E2",
"(. c #A4BCE3",
"). c #ABBEE1",
"_. c #AABFE8",
"`. c #AEC2DE",
"'. c #B3C1DC",
"]. c #BFCADB",
"[. c #ADC2E5",
"{. c #ADC6E8",
"}. c #B2C5E4",
"|. c #B5C9E5",
" X c #BBCBE4",
".X c #B8C8E8",
"XX c #C6CDDB",
"oX c #C9D1DB",
"OX c #E9DDC7",
"+X c #C2CEE5",
"@X c #C2CFEA",
"#X c #C3D0E6",
"$X c #CBD4E4",
"%X c #CED9E6",
"&X c #C4D3E9",
"*X c #CAD6EA",
"=X c #CED9EA",
"-X c #D2DAE7",
";X c #D3DBEA",
":X c #DADFEC",
">X c #DADCE3",
",X c #CED9F1",
"<X c #DDE3ED",
"1X c #DAE1E9",
"2X c #E1E5ED",
"3X c #E6EAEE",
"4X c #EEEEEF",
"5X c #E6E3E3",
"6X c #F0EFEF",
"7X c #F1F0EE",
"8X c #E2E6F1",
"9X c #E7E9F0",
"0X c #EDEEF1",
"qX c #F1EFF1",
"wX c #EFF0F1",
"eX c #F1F0F2",
"rX c #EFF0EE",
"tX c None",
/* pixels */
"tXtXtXtXtXtXtXtXtXtXtXtXtXtXtXtXtXtXtXtXtXtXtXtXtXtXtXtXtXtXtXtXtXtXtXtXtXtXtXtXtXtXtXtXtXtXtXtXtXtXtXtXtXtXtXtXtXtXtXtXtXtXtXtX",
"tXtXtXtXtXtXtXtXtXtXtXtXtXtXtXtXtXtXtXtXtXtXtXtXtXtXtXtXtXtXtXtXtXtXtXtXtXtXtXtXtXtXtXtXtXtXtXtXtXtXtXtXtXtXtXtXtXtXtXtXtXtXtXtX",
"tXtXtXtXtXtXtXtXtXtXtXtXtXtXtXtXtXtXtXtXtXtXtXtXtXtXtXtXtXtXtXtXtXtXtXtXtXtXtXtXtXtXtXtXtXtXtXtXtXtXtXtXtXtXtXtXtXtXtXtXtXtXtXtX",
"tXtXtXtXtXtXtXtXtXtXtXtXtXtXtXtXtXtXtXtXtXtXtXtXtXtXtXtXtXtXtXtXtXtXtXtXtXtXtXtXtXtXtXtXtXtXtXtXtXtXtXtXtXtXtXtXtXtXtXtXtXtXtXtX",
"tXtXtXtXtXtXtXtXtXtXtXtXtXtXtXtXtXtXtXtXtXtXtXtXtXtXtXtXtX9 # # < # # # * < B tXtXtXtXtXtXtXtXtXtXtXtXtXtXtXtXtXtXtXtXtXtXtXtXtX",
"tXtXtXtXtXtXtXtXtXtXtXtXtXtXtXtXtXtXtXtXtXtXtXtXtXtXtXtXtXg t t t y y t t u V tXtXtXtXtXtXtXtXtXtXtXtXtXtXtXtXtXtXtXtXtXtXtXtXtX",
"tXtXtXtXtXtXtXtXtXtXtXtXtXtXtXtXtXtXtXtXtXtXtXtXtXtXtX# : q.p.F.H.H.H.H.A.A.+.# 5 tXtXtXtXtXtXtXtXtXtXtXtXtXtXtXtXtXtXtXtXtXtXtX",
"tXtXtXtXtXtXtXtXtXtXtXtXtXtXtXtXtXtXtXtXtXtXtXtXtXtXtXX : e.~./.|.|.}.[.U.~.[ # 5 tXtXtXtXtXtXtXtXtXtXtXtXtXtXtXtXtXtXtXtXtXtXtX",
"tXtXtXtXtXtXtXtXtXtXtXtXtXtXtXtXtXtXtXtXtXtXtXtXtX8 C ;.;.I.(.}.#X&X#X X[.(.x.;.%.N b tXtXtXtXtXtXtXtXtXtXtXtXtXtXtXtXtXtXtXtXtX",
"tXtXtXtXtXtXtXtXtXtXtXtXtXtXtXtXtXtXtXtXtXtXtXtXtXX p K.~.).[.+X%X%X;X;X X{./.~.y.> 4 tXtXtXtXtXtXtXtXtXtXtXtXtXtXtXtXtXtXtXtXtX",
"tXtXtXtXtXtXtXtXtXtXtXtXtXtXtXtXtXtXtXtXtXtXtXtXtXX k U.Y.|.|.$X1X1X:X;X X X_./.l.q < H tXtXtXtXtXtXtXtXtXtXtXtXtXtXtXtXtXtXtXtX",
"tXtXtXtXtXtXtXtXtXtXtXtXtXtXtXtXtXtXtXtXtXtXtXtXtXX k W.|.&X-X2X0XqX0XwX>X;X X}.v.e < tXtXtXtXtXtXtXtXtXtXtXtXtXtXtXtXtXtXtXtXtX",
"tXtXtXtXtXtXtXtXtXtXtXtXtXtXtXtXtXtXtXtXtXtXtXtXtXe T `.|.=X-X2X0XwXqX0X>X;X$X}.v.i 5 H tXtXtXtXtXtXtXtXtXtXtXtXtXtXtXtXtXtXtXtX",
"tXtXtXtXtXtXtXtXtXtXtXtXtXtXtXtXtXtXtXtXtXtXtX6 C y.F.$X=X8X9X0X0XqXeX4X9X0X1X*X'.e.2.C 7 m tXtXtXtXtXtXtXtXtXtXtXtXtXtXtXtXtXtX",
"tXtXtXtXtXtXtXtXtXtXtXtXtXtXtXtXtXtXtXtXtXtXf @ k P./.%X-X3X0X6XwX0XrXeXqXeX2X-X XZ.u.j O f tXtXtXtXtXtXtXtXtXtXtXtXtXtXtXtXtXtX",
"tXtXtXtXtXtXtXtXtXtXtXtXtXtXtXtXtXtXtXtXtXtXn # k Y.[.*X-X3X6X6XqXwX6X0X0XeX<X-X$XY.I.x @ g tXtXtXtXtXtXtXtXtXtXtXtXtXtXtXtXtXtX",
"tXtXtXtXtXtXtXtXtXtXtXtXtXtXtXtXtXtXtXtXtXtXn X l W. X%X;X9X6X4X6X0X6X0X4XqX2X-X*X.XW.J @ n tXtXtXtXtXtXtXtXtXtXtXtXtXtXtXtXtXtX",
"tXtXtXtXtXtXtXtXtXtXtXtXtXtXtXtXtXtXtXtXtXtXA x ( )..X%X;X9X4X4X4X6X4X4X6XqX2X$X*X}.)._ z C tXtXtXtXtXtXtXtXtXtXtXtXtXtXtXtXtXtX",
"tXtXtXtXtXtXtXtXtXtXtXtXtXtXtXtXtXtXtXtX- - } K.U.}..X=X-X9X4X6X6X4X4X6X0XqX2X=X*X}.[.A.a.) < n tXtXtXtXtXtXtXtXtXtXtXtXtXtXtXtX",
"tXtXtXtXtXtXtXtXtXtXtXtXtXtXtXtXtXtXtXtXO X [ ~.~.}..X%X-X3X6X4X4X6X6X4X6X0X2X-X*X[.}.S.p.^ O 8 tXtXtXtXtXtXtXtXtXtXtXtXtXtXtXtX",
"tXtXtXtXtXtXtXtXtXtXtXtXtXtXtXtXtXtXtXtX. @ ] ~.U.[..X%X-X9XrXrX0X6X4XrXwXwX<X;X*X}.[.F.p.) @ f tXtXtXtXtXtXtXtXtXtXtXtXtXtXtXtX",
"tXtXtXtXtXtXtXtXtXtXtXtXtXtXtXtXtXtXtXtXO O [ ~.Y.}. X%X;X9XwXrXeX4X0XqXwXwX2X=X*X}.[.A.p.) # f tXtXtXtXtXtXtXtXtXtXtXtXtXtXtXtX",
"tXtXtXtXtXtXtXtXtXtXtXtXtXtXtXtXtXtXtXtXX O +.~.A.} q. X#X;X<X<X<X<X2X<X<X<X=X XQ.&.%.t.p.^ o f tXtXtXtXtXtXtXtXtXtXtXtXtXtXtXtX",
"tXtXtXtXtXtXtXtXtXtXtXtXtXtXtXtXtXtXtXtXX O @.~.t.$ p W..X*X;X;X;X;X;X;X;X;X*X'.v.0 $ ;.Z.^ # 8 tXtXtXtXtXtXtXtXtXtXtXtXtXtXtXtX",
"tXtXtXtXtXtXtXtXtXtXtXtXtXtXtXtXtXtXtXtX@ @ +.~.t.: y [ }  .*.*.*.*.*.*.*... .} ! : ; :.Z.^ # f tXtXtXtXtXtXtXtXtXtXtXtXtXtXtXtX",
"tXtXtXtXtXtXtXtXtXtXtXtXtXtXtXtXtXtXtXtX@ @ +.^.t.: X O X X X X X @ X @ X X X X O O ; :.Z.^ o n tXtXtXtXtXtXtXtXtXtXtXtXtXtXtXtX",
"tXtXtXtXtXtXtXtXtXtXtXtXtXtXtXtXtXtXtXtX1 1 _ y.>.K p % % # % % O O O % O O @ O 0 p K @.1./ 4 N tXtXtXtXtXtXtXtXtXtXtXtXtXtXtXtX",
"tXtXtXtXtXtXtXtXtXtXtXtXtXtXtXtXtXtXtXtXtXtXN - J Q.z.= % O % # O % $ % % % % X k R.Q.L : N tXtXtXtXtXtXtXtXtXtXtXtXtXtXtXtXtXtX",
"tXtXtXtXtXtXtXtXtXtXtXtXtXtXtXtXtXtXtXtXtXtXf # K '.v.1 % # O % % % % O % % # X k `.`.J o 8 tXtXtXtXtXtXtXtXtXtXtXtXtXtXtXtXtXtX",
"tXtXtXtXtXtXtXtXtXtXtXtXtXtXtXtXtXtXtXtXtXtXn o I +Xm.e O O # O % O % # % # O O s ].].T o n tXtXtXtXtXtXtXtXtXtXtXtXtXtXtXtXtXtX",
"tXtXtXtXtXtXtXtXtXtXtXtXtXtXtXtXtXtXtXtXtXtXf X I &XN.0 X # + % # O % % $ O O X C oX$XY X 8 tXtXtXtXtXtXtXtXtXtXtXtXtXtXtXtXtXtX",
"tXtXtXtXtXtXtXtXtXtXtXtXtXtXtXtXtXtXtXtXtXtXf # I $XE.Q W t O + O + % $ O O p W %.$X$XY o 8 tXtXtXtXtXtXtXtXtXtXtXtXtXtXtXtXtXtX",
"tXtXtXtXtXtXtXtXtXtXtXtXtXtXtXtXtXtXtXtXtXtXb X I $X+Xp.u.v   o X # # O X X Q p.F.=X$XY X 9 tXtXtXtXtXtXtXtXtXtXtXtXtXtXtXtXtXtX",
"tXtXtXtXtXtXtXtXtXtXtXtXtXtXtXtXtXtXtXtXtXtX' T ! n.m.J.D.( J x j z z z J J ;.L.J.m.B.{ U E tXtXtXtXtXtXtXtXtXtXtXtXtXtXtXtXtXtX",
"tXtXtXtXtXtXtXtXtXtXtXtXtXtXtXtXtXtXtXtX< < =.*Xm.e U +X*X'.W.J.y.u.u.u.Q.W. X=XR.t e B.-X6.< n tXtXtXtXtXtXtXtXtXtXtXtXtXtXtXtX",
"tXtXtXtXtXtXtXtXtXtXtXtXtXtXtXtXtXtXtXtXe : d.1XM.e Y $X=X X.XY.Z.Z.Z.Z.(..X+X;XM.y t m.:Xf.1 N tXtXtXtXtXtXtXtXtXtXtXtXtXtXtXtX",
"tXtXtXtXtXtXtXtXtXtXtXtXtXtXtXtXtXtX9 N c.M.oX0X>XM.E.$X=X:X3X:X;X;X:X;X<X2X:X-XoXN.M.-X4XoXR.=.7 b tXtXtXtXtXtXtXtXtXtXtXtXtXtX",
"tXtXtXtXtXtXtXtXtXtXtXtXtXtXtXtXtXtX# : R.1X2XeX4X1X1X-X;X9X6XqX6XqXqXrX6XqX2X=X=X1X:X0X6X3X;Xw.X 9 tXtXtXtXtXtXtXtXtXtXtXtXtXtX",
"tXtXtXtXtXtXtXtXtXtXtXtXtXtXtXtXD ' } *.oX8X;X X!.=.f. X+X:X2X3XqXqX4X4X2X<X=X+X'.*.=.E.+X-X8XN.} %.V b tXtXtXtXtXtXtXtXtXtXtXtX",
"tXtXtXtXtXtXtXtXtXtXtXtXtXtXtXX   R [..X9XwX XP.e.$ k W..X*X-X2XwXqX4X4X:X;X@X|.v.0 $ e.P.|.wX;X}.G.i < tXtXtXtXtXtXtXtXtXtXtXtX",
"tXtXtXtXtXtXtXtXtXtXtXtXtXtXtX& o T '.}.3XqXXXR.c.$ p z.v.'. X=X3X4X9X9X$X XR.v.q.e ; f.R.XXwX1X[.G.t # tXtXtXtXtXtXtXtXtXtXtXtX",
"tXtXtXtXtXtXtXtXtXtXtXtXtXtXtXX X T W.}.3XqXOXC.j.= $ r u >.Z.Q.;X;X;X$XF.Z.o.0 0 + % k.C.OXeX;X}.G.y * tXtXtXtXtXtXtXtXtXtXtXtX",
"tXtXtXtXtXtXtXtXtXtXtXtXtXtXtX. O L [.}.2XqXOXV.j.= + # : :.p.Y.%X-X;X*XF.p./ @ # + = j.V.OXwX;X}.G.y * tXtXtXtXtXtXtXtXtXtXtXtX",
"tXtXtXtXtXtXtXtXtXtXtXtXtXtXtX. X x T.(.*X<Xg.d s % + + : e.K._.%X;X=X$XY.K.^ @ O % + s d g.1X XY.x.r < tXtXtXtXtXtXtXtXtXtXtXtX",
"tXtXtXtXtXtXtXtXtXtXtXtXtXtXtX- 1 C J.P.#X=X&.@ $ O $ % e e.~.[.-X-X-X=X/.U.+.. % O $ ; @ %.=X{.P.x.i 2 tXtXtXtXtXtXtXtXtXtXtXtX",
"tXtXtXtXtXtXtXtXtXtXtXtXtXtXtXtXG F L L R. Xx.;.) $ $ $ 1 l._.&X9X3X3X2X(.P.[ @ $ O $ ( ;.y.Q.e.x C H tXtXtXtXtXtXtXtXtXtXtXtXtX",
"tXtXtXtXtXtXtXtXtXtXtXtXtXtXtXtXtXtX* 0 G.{.I.p.1.: o + : z.}.%XqX0XrX4X).^.[ @ o + : :.p.S.~.@.X 8 tXtXtXtXtXtXtXtXtXtXtXtXtXtX",
"tXtXtXtXtXtXtXtXtXtXtXtXtXtXtXtXtXtX* : A._.L.p.1.% + + 0 z.}.=X6X0XeX3Xq.@.' F V 1 ; :.p.p.s.+.@ 8 tXtXtXtXtXtXtXtXtXtXtXtXtXtX",
"tXtXtXtXtXtXtXtXtXtXtXtXtXtXtXtXtXtX< 0 y.~.S.p.:.; X O > z..X%XqXqX6X5XI   G 0.8.4 : <.p.i.4.~ . 8 tXtXtXtXtXtXtXtXtXtXtXtXtXtX",
"tXtXtXtXtXtXtXtXtXtXtXtXtXtXtXtXtXtX< 0 y.K.u.e.$.f 8 8 g f.H.].0X9X0X1XI o H 0.7.3 ; :.i.3.#.~ 9 m tXtXtXtXtXtXtXtXtXtXtXtXtXtX",
"tXtXtXtXtXtXtXtXtXtXtXtXtXtXtXtXtXtX- 0 3.s.^ > h tXtXtXtXg q *.;X;X;XoXI   G 0.7.3 @ o.4./ > Z tXtXtXtXtXtXtXtXtXtXtXtXtXtXtXtX",
"tXtXtXtXtXtXtXtXtXtXtXtXtXtXtXtXtXtX< 0 1.s.Q X 3 tXtXtXtX7 X  .;X=X;XoXl X G 9.8.4 > O.4.~ < n tXtXtXtXtXtXtXtXtXtXtXtXtXtXtXtX",
"tXtXtXtXtXtXtXtXtXtXtXtXtXtXtXtXtXtX< 0 ,.r.P @ 3 tXtXtXtX7 X { (.)..XW.x X 8 V S O.O.c z C tXtXtXtXtXtXtXtXtXtXtXtXtXtXtXtXtXtX",
"tXtXtXtXtXtXtXtXtXtXtXtXtXtXtXtXtXtX- : #.4.P @ 4 tXtXtXtX7 # ( U./.}.W.k X O X i 5.5.v   n tXtXtXtXtXtXtXtXtXtXtXtXtXtXtXtXtXtX",
"tXtXtXtXtXtXtXtXtXtXtXtXtXtXtXtXH F c c ~ / A V V tXtXtXtXtXB ` ;.e.T.I.^ c i X w ~ / A B tXtXtXtXtXtXtXtXtXtXtXtXtXtXtXtXtXtXtX",
"tXtXtXtXtXtXtXtXtXtXtXtXtXtXtX- - h 5.<.v @ V tXtXtXtXtXtXtXtXtXX z u.p.4.3.P @ @ @ 2 X.tXtXtXtXtXtXtXtXtXtXtXtXtXtXtXtXtXtXtXtX",
"tXtXtXtXtXtXtXtXtXtXtXtXtXtXtXtX4 h ,.#.h 2 M tXtXtXtXtXtXtXtXtX< c 2.3.<.,.P w 3 $ 4 tXtXtXtXtXtXtXtXtXtXtXtXtXtXtXtXtXtXtXtXtX",
"tXtXtXtXtXtXtXtXtXtXtXtXtXtXtXtXtXtXu i tXtXtXtXtXtXtXtXtXtXtXtXtXtXi q r , P <.O.; 3 tXtXtXtXtXtXtXtXtXtXtXtXtXtXtXtXtXtXtXtXtX",
"tXtXtXtXtXtXtXtXtXtXtXtXtXtXtXtXtXtX2 2 tXtXtXtXtXtXtXtXtXtXtXtXtXtX2 * < - W 5.#.5 2 tXtXtXtXtXtXtXtXtXtXtXtXtXtXtXtXtXtXtXtXtX",
"tXtXtXtXtXtXtXtXtXtXtXtXtXtXtXtXtXtXtXG tXtXtXtXtXtXtXtXtXtXtXtXtXtXtXD G G A c C F tXtXtXtXtXtXtXtXtXtXtXtXtXtXtXtXtXtXtXtXtXtX",
"tXtXtXtXtXtXtXtXtXtXtXtXtXtXtXtXtXtXtXtXtXtXtXtXtXtXtXtXtXtXtXtXtXtXtXtXtXtXb # 6 tXtXtXtXtXtXtXtXtXtXtXtXtXtXtXtXtXtXtXtXtXtXtX",
"tXtXtXtXtXtXtXtXtXtXtXtXtXtXtXtXtXtXtXtXtXtXtXtXtXtXtXtXtXtXtXtXtXtXtXtXtXtXtXf m tXtXtXtXtXtXtXtXtXtXtXtXtXtXtXtXtXtXtXtXtXtXtX",
"tXtXtXtXtXtXtXtXtXtXtXtXtXtXtXtXtXtXtXtXtXtXtXtXtXtXtXtXtXtXtXtXtXtXtXtXtXtXtXtXtXtXtXtXtXtXtXtXtXtXtXtXtXtXtXtXtXtXtXtXtXtXtXtX",
"tXtXtXtXtXtXtXtXtXtXtXtXtXtXtXtXtXtXtXtXtXtXtXtXtXtXtXtXtXtXtXtXtXtXtXtXtXtXtXtXtXtXtXtXtXtXtXtXtXtXtXtXtXtXtXtXtXtXtXtXtXtXtXtX"
};
