/* XPM */
static char *result[] = {
/* columns rows colors chars-per-pixel */
"64 64 212 2 ",
"   c #0D0D0D",
".  c #141414",
"X  c #181516",
"o  c #161816",
"O  c #181817",
"+  c #151419",
"@  c #1C141C",
"#  c #16191C",
"$  c #1C1C1C",
"%  c #111112",
"&  c #231A1A",
"*  c #1F211F",
"=  c #23211D",
"-  c #27221B",
";  c #1E1421",
":  c #1B1D23",
">  c #191D27",
",  c #1C1E31",
"<  c #231423",
"1  c #211E24",
"2  c #2A152B",
"3  c #28162A",
"4  c #2E1D33",
"5  c #2E1331",
"6  c #3C163E",
"7  c #3C1B3D",
"8  c #341938",
"9  c #1E2124",
"0  c #1B2127",
"q  c #1E2735",
"w  c #212426",
"e  c #25252B",
"r  c #29262B",
"t  c #262931",
"y  c #282836",
"u  c #33353B",
"i  c #3D213F",
"p  c #46253F",
"a  c #40403D",
"s  c #3C1A42",
"d  c #3B1740",
"f  c #282B40",
"g  c #3C2646",
"h  c #2C3243",
"j  c #2E3748",
"k  c #3A3E43",
"l  c #353949",
"z  c #451645",
"x  c #4D1E51",
"c  c #452647",
"v  c #5C245E",
"b  c #592857",
"n  c #483258",
"m  c #5D2C61",
"M  c #4B3968",
"N  c #5B3966",
"B  c #6B3272",
"V  c #3C424C",
"C  c #3C4656",
"Z  c #3D4867",
"A  c #424243",
"S  c #44464D",
"D  c #4B4B4B",
"F  c #47494B",
"G  c #434358",
"H  c #4E4F57",
"J  c #645C4D",
"K  c #7C6F5B",
"L  c #454B6B",
"P  c #534667",
"I  c #4A556F",
"U  c #45506D",
"Y  c #484974",
"T  c #4A5476",
"R  c #5B5572",
"E  c #6E5274",
"W  c #5D6A7B",
"Q  c #5B6479",
"!  c #626368",
"~  c #646C7C",
"^  c #65627C",
"/  c #6F757C",
"(  c #78777A",
")  c #7F7766",
"_  c #80725D",
"`  c #837663",
"'  c #806667",
"]  c #9A8D73",
"[  c #4B5786",
"{  c #4A5391",
"}  c #5C6A85",
"|  c #576685",
" . c #586494",
".. c #666D83",
"X. c #6A7585",
"o. c #697587",
"O. c #727885",
"+. c #636A98",
"@. c #66769D",
"#. c #757F90",
"$. c #4E58A1",
"%. c #5B67AB",
"&. c #6C7DAC",
"*. c #6775A6",
"=. c #6A7BBD",
"-. c #6577B4",
";. c #737FA5",
":. c #6E7FC4",
">. c #807A8B",
",. c #7C8189",
"<. c #728093",
"1. c #7988A9",
"2. c #798BBD",
"3. c #788CB4",
"4. c #7C94BC",
"5. c #6E81A9",
"6. c #6F81C3",
"7. c #788EC6",
"8. c #7D93CC",
"9. c #7C93C4",
"0. c #7C8FD0",
"q. c #888787",
"w. c #858C98",
"e. c #959698",
"r. c #89919C",
"t. c #A89381",
"y. c #BDAD8B",
"u. c #8E99AB",
"i. c #8C9BB7",
"p. c #929DB6",
"a. c #8C91A2",
"s. c #94A3B9",
"d. c #A7ADB9",
"f. c #A9B1BB",
"g. c #BBBBBC",
"h. c #B1B3B7",
"j. c #C4B38D",
"k. c #C5AF8D",
"l. c #F6DAAD",
"z. c #8298CC",
"x. c #859CD2",
"c. c #8095D1",
"v. c #8AA2CC",
"b. c #9DABC5",
"n. c #94A4CE",
"m. c #96A7C5",
"M. c #87A1D4",
"N. c #88A3D6",
"B. c #8EA8D6",
"V. c #8DAADC",
"C. c #8EA7DA",
"Z. c #93AEDD",
"A. c #94A9D4",
"S. c #95B1DC",
"D. c #9CB4DC",
"F. c #A1ADC9",
"G. c #A6B3C5",
"H. c #B2B9C5",
"J. c #B6BFC8",
"K. c #A4BADE",
"L. c #ABBBD8",
"P. c #B5BDD7",
"I. c #93AFE0",
"U. c #93B1E2",
"Y. c #99B5E2",
"T. c #A3BBE2",
"R. c #A9BFE3",
"E. c #AFC2DD",
"W. c #B4C2DB",
"Q. c #BAC5DC",
"!. c #B7C6DB",
"~. c #ACC3E3",
"^. c #A7C0E5",
"/. c #B2C5E4",
"(. c #B4C9E6",
"). c #BCCBE4",
"_. c #BACDEA",
"`. c #B4C7E9",
"'. c #C3C3C4",
"]. c #C5CCD9",
"[. c #CCD1DE",
"{. c #D6D7DB",
"}. c #C1CEE5",
"|. c #C1CFE8",
" X c #C4D1E5",
".X c #CBD4E4",
"XX c #CFDAE6",
"oX c #C5D3EA",
"OX c #CAD6EA",
"+X c #CED9EA",
"@X c #D3DAE6",
"#X c #D3DBEA",
"$X c #D9DEEA",
"%X c #D5DBE7",
"&X c #D5DEF1",
"*X c #DCE2EC",
"=X c #D9E0EA",
"-X c #E1E2E3",
";X c #E2E5ED",
":X c #E6E9ED",
">X c #ECEDEE",
",X c #E8E8E6",
"<X c #F0EFEE",
"1X c #EFF0EF",
"2X c #F0F0EE",
"3X c #E6E9F1",
"4X c #EDEEF1",
"5X c #E4E7F0",
"6X c #F0EFF1",
"7X c #EFF0F1",
"8X c #F2F2F3",
"9X c None",
/* pixels */
"9X9X9X9X9X9X9X9X9X9X9X9X9X9X9X9X9X9X9X9X9X9X9X9X9X9X9X9X9X9X9X9X9X9X9X9X9X9X9X9X9X9X9X9X9X9X9X9X9X9X9X9X9X9X9X9X9X9X9X9X9X9X9X9X",
"9X9X9X9X9X9X9X9X9X9X9X9X9X9X9X9X9X9X9X9X9X9X9X9X9X9X9X9X9X9X9X9X9X9X9X9X9X9X9X9X9X9X9X9X9X9X9X9X9X9X9X9X9X9X9X9X9X9X9X9X9X9X9X9X",
"9X9X9X9X9X9X9X9X9X9X9X9X9X9X9X9X9X9X9X9X9X9X9X9X9X9X9X9X9X9X9X9X9X9X9X9X9X9X9X9X9X9X9X9X9X9X9X9X9X9X9X9X9X9X9X9X9X9X9X9X9X9X9X9X",
"9X9X9X9X9X9X9X9X9X9X9X9X9X9X9X9X9X9X9X9X9X9X9X9X9X9X9X9X9X9X9X9X9X9X9X9X9X9X9X9X9X9X9X9X9X9X9X9X9X9X9X9X9X9X9X9X9X9X9X9X9X9X9X9X",
"9X9X9X9X9X9X9X9X9X9X9X9X9X9X9X9X9X9X9X9X9X9X9X9X9X9X9X9X9X9X9X9X9X9X9X9X9X9X9X9X9X9X9X9X9X9X9X9X9X9X9X9X9X9X9X9X9X9X9X9X9X9X9X9X",
"9X9X9X9X9X9X9X9X9X9X9X9X9X9X9X9X9X9X9X9X9X9X9X9X9X5 . o . o o . o @ v 9X9X9X9X9X9X9X9X9X9X9X9X9X9X9X9X9X9X9X9X9X9X9X9X9X9X9X9X9X",
"9X9X9X9X9X9X9X9X9X9X9X9X9X9X9X9X9X9X9X9X9X9X9X9X9Xg e e t t t t t y N 9X9X9X9X9X9X9X9X9X9X9X9X9X9X9X9X9X9X9X9X9X9X9X9X9X9X9X9X9X",
"9X9X9X9X9X9X9X9X9X9X9X9X9X9X9X9X9X9X9X9X9X9X9X3 4 5.z.m.F.b.F.F.b.F.^ 2 6 9X9X9X9X9X9X9X9X9X9X9X9X9X9X9X9X9X9X9X9X9X9X9X9X9X9X9X",
"9X9X9X9X9X9X9X9X9X9X9X9X9X9X9X9X9X9X9X9X9X9X9Xo 0 3.Y.Y./.~./.(./.`.W . 3 9X9X9X9X9X9X9X9X9X9X9X9X9X9X9X9X9X9X9X9X9X9X9X9X9X9X9X",
"9X9X9X9X9X9X9X9X9X9X9X9X9X9X9X9X9X9X9X9X9X. h | | A.T./. XOX#X$X&X*Xf.w.>.$ 9X9X9X9X9X9X9X9X9X9X9X9X9X9X9X9X9X9X9X9X9X9X9X9X9X9X",
"9X9X9X9X9X9X9X9X9X9X9X9X9X9X9X9X9X9X9X9X6 . h 8.8.T./.|.@X$X4X2X<X<X;X&Xd.* 2 9X9X9X9X9X9X9X9X9X9X9X9X9X9X9X9X9X9X9X9X9X9X9X9X9X",
"9X9X9X9X9X9X9X9X9X9X9X9X9X9X9X9X9X9X9X9Xs X l 9.M.T./.|.@X#X4X<X<X6X:X*XW.H P 9X9X9X9X9X9X9X9X9X9X9X9X9X9X9X9X9X9X9X9X9X9X9X9X9X",
"9X9X9X9X9X9X9X9X9X9X9X9X9X9X9X9X9X9X9X9Xs + l B.Z.^.~.oX@X#X4X4X6X<X4X7X;X/.p.3 2 9X9X9X9X9X9X9X9X9X9X9X9X9X9X9X9X9X9X9X9X9X9X9X",
"9X9X9X9X9X9X9X9X9X9X9X9X9X9X9X9X9X9X9X9Xc 9 C V.U.~./.|.%X$X4X<X8X>X6X6X;X).s.: 3 9X9X9X9X9X9X9X9X9X9X9X9X9X9X9X9X9X9X9X9X9X9X9X",
"9X9X9X9X9X9X9X9X9X9X9X9X9X9X9X9X9X9X. o T &.3.V.S._.OX*X3X>X<X<X<X6X6X6X:X+XF.w 3 9X9X9X9X9X9X9X9X9X9X9X9X9X9X9X9X9X9X9X9X9X9X9X",
"9X9X9X9X9X9X9X9X9X9X9X9X9X9X9X9X9X9X+ O T 0.x.V.S. X@X*X8X4X<X6X>X<X6X>X3X$Xd.* 3 9X9X9X9X9X9X9X9X9X9X9X9X9X9X9X9X9X9X9X9X9X9X9X",
"9X9X9X9X9X9X9X9X9X9X9X9X9X9X9X9X9X9Xo o Q N.V.T.K.oX@X;X4X>X*X*X>X2X2X2X>X:X].#.#.N 6 9X9X9X9X9X9X9X9X9X9X9X9X9X9X9X9X9X9X9X9X9X",
"9X9X9X9X9X9X9X9X9X9X9X9X9X9X9X9X9X9X% o | U.Y.~./.OX@X*X4X>X@X%X3X2X>X4X4X8X;X).P.l . 7 9X9X9X9X9X9X9X9X9X9X9X9X9X9X9X9X9X9X9X9X",
"9X9X9X9X9X9X9X9X9X9X9X9X9X9X9X9X9X9Xj j @.S.Y.(.).OX+X$X3X;X@X@X4X>X2X<X4X<X3X X).W S M 9X9X9X9X9X9X9X9X9X9X9X9X9X9X9X9X9X9X9X9X",
"9X9X9X9X9X9X9X9X9X9X9X9X9X9X9X9X% 9 &.7.M.S.Y.OX+X+X@X@X@X@XOX@X>X1X>X7X7X6X1X4X3X).~.o.o 8 9X9X9X9X9X9X9X9X9X9X9X9X9X9X9X9X9X9X",
"9X9X9X9X9X9X9X9X9X9X9X9X9X9X9X9Xo 9 &.8.N.S.T.OX@X+X+X+X+X+X%X%X:X>X4X4X4X4X4X>X4X}./.o.+ 7 9X9X9X9X9X9X9X9X9X9X9X9X9X9X9X9X9X9X",
"9X9X9X9X9X9X9X9X9X9X9X9X9X9X9X9X. 9 2.V.Y.~./.+X+X@X+X@X+X$X3X3X>X8X;X%X$X#X#X$X#X).(.o.+ 7 9X9X9X9X9X9X9X9X9X9X9X9X9X9X9X9X9X9X",
"9X9X9X9X9X9X9X9X9X9X9X9X9X9X9X9X% 9 4.I.T.~.).+X@X+X+X+X@X#X4X6X>X<X;X+X@X@X#X#X+X).(.o.+ 7 9X9X9X9X9X9X9X9X9X9X9X9X9X9X9X9X9X9X",
"9X9X9X9X9X9X9X9X9X9X9X9X9X9X9X9Xo 9 4.I.T./.).+XXX X).@X;X;X6X<X<X>X}.L.m.O./ X.O.G.(.X.+ s 9X9X9X9X9X9X9X9X9X9X9X9X9X9X9X9X9X9X",
"9X9X9X9X9X9X9X9X9X9X9X9X9X9X9X9Xo 9 4.S.T./.).+X+X).~.+X8X4X6X>X2X7XP.9.*.: . % # u._.o.+ s 9X9X9X9X9X9X9X9X9X9X9X9X9X9X9X9X9X9X",
"9X9X9X9X9X9X9X9X9X9X9X9X9X9X9X9X% 9 3.N.Z.Y.R.).|.(./.+X<X>X<X4X].W.1.I C @ t ~ ~ ....R 4 9X9X9X9X9X9X9X9X9X9X9X9X9X9X9X9X9X9X9X",
"9X9X9X9X9X9X9X9X9X9X9X9X9X9X9X9X% w 5.8.N.I.Y.~.~./.R.@X6X<X4X3Xn.0.L . . . k E.P.V X 6 9X9X9X9X9X9X9X9X9X9X9X9X9X9X9X9X9X9X9X9X",
"9X9X9X9X9X9X9X9X9X9X9X9X9X9X9X9X4 g  .*.7.V.I.~.R././.+X8X6X6X3Xn.0.U + o % V P.W.A X 7 9X9X9X9X9X9X9X9X9X9X9X9X9X9X9X9X9X9X9X9X",
"9X9X9X9X9X9X9X9X9X9X9X9X9X9X9X9X9X9X> > [ c.z.Z.Z.R./.OX<X<X6X3Xn.8.T + O o A  X.XS @ 7 9X9X9X9X9X9X9X9X9X9X9X9X9X9X9X9X9X9X9X9X",
"9X9X9X9X9X9X9X9X9X9X9X9X9X9X9X9X9X9X& @ T 9.9.V.Z.R./.+X6X<X8X3Xn.8.U + o . A [..XS X 6 9X9X9X9X9X9X9X9X9X9X9X9X9X9X9X9X9X9X9X9X",
"9X9X9X9X9X9X9X9X9X9X9X9X9X9X9X9X9X9X9X9Xn l L 8.x.T./.+X6X4X6X3X/.K.Q . X X A =X-XD . i 9X9X9X9X9X9X9X9X9X9X9X9X9X9X9X9X9X9X9X9X",
"9X9X9X9X9X9X9X9X9X9X9X9X9X9X9X9X9X9X9X9X6 . h 2.9.K./.@X4X6X4X4X}./.~ X O . A ,X>XD @ z 9X9X9X9X9X9X9X9X9X9X9X9X9X9X9X9X9X9X9X9X",
"9X9X9X9X9X9X9X9X9X9X9X9X9X9X9X9X9X9X9X6 ^ ,.r.W.).OX#X+XXX#X4X>X#X$X( + u q.q.( >.E v 9X9X9X9X9X9X9X9X9X9X9X9X9X9X9X9X9X9X9X9X9X",
"9X9X9X9X9X9X9X9X9X9X9X9X9X9X9X9X9X9XX . q.&X$X7X6X4X8X@X~.).4X7X4X8X(   A 6X'.= < 9X9X9X9X9X9X9X9X9X9X9X9X9X9X9X9X9X9X9X9X9X9X9X",
"9X9X9X9X9X9X9X9X9X9X9X9X9X9X9X9X9X9XF S e.$X*X:X>X-X;X#X}..X:X3X6X8Xe.D ! g.e.w < m 9X9X9X9X9X9X9X9X9X9X9X9X9X9X9X9X9X9X9X9X9X9X",
"9X9X9X9X9X9X9X9X9X9X9X9X9X9X9X9X@ y G..X*X6X:X@XOX)./.+X4X3X#X%X3X6X<X,Xg.r 1 O @ & < 7 9X9X9X9X9X9X9X9X9X9X9X9X9X9X9X9X9X9X9X9X",
"9X9X9X9X9X9X9X9X9X9X9X9X9X9X9X9X3 t H.$X;X4X>X@X+XW.L..X1X>X@X@X>X1X2X8Xg.= # 9 1 9 : c 9X9X9X9X9X9X9X9X9X9X9X9X9X9X9X9X9X9X9X9X",
"9X9X9X9X9X9X9X9X9X9X9X9X9X9X6 c a.s.%X>X>X6X>X:X*X! l w.&X=X:X3X1X2X1X2Xg.= u u.p.p.s...5 x 9X9X9X9X9X9X9X9X9X9X9X9X9X9X9X9X9X9X",
"9X9X9X9X9X9X9X9X9X9X9X9X9X9X; w s._.3X1X6X>X8X8X,XA   ( $X$X4X7X1X7X1X8X'.* k L./.(._./ X 6 9X9X9X9X9X9X9X9X9X9X9X9X9X9X9X9X9X9X",
"9X9X9X9X9X9X9X9X9X9X9X9X9X9X; e G.oX3X<X6X6X{.q.q.) K ) O.e.>X4X=X+Xd.q.q.( e..X.X1.~ ( _ ' b x 9X9X9X9X9X9X9X9X9X9X9X9X9X9X9X9X",
"9X9X9X9X9X9X9X9X9X9X9X9X9X9X& e H.=X>X>X>X8Xg.@ = y.l._   a -X4X).(.W   A :X8X8X>XD % K l.j.r & 9X9X9X9X9X9X9X9X9X9X9X9X9X9X9X9X",
"9X9X9X9X9X9X9X9X9X9X9X9X9X9X@ r H.#X4X7X1X8Xg.9 & ] j.` u ! -X>XG.s.~ u ! ,X1X:X=XD % J k.] p z 9X9X9X9X9X9X9X9X9X9X9X9X9X9X9X9X",
"9X9X9X9X9X9X9X9X9X9X9X9X9X9X< e H.=X3X7X1X2Xg.9 + = = ( [.[.>X-XF > ..L.!.7X:X%X.XF . & & c 9X9X9X9X9X9X9X9X9X9X9X9X9X9X9X9X9X9X",
"9X9X9X9X9X9X9X9X9X9X9X9X9X9X@ e H.+X3X7X8X8Xg.* o : o O.=X=X6X-XV % X.`._.4X>X@X XS + @ & d 9X9X9X9X9X9X9X9X9X9X9X9X9X9X9X9X9X9X",
"9X9X9X9X9X9X9X9X9X9X9X9X9X9X@ w b.).#X$X:X8Xg.* : ..1.b.#X$X4X-Xa o W Y.^.=X#X_.W.S + 4 9X9X9X9X9X9X9X9X9X9X9X9X9X9X9X9X9X9X9X9X",
"9X9X9X9X9X9X9X9X9X9X9X9X9X9X< e b._.OX@X;X8Xg.& 9 3.U.`.+X$X6X-XV . } S.Y.XXoX/.L.V + 7 9X9X9X9X9X9X9X9X9X9X9X9X9X9X9X9X9X9X9X9X",
"9X9X9X9X9X9X9X9X9X9X9X9X9X9Xx m ..<.W. X#X5Xh.9 9 3.U.~.XX#X4X-Xp % V } 5.!./.T.D.V + 7 9X9X9X9X9X9X9X9X9X9X9X9X9X9X9X9X9X9X9X9X",
"9X9X9X9X9X9X9X9X9X9X9X9X9X9X9X9X+ w s.`. X#Xd.: > 3.Y./.+X=X4X-XA * o o l A.S.S.A.j + 7 9X9X9X9X9X9X9X9X9X9X9X9X9X9X9X9X9X9X9X9X",
"9X9X9X9X9X9X9X9X9X9X9X9X9X9X9X9X. 9 i.S.L.(.m.U L | } p.}..X5X{.c + i b N } @.x.M.} I P 9X9X9X9X9X9X9X9X9X9X9X9X9X9X9X9X9X9X9X9X",
"9X9X9X9X9X9X9X9X9X9X9X9X9X9X9X9X. 9 -.8.N.Z.B.8.2.h . ~ /.).@X].a @ m 9X9X: h 7.8.B.Y.} ; 8 9X9X9X9X9X9X9X9X9X9X9X9X9X9X9X9X9X9X",
"9X9X9X9X9X9X9X9X9X9X9X9X9X9X9X9X3 4 @.&.9.N.N.0.2.j . W ^.~. X!.V + v 9X9X5 g ;.5.x.Z.| o 7 9X9X9X9X9X9X9X9X9X9X9X9X9X9X9X9X9X9X",
"9X9X9X9X9X9X9X9X9X9X9X9X9X9X9X9X9X9X4 0 T :.:.0.3.h . I z.x.U.n.u X v 9X9X9X9Xy q *.x.T + 7 9X9X9X9X9X9X9X9X9X9X9X9X9X9X9X9X9X9X",
"9X9X9X9X9X9X9X9X9X9X9X9X9X9X9X9X9X9X& 3 Y -.=.0.7.f + I 8.c.B.v.l 3 v 9X9X9X9X< > @.8.T + 7 9X9X9X9X9X9X9X9X9X9X9X9X9X9X9X9X9X9X",
"9X9X9X9X9X9X9X9X9X9X9X9X9X9X9X9X9X9X9XB M h Z =.-.f o Z :.*.Z L B B 9X9X9X9X9X3 >  .6.T o 7 9X9X9X9X9X9X9X9X9X9X9X9X9X9X9X9X9X9X",
"9X9X9X9X9X9X9X9X9X9X9X9X9X9X9X9X9X9X9X9Xd . h -.-.y o Z =. .> < 9X9X9X9X9X9X9X; > | =.Y X 7 9X9X9X9X9X9X9X9X9X9X9X9X9X9X9X9X9X9X",
"9X9X9X9X9X9X9X9X9X9X9X9X9X9X9X9X9X9X9X9Xd @ f %.%.q o j T Y s d 9X9X9X9X9X9X9Xd d Y T M 7 z 9X9X9X9X9X9X9X9X9X9X9X9X9X9X9X9X9X9X",
"9X9X9X9X9X9X9X9X9X9X9X9X9X9X9X9X9X9X9X9Xs @ y $.$.y O o + 6 9X9X9X9X9X9X9X9X9X9X9X5 + s 9X9X9X9X9X9X9X9X9X9X9X9X9X9X9X9X9X9X9X9X",
"9X9X9X9X9X9X9X9X9X9X9X9X9X9X9X9X9X9X9X9X9X8 c { [ t O 3 8 z 9X9X9X9X9X9X9X9X9X9X9Xz 8 9X9X9X9X9X9X9X9X9X9X9X9X9X9X9X9X9X9X9X9X9X",
"9X9X9X9X9X9X9X9X9X9X9X9X9X9X9X9X9X9X9X9X9X9X9X, , + @ g 9X9X9X9X9X9X9X9X9X9X9X9X9X9X9X9X9X9X9X9X9X9X9X9X9X9X9X9X9X9X9X9X9X9X9X9X",
"9X9X9X9X9X9X9X9X9X9X9X9X9X9X9X9X9X9X9X9X9X9X9X@ ; @ 1 8 9X9X9X9X9X9X9X9X9X9X9X9X9X9X9X9X9X9X9X9X9X9X9X9X9X9X9X9X9X9X9X9X9X9X9X9X",
"9X9X9X9X9X9X9X9X9X9X9X9X9X9X9X9X9X9X9X9X9X9X9X9X9X9X9X9X9X9X9X9X9X9X9X9X9X9X9X9X9X9X9X9X9X9X9X9X9X9X9X9X9X9X9X9X9X9X9X9X9X9X9X9X",
"9X9X9X9X9X9X9X9X9X9X9X9X9X9X9X9X9X9X9X9X9X9X9X9X9X9X9X9X9X9X9X9X9X9X9X9X9X9X9X9X9X9X9X9X9X9X9X9X9X9X9X9X9X9X9X9X9X9X9X9X9X9X9X9X",
"9X9X9X9X9X9X9X9X9X9X9X9X9X9X9X9X9X9X9X9X9X9X9X9X9X9X9X9X9X9X9X9X9X9X9X9X9X9X9X9X9X9X9X9X9X9X9X9X9X9X9X9X9X9X9X9X9X9X9X9X9X9X9X9X",
"9X9X9X9X9X9X9X9X9X9X9X9X9X9X9X9X9X9X9X9X9X9X9X9X9X9X9X9X9X9X9X9X9X9X9X9X9X9X9X9X9X9X9X9X9X9X9X9X9X9X9X9X9X9X9X9X9X9X9X9X9X9X9X9X"
};
