/* XPM */
static char *result[] = {
/* columns rows colors chars-per-pixel */
"64 64 215 2 ",
"   c #0F1713",
".  c #141515",
"X  c #191516",
"o  c #151815",
"O  c #191817",
"+  c #151619",
"@  c #1A151A",
"#  c #171919",
"$  c #19191A",
"%  c #120F10",
"&  c #20111E",
"*  c #24201F",
"=  c #1B1D22",
"-  c #1B1C29",
";  c #1B1922",
":  c #231424",
">  c #261329",
",  c #2B152C",
"<  c #281A2B",
"1  c #2E1533",
"2  c #2D1E36",
"3  c #321533",
"4  c #3B1A3C",
"5  c #37163C",
"6  c #2A0E29",
"7  c #1E232B",
"8  c #1F2531",
"9  c #22252C",
"0  c #25292D",
"q  c #292927",
"w  c #332D27",
"e  c #222533",
"r  c #252931",
"t  c #2B2E34",
"y  c #292739",
"u  c #2E3135",
"i  c #2C323C",
"p  c #313438",
"a  c #534B3F",
"s  c #3D1942",
"d  c #2F2B44",
"f  c #2D3343",
"g  c #343A4B",
"h  c #353746",
"j  c #383854",
"k  c #3A2B4C",
"l  c #431B45",
"z  c #451948",
"x  c #561D58",
"c  c #4B1B51",
"v  c #4C234E",
"b  c #492955",
"n  c #5A255C",
"m  c #55285A",
"M  c #49365E",
"N  c #5B2B64",
"B  c #483A65",
"V  c #563967",
"C  c #6E3778",
"Z  c #723175",
"A  c #71357A",
"S  c #61386F",
"D  c #3C424F",
"F  c #394157",
"G  c #3B4364",
"H  c #3E4866",
"J  c #43454B",
"K  c #404344",
"L  c #444C56",
"P  c #474856",
"I  c #4B525B",
"U  c #504742",
"Y  c #756B54",
"T  c #444A68",
"R  c #564B6B",
"E  c #4D5563",
"W  c #4C596D",
"Q  c #485268",
"!  c #555A62",
"~  c #555969",
"^  c #464B73",
"/  c #4B5577",
"(  c #53597B",
")  c #684A76",
"_  c #5F646B",
"`  c #56637E",
"'  c #686875",
"]  c #60636C",
"[  c #7D3B82",
"{  c #4D5882",
"}  c #575C8B",
"|  c #5A6581",
" . c #5C6B84",
".. c #556180",
"X. c #5A6694",
"o. c #646789",
"O. c #6D778C",
"+. c #677387",
"@. c #727C8C",
"#. c #626F9B",
"$. c #697899",
"%. c #787589",
"&. c #5C6BA2",
"*. c #6371A8",
"=. c #6A7ABC",
"-. c #6678B9",
";. c #863C8D",
":. c #8B3B90",
">. c #96429B",
",. c #CF54D2",
"<. c #D854E1",
"1. c #7D838C",
"2. c #7A8395",
"3. c #6E81A7",
"4. c #7487AC",
"5. c #6D82B8",
"6. c #7284B2",
"7. c #778BBE",
"8. c #7C8EBD",
"9. c #7B8EB4",
"0. c #7B97BC",
"q. c #7A8DC3",
"w. c #768AC3",
"e. c #7C91C5",
"r. c #7D92CB",
"t. c #758CCB",
"y. c #898D98",
"u. c #8A919A",
"i. c #BFB59F",
"p. c #8996AC",
"a. c #999DA8",
"s. c #8599BB",
"d. c #929FBA",
"f. c #9DA4AD",
"g. c #9EA5B3",
"h. c #A6ACB8",
"j. c #ABB2BB",
"k. c #B3B3B4",
"l. c #D5BA91",
"z. c #D8CCB2",
"x. c #EAD2A8",
"c. c #F0D5A6",
"v. c #8195CB",
"b. c #849BC7",
"n. c #849AD2",
"m. c #8DA3CC",
"M. c #8DA2C3",
"N. c #9DACC5",
"B. c #9CAECA",
"V. c #95A6C9",
"C. c #8AA4D9",
"Z. c #95AEDC",
"A. c #97ABD3",
"S. c #9EB2D3",
"D. c #94B1DE",
"F. c #9AB3DC",
"G. c #9EB8DD",
"H. c #A8B5C9",
"J. c #A2B5DD",
"K. c #A4BADD",
"L. c #A8B9D6",
"P. c #B1BEDC",
"I. c #AAB4C8",
"U. c #95B1E2",
"Y. c #9AB5E1",
"T. c #95AFE4",
"R. c #A3BBE2",
"E. c #AABEE2",
"W. c #A0B7E0",
"Q. c #B1BFE4",
"!. c #BBC1CD",
"~. c #ADC1DD",
"^. c #B4C3DE",
"/. c #BBC5D7",
"(. c #ADC3E4",
"). c #ACC2E8",
"_. c #B3C6E4",
"`. c #B5C8E5",
"'. c #BCCBE4",
"]. c #B5C7E9",
"[. c #BCCEE9",
"{. c #C5CCDA",
"}. c #CCD0D3",
"|. c #E7DFD3",
" X c #F0E6D8",
".X c #C2CEE5",
"XX c #C6CEE9",
"oX c #C5D2E6",
"OX c #CCD5E5",
"+X c #C4D1EA",
"@X c #CDD6EA",
"#X c #CFD9EA",
"$X c #CDD8E6",
"%X c #D3DAE6",
"&X c #D0D7E9",
"*X c #D3DBEA",
"=X c #DADFEA",
"-X c #D1D7E7",
";X c #CEDBF1",
":X c #DCE2EC",
">X c #D7E0EB",
",X c #D9E1F1",
"<X c #E2E5ED",
"1X c #E6E8EE",
"2X c #EEEEEE",
"3X c #E2E3E6",
"4X c #F0EFEE",
"5X c #EEF0EF",
"6X c #F1F0EF",
"7X c #EDEEF1",
"8X c #E3E7F1",
"9X c #F0EFF1",
"0X c #EEF0F2",
"qX c #F0F0F2",
"wX c None",
/* pixels */
"wXwXwXwXwXwXwXwXwXwXwXwXwXwXwXwXwXwXwXwXwXwXwXwXwXwXwXwXwXwXwXwXwXwXwXwXwXwXwXwXwXwXwXwXwXwXwXwXwXwXwXwXwXwXwXwXwXwXwXwXwXwXwXwX",
"wXwXwXwXwXwXwXwXwXwXwXwXwXwXwXwXwXwXwXwXwXwXwXwXwXwXwXwXwXwXwXwXwXwXwXwXwXwXwXwXwXwXwXwXwXwXwXwXwXwXwXwXwXwXwXwXwXwXwXwXwXwXwXwX",
"wXwXwXwXwXwXwXwXwXwXwXwXwXwXwXwXwXwXwXwXwXwXwXwXwXwXwXwXwXwXwXwXwXwXwXwXwXwXwXwXwXwXwXwXwXwXwXwXwXwXwXwXwXwXwXwXwXwXwXwXwXwXwXwX",
"wXwXwXwXwXwXwXwXwXwXwXwXwXwXwXwXwXwXwXwXwXwXwXwXwXwXwXwXwX3 1 , 1 1 1 1 3 s wXwXwXwXwXwXwXwXwXwXwXwXwXwXwXwXwXwXwXwXwXwXwXwXwXwX",
"wXwXwXwXwXwXwXwXwXwXwXwXwXwXwXwXwXwXwXwXwXwXwXwXwXwXwXwXz X   o X X X o X 5 wXwXwXwXwXwXwXwXwXwXwXwXwXwXwXwXwXwXwXwXwXwXwXwXwXwX",
"wXwXwXwXwXwXwXwXwXwXwXwXwXwXwXwXwXwXwXwXwXwXwXwXwXwXwX. R |  .+.' +.+. . .( k wXwXwXwXwXwXwXwXwXwXwXwXwXwXwXwXwXwXwXwXwXwXwXwXwX",
"wXwXwXwXwXwXwXwXwXwXwXwXwXwXwXwXwXwXwXwXwXwXwXwXwXwX4 +  .U.Y.].`.].].E.U.s.9 @ wXwXwXwXwXwXwXwXwXwXwXwXwXwXwXwXwXwXwXwXwXwXwXwX",
"wXwXwXwXwXwXwXwXwXwXwXwXwXwXwXwXwXwXwXwXwXwXwXwXwXwXM f $.Y.G.`.`.`.`.E.Y.M.F f V wXwXwXwXwXwXwXwXwXwXwXwXwXwXwXwXwXwXwXwXwXwXwX",
"wXwXwXwXwXwXwXwXwXwXwXwXwXwXwXwXwXwXwXwXwXwXwXwX> > +.C.J.).`.@X#X#X#X[.(.E.m.m.Q : l wXwXwXwXwXwXwXwXwXwXwXwXwXwXwXwXwXwXwXwXwX",
"wXwXwXwXwXwXwXwXwXwXwXwXwXwXwXwXwXwXwXwXwXwXwXwX  # +.U.R._.`.@X#X*X$XoX_.(.Y.D.Q . z wXwXwXwXwXwXwXwXwXwXwXwXwXwXwXwXwXwXwXwXwX",
"wXwXwXwXwXwXwXwXwXwXwXwXwXwXwXwXwXwXwXwXwXwXwXwX+ ; @.).`.oX$X<X1X1X1X>XoX+XE.E.E . v wXwXwXwXwXwXwXwXwXwXwXwXwXwXwXwXwXwXwXwXwX",
"wXwXwXwXwXwXwXwXwXwXwXwXwXwXwXwXwXwXwXwXwXwXwXwX+   @.`.+X*X=X7X6X6X0X1X-X@X]._.! . l wXwXwXwXwXwXwXwXwXwXwXwXwXwXwXwXwXwXwXwXwX",
"wXwXwXwXwXwXwXwXwXwXwXwXwXwXwXwXwXwXwXwXwXwXwXN T F d.[.$X:X<X7X6X2X0X1X:X=X.X'.O.j V N wXwXwXwXwXwXwXwXwXwXwXwXwXwXwXwXwXwXwXwX",
"wXwXwXwXwXwXwXwXwXwXwXwXwXwXwXwXwXwXwXwXwXwX: y M.D.`.$X<X7X7X4X4X5X9X2X0X1X*X#XS.r.#.- < wXwXwXwXwXwXwXwXwXwXwXwXwXwXwXwXwXwXwX",
"wXwXwXwXwXwXwXwXwXwXwXwXwXwXwXwXwXwXwXwXwXwXX t m.D.`.*X<X4X2X4X2X2X6X2X0X1X%X*XF.v.#.$ : wXwXwXwXwXwXwXwXwXwXwXwXwXwXwXwXwXwXwX",
"wXwXwXwXwXwXwXwXwXwXwXwXwXwXwXwXwXwXwXwXwXwX@ t B.).oX$X<X6X7X4X6X2X9X4XqX7X%X*X_.(.p.$ : wXwXwXwXwXwXwXwXwXwXwXwXwXwXwXwXwXwXwX",
"wXwXwXwXwXwXwXwXwXwXwXwXwXwXwXwXwXwXwXwXwXwX@ y B._.oX%X<X0X2X6X2X9X9X4X7X7X%X*X[.`.p.= > wXwXwXwXwXwXwXwXwXwXwXwXwXwXwXwXwXwXwX",
"wXwXwXwXwXwXwXwXwXwXwXwXwXwXwXwXwXwXwXwXl R  .+.K._.oX$X<XqX4X5X4X2X9X4X9X7X%X;X[.(.V.( ( M z wXwXwXwXwXwXwXwXwXwXwXwXwXwXwXwXwX",
"wXwXwXwXwXwXwXwXwXwXwXwXwXwXwXwXwXwXwX@ + W U.Y.(._.+X$X<X9X2X5X7X4X7X4X9X7X%X&X'._.J.v.q.d & v wXwXwXwXwXwXwXwXwXwXwXwXwXwXwXwX",
"wXwXwXwXwXwXwXwXwXwXwXwXwXwXwXwXwXwXwX  + W D.D.(._.+X%X<X0X2X5X7X4X4X7X7X7X%X&X'._.J.r.7.f + n wXwXwXwXwXwXwXwXwXwXwXwXwXwXwXwX",
"wXwXwXwXwXwXwXwXwXwXwXwXwXwXwXwXwXwXwX. + W D.T.(._.+X%X<XqX4X9X9X4X9X4XqX7X%X#X'._.J.r.w.f @ n wXwXwXwXwXwXwXwXwXwXwXwXwXwXwXwX",
"wXwXwXwXwXwXwXwXwXwXwXwXwXwXwXwXwXwXwXX   W Z.U.~.~.[.%X<X7X5X2X7X7X7X7X7X8X%X#X/._.G.r.q.i @ n wXwXwXwXwXwXwXwXwXwXwXwXwXwXwXwX",
"wXwXwXwXwXwXwXwXwXwXwXwXwXwXwXwXwXwXwXX + W D.m.Q L p.'.@X>X>X>X=X=X=X=X>X=X{.[.@.D ` e.7.f + n wXwXwXwXwXwXwXwXwXwXwXwXwXwXwXwX",
"wXwXwXwXwXwXwXwXwXwXwXwXwXwXwXwXwXwXwXo + W U.e.9 . 1._..X%X$X$X&X-X&X-X$X@X^._.E % g 7.q.d @ n wXwXwXwXwXwXwXwXwXwXwXwXwXwXwXwX",
"wXwXwXwXwXwXwXwXwXwXwXwXwXwXwXwXwXwXwXo o W T.b.9 X h E E ! ! ! ! ! ! ! ! ! I E y o g q.q.i . n wXwXwXwXwXwXwXwXwXwXwXwXwXwXwXwX",
"wXwXwXwXwXwXwXwXwXwXwXwXwXwXwXwXwXwXwX. X W Y.b.8 . . o X X X X . X X X X . . X +   g e.q.f & n wXwXwXwXwXwXwXwXwXwXwXwXwXwXwXwX",
"wXwXwXwXwXwXwXwXwXwXwXwXwXwXwXwXwXwXwX< < E 3.$.I L t X # O @ # X X # # O @ o o p I E X.X.j 1 N wXwXwXwXwXwXwXwXwXwXwXwXwXwXwXwX",
"wXwXwXwXwXwXwXwXwXwXwXwXwXwXwXwXwXwXwXwXwXv $ u H.(.! X O # # @ X O @ # O # # @ 2.`.p.= : wXwXwXwXwXwXwXwXwXwXwXwXwXwXwXwXwXwXwX",
"wXwXwXwXwXwXwXwXwXwXwXwXwXwXwXwXwXwXwXwXwXwX@ u H.).~ o $ $ O # # O @ # # # O @ 2.[.p.= : wXwXwXwXwXwXwXwXwXwXwXwXwXwXwXwXwXwXwX",
"wXwXwXwXwXwXwXwXwXwXwXwXwXwXwXwXwXwXwXwXwXwX& u /.@X_ . # # O O # # O O # @ O o y.;Xf.= : wXwXwXwXwXwXwXwXwXwXwXwXwXwXwXwXwXwXwX",
"wXwXwXwXwXwXwXwXwXwXwXwXwXwXwXwXwXwXwXwXwXwX@ u /.%X] . # # # @ @ # O O o o @ X u.,Xf.$ : wXwXwXwXwXwXwXwXwXwXwXwXwXwXwXwXwXwXwX",
"wXwXwXwXwXwXwXwXwXwXwXwXwXwXwXwXwXwXwXwXwXwX@ u /.$X2.Q i X # # O # o @ @ 7 T Q g.:Xf.7 : wXwXwXwXwXwXwXwXwXwXwXwXwXwXwXwXwXwXwX",
"wXwXwXwXwXwXwXwXwXwXwXwXwXwXwXwXwXwXwXwXwXwXX u {.=XS.v.T . . X X @ X X . e 6.r.Q.:Xg.$ : wXwXwXwXwXwXwXwXwXwXwXwXwXwXwXwXwXwXwX",
"wXwXwXwXwXwXwXwXwXwXwXwXwXwXwXwXwXwXwXwXwXS M I a.h.V.m. .g h f f f f h g L s.A.N.j.u.J M ) wXwXwXwXwXwXwXwXwXwXwXwXwXwXwXwXwXwX",
"wXwXwXwXwXwXwXwXwXwXwXwXwXwXwXwXwXwXwX> < ' OXI.p : u.;X`.L.L.8.7.7.7.m.L.P.XX;X] $ I {.}.M > v wXwXwXwXwXwXwXwXwXwXwXwXwXwXwXwX",
"wXwXwXwXwXwXwXwXwXwXwXwXwXwXwXwXwXwXwX* $ ' =X!.u $ y.%X.X`.K.v.r.v.e.A._.'.@X&X_ X I $X{.J O n wXwXwXwXwXwXwXwXwXwXwXwXwXwXwXwX",
"wXwXwXwXwXwXwXwXwXwXwXwXwXwXwXwXwXl l y.f.!.1X>Xh.f.!.#X=X:X:X@X@X@X@X=X:X:X*X#XI.f.k.8X<Xj.h.' l z wXwXwXwXwXwXwXwXwXwXwXwXwXwX",
"wXwXwXwXwXwXwXwXwXwXwXwXwXwXwXwXwX@ $ h.,X<XqX0X:X,X*X#X8XqX9XqX4X9X4X6X9X7X%X#X;X>X8X0X9X=X,Xy.. > wXwXwXwXwXwXwXwXwXwXwXwXwXwX",
"wXwXwXwXwXwXwXwXwXwXwXwXwXwXwXwXV ! _ !.:X>X$X{.a.u.I.$X%X<X1X0X4X4X4X1X<X<XoXoXh.y.f.oX@X=X:Xg.E R m wXwXwXwXwXwXwXwXwXwXwXwXwX",
"wXwXwXwXwXwXwXwXwXwXwXwXwXwX@ @ P ^._.:XqXoXD.e.e o 2.`.+X%X=X2X9X9X4X<X%X$X`._.~ . j A.F.=X7X%X_.N.u 3 wXwXwXwXwXwXwXwXwXwXwXwX",
"wXwXwXwXwXwXwXwXwXwXwXwXwXwX  . D ~._.<XqXOXS.s.q @ O.L.^.oX&X1X2X2X7X>X@X.XL.H.E X D N.L.=X9X=X_.N.0 > wXwXwXwXwXwXwXwXwXwXwXwX",
"wXwXwXwXwXwXwXwXwXwXwXwXwXwX    D ~.].:X6X|.z.i.q + 0 u +.b.A.&X%X%X=XP.n.9.g u 7 % a z.z. X9X*X_.N.0 > wXwXwXwXwXwXwXwXwXwXwXwX",
"wXwXwXwXwXwXwXwXwXwXwXwXwXwX. o J ~.`.8X2X|.c.l.w + X X / r.n.$X#X%X*XK.t.3.7 X o   a x.c.4X0X*X_.B.0 , wXwXwXwXwXwXwXwXwXwXwXwX",
"wXwXwXwXwXwXwXwXwXwXwXwXwXwX  X D G.R.#X<Xi.Y Y * X # # | C.Z.-X%X&X*XP.C.9.9 X @ X q Y Y }.:X.X~.M.0 , wXwXwXwXwXwXwXwXwXwXwXwX",
"wXwXwXwXwXwXwXwXwXwXwXwXwXwX@ @ j Z.Y.oX*X1.  + # # @ @  .U.G.OX@X&X*X].D.s.e # o @ @ . $ h.*X].D.s.e , wXwXwXwXwXwXwXwXwXwXwXwX",
"wXwXwXwXwXwXwXwXwXwXwXwXwXwXwXn R .. .B.].p.^ T = # O o  .U.J.=X:X<X:X+XW.M.0 # @ o e T ( H.+Xd.` ` N x wXwXwXwXwXwXwXwXwXwXwXwX",
"wXwXwXwXwXwXwXwXwXwXwXwXwXwXwXwXwX: = 4.U.C.r.6.9 X o .  .U.E.7XqX9X0X*X).N.0 # @ @ g s.r.R.'.O.+ < wXwXwXwXwXwXwXwXwXwXwXwXwXwX",
"wXwXwXwXwXwXwXwXwXwXwXwXwXwXwXwXwX: = 6.C.n.e.5.9 @ 1 4 o.0.V.2X4X9X6X%X_.N.0 # $ o g t.r.Y._.O.+ < wXwXwXwXwXwXwXwXwXwXwXwXwXwX",
"wXwXwXwXwXwXwXwXwXwXwXwXwXwXwXwXwX: = X.-.t.r.5.8 ; [ ,.Z = I 3X0X7X0X%X].N.r o X . g q.r.T.F. .+ , wXwXwXwXwXwXwXwXwXwXwXwXwXwX",
"wXwXwXwXwXwXwXwXwXwXwXwXwXwXwXwXwX, : X.-.=.r.=.8 @ :.,.Z . J 3X0X2X0X=X_.N.y : : ; j 8.e.C.U. .+ < wXwXwXwXwXwXwXwXwXwXwXwXwXwX",
"wXwXwXwXwXwXwXwXwXwXwXwXwXwXwXwXwXwXZ j g { =.*.9 @ :.<.Z . J }.=X=X<Xa.I R C Z Z Z S B G 5.C...# , wXwXwXwXwXwXwXwXwXwXwXwXwXwX",
"wXwXwXwXwXwXwXwXwXwXwXwXwXwXwXwXwXwXwX@ + j =.&.- @ :.<.C X K OX*X%X%X1.X 3 wXwXwXwXwX; = $.v.{ # , wXwXwXwXwXwXwXwXwXwXwXwXwXwX",
"wXwXwXwXwXwXwXwXwXwXwXwXwXwXwXwXwXwXwX5 s B { / j g [ >.b   K /.+X[.[.@.. 5 wXwXwXwXwX> ; &.t./ o 1 wXwXwXwXwXwXwXwXwXwXwXwXwXwX",
"wXwXwXwXwXwXwXwXwXwXwXwXwXwXwXwXwXwXwXwXwXv ; e &.-.j & @ + g L._.F.F. .X 5 wXwXwXwXwX: ; X.=.^ X , wXwXwXwXwXwXwXwXwXwXwXwXwXwX",
"wXwXwXwXwXwXwXwXwXwXwXwXwXwXwXwXwXwXwXwXwXwX: 2 X.&.j . ; - F K.(.A.m.o., 5 wXwXwXwXwX1 2 } *.^ - 2 wXwXwXwXwXwXwXwXwXwXwXwXwXwX",
"wXwXwXwXwXwXwXwXwXwXwXwXwXwXwXwXwXwXwXwXwXwXwXwXd y - ; G X.#.v.e.G i V wXwXwXwXwXwXwXwX;.k e G X.} 2 5 wXwXwXwXwXwXwXwXwXwXwXwX",
"wXwXwXwXwXwXwXwXwXwXwXwXwXwXwXwXwXwXwXwXwXwXwXwX@ . @ + ^ -.=.r.8.f . s wXwXwXwXwXwXwXwXwX3 . G -.&.8 , wXwXwXwXwXwXwXwXwXwXwXwX",
"wXwXwXwXwXwXwXwXwXwXwXwXwXwXwXwXwXwXwXwXwXwXwXwX# @ d T H H ^ W ^ V l wXwXwXwXwXwXwXwXwXwXwXz B B T b c wXwXwXwXwXwXwXwXwXwXwXwX",
"wXwXwXwXwXwXwXwXwXwXwXwXwXwXwXwXwXwXwXwXwXwXwXwXo ; { =.G   o X , wXwXwXwXwXwXwXwXwXwXwXwXwXwXl @ , wXwXwXwXwXwXwXwXwXwXwXwXwXwX",
"wXwXwXwXwXwXwXwXwXwXwXwXwXwXwXwXwXwXwXwXwXwXwXwX5 s ^ X.B 1 1 l z wXwXwXwXwXwXwXwXwXwXwXwXwXwXwXl s wXwXwXwXwXwXwXwXwXwXwXwXwXwX",
"wXwXwXwXwXwXwXwXwXwXwXwXwXwXwXwXwXwXwXwXwXwXwXwXwXwXb - N wXwXwXwXwXwXwXwXwXwXwXwXwXwXwXwXwXwXwXwXwXwXwXwXwXwXwXwXwXwXwXwXwXwXwX",
"wXwXwXwXwXwXwXwXwXwXwXwXwXwXwXwXwXwXwXwXwXwXwXwXwXwXz 6 x wXwXwXwXwXwXwXwXwXwXwXwXwXwXwXwXwXwXwXwXwXwXwXwXwXwXwXwXwXwXwXwXwXwXwX",
"wXwXwXwXwXwXwXwXwXwXwXwXwXwXwXwXwXwXwXwXwXwXwXwXwXwXwXwXwXwXwXwXwXwXwXwXwXwXwXwXwXwXwXwXwXwXwXwXwXwXwXwXwXwXwXwXwXwXwXwXwXwXwXwX",
"wXwXwXwXwXwXwXwXwXwXwXwXwXwXwXwXwXwXwXwXwXwXwXwXwXwXwXwXwXwXwXwXwXwXwXwXwXwXwXwXwXwXwXwXwXwXwXwXwXwXwXwXwXwXwXwXwXwXwXwXwXwXwXwX"
};
