/* XPM */
static char *result[] = {
/* columns rows colors chars-per-pixel */
"64 64 205 2 ",
"   c #0B0C0D",
".  c #0F100D",
"X  c #151515",
"o  c #181616",
"O  c #161916",
"+  c #181816",
"@  c #161619",
"#  c #1A161A",
"$  c #17181A",
"%  c #191A1B",
"&  c #1B1C22",
"*  c #1B1621",
"=  c #241424",
"-  c #261329",
";  c #2B122C",
":  c #211822",
">  c #30132F",
",  c #2E1331",
"<  c #321434",
"1  c #3C123E",
"2  c #371539",
"3  c #310F33",
"4  c #1D2225",
"5  c #1E2328",
"6  c #212326",
"7  c #222429",
"8  c #26292C",
"9  c #29292C",
"0  c #252A34",
"q  c #2B2D34",
"w  c #282838",
"e  c #312139",
"r  c #2E353A",
"t  c #32333B",
"y  c #4D453A",
"u  c #3E1341",
"i  c #352642",
"p  c #3A3E46",
"a  c #373D49",
"s  c #333B55",
"d  c #3C2E51",
"f  c #363B62",
"g  c #431141",
"h  c #48355C",
"j  c #4A2753",
"k  c #3B414C",
"l  c #3C4143",
"z  c #3C4556",
"x  c #384255",
"c  c #3D4464",
"v  c #384171",
"b  c #44464A",
"n  c #424A53",
"m  c #464C59",
"M  c #4C535D",
"N  c #47505C",
"B  c #7B7056",
"V  c #434D61",
"C  c #434B6C",
"Z  c #474767",
"A  c #4D5663",
"S  c #48536C",
"D  c #555965",
"F  c #474672",
"G  c #4A5571",
"H  c #4B5975",
"J  c #545D76",
"K  c #534F63",
"L  c #665E71",
"P  c #5E6167",
"I  c #5B6476",
"U  c #55647E",
"Y  c #59657C",
"T  c #5E687B",
"R  c #546276",
"E  c #64666B",
"W  c #7A7467",
"Q  c #636C7B",
"!  c #67717D",
"~  c #6D737C",
"^  c #71757D",
"/  c #85785E",
"(  c #887C62",
")  c #958E7F",
"_  c #434A88",
"`  c #4A5688",
"'  c #515C8C",
"]  c #596781",
"[  c #5A668C",
"{  c #5B6988",
"}  c #586694",
"|  c #616E84",
" . c #6C7485",
".. c #757A82",
"X. c #757A82",
"o. c #646F9B",
"O. c #61719B",
"+. c #687896",
"@. c #525CAF",
"#. c #5C6CA6",
"$. c #5B6EB3",
"%. c #6A79A5",
"&. c #6879A7",
"*. c #697ABB",
"=. c #817C8D",
"-. c #7C818A",
";. c #778399",
":. c #6E85A6",
">. c #6F86A9",
",. c #7589A9",
"<. c #7285B4",
"1. c #7589BB",
"2. c #7689B4",
"3. c #7E95BB",
"4. c #778AB0",
"5. c #6F82C5",
"6. c #7C93CC",
"7. c #7E96C1",
"8. c #7E94D1",
"9. c #7D8FCA",
"0. c #868B95",
"q. c #8593AA",
"w. c #8799AC",
"e. c #9299A5",
"r. c #8D9CB4",
"t. c #8391BA",
"y. c #8898B6",
"u. c #98A4BA",
"i. c #A1A6AE",
"p. c #A4AAB7",
"a. c #D7CCB2",
"s. c #F2D7A4",
"d. c #EEDBBA",
"f. c #8198CA",
"g. c #8197D4",
"h. c #99AAC5",
"j. c #93A7C9",
"k. c #8DA9DA",
"l. c #89A3D6",
"z. c #94ABD6",
"x. c #92ADDB",
"c. c #95A6D4",
"v. c #95B0DE",
"b. c #9AB3DD",
"n. c #9DB9DF",
"m. c #8FA5C6",
"M. c #A8B5C8",
"N. c #B6BFCC",
"B. c #B9BFC7",
"V. c #A8B8D4",
"C. c #A9B6DB",
"Z. c #ADBDDC",
"A. c #A3B8D8",
"S. c #B2BED8",
"D. c #94B2E2",
"F. c #9CB6E1",
"G. c #9FBAE3",
"H. c #92AFE3",
"J. c #A3BCE3",
"K. c #A9BEE0",
"L. c #BCC2CB",
"P. c #AEC0DD",
"I. c #B3C3DD",
"U. c #B8C3DE",
"Y. c #ADC4E4",
"T. c #AFC8E7",
"R. c #B2C6E4",
"E. c #B6C9E4",
"W. c #BACBE4",
"Q. c #B3C9E9",
"!. c #B9CCEA",
"~. c #B7C7E4",
"^. c #BFD0E9",
"/. c #DCD4C1",
"(. c #C5CDD9",
"). c #C4CBD6",
"_. c #CDD4DF",
"`. c #C1CFE6",
"'. c #C0CFE8",
"]. c #C5D2E6",
"[. c #CCD5E4",
"{. c #CDD9E6",
"}. c #CAD6E8",
"|. c #CDD9EA",
" X c #D3DBE7",
".X c #D3DCEA",
"XX c #D9DFEA",
"oX c #D4DFF0",
"OX c #D7E0EA",
"+X c #DCE3EA",
"@X c #DEE1E7",
"#X c #DBE3F3",
"$X c #E2E6EE",
"%X c #E5EAEE",
"&X c #EDEEEE",
"*X c #F0EFEE",
"=X c #EFF0EF",
"-X c #F0F0EF",
";X c #E6EBF0",
":X c #ECEDF0",
">X c #E2E7F0",
",X c #F0EFF0",
"<X c #EFF0F1",
"1X c #F0F0F2",
"2X c None",
/* pixels */
"2X2X2X2X2X2X2X2X2X2X2X2X2X2X2X2X2X2X2X2X2X2X2X2X2X2X2X2X2X2X2X2X2X2X2X2X2X2X2X2X2X2X2X2X2X2X2X2X2X2X2X2X2X2X2X2X2X2X2X2X2X2X2X2X",
"2X2X2X2X2X2X2X2X2X2X2X2X2X2X2X2X2X2X2X2X2X2X2X2X2X2X2X2X2X2X2X2X2X2X2X2X2X2X2X2X2X2X2X2X2X2X2X2X2X2X2X2X2X2X2X2X2X2X2X2X2X2X2X2X",
"2X2X2X2X2X2X2X2X2X2X2X2X2X2X2X2X2X2X2X2X2X2X2X2X2X2X2X2X2X2X2X2X2X2X2X2X2X2X2X2X2X2X2X2X2X2X2X2X2X2X2X2X2X2X2X2X2X2X2X2X2X2X2X2X",
"2X2X2X2X2X2X2X2X2X2X2X2X2X2X2X2X2X2X2X2X2X2X2X2X2X2X2X, % % % + o # % 2X2X2X2X2X2X2X2X2X2X2X2X2X2X2X2X2X2X2X2X2X2X2X2X2X2X2X2X2X",
"2X2X2X2X2X2X2X2X2X2X2X2X2X2X2X2X2X2X2X2X2X2X2X2X2X2X2X< % % % % 4 % % % 2X2X2X2X2X2X2X2X2X2X2X2X2X2X2X2X2X2X2X2X2X2X2X2X2X2X2X2X",
"2X2X2X2X2X2X2X2X2X2X2X2X2X2X2X2X2X2X2X2X2X2X2X2X2X# 7 +.>.q.w.w.w.w.4.+.6 * 2X2X2X2X2X2X2X2X2X2X2X2X2X2X2X2X2X2X2X2X2X2X2X2X2X2X",
"2X2X2X2X2X2X2X2X2X2X2X2X2X2X2X2X2X2X2X2X2X2X2X2X2XX & 3.D.Y.Y.Q.R.Y.D.3.4 = 2X2X2X2X2X2X2X2X2X2X2X2X2X2X2X2X2X2X2X2X2X2X2X2X2X2X",
"2X2X2X2X2X2X2X2X2X2X2X2X2X2X2X2X2X2X2X2X2X2X2Xg h R ] z.J.R.^.!.'.W.J.z.] J h u 2X2X2X2X2X2X2X2X2X2X2X2X2X2X2X2X2X2X2X2X2X2X2X2X",
"2X2X2X2X2X2X2X2X2X2X2X2X2X2X2X2X2X2X2X2X2X2Xu # a z.x.Y.Y.]. X X X}.R.Y.v.z.a o 2X2X2X2X2X2X2X2X2X2X2X2X2X2X2X2X2X2X2X2X2X2X2X2X",
"2X2X2X2X2X2X2X2X2X2X2X2X2X2X2X2X2X2X2X2X2X2Xu # a x.F.R.W.}..XOXOX.XW.R.n.z.k X 2X2X2X2X2X2X2X2X2X2X2X2X2X2X2X2X2X2X2X2X2X2X2X2X",
"2X2X2X2X2X2X2X2X2X2X2X2X2X2X2X2X2X2X2X2X2X2X1 @ p A.~.}. X+X=X&X,X%X X}.Y.Z.k X 2X2X2X2X2X2X2X2X2X2X2X2X2X2X2X2X2X2X2X2X2X2X2X2X",
"2X2X2X2X2X2X2X2X2X2X2X2X2X2X2X2X2X2X2X2X2X2Xj & n P.~.{. X$X-X&X,X%XXX}.~.R.m 4 2X2X2X2X2X2X2X2X2X2X2X2X2X2X2X2X2X2X2X2X2X2X2X2X",
"2X2X2X2X2X2X2X2X2X2X2X2X2X2X2X2X2X2X2X2X3 ; J 3.m.].{.;X;X:X-X=X,X-X&X>X}.].t.&.F ; 1 2X2X2X2X2X2X2X2X2X2X2X2X2X2X2X2X2X2X2X2X2X",
"2X2X2X2X2X2X2X2X2X2X2X2X2X2X2X2X2X2X2X2XX X J D.G.{..X%X<X-X*X1X*X-X:X&X.X}.c.8.S + < 2X2X2X2X2X2X2X2X2X2X2X2X2X2X2X2X2X2X2X2X2X",
"2X2X2X2X2X2X2X2X2X2X2X2X2X2X2X2X2X2X2X2X+ X I J.Y.|. X%X-X&X&X<X-X-X&X&X.X|.C.b.I X ; 2X2X2X2X2X2X2X2X2X2X2X2X2X2X2X2X2X2X2X2X2X",
"2X2X2X2X2X2X2X2X2X2X2X2X2X2X2X2X2X2X2X2XX X T ~.Q. X X&X=X=X-X=X*X-X1X&X X|.W.Q.Q X ; 2X2X2X2X2X2X2X2X2X2X2X2X2X2X2X2X2X2X2X2X2X",
"2X2X2X2X2X2X2X2X2X2X2X2X2X2X2X2X2X2X2X2XZ V ,.~.Q.[. X&X*X&X-X*X,X&X*X%X X|.W.R.;.x Z 2X2X2X2X2X2X2X2X2X2X2X2X2X2X2X2X2X2X2X2X2X",
"2X2X2X2X2X2X2X2X2X2X2X2X2X2X2X2X2X2X; : >.v.A.R.E. X X&X*X*X&X-X:X&X,X&X X{.E.R.z.9.o.& : 2X2X2X2X2X2X2X2X2X2X2X2X2X2X2X2X2X2X2X",
"2X2X2X2X2X2X2X2X2X2X2X2X2X2X2X2X2X2X= % :.D.G.Y.E.|..X;X*X*X&X&X1X=X*X&X X|.W.Y.x.6.O.& O 2X2X2X2X2X2X2X2X2X2X2X2X2X2X2X2X2X2X2X",
"2X2X2X2X2X2X2X2X2X2X2X2X2X2X2X2X2X2X= % :.D.G.R.E. X X;X*X&X-X*X<X-X:X&X X|.W.R.z.9.O.% $ 2X2X2X2X2X2X2X2X2X2X2X2X2X2X2X2X2X2X2X",
"2X2X2X2X2X2X2X2X2X2X2X2X2X2X2X2X2X2X- % :.H.n.P.U. X X%X&X<X<X:X:X:X,X:X X|.~.P.c.6.O.& # 2X2X2X2X2X2X2X2X2X2X2X2X2X2X2X2X2X2X2X",
"2X2X2X2X2X2X2X2X2X2X2X2X2X2X2X2X2X2X: % :.D.+.k I I.W. XOXOXXXOXXXOXXX.XW.U.I k } 8.O.% + 2X2X2X2X2X2X2X2X2X2X2X2X2X2X2X2X2X2X2X",
"2X2X2X2X2X2X2X2X2X2X2X2X2X2X2X2X2X2X: % >.D.U X p Y.Q.|..X.X.X.X.X.X.X|.W.I.a X G 8.O.& # 2X2X2X2X2X2X2X2X2X2X2X2X2X2X2X2X2X2X2X",
"2X2X2X2X2X2X2X2X2X2X2X2X2X2X2X2X2X2X- % >.D.] X q Q ! ..X.X.............! Q q X G 8.O.& # 2X2X2X2X2X2X2X2X2X2X2X2X2X2X2X2X2X2X2X",
"2X2X2X2X2X2X2X2X2X2X2X2X2X2X2X2X2X2X- % >.F.] @ X X @ X X X X X X @ X X X X X X S g.O.& # 2X2X2X2X2X2X2X2X2X2X2X2X2X2X2X2X2X2X2X",
"2X2X2X2X2X2X2X2X2X2X2X2X2X2X2X2X2X2X2X2XA J ]  .D & O O + # + + O $ # + # % D  .I C Z 2X2X2X2X2X2X2X2X2X2X2X2X2X2X2X2X2X2X2X2X2X",
"2X2X2X2X2X2X2X2X2X2X2X2X2X2X2X2X2X2X2X2XX . Q !.u.& X $ % $ @ O $ # $ O X 4 r.!.Q X ; 2X2X2X2X2X2X2X2X2X2X2X2X2X2X2X2X2X2X2X2X2X",
"2X2X2X2X2X2X2X2X2X2X2X2X2X2X2X2X2X2X2X2X# @ Q '.u.& + $ + X % % + + % o O & u.^.! X , 2X2X2X2X2X2X2X2X2X2X2X2X2X2X2X2X2X2X2X2X2X",
"2X2X2X2X2X2X2X2X2X2X2X2X2X2X2X2X2X2X2X2X% @ ~ .Xu.% O % % O $ # # O + % X % p.OX^ X ; 2X2X2X2X2X2X2X2X2X2X2X2X2X2X2X2X2X2X2X2X2X",
"2X2X2X2X2X2X2X2X2X2X2X2X2X2X2X2X2X2X2X2X+ X ~ XXp.q 5 % % + + + + % o $ 5 0 p.OX..X , 2X2X2X2X2X2X2X2X2X2X2X2X2X2X2X2X2X2X2X2X2X",
"2X2X2X2X2X2X2X2X2X2X2X2X2X2X2X2X2X2X2X2X+ X ~ .XU.2.%.0 o o + % $ + @ 0 %.<.~..X^ O , 2X2X2X2X2X2X2X2X2X2X2X2X2X2X2X2X2X2X2X2X2X",
"2X2X2X2X2X2X2X2X2X2X2X2X2X2X2X2X2X2X2X2X% @ ^ .XU.f.3.w X % $ $ $ % @ w 1.7.W..X^ X ; 2X2X2X2X2X2X2X2X2X2X2X2X2X2X2X2X2X2X2X2X2X",
"2X2X2X2X2X2X2X2X2X2X2X2X2X2X2X2X2X2X1 2 0.e.^ M ~ C.S.q.;.+.[ [ [ [ ;.q.Z.S. .D ^ e.=.2 2 2X2X2X2X2X2X2X2X2X2X2X2X2X2X2X2X2X2X2X",
"2X2X2X2X2X2X2X2X2X2X2X2X2X2X2X2X2X2X= X e.+X-.  h [.|.W.T.c.6.6.6.g.Y.!.|._.h   X.#Xi.# X 2X2X2X2X2X2X2X2X2X2X2X2X2X2X2X2X2X2X2X",
"2X2X2X2X2X2X2X2X2X2X2X2X2X2X2X2X2X2XL E L.$Xi.E X._.|.|.}.~.C.C.C.Z.].|.{._.X.P i.$X).E P 2X2X2X2X2X2X2X2X2X2X2X2X2X2X2X2X2X2X2X",
"2X2X2X2X2X2X2X2X2X2X2X2X2X2X2X2XX t )..X&X,X%XOXOX X{.&X*X,X1X=X<X<X*X%X X{.OXOX$X,X$X.X).r # 2X2X2X2X2X2X2X2X2X2X2X2X2X2X2X2X2X",
"2X2X2X2X2X2X2X2X2X2X2X2X2X2X2X2Xt m ).XX+X+X(.M.L._.{.+X:X;X-X-X*X&X%X$X{.}.L.M.).$XOXOX(.m p j 2X2X2X2X2X2X2X2X2X2X2X2X2X2X2X2X",
"2X2X2X2X2X2X2X2X2X2X2X2X2X2X= K V.S.$X*XP.b.| 6 z P.E.{. X$X,X:X*X&XXX XE.P.m 4 | F.I.;X&XS.V.D = = 2X2X2X2X2X2X2X2X2X2X2X2X2X2X",
"2X2X2X2X2X2X2X2X2X2X2X2X2X2XX M Y.W.;X,XY.v.Y X l V.P.].[.@X1X:X*X&X{.].I.V.l . R x.Z.&X&XW.R.A X @ 2X2X2X2X2X2X2X2X2X2X2X2X2X2X",
"2X2X2X2X2X2X2X2X2X2X2X2X2X2XX M R.U.&X*X/.a.W X 4 l z t.c.W.XX.XXX}.z.t.z l 6 X W a./.*X&XW.Y.A X O 2X2X2X2X2X2X2X2X2X2X2X2X2X2X",
"2X2X2X2X2X2X2X2X2X2X2X2X2X2XX A Y.W.;X1Xd.s.( o O X & &.6.Z. X|.{.`.f.&.4 X @ X / s.d.*X%XW.R.A X o 2X2X2X2X2X2X2X2X2X2X2X2X2X2X",
"2X2X2X2X2X2X2X2X2X2X2X2X2X2X@ N n.Y.OX@X) B y + $ o 5 4.g.R. X|. X`.x.1.4 O + o y B ) [.].Y.n.A X % 2X2X2X2X2X2X2X2X2X2X2X2X2X2X",
"2X2X2X2X2X2X2X2X2X2X2X2X2X2XX m k.G.}.{.b   o + $ o 5 3.D.Q. X X{.].F.3.6 # O # X . k Z.Y.D.D.N @ @ 2X2X2X2X2X2X2X2X2X2X2X2X2X2X",
"2X2X2X2X2X2X2X2X2X2X2X2X2X2X# z >.4.W.].Q k q + % O 7 t.F.`.XXXXXX XJ.f.7 # + + q s I I.P.4.:.Z X 2X2X2X2X2X2X2X2X2X2X2X2X2X2X2X",
"2X2X2X2X2X2X2X2X2X2X2X2X2X2X2X2X$ r M.T.b.v.U O % X 6 u.R..X=X=X*X&XQ.h.6 X + @ U x.v.Y.V.r * 2X2X2X2X2X2X2X2X2X2X2X2X2X2X2X2X2X",
"2X2X2X2X2X2X2X2X2X2X2X2X2X2X2X2X$ 0 j.n.v.D.] X + O 7 h.Q..X-X=X*X%X~.h.6 o o X U D.v.F.j.q # 2X2X2X2X2X2X2X2X2X2X2X2X2X2X2X2X2X",
"2X2X2X2X2X2X2X2X2X2X2X2X2X2X2X2XO 0 <.6.k.D.] $ $ O 7 u.Q..X-X-X,X$XW.h.6 + + o U D.k.6.1.0 % 2X2X2X2X2X2X2X2X2X2X2X2X2X2X2X2X2X",
"2X2X2X2X2X2X2X2X2X2X2X2X2X2X2X2X= i %.<.l.k.] X % - < r.M.[.:X;X:X$XV.r.e - % o U k.l.<.&.i ; 2X2X2X2X2X2X2X2X2X2X2X2X2X2X2X2X2X",
"2X2X2X2X2X2X2X2X2X2X2X2X2X2X2X2X2X2Xe 0 &.8.H $ % 2X2Xi 8 e.XX X.XL.p q 2X2X; X H g.&.w w 2X2X2X2X2X2X2X2X2X2X2X2X2X2X2X2X2X2X2X",
"2X2X2X2X2X2X2X2X2X2X2X2X2X2X2X2X2X2X- % O.8.H + % 2X2X; X 0. X{. XB.9 X 2X2X< @ G 8.} % o 2X2X2X2X2X2X2X2X2X2X2X2X2X2X2X2X2X2X2X",
"2X2X2X2X2X2X2X2X2X2X2X2X2X2X2X2X2X2X- % } 5.C + + 2X2X> X ;.^.W.!.M.9 X 2X2X, X C 5.} % @ 2X2X2X2X2X2X2X2X2X2X2X2X2X2X2X2X2X2X2X",
"2X2X2X2X2X2X2X2X2X2X2X2X2X2X2X2X2X2X= % ` *.v % % 2X2X; X ;.Q.R.Y.h.8 # 2X2X, X C *.' % # 2X2X2X2X2X2X2X2X2X2X2X2X2X2X2X2X2X2X2X",
"2X2X2X2X2X2X2X2X2X2X2X2X2X2X2X2X2X2X- % ` $.c @ # 2X2X; O +.J.J.J.m.8 O 2X2X, @ c $.` * % 2X2X2X2X2X2X2X2X2X2X2X2X2X2X2X2X2X2X2X",
"2X2X2X2X2X2X2X2X2X2X2X2X2X2X2X2X2X2X- $ _ @.f $ # 2X2X; X +.D.x.H.7.8 + 2X2X< @ f @._ * o 2X2X2X2X2X2X2X2X2X2X2X2X2X2X2X2X2X2X2X",
"2X2X2X2X2X2X2X2X2X2X2X2X2X2X2X2X2X2X- & f _ f @ # 2X2X> o { 3.7.k.3.7 o 2X2X< # s _ f & # 2X2X2X2X2X2X2X2X2X2X2X2X2X2X2X2X2X2X2X",
"2X2X2X2X2X2X2X2X2X2X2X2X2X2X2X2X2X2X2X2X& & u 2X2X2X2X2X2X% % V 6.<.7 $ 2X2X2X2X2X& 2 2X2X2X2X2X2X2X2X2X2X2X2X2X2X2X2X2X2X2X2X2X",
"2X2X2X2X2X2X2X2X2X2X2X2X2X2X2X2X2X2X2X2X= = g 2X2X2X2X2X2XO X x 9.*.7 # 2X2X2X2X2X= 1 2X2X2X2X2X2X2X2X2X2X2X2X2X2X2X2X2X2X2X2X2X",
"2X2X2X2X2X2X2X2X2X2X2X2X2X2X2X2X2X2X2X2X2X2X2X2X2X2X2X2X2X$ X s *.#.6 # 2X2X2X2X2X2X2X2X2X2X2X2X2X2X2X2X2X2X2X2X2X2X2X2X2X2X2X2X",
"2X2X2X2X2X2X2X2X2X2X2X2X2X2X2X2X2X2X2X2X2X2X2X2X2X2X2X2X2X# o s *.#.6 o 2X2X2X2X2X2X2X2X2X2X2X2X2X2X2X2X2X2X2X2X2X2X2X2X2X2X2X2X",
"2X2X2X2X2X2X2X2X2X2X2X2X2X2X2X2X2X2X2X2X2X2X2X2X2X2X2X2X2X2X2Xd c s 2X2X2X2X2X2X2X2X2X2X2X2X2X2X2X2X2X2X2X2X2X2X2X2X2X2X2X2X2X2X",
"2X2X2X2X2X2X2X2X2X2X2X2X2X2X2X2X2X2X2X2X2X2X2X2X2X2X2X2X2X2X2X2X# X 2X2X2X2X2X2X2X2X2X2X2X2X2X2X2X2X2X2X2X2X2X2X2X2X2X2X2X2X2X2X",
"2X2X2X2X2X2X2X2X2X2X2X2X2X2X2X2X2X2X2X2X2X2X2X2X2X2X2X2X2X2X2X2X< 2 2X2X2X2X2X2X2X2X2X2X2X2X2X2X2X2X2X2X2X2X2X2X2X2X2X2X2X2X2X2X",
"2X2X2X2X2X2X2X2X2X2X2X2X2X2X2X2X2X2X2X2X2X2X2X2X2X2X2X2X2X2X2X2X2X2X2X2X2X2X2X2X2X2X2X2X2X2X2X2X2X2X2X2X2X2X2X2X2X2X2X2X2X2X2X2X",
"2X2X2X2X2X2X2X2X2X2X2X2X2X2X2X2X2X2X2X2X2X2X2X2X2X2X2X2X2X2X2X2X2X2X2X2X2X2X2X2X2X2X2X2X2X2X2X2X2X2X2X2X2X2X2X2X2X2X2X2X2X2X2X2X"
};
