/* XPM */
static char *result[] = {
/* columns rows colors chars-per-pixel */
"64 64 213 2 ",
"   c #0F0D0C",
".  c #160F18",
"X  c #151415",
"o  c #181516",
"O  c #191816",
"+  c #151519",
"@  c #1A151B",
"#  c #1B1C1D",
"$  c #131A17",
"%  c #0C0C10",
"&  c #221E1B",
"*  c #1D211E",
"=  c #23221B",
"-  c #1E1521",
";  c #1A1D23",
":  c #1D1E2B",
">  c #161A21",
",  c #221423",
"<  c #2A152A",
"1  c #251D28",
"2  c #2C1734",
"3  c #311735",
"4  c #331B35",
"5  c #3B153B",
"6  c #3B1B3C",
"7  c #35163A",
"8  c #1C2125",
"9  c #1E212A",
"0  c #212123",
"q  c #23262B",
"w  c #29262A",
"e  c #232532",
"r  c #272836",
"t  c #37203D",
"y  c #34363B",
"u  c #2F363F",
"i  c #411D3F",
"p  c #42413F",
"a  c #3F1B44",
"s  c #3C1641",
"d  c #292D41",
"f  c #3C2344",
"g  c #3B2A47",
"h  c #2C3243",
"j  c #2E334C",
"k  c #333B4B",
"l  c #363A45",
"z  c #3C2C54",
"x  c #431B44",
"c  c #45174A",
"v  c #501B53",
"b  c #452449",
"n  c #562659",
"m  c #46345A",
"M  c #533D5F",
"N  c #4E3967",
"B  c #5A3766",
"V  c #723378",
"C  c #683D77",
"Z  c #3C4149",
"A  c #3E4040",
"S  c #3B4559",
"D  c #3D4967",
"F  c #434343",
"G  c #43444C",
"H  c #4A4A4B",
"J  c #474749",
"K  c #4B4B59",
"L  c #665C4F",
"P  c #796C5C",
"I  c #7D735E",
"U  c #424D6C",
"Y  c #404568",
"T  c #554663",
"R  c #46526F",
"E  c #4A546E",
"W  c #474872",
"Q  c #4A5578",
"!  c #555978",
"~  c #5E4874",
"^  c #6C4F71",
"/  c #5E6878",
"(  c #5D636B",
")  c #626467",
"_  c #636B7A",
"`  c #646678",
"'  c #6F747D",
"]  c #777779",
"[  c #7F7768",
"{  c #80705D",
"}  c #837664",
"|  c #9B8D72",
" . c #AC937E",
".. c #743C83",
"X. c #4A4F88",
"o. c #4E579F",
"O. c #585E8C",
"+. c #5C6A85",
"@. c #596884",
"#. c #576496",
"$. c #636E83",
"%. c #6B688B",
"&. c #6B7686",
"*. c #697587",
"=. c #787B87",
"-. c #6B7394",
";. c #5B67A9",
":. c #6474A4",
">. c #6C7EAB",
",. c #6977A7",
"<. c #6879B8",
"1. c #737FA3",
"2. c #728199",
"3. c #7687A9",
"4. c #6D80B8",
"5. c #798ABC",
"6. c #798EB3",
"7. c #7B92B5",
"8. c #7E94B8",
"9. c #788CC5",
"0. c #7D93C5",
"q. c #7D93CD",
"w. c #7B93D1",
"e. c #6F81C1",
"r. c #878687",
"t. c #858C99",
"y. c #8C929D",
"u. c #96979A",
"i. c #BFAC8C",
"p. c #899AB5",
"a. c #909EB6",
"s. c #8D93A5",
"d. c #96A4BA",
"f. c #A6ADB7",
"g. c #BCBBBB",
"h. c #B4B6B8",
"j. c #ADB1BE",
"k. c #C5B28D",
"l. c #C3AF90",
"z. c #F4DBAF",
"x. c #8196CD",
"c. c #8399C4",
"v. c #859CD3",
"b. c #8296D1",
"n. c #88A1CD",
"m. c #9DABC4",
"M. c #9EAECA",
"N. c #93A5CA",
"B. c #89A3D9",
"V. c #8EABDC",
"C. c #8BA6D5",
"Z. c #93AEDD",
"A. c #91A9D7",
"S. c #96B1DE",
"D. c #9BB3DD",
"F. c #A6B2C4",
"G. c #B2B9C5",
"H. c #BCBFC4",
"J. c #A4B9DE",
"K. c #ABBAD8",
"L. c #ADB7D3",
"P. c #94AFE1",
"I. c #94B1E1",
"U. c #9BB6E2",
"Y. c #A4BBE2",
"T. c #AABEE2",
"R. c #B3BEE1",
"E. c #ACC1DE",
"W. c #B4C2DC",
"Q. c #B7C3D9",
"!. c #ACC3E3",
"~. c #ABC4E7",
"^. c #B2C5E3",
"/. c #B4C9E5",
"(. c #BCCBE4",
"). c #BCCCEA",
"_. c #B6C8E8",
"`. c #C7CDDB",
"'. c #CCD2DE",
"]. c #CECDD0",
"[. c #DFE3DE",
"{. c #C1CEE6",
"}. c #C1CEE9",
"|. c #C5D1E5",
" X c #CBD4E4",
".X c #CFD9E6",
"XX c #C4D2EA",
"oX c #CBD6E9",
"OX c #CED9EB",
"+X c #D4DBE6",
"@X c #D9DEE7",
"#X c #D3DBEA",
"$X c #D9DEEA",
"%X c #D0D3E0",
"&X c #DCE2EB",
"*X c #DEE2E5",
"=X c #DFE4F0",
"-X c #E2E2E3",
";X c #E2E5EC",
":X c #E6E9EE",
">X c #EDEDEE",
",X c #E8E8E7",
"<X c #F0EFEE",
"1X c #EFF0EE",
"2X c #F0F0EE",
"3X c #E5E9F1",
"4X c #EDEEF1",
"5X c #E1E6F0",
"6X c #F0EFF1",
"7X c #EEF0F2",
"8X c #F2F2F3",
"9X c #F7F6F9",
"0X c None",
/* pixels */
"0X0X0X0X0X0X0X0X0X0X0X0X0X0X0X0X0X0X0X0X0X0X0X0X0X0X0X0X0X0X0X0X0X0X0X0X0X0X0X0X0X0X0X0X0X0X0X0X0X0X0X0X0X0X0X0X0X0X0X0X0X0X0X0X",
"0X0X0X0X0X0X0X0X0X0X0X0X0X0X0X0X0X0X0X0X0X0X0X0X0X0X0X0X0X0X0X0X0X0X0X0X0X0X0X0X0X0X0X0X0X0X0X0X0X0X0X0X0X0X0X0X0X0X0X0X0X0X0X0X",
"0X0X0X0X0X0X0X0X0X0X0X0X0X0X0X0X0X0X0X0X0X0X0X0X0X0X0X0X0X0X0X0X0X0X0X0X0X0X0X0X0X0X0X0X0X0X0X0X0X0X0X0X0X0X0X0X0X0X0X0X0X0X0X0X",
"0X0X0X0X0X0X0X0X0X0X0X0X0X0X0X0X0X0X0X0X0X0X0X0X0X0X0X0X0X0X0X0X0X0X0X0X0X0X0X0X0X0X0X0X0X0X0X0X0X0X0X0X0X0X0X0X0X0X0X0X0X0X0X0X",
"0X0X0X0X0X0X0X0X0X0X0X0X0X0X0X0X0X0X0X0X0X0X0X0X0X0X0X0X0X0X0X0X0X0X0X0X0X0X0X0X0X0X0X0X0X0X0X0X0X0X0X0X0X0X0X0X0X0X0X0X0X0X0X0X",
"0X0X0X0X0X0X0X0X0X0X0X0X0X0X0X0X0X0X0X0X0X0X0X0X0X0X0X0X0X0X$ $ O O $ $ o $ < 0X0X0X0X0X0X0X0X0X0X0X0X0X0X0X0X0X0X0X0X0X0X0X0X0X",
"0X0X0X0X0X0X0X0X0X0X0X0X0X0X0X0X0X0X0X0X0X0X0X0X0X0X0X0X0Xb r w w r e w e e g 0X0X0X0X0X0X0X0X0X0X0X0X0X0X0X0X0X0X0X0X0X0X0X0X0X",
"0X0X0X0X0X0X0X0X0X0X0X0X0X0X0X0X0X0X0X0X0X0X0X0X0X0X0Xs < ` M.M.m.M.m.m.N.p.3.4 3 0X0X0X0X0X0X0X0X0X0X0X0X0X0X0X0X0X0X0X0X0X0X0X",
"0X0X0X0X0X0X0X0X0X0X0X0X0X0X0X0X0X0X0X0X0X0X0X0X0X0X0X3 X _ _.^./././.~.Y.I.6.; < 0X0X0X0X0X0X0X0X0X0X0X0X0X0X0X0X0X0X0X0X0X0X0X",
"0X0X0X0X0X0X0X0X0X0X0X0X0X0X0X0X0X0X0X0X0X0X0X0X0X0X0 =.t.F.$X$X&XOXoX)./.Y.N.+.O.m X 0X0X0X0X0X0X0X0X0X0X0X0X0X0X0X0X0X0X0X0X0X",
"0X0X0X0X0X0X0X0X0X0X0X0X0X0X0X0X0X0X0X0X0X0X0X0X0X2 8 f.&X;X2X8X7X1X*XOX{.^.Y.x.9.j o 6 0X0X0X0X0X0X0X0X0X0X0X0X0X0X0X0X0X0X0X0X",
"0X0X0X0X0X0X0X0X0X0X0X0X0X0X0X0X0X0X0X0X0X0X0X0X0XT K H.$X:X1X>X1X:X&XOX{.^.T.v.0.k o i 0X0X0X0X0X0X0X0X0X0X0X0X0X0X0X0X0X0X0X0X",
"0X0X0X0X0X0X0X0X0X0X0X0X0X0X0X0X0X0X0X0X0X0X0X, q a.^.;X7X>X1X<X1X4X$XOX}.!.T.P.A.k + i 0X0X0X0X0X0X0X0X0X0X0X0X0X0X0X0X0X0X0X0X",
"0X0X0X0X0X0X0X0X0X0X0X0X0X0X0X0X0X0X0X0X0X0X0X$ 8 d.(.;X2X>X8X>X>X4X@X#X{./.!.Z.A.S 8 b 0X0X0X0X0X0X0X0X0X0X0X0X0X0X0X0X0X0X0X0X",
"0X0X0X0X0X0X0X0X0X0X0X0X0X0X0X0X0X0X0X0X0X0X0XO 1 f..X3X>X2X4X8X<X6X>X4X&XoX).Z.V.5.>.Q X 4 0X0X0X0X0X0X0X0X0X0X0X0X0X0X0X0X0X0X",
"0X0X0X0X0X0X0X0X0X0X0X0X0X0X0X0X0X0X0X0X0X0X0X+ 8 f.#X:X8X<X4X>X6X6X4X7X;X+XXXS.V.v.q.Q $ 6 0X0X0X0X0X0X0X0X0X0X0X0X0X0X0X0X0X0X",
"0X0X0X0X0X0X0X0X0X0X0X0X0X0X0X0X0X0X0X0X0Xi B &.=.'.5X4X8X>X2X4X;X;X>X6X&X+X|.Y.U.V.B./ X 6 0X0X0X0X0X0X0X0X0X0X0X0X0X0X0X0X0X0X",
"0X0X0X0X0X0X0X0X0X0X0X0X0X0X0X0X0X0X0X0Xa . Z !._.;X<X4X>X<X6X:X+X+X3X6X;X#XoX^.~.S.I.@.X 6 0X0X0X0X0X0X0X0X0X0X0X0X0X0X0X0X0X0X",
"0X0X0X0X0X0X0X0X0X0X0X0X0X0X0X0X0X0X0X0XM G ` Q.{.:X<X<X2X>X8X3X+X.X5X:X$X+XoX(./.D.I.:.l m 0X0X0X0X0X0X0X0X0X0X0X0X0X0X0X0X0X0X",
"0X0X0X0X0X0X0X0X0X0X0X0X0X0X0X0X0X0X+ X *.^.).1X6X6X6X6X7X2X>X4X#X.X.X.X+XOX.XOXOXJ.Z.B.9.,.: 7 0X0X0X0X0X0X0X0X0X0X0X0X0X0X0X0X",
"0X0X0X0X0X0X0X0X0X0X0X0X0X0X0X0X0X0XX + &._.).>X4X4X4X4X4X>X6X:X+X.X.X#X+XOXOXOXOXY.Z.C.q.>.8 6 0X0X0X0X0X0X0X0X0X0X0X0X0X0X0X0X",
"0X0X0X0X0X0X0X0X0X0X0X0X0X0X0X0X0X0Xo O &./.(.#X@X@X#X@X@X;X6X<X>X3X$X.XOX#X+X.XOX/.~.D.Z.6.9 6 0X0X0X0X0X0X0X0X0X0X0X0X0X0X0X0X",
"0X0X0X0X0X0X0X0X0X0X0X0X0X0X0X0X0X0X$ + *./._.#X#X#X#X.XOX=X6X<X<X6X#X.X.XOXOXOX.X(.!.U.I.8.9 6 0X0X0X0X0X0X0X0X0X0X0X0X0X0X0X0X",
"0X0X0X0X0X0X0X0X0X0X0X0X0X0X0X0X0X0X$ + *._.F.' ' ' &.N.L.|.<X<X<X6X;X;X.X(.|.OX.X/.E.~.I.7.9 a 0X0X0X0X0X0X0X0X0X0X0X0X0X0X0X0X",
"0X0X0X0X0X0X0X0X0X0X0X0X0X0X0X0X0X0X+ O &.).a.$ X $ > :.x.R.<X<X4X6X6X4X#XW./.OXOX(./.Y.I.7.9 7 0X0X0X0X0X0X0X0X0X0X0X0X0X0X0X0X",
"0X0X0X0X0X0X0X0X0X0X0X0X0X0X0X0X0X0X0Xw ~ _ _ *._ w # S E 3.R.`.4X6X6X6XOX^./.).(.J.U.S.B.3.9 s 0X0X0X0X0X0X0X0X0X0X0X0X0X0X0X0X",
"0X0X0X0X0X0X0X0X0X0X0X0X0X0X0X0X0X0X0X0Xa X Z R.E.Z X o X U q.v.:X6X>X6X.X!.^.^.~.S.V.B.w.>.: s 0X0X0X0X0X0X0X0X0X0X0X0X0X0X0X0X",
"0X0X0X0X0X0X0X0X0X0X0X0X0X0X0X0X0X0X0X0Xx X Z Q.W.l o O o R q.N.:X6X<X6XOX^.~.T.~.I.V.0.,.%.f a 0X0X0X0X0X0X0X0X0X0X0X0X0X0X0X0X",
"0X0X0X0X0X0X0X0X0X0X0X0X0X0X0X0X0X0X0X0Xx O J |.`.Z X O $ R q.N.3X6X6X7X.X^.T.S.Z.v.q.! ; f 0X0X0X0X0X0X0X0X0X0X0X0X0X0X0X0X0X0X",
"0X0X0X0X0X0X0X0X0X0X0X0X0X0X0X0X0X0X0X0Xx @ J  X'.F X O X R 0.N.3X6X6X7XOX^.T.Z.V.0.9.! - 7 0X0X0X0X0X0X0X0X0X0X0X0X0X0X0X0X0X0X",
"0X0X0X0X0X0X0X0X0X0X0X0X0X0X0X0X0X0X0X0Xx . H -X@XJ X O X / Y.R.:X6X6X7X.X^.Y.v.x.U j m 0X0X0X0X0X0X0X0X0X0X0X0X0X0X0X0X0X0X0X0X",
"0X0X0X0X0X0X0X0X0X0X0X0X0X0X0X0X0X0X0X0Xx , K <X,XF X o O _ ^.(.>X6X6X4X.X^.J.q.5.h X a 0X0X0X0X0X0X0X0X0X0X0X0X0X0X0X0X0X0X0X0X",
"0X0X0X0X0X0X0X0X0X0X0X0X0X0X0X0X0X0X0X0X0Xn ^ ] ] r.| y X ] $X$X4X4X+XoXOX#XoX(.Q.y.=.%.5 v 0X0X0X0X0X0X0X0X0X0X0X0X0X0X0X0X0X0X",
"0X0X0X0X0X0X0X0X0X0X0X0X0X0X0X0X0X0X0X0X0X0X0XX # ].3XJ   =.8X4X6X4X`.!.#X6X6X6X7X&X$X=.. i 0X0X0X0X0X0X0X0X0X0X0X0X0X0X0X0X0X0X",
"0X0X0X0X0X0X0X0X0X0X0X0X0X0X0X0X0X0X0X0X0X0X0X@ * u.g.) J u.8X4X:X3X X{..X;X;X:X3X&X&Xu.m T V 0X0X0X0X0X0X0X0X0X0X0X0X0X0X0X0X0X",
"0X0X0X0X0X0X0X0X0X0X0X0X0X0X0X0X0X0X0X0Xx , ; O O # w h.>X>X4X3X+X#X3X4X+X/._.#X+X3X7X&X'.h.w 5 0X0X0X0X0X0X0X0X0X0X0X0X0X0X0X0X",
"0X0X0X0X0X0X0X0X0X0X0X0X0X0X0X0X0X0X0X0Xn 1 8 8 8 > 0 g.8X<X4X4X@X+X:X6X XL.W..X@X,X6X;X$XG.r f 0X0X0X0X0X0X0X0X0X0X0X0X0X0X0X0X",
"0X0X0X0X0X0X0X0X0X0X0X0X0X0X0X0X0X0X7 x ` d.a.a.s.y O ].8X<X2X>X:X3X$X$Xt.l ( &X:X8X6X>X>X+Xd.s.f 5 0X0X0X0X0X0X0X0X0X0X0X0X0X0X",
"0X0X0X0X0X0X0X0X0X0X0X0X0X0X0X0X0X0X+ % &.)./.^.W.k O H.9X8X7X7X2X6X@X$X'   p ,X8X8X<X<X1X5X(.d.q , 0X0X0X0X0X0X0X0X0X0X0X0X0X0X",
"0X0X0X0X0X0X0X0X0X0X0X0X0X0X0X0Xv n P I ] &.2..X Xs.} r.r.f.#X$X4X:Xy.=.[ I } r.r.%X8X<X6X3X|.F.q @ 0X0X0X0X0X0X0X0X0X0X0X0X0X0X",
"0X0X0X0X0X0X0X0X0X0X0X0X0X0X0X0X- = k.z.{   H >X7X8X,XJ   / /.).4X-XA   } z.i.& ; g.2X2X7X:X$XG.w - 0X0X0X0X0X0X0X0X0X0X0X0X0X0X",
"0X0X0X0X0X0X0X0X0X0X0X0X0X0X0X0X5 b  .l.L   H -X4X7X,X( y _ d.F.3X,X) y } k.| * # g.8X8X7X3X$XG.w - 0X0X0X0X0X0X0X0X0X0X0X0X0X0X",
"0X0X0X0X0X0X0X0X0X0X0X0X0X0X0X0X0X0Xw & & $ H '.#X3X4XQ.L.$.8 J -X4X%X'.] & & O # g.8X2X7X>X+XG.w @ 0X0X0X0X0X0X0X0X0X0X0X0X0X0X",
"0X0X0X0X0X0X0X0X0X0X0X0X0X0X0X0X0X0X, & @ X G  X#X3X4X)./.*.X A -X6X@X#X&.> ; $ 0 g.8X>X7X3X$XG.w - 0X0X0X0X0X0X0X0X0X0X0X0X0X0X",
"0X0X0X0X0X0X0X0X0X0X0X0X0X0X0X0X0X0X0X0X6 o G W.(.#X#XT.U.@.X F -X4X+XOXF.3.+.* & g.8X:X&X+XXXm.9 & 0X0X0X0X0X0X0X0X0X0X0X0X0X0X",
"0X0X0X0X0X0X0X0X0X0X0X0X0X0X0X0X0X0X0X0Xx o Z K./.XXOXY.I./ X p -X4X$XOX!.I.6.8 1 g.8X=XOXOX(.d.e , 0X0X0X0X0X0X0X0X0X0X0X0X0X0X",
"0X0X0X0X0X0X0X0X0X0X0X0X0X0X0X0X0X0X0X0Xa + Z D.T.^.~.2.+.S X p -X4X$XOX^.S.6.8 # h.&X#XXXW.2.%.B n 0X0X0X0X0X0X0X0X0X0X0X0X0X0X",
"0X0X0X0X0X0X0X0X0X0X0X0X0X0X0X0X0X0X0X0Xx X Z C.Z.Z.A.k @ + $ F @X<X@XOX^.S.7.; # f.#XXX^.d.8 6 0X0X0X0X0X0X0X0X0X0X0X0X0X0X0X0X",
"0X0X0X0X0X0X0X0X0X0X0X0X0X0X0X0X0X0X0Xv ~ E +.B.n.:.+.T n 6 X A %X;X XXXa.+.@.D U m._.Y.Z.p.9 6 0X0X0X0X0X0X0X0X0X0X0X0X0X0X0X0X",
"0X0X0X0X0X0X0X0X0X0X0X0X0X0X0X0X0X0X@ - +.S.C.w.5.h , 0X0X0XO y `.#X_.^.+.X h 5.0.V.I.B.q.>.8 6 0X0X0X0X0X0X0X0X0X0X0X0X0X0X0X0X",
"0X0X0X0X0X0X0X0X0X0X0X0X0X0X0X0X0X0X+ O @.I.n.4.,.z 7 0X0X0Xo l Q.XXE.~./ + u 9.w.v.B.0.>.-.t c 0X0X0X0X0X0X0X0X0X0X0X0X0X0X0X0X",
"0X0X0X0X0X0X0X0X0X0X0X0X0X0X0X0X0X0Xo O ! q.,.e t 0X0X0X0X0Xo h N.D.v.x.E + h 5.q.e.<.X.: f 0X0X0X0X0X0X0X0X0X0X0X0X0X0X0X0X0X0X",
"0X0X0X0X0X0X0X0X0X0X0X0X0X0X0X0X0X0Xo O ! x.:.> , 0X0X0X0X0X, l n.A.q.q.R + d 9.q.<.<.W , x 0X0X0X0X0X0X0X0X0X0X0X0X0X0X0X0X0X0X",
"0X0X0X0X0X0X0X0X0X0X0X0X0X0X0X0X0X0XX $ U e.#.> < 0X0X0X0X0XV C K D :.e.D + d <.<.D j N V 0X0X0X0X0X0X0X0X0X0X0X0X0X0X0X0X0X0X0X",
"0X0X0X0X0X0X0X0X0X0X0X0X0X0X0X0X0X0X+ @ U <.#.@ < 0X0X0X0X0X0X0X, ; #.<.D X r <.,.d . x 0X0X0X0X0X0X0X0X0X0X0X0X0X0X0X0X0X0X0X0X",
"0X0X0X0X0X0X0X0X0X0X0X0X0X0X0X0X0X0X6 6 N X.W f x 0X0X0X0X0X0X0Xc b W Q j . d ;.;.d @ t 0X0X0X0X0X0X0X0X0X0X0X0X0X0X0X0X0X0X0X0X",
"0X0X0X0X0X0X0X0X0X0X0X0X0X0X0X0X0X0X0X0Xx O 1 0X0X0X0X0X0X0X0X0X0X0X2 + $ O r o.o.d > a 0X0X0X0X0X0X0X0X0X0X0X0X0X0X0X0X0X0X0X0X",
"0X0X0X0X0X0X0X0X0X0X0X0X0X0X0X0X0X0X0X0X0X3 7 0X0X0X0X0X0X0X0X0X0X0Xc s < @ e X.X.z 5 0X0X0X0X0X0X0X0X0X0X0X0X0X0X0X0X0X0X0X0X0X",
"0X0X0X0X0X0X0X0X0X0X0X0X0X0X0X0X0X0X0X0X0X0X0X0X0X0X0X0X0X0X0X0X0X0X0X0Xb @ + : 2 ..0X0X0X0X0X0X0X0X0X0X0X0X0X0X0X0X0X0X0X0X0X0X",
"0X0X0X0X0X0X0X0X0X0X0X0X0X0X0X0X0X0X0X0X0X0X0X0X0X0X0X0X0X0X0X0X0X0X0X0Xc , ; - < 0X0X0X0X0X0X0X0X0X0X0X0X0X0X0X0X0X0X0X0X0X0X0X",
"0X0X0X0X0X0X0X0X0X0X0X0X0X0X0X0X0X0X0X0X0X0X0X0X0X0X0X0X0X0X0X0X0X0X0X0X0X0X0X0X0X0X0X0X0X0X0X0X0X0X0X0X0X0X0X0X0X0X0X0X0X0X0X0X",
"0X0X0X0X0X0X0X0X0X0X0X0X0X0X0X0X0X0X0X0X0X0X0X0X0X0X0X0X0X0X0X0X0X0X0X0X0X0X0X0X0X0X0X0X0X0X0X0X0X0X0X0X0X0X0X0X0X0X0X0X0X0X0X0X",
"0X0X0X0X0X0X0X0X0X0X0X0X0X0X0X0X0X0X0X0X0X0X0X0X0X0X0X0X0X0X0X0X0X0X0X0X0X0X0X0X0X0X0X0X0X0X0X0X0X0X0X0X0X0X0X0X0X0X0X0X0X0X0X0X",
"0X0X0X0X0X0X0X0X0X0X0X0X0X0X0X0X0X0X0X0X0X0X0X0X0X0X0X0X0X0X0X0X0X0X0X0X0X0X0X0X0X0X0X0X0X0X0X0X0X0X0X0X0X0X0X0X0X0X0X0X0X0X0X0X"
};
