/* XPM */
static char *fa1753e2496d4291ab4eff298f3b45b8zVCJ7nNrMliaCExx[] = {
/* columns rows colors chars-per-pixel */
"64 64 221 2 ",
"   c None",
".  c #12120E",
"X  c #141515",
"o  c #181416",
"O  c #161815",
"+  c #181817",
"@  c #151619",
"#  c #1A151A",
"$  c #17191B",
"%  c #1A1A1B",
"&  c #121013",
"*  c #29241E",
"=  c #1D1D23",
"-  c #1B1826",
";  c #251525",
":  c #221C24",
">  c #261529",
",  c #2A152B",
"<  c #2A192C",
"1  c #2D1531",
"2  c #2B1B34",
"3  c #331335",
"4  c #3B183D",
"5  c #30152E",
"6  c #1E2125",
"7  c #1C232A",
"8  c #1F2031",
"9  c #222224",
"0  c #2C2B2B",
"q  c #26252A",
"w  c #34292A",
"e  c #232433",
"r  c #242936",
"t  c #2A2F36",
"y  c #292C3C",
"u  c #252A39",
"i  c #35273C",
"p  c #2D323C",
"a  c #2F3032",
"s  c #37373A",
"d  c #383027",
"f  c #443938",
"g  c #4C463C",
"h  c #3F1B42",
"j  c #272E44",
"k  c #2D3346",
"l  c #3B3E46",
"z  c #333848",
"x  c #353C53",
"c  c #393858",
"v  c #383B66",
"b  c #411B43",
"n  c #47194A",
"m  c #4E1851",
"M  c #452146",
"N  c #44234B",
"B  c #4B274D",
"V  c #482955",
"C  c #522557",
"Z  c #5C1D62",
"A  c #473765",
"S  c #523561",
"D  c #643C62",
"F  c #713779",
"G  c #3E444C",
"H  c #36415A",
"J  c #3B4556",
"K  c #3E476C",
"L  c #424244",
"P  c #4C4C4B",
"I  c #414D5D",
"U  c #474C53",
"Y  c #4C5158",
"T  c #5A5B5B",
"R  c #6C5D55",
"E  c #6C6658",
"W  c #69614C",
"Q  c #46496A",
"!  c #49556A",
"~  c #585E6D",
"^  c #525868",
"/  c #475276",
"(  c #565C7C",
")  c #4C4878",
"_  c #60516F",
"`  c #5E6474",
"'  c #5F6A7C",
"]  c #646C7B",
"[  c #656773",
"{  c #716F73",
"}  c #707071",
"|  c #78777C",
" . c #6A6F76",
".. c #7D3D84",
"X. c #545B86",
"o. c #4E5799",
"O. c #5A688C",
"+. c #5B6797",
"@. c #5C7089",
"#. c #6A7185",
"$. c #757B85",
"%. c #697898",
"&. c #6E7193",
"*. c #4F5AA3",
"=. c #5867A6",
"-. c #5E70A8",
";. c #6C7DAA",
":. c #6676A7",
">. c #6778B8",
",. c #616FAA",
"<. c #86408C",
"1. c #827A87",
"2. c #758396",
"3. c #7D8A9E",
"4. c #798698",
"5. c #7E8185",
"6. c #7485AB",
"7. c #7386B5",
"8. c #7B92B6",
"9. c #7A90B8",
"0. c #6E82B4",
"q. c #7A8DCC",
"w. c #778CC5",
"e. c #7C92C5",
"r. c #7D92CB",
"t. c #7F97D1",
"y. c #6F83C5",
"u. c #86868B",
"i. c #868C99",
"p. c #989897",
"a. c #BAA587",
"s. c #AEA086",
"d. c #858EA8",
"f. c #8994AB",
"g. c #899BAE",
"h. c #979AA6",
"j. c #8B9BB3",
"k. c #8797B3",
"l. c #8995B6",
"z. c #91A2BA",
"x. c #9AA2B2",
"c. c #97A1B5",
"v. c #A6A5A7",
"b. c #A3ABB9",
"n. c #B2B6B8",
"m. c #C4B290",
"M. c #DAC49D",
"N. c #E3CFA3",
"B. c #8299CC",
"V. c #8A9ECA",
"C. c #849AC5",
"Z. c #839CD3",
"A. c #88A3C6",
"S. c #95A8C9",
"D. c #8BA5D5",
"F. c #8EAADB",
"G. c #89A3D7",
"H. c #92ADDD",
"J. c #95A9D4",
"K. c #95B1DE",
"L. c #9AB3DD",
"P. c #9AB2D5",
"I. c #A1B2CD",
"U. c #B4BBC7",
"Y. c #A2B9DF",
"T. c #AAB8D5",
"R. c #B3BDD5",
"E. c #9BB5E1",
"W. c #97B3E0",
"Q. c #91ADE1",
"!. c #A4BBE2",
"~. c #A9BFE3",
"^. c #ACC2DD",
"/. c #B8C5DA",
"(. c #B9C0CD",
"). c #ADC3E4",
"_. c #ABC3E8",
"`. c #B3C5E3",
"'. c #B6C9E4",
"]. c #BCCBE4",
"[. c #B5CAE9",
"{. c #BBCDEA",
"}. c #B2C7E8",
"|. c #CDCCCD",
" X c #C7C6C6",
".X c #C4CAD5",
"XX c #C3CCDA",
"oX c #CDCED0",
"OX c #C6D0DE",
"+X c #CDD4DD",
"@X c #D3D3D3",
"#X c #D9DADC",
"$X c #C3CEE4",
"%X c #C1CFE8",
"&X c #C5D2E5",
"*X c #CCD4E4",
"=X c #C3D2EA",
"-X c #CBD6EA",
";X c #CDD9EA",
":X c #D1D7E4",
">X c #D1DAE6",
",X c #DBDEE4",
"<X c #D3DBEA",
"1X c #D9DEEA",
"2X c #DDE3EC",
"3X c #D5E0EC",
"4X c #DFE6F3",
"5X c #E2E6ED",
"6X c #E6E9EE",
"7X c #EDEDEF",
"8X c #E3E2E5",
"9X c #F0EFEE",
"0X c #EFF0EF",
"qX c #E2E7F0",
"wX c #E5E9F1",
"eX c #ECEDF1",
"rX c #F0EFF1",
"tX c #EEF0F1",
"yX c #F1F1F2",
"uX c #F8FAFC",
"iX c #F2F0EE",
/* pixels */
"                                                                                                                                ",
"                                                                                                                                ",
"                                                                                                                                ",
"                                                                                                                                ",
"                                                                                                                                ",
"                                                        X O O . O O O <                                                         ",
"                                                      e 6 6 6 9 = 9 9 4                                                         ",
"                                                  > o $.z.z.z.z.z.z.8.6.i #                                                     ",
"                                                  < @ 3.[.`.`.[.}.}.W.A.r $                                                     ",
"                                              4 V $.u.(.3X<X1X<X=X{.Y.P.O.( A b                                                 ",
"                                              X 0 (.3X6X9X9XyX6X<X;X].~.B.r.c # C                                               ",
"                                              Y ~ XX2X6X9X9X9X6X>X;X'.).G.r.J # C                                               ",
"                                        b X U Y.].wXtXtXyX9X7X7X>X<X'.~.K.H.I o C                                               ",
"                                        h X U /./.eX9X9X7X7X9X6X<X<X].`.K.H.^ e C                                               ",
"                                        h o U *X<XeX9X7X7X9XrXeXeXwX<X=XL.H.e.>.X.> 3                                           ",
"                                        b # Y :X<XwXyX9X9XrXeXrX9XeX<X-XY.H.Z.B.' @ 2                                           ",
"                                      & [ f.b.5X6X7X9X9XeX7X1X8XeXeX1X-X)._.K.F.O.+ 5                                           ",
"                                    X X @.[.&XeX9XrXeXrXeX5X>X<XeXeX<X-X/.).L.K.@.@ <                                           ",
"                                  M ` [ x.;X1XeXrX9X7X9XrX5X;X<X2X2X>X<X%X{.L.K.6./ Q B                                         ",
"                                > = j.[.<XyXyX0XrXrXrX7XrX5X:X>X>X<X;X;X<X;X).Q.G.r.;.: ,                                       ",
"                                > % g.'.;X6X6X6XwX7X6XeXrX6X1X<X;X;X<X>X>X;X).L.F.t.6.7 <                                       ",
"                                > % j.'.{.<X<X1X<X<X>X6X9XeX7X7X>X<X>X;X>X;X].).E.K.8.6 ,                                       ",
"                                > 9 j.[././..X.XXX$X-X2X0X9X9X7X<X<X;X;X>X;X].).E.Q.8.7 ,                                       ",
"                                ; % j.[.$.s z s x l.V.*XyX9X9X0XwXqXXX'.;X;X].)._.Q.8.= <                                       ",
"                                , 9 j.[.' & X X 7 ;.r.$XyX9X0X9XyXwX].`.-X<X].).!.H.8.7 >                                       ",
"                                    ^ ^ #.2.` $ = J K d.T.XXeX9XrXeX].`.[.].^.E.H.Z.6.= >                                       ",
"                                    . . #.{.g.% # O o O.q.T.eX0XrXwX].}.).).E.H.G.e.;.: 3                                       ",
"                                    . X $.;Xh.= # # $ O.r.T.yX9XrXeX].).!.E.D.Z.:.H A                                           ",
"                                    X X $.1Xx.% + + % O.r.T.7X9X0XeX].).K.Q.A.t.X.o 5                                           ",
"                                    X @ 5.wXv.* + + % %.J./.9X9X7X6X].).D.D.%.X.) N m                                           ",
"                                    O O u.uXn.% @ O % 3.}.-XrXeXyXeX].~.t.w.x & C                                               ",
"                                    > : 1.|.p.L s = O i.{.<XeX7XwX2X&X'.J.S.( z D                                               ",
"                                        B 9 T 8X@Xa # v.tX7XrXqX].'.4XeX6X7X+XOXu.# 3                                           ",
"                                        h X P #X|.L 0 v.yXeXeX5X]./.wXeX6XeX2X1Xi.q i                                           ",
"                                    , , : + 6 s P n.oX8XyX6X>X2XwX4X&X].<X<XqXeX+XU.h.i 3                                       ",
"                                    @ + o % $ X 0 @XyXrX9X5X>X>XtXeX/.`.*X>X6XrX5X<XU.6 >                                       ",
"                                n n #.4.4.4.` $ w @X0X0X9X7X5X6X8X+X .` +X6X7XeX6X6X+Xi.4.S 4                                   ",
"                                ; # c.{.[.{.f.@ 0 @XyXyXtXtX9XwX1X.Xa 0 @XuXyX7X7XyX6X[.T.l # M                                 ",
"                              D R W $.%.x.;XU.} } p.v. X3X5XyX,Xh.u.E E p.h.@X9X7XyX6X&X/.l # n                                 ",
"                            5 f M.N.g o u.tX7X9X#Xd O 6.'.-XyX X9 9 m.M.d % v.yX7X7X7X>XXXG o M                                 ",
"                            3 f m.m.f o u.0XeX9X#XY p 2.z.(.yX|.L g s.a.d @ v.tX6XtX6X>XOXL o M                                 ",
"                                w * % X | 3X2XeXwXR.T.^ 9 | tX6XXXU.f * + $ h.3X8XtX0X>XXXl # M                                 ",
"                                5 > # O $.<X1XeXwX]._.Y . } yXeX1XXXz = $ $ h.;X2XtXwX<X&XG # M                                 ",
"                                    : O #.].%X1X;X~.L.I . } yX6X<X&Xk.%.e + d.{.&X1X<X].R.l # M                                 ",
"                                    o # #.[.].>X-XL.H.Q . } yX6X>X-XY.A.y + i.}.].<X*X^.T.G # M                                 ",
"                                      b ~ ] 4.%X{.W.H.J . } yXeX;X-XY.S.t @ U ' f.=X[.!.P.z # M                                 ",
"                                        h . U ~.).K.H.I . } yXeX>X;X[.I.t O O X ~ )._.K.D.z o M                                 ",
"                                        h . A Y.!.F.D.I . [ 2X3X>X;X].I.t + # O ~ ~.!.F.V.k o M                                 ",
"                                        h @ J J.H.r.r.H & ` ).'.;X;X].I.t @ @ O ! L.F.B.w.j # N                                 ",
"                                        b $ J Z.Z.q.y.J X ^ ~._.=X=X`.S.y O # X ! D.B.+.O.S n                                   ",
"                                        b o z q.q.>.>.z X ! K.E.`.).L.C.t O O @ Q e.;.7 < ..                                    ",
"                                        b # z w.q.-.+.A > ^ l.A.~.~.K.C.u @ @ @ K r.:.= 5                                       ",
"                                        h # k >.,.j e B   C e J D.K.B.7.u & # & H >.=.= 1                                       ",
"                                        h # k >.-.e #       # p D.F.t.0.u & - - H :.+.< 4                                       ",
"                                        n # j *.o.8 -       % p e.t.y.:.8 - j X.v k c F                                         ",
"                                        h # u *.o.8 #       # p w.r.>.-.8 - ) =.v # 1                                           ",
"                                          b V v v B n       # y >.0.X.v V n v v A n                                             ",
"                                              O 1           # r ,.,.u 3     4 # C                                               ",
"                                              b n           b V X.X.V m     m n Z                                               ",
"                                                                8 2 <.                                                          ",
"                                                                > 3                                                             ",
"                                                                                                                                ",
"                                                                                                                                ",
"                                                                                                                                "
};
