/* XPM */
static char *result[] = {
/* columns rows colors chars-per-pixel */
"64 64 219 2 ",
"   c #13110F",
".  c #0D0E11",
"X  c #151415",
"o  c #191416",
"O  c #151915",
"+  c #151519",
"@  c #1A141B",
"#  c #15191A",
"$  c #19191A",
"%  c #1B1917",
"&  c #0E0F0E",
"*  c #20121E",
"=  c #271F1B",
"-  c #1B1421",
";  c #1C1A22",
":  c #1A1C27",
">  c #241325",
",  c #2B142B",
"<  c #2B192E",
"1  c #271A28",
"2  c #2C1A33",
"3  c #331433",
"4  c #39173C",
"5  c #230F22",
"6  c #1E2227",
"7  c #1E2435",
"8  c #242426",
"9  c #23242A",
"0  c #27292B",
"q  c #282C31",
"w  c #252B3B",
"e  c #262737",
"r  c #2D323A",
"t  c #31353C",
"y  c #37393B",
"u  c #332B33",
"i  c #411D3F",
"p  c #453D34",
"a  c #3D1E42",
"s  c #37284A",
"d  c #2E3647",
"f  c #333C4C",
"g  c #343745",
"h  c #363951",
"j  c #282E40",
"k  c #373A63",
"l  c #431B43",
"z  c #451E49",
"x  c #491D4B",
"c  c #471748",
"v  c #491F50",
"b  c #432145",
"n  c #47204A",
"m  c #4A224B",
"M  c #492247",
"N  c #492754",
"B  c #522C5B",
"V  c #433858",
"C  c #4B3954",
"Z  c #593D6C",
"A  c #652C68",
"S  c #682C6B",
"D  c #65396E",
"F  c #683773",
"G  c #723476",
"H  c #3D434B",
"J  c #394347",
"K  c #3B425A",
"L  c #3C4454",
"P  c #3E4568",
"I  c #42454C",
"U  c #4B4B4D",
"Y  c #47464A",
"T  c #454A54",
"R  c #43485A",
"E  c #595A5A",
"W  c #54545C",
"Q  c #524D52",
"!  c #695C49",
"~  c #424C62",
"^  c #484566",
"/  c #4B5261",
"(  c #475368",
")  c #575C65",
"_  c #434979",
"`  c #485676",
"'  c #554F74",
"]  c #665A7B",
"[  c #5B626B",
"{  c #5F6B7B",
"}  c #536278",
"|  c #66666C",
" . c #6B6A6B",
".. c #797368",
"X. c #646978",
"o. c #6C737C",
"O. c #717072",
"+. c #76787A",
"@. c #706E71",
"#. c #806B5F",
"$. c #887C67",
"%. c #937673",
"&. c #8E8166",
"*. c #998C75",
"=. c #A8997C",
"-. c #B3A07F",
";. c #4E5A87",
":. c #595983",
">. c #4C569B",
",. c #5A668D",
"<. c #596687",
"1. c #5B6898",
"2. c #697487",
"3. c #627498",
"4. c #737C94",
"5. c #737292",
"6. c #525BA5",
"7. c #4E58A4",
"8. c #5762A7",
"9. c #5E70A4",
"0. c #6979A7",
"q. c #6677BB",
"w. c #707BAB",
"e. c #814189",
"r. c #7A899B",
"t. c #7C848B",
"y. c #6F82B1",
"u. c #7788BB",
"i. c #7C95BC",
"p. c #7085AE",
"a. c #7A8ECA",
"s. c #778AC3",
"d. c #7D93CC",
"f. c #7D93C8",
"g. c #778BC9",
"h. c #8D8D8D",
"j. c #9D9D9C",
"k. c #949494",
"l. c #888A97",
"z. c #979CA8",
"x. c #8798B9",
"c. c #8893AA",
"v. c #9AA1AB",
"b. c #96A5BB",
"n. c #A8A9AA",
"m. c #A2AAB8",
"M. c #B8B8B9",
"N. c #CCB795",
"B. c #F7DCAC",
"V. c #859ACA",
"C. c #8196D1",
"Z. c #849CD2",
"A. c #889DD2",
"S. c #8DA4CB",
"D. c #9DADC8",
"F. c #8BA4D4",
"G. c #8DABDC",
"H. c #8CA7D7",
"J. c #92AAD6",
"K. c #92ADDC",
"L. c #95AADA",
"P. c #95B1DE",
"I. c #9CB4DD",
"U. c #9EB9DF",
"Y. c #A2AEC6",
"T. c #A6B5CC",
"R. c #B4BAC7",
"E. c #ACBAD5",
"W. c #ACBFDC",
"Q. c #A6B8D6",
"!. c #B0BED8",
"~. c #93ADE0",
"^. c #94B1E1",
"/. c #9CB6E2",
"(. c #9EB9E1",
"). c #A3BBE1",
"_. c #A7BBE1",
"`. c #BEC4CD",
"'. c #ACC0DB",
"]. c #B7C5DC",
"[. c #ADC3E4",
"{. c #B3C5E4",
"}. c #B6C8E4",
"|. c #BBCBE4",
" X c #B9CBE8",
".X c #C5CAD5",
"XX c #C3CCDB",
"oX c #D3D3D3",
"OX c #D7D8DF",
"+X c #C6C5C4",
"@X c #C3CEE4",
"#X c #C4D2E6",
"$X c #CAD4E4",
"%X c #CED9E6",
"&X c #C5D4E9",
"*X c #CBD6EA",
"=X c #CEDAEA",
"-X c #D3DAE6",
";X c #D3DBEA",
":X c #D8DEEA",
">X c #D6DAE6",
",X c #DDE2EC",
"<X c #D5E0EF",
"1X c #DDE6F0",
"2X c #E2E5ED",
"3X c #E5E8EE",
"4X c #ECEDEE",
"5X c #E1E2E1",
"6X c #F0EFEE",
"7X c #EFF0EF",
"8X c #F0F0EE",
"9X c #E5EAF1",
"0X c #EDEDF1",
"qX c #E2E7F1",
"wX c #F0EFF1",
"eX c #EEF0F1",
"rX c #F2F1F2",
"tX c #F9FAFA",
"yX c None",
/* pixels */
"yXyXyXyXyXyXyXyXyXyXyXyXyXyXyXyXyXyXyXyXyXyXyXyXyXyXyXyXyXyXyXyXyXyXyXyXyXyXyXyXyXyXyXyXyXyXyXyXyXyXyXyXyXyXyXyXyXyXyXyXyXyXyXyX",
"yXyXyXyXyXyXyXyXyXyXyXyXyXyXyXyXyXyXyXyXyXyXyXyXyXyXyXyXyXyXyXyXyXyXyXyXyXyXyXyXyXyXyXyXyXyXyXyXyXyXyXyXyXyXyXyXyXyXyXyXyXyXyXyX",
"yXyXyXyXyXyXyXyXyXyXyXyXyXyXyXyXyXyXyXyXyXyXyXyXyXyXyXyXyXyXyXyXyXyXyXyXyXyXyXyXyXyXyXyXyXyXyXyXyXyXyXyXyXyXyXyXyXyXyXyXyXyXyXyX",
"yXyXyXyXyXyXyXyXyXyXyXyXyXyXyXyXyXyXyXyXyXyXyXyXyXyXyXyXyXyXyXyXyXyXyXyXyXyXyXyXyXyXyXyXyXyXyXyXyXyXyXyXyXyXyXyXyXyXyXyXyXyXyXyX",
"yXyXyXyXyXyXyXyXyXyXyXyXyXyXyXyXyXyXyXyXyXyXyXyXyXyXyXyXyXyXyXyXyXyXyXyXyXyXyXyXyXyXyXyXyXyXyXyXyXyXyXyXyXyXyXyXyXyXyXyXyXyXyXyX",
"yXyXyXyXyXyXyXyXyXyXyXyXyXyXyXyXyXyXyXyXyXyXyXyXyXyXyXyXn M z n x z m x yXyXyXyXyXyXyXyXyXyXyXyXyXyXyXyXyXyXyXyXyXyXyXyXyXyXyXyX",
"yXyXyXyXyXyXyXyXyXyXyXyXyXyXyXyXyXyXyXyXyXyXyXyXyXyXyX@ o # @ @ @ @ o * yXyXyXyXyXyXyXyXyXyXyXyXyXyXyXyXyXyXyXyXyXyXyXyXyXyXyXyX",
"yXyXyXyXyXyXyXyXyXyXyXyXyXyXyXyXyXyXyXyXyXyXyXyXyXyXyXC H H I H H I J h V yXyXyXyXyXyXyXyXyXyXyXyXyXyXyXyXyXyXyXyXyXyXyXyXyXyXyX",
"yXyXyXyXyXyXyXyXyXyXyXyXyXyXyXyXyXyXyXyXyXyXyXyXyX@ X r.'.W.[.'.W._.J.G./ o m yXyXyXyXyXyXyXyXyXyXyXyXyXyXyXyXyXyXyXyXyXyXyXyXyX",
"yXyXyXyXyXyXyXyXyXyXyXyXyXyXyXyXyXyXyXyXyXyXyXyXyXu 0 c. X}.{.}.{.{.I.P.( : B yXyXyXyXyXyXyXyXyXyXyXyXyXyXyXyXyXyXyXyXyXyXyXyXyX",
"yXyXyXyXyXyXyXyXyXyXyXyXyXyXyXyXyXyXyXyXyXyXyXa < l.R.>X0XqX3X1X*X&X{.[.V.w.:.2 a yXyXyXyXyXyXyXyXyXyXyXyXyXyXyXyXyXyXyXyXyXyXyX",
"yXyXyXyXyXyXyXyXyXyXyXyXyXyXyXyXyXyXyXyXyXyXyX< O l.,X2XrX8X4X4X>X*X X[.H.d.<.O , yXyXyXyXyXyXyXyXyXyXyXyXyXyXyXyXyXyXyXyXyXyXyX",
"yXyXyXyXyXyXyXyXyXyXyXyXyXyXyXyXyXyXyXyXyX& 8 4.r.`.qX0X6X4XrX9X>X*X X{.P.H.,.# < yXyXyXyXyXyXyXyXyXyXyXyXyXyXyXyXyXyXyXyXyXyXyX",
"yXyXyXyXyXyXyXyXyXyXyXyXyXyXyXyXyXyXyXyXyXO 8 D. X:XwX0X6XwX0X4X>X*X{.{./.~.3.+ , yXyXyXyXyXyXyXyXyXyXyXyXyXyXyXyXyXyXyXyXyXyXyX",
"yXyXyXyXyXyXyXyXyXyXyXyXyXyXyXyXyXyXyXyXyXO 9 Y.|.,X6XwX6X0X0X4X2X:X@X|.).~.p.~ ^ B yXyXyXyXyXyXyXyXyXyXyXyXyXyXyXyXyXyXyXyXyXyX",
"yXyXyXyXyXyXyXyXyXyXyXyXyXyXyXyXyXyXyXyXyXX 9 R.;X3X8X4X6XwX4X4X0X0X;X=X_.~.H.d.w.1 , yXyXyXyXyXyXyXyXyXyXyXyXyXyXyXyXyXyXyXyXyX",
"yXyXyXyXyXyXyXyXyXyXyXyXyXyXyXyXyXyXyXyXyXt I `.:X3XrX6XrX4X4X4XwX0X>X=X[.^.G.d.p.6 3 yXyXyXyXyXyXyXyXyXyXyXyXyXyXyXyXyXyXyXyXyX",
"yXyXyXyXyXyXyXyXyXyXyXyXyXyXyXyXyXyXl o J T.!.2X0X6X0X0XwX2X>X:X0X4X>X;X|.[.(.~.i.6 , yXyXyXyXyXyXyXyXyXyXyXyXyXyXyXyXyXyXyXyXyX",
"yXyXyXyXyXyXyXyXyXyXyXyXyXyXyXyXyXyXN ; T '.|.2X6XwX0X6XwX2X;X;X0X0X;X=X|.}.'.^.i.7 2 G yXyXyXyXyXyXyXyXyXyXyXyXyXyXyXyXyXyXyXyX",
"yXyXyXyXyXyXyXyXyXyXyXyXyXyXyXyX3 3 ] b.Y.,XqX4X8X0XwX6X0X2X-X;X:X;X-X%X*X*X[.K.F.0.3.V 3 yXyXyXyXyXyXyXyXyXyXyXyXyXyXyXyXyXyXyX",
"yXyXyXyXyXyXyXyXyXyXyXyXyXyXyXyXo X {  X#X4XrX7X0XwX0X0XwX,X-X%X-X*X-X%X-X;X XG.G.d.s.d @ z yXyXyXyXyXyXyXyXyXyXyXyXyXyXyXyXyXyX",
"yXyXyXyXyXyXyXyXyXyXyXyXyXyXyXyXo # { {.|.,X,X,X2X2X,X4X6X4X2X,X;X=X-X-X%X%X X[.U.F.V.f # b yXyXyXyXyXyXyXyXyXyXyXyXyXyXyXyXyXyX",
"yXyXyXyXyXyXyXyXyXyXyXyXyXyXyXyXo X { {. X;X;X;X:X;X;XqX0XwX6X4X;X-X*X;X=X=X#X[.[.P.H.J @ b yXyXyXyXyXyXyXyXyXyXyXyXyXyXyXyXyXyX",
"yXyXyXyXyXyXyXyXyXyXyXyXyXyXyXyX+ + { {.E.v.v.v.z.T.}.,XrX4X4X4X:X:X&X&X=X;X|.[.[.^.H.f o b yXyXyXyXyXyXyXyXyXyXyXyXyXyXyXyXyXyX",
"yXyXyXyXyXyXyXyXyXyXyXyXyXyXyXyXX + X. Xx.= # # $ <.C.$X8X6X6X6X0X0X|.].&X;X#X{._.^.K.f o z yXyXyXyXyXyXyXyXyXyXyXyXyXyXyXyXyXyX",
"yXyXyXyXyXyXyXyXyXyXyXyXyXyXyXyXa a :.r.4./ T 8 $ ~ 1.Y.$X>XwX6XwX9X|.[.|.#X X_.).H.A.f o b yXyXyXyXyXyXyXyXyXyXyXyXyXyXyXyXyXyX",
"yXyXyXyXyXyXyXyXyXyXyXyXyXyXyXyXyXyXN * L W.T.t # $ @ ,.f.Q.eX8X0X9X|.[.[.{._.K.H.d.C.d # b yXyXyXyXyXyXyXyXyXyXyXyXyXyXyXyXyXyX",
"yXyXyXyXyXyXyXyXyXyXyXyXyXyXyXyXyXyXx @ I W.E.t o $ $ ,.d.E.rX4XwX0X|.{.[.[.(.K.F.w.w.h > yXyXyXyXyXyXyXyXyXyXyXyXyXyXyXyXyXyXyX",
"yXyXyXyXyXyXyXyXyXyXyXyXyXyXyXyXyXyXz + I #X.Xy o # $ ,.d.Q.rX4XwX9X|.[.).^.H.d.y.w e F yXyXyXyXyXyXyXyXyXyXyXyXyXyXyXyXyXyXyXyX",
"yXyXyXyXyXyXyXyXyXyXyXyXyXyXyXyXyXyXz @ Y $X.Xy o $ + ,.d.E.6X4XwX0X|.[./.G.F.f.0.< 3 yXyXyXyXyXyXyXyXyXyXyXyXyXyXyXyXyXyXyXyXyX",
"yXyXyXyXyXyXyXyXyXyXyXyXyXyXyXyXyXyXz o U 5XOXy o # $ r.).@X0XwXwX0X|.{.K.C.0.d V D yXyXyXyXyXyXyXyXyXyXyXyXyXyXyXyXyXyXyXyXyXyX",
"yXyXyXyXyXyXyXyXyXyXyXyXyXyXyXyXyXyXz @ U 4X5Xy X X # r.{.*X0XwX0X9X|.[.F.f.;.+ , yXyXyXyXyXyXyXyXyXyXyXyXyXyXyXyXyXyXyXyXyXyXyX",
"yXyXyXyXyXyXyXyXyXyXyXyXyXyXyXyXyXyXyXz Q +.+.h.h.Y X z.<X,X8X3X=X%X;X;X@X@XY.4.5.m c yXyXyXyXyXyXyXyXyXyXyXyXyXyXyXyXyXyXyXyXyX",
"yXyXyXyXyXyXyXyXyXyXyXyXyXyXyXyXyXyXyXyXyX  8 oXtX .  n.rX8X8X2X{.].qXwXwXrX4X:XR.8 , yXyXyXyXyXyXyXyXyXyXyXyXyXyXyXyXyXyXyXyXyX",
"yXyXyXyXyXyXyXyXyXyXyXyXyXyXyXyXyXyXyXyXM @ 8 k.n.+.E M.rX4X3X2X&X#X<X2X3XqX2X:X.X) W D yXyXyXyXyXyXyXyXyXyXyXyXyXyXyXyXyXyXyXyX",
"yXyXyXyXyXyXyXyXyXyXyXyXyXyXyXyXyXyXx > * o O $ = j.4X4XrX3X-X>X0X9X@X{.@X-X,X4X4X>XXXU 5 x yXyXyXyXyXyXyXyXyXyXyXyXyXyXyXyXyXyX",
"yXyXyXyXyXyXyXyXyXyXyXyXyXyXyXyXyXyXB q q q q $ O j.rX8X4X3X-X<X4X3XE.Y.XX;X,X6X4X;X-XW q B yXyXyXyXyXyXyXyXyXyXyXyXyXyXyXyXyXyX",
"yXyXyXyXyXyXyXyXyXyXyXyXyXyXyXyX> , X.T.D.Y.b.r X j.rX8X7X0X0X9X>X.XT 0 n.0X0XwX4X0X9XE.T.] , x yXyXyXyXyXyXyXyXyXyXyXyXyXyXyXyX",
"yXyXyXyXyXyXyXyXyXyXyXyXyXyXyXyX= % X.{.{.}.E.t $ j.rX0XeXeXwX4X-X.Xy o j.wXwX6X6XrXeX|.{.{ X z yXyXyXyXyXyXyXyXyXyXyXyXyXyXyXyX",
"yXyXyXyXyXyXyXyXyXyXyXyXyXyXc m %.k...T o.>X>XM.n.+.E m.$X;XrXoX) E *.=...W k.6X4XrXeX=X*Xo.X m yXyXyXyXyXyXyXyXyXyXyXyXyXyXyXyX",
"yXyXyXyXyXyXyXyXyXyXyXyXyXyX, % -.B.$.  U 5XrXrX8X| & r.}.*XrX+X$ = N.B.! . | 7X4X8X7X,X>Xo.o m yXyXyXyXyXyXyXyXyXyXyXyXyXyXyXyX",
"yXyXyXyXyXyXyXyXyXyXyXyXyXyXM b #.&.U   U 5X3X6X7Xz.[ 2.2.m.rXoX+.@.$.$.p X | 2X3X4X7X-X;Xo.X z yXyXyXyXyXyXyXyXyXyXyXyXyXyXyXyX",
"yXyXyXyXyXyXyXyXyXyXyXyXyXyXyXyX*   % o Y $X>X4XeX=X{./   @.rX3X;X.Xt X O X [ %X;X4X0X,X;X+.X n yXyXyXyXyXyXyXyXyXyXyXyXyXyXyXyX",
"yXyXyXyXyXyXyXyXyXyXyXyXyXyXyXyX4 i < % I @X$X3X9X|.[./   @.rX4X;XXX/ d 8 X [ $X;X9X9X%X*Xo.X n yXyXyXyXyXyXyXyXyXyXyXyXyXyXyXyX",
"yXyXyXyXyXyXyXyXyXyXyXyXyXyXyXyXyXyXN o J W.|.*X;X[.J.R & O.eX4X-X*XD.F.R X ) [. X%X=X|.}.{ X n yXyXyXyXyXyXyXyXyXyXyXyXyXyXyXyX",
"yXyXyXyXyXyXyXyXyXyXyXyXyXyXyXyXyXyXyX> I T.W.&X=X_.G.~   O.eX4X;X&X/.P.( X W E.E.$X*X}.[.{ X z yXyXyXyXyXyXyXyXyXyXyXyXyXyXyXyX",
"yXyXyXyXyXyXyXyXyXyXyXyXyXyXyXyXyXyXyXyXyXg I Y. XJ.d.K   O.rX4X;X&XI.K.P X 8 y / E.}.U.U.} X n yXyXyXyXyXyXyXyXyXyXyXyXyXyXyXyX",
"yXyXyXyXyXyXyXyXyXyXyXyXyXyXyXyXyXyXyXyXyXX 9 b.[.F.a.L X O.eX3X;X*XI.G.( O O X r Q.[.P.K.} X n yXyXyXyXyXyXyXyXyXyXyXyXyXyXyXyX",
"yXyXyXyXyXyXyXyXyXyXyXyXyXyXyXyXyXyXyXyXyX# 6 x.^.Z.d.K X | ;X%X|.{.A.C.P O # O r S.^.F.d.( o z yXyXyXyXyXyXyXyXyXyXyXyXyXyXyXyX",
"yXyXyXyXyXyXyXyXyXyXyXyXyXyXyXyXyXyXyXyXyX@ 1 x.^.Z.a.K & | =X*X{._.V.a.R @ > > d S.^.d.d.` + m yXyXyXyXyXyXyXyXyXyXyXyXyXyXyXyX",
"yXyXyXyXyXyXyXyXyXyXyXyXyXyXyXyXyXyXyXyXyXA F ' ( 1.q.h X [ |.{.).J.` ~ Z S S S D ( P y.d.0.<.:.N yXyXyXyXyXyXyXyXyXyXyXyXyXyXyX",
"yXyXyXyXyXyXyXyXyXyXyXyXyXyXyXyXyXyXyXyXyXyXyX3 o ;.q.h X [ }.[.P.S.w - yXyXyXyXyX> : 0.d.d.C.1.> x yXyXyXyXyXyXyXyXyXyXyXyXyXyX",
"yXyXyXyXyXyXyXyXyXyXyXyXyXyXyXyXyXyXyXyXyXyXyXv 4 ^ ` j X ( P.J.C.u.w $ yXyXyXyXyXc s ' <.0.g.,.$ m yXyXyXyXyXyXyXyXyXyXyXyXyXyX",
"yXyXyXyXyXyXyXyXyXyXyXyXyXyXyXyXyXyXyXyXyXyXyXyXyX; $ @ X ^ a.g.q.9.w @ yXyXyXyXyXyXyX3 o _ q.;.; x yXyXyXyXyXyXyXyXyXyXyXyXyXyX",
"yXyXyXyXyXyXyXyXyXyXyXyXyXyXyXyXyXyXyXyXyXyXyXyXyX$ $ : 7 _ a.s.9.:.N 4 yXyXyXyXyXyXyX4 + k q.>.: m yXyXyXyXyXyXyXyXyXyXyXyXyXyX",
"yXyXyXyXyXyXyXyXyXyXyXyXyXyXyXyXyXyXyXyXyXyXyXyXyX$ $ P >.8.q.9.e e e.yXyXyXyXyXyXyXyX3 + k 7.;.- m yXyXyXyXyXyXyXyXyXyXyXyXyXyX",
"yXyXyXyXyXyXyXyXyXyXyXyXyXyXyXyXyXyXyXyXyXyXyXyXyX$ $ k 7.6.q.1.< 3 yXyXyXyXyXyXyXyXyX4 > k 7.k 1 l yXyXyXyXyXyXyXyXyXyXyXyXyXyX",
"yXyXyXyXyXyXyXyXyXyXyXyXyXyXyXyXyXyXyXyXyXyXyXyXyX- $ 7 j e e d yXyXyXyXyXyXyXyXyXyXyXyXyXN j N yXyXyXyXyXyXyXyXyXyXyXyXyXyXyXyX",
"yXyXyXyXyXyXyXyXyXyXyXyXyXyXyXyXyXyXyXyXyXyXyXyXyX> @ @ @ - - 3 yXyXyXyXyXyXyXyXyXyXyXyXyXx 5 v yXyXyXyXyXyXyXyXyXyXyXyXyXyXyXyX",
"yXyXyXyXyXyXyXyXyXyXyXyXyXyXyXyXyXyXyXyXyXyXyXyXyXyXA A A A S S yXyXyXyXyXyXyXyXyXyXyXyXyXyXA yXyXyXyXyXyXyXyXyXyXyXyXyXyXyXyXyX",
"yXyXyXyXyXyXyXyXyXyXyXyXyXyXyXyXyXyXyXyXyXyXyXyXyXyXyXyXyXyXyXyXyXyXyXyXyXyXyXyXyXyXyXyXyXyXyXyXyXyXyXyXyXyXyXyXyXyXyXyXyXyXyXyX",
"yXyXyXyXyXyXyXyXyXyXyXyXyXyXyXyXyXyXyXyXyXyXyXyXyXyXyXyXyXyXyXyXyXyXyXyXyXyXyXyXyXyXyXyXyXyXyXyXyXyXyXyXyXyXyXyXyXyXyXyXyXyXyXyX",
"yXyXyXyXyXyXyXyXyXyXyXyXyXyXyXyXyXyXyXyXyXyXyXyXyXyXyXyXyXyXyXyXyXyXyXyXyXyXyXyXyXyXyXyXyXyXyXyXyXyXyXyXyXyXyXyXyXyXyXyXyXyXyXyX",
"yXyXyXyXyXyXyXyXyXyXyXyXyXyXyXyXyXyXyXyXyXyXyXyXyXyXyXyXyXyXyXyXyXyXyXyXyXyXyXyXyXyXyXyXyXyXyXyXyXyXyXyXyXyXyXyXyXyXyXyXyXyXyXyX"
};
