/* XPM */
static char *_f0b073f67dd42cab0dc62a2249cbd8eyfgJHMNziRbDd1AD[] = {
/* columns rows colors chars-per-pixel */
"64 64 254 2 ",
"   c None",
".  c #000000",
"X  c #0B0B0B",
"o  c #030606",
"O  c #181407",
"+  c #151515",
"@  c #1C1C1C",
"#  c #151910",
"$  c #060D0D",
"%  c #251805",
"&  c #291E12",
"*  c #372304",
"=  c #3C2602",
"-  c #3E2A05",
";  c #362509",
":  c #302516",
">  c #1F1E20",
",  c #00003B",
"<  c #000034",
"1  c #13022E",
"2  c #221E26",
"3  c #240A34",
"4  c #242424",
"5  c #2A2A2A",
"6  c #272827",
"7  c #322E35",
"8  c #343434",
"9  c #3C3C3C",
"0  c #30332C",
"q  c #5A0D00",
"w  c #560000",
"e  c #5C1300",
"r  c #4D0000",
"t  c #412B05",
"y  c #412603",
"u  c #4C3205",
"i  c #4D340B",
"p  c #572E01",
"a  c #652800",
"s  c #693900",
"d  c #703D00",
"f  c #541B15",
"g  c #6D4705",
"h  c #784F00",
"j  c #724903",
"k  c #734E12",
"l  c #7A5524",
"z  c #765226",
"x  c #72532C",
"c  c #6F5125",
"v  c #020049",
"b  c #000053",
"n  c #0A0056",
"m  c #150059",
"M  c #180056",
"N  c #18004A",
"B  c #28005D",
"V  c #3A005D",
"C  c #370153",
"Z  c #390F4E",
"A  c #06006B",
"S  c #2D0065",
"D  c #3B0065",
"F  c #3E0068",
"G  c #340065",
"H  c #3C007A",
"J  c #342540",
"K  c #47025B",
"L  c #44006B",
"P  c #4A036D",
"I  c #4B0B6D",
"U  c #470564",
"Y  c #4C136E",
"T  c #491968",
"R  c #4B0372",
"E  c #45047A",
"W  c #490675",
"Q  c #53037B",
"!  c #55097C",
"~  c #540478",
"^  c #4D1671",
"/  c #4E1A72",
"(  c #481C7F",
")  c #531975",
"_  c #500E6E",
"`  c #532474",
"'  c #572876",
"]  c #582C75",
"[  c #623E7D",
"{  c #464546",
"}  c #555555",
"|  c #5A595A",
" . c #504A55",
".. c #6B6B6C",
"X. c #646364",
"o. c #797879",
"O. c #6E585E",
"+. c #917754",
"@. c #99836B",
"#. c #9E8A73",
"$. c #A38D71",
"%. c #00008A",
"&. c #000094",
"*. c #1A0099",
"=. c #1F109D",
"-. c #3B0288",
";. c #25029C",
":. c #2B039B",
">. c #2B0497",
",. c #370495",
"<. c #391691",
"1. c #1800B7",
"2. c #3706A7",
"3. c #2A01B8",
"4. c #3502B5",
"5. c #3815B8",
"6. c #3211A9",
"7. c #3F21B3",
"8. c #420483",
"9. c #490387",
"0. c #5A0284",
"q. c #5D018C",
"w. c #590787",
"e. c #450698",
"r. c #4C0697",
"t. c #570498",
"y. c #53168C",
"u. c #620A8C",
"i. c #65068D",
"p. c #640393",
"a. c #650B93",
"s. c #680C95",
"d. c #660598",
"f. c #681A96",
"g. c #63158F",
"h. c #482386",
"j. c #4B258F",
"k. c #6B2695",
"l. c #66238B",
"z. c #4903A7",
"x. c #5806AA",
"c. c #5C05B7",
"v. c #4B0FAC",
"b. c #6B05A4",
"n. c #7505AA",
"m. c #7718A8",
"M. c #6A01BC",
"N. c #7B04B4",
"B. c #7C0BB3",
"V. c #7C04BB",
"C. c #7704B7",
"Z. c #7F15B1",
"A. c #7E25B1",
"S. c #6B4B83",
"D. c #75578A",
"F. c #7A628D",
"G. c #7D6D8C",
"H. c #714BA8",
"J. c #7A6CB3",
"K. c #3905D1",
"L. c #1006E8",
"P. c #3902EA",
"I. c #3B02F0",
"U. c #2A00E9",
"Y. c #4601C9",
"T. c #5504DB",
"R. c #510AD9",
"E. c #6502CB",
"W. c #6B04C6",
"Q. c #7406C1",
"!. c #6A0DD0",
"~. c #4B04E4",
"^. c #4505EA",
"/. c #4F0DEB",
"(. c #7009EB",
"). c #6A22E7",
"_. c #5827D9",
"`. c #775FE6",
"'. c #8108B9",
"]. c #8117B3",
"[. c #8009AD",
"{. c #852BB5",
"}. c #846C97",
"|. c #897B94",
" X c #9150BB",
".X c #937BA4",
"XX c #8F71B8",
"oX c #8907C8",
"OX c #8A03D7",
"+X c #9507D9",
"@X c #8F10CE",
"#X c #8903E9",
"$X c #9905E7",
"%X c #910DF0",
"&X c #A309ED",
"*X c #A307ED",
"=X c #A70AF3",
"-X c #AA1DEF",
";X c #9526E6",
":X c #A72AED",
">X c #8D20CC",
",X c #AB41E6",
"<X c #A477E6",
"1X c #848484",
"2X c #8C8B8C",
"3X c #86818B",
"4X c #989899",
"5X c #8F8697",
"6X c #9D8BAA",
"7X c #9783A4",
"8X c #9489AB",
"9X c #AB9AB7",
"0X c #A294AC",
"qX c #A7A7A7",
"wX c #B5A7BD",
"eX c #B7B6B6",
"rX c #AEA7AF",
"tX c #C4BAAE",
"yX c #D2CABF",
"uX c #D1C7BA",
"iX c #C9C6BC",
"pX c #BA95D3",
"aX c #B7ACC7",
"sX c #BDB1C6",
"dX c #BCB3CA",
"fX c #B8B2D3",
"gX c #C3B7CB",
"hX c #CBBFD3",
"jX c #C7ACE6",
"kX c #C498E7",
"lX c #C2C2C2",
"zX c #CDCDCD",
"xX c #CCCAC7",
"cX c #D3CADA",
"vX c #D2D2D2",
"bX c #D9D6DC",
"nX c #D2CDCA",
"mX c #D9D0E3",
"MX c #E1DBE5",
"NX c #E6DEEA",
"BX c #E3CCF7",
"VX c #EBEBEB",
"CX c #E7E3E9",
"ZX c #EDE9F1",
"AX c #F4EDF5",
"SX c #F6EEFA",
"DX c #F5F5F5",
"FX c #F4F4F4",
"GX c #FAF6FB",
"HX c #FEFEFE",
"JX c #FDFDFD",
"KX c #F7F7F7",
"LX c #F2F1EF",
"PX c #E2E2DD",
/* pixels */
"                                                                                                                                ",
"                                                                                                                                ",
"                                          6 . . . . . . . . . . . . . . . . . . . . +                                           ",
"                                            . . . . . . . . . . . . . . . . . . . . X                                           ",
"                                            . . . . . . . . . . . . . . . . . . . . +                                           ",
"                                    @ X $ : ; ; = ; ; ; ; ; ; * = ; ; ; ; ; = ; ; ; ; + X +                                     ",
"                                    X . . % t t t - t t t t t t t - t - t - t t t t = . . .                                     ",
"                                    X . . % - - - - - - - - - - - - - - - - - - - t ; . . .                                     ",
"                                    & O O * t - - - - - - - - - - - - t - - - - t - - O O % 4                                   ",
"                            @ . . o = t t y - - - - - - - t - - - - - - - - - - - - - t - t % . . X                             ",
"                            5 @ @ @ - - - - - - - - - t - - = y - - - - - - - - - - - t - t : @ @ 4                             ",
"                            . . . o ; - = - - - - t - - - - = y - - - - t - - - - - - - = t . . . .                             ",
"                      @ 5 . rXbXvXxXc s k p * y = = = = = = = = = = - - - - - - - - t s c p rXbXvXzX6 . @                       ",
"                      . 6 . zXHXJXLXl j x p * y = = = y = y y = = y - - - - - - - - i z l a nXHXHXFX8 . + @                     ",
"                      o 4 . lXJXDXVXj a d p * * * * * * * * * * * = = - - ; - ; - - = p g w xXJXDXVX8 . +                       ",
"                      o 4 . lXJXDXVX#.@.$.O.y u u u u u u u u u u i u u u u u u u t c +.#.+.nXJXDXVX8 . @ @                     ",
"                      o 4 . lXHXFXDXDXFXJXtXa l h h h h h h h h k h g j g g g g z d @.KXDXDXDXDXJXVX8 . + @                     ",
"                      o 4 . lXHXFXDXDXFXHXtXd l l z l l l l l l l l z z x z z z z j @.KXKXDXDXDXKXVX8 . @ @                     ",
"                      o 4 . lXHXFXDXDXFXHXtXw a q q e a a q q q q q e q e e e e a w +.KXDXDXDXFXDXVX5 . + @                     ",
"                      o 4 . lXHXDXDXDXDXKXPXuXnXyXyXyXyXuXxXyXyXyXyXyXyXuXnXyXyXyXyXnXKXDXDXDXKXJXVX@ . + @                     ",
"                      o 4 . iXJXFXFXKXKXDXJXGXJXJXJXJXJXJXJXJXJXHXJXJXHXJXJXJXJXJXJXJXDXFXDXDXKXHXVX. o X @                     ",
"                      X o . } o.X.1XLXKXDXDXFXFXFXFXFXFXFXFXFXFXDXDXFXDXFXFXFXFXFXFXFXDXFXJXrX| o.} . X . @                     ",
"                      X . o . . . { VXKXFXFXFXFXFXFXFXFXFXFXFXFXFXFXFXFXFXFXFXFXFXFXFXFXLXJX4X. . . X . . >                     ",
"                      X . X . o . 9 DXJXJXJXJXJXJXJXJXJXJXJXHXHXJXJXJXJXJXJXJXJXJXJXJXJXJXJXqX. . . . o . @                     ",
"                      X X . ..2X1X2XvXvXvXvXvXvXvXvXvXvXvXzXvXvXvXvXvXzXvXvXvXvXvXvXvXvXzXvXqX1X2X1X@ . X @                     ",
"                      X 5 . lXHXHXLX. . . . . . . . . . . . . . . . . . . . . . . . . . . . lXHXHXLX8 . @ >                     ",
"                      + 5 . lXJXFXVX9 . 6 > 4 > > 2 2 > 4 6 4 2 2 2 > 4 6 6 6 6 6 2 > > 8 . lXJXDXCX8 . 4 6                     ",
"                      . . . lXHXJXVX8 . # . . . . . . o . . . o . . o . . . . . . . . . o . lXHXHXVX. . .                       ",
"              4 4 . ..vXvXvXqX1X1X1XZ D Z u.@X! C B.A., 5XbX5X< A.A.N |.bXvXvXvXvX[ C , 5XbXqX@.1X2XvXvXbXqX. 6 @               ",
"              6 5 . o.JXJXHX4X. . . P W U V.=Xb.L *X:Xb 9XHX9Xb ;X:XS 7XJXGXGXJXAXD.U S 9XJX4X. . 8 DXHXHXeX. 5 +               ",
"              . . . X.JXKXHXqX. 0 2 U 0.N.d.U Y.P.$X+XV l. Xm.n.N.N.V f.,X,X:X,X:X) l.#XkXJXqX. # } FXKXJXrX. . .               ",
"              ..o...2XMXNXCX3X. 7 J L q.B.b.0.E./.*X+X! d.C.'.oX'.'.i.b.+X#X#X+XOXR l.#XpXZX5Xo 1  .bXCXJXeX. ..X.              ",
"        o 4 . vXJXJXNXG D D V T b b K w.n.@X&X$X&X&X$XN.[.m.@X=X*X&X=X@Xf v./.<.K Z V v B U L I G F b .XHXgX< mXJX8 . + @       ",
"        . @ . vXJXKXMXF ) l.f.u.9XrXv.E.@X+X&X*X&X&X$XoXoX@X#X(.).;X#X(.z.K.I.W.n.n.H.wX7XD ^ R F.G.F F.cX6Xb bXKX} . @ +       ",
"        . 4 . zXJXHXZXC q.{.C.x.AXJX/./.-X&X&X&X&X&X&X&X=X=X(.U.L.L.U.U.I.I.U.%X-X=X<XJXbXb ` L rXeX) D m D B MXHX} . @ @       ",
"        . 4 . iXJXwX6XoX>XOXpXcXKXSXA.E.).#X&XOXoXoXoXoXOX(./.U.jXmX!.T.W.E.2.b.B.'.{.aX.X0.) R D.F.I I ` / F 7X9X8 . X @       ",
"        . 4 . vXJX` H -X:X$XBXJXHXLX{.M.L.(.=XoXn.C.N.n.E.U./.U.SXHX].[.].i.K U U w.q.8.q.f.~ G L F P I R P I M v o o . @       ",
"        . > . vXKXS.L y.f.oXpXiX<X`._.~.^./.(.~.T.C.V.~.~.^.R.C. X X/.Y.Q ~ I w.s.i.s.k.k.9.gXFXF.m 7.,.I ^ S cXCX. X . @       ",
"        . @ . vXGXF.^ T w.C.XXrX_.L.P.~.~.P.P.P.^.M.Q.~.~.~.W.[.C.M.^.Y.K 8.E u.s.i.p.p.k.9.cXJX7Xl.7.2.I ` B MXHX. . X @       ",
"        . > . vXHXHXNXU t.]._./.A.].C.C.B.!.I.^.P.P.~.V.d.D d.'.].].V.n.K v.^.x.i.R R p.f.t.6XeXDXSX] F ` U , bXJX. . X @       ",
"        . @ . vXGXMXcXF q.].E.T.E.W.V.B.B.W.R.T.T.).).N.b.Q d.b.M.W.V.n.K v.R.x.t.8.9.x.f.t.}.6XPXCX' L -.F.7XCXDX. . X @       ",
"        . @ . vXKXD , T i.'.N.N.~.I.B.N.B.N.N.[.[.$X$X'.[.'.i.C K.^.'.b.K ! u.z.K.1.3.3.z.s.0.G 4X0X_ h.&.fXHXHXFX> . X +       ",
"        . @ . vXJXgX9XP 0.s.n.V.E.E.V.N.N.N.N.N.V.jXjXq.N.+XN.p.E.E.a.a.a.x.x.4.4.z.z.,.9.w.w.Q zXbX) / A aXJXGXFX@ . X @       ",
"        . @ . vXHXHXZXL L Z d.V.].].V.N.N.N.B.N.B.JXFX1 m.=XoXN.B.Z.K 0.Z.M.1.3.3.d.u.U U T w.p.SXGX' I m dXHXJXFX+ . X @       ",
"        . @ . vXJX6X}.I 0.n.p.0.n.N.0.p.'.N.N.N.N..X.Xn.b.a.n.B.u.w.2.z.c.4.3.x.t.d.u.P ! u.r.,.XX8XW I L D.|.MXJX9 . + @       ",
"        . > . vXGX] M / q.'.q.V m.m.P 0.C.N.N.N.N.S G '.s.V s.B.Q H 4.3.4.3.3.t.i.s.u.P w.s.e.=.&.%.R P I P m bXKX} . @ +       ",
"        . > . vXGXS.B ^ R ) R U NXAXk.t.5.x.d.d.d.` ` W a.Z.c.4.4.4.3.z.p.t.d.d.d.R ~ u.r.>.,.:.h.` R ` n wXAXFXFX} . @ @       ",
"        . @ o vXGX7XD._ P I R R mXNXl.t.6.r.u.i.u.9.E I w.B.x.4.5.5.4.z.p.p.i.q.i.~ Q t.r.;.>.,.E P L ` A sXHXDXFX} . @ +       ",
"        . 4 . zXHXJXNXL L Y q.s.p.w.W I P P I P I 4.2.a.a.a.a.a.3.1.p.p.d.0.U P P i.t.;.:.;.8.I P P P h.%.aXJXFXFX} . @ +       ",
"        . @ . vXJXKXNX_ ^ Y ! w.w.a.I W ! ! 0.! ! z.z.a.a.a.a.i.J.J.k.f.t.9.8.-.8.t.r.:.,.-.E P P L P ' %.sXJXKXFX} . + @       ",
"        . @ . vXJXDXMXb B ` I U g.g.I ~ s.s.s.s.s.u.s.s.s.a.s.i.0XrX9.-.=.;.;.;.;.*.;.;.,.I P I P P I I < rXJXDXLX} . @ +       ",
"        . @ . vXJXDXVXcX9XS / R ~ w.-.-.e.e.e.e.e.e.r.! ! ! y.,.zXCXmXaX&.6.4.,.-.8.8.E W I P P R ^ G }.zXMXJXDXFX| . @ +       ",
"        X 4 . vXHXDXFXHXcXb ` Y Y ^ :.;.>.;.;.:.;.;.>.P I U <.&.ZXJXJXNX&.5.K.9.U P I P I ^ ^ ^ I ' S 6XHXKXFXGXFX} . @ @       ",
"              | o.X.2XFXVXCX6Xb L U E E E E W E E >.:.,.,.4.v.w.ZXJXJ.H.*.,.W I I I P P L G F D G P b |.HXeX} o.X.              ",
"              . . . X.FXFXHXwX) D.[ ` / ` Y P P P >.:.:.4.K.v.0.MXZX&.%.<.8.U P P P _ ) [ D.S.S.S.D.' 6XHXrXo . .               ",
"              6 5 . o.JXHXJXJXGXJXZXL b B D I P R :.;.;.:.;.H P ) ` ` ` R R R R P P Y < 6XGXFXJXGXGXGXGXHXeXo 0 @               ",
"              6 4 . | vXvXvXvXvXvXzX6X7X6XF.F Y L j.j.j.<.-.( ' / ^ P I ` ` ` ` ' Y S..XgXJXPXvXvXvXvXvXvX4X. 5 @               ",
"                      . . . . . . 7 DXJXHXgXb ` L n b b B ) B b b m I F b b b b m , D.GXKXJX4X. o . . . .                       ",
"                      6 @ @ @ 6 . | LXFXJXsXm / ^ aXsXgX6Xm 6XgXsXaXL D.gXsXsXsXsXsXhXFXFXHXqX. 8 @ @ @ 4 6                     ",
"                      o . . . + . { FXJXHXsXm / ' AXHXHXbX< cXHXHXGXF 6XHXHXHXHXHXHXHXHXKXHX4X. 4 . . . . @                     ",
"                                    1X2X1X} 1 3 3 o.1X2X..o ..1X1X1X1  .1X1X1X1X1X1X1X1X2X1X                                    ",
"                                    . . . . $ o o . . . . # . . . . o . . . . . . . . . . .                                     ",
"                                                                                                                                ",
"                                                                                                                                "
};
