/* XPM */
static char *_f2e5582783046cdd6ff73c9086cd79fRSY0KbB0pRKtRERN[] = {
/* columns rows colors chars-per-pixel */
"64 64 230 2 ",
"   c None",
".  c #151516",
"X  c #181817",
"o  c #19171A",
"O  c #1A191A",
"+  c #171718",
"@  c #0F1011",
"#  c #211E1B",
"$  c #22211A",
"%  c #2B291D",
"&  c #27271C",
"*  c #2F301E",
"=  c #1C1C25",
"-  c #241724",
";  c #251925",
":  c #2B192B",
">  c #281828",
",  c #341A34",
"<  c #391B39",
"1  c #2D1730",
"2  c #1F2021",
"3  c #222123",
"4  c #24262A",
"5  c #2B2B2B",
"6  c #2A2626",
"7  c #35292A",
"8  c #3C3624",
"9  c #292A36",
"0  c #342734",
"q  c #3C3C3B",
"w  c #37373A",
"e  c #2B342B",
"r  c #1E231A",
"t  c #443C23",
"y  c #463A35",
"u  c #56393A",
"i  c #4C2B3D",
"p  c #374824",
"a  c #365127",
"s  c #4C4325",
"d  c #564A27",
"f  c #5A522A",
"g  c #4E4E33",
"h  c #655B2D",
"j  c #655035",
"k  c #567231",
"l  c #7C632D",
"z  c #726433",
"x  c #172557",
"c  c #3A3B44",
"v  c #29264B",
"b  c #343A6D",
"n  c #48354C",
"m  c #3B4146",
"M  c #3F4169",
"N  c #46494B",
"B  c #454B5A",
"V  c #4B545D",
"C  c #555555",
"Z  c #57595B",
"A  c #5A4D47",
"S  c #6E584E",
"D  c #755A4B",
"F  c #655A55",
"G  c #614E47",
"H  c #5B654E",
"J  c #76635A",
"K  c #6E6851",
"L  c #4B5564",
"P  c #575A65",
"I  c #485374",
"U  c #67576B",
"Y  c #5A6470",
"T  c #69686A",
"R  c #656D76",
"E  c #777777",
"W  c #7A686D",
"Q  c #8B7735",
"!  c #9B7B35",
"~  c #977634",
"^  c #876D30",
"/  c #886859",
"(  c #8D776B",
")  c #A17C6B",
"_  c #548935",
"`  c #5A8C3B",
"'  c #538539",
"]  c #4F8232",
"[  c #618939",
"{  c #689838",
"}  c #779738",
"|  c #7AA53C",
" . c #79A63D",
".. c #6D9146",
"X. c #99843A",
"o. c #9F903E",
"O. c #A28639",
"+. c #A58A3B",
"@. c #A88D3C",
"#. c #A9933E",
"$. c #B1983F",
"%. c #8AB13F",
"&. c #86AC3E",
"*. c #938D58",
"=. c #A89943",
"-. c #B49C41",
";. c #B69A4E",
":. c #AC9657",
">. c #8CB440",
",. c #ABA145",
"<. c #B5A344",
"1. c #BAA444",
"2. c #BEAA47",
"3. c #BAA64A",
"4. c #BAA952",
"5. c #96887D",
"6. c #94907A",
"7. c #B88C78",
"8. c #A0A978",
"9. c #9CA066",
"0. c #C1AD47",
"q. c #C2AE48",
"w. c #C5B24A",
"e. c #C8B64B",
"r. c #CCBB4D",
"t. c #C4B047",
"y. c #CDB859",
"u. c #D09C7B",
"i. c #D0C04F",
"p. c #D3C450",
"a. c #DACC53",
"s. c #D6C656",
"d. c #DED155",
"f. c #E1D456",
"g. c #D8CC7C",
"h. c #1B3389",
"j. c #3D3D99",
"k. c #3A398A",
"l. c #3F3EA3",
"z. c #394D97",
"x. c #374AA7",
"c. c #2F49A4",
"v. c #495899",
"b. c #485884",
"n. c #6D778B",
"m. c #4444B4",
"M. c #4644B8",
"N. c #5057AD",
"B. c #5666AA",
"V. c #7671AC",
"C. c #6B5C95",
"Z. c #6A6FC4",
"A. c #6E75C2",
"S. c #8773AA",
"D. c #8371AD",
"F. c #817E9D",
"G. c #79858B",
"H. c #6E849E",
"J. c #7A8996",
"K. c #6E888C",
"L. c #7E96B6",
"P. c #798FB6",
"I. c #7E8BC3",
"U. c #888888",
"Y. c #88939C",
"T. c #969799",
"R. c #979288",
"E. c #A89588",
"W. c #8BAA94",
"Q. c #B9AD8D",
"!. c #8E91B0",
"~. c #97A9BB",
"^. c #95AFAD",
"/. c #A4A5A8",
"(. c #BBBBBB",
"). c #B4B7B9",
"_. c #AEADB7",
"`. c #A59BAA",
"'. c #D09D84",
"]. c #D7A486",
"[. c #DCA995",
"{. c #CDAD92",
"}. c #E2AE98",
"|. c #E6B398",
" X c #CDB8AF",
".X c #F4BCA4",
"XX c #F6BEA7",
"oX c #ECB7A4",
"OX c #C8C198",
"+X c #DDC2AE",
"@X c #D4C3B5",
"#X c #E8CAAB",
"$X c #E9CDB3",
"%X c #F2CCB6",
"&X c #EED1B9",
"*X c #F1D4BF",
"=X c #EECCA9",
"-X c #95AAC2",
";X c #98ABC2",
":X c #9EB1C7",
">X c #8FA2C2",
",X c #A6B7C9",
"<X c #B3BDC7",
"1X c #8088C7",
"2X c #BCC4CB",
"3X c #AFC1D3",
"4X c #B3C4D5",
"5X c #BBCBD8",
"6X c #C8C9CB",
"7X c #C2CCD5",
"8X c #C7D3DE",
"9X c #DDDDDE",
"0X c #D6D7DA",
"qX c #F2D5C1",
"wX c #F7D9C5",
"eX c #E9D8CE",
"rX c #C9D7E2",
"tX c #D3DDE5",
"yX c #DBDEE3",
"uX c #DCE3E9",
"iX c #D8E1E7",
"pX c #E4E9EE",
"aX c #E7E8E9",
"sX c #E9EDF1",
"dX c #EEF1F3",
"fX c #F3F4F4",
"gX c #FAFAFA",
"hX c #F7F8F8",
"jX c #F7F1EC",
"kX c #F4E5DA",
/* pixels */
"                                                                                                                                ",
"                                                      : > > >       , ; > ; ; > :                                               ",
"                                                      O + . o ,     - . + @ X . X                                               ",
"                                                    u s s s d j     j f f f f d d u                                             ",
"                                                : + s O.O.-.-.O.~ ! <.2.2.2.2.-.-.h o -                                         ",
"                                                7 O d +.@.#.-.@.! X.2.w.w.w.2.<.1.h # 6                                         ",
"                                            : : l ^ X.2.1.@.@.-.q.e.p.d.a.a.a.r.r.<.=.X.7 :                                     ",
"                                            O r ^ +.=.q.0.@.O.-.i.r.d.f.f.d.d.p.r.e.0.=.% +                                     ",
"                                          , o r Q -.1.e.e.0.2.e.a.s.a.a.p.p.p.r.p.e.q.<.h f j                                   ",
"                                      : o X o r o.w.e.r.p.a.f.f.f.d.i.r.r.q.q.r.p.e.q.0.-.<.f + >                               ",
"                                      0 % * 6 p o.q.e.p.r.d.f.a.f.d.s.i.r.q.q.r.r.e.q.0.;.=.f X -                               ",
"                                  > ; X.<.<.2.2.r.r.r.p.p.a.f.f.f.f.d.f.s.r.r.0.-.3.0.4.S.V.B X >                               ",
"                                  O # =.i.s.f.f.p.p.i.p.p.a.f.f.f.f.f.f.a.r.r.-.-.1.t.4.V.A.b X -                               ",
"                                  O $ =.a.p.w.q.1.-.1.0.q.p.a.p.e.e.e.q.r.a.p.1.-.:.8.R.L.I.L . ;                               ",
"                                  O $ ,.f.r.+.O.! ~ O.-.-.r.i.t.$.-.@.O.0.f.a.1.-.6.L.L.-X-XL . ;                               ",
"                                  O $ <.f.r.+.O.^ ^ ! ;.4.y.s.y.3.;.@.O.0.f.a.-.-.6.L.L.>X>XY % 7                               ",
"                                  O r ,.f.r.@.X.t $ D |..X=X&X=X#X#X;.O.0.f.a.1.$.5.A.A.A.Z.5.+.Q 7 -                           ",
"                                  O r =.f.r.@.! * @ S .X=X%X*X*X&X$X:.O.2.f.a.1.$.U.Z.Z.Z.Z.5.-.X.% o                           ",
"                                  O # =.a.e.#.+.8 . S oX.X%X*X*X*X$X;.O.1.a.p.w.0.:.E ( 6.6.:.-.X.& O                           ",
"                                  O $ =.p.e.-.#.8 . S .X.X%XwX*X*X$X;.O.1.i.i.i.r.=.~ ! 2.w.1.-.X.& +                           ",
"                                  > # *.<.<.1.=.8 . G ].{.{. X X*X$X*.^ o.<.<.r.r.-.! +.-.1.1.-.+.8 6 i                         ",
"                                      7 & h r.w.8 . $ 5 7 7 6 ( qX+Xu & & & 8 ,.e.e.r.w.O.! #.q.1.#.+.d O ,                     ",
"                                      > @ f r.e.t + o + . + . J qX+X8 X . . % =.w.r.r.r.! ~ #.t.2.<.$.f X 6                     ",
"                                      > + 8 h f % + N T.R.b x n.qX$XE.5.T x b OX$Xg.r.e.X.~ #.1.1.w.w.o.l z 0 ,                 ",
"                                      > @ . . @ + . R gXpXv.h.n.qX*XqXwX!.h.z.yXgX=Xp.i.X.~ +.$.1.r.i.e.e.o.& O                 ",
"                                      n c p c w 2 . T jXkXN.h.V.qX&X*XqXT.h.x.0XjXOX,.#.l l ^ X.X.w.r.w.t.=.s p n               ",
"                                  - 6 Y.~.3X:X~.c @ J qX6XB.c.D.qXqXqX*X~.x.N.@X*X*.& & $ r # $ 8 #.<.w.i.r.2.2.h # 1           ",
"                                  O = Y.4X3X4X:Xm . K *XeXB.x.!.qX&XqXqX`.x.B. X*XE . O O r X o * o.-.2.i.i.i.i.h X >           ",
"                              > U /./.7XrX8X5X5XY.K.E F F `._. XqXqXqXqX@X_.`.U F T G.J.Y.T.Y.Y.G.g d Q 2.2.i.i.h . >           ",
"                            : . Z hXgXpXuXiX8X8X4X4Xn.. 4 {.wXwXqXqXqXwXqXwX X7 @ R 3X4XuXuXtXrX).4 . z <.2.i.i.h X >           ",
"                            < - U (. X0XpXuXrXrX5X5XY.m N R.Q.Q. XOXOXOX{.Q.E.C m J.5X5XuXpXuXiX2XZ N z Q X.w.i.h . >           ",
"                                  3 5 2XgXdXuXuXuXuXrX,X~.m # p _ _ ` ` a # 0 ~.3X5XuXuXhXgXhXhXdX8X5XY X 8 <.e.f . >           ",
"                                  : 0 T.(.6XpXpXpXpX2XY.J.g * k { { { { k p a G.Y.<XpXiX@X).(.(.(.rXtXE * s ~ X.j - <           ",
"                                      0 O T fXhXhXhX/.; 4 { >.>.%. .%.%.%.%.| * = U.gX9Xq O # O N 9XfX{.^ l $ #                 ",
"                                      : . U sXjXsXfXT.# & } >.>.%.>.>.>.%.%.| * O U.jX0Xw X X . w 0XjX8.~ l # X                 ",
"                                      > . 5 C Z C C k ] [  .>.>.%.%.%.>.%.%.&.[ k k C Z ( ) j . 2 A H / ~ ^ # X                 ",
"                                      > @ @ @ @ . . p |  .>.>.>.>.>.>.>.%.%.%.&. .k @ & u.'.D - X . . d ! ^ $ #                 ",
"                                      v v c G G 6 . a } {  . . . . . . .&. . .{ { H C K '.[.( v v O X t h j , ,                 ",
"                                  - > k.M.D.oX|.y . p ] _ _ _ _ _ _ _ _ _ _ _ _ ' 8.$XqX%XqXS.M.j.= . X X :                     ",
"                                  O O k.M.V.oX[.y @ p ] ' ' ' ' ` ` ` ` ` ' ' _ k 8.qX%XqXqX`.M.z.= X o . #                     ",
"                                  O O k.m.N.V.C.9 + r & e I v.V.^.^.^.^.J.v.b.e e ( =X=X%XwX!.M.j.= X o X >                     ",
"                                  O O k.m.m.M.m.9 X + . = j.x.A.3X4X4X4X1XM.l.= @ / XXXX*XwX!.M.z.= X O X >                     ",
"                                  O ; C.S.S.D.V.0 X 7 S F V.S.Y.W.W.W.W.K.b.I g j / ) ) 5.5.C.b b B B e X >                     ",
"                                  O $ 7.XX.X.X}.y . S oXoX&XwXQ._ _ _ _ ` _ [ u.'.D o = X X . + 9 !.-XV . -                     ",
"                                  6 e 7.}.}.}.].y . S .X=X&XqXQ.[ ` _ _ ` { ..u.'.D . o . # 6 5 c ~.-XL . >                     ",
"                            , - P ,X).F i y y y # . S .X.X&XqXoX{.{..._ *.{.|.u.u.D . . . . E 6X6X,X,XP . -                     ",
"                            1 @ C yXtXN @ . @ + X . S .X.X%XqX%X.X|..._ 9..XoX].].D . # X X R.gXdX4X3XP . >                     ",
"                            T T T.iX9Xn.L c o + O o y ( ) +XqX%X.X|.k a *.=X}./ / u . . o . U.gXdX5X5XJ.V L                     ",
"                        O 3 /.pXuXiXiX,X;Xn.+ + + O + + & {.qX%X.X[.y . D =X[.7 X O X O X . U.hXdXtX8X3X~.J.4 O                 ",
"                        O ; /.pXiXtXtX~.!.R r + + + 2 e w  XqX$X.X}.g 6 J [.'.w 4 O o X X . U.aXiX8X8X3X;XL.4 o                 ",
"                        O 2 ).hXiX,X;XV 9 4 O O + . Z 2X2X&X*X%X.XoX6X<XU.7 q n.H.m . O X o 5 q Z 9XdXuXtX_.4 o                 ",
"                        = 2 ).gXtX-X~.c + + O + + . T uXaXqX*X=X.XXXyXpXU.X 4 H.L.L X . o o . . p 9XhXsXpX).6 o                 ",
"                        O ; ).gX6XY Y n , , , , = . P 4X5XkXkXkXwXeX7X5Xn.. 6 H.L.L X r , , : . c aXhXsXuX).5 o                 ",
"                        O 3 (.gX_.X X           ; X B ~.:XuXhXhXhXdX,X>XY . 4 H.L.I . ;     , X q yXhXsXpX<X4 +                 ",
"                        O $ /.9X/.; :           > . V ,X,XiXsXsXsXpX<X,XR . = n.H.B = :     , . q yXhX0X6X/.0 -                 ",
"                        # O 5 e n               > . T sXpX3X:X:X:X,XuXdXY.O O 4 4 n         , X q 9XgXU.5 w                     ",
"                        = O X X :               : . W gXfX,X>X~.>X:XsXgXT.o o o O           < X q aXgXE . >                     ",
"                                                    U E U.2XrXtXrX7XU.E W                       n E E U                         ",
"                                                      X 4 6XgXgXgXaXy . 1                         - .                           ",
"                                                      ; 0 _.6X6X6X2Xn -                           , >                           ",
"                                                          0 5 5 5 0                                                             ",
"                                                          > O O X -                                                             ",
"                                                                                                                                ",
"                                                                                                                                "
};
