/* XPM */
static char *_4f550642118496c98a9c424316ed849YlRSWuI6a0K1gRPp[] = {
/* columns rows colors chars-per-pixel */
"64 64 226 2 ",
"   c None",
".  c #151515",
"X  c #191617",
"o  c #161816",
"O  c #191917",
"+  c #161618",
"@  c #19161A",
"#  c #171819",
"$  c #1A1A1A",
"%  c #0F0F11",
"&  c #211D1C",
"*  c #1F201F",
"=  c #26271E",
"-  c #1F1520",
";  c #1E1E20",
":  c #241425",
">  c #2B142C",
",  c #271827",
"<  c #331435",
"1  c #361438",
"2  c #3A123D",
"3  c #301630",
"4  c #2D2A22",
"5  c #2C2C2C",
"6  c #252625",
"7  c #312D2B",
"8  c #342D25",
"9  c #383626",
"0  c #2E3134",
"q  c #323333",
"w  c #393838",
"e  c #292B34",
"r  c #433E29",
"t  c #463D27",
"y  c #463C37",
"u  c #513B38",
"i  c #38402B",
"p  c #45422B",
"a  c #4A462C",
"s  c #5E502E",
"d  c #4B433A",
"f  c #5B5637",
"g  c #574A2C",
"h  c #675C38",
"j  c #576838",
"k  c #69643B",
"l  c #7A6939",
"z  c #6E723D",
"x  c #2C2D44",
"c  c #373943",
"v  c #2E2C4F",
"b  c #2D2156",
"n  c #493348",
"m  c #3D4145",
"M  c #3B4164",
"N  c #434649",
"B  c #4B4C4C",
"V  c #474646",
"C  c #535252",
"Z  c #52504C",
"A  c #6E5C53",
"S  c #6B584F",
"D  c #7A6C41",
"F  c #6A645D",
"G  c #72665D",
"H  c #7C754E",
"J  c #575B63",
"K  c #534E73",
"L  c #5D626A",
"P  c #696A6D",
"I  c #64676A",
"U  c #737374",
"Y  c #797B7C",
"T  c #6B7278",
"R  c #645467",
"E  c #8E753D",
"W  c #92793E",
"Q  c #866A38",
"!  c #847745",
"~  c #947B43",
"^  c #887053",
"/  c #987B6C",
"(  c #8E7D75",
")  c #A27E6B",
"_  c #7A994C",
"`  c #6E8545",
"'  c #8B834A",
"]  c #9C8544",
"[  c #9F8946",
"{  c #978A4C",
"}  c #9A8C52",
"|  c #8B9451",
" . c #A18A46",
".. c #A38D49",
"X. c #A6924C",
"o. c #AC994E",
"O. c #A8944C",
"+. c #AD9C52",
"@. c #A29957",
"#. c #B19E51",
"$. c #B19C4F",
"%. c #85A74D",
"&. c #96B453",
"*. c #90AE51",
"=. c #B5A353",
"-. c #BAAA56",
";. c #BCAD59",
":. c #B7A857",
">. c #BCB45B",
",. c #ABAA58",
"<. c #96877B",
"1. c #998D75",
"2. c #A89772",
"3. c #B5AB64",
"4. c #B4A473",
"5. c #ADA46F",
"6. c #C1AE5C",
"7. c #C3B45B",
"8. c #C7BA5D",
"9. c #C9BC5E",
"0. c #C1B056",
"q. c #CCBE61",
"w. c #C4BA69",
"e. c #CEC15E",
"r. c #CEC161",
"t. c #D1C564",
"y. c #D6CA66",
"u. c #DACE69",
"i. c #D5CA6A",
"p. c #DED36B",
"a. c #D9CA75",
"s. c #DFD370",
"d. c #E0D56C",
"f. c #E2D86C",
"g. c #E2D574",
"h. c #1D3084",
"j. c #384B9F",
"k. c #75778E",
"l. c #514FAB",
"z. c #7978A8",
"x. c #6A6EB9",
"c. c #7477B8",
"v. c #6C70B1",
"b. c #57619B",
"n. c #817EA3",
"m. c #7A828A",
"M. c #7E86BE",
"N. c #9D9482",
"B. c #8B8D93",
"V. c #8B929A",
"C. c #9B9C9B",
"Z. c #969696",
"A. c #8C8889",
"S. c #A69B88",
"D. c #B89988",
"F. c #ADA983",
"G. c #B8A799",
"H. c #8484A9",
"J. c #8D97A2",
"K. c #939BA4",
"L. c #8289B7",
"P. c #8D99BD",
"I. c #909EBE",
"U. c #9EA4AA",
"Y. c #97A6BA",
"T. c #A5ADB8",
"R. c #ACB1B6",
"E. c #B9B9BA",
"W. c #B3AEAD",
"Q. c #DDB79A",
"!. c #D0A98E",
"~. c #D3BFAE",
"^. c #DBBBA6",
"/. c #CAB7AE",
"(. c #E9BDA7",
"). c #BFC0BF",
"_. c #E5C88C",
"`. c #D3C0AF",
"'. c #D5C2B5",
"]. c #C6C6BB",
"[. c #EAC2AC",
"{. c #EBCAB6",
"}. c #ECD3BE",
"|. c #E7D1BB",
" X c #EFCBAF",
".X c #D6C59E",
"XX c #97A7C1",
"oX c #A7B5C5",
"OX c #B1BBC8",
"+X c #AAB7C9",
"@X c #8791C0",
"#X c #B7C2CB",
"$X c #B5C3D2",
"%X c #BDC8D4",
"&X c #C2C3C3",
"*X c #C4C9CE",
"=X c #C6CED5",
"-X c #C6D2DB",
";X c #CAD4DD",
":X c #CBD4DB",
">X c #DCDDDD",
",X c #D4D7DB",
"<X c #D9CBC6",
"1X c #EDD6C2",
"2X c #EFD9C3",
"3X c #EAD6C5",
"4X c #F1D9C4",
"5X c #F3DEC9",
"6X c #EFDFD0",
"7X c #EBE9D2",
"8X c #CDD9E2",
"9X c #D4DCE3",
"0X c #D9DFE4",
"qX c #DDE4E9",
"wX c #DCE2E6",
"eX c #E1E6ED",
"rX c #E3E9EE",
"tX c #EAEAEC",
"yX c #F6F1ED",
"uX c #EBEEF1",
"iX c #E5EBF1",
"pX c #EEF2F3",
"aX c #F4F4F5",
"sX c #FBFBFB",
"dX c #F7F7F9",
"fX c #EFF1EF",
/* pixels */
"                                                                                                                                ",
"                                                                                                                                ",
"                                                                                                                                ",
"                                                                          1 1 1 1 1 1 2                                         ",
"                                                                          @ X X @ @ . :                                         ",
"                                                                          8 8 9 8 9 8 r                                         ",
"                                                            @ X O O O . 8 ] ] ..X.X.X.} = @                                     ",
"                                                            $ $ $ O $ O 9 ] [ o.#.#.#.X.= @                                     ",
"                                                        3 u h k ! ! ! ' { =.=.0.8.7.8.,.4 X : > 2                               ",
"                                                      X . t W W o.#.:.7.0.0.;.9.r.r.q.3.4 . . . >                               ",
"                                                      t t h ..X.:.-.6.8.7.7.7.t.y.t.q.7.s t a a u                               ",
"                                                  @ X Q  .o.;.0.9.q.q.q.t.9.t.u.d.y.q.9... .O.$.! $ +                           ",
"                                                  x x ! X.o.7.7.q.t.9.8.8.q.e.u.d.y.9.8.O. .$.:.} r 9                           ",
"                                              X x v.v.2.o.:.e.e.q.9.-.#.=.q.e.u.d.t.0.0.#.$.6.q.8.o.O.9 .                       ",
"                                            X X x v.v.1.+.:.r.r.t.r.-.o.=.q.9.p.d.t.6.7.#.o.6.q.7.#.+.9 +                       ",
"                                            X X c P.P.n.z.N.7.7.0.7.#...#.q.t.y.p.a.Q.!.~ E ~  .X.q.0.p +                       ",
"                                            O @ c Y.XXM.x.B.;.;.0.;.o.[ X.e.e.p.g._.(.Q.~ Q Q E ] q.9.p +                       ",
"                                            O . w L.@XM.M.J.F.F.2.S.@.#.:.t.t.@.' 4.(.^.s a l E  .q.8.p .                       ",
"                                            @ . x x.x.P.XXXXXXXXx.x.C.e.t.p.a.d . G 4X~.7 X s W [ q.8.p +                       ",
"                                            O O x z.z.P.XXXXXXP.M.z.F.r.t.r.w.p % G 1X~.7 X s W [ q.8.p .                       ",
"                                            O + p 5.5.H.c.c.c.z.4.3.a.f.:.9 4 $ + G 2X~.7 + s W [ q.9.p .                       ",
"                                            @ + 9 :.>.n.x.x.x.c.>.i.u.g.=.O . . . G 2X~.7 o s W [ q.9.p +                       ",
"                                          @ h z ' 8.w.4.C.S.1.F.t.y.w.-.5.Z.B.M b T 4X~.7 . z :.X.k f                           ",
"                                        : @ l 7.7.r.r.r.r.9.0.7.p.p.-.] 2.eX0Xb.h.z.1X~.7 . ! t.@.$ .                           ",
"                                        y r ' 7.8.t.t.q.e.7.:.-.u.p.-.] 5.tXeXb.h.z.4X~.7 X D @.^ 3 >                           ",
"                                    - 7 @.;.w.q.t.p.d.t.e.-.[ O.u.p.-.] 4.yXfXv.j.H.4X~.7 . $ $ 7                               ",
"                                    $ 4 +.0.8.r.t.p.u.t.e.=.{ ..r.u.:.[ 4.aXfXz.j.L.1X`.7 @ # O >                               ",
"                              > . f { [ +.#.9.p.y.8.0.h p 9 8 9 a a } t.a.{.|./.E.'.2X`.7 O                                     ",
"                              > . f 7.0.#.o.q.d.y.0.:.9 % . o . . . | g.g.(.(.{.1X4X4X'.7 @                                     ",
"                              Z f l $.=.0.7.q.t.3.! H F C L P P P P U ^ 2._._. X}./.<.( n <                                     ",
"                          @ & } 8.=.] X.u.d.q.0.{ $ $ J.$X%XqXqXqXqXT % p u.g. X4X<.. :                                         ",
"                          # & { 6.#.X.o.y.p.7.+.' 0 q K.%X8XqXqXqXeX_ 5 Z u.s..X~.<.X :                                         ",
"                          . $ !  .-.y.y.t.r.k = V Y.T.-X9XrXdXaXaXaX>X*X].p.i.Z e 5                                             ",
"                          X & l  .-.d.p.r.r.h % N +X$X9XqXiXdXdXsXsXiXqX7Xp.p.a + -                                             ",
"                          O $ !  .#.y.w.D j 9 . V =X8XrXaXE.U U U U E.aX7Xi.t._ j j < 2                                         ",
"                          @ & D ..#.t.3.6 + o % N 0XeXdXsXC.% . % % C.sX7Xr.r.,.&.z . -                                         ",
"                          $ & h Q [ r.;.4 o 0 m J R.R.E.&XA.u y d V A.].E.>.>.&.&.` 9 w                                         ",
"                              3 O k r.;.= . Y $XV.6 6 $ & A (.(.|.|.G * i _ %.&.&.*.&.| = +                                     ",
"                              > . k w.3.8 * m.$XJ.* . @ X S (. X}.4XG O 9 _ _ &.&.&.&.%.= $                                     ",
"                              > o = p V U.R.+X$XJ.$ + O @ A (.(.}.4XD./ H i i _ %.%.%._ = O                                     ",
"                              > o . % e =XeX-XOXJ.* O # . A (.(.}.2XQ.!.) : @ ` _ %.%._ 6 +                                     ",
"                              : O w k._ =X9XY.k.L $ O # + d / <.{.1X^.Q.D.b b Z j j j j 4 @                                     ",
"                          . X . . U dXdX8X8XI . + O O # @ . . 7 ~.4X2X2X/.l.j.x o o o :                                         ",
"                          q q q 5 A.dXpX;X;XL . + O # O # 6 4 y /.~.~.<XE.l.l.n 7 = o :                                         ",
"            : : : : : : C ,X>X>X>XtXaXpX%X$XJ . X X X X @ S !.G.y 5 j.l.n.'.<X~.`.( . :                                         ",
"            . X . . . . Z yXsXdXaXdXsXpX%X$XJ . X X X X . A [.!.4 % b l.x.3X1X1X2X<.+ :                                         ",
"        . y C.C.C.C.C.C.W.aXdXdXaXpXqX:XP J q @ & X X S ^ N.{.[.N.A.R v K }.}.{.{.( O $ & @                                     ",
"      1 + V aXsXsXsXsXsXsXdXdXsXsXiX8X#X5 % . . % X X ) !.Q.1X1X4X5XG % n }.4X X X/ X o . .                                     ",
"        > n E.&XuXaXaXfXuXuXuX*X&XE.U.K.C m B m B C C S.!.`.4X}./.G.C . w G.G.D.D.G . * n C B                                   ",
"            6 w =XqXwXeX0X8X-XZ $ * ; 0 OX-X%X%X8XpXfX2X}.1X}.`.8 & O # . = $ * & $ o 0 ,XaXU @ - - - - - - - <                 ",
"            . 0 &X9X9X9X8X=X*XN . O . 5 #X;X;X8XwXdXdX6X1X|.|./.4 . # + O . $ * & & ; c wXsXY # & = 6 $ * $ . <                 ",
"                N B B N N N N 6 . X @ 0 %XwX$XoX#XaXdXyXaXG.V d $ O O # O O : Z.&X)./.&XeXrXT.k.V.OX).&X).C . >                 ",
"                . . . . . . . + $ # o 5 =XrX$XY.OXdXdXsXsXU.. . O $ @ # # + = &XsXsXsXsXqXqX$XXXOXdXsXsXsXP . >                 ",
"                < < < < < < < < < < < n A.B.T.$XR.U.C.C.C.I + O $ O + O O # $ Y C.&XuXiX-X=X%X=X;XdXaXW.C.R <                   ",
"                                        - o B.rXR.* o . X X O O # # O O @ O X . . P qX9XXXXX8XsXsXsXfXZ .                       ",
"                                        - . B.rXR.; o # X O o O O O @ O O O O @ . P qX9XoXXX*X0X>X>X,XB X                       ",
"                                        : # B.rXR.; @                         > . P qX9XoXXXL 0 q q q                           ",
"                                        , . B.9XU.; O                         > . I 9X-XY.Y.C . . . .                           ",
"                                            c n w O O                         > . 6 d m 0 w                                     ",
"                                            X @ @ O @                         > @ + . O + +                                     ",
"                                              1 1 1 1                           1 1 < 1 1 1                                     ",
"                                                                                                                                ",
"                                                                                                                                ",
"                                                                                                                                "
};
