/* XPM */
static char *_def652f366e4ce7a99013fbd9a35187afBTyZCW3WPH5ZmF[] = {
/* columns rows colors chars-per-pixel */
"64 64 229 2 ",
"   c None",
".  c #151616",
"X  c #171817",
"o  c #161718",
"O  c #1B171B",
"+  c #171818",
"@  c #1A1A1A",
"#  c #181817",
"$  c #0E0F0F",
"%  c #20171F",
"&  c #201F1D",
"*  c #25231A",
"=  c #2D291A",
"-  c #26271A",
";  c #3A381C",
":  c #2E321A",
">  c #1D1B26",
",  c #1F1E32",
"<  c #231722",
"1  c #2D162C",
"2  c #291B28",
"3  c #351533",
"4  c #3B1539",
"5  c #3B1638",
"6  c #291A33",
"7  c #222223",
"8  c #2B2524",
"9  c #2B2B2C",
"0  c #292829",
"q  c #342C27",
"w  c #39322E",
"e  c #292A33",
"r  c #383535",
"t  c #352D34",
"y  c #433D1D",
"u  c #423528",
"i  c #413936",
"p  c #5A3831",
"a  c #30511C",
"s  c #37681F",
"d  c #364D2C",
"f  c #4F471E",
"g  c #4B721E",
"h  c #524D21",
"j  c #57452A",
"k  c #544A32",
"l  c #675822",
"z  c #664B2B",
"x  c #756523",
"c  c #796C24",
"v  c #766B27",
"b  c #54642E",
"n  c #18255A",
"m  c #2C304B",
"M  c #4A314C",
"N  c #3F4D68",
"B  c #3C454D",
"V  c #464749",
"C  c #56514F",
"Z  c #75594E",
"A  c #796459",
"S  c #62714F",
"D  c #4C5765",
"F  c #4B4F66",
"G  c #5B656D",
"H  c #4D6977",
"J  c #796C63",
"K  c #6B7377",
"L  c #787779",
"P  c #6E6A6F",
"I  c #846921",
"U  c #887425",
"Y  c #997924",
"T  c #9A6837",
"R  c #A17D23",
"E  c #A8673B",
"W  c #9A731F",
"Q  c #877265",
"!  c #9A7364",
"~  c #3F8C23",
"^  c #3F8531",
"/  c #77AA1F",
"(  c #418D24",
")  c #4B8F2A",
"_  c #469024",
"`  c #4A9422",
"'  c #559334",
"]  c #488D34",
"[  c #639333",
"{  c #67A722",
"}  c #74AF21",
"|  c #76A920",
" . c #7CB420",
".. c #6D991E",
"X. c #639344",
"o. c #7AA254",
"O. c #9C8928",
"+. c #9F922B",
"@. c #A48325",
"#. c #AB8A26",
"$. c #A58A28",
"%. c #A9962A",
"&. c #B29428",
"*. c #B69A2A",
"=. c #BA9E2A",
"-. c #B19134",
";. c #80B720",
":. c #81B820",
">. c #BCA22B",
",. c #B8A72D",
"<. c #AEA02C",
"1. c #C4AD2D",
"2. c #C0A72C",
"3. c #C7B02E",
"4. c #C9B42F",
"5. c #CDBA30",
"6. c #C9B630",
"7. c #D1BE31",
"8. c #C0A932",
"9. c #D3C332",
"0. c #DBCB33",
"q. c #D8C733",
"w. c #DFD034",
"e. c #E2D435",
"r. c #A8954D",
"t. c #B7A446",
"y. c #968E75",
"u. c #B18372",
"i. c #A78978",
"p. c #A9B47A",
"a. c #8EA964",
"s. c #C7A844",
"d. c #C18F7C",
"f. c #C1A17B",
"g. c #D8C653",
"h. c #19328F",
"j. c #383996",
"k. c #433DA9",
"l. c #483EB9",
"z. c #344EAC",
"x. c #2A4197",
"c. c #474891",
"v. c #6C7A85",
"b. c #727A85",
"n. c #4942BA",
"m. c #4E50AC",
"M. c #7376AD",
"N. c #5666AF",
"B. c #6B6EC9",
"V. c #6E73C8",
"C. c #837888",
"Z. c #79848B",
"A. c #73898C",
"S. c #7AA985",
"D. c #7892B2",
"F. c #888686",
"G. c #969699",
"H. c #8C9492",
"J. c #B49B8B",
"K. c #A7918B",
"L. c #BCA291",
"P. c #B2AE92",
"I. c #999BA4",
"U. c #859AB5",
"Y. c #898AAB",
"T. c #A796B9",
"R. c #A393AE",
"E. c #92A5B6",
"W. c #97B1B5",
"Q. c #A9AAAB",
"!. c #B6B6B6",
"~. c #ABA9B4",
"^. c #D59D88",
"/. c #CAAE9B",
"(. c #D4AC93",
"). c #E9B694",
"_. c #FFB99F",
"`. c #F8BA99",
"'. c #E9AB93",
"]. c #D4B8A2",
"[. c #CCB5B8",
"{. c #FFBCA2",
"}. c #F0BAA7",
"|. c #E1BCA7",
" X c #CFC68E",
".X c #E6C39C",
"XX c #E3DA8B",
"oX c #D6C6A1",
"OX c #E4C2AB",
"+X c #FBC3AA",
"@X c #E9C9B5",
"#X c #F4CBB3",
"$X c #F6D3BC",
"%X c #F9D5BD",
"&X c #F9D6BA",
"*X c #EBD4A8",
"=X c #8697C7",
"-X c #8EA9C3",
";X c #92ADC6",
":X c #9BB3C9",
">X c #A5B9CB",
",X c #B2BECC",
"<X c #A6BDD0",
"1X c #A8BFD2",
"2X c #DDBEC0",
"3X c #BAC3C9",
"4X c #ACC1D5",
"5X c #B6C9D9",
"6X c #B5C7D6",
"7X c #BCD0DF",
"8X c #BDD2E0",
"9X c #CCCDCE",
"0X c #C7D3DC",
"qX c #D7D9DB",
"wX c #C7CAD2",
"eX c #FAD9C3",
"rX c #C7D7E2",
"tX c #D5DDE3",
"yX c #C4CAE0",
"uX c #D6E1E9",
"iX c #DDE5EB",
"pX c #DFE8EF",
"aX c #E5E9EC",
"sX c #E7ECF1",
"dX c #F4F5F5",
"fX c #FBFBFB",
"gX c #F8F6F5",
"hX c #F3F0EF",
"jX c #E2DFE4",
/* pixels */
"                                                                                                                                ",
"                                                5 O % % <       2 O % > % % <                                                   ",
"                                                3 # @ X @       O @ @ + @ % @                                                   ",
"                                            5 3 z l x x x T E E U c c U I x x j 3 4                                             ",
"                                            O o x #.#.=.=.@.W R 1.3.3.3.1.>.*.l . <                                             ",
"                                            q ; I &.&.&.*.#.@.&.3.4.5.4.4.>.>.x ; u                                             ",
"                                      1 < u Y O.=.1.>.#.#.2.5.5.e.w.e.w.0.9.5.,.>.$.q <                                         ",
"                                      1 . y @.#.=.3.2.#.#.1.9.9.e.e.e.e.w.9.9.5.3.%.* #                                         ",
"                                  5 3 < X y *.>.1.5.5.3.4.9.0.0.q.0.9.7.7.7.9.4.3.=.c x p 3 4                                   ",
"                                  & # # . y ,.3.5.9.q.e.e.e.e.w.9.7.3.1.3.7.9.5.1.1.=.=.l . <                                   ",
"                                  u w ; ; l ,.4.5.9.q.e.e.e.e.e.9.9.7.3.4.5.5.4.8.8.r.r.k . 2                                   ",
"                            3 O h ,.6.7.9.9.9.9.5.9.q.e.e.e.e.e.e.e.q.7.5.=.=.2.3.s.M.M.F o <                                   ",
"                            1 o h 5.7.0.e.w.7.7.9.9.9.e.e.e.e.e.e.e.0.9.5.=.=.2.1.t.M.B.N o <                                   ",
"                            1 o h 9.0.4.2.>.&.&.>.1.3.q.0.5.3.3.2.2.7.0.9.=.=.a.y.H.=X=XN $ <                                   ",
"                            1 o h w.e.=.#.R W W #.*.>.5.9.,.*.&.#.#.3.e.0.>.*.y.D.D.;X-XH . <                                   ",
"                            1 o h 0.e.=.#.R I I -.s.8.g.g.s.s.>.#.#.4.e.q.=.*.y.=XD.=X-XG = u                                   ",
"                            1 o h 0.e.=.#.I * * u.`.`.#X*X#X#X.X#.#.4.e.0.>.*.F.V.B.V.V.y.#.Y q <                               ",
"                            1 o h 0.w.>.#.I @ @ u.{.+X&X$X&X%X.X-.#.4.e.q.=.=.C.B.B.B.B.y.=.O.= o 5                             ",
"                            1 o h 9.q.>.&.U @ @ u.{.{.#X$X&X$XOX#.#.3.0.9.3.3.r.Q Q y.r.r.&.$.- o 5                             ",
"                            1 + h 5.9.,.=.U * @ u.{.+X$X$X$X%X.X-.#.1.9.9.9.9.&.Y @.2.3.>.*.$.= # 5                             ",
"                            4 < j %.%.,.2.U * @ ! ^.^././.OX$X.XY U $.%.<.6.5.>.@.#.=.>.=.=.$.= # 5                             ",
"                                  8 = +.9.%.@ X * 8 7 0 q K.eX/.q & * - f ,.3.4.7.1.R R &.3.%.= o 4                             ",
"                                  < < +.9.%.* X @ @ @ @ X i.eX/.2 . + o : *.3.7.7.3.R Y %.3.%.= O 4                             ",
"                                      l l h X @ J I.b.n n G.&X@Xy.y.F n N oX*Xg.9.3.R Y *.5.3.U c z 3 4                         ",
"                                      2 + + + @ ~.fX0Xj.h.R.&X&X%X%XM.h.z.sXfXXX9.6.@.W =.9.9.3.3.x + <                         ",
"                                      2 + + + @ Q.gX6Xx.h.R.&X&X$X$XM.h.c.tXhX(.<.%.I I O.,.,.3.3.x o <                         ",
"                                  2 < @ + + + @ K.eX[.z.z.T.$X$X$X$XC.z.N.@X&XQ * * * & & * y ,.9.v o <                         ",
"                                  O + o + + + @ K.%X[.m.z.~.$X$X$X$X=Xz.N.@X&XJ o o o O X . : ,.9.v O <                         ",
"                              1 M b.v.A.Z.Z.v.v.P A L I.T.OX$X$X$X%X[.T.I.J A K v.A.Z.A.A.b.K l l a . <                         ",
"                            1 X V 1X4X7XrX8X4X4XV $ k *XeXeXeXeX%X%X&XeX/.0 $ K 4X4X8XrX5X4X;X9 . . . <                         ",
"                            M r G 4X5X0XrX8X6X4XG 9 C /./.OXoXoXoXoX].(.J.B r A.6X6XrXrX7X5X>XV r 0 # <                         ",
"                        < 2 I.0XtXdXdXpXuXuXuXtX6X:XD.w 0 s ] ' ' ] d 8 B E.:X5XuXuXuXuXsXdXsXqX0XK X <                         ",
"                        1 1 G.3X3X9X9XuXiXiXiXiX>XE.A.: : s ` ` ` ` s - d Y.E.3XpXpXpXpXqX9X9X3X3XP X <                         ",
"                            m 0 9 9 r !.fXdXgXdXP 7 d / } }  . . . ./  ...9 9 G.gXdXdXdXF.9 9 0 0 - X <                         ",
"                            1 O X X & !.fXgXgXhXG . ; / :.:.:.:. . .:.:...* X G.gXgXgXgXZ.. . X # X X <                         ",
"                                5 @ & C L L L L b g )  . .:.:.:. .:.:.:.| g g S L L L L V . * l x y X >                         ",
"                                  O @ X . . . X g } }  .:.:.:.:.:.:.:. . .{ { a . . . . X + = $.=.l . <                         ",
"                                  O + w i q X # g { { } } } } } } } } / } { } a X & w i 0 + = @.=.l . <                         ",
"                                  % @ K.@XK.@ + s _ ( _ _ _ _ _ ` _ _ _ _ ~ ( a X r /.OXA . = Y #.l . %                         ",
"                                  O @ J.eXL.7 . s ( ~ ( ~ ~ ~ ~ ~ ~ ~ ~ ~ ~ ~ a X r OXeXJ . - Y #.l . %                         ",
"                                  O O J.eXJ.& # : a d D H A.S.S.S.S.K H N a a - . r OX%XJ X & f h p                             ",
"                                  % > J.eX/.& X . O n k.z.=X4X5X4X4XV.l.k.< . . . r OX&XQ + X X O 4                             ",
"                                  6 e K.2XK.@ @ w u M c.m.D.W.W.W.W.M.z.c.i u 1 @ r !.[.P 6 , @ O 4                             ",
"                            3 % m k.k.n.n.c.O @ ! '.p.] s ] ] ] ] ] ^ ^ X.^.'.z X 5 m.m.n.k.j.2 O 4                             ",
"                            1 # 6 l.l.l.n.k.O % u.{.(._ ~ ( ~ ~ ~ ~ ~ ~ ' .X`.Q X , k.l.l.l.l.6 . 5                             ",
"                            1 . m T.T.T.T.C.% @ u.{.).p.p.X.~ ( ~ ~ o.p.p.).`.Q . t R.T.T.T.C.0 O 5                             ",
"                            1 . C &X&X%X%X/.* @ u.{.+X$X#Xa.~ ( ~ ~ p.eX&X+X_.Z $ r OX&XeX$X].q # 5                             ",
"                            1 # C #X%X#X&XJ.& @ ! ^.'.#X$Xa.' [ [ X. X&X#X^.^.Z . r |.&X#XeX].t # 4                             ",
"                            1 # C #X&X+X_.u.& # * = C +X$X}.).).).).+X%X].i 8 & # w '.{.#X&X].q # 4                             ",
"                            1 # C #X&X+X{.f.& # # . k @XeX+X_._._._.#X%X/.8 # X # w '.{.+XeX].q o 4                             ",
"                        5 4 C.G.F.J A A Q C % # P G.Q.@X$X{.{.{._._.#X%X@XG.G.C o 8 Z Z A J J H.G.L 3 4                         ",
"                        & * !.fX!.@ X X $ . # % Q.fXhXeX$X}._.{._._.+X$XeXgXfXb.. # X . X X r jXfXF.# <                         ",
"                        O 7 !.fX!.r e 7 @ X X > Q.dXhXeXeX}.}.}.}.}.#XeXeXdXdXL . # # # 7 9 V uXfXC.X <                         ",
"                        O 7 !.fXtXU.D.B X @ X @ I.aXaXdXhXrX,X,X,X,XtXdXhXpXuXK . # # o D U.W.sXfXF.X <                         ",
"                        @ 7 !.fXtX;XE.B X X + @ I.pXpXdXdXrX1X1X1X1XtXgXsXaXuXK o # # o G ;X>XsXfXF.# <                         ",
"                        # & ~.hX,XG D e X X @ @ Z.6X5XrXtX1X:X:X:X:X5XtX0X6X6XG o # # # m D K qXsXF.o <                         ",
"                        O > Q.pXQ.@ . o o o o @ v.W.;X4X1X:X-X-X-X-X:X4X<X;X-XD # # # # # X r wXpXb.X <                         ",
"                        2 2 I.3XG.2 > < < < < 2 v.D.U.6X6X:X;X;X;X;X<X5X<XD.D.F < < < < < < m ~.3XL < 1                         ",
"                            t e M               5 > C sXhX7X1X<X<X<XtXdXwXr 8 M               t 9 M                             ",
"                            1 # 3               6 . V sXgXrX1X1X1X4XtXfX9X9 o                 < . 4                             ",
"                                                    M F.Z.P G G G G b.o.Q M                                                     ",
"                                                      < . o X X O $ O . 6                                                       ",
"                                                      1 < < < 6 1 < 2 < 3                                                       ",
"                                                                                                                                "
};
