/* XPM */
static char *_d6eccb75c2147f2d80dcd87fa1f3ed3hwYUCQ32Q398JcwR[] = {
/* columns rows colors chars-per-pixel */
"64 64 208 2 ",
"   c None",
".  c #151515",
"X  c #181717",
"o  c #171619",
"O  c #1B161C",
"+  c #171919",
"@  c #19191A",
"#  c #191916",
"$  c #0F1010",
"%  c #231D17",
"&  c #1F201F",
"*  c #23221C",
"=  c #2A271E",
"-  c #2D2A1F",
";  c #30291E",
":  c #1D1E21",
">  c #231324",
",  c #2B142D",
"<  c #28182B",
"1  c #2F1331",
"2  c #321434",
"3  c #351339",
"4  c #1E2021",
"5  c #26292C",
"6  c #262627",
"7  c #372B25",
"8  c #3B3423",
"9  c #333221",
"0  c #2D2F32",
"q  c #36263B",
"w  c #343539",
"e  c #363739",
"r  c #2D3134",
"t  c #423C2A",
"y  c #423828",
"u  c #482E36",
"i  c #453A32",
"p  c #54492C",
"a  c #59502F",
"s  c #49463B",
"d  c #5A5432",
"f  c #5D5737",
"g  c #544732",
"h  c #635636",
"j  c #645935",
"k  c #6A5D3A",
"l  c #675B38",
"z  c #6E633D",
"x  c #676037",
"c  c #78683A",
"v  c #3D3E41",
"b  c #39344E",
"n  c #44374C",
"m  c #48364F",
"M  c #3F454C",
"N  c #3E4551",
"B  c #47484B",
"V  c #464C53",
"C  c #554B5A",
"Z  c #4E5255",
"A  c #515355",
"S  c #5A584C",
"D  c #635D41",
"F  c #6D684E",
"G  c #776A43",
"H  c #646050",
"J  c #5A5D67",
"K  c #596167",
"L  c #5D6371",
"P  c #64686C",
"I  c #696D76",
"U  c #73797F",
"Y  c #6E6977",
"T  c #8C763E",
"R  c #86723E",
"E  c #92783E",
"W  c #816C3F",
"Q  c #8C7B44",
"!  c #847442",
"~  c #937C44",
"^  c #9B6A5F",
"/  c #927468",
"(  c #9D8645",
")  c #9E8A45",
"_  c #9D8A4A",
"`  c #998649",
"'  c #9A8B51",
"]  c #9F924C",
"[  c #A38D4A",
"{  c #A18B46",
"}  c #A5934C",
"|  c #AA944C",
" . c #AE9A4F",
".. c #A59047",
"X. c #B09E4F",
"o. c #AC9B52",
"O. c #AC9955",
"+. c #B19E51",
"@. c #A08F50",
"#. c #B4A253",
"$. c #B8A755",
"%. c #BCAB56",
"&. c #BDAD59",
"*. c #B7A95B",
"=. c #BFB059",
"-. c #BFB157",
";. c #ADA254",
":. c #AFA77D",
">. c #B4AC79",
",. c #BEB56F",
"<. c #C0AF59",
"1. c #C0AF57",
"2. c #C2B35A",
"3. c #C7B95D",
"4. c #C9BB5E",
"5. c #C1B157",
"6. c #CCBE61",
"7. c #C2B86B",
"8. c #C5BC75",
"9. c #CDC15F",
"0. c #D0C35D",
"q. c #CEC161",
"w. c #CAC26C",
"e. c #D2C663",
"r. c #D6C965",
"t. c #D8CD66",
"y. c #DACE69",
"u. c #D6CC68",
"i. c #DFD46B",
"p. c #D5CC75",
"a. c #E0D46C",
"s. c #5C5E97",
"d. c #5D639C",
"f. c #6D7585",
"g. c #737C8C",
"h. c #777B85",
"j. c #6D7B93",
"k. c #6B6FB9",
"l. c #6D6DB4",
"z. c #6E72BA",
"x. c #6D70B6",
"c. c #7276BD",
"v. c #7477B3",
"b. c #7877A9",
"n. c #676BC0",
"m. c #847F90",
"M. c #807EA6",
"N. c #7D8488",
"B. c #7D8A9B",
"V. c #7C83BA",
"C. c #898C8F",
"Z. c #85888C",
"A. c #9A9785",
"S. c #888892",
"D. c #8F9296",
"F. c #979797",
"G. c #979998",
"H. c #A29982",
"J. c #A09C94",
"K. c #AAA484",
"L. c #A7A286",
"P. c #A3A390",
"I. c #8589A6",
"U. c #8796A8",
"Y. c #969EA4",
"T. c #999DA0",
"R. c #8293B2",
"E. c #8E9DB2",
"W. c #8D9CBC",
"Q. c #8595B6",
"!. c #8895B9",
"~. c #9EA3A5",
"^. c #9EA4A8",
"/. c #93A4BE",
"(. c #A3A6AA",
"). c #A2ABB4",
"_. c #A4AEBA",
"`. c #C8C281",
"'. c #9BABC3",
"]. c #98A7C4",
"[. c #B2BDC9",
"{. c #A7B7C4",
"}. c #B8C2CA",
"|. c #BDC9D4",
" X c #BAC7D6",
".X c #C5CDD4",
"XX c #CBD1D5",
"oX c #C6D2DB",
"OX c #CAD4DC",
"+X c #D3D9DD",
"@X c #CDD9E2",
"#X c #D4DDE3",
"$X c #D8DEE4",
"%X c #D7E0E7",
"&X c #DBE2E7",
"*X c #DDE4E9",
"=X c #E2E7EB",
"-X c #E5E9ED",
";X c #E5E8EB",
":X c #EAEDF0",
">X c #EEF1F3",
",X c #F6F6F7",
"<X c #F8F7F7",
"1X c #F7F8F7",
"2X c #F6F7F8",
"3X c #FAFAFB",
"4X c #F7F8F9",
"5X c #F0EFEE",
/* pixels */
"                                                                                                                                ",
"                                                                                                                                ",
"                                                                                                                                ",
"                                                  @ o @ o @ o 1     O @ @ +                                                     ",
"                                                  . O X O . o ,     X o . X O                                                   ",
"                                              2 u l l k z z G G ^ ^ G G k j d 2 3                                               ",
"                                            3 o 8 ( [ +.+.+.+.} E ~ | +.| [ c o >                                               ",
"                                            u y a [ [ #.$.$.$.+.( { #.$.| [ R y i                                               ",
"                                        @ X h _ [  .+.3.9.9.9.3.&.1.4.e.%. .| ( ~ = X                                           ",
"                                        @ o h { [ X.#.6.e.9.9.4.5.2.4.9.%.X. .{ ~ 6 X                                           ",
"                                        X . k o.#.4.4.u.i.y.i.i.y.y.i.i.e.6.<. .' ; X                                           ",
"                                        X . z +.$.4.9.i.i.i.i.i.i.a.i.i.r.6.2.X.[ ; X                                           ",
"                                    O & L f.m.S.A.6.6.y.a.i.i.a.a.i.a.i.r.q.>.Z.S.f.I N .                                       ",
"                                    > 4 B.].!.n.I.6.0.a.i.i.i.i.i.i.i.i.r.9.:.k.k./.'.V .                                       ",
"                                    : : B.].!.n.I.L.:.p.i.i.i.i.i.i.i.i.,.K.J.V.V.W./.V .                                       ",
"                                    : : j.R./.].W.k.b.p.a.i.i.a.i.i.i.a.G.k.V.'.].Q.R.V #                                       ",
"                                    : : j.R.!.].W.v.B.`.a.a.i.i.i.i.i.i.J.v.V././.V.V.N .                                       ",
"                                    O : d.c.c.c.I.,.7.p.a.i.i.i.i.i.i.i.w.,.K.c.V.c.z.b .                                       ",
"                                    : 4 s.z.k.k.I.9.0.i.a.i.i.a.i.i.i.i.u.9.:.k.x.k.l.b X                                       ",
"                                    O > / H.H.L.>.t.t.i.a.i.i.i.i.i.i.i.t.t.w.K.K.A.:.B .                                       ",
"                                    O & ] -.3.q.0.a.a.i.a.i.i.a.i.i.i.i.i.i.u.9.9.-.-.d o                                       ",
"                                    : * ] 6.q.e.t.i.i.i.i.i.i.i.i.i.i.i.i.i.i.e.e.-.-.d .                                       ",
"                                    O * ;.q.u.i.i.i.i.i.i.i.i.i.i.i.i.i.i.i.i.i.i.e.e.d .                                       ",
"                                    6 9 ;.q.u.i.i.a.i.i.a.i.i.a.i.i.i.i.i.i.i.i.i.0.q.x =                                       ",
"                                > i ' @.3.9.t.i.i.i.i.i.a.i.i.i.i.i.a.a.a.i.i.a.i.q.q.;.' g > 3                                 ",
"                                . 8 O.+.3.9.t.i.i.i.i.i.i.i.i.i.i.i.a.a.a.i.i.i.i.q.q.$.+.d . ,                                 ",
"                                . y #.%.4.q.t.a.i.i.i.i.i.i.i.i.a.i.i.a.i.i.i.i.i.q.q.5.&.f . 1                                 ",
"                                o t *.<.4.6.t.a.i.i.i.i.a.i.i.a.i.i.a.i.a.i.i.a.i.q.q.2.<.j . ,                                 ",
"                                o t *.5.6.q.e.t.y.i.i.i.i.i.i.i.i.i.i.i.i.i.i.y.t.q.9.3.1.d . 1                                 ",
"                                . t *.5.6.q.q.9.e.i.i.i.i.i.i.i.i.i.i.i.i.i.y.0.6.9.9.2.5.h . >                                 ",
"                              0 5 s *.&.4.6.6.4.e.i.i.i.i.i.i.a.i.i.i.i.i.i.y.9.q.9.9.2.1.z 5 b                                 ",
"                          , . K E.G.;.#.4.6.4.5.4.i.i.i.i.a.i.i.i.i.i.i.i.i.u.-.2.4.q.&.o.A.E.g.O @                             ",
"                          , O L '.~.O.X.3.q.3.&.2.i.i.i.i.a.i.i.i.i.i.a.i.a.u.-.2.6.6.*.+.P.'.N.: :                             ",
"                              n M S [ | #.$.&.=.4.i.i.t.e.t.i.i.i.i.i.i.i.a.u.-.=.2.2.+.{ F N m                                 ",
"                                . 7 { {  .o.$.&.4.i.i.q.9.t.i.i.i.i.i.i.i.i.u.-.5.5.&.} [ p $ ,                                 ",
"                                X 8 l k _ | #.=.3.i.i.q.9.t.i.i.a.i.i.a.y.t.9.;.+.$.$.! l p $                                   ",
"                                    O @ R { #.&.3.i.i.0.4.t.a.i.i.i.i.i.r.9.-.) [ +.+.g .                                       ",
"                                    e e c Q } =.2.i.y.q.4.t.i.i.i.i.i.i.r.9.&.) ( ( ` f r                                       ",
"                                O n [.[.v * G 2.2.q.q.2.&.4.q.t.i.i.i.i.u.q.$.E R 9 * h.{.J O 3                                 ",
"                                X B OX.Xv . G 5.2.q.6.5.&.3.6.e.i.i.i.i.r.9.$.E W 6 @ N. XJ . ,                                 ",
"                                X B +XOXe . l | X.2.5.{ ) #.2.4.e.q.r.r.q.3.' 9 t D.Y.}.+XP . ,                                 ",
"                                . B +X+XM $ h [ | &.&.( T | 5.2.9.q.9.9.=.6.` $ 4 }.@X%X;XI . ,                                 ",
"                                . B ;X;XN.P H j c X. .l a T #.$.3.3.4.q.' G F K I OX*X*X=XI . ,                                 ",
"                                $ B 5X1X#X#XP $ 8 ( ` ; . j { | -.-.4.w.f $ V [. X>X4X-X*XP $ ,                                 ",
"                              r w P >X,X&X#XN.r s R ! v r l T ( $.%.4.6.f . Z }. X>X1X-X;XN.w n                                 ",
"                          , . U |.OX,X,X,X,X#X|.Y.* 6 Y.{.J # t _ ..=.=.f $ Z oX@X>X1X1X1X+X|.Y.O @                             ",
"                          , . U +X#X,X<X1X4X*X@X).e M ^.|.I r g Q Q } o.D 0 P OX@X>X1X1X1X*X@XY.@ @                             ",
"                          , . U @X#X,X1X1X4X*XOXOX.X.X#X%X+XOXG.= * = = Z.oXOX&X*X1X1X1X1X*X@XY.@ @                             ",
"                          1 + h.@X#X,X,X,X,X*X@X@X=X&X*X&X&X=X).: @ + O D.=X*X*X&X,X<X<X2X*X@XY.4 @                             ",
"                      , 2 I g._.$X*X,X,X,X,X-X$X$X:X,X>X:X,X>X+X^.~.~.^.XX>X>X>X>X,X2X<X2X-X$X[.g.f.b 2                         ",
"                      O 4 B.'. X*X=X,X,X2X2X:X$X=X,X,X,X2X1X2X>X*X*X*X*X>X4X<X,X<X2X<X<X2X:X&X@X'.E.5 O                         ",
"                      @ : B.'. X*X=X,X,X2X2X>X:X:X,X,X,X,X,X<X,X-X-X-X-X,X4X<X<X<X<X<X2X2X-X&XoX'.E.0 O                         ",
"                      # : B.'. X=X=X,X,X,X,X<X2X,X,X<X<X,X2X,X4X4X1X1X<X,X,X,X2X<X,X,X,X,X-X=XoX'.E.0 O                         ",
"                      < 6 g.U._.}.XX:X,X,X,X<X2X,X,X2X,X<X<X<X,X4X1X<X<X,X,X,X2X,X,X,X,X,X-X$X.XU.S.q <                         ",
"                          2 4 5 6 Z OX@X$X&X:X2X2X2X<X,X,X,X2X<X2X<X,X2X,X,X,X,X,X=X&X&X=X$X=X).5 6                             ",
"                          < . o $ B .XoX$X$X-X,X2X2X<X<X1X<X1X<X<X1X,X<X,X,X,X,X,X&X$X$X$X$X&X(.: o                             ",
"                                    C Z Z Z (.;X-X=X-X2X<X1X,X<X<X,X4X4X:X;X;X-X+XP A A A A A C                                 ",
"                                    O . . . Z.=X*X*X=X,X3X3X3X3X3X3X3X3X:X=X*X*XXX5 . . . . X ,                                 ",
"                                    2 2 1 2 Y S.C.C.C.F.G.G.F.F.G.G.F.G.D.C.C.C.Z.m 2 2 2 2 2                                   ",
"                                            2 X # o X . . X X . X . . . . o # + >                                               ",
"                                              O + @ + # @ @ @ @ O @ @ @ @ O # O >                                               ",
"                                                                                                                                ",
"                                                                                                                                ",
"                                                                                                                                "
};
