/* XPM */
static char *_74bbe889e2042a8f1df2f7ab25b8981BX6QsfPKZpEC03Dh[] = {
/* columns rows colors chars-per-pixel */
"64 64 219 2 ",
"   c None",
".  c #151516",
"X  c #191516",
"o  c #171817",
"O  c #191917",
"+  c #161619",
"@  c #1A151A",
"#  c #171819",
"$  c #191819",
"%  c #12110F",
"&  c #211D15",
"*  c #21151E",
"=  c #211B1C",
"-  c #200F1F",
";  c #26231C",
":  c #2B241B",
">  c #2B2918",
",  c #3F381F",
"<  c #1E1E24",
"1  c #1D1620",
"2  c #260F25",
"3  c #2A0C2A",
"4  c #231423",
"5  c #271826",
"6  c #32182D",
"7  c #331934",
"8  c #3C1A3B",
"9  c #341535",
"0  c #30122E",
"q  c #1E2123",
"w  c #22242D",
"e  c #2B2B2D",
"r  c #242327",
"t  c #322A21",
"y  c #3B3825",
"u  c #2B2B33",
"i  c #2E353D",
"p  c #333334",
"a  c #36393D",
"s  c #362D3A",
"d  c #421B3F",
"f  c #433D23",
"g  c #4A3B2A",
"h  c #493D36",
"j  c #4D2F39",
"k  c #3F403E",
"l  c #4C4326",
"z  c #4E442A",
"x  c #4B4529",
"c  c #524829",
"v  c #59522D",
"b  c #4D4434",
"n  c #68582D",
"m  c #694D3A",
"M  c #645B32",
"N  c #695C38",
"B  c #715E34",
"V  c #69562C",
"C  c #6A6137",
"Z  c #766737",
"A  c #77662E",
"S  c #3F1B41",
"D  c #3B2A42",
"F  c #393843",
"G  c #2F3347",
"H  c #411B42",
"J  c #4A2748",
"K  c #5B355E",
"L  c #512F53",
"P  c #623153",
"I  c #623466",
"U  c #3D434D",
"Y  c #474949",
"T  c #4B4E56",
"R  c #514A58",
"E  c #4D555C",
"W  c #54565B",
"Q  c #57595C",
"!  c #5C5C5C",
"~  c #5A5855",
"^  c #535448",
"/  c #6B6B5C",
"(  c #584D67",
")  c #4A5465",
"_  c #565B66",
"`  c #4B556E",
"'  c #635267",
"]  c #5F6468",
"[  c #576374",
"{  c #65676A",
"}  c #767577",
"|  c #696D74",
" . c #887639",
".. c #967B37",
"X. c #826B38",
"o. c #897942",
"O. c #847D75",
"+. c #9A853C",
"@. c #A58B3C",
"#. c #A98C3C",
"$. c #A4873B",
"%. c #AD933D",
"&. c #B39B3F",
"*. c #B7A03F",
"=. c #928748",
"-. c #A58D42",
";. c #A89744",
":. c #B49C43",
">. c #B89F43",
",. c #B09843",
"<. c #A89C50",
"1. c #B4A144",
"2. c #BBA445",
"3. c #BBA64A",
"4. c #BCA849",
"5. c #B4A74B",
"6. c #978D79",
"7. c #BEB368",
"8. c #B4A978",
"9. c #B0A570",
"0. c #A89B6A",
"q. c #C1AD46",
"w. c #C3AE4A",
"e. c #C5B24A",
"r. c #C9B64B",
"t. c #CDBB4D",
"y. c #C5B449",
"u. c #D1BF4E",
"i. c #CDBC52",
"p. c #C3B657",
"a. c #D1BE51",
"s. c #C0AD51",
"d. c #C7BB61",
"f. c #CFC14D",
"g. c #D2C24E",
"h. c #CFC052",
"j. c #D5C451",
"k. c #DBCC54",
"l. c #DACA56",
"z. c #DFD156",
"x. c #DFD15D",
"c. c #E0CF57",
"v. c #E2D457",
"b. c #E2D358",
"n. c #DBCE62",
"m. c #D0C470",
"M. c #5D6895",
"N. c #646E9D",
"B. c #6D7D9C",
"V. c #707189",
"C. c #5B5EA6",
"Z. c #6372A1",
"A. c #6A6DBB",
"S. c #737ABC",
"D. c #7277B3",
"F. c #696DC4",
"G. c #737AC1",
"H. c #768597",
"J. c #718193",
"K. c #778CAB",
"L. c #7A8AB7",
"P. c #7C93B2",
"I. c #7A84C1",
"U. c #928E8E",
"Y. c #8D8A99",
"T. c #8A949D",
"R. c #959395",
"E. c #918D8C",
"W. c #A09788",
"Q. c #A5A48A",
"!. c #868AA6",
"~. c #8897A9",
"^. c #9C9DA2",
"/. c #838CBE",
"(. c #8298B7",
"). c #8AA0BB",
"_. c #98A5B6",
"`. c #98A1AC",
"'. c #A3A3A3",
"]. c #A6ADB4",
"[. c #B6B6B9",
"{. c #A8B4BE",
"}. c #8897C0",
"|. c #8EA3C1",
" X c #95AAC4",
".X c #96A9C4",
"XX c #9CB1C8",
"oX c #ACBCCD",
"OX c #A5B7C8",
"+X c #BABFC5",
"@X c #ADC1CF",
"#X c #B2C3D3",
"$X c #BBC9D6",
"%X c #B7C9D7",
"&X c #B7C6D1",
"*X c #C6C5C8",
"=X c #C4CDD7",
"-X c #CBD3DB",
";X c #C5D1DA",
":X c #D7D9DB",
">X c #CDD9E4",
",X c #C8D7E1",
"<X c #D3DDE5",
"1X c #D7DDE6",
"2X c #DBE3EA",
"3X c #DAE1E6",
"4X c #E1E6EB",
"5X c #E5E9EE",
"6X c #EAECEE",
"7X c #E2E2E3",
"8X c #EBEEF1",
"9X c #E6EBF1",
"0X c #EEF1F4",
"qX c #F6F6F7",
"wX c #F8F7F7",
"eX c #F6F6F8",
"rX c #F7F8F9",
"tX c #FAFAFA",
"yX c #F7F8F7",
/* pixels */
"                                                                                                                                ",
"                                                                                                                                ",
"                                                                                                                                ",
"                                                  8 8 8 8 d 8       H 8 7 7                                                     ",
"                                                  X . + + . @ 9     * . o O d                                                   ",
"                                                  l l c c z c m     c c g g j                                                   ",
"                                            8 @ f $.@.,.,.,.:.#.....&.:.#.#.V X 0                                               ",
"                                            J t c $.#.:.2.>.>.%...$.:.>.#.#.V : j                                               ",
"                                        4 5 m ..+.&.:.r.t.t.i.y.q.q.r.t.>.&.$...X.6 6                                           ",
"                                        O O V #.#.:.*.r.g.g.i.r.q.q.u.u.2.&.,.$.X.= 5                                           ",
"                                        $ X Z %.:.r.r.k.k.k.z.k.j.k.k.k.t.r.2.%. .& 5                                           ",
"                                        o o Z :.4.u.g.z.v.v.b.v.v.v.c.c.j.a.w.&.=.& 4                                           ",
"                                      L ) R } 6.0.g.g.k.v.v.v.v.v.c.b.b.j.a.9.6.O.E ( K                                         ",
"                                    5 w !.XXS.F.Y.i.g.v.v.v.v.v.v.v.c.b.j.a.W.A.S..X(.F *                                       ",
"                                    < q H. X}.G.!.7.p.z.v.v.v.v.v.v.v.b.d.d.R.G.L.|.(.a *                                       ",
"                                    4 q H.(.(..X(.A.!.m.v.v.v.v.v.v.v.c.R.D./.|.|.(.~.G @                                       ",
"                                    4 q J.P.|. X}.F.D.m.v.v.v.v.v.v.b.n.Y.F./. X XP.K.u @                                       ",
"                                    1 q Z.G.I.G.!.8.8.x.v.v.v.v.v.b.b.b.7.8.R.I.L.G.A.G @                                       ",
"                                    4 q C.F.F.F.Y.i.j.z.v.v.v.v.v.v.b.b.j.j.W.A.F.F.A.u @                                       ",
"                                    4 r } U.U.R.8.l.j.b.v.v.v.v.v.v.b.b.j.l.8.R.U.Y.E.s @                                       ",
"                                    4 ; -.e.r.h.l.b.v.v.v.v.v.v.v.v.b.v.v.v.k.f.t.y.2.y @                                       ",
"                                    @ r ;.y.i.j.z.v.v.v.v.v.v.v.v.v.v.v.v.v.k.g.i.y.4., @                                       ",
"                                    1 ; 1.g.l.z.v.v.v.v.v.v.v.v.v.v.v.v.v.v.v.z.z.g.p.f @                                       ",
"                                    5 > 1.g.k.v.v.v.v.v.v.v.v.v.v.v.v.v.v.v.v.v.k.g.y.l =                                       ",
"                                1 g o.+.t.k.v.v.v.v.v.v.v.v.v.v.v.v.v.v.v.v.v.v.v.c.l.+...m 5 8                                 ",
"                                @ l ;.:.k.v.v.v.v.v.v.v.v.v.v.v.v.v.v.v.v.b.v.v.v.v.c.4.1.v X 7                                 ",
"                                @ l 3.e.k.v.k.k.z.v.v.v.v.v.v.v.v.v.v.v.k.k.z.v.v.v.c.q.3.M X 7                                 ",
"                                1 g i.j.v.v.j.u.j.v.v.v.v.v.v.v.v.v.v.b.g.g.k.v.v.v.v.r.s.M . 7                                 ",
"                              P y N i.u.k.k.j.u.j.v.v.v.v.v.v.v.v.v.v.v.g.u.l.v.v.v.v.r.w.N + 7                                 ",
"                            @ z ;.1.u.u.u.g.u.u.k.v.v.v.v.v.v.v.v.v.v.v.g.g.k.v.v.v.c.r.e.M . 7                                 ",
"                          @ o l ,.4.i.u.t.t.u.a.j.v.v.v.v.v.v.v.v.v.v.c.g.g.j.v.v.b.c.r.w.^ q D                                 ",
"                          $ o z 4.q.w.w.2.2.a.c.v.v.v.v.v.v.v.v.v.c.l.g.k.k.v.v.c.g.u.4.5.0.!.V.7 0                             ",
"                          # + c w.q.q.q.:.&.a.v.v.v.v.v.v.v.v.v.v.c.u.u.k.v.v.v.z.f.t.2.,.Q.XXH.< 2                             ",
"                          # + z w.*.%.#.2.4.j.v.b.b.v.v.v.v.v.k.k.j.g.g.z.v.v.v.k.r.e.A v ^ E ( J                               ",
"                          # X c w.>.....2.q.j.v.b.v.v.v.v.b.v.k.u.t.u.g.k.v.v.v.k.y.5., + + + 7                                 ",
"                          # X z 3.-.B B 2.y.j.v.v.v.v.v.v.c.c.g.t.t.g.j.c.v.c.c.i.=.o.y + 6 6 H                                 ",
"                          # + f $.X.= : 1.h.l.z.v.v.v.v.v.j.g.t.4.y.z.v.v.v.k.g.<.> $ # @                                       ",
"                            5 h ..N O r 1.t.l.z.v.v.z.v.c.a.r.r.y.t.x.z.c.c.h.4.=.p u e u J                                     ",
"                              P t ; O > ;.q.r.j.g.g.j.g.j.*.#.2.f.g.z.z.j.h. .> Y _.].(.~._ 1 8                                 ",
"                                @ @ # ; ;.e.r.g.t.u.i.i.i.,.+.5.f.g.z.z.j.h.Z . F OX#XXX.X_ o 7                                 ",
"                                * @ . & ..%.q.e.w.4.:.N v z f Z h.f.j.h.Z v / H.T.%X$X%X%X[ O 7                                 ",
"                                * @ . &  .#.>.w.q.>.-.: . o % M h.g.j.i., % ] %X%X,X,X>X>X| . 6                                 ",
"                                * e { { B B +.2.@.A Z ! E e . M h.4.=. ./ { ~.$X$X>X>X>X>XT.] _                                 ",
"                                @ Y 1X-Xa X n #.A X e _.oXT % v y.%.; q ].4X3X3X2X2X2X2X2X>X,X`.4 4                             ",
"                              K s ] 3X:X~ p N  .Z p Y {.$X{ p ^ <.=.b a [.5X2X4X9X2X2X2X2X3X>X].a s                             ",
"                            4 R _.#XeX0X-X-X{ & ~ =X-X8X0X:X-XE.; k &X-X8XeXqXqXrXrXrX2X2X2X2X;X{._.J 4                         ",
"                          $ o T @X;XeXeX5X4X} e | 3X4XqXrX6X4X^.p T -X2X0XrXrXrXrXqXrX2X2X2X<X>X%XoXU e L                       ",
"                          $ o E $X3XyXqXeXyX1X*X-XqXqXrXrXqXeX6X:X:X-X>X0XrXrXqXrXrXqXqXeX>X#X$X<X>X_.~.( 2 0                   ",
"                          $ o E ;X3XqXqXrXrX5X2X5XqXyXqXyXyXyXyXtX0X>X>X8XeXyXyXwXqXqXrXeX<XoX$X2X2XOX X) o 3                   ",
"                          $ o W <X2XeXrXqXrXqX8XqXqXwXqXyXyXyXqXqXqX8X9X9X9X8XyXrXrXwXwXeX8X2X1X%X%X@XOX_ @ 3                   ",
"                          @ . W 3X4XwXqXqXwXrXrXtXtXtXtXtXtXtXyXqXwXwXeX5X1X5XqXqXwXrXqXwXwXtX5X#X@X#X#X_ @ 3                   ",
"                          @ . Q 1X4XqXqXrXqXrXwX7X'.'.'.'.'.'.*XqXrXwXeX9X6XqXqXrXrXwXqXwXwXtX8X,X$XT.J.( 3                     ",
"                          O . W 1X6XwXqXyXyXeXtX[.O # # # # . } wXwXwXwXwXeXrXwXqXrXrXqXwXwXwXwXtX5Xb # J                       ",
"                            5 ' +X-XqX0XqXqX7X:XR.w w q w w q | :X:X:X:X6XqXqXqXwXwXrXwXwXwXwX6X:X*XL 0                         ",
"                              I e _ 2X2X2X2X} e Y M.M.M.M.M.M.) e e e p [.7X6XqXqXqXqXqXwXwXtX*Xp s                             ",
"                                - R 1X3X1X1X{ . G N.N.Z.Z.Z.N.` $ X o ; ].7X5XqXqXqX0XqX0XqXqX[.5 4                             ",
"                                  K _ W W W p o q G G J.L.L.K.[ $ $ o $ Y W Q ! ! ! ! ! ! ! ! '                                 ",
"                                    * o . . + @ 1 # u H.P.P.P.[ $ $ @ O o . . . + . . . . . . 9                                 ",
"                                    H H H H d S 7 # q ` [ [ [ U $ $ $ O O o o o 5 H H H H H H                                   ",
"                                                  # # # # # $ @ $ @ @ $ @ # O + 7                                               ",
"                                                  2 2 4 4 4 2 2 2 2 2 4 2 4 2 3 9                                               ",
"                                                                                                                                ",
"                                                                                                                                ",
"                                                                                                                                "
};
