/* XPM */
static char *_cc4e485e1d5499a96f0c77d51d38541vFxAowtjKP8JL7l2[] = {
/* columns rows colors chars-per-pixel */
"64 64 210 2 ",
"   c None",
".  c #151516",
"X  c #181716",
"o  c #171817",
"O  c #191817",
"+  c #171619",
"@  c #1A151B",
"#  c #1A1A1A",
"$  c #171819",
"%  c #0D0D0E",
"&  c #221B1A",
"*  c #1E201F",
"=  c #2D2B1D",
"-  c #26241A",
";  c #332D1C",
":  c #38301F",
">  c #1E1521",
",  c #1D1E24",
"<  c #231524",
"1  c #251926",
"2  c #2A152B",
"3  c #291A2A",
"4  c #251529",
"5  c #2E1931",
"6  c #321734",
"7  c #311833",
"8  c #3A163D",
"9  c #3C1A3E",
"0  c #1E2024",
"q  c #222224",
"w  c #2C2922",
"e  c #22242C",
"r  c #2A292D",
"t  c #3D3726",
"y  c #2B2D31",
"u  c #262936",
"i  c #392837",
"p  c #2E3134",
"a  c #333436",
"s  c #383839",
"d  c #37252A",
"f  c #443D2A",
"g  c #443928",
"h  c #52373D",
"j  c #464129",
"k  c #4C442B",
"l  c #54492D",
"z  c #474336",
"x  c #5C5332",
"c  c #574931",
"v  c #645B35",
"b  c #675D3A",
"n  c #6F633A",
"m  c #6B6337",
"M  c #726339",
"N  c #77693B",
"B  c #7B713D",
"V  c #3D1A41",
"C  c #3D2743",
"Z  c #393D41",
"A  c #421D44",
"S  c #4F2D51",
"D  c #5E2861",
"F  c #5D3D60",
"G  c #642A68",
"H  c #642966",
"J  c #6E3570",
"K  c #3E4448",
"L  c #3F4367",
"P  c #454546",
"I  c #454749",
"U  c #494C59",
"Y  c #4B5158",
"T  c #565759",
"R  c #5D5948",
"E  c #635244",
"W  c #7A6D42",
"Q  c #776A42",
"!  c #686658",
"~  c #766E48",
"^  c #535966",
"/  c #575E7C",
"(  c #525066",
")  c #64466A",
"_  c #5E626A",
"`  c #5E6679",
"'  c #6E7377",
"]  c #777976",
"[  c #8E763D",
"{  c #887845",
"}  c #947150",
"|  c #A06D63",
" . c #8F8449",
".. c #9E8B4C",
"X. c #968449",
"o. c #9E9352",
"O. c #948A53",
"+. c #A28C47",
"@. c #A38D4A",
"#. c #A4914C",
"$. c #AA954C",
"%. c #AE9C4F",
"&. c #AD9B53",
"*. c #A79753",
"=. c #B19D52",
"-. c #B4A254",
";. c #B9A755",
":. c #BAAA56",
">. c #BDAD5A",
",. c #B4A75B",
"<. c #BFB058",
"1. c #AFA35A",
"2. c #9C9164",
"3. c #B6AA6D",
"4. c #BDB374",
"5. c #BEB060",
"6. c #C3B45B",
"7. c #C7B95D",
"8. c #CABC5E",
"9. c #C2B157",
"0. c #CBBE61",
"q. c #C5B966",
"w. c #C5BC7B",
"e. c #CEC15F",
"r. c #D0C35F",
"t. c #CEC161",
"y. c #CCC06B",
"u. c #D1C463",
"i. c #D5CA65",
"p. c #D9CD67",
"a. c #DACD69",
"s. c #D7CC6D",
"d. c #DFD46B",
"f. c #D9CF73",
"g. c #E0D46C",
"h. c #5C6482",
"j. c #6A7588",
"k. c #747A84",
"l. c #636B94",
"z. c #696A92",
"x. c #68749D",
"c. c #7C7E9F",
"v. c #7878A9",
"b. c #6B6DBC",
"n. c #6C6DB4",
"m. c #6C70BD",
"M. c #7377B5",
"N. c #656CA2",
"B. c #817FA0",
"V. c #7C8288",
"C. c #7A869B",
"Z. c #7D8DAA",
"A. c #7C88B8",
"S. c #9C978A",
"D. c #878A98",
"F. c #999A9A",
"G. c #979597",
"H. c #898A8B",
"J. c #B4AD88",
"K. c #8886A6",
"L. c #8996AB",
"P. c #848EB9",
"I. c #8998B8",
"U. c #919DA7",
"Y. c #A89EA7",
"T. c #98A8BB",
"R. c #94A1B1",
"E. c #A6A7AA",
"W. c #A4ACB7",
"Q. c #A8B1B9",
"!. c #B4B8BC",
"~. c #8B97C1",
"^. c #858DC0",
"/. c #9BABC2",
"(. c #A1AEC8",
"). c #ABB9C8",
"_. c #B4BDC8",
"`. c #C0BFC1",
"'. c #B3C1CD",
"]. c #BBC2C9",
"[. c #B6C3D2",
"{. c #BBC6D4",
"}. c #BEC9D4",
"|. c #CACACA",
" X c #C4C9CE",
".X c #C4CCD4",
"XX c #C7CDD5",
"oX c #C6D2DB",
"OX c #CAD4DE",
"+X c #CCD3D9",
"@X c #D4D9DD",
"#X c #CFD9E2",
"$X c #CED7E0",
"%X c #D3DCE4",
"&X c #D6DFE7",
"*X c #DBE1E5",
"=X c #DDE3E9",
"-X c #E2E6EB",
";X c #E4E9ED",
":X c #EBEBEC",
">X c #E2E2E4",
",X c #ECEEF2",
"<X c #EEF1F3",
"1X c #F5F6F7",
"2X c #F8F7F7",
"3X c #F6F7F8",
"4X c #F8F7F8",
"5X c #F7F8F8",
"6X c #FAF9F9",
"7X c #F7F8F6",
/* pixels */
"                                                                                                                                ",
"                                                                                                                                ",
"                                                                                                                                ",
"                                                                                                                                ",
"                                                      @ + O O o 4     V O # + 3                                                 ",
"                                                      @ # O O O 3     A O O + 3                                                 ",
"                                                  6 h n M Q N Q W | | } W N M b i 8                                             ",
"                                                + . l @.$.=.=.-.=.{ [ @.=.$.@.{ - <                                             ",
"                                                f k M @.$.:.:.>.:.$.+.=.>.=.$.X.c c S                                           ",
"                                            3 O M +.$.&.-.0.t.t.0.9.9.8.0.9.=.$.+.X.g X A                                       ",
"                                            3 O M +.$.-.:.t.t.t.u.7.6.8.u.7.=.=.+...t @ V                                       ",
"                                            4 O B =.:.0.t.d.d.d.a.d.a.d.g.p.8.7.=.$.g . 9                                       ",
"                                            r * { &.;.0.t.d.g.d.g.g.g.d.g.p.e.0.&.*.f 1 V                                       ",
"                                        @ u k.C.c.v.S.0.t.d.g.g.g.g.d.d.d.p.8.4.D.v.C.C.^ O 9                                   ",
"                                        O r L./.^.b.G.0.t.d.g.g.g.d.d.d.g.p.t.4.M.b.~.(.^ o A                                   ",
"                                        $ e K.I.^.^.K.G.J.s.g.d.g.g.g.d.g.w.S.G.P.P.I.T.^ o A                                   ",
"                                        o e C.L.T./.^.n.K.f.d.d.d.d.d.d.g.J.n.m././.I.Z.( . A                                   ",
"                                        + e x.A.I.I.P.K.F.f.d.g.d.d.d.d.g.J.D.K.I.I.P.A.U o A                                   ",
"                                        + e N.b.b.b.G.t.t.d.d.d.d.d.d.d.g.d.e.4.M.m.b.m.L + A                                   ",
"                                        + e l.v.v.M.S.t.u.d.d.d.d.d.d.d.d.d.e.4.K.v.v.M.U + A                                   ",
"                                        + w 2.3.3.4.y.d.d.d.g.d.d.d.d.g.d.d.d.s.4.4.3.3.R o A                                   ",
"                                        + w *.>.e.r.i.d.d.d.d.d.d.d.d.d.d.d.d.d.e.t.9.<.m o A                                   ",
"                                        o w 1.8.i.p.d.d.d.d.d.d.g.d.d.d.d.d.d.d.d.a.t.0.n $ A                                   ",
"                                        . = ,.e.p.d.d.d.d.d.g.d.d.d.d.g.d.d.d.d.d.d.t.t.n . A                                   ",
"                                      h x b q.i.d.d.d.d.d.d.d.d.d.d.d.d.g.d.d.g.d.d.a.s.X.x E A                                 ",
"                                  9 @ g *.-.i.d.d.d.d.d.d.g.g.d.g.d.d.g.d.d.d.d.d.d.d.g.q.=.{ & 4                               ",
"                                  9 + g &.;.p.d.d.d.d.d.d.d.d.d.d.g.d.d.g.d.d.g.d.d.d.d.8.-.{ # 4                               ",
"                                  V + j :.6.p.d.d.d.d.d.d.g.d.d.d.d.d.d.d.d.d.d.d.d.d.d.i.t.o.# 4                               ",
"                                  V + j :.6.a.g.d.d.d.d.g.d.d.g.d.d.d.d.d.g.d.d.d.d.d.d.i.t.*.= d                               ",
"                                  8 X j :.6.a.d.i.e.i.d.d.d.d.d.d.d.d.d.d.d.g.d.d.d.i.t.i.d.q.X.{ i 7                           ",
"                                  A @ j :.9.a.d.u.t.i.d.g.d.d.g.d.d.d.d.d.d.d.d.d.d.t.e.i.d.u.=.@.= & G                         ",
"                                7 ( j.] -.;.u.i.8.6.e.g.d.d.d.i.p.g.d.d.d.g.d.d.d.d.e.6.e.i.0.=.o.= < H                         ",
"                              O + _ (.E.&.=.0.0.6.<.t.d.d.d.d.u.r.d.d.d.d.d.d.d.g.d.7.>.7.t.7.=.@.= < G                         ",
"                              A A ( j.' Q { >.0.<.,.7.i.p.d.d.r.e.d.d.d.d.g.d.g.d.d.7.>.9.>.;.=.@.= > G                         ",
"                                  A + O + = *.9.-.%.:.e.r.d.d.t.e.p.d.d.d.d.d.d.d.a.0.9.%.+.@.=.#.= < G                         ",
"                                    3 < o w o.9.=.%.,.8.e.d.d.u.r.p.p.d.g.d.g.d.d.d.7.>.#.{ { =...= > G                         ",
"                                        + = { +.+.+.%.9.6.t.u.p.d.7.<.u.g.d.d.d.d.d.7.>.n - j .. .= < G                         ",
"                                        q w { X.X.+.$.,.,.t.t.d.d.7.<.t.d.d.d.d.d.d.7.>.m O :  .{ d 2 H                         ",
"                                    2 F L.D.f : N @.N t x >.6.t.t.e.e.<.:.<.u.i.u.u.:.-.v o & ; g J                             ",
"                                  8 . K _.(.y . M @.v . t :.6.e.e.e.t.>.%.:.e.e.t.t.-.&.x . o o 4                               ",
"                                  9 . I {.'.k.' R l ! V.] v m ,.<.t.t. .x { :.<.e.0.B x ! V._ * 4                               ",
"                                  8 . I oX$X[.[.Y % _ @XT.# * *.7.t.t.v % l &.-.8.q.k % k.#XU.* <                               ",
"                                J ) Y ' $X#X}.}.V.T D.$X!.T T ~ O.>.e.v . t W  .>.5.j . V.*XQ.U U J                             ",
"                              1 4 ] OX$X=X=X=X=X:X1X:X=X*XoX].s - o.<.x . X X ; #.&.t . V.=XOX'.W.i 4 G                         ",
"                              p y V.#X#X=X=X=X=X1X1X:X;X*X@XXXY a  .%.b p p p z  .O.c p D.;X%X[.Q.p > G                         ",
"                          2 3 D.T.{.=X=X&X=X<X3X1X4X1X1X<X=X&XXX].I - H..X.X|.Q.t w F.XX*X5X=X[./.p & G                         ",
"                          y u U.}.OX&X&X=X;X3X3X4X4X6X7X<X=X=X-X@XT w F.;X=X;X}.K a Q.-X<X6X;X[.Q.p > G                         ",
"                      4 C K.L..X=XoX[.$X<X<X3X3X7X1X1X7X<X=X=X,X1X*X@X:X1X1X1X<X.X X:X1X7X7X,XoX'.a < G                         ",
"                      X p R./.$X=XoX).XX1X1X4X4X1X4X1X1X1X=X=X1X7X6X6X6X7X4X1X1X=X=X1X3X1X3X,X$X].a > G                         ",
"                      + a T.).{..X%X=X,X1X3X7X1X7X4X,X*X-X,X,X1X7X1X7X6X1X1X6X4X<X<X1X3X3X7X<X*X.Xa > G                         ",
"                      + a ).[.[.).%X7X4X3X3X3X7X1X6X;XOX%X1X4X4X4X6X6X6X6X6X6X6X6X3X1X3X7X3X<X=X.Xs > G                         ",
"                      6 S j.k._.%X-X7X4X6X1X6X1X1X4X,X=X;X1X4X6X1XE.G.F.F.F.G.E.:X6X7X7X3X7X<X=XXXa > G                         ",
"                          < #  X6X6X7X4X4X4X4X4X6X1X1X1X1X6X6X6X:XP . . o . . s >X6X6X6X1X1X,X-X+Xs @ H                         ",
"                          8 h Y.|.>X6X4X1X1X4X4X6X1X1X1X;X|.|.|.`.Y u u u u u K !.|.:X1X1X1X>X_.W.S 9                           ",
"                              e 1 H.6X4X7X7X4X7X4X4X,X;X!.y q q e / z.l.l.l.l.h.y r Q.-X>X;XW.r r                               ",
"                              & & H.:X:X:X:X:X:X:X:X>X@XE.q O + , / x.x.N.x.l./ , # E.@X+X@XE.1 2                               ",
"                                  F I P P P P P P P P P s # O $ , j.Z.Z.Z.j.u u # # s P Z P F                                   ",
"                                  V @ @ @ @ @ + + . . + $ O O $ e j.I.P.Z.h.o o + + @ @ @ @ V                                   ",
"                                    D D H D D D 3 $ O O O O O O # K U U U Z o 1 D D D H D D                                     ",
"                                                # O O + O $ o O O + $ $ $ $ $ 1                                                 ",
"                                                  6 6 6 6 6 6 7 7 6 6 6 5 6 6 V                                                 ",
"                                                                                                                                ",
"                                                                                                                                ",
"                                                                                                                                "
};
