/* XPM */
static char *_e3253a520144b5bf89cd41225c38ffdfN4mxA17hKmwmPqg[] = {
/* columns rows colors chars-per-pixel */
"64 64 235 2 ",
"   c None",
".  c #000000",
"X  c #01030A",
"o  c #0C0D0D",
"O  c #040A06",
"+  c #180103",
"@  c #09150A",
"#  c #040515",
"$  c #031714",
"%  c #141314",
"&  c #1D1D1D",
"*  c #171717",
"=  c #16120F",
"-  c #25171A",
";  c #31090B",
":  c #00221E",
">  c #24221C",
",  c #33291B",
"<  c #322105",
"1  c #0A1529",
"2  c #2D1927",
"3  c #0F252B",
"4  c #242424",
"5  c #2C2B2B",
"6  c #252727",
"7  c #322E2D",
"8  c #38262A",
"9  c #32312F",
"0  c #343333",
"q  c #3C3C3C",
"w  c #37383A",
"e  c #2F3031",
"r  c #540A0B",
"t  c #643704",
"y  c #56162A",
"u  c #47112A",
"i  c #44222A",
"p  c #562B33",
"a  c #44383A",
"s  c #4D3235",
"d  c #6D293B",
"f  c #4C3000",
"g  c #3A403F",
"h  c #765413",
"j  c #775206",
"k  c #45443D",
"l  c #674C3C",
"z  c #61412F",
"x  c #1C3C58",
"c  c #443F43",
"v  c #5A3A44",
"b  c #793A4B",
"n  c #6A3043",
"m  c #3C4242",
"M  c #36494E",
"N  c #444443",
"B  c #4B4A4A",
"V  c #484747",
"C  c #57494B",
"Z  c #4E5457",
"A  c #535353",
"S  c #5D5C5C",
"D  c #575956",
"F  c #4F514F",
"G  c #694C45",
"H  c #65585C",
"J  c #71504C",
"K  c #67645A",
"L  c #584F67",
"P  c #655B69",
"I  c #636362",
"U  c #6B6A6A",
"Y  c #6A6869",
"T  c #77756A",
"R  c #6D6570",
"E  c #737373",
"W  c #7B7977",
"Q  c #697171",
"!  c #935600",
"~  c #926916",
"^  c #A67606",
"/  c #A6730D",
"(  c #8A6936",
")  c #D77C3A",
"_  c #C97434",
"`  c #883C52",
"'  c #8D3753",
"]  c #A73B5C",
"[  c #9C3F60",
"{  c #AA3A63",
"}  c #A5004E",
"|  c #894557",
" . c #9B445D",
".. c #93445A",
"X. c #8A5652",
"o. c #A4435F",
"O. c #BA5E5A",
"+. c #926953",
"@. c #945968",
"#. c #8D5666",
"$. c #AD4464",
"%. c #A34C64",
"&. c #AB4C66",
"*. c #AC4D69",
"=. c #A34366",
"-. c #B24A66",
";. c #B24E6B",
":. c #B24467",
">. c #B4536E",
",. c #B9516E",
"<. c #BB5673",
"1. c #BA5B76",
"2. c #BB5B77",
"3. c #A6596E",
"4. c #976572",
"5. c #87726C",
"6. c #A9677A",
"7. c #AF7376",
"8. c #C66465",
"9. c #C1637D",
"0. c #D66F6A",
"q. c #D87452",
"w. c #BC912A",
"e. c #ECAE0C",
"r. c #FF8B27",
"t. c #FD9335",
"y. c #D0A113",
"u. c #FFCD00",
"i. c #AF8C49",
"p. c #898A79",
"a. c #9C8E79",
"s. c #B1876B",
"d. c #B8A67C",
"f. c #FD9745",
"g. c #EA894E",
"h. c #FFA142",
"j. c #D0AA74",
"k. c #FCAE74",
"l. c #DC9D51",
"z. c #105791",
"x. c #7B7F80",
"c. c #007BFA",
"v. c #8B7A90",
"b. c #BA798C",
"n. c #BA7687",
"m. c #B17486",
"M. c #C76C86",
"N. c #CB768C",
"B. c #D37B94",
"V. c #D57B96",
"C. c #CF7890",
"Z. c #0086F7",
"A. c #5B8DD5",
"S. c #5C9CE4",
"D. c #4799E8",
"F. c #7AA2DA",
"G. c #888785",
"H. c #9A9886",
"J. c #949494",
"K. c #999A9B",
"L. c #928896",
"P. c #B0908E",
"I. c #A9A594",
"U. c #B6B39C",
"Y. c #ADA295",
"T. c #9C9DA1",
"R. c #A898A9",
"E. c #AB94B3",
"W. c #AD99B3",
"Q. c #B39DBA",
"!. c #A68CB4",
"~. c #A2A3A5",
"^. c #B9B9A7",
"/. c #BCAABD",
"(. c #CB8598",
"). c #D8869C",
"_. c #D4949D",
"`. c #D5B58A",
"'. c #E5A78B",
"]. c #E8B091",
"[. c #DC8AA2",
"{. c #DA95A5",
"}. c #E38CA5",
"|. c #E58CA7",
" X c #E592AB",
".X c #EB93AD",
"XX c #ED98B2",
"oX c #ED96B0",
"OX c #F39CB6",
"+X c #F59EB9",
"@X c #F89BB8",
"#X c #C4B6BA",
"$X c #D1B0B5",
"%X c #F6A2BA",
"&X c #FAA2BD",
"*X c #F7A9BD",
"=X c #E9B7B9",
"-X c #EDAEB9",
";X c #E2978C",
":X c #D7C89D",
">X c #FCCA9A",
",X c #F9C69A",
"<X c #F3D49E",
"1X c #C8C8AD",
"2X c #C8C7B9",
"3X c #D5D1BB",
"4X c #FCCDA3",
"5X c #FACBA4",
"6X c #FED4A7",
"7X c #EED2B4",
"8X c #FFF3AD",
"9X c #A3B0CD",
"0X c #C7B9C2",
"qX c #FEA9C2",
"wX c #F8B6C4",
"eX c #ACD3E7",
"rX c #9BC1D9",
"tX c #CCC5C7",
"yX c #DDD8C7",
"uX c #D6CCC9",
"iX c #F8C7CB",
"pX c #FED7D6",
"aX c #E1D9CE",
"sX c #E7E6CA",
"dX c #ECEBD3",
"fX c #EBE6D2",
"gX c #F8E8D6",
"hX c #FDFEDC",
"jX c #F5F3D5",
"kX c #FFF4CA",
"lX c #FFECE2",
"zX c #FFFFE2",
"xX c #FFFFEA",
"cX c #FFF5EA",
"vX c #EEEEE9",
/* pixels */
"                                                                                                                                ",
"                                                                                                                                ",
"                                                                                                                                ",
"                                                                                                                                ",
"                                              q 7 0 9 0 7 H     c 0 7 0 B                                                       ",
"                                              $ . . . . O M     @ . . X q                                                       ",
"                                          S H | | | ` 3.b.n.M.n.n.n.@.' J D U                                                   ",
"                                        U . + ] :.-.$.).qX|.-.2.oX&XM.:.b . B                                                   ",
"                                        5.#.4._._.C.M.}.+X XN.C.*XwX[.N.3.p J                                                   ",
"                                m X 4 . 4.+XqXlXlXqXOX+X+X+XOXqXgXcXwX@XV.-. .$ w                                               ",
"                                C 8 s 4 4..XOXpXpX*XOXXX XoXXX%XpXgXwX*X[.2.%.O 6                                               ",
"                            m a [.XX XXXB.*.n.OX%X%X+XB.*.M.+X+X+X&XiXlXiXOX(.. 5                                               ",
"                            6 8 |.+XOX&X).o.9.XXXXOXOXC.$.M.+X%X@XOXpXlXiX@X).. 6                                               ",
"                                H v 3.9._.iXwX+XOXN.M.1.*.M.+XXXOXOX%XwX%X+X X..` C 0                                           ",
"                                q . b } {.cXpXqX%X2.&.;.*.M.&X%XOX+XOX@X+X+X X,.;.i $ Y                                         ",
"                                c . P.-X=XiX=X).C.| n O.q.0.B.V.OXOX[.C.}.%X|.>.*.i $ Y                                         ",
"                                N . $XcXpX@X|.*.%.; O _ h.g.=.<..X%X9.] N.%X|.>.*.i $ U                                         ",
"                                G ; $XlXwX[.}.8.O.L x X.) q.*.2.oX%XM.-.C.%X X>.*.i $ Y                                         ",
"                            0 4 =.$.=XcXXX{ 8.f.t.A.Z.z.. p *.<.oX%XM.o.C.&X X,.*.8 . Y                                         ",
"                            & - %.:.7XlX$X] 8.f.h.A.Z.z.. v >.2..XOXM.-.C.@X}.&. .v g                                           ",
"                            & - %.;. XqXm.. J ].,XS.Z.rXsXyX.X|.9.<.'.5X;X2.3.2 s                                               ",
"                            e - %.;.[.@Xm.. G >X6XS.c.eXhXgX@XXX<.$.].6X;X{ ... :                                               ",
"                                G y (.qX7.. G >X5XS.Z.eXhXpXOXoX1.&.@.+.7.[.C.` | C q                                           ",
"                                m X b.qXm.. G >X5XD.c.eXhXgX&XXX2.>.u O #.qXoX<.>.i $ Y                                         ",
"                                c . 6.|.4.. G ,X6X9XF.uXkX7XV.V...` J #.m.[.C.b b 8 * U                                         ",
"                                c . ' ,.b . l >X6X4X6X4X6X].:.$.O . N.qXV.:. .X . . % U                                         ",
"                                B 6 | %.J : G '.].5X4X>X>X'.=...s 5 (.wX(. .| w 0 0 w U                                         ",
"                                    V . S K.x.- + ].6Xk.f.) X 8 {. XiXlXY.O a L.J.J.J.I 4 V                                     ",
"                                    q . S ~.G.. O `.6Xk.t._ . 8  X@XpXlXY.. N K.T.T.T.Z . &                                     ",
"                                    q . 5 m G ) ) X.J K +.J O 7 {.@X(.N.@.. G aXdXsXdXjXdX^.w I                                 ",
"                                    q & + . t r.r.f X 1 M 3 O #  X&XM.{ b . F hXzXxXzX    ^.. V                                 ",
"                                      V V . l ,X>X( t a.1Xd.w./ N.V.#.n X.s.s.<X5X`.G.      B                                   ",
"                                          . D hXzXi.! :XxX8Xu.u.O.-.p . s.6X>Xr.r.r . W                                         ",
"                                        I O F yXsXj.i.:XfX<Xe.y. ...p . +.`.'.g.g.z $ S                                         ",
"                                    N 0 & . q J.R.dXhX2XT.H.^ ~ @ O @ @ ; r u Z Z 0 5 6 0 V                                     ",
"                                    N . % . q L.J.sXhX2XL.p.! ~ , % * @ i d d P I q 5 & . 0                                     ",
"                                B 5 B A g 6 5 7 5 J.^.E w a < , F F l ! P.sXsXsXsXK 4 6 o q                                     ",
"                                q . V I B 5 5 O . G.~.I X 4 # * A K ( ^ :XhXhXhXhXS . % % w                                     ",
"                                N . B S V 6 5 4 & A I A A N % 4 F D w.e.j.2X^.p.p.I.1XT . q                                     ",
"                                N . B S B 5 4 . X % & g B 0 . . D Z y.u.l.T.G.. . sXxXH.. N                                     ",
"                                F m B V q & q W W w X T I.G.A A N g ~ y.i.E Q P P K.1Xp.&                                       ",
"                                    0 . . . B vXvXD . U.xXdXI.J.4 O . O . . 5 E.E.2 .                                           ",
"                                    A V B m S tXtXF . Y.jX3XL.G.4 O 7 q c k H W.E.c > U                                         ",
"                                              4 . y y ..1.o.y y - . v.R.2XjXsXQ.E.c @ U                                         ",
"                                              6 o y y ' >. .y y - . v.Q.uXzXjXQ.E.q X R                                         ",
"                                              5 O `  .%.>.&.o.' 7 . ^.jXuX0X0XfXfXR.v.R 6 C                                     ",
"                                              5 . =.<.;.-.;.<.&.. . 1XxXaX!./.hXhX0XQ.R . q                                     ",
"                                              Y R J d #.P.4.n J H.I.#XyX0XW.0XhXhX#XE.R . q                                     ",
"                                                  B . Q ~.x.O e jXzXtX!.Q.E./.hXhX0XW.P . q                                     ",
"                                                  F . K H.T . 7 ^.3XR.v.R.#XtXfXfXtX0XE . m                                     ",
"                                                  B . j ^ ! # % . . . . H.hXdX/.Q.gXzXH.. a                                     ",
"                                                  B X h / h X % > > 6 . H.zXdXE.E.fXzXH.. B                                     ",
"                                              B w 1XdX^.H.5.. , ~ ~ s . H.zX3X2 0 R./.tXdXU.6 D                                 ",
"                                              4 . sXzX3XT.x.. . ! ^ f . H.zX3XO . L.E.aXxX1X. B                                 ",
"                                              5 X T p.U Z S E W :X:XH.U T p.T j h H P T p.p.                                    ",
"                                              & . . . . . F ~.^.xXxX2X~.W . + / / < . . X #                                     ",
"                                              I S S I q . g E W ^.^.G.E D @ 8 h h , o B I                                       ",
"                                                      N = . . . . . . . . o O X X X % U                                         ",
"                                                      B 0 5 0 0 w q 0 0 0 5 7 9 0 5 0                                           ",
"                                                                                                                                ",
"                                                                                                                                ",
"                                                                                                                                ",
"                                                                                                                                ",
"                                                                                                                                "
};
