/* XPM */
static char *c011635217d249498cc08fedbd1e8195v3D26znbW7szoaut[] = {
/* columns rows colors chars-per-pixel */
"64 64 28 1 ",
"  c #343434",
". c gray21",
"X c gray23",
"o c gray24",
"O c #434343",
"+ c #464646",
"@ c #4B4B4B",
"# c gray30",
"$ c #505050",
"% c gray33",
"& c #585858",
"* c #5D5D5D",
"= c #626262",
"- c #656565",
"; c #686868",
": c #6F6F6F",
"> c gray44",
", c #747474",
"< c gray47",
"1 c #7C7C7C",
"2 c #838383",
"3 c #868686",
"4 c #898989",
"5 c #8E8E8E",
"6 c #929292",
"7 c #979797",
"8 c #989898",
"9 c gray61",
/* pixels */
"##@@#@@@@@@@###@#@@#@@#@#####@@@@@@@@####@@@@@#@@####@@@@@@@@###",
"###$$#$$$$$$####$##$$$$#######$$$$$$$###$#$$$$$#$###$#$$$$$$$###",
"@%4655565556:o<7555655562O=5555655556*+2655655556<X:6565555564$@",
"@$5767777768>X<8677777674o=7777777767*+48678777681 >8688777675$@",
"@#,1<<<<<<<1=O;1<<<<<<<1>+&<1<<<<<1<<&@:1<<<<<<<1;+=,<<1<<<<<,$#",
"#$:>>>>>>>>,*+->>>,>,>>,;@%>>>>>,>>>>%@;,>>>,>,>>-+*,>>>,>,>>:##",
"@$>,,,,,,,,,*+-<,,,,,,,,:+%,,,,,,,,,,%@;<,,,,,,>,-+=,,,,,,,,,>##",
"##:,>,,,,,,,*+-,>,,>,,>,;@&,,,,,,,>,,%+:,>,>,,,,,;+*,,>,,,>,,:##",
"#$>,>,,>,,,,=+=,>,,,>,,,;+%,,>,>>,,,,%@:,>,,>,,>,-+*,>,,>,,>,>##",
"@$>,,,,,,,,,*+-<,,,,,,,,:@&,,,,,,,,,,&@;,,,,,,,,,-O=<,,,,,,>,,##",
"@#----------%@*---------=@%---------;$@=;-------;*@%;---------##",
"##&=*******=%@%=*****=**&@$**=*******##&=*****=*=&@$=******=**##",
"##%%%%%%%%&%$#$&%%%%%%%%%#$%%%&%%&%%&$#%%%%%%%%%%$#%%%&%$%&%%%#$",
"++O+OO##+OOO++OOOO@@@O+O+OO+O++@@+O+O+++O+O@#+O+OOO+O+O+#@OO+OO+",
"1<<<<1&+>1<11<<<<1;+=<<11<<<<1,$#<<<<<1<<<1=+;1<<1<<1<1>@&1<<1<<",
"889889;o59898989892X>9898989887%#7988889889, 29898988894O=998898",
"333233*O<333223223>O-4323323232##1332333234-O>333322323<+*332322",
">>>:::%@:>::>>>>>>=+&>::>>:>:>:$$::>:::>>>>*+->>>>>>>>>;@%>>:>>>",
",,,,,,&+;,,,,,,,,<-+=<>,,,,,>,>$#>,,,,,,,><*O-,,,,,,,,,;@%,,,,,,",
">,,,>,%@:,>,>,,,>,-@*,>,,>,,>,>$$>,,,>,>,,,*+-,,,,,>,,,:@%,,,,,>",
",>,,,,&@;,>,,,>,>,=+*,,,,,>,,,>$#>,,>,,,>,,*+-,>>,,,>,,;@%,,>,,,",
",,,,,,%+:,,,,,,>,<-+*,,,,>,,,,>$$>,,,>,,,,,=+;,,,,,>,,<;@&,>,,,,",
":::;::&@-:::::::::=@&:::::::::;$#:>:::;:::>&+=:::::::;>-@$::;:::",
"******$@&*********%@%=&*****&**##****=****=%@&********=&#$*=****",
"&&**&*$#&&*&&*&***%#%*&&*&&*&*&##&*&*&&*&**$#%*&*&*&&&*%#$&&*&&*",
"##@++@@++@+@@##++++@++@+@##++@@++@+++##@+@+@+@+++@##@@+@+@@+@+##",
"#$&=********%#%=*******=&@$**********$#&********=%@$*********&##",
"@$5867778778>X18777777785O=7777777778*+48777777791X>8777777786$@",
"@$4665666566:X<7556656663o=5656666666*+3755656567<X:7566565665##",
"##>,>,,,,,,<*+-,>,,,,>,,;@&,,>,,>,>,,%@;,,,,,,,,,-+*,,>,,,,,,>##",
"#$:,>>,>>>>,*+-,>,>>,,>,:+%>,>>>,>>>,%@;,>,>>>,>,=+*,>,>>>>,>:##",
"##:,,,,,,,,,*+-,,,,,,>,,:+&,,,,,,,,,,$@:<>,,,,>,,-+*<>,,,,,,,>##",
"##>,>,,,,,,,*+-,>,,,,,,,:+%,,,,,,>,,>%#:<>,,>,,>,-+=,,,>,,>,,>##",
"#$>,,>,>,>,,=+-,,>,>,>,,;@&>,>,>,,,>,%@;,>,,,,,,,-+*,,,,>,,,,>##",
"##:>>,>,>,>,*+-,>,>,>,>,:+%,>,>,,>>,,%@;,>,>>,>>,-+*,>>,,>,>,>##",
"##==========%@&-========*@$==========$@*========-%#%=========*##",
"##*****=****%#%=*=*****=&#$****=*****$#****=*****&@%**********$#",
"##$$$$$$$$$$##$$$$$$$#$$$#$$$$$$$$$#$##$$#$$$$##$$##$$$$$$$$$$##",
"+@@@++@#+@@++@+@++@@@@@++@@+++@##@+@+@@+@+@###@@@+@@@@+@##@+@+@+",
"333344*+<434433335>O-4333433342$#3433333344;o>443433334<+*333343",
"888788-o58888877781X:8778888897$#7878888889> 19888888794O=888788",
"112111*+>211122112:O=2111211<2<$#1211121112-O:3,11211<2,@&121211",
">>>>>>%@;>>>>>>>>,-+*,>>>>>>>>:##>::>>>>>>>*+=>>>>>>>>>;@%>>>>>>",
",,,,,,&+:,,,,,,,,,-+*,,,,,,,,,>$#>,,,,,,,,,*+;<,,,,,,,,:+%,,,,,,",
">,>,>,&+;,>,,,,,>,-+*,,,,>,>>,>$$>,,>,,,,>,*+-,,,,,>,>,;@&,,,>,,",
",,,,,,%@:,>,>,>,,,-+*,,>,,,,>,>$#>,,,,,>,>,*+;,,>,,,,>,:@&,,,,>,",
",,,,<,&+;<,,,,,,,<-+*<,,,,,,,<>$$>,,,,,,,,<=+;,,,,,,,,,:+%,,,,,,",
";;;;;;$@=:;;;;;;;;*@&;;;;;;;;;-$#;;;;;;;;;;&+*;;;;;;;;;=@%;;;;;;",
"******$#&********=%@%********=&##**********%@&=**=**=**&#$*=****",
"&&&&&%$$&&&%&&&&&%%#%&&%&&&&%&&$$&&&&&&%&&&$#%&%&&&%&%&&#$&%&&%&",
"##+OOO+++OOO@#@OOO+++OOO+@#OOOO++OOO+@@++OOO+OOOO+#@OOOO++OOOO##",
"@$;>::::::::&+=>:::>::::-@%::::>::::>$@-:::::::::=+*::::::::::##",
"@$6888898889, 19889889885o-8989888899=+59889988892 >9889899886$@",
"@$2544444445:o,5444444451+*4544444444*+1534444545>X:5544444452##",
"#$:>>>>>>>>>*#->>>>>>,>>;+%>>>>>>>>>>%@;,>>>>>>>>-+*>>>>>>>>>:##",
"##:,,,,,,,,,*+-,,,,>,,,,:@%,,>,,,>,,,$@:,>,,,>,,,-+*,,,,,,>,,>##",
"#$:,>,,,,,,,=+-,>,,>,,,,;@%,,,,,,,,,,%#:,,,,,>>,,-+*,,,>,,,,,:##",
"##:,,>,>>,,,*+-,>,,,>,,,:@%,,>,>,,,>>%@;,,>,,,,,,-O=,>,,>,>,,>##",
"@#:,,,,,,,,,*+-,,,,>,,,,:+&,,>,,,,,,,%@;,,,,,,,>,-+*<,,,,,,,,:##",
"#$:>>>::>>>>*+=,>>>:>>>>;+%>>>>>>>:>>$@;>>>>>>>>>-+*>>>>>>>>>:##",
"@#*==*==*=*=%@%==*==*=*=*@$=*=*=*=*==$@&=****==*=&#%=****=*=**##",
"##&&&*&**&**%@%*&*&**&**&@$&***&*&***$#&******&**%@%*****&***&##",
"##$###########$#############################################$###",
"########################################@#####@###########@#####"
};
