/* XPM */
static char *d5c652066f8140a3b635919e169adadc89Ks3165M200To0j[] = {
/* columns rows colors chars-per-pixel */
"32 32 202 2 ",
"   c None",
".  c #000000",
"X  c #0B0004",
"o  c #0D0608",
"O  c #110A0C",
"+  c #1A0009",
"@  c #0A130F",
"#  c #0D0012",
"$  c #110B15",
"%  c #09101F",
"&  c #1B1418",
"*  c #1E1A1B",
"=  c #171515",
"-  c #2B0400",
";  c #350C03",
":  c #311B00",
">  c #21161A",
",  c #221C1A",
"<  c #201D17",
"1  c #321E18",
"2  c #25230E",
"3  c #29231D",
"4  c #31241C",
"5  c #3C2B1A",
"6  c #36251B",
"7  c #021024",
"8  c #271D22",
"9  c #211D33",
"0  c #242224",
"q  c #292525",
"w  c #2B252B",
"e  c #2C2A2B",
"r  c #282826",
"t  c #312B2C",
"y  c #382A25",
"u  c #3D332D",
"i  c #373028",
"p  c #282E36",
"a  c #312D30",
"s  c #343234",
"d  c #3C3738",
"f  c #3D3C3C",
"g  c #3B3735",
"h  c #442505",
"j  c #40200A",
"k  c #542900",
"l  c #593C19",
"z  c #453325",
"x  c #443924",
"c  c #45352D",
"v  c #4E3628",
"b  c #47392D",
"n  c #4A3B2C",
"m  c #4E3B26",
"M  c #583B28",
"N  c #433D3C",
"B  c #433B37",
"V  c #6D3A21",
"C  c #733B26",
"Z  c #7E491F",
"A  c #4D4229",
"S  c #5D4323",
"D  c #56432B",
"F  c #44433C",
"G  c #5C4534",
"H  c #5D4C3A",
"J  c #694D2F",
"K  c #684728",
"L  c #7A492A",
"P  c #62502A",
"I  c #614A3A",
"U  c #6E533B",
"Y  c #6E583F",
"T  c #765A36",
"R  c #774834",
"E  c #7B613D",
"W  c #473D45",
"Q  c #3B4241",
"!  c #3E4842",
"~  c #3B4151",
"^  c #004D77",
"/  c #444344",
"(  c #4B4444",
")  c #4A4A46",
"_  c #4A454A",
"`  c #4C4A4B",
"'  c #47464B",
"]  c #524B45",
"[  c #524D4E",
"{  c #5A5147",
"}  c #4E4A51",
"|  c #474F51",
" . c #524D53",
".. c #594B5A",
"X. c #4D5555",
"o. c #525353",
"O. c #5A5759",
"+. c #5C5B5C",
"@. c #575458",
"#. c #6F4E48",
"$. c #704D44",
"%. c #675644",
"&. c #735745",
"*. c #72594B",
"=. c #635B5B",
"-. c #6A5E52",
";. c #76624D",
":. c #7A624A",
">. c #7C6042",
",. c #61625C",
"<. c #6A615F",
"1. c #746751",
"2. c #6C6A6B",
"3. c #676467",
"4. c #726B6A",
"5. c #75716E",
"6. c #7A746D",
"7. c #6C6C70",
"8. c #766C73",
"9. c #737375",
"0. c #7C7B7C",
"q. c #757976",
"w. c #805214",
"e. c #885630",
"r. c #A76434",
"t. c #876B4C",
"y. c #97664A",
"u. c #856A51",
"i. c #9A6851",
"p. c #8C7256",
"a. c #8A7557",
"s. c #977A5B",
"d. c #A46441",
"f. c #AF7850",
"g. c #BE795B",
"h. c #B47A44",
"j. c #846F63",
"k. c #857977",
"l. c #87756A",
"z. c #A87E6F",
"x. c #B27F68",
"c. c #C77E4C",
"v. c #BA855B",
"b. c #968362",
"n. c #848279",
"m. c #99887A",
"M. c #A58C6A",
"N. c #A58767",
"B. c #B99C7B",
"V. c #B49375",
"C. c #BEA378",
"Z. c #CB8251",
"A. c #D39153",
"S. c #C59E7C",
"D. c #D2A57C",
"F. c #EAA969",
"G. c #006F9C",
"H. c #0076B3",
"J. c #7D7D8A",
"K. c #788687",
"L. c #8B898C",
"P. c #888988",
"I. c #908A8C",
"U. c #8C8D91",
"Y. c #939193",
"T. c #9C9A9A",
"R. c #999A87",
"E. c #A29F97",
"W. c #A78881",
"Q. c #BBA280",
"!. c #A9A79F",
"~. c #BBA19B",
"^. c #9F9CA1",
"/. c #A39DA2",
"(. c #A4A2A3",
"). c #A9A9A4",
"_. c #A9ABAB",
"`. c #BEAEA5",
"'. c #B5B4AB",
"]. c #ABACB0",
"[. c #BBBAB6",
"{. c #CD9F82",
"}. c #D1A181",
"|. c #DAB985",
" X c #D7BC97",
".X c #E3AD80",
"XX c #FFBD83",
"oX c #E9B582",
"OX c #D8BBA9",
"+X c #ECC087",
"@X c #FFCB8E",
"#X c #CECCBF",
"$X c #DAD6BF",
"%X c #FDD0A2",
"&X c #C6BFC3",
"*X c #DCD9D0",
"=X c #D9DBCB",
"-X c #E7E3C8",
";X c #E6E8D7",
":X c #F2EDD6",
">X c #EDFCE8",
",X c #F6F4E0",
/* pixels */
"                    ^.K.).  L.U.K.9.q.9.                        ",
"                ,.U.l.h ,.  . - J ;.G : i                       ",
"              N / 0 V.s.5 g c %.b.B.s.*.m )                     ",
"              { 1.. u.M x t.t.n v p.S.b.T D g                   ",
"              B H ;.Y z 4 U V.s.D c :.t.E l G =.                ",
"                z :.b M M l N.N.s.D 6 m Y E z X =               ",
"                z S X p.f.e.T N.M.>.m 4 G *.i x ]               ",
"                y J . }.F.A.T q 1 I t.a.%.4 u.a.{ [             ",
"                2 c C D.F.k . %.*.+ . 2 b K U v ]               ",
"                f J.#.Z.V.^ '.M.J D Q.-.: J 5 x B               ",
"                    | i.V.H.>X|.Z T  Xj.. A X x ) 9.            ",
"                    ! }.#XG.;XoXr.S & 8 3 & & ,                 ",
"                    ! {.%X|.F.Z.Z 4 R.=X*X/.' &X                ",
"                    <.*.C.@Xc.L 4.!.-X-X[.5.Q L.OX              ",
"                    +.~ n.D.d.h 7.'.$X'.0.N +.. K.              ",
"              d Q  .. T.).- i.&.} ,.9 p @.8.8.+.p 7.            ",
"            / f d > . P.#X:X'.6.8 + 8 $ } 9.8.@.e 2.            ",
"            / ` 3.d . Y.[.).;Xm.X.T.,.t a +.@. .. +.            ",
"            / ` 3._ . m.m.F ,XE.| _.2./ a f _ w 0.(.            ",
"            o.f f Q % K L M -XR.# 3./ ' N t } . _.              ",
"                t s , X #.g.r.M w .. .f w & w F ' =.            ",
"                    ` . ; R ~.9.. 7 . . @ . . . 2.              ",
"                      r k.L.T.l.e.&.k.*.h Q (.8.                ",
"                          ].W y.g.x.`.z.V X.                    ",
"                          s ] q F 4.( ( u [                     ",
"                          a ) 0 / 2.' ) s [                     ",
"                        [ * s * g =.) ' s o.                    ",
"                      ` e s * o q N N ' t '                     ",
"                    / s O.2.d * o o O w t w Q                   ",
"                    / e g W e t O.2.g q e w `                   ",
"                        O.`   +.* / . . . . / [.                ",
"                              (.0.0.0.0.0.q.Y.                  "
};
