/* XPM */
static char *b28fed2c901d474abec43cb293151b481ZwX38TH3eQKrJpM[] = {
/* columns rows colors chars-per-pixel */
"64 64 244 2 ",
"   c #030101",
".  c #0C0101",
"X  c #0C050B",
"o  c #0E0A0B",
"O  c #0A0907",
"+  c #130100",
"@  c #1A0200",
"#  c #150D04",
"$  c #110C0E",
"%  c #1A0C08",
"&  c #1C130A",
"*  c #16120D",
"=  c #0A0A14",
"-  c #140C12",
";  c #190C14",
":  c #151114",
">  c #1A1415",
",  c #1D151A",
"<  c #1C1A1B",
"1  c #1B1916",
"2  c #091114",
"3  c #230C05",
"4  c #271405",
"5  c #371A0B",
"6  c #221C1D",
"7  c #261916",
"8  c #301C11",
"9  c #2A221A",
"0  c #372718",
"q  c #1D1B21",
"w  c #221D22",
"e  c #271F25",
"r  c #252324",
"t  c #2A2524",
"y  c #2C252B",
"u  c #2D2B2C",
"i  c #26262B",
"p  c #322D2E",
"a  c #342827",
"s  c #3B332B",
"d  c #37332A",
"f  c #2C2D31",
"g  c #322F30",
"h  c #333233",
"j  c #393434",
"k  c #3C3935",
"l  c #3B353B",
"z  c #3C3A3A",
"x  c #31363C",
"c  c #1B242B",
"v  c #5C350D",
"b  c #4C2914",
"n  c #4A381E",
"m  c #553B1B",
"M  c #522D1B",
"N  c #663D1C",
"B  c #453323",
"V  c #4B3A26",
"C  c #44352A",
"Z  c #49392A",
"A  c #553C29",
"S  c #4C3B31",
"D  c #413C3D",
"F  c #453B36",
"G  c #533E35",
"H  c #422E2C",
"J  c #603E23",
"K  c #3C433D",
"L  c #724A1D",
"P  c #4A402D",
"I  c #5C4224",
"U  c #53432B",
"Y  c #5B442B",
"T  c #44433C",
"R  c #4B4138",
"E  c #554434",
"W  c #5C4433",
"Q  c #5A4937",
"!  c #58503B",
"~  c #644A2C",
"^  c #664728",
"/  c #764728",
"(  c #6A5029",
")  c #644E38",
"_  c #744A37",
"`  c #63523B",
"'  c #6A5435",
"]  c #77583A",
"[  c #785628",
"{  c #6C532B",
"}  c #363B41",
"|  c #433D43",
" . c #3D4744",
".. c #25435F",
"X. c #2B5470",
"o. c #444344",
"O. c #4A4546",
"+. c #46454A",
"@. c #4A454A",
"#. c #4B4A4A",
"$. c #474B49",
"%. c #544A48",
"&. c #4C4B52",
"*. c #4A4654",
"=. c #534955",
"-. c #555354",
";. c #5B5455",
":. c #5C5B5B",
">. c #59575A",
",. c #535751",
"<. c #685645",
"1. c #735B43",
"2. c #785845",
"3. c #655A59",
"4. c #6F564D",
"5. c #5E605D",
"6. c #78654C",
"7. c #67645C",
"8. c #7B6958",
"9. c #716C56",
"0. c #615D64",
"q. c #695C63",
"w. c #646264",
"e. c #6A6669",
"r. c #6C6B6B",
"t. c #696867",
"y. c #746B69",
"u. c #6D746C",
"i. c #76736C",
"p. c #6F6C72",
"a. c #736E72",
"s. c #756876",
"d. c #737172",
"f. c #7A7776",
"g. c #6D787A",
"h. c #87573B",
"j. c #975838",
"k. c #94512B",
"l. c #85633D",
"z. c #9A6638",
"x. c #8B612F",
"c. c #A96639",
"v. c #A3552E",
"b. c #875B46",
"n. c #845C53",
"m. c #846B4D",
"M. c #8A6D4B",
"N. c #866748",
"B. c #976248",
"V. c #89714D",
"C. c #846C54",
"Z. c #866B55",
"A. c #897358",
"S. c #997959",
"D. c #996B56",
"F. c #A56C47",
"G. c #A87458",
"H. c #B97955",
"J. c #AC7149",
"K. c #8A7865",
"L. c #937A68",
"P. c #867A78",
"I. c #AB7D64",
"U. c #C87B5A",
"Y. c #7E8279",
"T. c #B48357",
"R. c #AD815A",
"E. c #9B8466",
"W. c #85837A",
"Q. c #998778",
"!. c #A88A68",
"~. c #B8906E",
"^. c #A68874",
"/. c #B69776",
"(. c #AE8E6F",
"). c #D89359",
"_. c #D18F52",
"`. c #CF9466",
"'. c #EEAE6E",
"]. c #E19D61",
"[. c #326994",
"{. c #2874AF",
"}. c #286094",
"|. c #8A8988",
" X c #96948E",
".X c #949493",
"XX c #9B9998",
"oX c #928E8E",
"OX c #B99C89",
"+X c #A69B95",
"@X c #A99789",
"#X c #BAA283",
"$X c #AAA59A",
"%X c #B1A79C",
"&X c #9C9FA4",
"*X c #ACABAC",
"=X c #A7A5A6",
"-X c #B3ABAA",
";X c #B8B5AB",
":X c #B3B2B2",
">X c #BBBBBB",
",X c #BAB8B7",
"<X c #B0B0B1",
"1X c #A39F9B",
"2X c #C2A684",
"3X c #D3BB9B",
"4X c #D5AF8C",
"5X c #C4BAB8",
"6X c #C7B7AD",
"7X c #DAAA8A",
"8X c #B9C0B9",
"9X c #FDC589",
"0X c #FBC897",
"qX c #EDCB9C",
"wX c #CAC7BA",
"eX c #CFCDB4",
"rX c #F9C8A4",
"tX c #EED2AA",
"yX c #BABBC4",
"uX c #C4BEC1",
"iX c #B9C4C3",
"pX c #CECBC3",
"aX c #C8C5C6",
"sX c #DBDADA",
"dX c #D9D6D5",
"fX c #D2D2CB",
"gX c #E2DCDB",
"hX c #DCE1D9",
"jX c #E7E2CD",
"kX c #E7E8DA",
"lX c #FDFBD9",
"zX c #FCF1C9",
"xX c #E1DFE2",
"cX c #CDECEA",
"vX c #E9E7E6",
"bX c #F2ECEB",
"nX c #F9F7E8",
"mX c #F4F4F4",
"MX c #FAF6F5",
"NX c #FCFAF5",
"BX c #F9F7F9",
"VX c #F5FCFD",
"CX c #FEFEFE",
"ZX c #F6F7F8",
/* pixels */
"CXCXCXCXCXCXCXCXCXCXCXCXCXCXCXCXCXCXCXCXaXuX8XiX:XhXCXCX5X>XuXyXyXyX8X8X8X8X8X8X,XbXCXBXCXCXCXCXCXCXCXNXCXCXCXCXCXCXCXCXCXCXCXCX",
"CXCXCXNXCXCXCXCXCXCXCXCXCXCXVXCXNXCXVXCXe..     O ;XCXMXD       X     O         . gXCXCXBXCXCXNXCXCXCXCXCXCXNXCXCXNXCXCXCXCXCXCX",
"CXCXCXCXCXCXCXCXVXCXCXCXCXZXCXCXNXCXVXCXP.@ s s   wXCXVX;.O a 9 8 0 9 9 8 9 0 a   kXCXZXCXCXCXVXCXCXCXCXCXCXCXCXCXNXCXCXCXCXCXCX",
"CXCXCXCXCXCXCXCXCXCXCXBXBXCXMXi.i.d.g.u.oX@XL.V V 3.f.a.p   B 8.1.K.^.Q.8.Z.<.E R r.t. XCXZXVXVXCXCXCXCXCXCXCXCXCXCXCXCXCXCXCXCX",
"CXCXCXCXCXCXCXCXCXmXCXCXCXCXbXO         ^.2X(.^ ` 9     . . P A.8.(.2X/.N.Z.2.A ! O   t.CXCXCXCXCXCXCXCXCXCXCXCXCXCXCXCXCXCXCXCX",
"CXCXCXCXCXCXCXCXZXCXCXCXbXdXsXR K d t * E./.!.A Y B F R C B U 1.' E./.!.D.S.M.' ' n # 9.kXsXbXBXCXCXCXCXCXCXCXCXCXCXCXCXCXCXCXCX",
"CXCXCXCXCXCXCXCXNXCXNXNX X  7 9.9.4.  4 2.Z.] @ . ` A.6.C.A.6.. # ` m.S././.!.N.N.' U S .   5XCXCXCXCXCXCXCXCXCXCXCXCXCXCXCXCXCX",
"CXCXCXCXCXCXCXCXCXCXNXCX|.    y.K.` . + 2.A.Z.3 + <.C.M.N.m.Q .   6.Z.A.2X/.!.l.M.( ~ U 0 . 5XCXCXCXCXCXCXCXCXCXCXCXCXCXCXCXCXCX",
"CXCXCXCXCXCXCXCXCXNXCXNXdX5XpX%.E ` <.<.' 1.) 3 + G 2.{ !.~.E.Q ` ! Q ` A.S.N.M.N.( ^ I A 8 P.-X=XZXCXCXVXCXCXCXCXCXCXCXCXCXCXCX",
"CXCXCXCXCXCXCXCXCXCXCXNXCXNXnXs + W A.8.' Q A @ + Z ~ ^ /./.!.M.A.A + . V V ( M.V.( m ~ Y ! 7 . O vXBXCXCXCXVXCXCXCXCXCXCXCXCXCX",
"CXCXCXCXCXCXCXCXCXCXCXNXNXCXMXC . W A.8.` E W 5 5 V I I (./.!.N.V.I 3 0 Q Q 2.m.m.' ^ ~ Y ` k 9 j bXCXCXZXBXCXCXCXCXCXCXCXCXNXCX",
"CXCXCXCXCXCXCXCXCXCXNXCXCXNXbXk . n ) ) 0 . M N.b.[ / { V.M.E././.S.1.m.8 4 8 0 4 6.m.1.3 7 7 . t vXCXNXCXCXCXCXCXCXCXCXCXCXCXCX",
"CXCXCXCXCXCXCXCXCXCXCXCXCXCXmXk   B ~ Y 0 . b ] h./ v v 6.M.R./.2XE.m.m.@ + O + 3 ] A.6.. + . . 7 NXNXNXNXNXCXCXCXCXCXCXCXCXCXCX",
"CXCXCXCXCXCXCXCXCXCXCXCXNXCXmXD . Z ^ I 0 . I `.`.J.c.c.l.[ V.E.E.m.] ] I W U U A <.4.` P E P U ! wXpXgXCXCXCXCXCXCXCXCXCXCXNXCX",
"CXNXCXCXCXCXCXCXCXCXVXCXCXCXbXj   Z ^ ^ 0 O C.rX9X'.).).[ N V . + n Y ) 6.V.V.V.8.C . C C.C.C.C.8.  . |.CXNXCXVXCXCXCXCXCXCXCXCX",
"CXCXCXCXCXCXCXCXCXCXCXVXVXCXmXk   C ~ ( 0 + ] 0X9X'._.].[ ^ R . . S Q Q m.m.6.8.8.S + B Z.C.m.C.8.%   Q.CXBXCXCXCXCXCXCXCXCXCXCX",
"CXCXCXCXCXCXCXCXCXCXCXCXBXCXmXj   9 S 0 2.N F.0X9X`.L ] n 0 S 4.4.G 8 s S S P R S S m I _ 1.W V R pXdXdXCXCXCXZXCXCXCXCXCXCXCXCX",
"CXCXCXCXCXCXCXCXCXBXCXCXCXCXbXK O     @ b.B.H.0X0XR.@     . V C.C.A + + + . .   + V [ ^ Y E b . 1 NXNXCXNXCXNXCXCXCXCXCXCXCXCXCX",
"CXCXCXCXCXCXCXCXCXCXCXCXCXBXVXh   K w.q.n.h.H.7XrX^.= ..,.9.' V.V.Y + 0 Y ' E + % A ( I U E V 4 s dXvXbXBXCXCXCXCXCXCXCXCXCXCXCX",
"CXCXCXCXCXCXCXCXCXBXCXNXCXCXMX#.  *XCXBXK.3 N H.H.P.}.[.cXlXtX] V.' U ] tXqXOX+ 8 A I n 4 @ s E R k .  XCXNXBXCXCXCXCXCXCXCXCXCX",
"CXCXCXCXCXCXCXCXCXCXBXCXBXZXVX    =XCXCXs.+ J G.G.d.}.{.cXlXqX[ z.[ m ] qXtX%X+ 0 P ) U #   Z ! !     |.ZXCXCXCXCXCXCXCXCXCXCXCX",
"CXCXCXCXCXCXCXCXNXVXCXBXCXCXmX:X=XdXZXCXW.+ _ 7X4XoX{.{.cXzXqXJ.T.x.L ( !.#XL.+ 4 0 P s o o d n F =X-XpXCXmXCXCXCXCXCXCXCXCXCXCX",
"CXCXCXCXCXCXCXCXCXCXCXBXCXCXBXCXCXCXCXCXP.. b.rXtX&X{.{.cXlXtX_.].z.v U @ . . 7 7 # . # = : & . 9 mXCXCXNXCXNXCXCXCXCXCXCXCXCXCX",
"CXCXCXCXCXCXCXCXCXCXCXCXCXBXCXBXCXCXMXCXW.@ b.rXtX$XX.X.jXzX0X).].z.m ! & 7       .   . q : .     bXNXCXCXNXCXCXCXCXCXCXCXCXCXCX",
"CXCXCXCXCXCXCXCXCXCXBXCXCXCXCXNXCXCXCXNXY.. b.rX0X3X3X3X'.'.].v.c.[ @ ! =X$X,XhXjX:X=XXXq   *XbXkXCXCXCXBXCXCXCXCXCXCXCXCXCXCXCX",
"CXCXCXCXCXCXCXCXCXZXCXCXZXCXCXZXCXCXBXCXY.. N.rX0X0X9X9X)._.U.v.B.b @ 0 ;X;XeXnXNXwX5X<Xq   aXBXCXCXZXCXCXCXCXCXCXCXCXCXCXCXCXCX",
"CXCXCXCXCXCXCXCXCXCXCXCXCXCXCXCXCXVXCXCXP.. n.3X4X4X9X9X).).H.h.6.4.;.i.eXeXeXlXkX,XXX.Xi   =XvXdXMXCXCXZXCXVXCXCXCXCXCXCXCXCXCX",
"CXCXCXCXCXCXCXCXCXCXBXCXZXCXCXZXVXVXVXCX|.9 F . O /.9X9Xc.j._ @ . +X;X8XzXnXeX$X;Xt.s T $.$.i X   bXBXCXCXCXZXCXCXCXCXCXCXCXCXCX",
"CXCXCXCXCXCXCXCXCXBXCXCXCXCXZXCXCXCXCXCX|.h +.  O /.rX0Xc.z.2.@   =X:XwXnXlXjX8X8Xd.d R o.$.g = f mXCXBXCXCXVXCXCXCXCXCXCXCXCXCX",
"CXCXCXCXCXCXCXCXCXCXCXBXCXCXVX*X*X<X:X*X5.  *.oX XQ.!.R.c.z.2.s y f..X X$X%X1Xf.|.e.3.w.w.0.&.f } =X=XaXCXVXCXVXCXCXCXCXCXCXCXNX",
"CXCXCXCXCXCXCXCXBXCXCXCXZXCXmX      . + :   0.yX8XY.O @ j.j.b.R =.3.e.3.: 2 c K i w.s.y.a.r.t. . .    |.CXCXVXVXCXCXCXCXCXCXCXCX",
"CXCXCXCXCXCXCXCXCXCXBXBXCXZXvXO.< D ;.O.d   -.>X8XY.9 ! b.D.2.R | 3.a.e.>.*. . .&.q.s.s.s.f.&.+.$.z   oXCXCXCXCXCXCXCXCXCXCXNXCX",
"CXCXCXCXCXCXCXCXCXCXCXCX&Xr ,.o.o.l ; 7 <   >.,X:XeXzXjX6X6X@Xd %.H a a 6 w w q : 0.p.s.a.a.>.o.o.f   .XCXBXCXCXCXCXCXCXCXCXCXCX",
"CXCXCXCXCXCXCXCXCXCXZXCX.X  2 o.+.g   ; :   >.,X;XjXnXnX,X;X XK @.;     .   X -   0.g.p.e.a.0.o.$.t   .XCXCXBXCXCXCXCXCXCXCXCXCX",
"CXCXCXCXCXCXCXCXCXCXCXCXXX  l #.:.$.e a r   >.:X:XwXeXwXfXpX;X1 z 5.d.t.o.z g ; - >.w.w.e.e.-.| o.u   .XNXCXCXBXCXCXCXCXCXCXCXCX",
"CXCXCXCXCXCXCXCXCXCXCXCX.X  j e.a.0.@.@.a   ;.5X;X|.,.5.kXNXwX    XXiX<Xu.f.:.  - |  .o.} +.| =.O.l   .XCXCXBXCXCXCXCXCXCXCXCXCX",
"CXCXCXCXCXCXCXCXCXVXCXCX.XO h r.a.0.@.O.y X 4.-X6X X9.i.jXnXwX    XXyX*Xu.t.,.  X } #.#.@.@.@.O.O.    |.CXCXCXCXCXCXCXCXCXCXCXCX",
"CXCXCXCXCXCXCXCXCXCXCXCX.X  f -.>.&.o.+.y . G ^.^.6.C %.jXnXfX  O t.|.|.:.,.,.z j | j k | =.D 9 h aXsXsXCXCXBXCXCXCXCXCXCXCXCXCX",
"CXCXCXCXCXCXCXCXNXCXCXCX|.O O o.T K  .$.i . b h.h.J + . hXlXwX  < ;.s.0.@.| | @.=.j t g *.*.p   r NXCXCXCXCXBXCXCXCXCXCXCXCXCXCX",
"CXCXCXCXCXCXCXCXCXCXBXCX=X$.:.T T K  . .i + M h.B.^ b A tXzXeX  * 3.s.s.@.| @.@.| a a j | +.k $ u sXvXmXCXCXCXCXCXCXCXCXCXCXCXCX",
"CXCXCXCXCXCXCXCXCXCXCXBXCXCXbX} r f i i w ; 3 4 @ b.H.H.c.B.h.@ & D =.| | =.} f g , $ 7 , = j O.O.}   XXCXCXBXCXCXCXCXCXCXCXCXCX",
"CXCXCXCXCXCXCXCXBXCXCXCXZXCXmXO     O   . , ; e @ n.`.H.v.k._ @ + j =.| *.*.| g g w X - ; X D | o.    W.CXCXCXCXCXCXCXCXCXCXCXCX",
"CXCXCXCXCXCXCXCXCXCXBXCXCXCXMX*X*X*X<X=X;.  , ; @ <.D.B.I.OXP.e p F | } } x g 6 9 > $ , 6 X u h z =X=XdXCXZXCXBXCXCXCXCXCXCXCXCX",
"CXVXCXCXCXCXCXCXCXBXCXCXCXCXBXCXNXNXCXCXY.  l 7 ; H F G -X5X+XH Q 0 + ; 2 2 O ; # % < - 6 t < o y mXCXNXZXCXCXCXCXCXCXCXCXCXCXCX",
"CXCXCXCXCXCXCXCXBXCXCXCXVXCXCXbXCXZXBXCXd.        t D D :XyX1Xs W 5 @ X     X @ @ # : O O         bXCXVXCXCXZXCXCXCXCXCXCXCXCXCX",
"CXCXCXCXCXCXCXCXCXCXCXCXCXCXCXCXCXCXCXCXvXhXhXhXxXaX+X=Xs.q.Z.D.G.F.G.L.+X=X^.J N.B   t.sXvXvXxXvXBXCXBXNXCXCXCXCXCXCXCXCXCXCXCX",
"CXCXCXCXCXCXCXCXCXZXCXCXBXCXBXBXCXCXCXNXCXNXVXVXVXsXyXyXq.7 b.~.U.U.U.I.6X5X7Xb.B.A   g.NXCXCXCXZXCXCXCXBXCXCXCXCXCXCXCXCXCXCXCX",
"CXCXCXCXCXCXCXCXCXCXBXCXCXNXCXCXCXBXCXCXZXCXVXVXBXdXoX*X;.S 2.D.F.G.G.I.%X+XI.b.n.A   g.CXNXNXCXCXCXCXBXCXCXCXCXCXCXCXCXCXCXCXCX",
"CXCXCXCXCXCXCXCXCXCXCXCXCXCXCXCXCXCXCXCXZXCXNXCXCX*X  q O.D S + + 4.y.8.D D F E G a   d.CXCXCXCXCXCXCXCXCXCXCXCXCXCXCXCXCXCXCXCX",
"CXCXCXCXCXCXCXCXCXCXCXCXCXCXCXCXVXCXVXCXCXZXCXBXCX<X  u | ;.j :   :.r.r.O.+.#.O.$.u O d.CXBXCXCXCXCXCXCXCXCXCXCXCXCXCXCXCXCXCXCX",
"CXCXCXCXCXCXCXCXCXCXCXCXCXCXCXCXCXCXVXNXCXmXCXVXCX*X  u z #.j >   :.p.t.$.O.#.o.+.u   a.CXCXCXCXCXCXCXCXCXCXCXCXCXCXCXCXCXCXCXCX",
"CXCXCXCXCXCXCXCXCXCXCXCXCXCXCXCXCXCXCXCXCXCXCXCXCX:X  h o.O.z $   >.d.t.O.o.O.o.+.u   a.CXCXCXCXCXCXCXCXCXCXCXCXCXCXCXCXCXCXCXCX",
"CXCXCXCXCXCXCXCXCXCXCXCXCXCXCXCXCXCXCXZXCXCXVXmXNX*X  t z +.D : O ;.p.t.O.O.O.O.O.u   d.VXCXCXCXCXCXCXCXCXCXCXCXCXCXCXCXCXCXCXCX",
"CXCXCXCXCXCXCXCXCXCXCXCXCXCXCXCXBXCXCXCXCXVXvXo.-.z O 6 6 6 > -   D &.%.o.| o.o.O.u   d.CXCXCXCXCXCXCXCXCXCXCXCXCXCXCXCXCXCXCXCX",
"CXCXCXCXCXCXCXCXCXCXCXCXCXCXCXCXCXCXCXCXZXCXvX          o o - > X F O.O.O.#.#.#.$.g   d.VXCXCXCXCXCXCXCXCXCXCXCXCXCXCXCXCXCXCXCX",
"CXCXCXCXCXCXCXCXCXCXCXCXCXCXCXCXCXCXCXCXsXsX5X< g | o.D t 6 > > $ p D D D l k o.z u   0.dXdXvXCXCXCXCXCXCXCXCXCXCXCXCXCXCXCXCXCX",
"CXCXCXCXCXCXCXCXCXCXCXCXCXCXCXCXCXCXCXCXa.    +.o.w.p.d.z y t > - $ : . -   , p f y h <     >XCXCXCXCXCXCXCXCXCXCXCXCXCXCXCXCXCX",
"CXCXCXCXCXCXCXCXCXCXCXCXCXCXCXCXCXCXMXCXf.  z #.o.3.i.y.D y g   - .   O $ > r p u g u y x O >XCXCXCXCXCXCXCXCXCXCXCXCXCXCXCXCXCX",
"CXCXCXCXCXCXCXCXCXCXCXCXCXCXCXCXCXNXCXCXY.  f f u z O.} u r g l z &.:.:.u t 6 6 < u u r u   8XCXCXCXCXCXCXCXCXCXCXCXCXCXCXCXCXCX",
"CXCXCXCXCXCXCXCXCXCXCXCXCXCXCXCXCXCXCXNXa.                  o -.O.e.f.y.p h r $ $ r j i 9   aXCXCXCXCXCXCXCXCXCXCXCXCXCXCXCXCXCX",
"CXCXCXCXCXCXCXCXCXCXCXCXCXCXCXCXVXCXCXCX.X#.:.:.:.0.>.:.>.w.;.z z ,.r.w.u u r o > r r r f   ,XCXVXNXCXCXCXCXCXCXCXCXCXCXCXCXCXCX",
"CXCXCXCXCXCXCXCXCXCXCXCXCXCXCXCXCXNXBXCXBXVXCXBXCXZXNXCXZXCXfX  z g u y r p h r r u u u h   aXCXCXCXCXCXCXCXCXCXCXCXCXCXCXCXCXCX",
"CXCXCXCXCXCXCXCXCXCXCXCXCXCXCXCXCXCXCXZXCXCXBXCXCXCXCXCXCXCXfX                          O   >XMXCXCXCXCXCXCXCXCXCXCXCXCXCXCXCXCX",
"CXCXCXCXCXCXCXCXCXCXCXCXCXCXCXCXCXCXBXCXCXNXCXBXCXCXCXCXVXCXvX=X*X*X*X*X*X*X*X*X*X*X=X=X*X=XsXCXCXCXCXCXCXCXCXCXCXCXCXCXCXCXCXCX"
};
