/* XPM */
static char *_6c49f3eaac7456fbcab4448e1e685f41Dv6MAWVqZzIwP7M[] = {
/* columns rows colors chars-per-pixel */
"64 64 226 2 ",
"   c None",
".  c #151415",
"X  c #181717",
"o  c #171817",
"O  c #191916",
"+  c #161618",
"@  c #1A161B",
"#  c #171818",
"$  c #1A191A",
"%  c #0F0E10",
"&  c #221D1B",
"*  c #221F17",
"=  c #1D2119",
"-  c #24221B",
";  c #28261C",
":  c #332F1E",
">  c #1B1A23",
",  c #1D1620",
"<  c #241625",
"1  c #251A24",
"2  c #2C152D",
"3  c #271629",
"4  c #2E1631",
"5  c #3B1A3D",
"6  c #361737",
"7  c #1F2127",
"8  c #242323",
"9  c #2A2523",
"0  c #2B2827",
"q  c #392D2A",
"w  c #373526",
"e  c #2A2B3A",
"r  c #3B3C3D",
"t  c #35363A",
"y  c #332D30",
"u  c #453926",
"i  c #4A3B38",
"p  c #523B39",
"a  c #411E3E",
"s  c #39442A",
"d  c #51482E",
"f  c #564A37",
"g  c #5A5234",
"h  c #504B2F",
"j  c #645836",
"k  c #604B3F",
"l  c #576E3D",
"z  c #5A743E",
"x  c #6C643C",
"c  c #7C6A3B",
"v  c #7E703F",
"b  c #3D1941",
"n  c #3A3845",
"m  c #353655",
"M  c #2E336A",
"N  c #471B4A",
"B  c #501B50",
"V  c #48224A",
"C  c #562558",
"Z  c #522F52",
"A  c #5D2862",
"S  c #4A3966",
"D  c #663369",
"F  c #613F4B",
"G  c #3E4149",
"H  c #434345",
"J  c #484749",
"K  c #584C44",
"L  c #565758",
"P  c #514D53",
"I  c #67554C",
"U  c #6C5550",
"Y  c #667745",
"T  c #7B685F",
"R  c #72694B",
"E  c #6C586C",
"W  c #64666A",
"Q  c #787678",
"!  c #756C71",
"~  c #5B5E63",
"^  c #846B3A",
"/  c #8B753C",
"(  c #91783C",
")  c #877B46",
"_  c #907C48",
"`  c #8B756B",
"'  c #987B6A",
"]  c #8E7B73",
"[  c #5F824D",
"{  c #648845",
"}  c #7C9A4C",
"|  c #748E4F",
" . c #768A78",
".. c #8A824C",
"X. c #9A8747",
"o. c #9D9354",
"O. c #8E914F",
"+. c #A28C49",
"@. c #A5924B",
"#. c #A9944C",
"$. c #AC994D",
"%. c #B09D4E",
"&. c #A49A53",
"*. c #A89853",
"=. c #B29E52",
"-. c #83A44C",
";. c #8AAB4F",
":. c #88A653",
">. c #94AC52",
",. c #95B354",
"<. c #9AB75A",
"1. c #9AA74E",
"2. c #ADA559",
"3. c #B4A253",
"4. c #BBAA56",
"5. c #BEAD5A",
"6. c #B6A65B",
"7. c #B8B159",
"8. c #9C8876",
"9. c #AE8B71",
"0. c #8CA969",
"q. c #B6AE6F",
"w. c #C2B35B",
"e. c #C6B95D",
"r. c #CABC5E",
"t. c #C1B056",
"y. c #C49A7C",
"u. c #CBBD62",
"i. c #C5B865",
"p. c #C5BB79",
"a. c #CDC15F",
"s. c #CEC161",
"d. c #D1C563",
"f. c #D6C966",
"g. c #DACE6A",
"h. c #D5CA68",
"j. c #DED36B",
"k. c #D5CB7A",
"l. c #E1D56D",
"z. c #E5D971",
"x. c #333B88",
"c. c #3A4995",
"v. c #4C5889",
"b. c #595795",
"n. c #706F8D",
"m. c #4443AB",
"M. c #4857A1",
"N. c #6B6DBA",
"B. c #6D71B5",
"V. c #7778B4",
"C. c #6F6FA9",
"Z. c #636099",
"A. c #8D7BA9",
"S. c #7B848F",
"D. c #7D83BA",
"F. c #838486",
"G. c #998C85",
"H. c #8B8899",
"J. c #949699",
"K. c #929392",
"L. c #A19285",
"P. c #AC9D8F",
"I. c #B89888",
"U. c #A69795",
"Y. c #B1AA90",
"T. c #999EA4",
"R. c #9185B5",
"E. c #8B96BA",
"W. c #8E90AC",
"Q. c #A497B2",
"!. c #9CA2A8",
"~. c #95A3BA",
"^. c #A6A5A8",
"/. c #B4B7BB",
"(. c #ABACB4",
"). c #8EA991",
"_. c #C29D8F",
"`. c #C9B899",
"'. c #D0AA92",
"]. c #C8B3A5",
"[. c #CAB5AE",
"{. c #E8BCA7",
"}. c #E3BDB1",
"|. c #E3B49D",
" X c #B1C1B6",
".X c #E4C888",
"XX c #E7C494",
"oX c #DBCDB5",
"OX c #EBC1AC",
"+X c #E6C0AD",
"@X c #EBCAB6",
"#X c #EDD2BD",
"$X c #E5D1BC",
"%X c #F1C9B4",
"&X c #CBC380",
"*X c #8B98C1",
"=X c #9BABC2",
"-X c #95A2C0",
";X c #AAB7C9",
":X c #B8BDC2",
">X c #B7C0CD",
",X c #BBC5D4",
"<X c #C2CBD8",
"1X c #CBD4D8",
"2X c #D5D8DB",
"3X c #D5C6C2",
"4X c #ECD5C2",
"5X c #EED9C4",
"6X c #E7D4CB",
"7X c #F2DBC6",
"8X c #F2DAC7",
"9X c #EEDFD2",
"0X c #F0DED2",
"qX c #CDD8E3",
"wX c #D5DCE5",
"eX c #DCE3EA",
"rX c #DAE2E7",
"tX c #E2E6EB",
"yX c #E7E8EB",
"uX c #EBEDF1",
"iX c #E3EAF1",
"pX c #EDF0F4",
"aX c #F3F3F4",
"sX c #FBFAFB",
"dX c #F8F7F7",
"fX c #F9EFEB",
/* pixels */
"                                                                                                                                ",
"                                                                                                                                ",
"                                                                                                                                ",
"                                                                                                                                ",
"                                                                      & $ @ o o X N                                             ",
"                                                                    b @ + + o @ X N                                             ",
"                                                                    F u d d d d d F                                             ",
"                                                        @ @ @ , @ @ f X.X.=.*.$.=.R & 2                                         ",
"                                                        & & - 8 9 ; j X.@.=.=.=.3.R O 1                                         ",
"                                                  6 + u c ) X.X.@.*.3.4.4.r.r.r.u._ O $ @ @ A                                   ",
"                                                  6 . u ( X.=.=.4.w.5.5.w.a.a.a.d...O O X * A                                   ",
"                                              b a f j c #.%.t.t.e.e.e.e.r.f.f.d.s.$.j j x U K 5                                 ",
"                                              . $ x +.#.t.w.u.s.s.s.s.a.d.j.l.d.s.5.+.+.$.=.g . 2                               ",
"                                          N V m P ` #.=.e.e.d.r.w.5.e.s.d.j.j.a.e.4.#.*.6.5._ f k V                             ",
"                                        b , n N.B.8.%.4.a.d.u.u.3.%.5.s.d.j.j.r.4.4.=.=.u.u.w.=._ & <                           ",
"                                        b @ e B.V.G.o.6.r.u.r.i.3.$.4.s.d.j.j.u.i.4.#.#.w.w.t.=...* 3                           ",
"                                        b @ t E.-XD.B.H.w.w.w.5.#.+.3.u.u.l.l..X{.y.^ ^ ( _ 3.s.&.- <                           ",
"                                        5 + t ~.-XV.N.H.5.5.5.5.+.+.3.u.d.k.l.XXOXy.^ ^ ( ( %.d.*.= <                           ",
"                                        b . e D.D.*XE.~.Y.T.K.K.6.4.u.g.i.x R Y.%XI.u u ^ ( 3.d.&.- <                           ",
"                                        b % e C.N.*X=X=X=X*XN.C.q.u.g.z.5.& $ P.7XL.X - ^ ( %.d.&.- <                           ",
"                                        i u K H.H.E.*X*X*XE.H.K.p.h.7.&...- $ P.7XL.O ; v ( 3.d.&.O <                           ",
"                                    @ X j *.2.u.p.H.N.N.N.W.i.s.g.z.) @ X X $ P.7XL.o ; ^ ( %.d.&.- <                           ",
"                                    - - x =.6.r.u.K.C.B.B.H.s.a.f.j.) 8 8 > 1 P.8XL.X - ^ ( $.i.o.9 4                           ",
"                          4 2 2 4 6 ) o.6.r.r.r.a.p.I.q.q.q.g.g.3.$.Y.>X~.M M ^.8XL.$ ; *.e.R w i                               ",
"                          @ o . o - @.5.r.a.a.u.a.s.s.r.t.r.l.g.$.X.`.uX,Xx.x.Q.7XL.$ 0 7.d.x . 4                               ",
"                          h j j x x 3.e.s.h.f.s.s.a.s.w.%.4.l.g.%.X.`.aX<Xc.c.(.8XL.$ - x R U 4                                 ",
"                      < O ^ =.3.w.w.a.a.f.j.j.s.d.u.s.5.X.3.j.g.$.X.`.sXqXM.c./.7XL.X @ O $ C                                   ",
"                      q : _ 3.=.4.5.a.a.f.j.d.2.2.2.2.&.) o.g.g.%.#.&XfXqXZ.Z.[.8XL.X @ 2 6                                     ",
"                  < q X.o.6.t.3.%.3.f.j.f.s.2.w 9 9 9 ; - g s.a.f.g..X%X}.3X3X4X8XL.@ <                                         ",
"                1 $ : &.=.6.t.4.%.3.h.j.f.r.&.8 $ $ $ > $ h e.a.g.l..X{.OX8X4X4X4XG.& 2                                         ",
"            N 6 k / ) 6.4.#.X.%.d.d.d.h...h I ).T.!.!.!.^.F.g g e.l..X{.OX#X4X` K E                                             ",
"            3 . j 3.3.5.t.+.^ #.j.j.d.h.x % t ,XqXrXtXiXiX!.# = 6.l..X{.OX4X4XP % N                                             ",
"            2 . j =.@.) ) @.$.4.h.f.o...R ~ n.qXrXrXrXrXeX/.~ Y i.g.k.Y.q.L.L.! ~ E                                             ",
"            2 o j =.X.; O o.l.g.s.w.w o F.eXyXaXdXiXrXrXrXwXqX1X&Xs.>.{ l $ $ ^.eXT.1 2                                         ",
"            6 < j @...- o o.l.f.7.2.w +  .1X1X9XeXeXeXeXrXrXqX1X&Xs.1.{ z : ; J.1XK.1 6                                         ",
"                q 0 0 o o X.f.o.w w $ $ 0 n r r f /.dXuXrXrXeX2Xp.w.2.;.;.} } K t D                                             ",
"                  @ @ @ * X.d...O X X X # + o X $ (.sXaXrXrXrX2Xp.7.2.,.,.,.,.s o V                                             ",
"                  A C < O ..r...O O X $ o + 0 ` ] Q ! ^.uXiXwX1Xq.1.,.,.,.,.,.{ z I 6 b                                         ",
"                      < O ..e...X # X $ @ . r |.{.f % ~ dXpXqX1X0.} ;.,.,.,.,.,.<.Y X 3                                         ",
"                      6 4 R X.x $ $ X X w J U {.}.T d ! >X X X X0.} -.,.,.;.,.,.,.Y $ 3                                         ",
"                          1 O $ X O $ $ ` 4X$X4X#X+X{.8.1 s [ [ { { } -.:.} ;.;.} z $ $ > < C                                   ",
"                          < 3 & $ $ > 1 Q 6X6X4X#X}.{.' . w Y [ [ [ } } } } } } } Y - = > > A                                   ",
"                              C $ > M M b.N.A.}.}.T f q # e v.v.v.v.S. X).s s w w g ' ] Z.b.S 4 b                               ",
"                                @ > m.m.m.m.Z.}.{.K % o o e m.m.m.m.D.>XT.7 % o o f '._.A.N.m + 4                               ",
"                                < 1 C.R.A.R.R.` ` q X $ @ V A.A.D.E.).). .7 # # o Z U.Q.Q.Q.F.T E V N                           ",
"                                @ 9 `.5X6X8X].& o X X X X K {.{.$X4XY.[ l = # # o m B.V.3X6X5X7X].& 3                           ",
"                              C @ 0 `.5X#X7X_.8 X X X * 9 U {.{.#X4XY.} Y = # # o n Z.C.}.@X$X#X_.- < D                         ",
"                          < 3 < + 0 ].5X@XOX_.8 X X X p ' 9.{.{.#X#X$XoXY.8 # # o = > e I.'.|.}.I.- 2                           ",
"                          X o o # 0 ].5X@XOXI.; X $ o p 9.y.|.{.#X4X4X7X].9 O o # X X 9 9.'.|.OXI.- 3                           ",
"                      b b n.K.W $ $ L U U I T T.^.8.' 9.y.' U ^ '.@X@X4XoXL.8.U.^.! @ $ p f I I K > 3                           ",
"                      < o T.wXT.$ # % . . % G uXsX4X{.|.'.' $ & _.OX@X4X4X5X7XfXsX^.@ o . % % . . $ <                           ",
"                    D P J ~.wXJ.$ = J P J G W eXaX6X#X].8.U $ - ` I.].9X9X9X9XyXdX/.H H P L L L J $ 1                           ",
"                  & r >X,XwXiX!.$ 8 :XrX>X~.;XrXtXuXsX^.- O @ # $ @ F.dXdXdXdXyXeX<X~.(.tXpXaXaX>X; <                           ",
"                  . t <XwXrXeX!.$ 8 /.qX>X~.;X1X2XtXfX!.X O o $ @ o Q fXuXdXdXtXrX<X=X;XuXsXaXuX/.0 4                           ",
"                  + n rXpXiXeX!.# $ n h K.qX;XP Z H J t X X X X # o y H W 2XiX,X;X,XiXiXdXsXK.Z P                               ",
"                  o s yXsXiXeX!.> + . . S.eX/.7 . . . o $ $ $ @ @ @ X . G 1XrX;X-X,XsXsXsXsXQ % 4                               ",
"                  o s iXdX(.F.n.C C 1 o S.tX:X8 @ V C C C C C C C C 5 . H 1XrX;X=X~.K.K.K.K.! C B                               ",
"                  . i yXsX~ % 6     X o F.iX:X8 <                   V X G 2XeX>X=Xn.= . . + A                                   ",
"                  N D ^.(.E B B     N N ! !.S.- <                     @ t J.!.S.n.E V B V N                                     ",
"                      1 @               N $ X X &                   N $ o $ o # $ V                                             ",
"                      4 3               N < 3 3 2                   B 3 1 < < < < N                                             ",
"                                                                                                                                ",
"                                                                                                                                ",
"                                                                                                                                "
};
