/* XPM */
static char *result[] = {
/* columns rows colors chars-per-pixel */
"64 64 209 2 ",
"   c #357D2D",
".  c #3C7934",
"X  c #47783A",
"o  c #597D3D",
"O  c #585E55",
"+  c #635F5D",
"@  c #4C6E45",
"#  c #526A4C",
"$  c #5E7545",
"%  c #5C7647",
"&  c #576751",
"*  c #4C7242",
"=  c #64744B",
"-  c #667B47",
";  c #696955",
":  c #736C58",
">  c #697151",
",  c #7A7A50",
"<  c #7A7E4F",
"1  c #6B5A67",
"2  c #7E5D6A",
"3  c #7D6861",
"4  c #99612D",
"5  c #A07626",
"6  c #B15353",
"7  c #8E7D57",
"8  c #8F775D",
"9  c #B5644A",
"0  c #815E6C",
"q  c #965878",
"w  c #956B69",
"e  c #9E706A",
"r  c #A26D6D",
"t  c #BF6E7D",
"y  c #BB787F",
"u  c #CC725D",
"i  c #CE5F71",
"p  c #DE7872",
"a  c #D66D70",
"s  c #E47974",
"d  c #288D19",
"f  c #2B9315",
"g  c #239310",
"h  c #339914",
"j  c #399C13",
"k  c #3B921D",
"l  c #3E9919",
"z  c #349617",
"x  c #319714",
"c  c #39A20F",
"v  c #328523",
"b  c #3B8C22",
"n  c #3A822A",
"m  c #2C8026",
"M  c #449A1B",
"N  c #4A9A1E",
"B  c #44951F",
"V  c #529D1F",
"C  c #48AC0E",
"Z  c #59B80E",
"A  c #48A416",
"S  c #52A41A",
"D  c #57AB16",
"F  c #56B512",
"G  c #4FB20D",
"H  c #64AA1D",
"J  c #6BAD1F",
"K  c #65B515",
"L  c #6CBA15",
"P  c #65B219",
"I  c #6AB41A",
"U  c #60B910",
"Y  c #72B41C",
"T  c #7DB51F",
"R  c #74B919",
"E  c #7CB91E",
"W  c #76BF15",
"Q  c #438F24",
"!  c #498B2A",
"~  c #508B2D",
"^  c #449122",
"/  c #4D9523",
"(  c #4D9A20",
")  c #519624",
"_  c #539A22",
"`  c #5A9D23",
"'  c #5A912D",
"]  c #4E8333",
"[  c #558933",
"{  c #66982E",
"}  c #628938",
"|  c #659635",
" . c #799837",
".. c #729E2E",
"X. c #5FA123",
"o. c #62A322",
"O. c #6AA723",
"+. c #6DAA22",
"@. c #66A820",
"#. c #74AE22",
"$. c #77A52B",
"%. c #76B121",
"&. c #7DB521",
"*. c #7AB428",
"=. c #7AA931",
"-. c #7AC41C",
";. c #75D116",
":. c #7C8F46",
">. c #81B71F",
",. c #81BB1F",
"<. c #B78B34",
"1. c #80B721",
"2. c #82B921",
"3. c #88BD24",
"4. c #8ABE2A",
"5. c #9AB939",
"6. c #C4963D",
"7. c #C9AC37",
"8. c #CFBB2E",
"9. c #89CD1E",
"0. c #84C41E",
"q. c #8EDA1F",
"w. c #8BCA22",
"e. c #88C425",
"r. c #92C42C",
"t. c #92CC2A",
"y. c #9CDD2A",
"u. c #92D923",
"i. c #9DCB32",
"p. c #97C632",
"a. c #A3CA3A",
"s. c #A9D63A",
"d. c #9BE724",
"f. c #A6E231",
"g. c #CAD21C",
"h. c #D0E61D",
"j. c #D7DD2E",
"k. c #D7CA35",
"l. c #CFCB2F",
"z. c #DBE630",
"x. c #868E46",
"c. c #87894C",
"v. c #849243",
"b. c #9A9A4B",
"n. c #928657",
"m. c #8D8154",
"M. c #99B148",
"N. c #A9BB46",
"B. c #B7AD5A",
"V. c #B58672",
"C. c #B9A461",
"Z. c #D4845A",
"A. c #D79257",
"S. c #C8804E",
"D. c #E29D5E",
"F. c #D9AA4C",
"G. c #DAB844",
"H. c #DEA655",
"J. c #E2AD59",
"K. c #D98565",
"L. c #C99875",
"P. c #D1947E",
"I. c #E28B6A",
"U. c #E58475",
"Y. c #EB9978",
"T. c #E29263",
"R. c #C6AA6A",
"E. c #CCA573",
"W. c #D3A278",
"Q. c #ECB764",
"!. c #F4AD7C",
"~. c #F2A47D",
"^. c #F4B875",
"/. c #ECAA6A",
"(. c #B8CD4C",
"). c #B9C252",
"_. c #E2CC49",
"`. c #E3D647",
"'. c #F0D35F",
"]. c #E8E846",
"[. c #EFCE61",
"{. c #F1C669",
"}. c #C05596",
"|. c #E94F9D",
" X c #D2798C",
".X c #D17C8A",
"XX c #E86889",
"oX c #EA7383",
"OX c #EE738E",
"+X c #F77B9D",
"@X c #EB7095",
"#X c #EF5BA2",
"$X c #F344B3",
"%X c #FB55BB",
"&X c #EF47AB",
"*X c #F665A5",
"=X c #F972A6",
"-X c #FB74AB",
";X c #FC1FDB",
":X c #FA4EC2",
">X c #D9868C",
",X c #F6978B",
"<X c #F88899",
"1X c #F89590",
"2X c #EE8287",
"3X c #F5A383",
"4X c #F8B080",
"5X c #FB81A3",
"6X c None",
/* pixels */
"6X6X6X6X6X6X6X6X6X6X6X6X6X6X6X6X6X6X6X6X6X6X6X6X6X6X6X6X6X6X6X6X6X6X6X6X6X6X6X6X6X6X6X6X6X6X6X6X6X6X6X6X6X6X6X6X6X6X6X6X6X6X6X6X",
"6X6X6X6X6X6X6X6X6X6X6X6X6X6X6X6X6X6X6X6X6X6X6X6X6X6X6X6X6X6X6X6X6X6X6X6X6X6X6X6X6X6X6X6X6X6X6X6X6X6X6X6X6X6X6X6X6X6X6X6X6X6X6X6X",
"6X6X6X6X6X6X6X6X6X6X6X6X6X6X6X6X6X6X6X6X6X6X6X6X6X6X6X6X6X6X6X6X6X6X6X6X6X6X6X6X6X6X6X6X6X6X6X6X6X6X6X6X6X6X6X6X6X6X6X6X6X6X6X6X",
"6X6X6X6X6X6X6X6X6X6X6X6X6X6X6X6X6X6X6X6X6X6X6X6X6X6X6X6X6X6X6X6X6X6X6X6X6X6X6X6X6X6X6X6X6X6X6X6X6X6X6X6X6X6X6X6X6X6X6X6X6X6X6X6X",
"6X6X6X6X6X6X6X6X6X6X6X6X6X6X6X6X6X6X6X6X6X6X6X6X6X6X6X6X6X6X6X6X6X6X6X6X6X6X6X6X6X6X6X6X6X6X6X6X6X6X6X6X6X6X6X6X6X6X6X6X6X6X6X6X",
"6X6X6X6X6X6X6X6X6X6X6X6X6X6X6X6X6X6X6X6X6X6X6X6X6X6X6X6X6X6X6X{.6X6X6X6X6X6X6X6X6X6X6X6X6X6X6X6X6X6X6X6X6X6X6X6X6X6X6X6X6X6X6X6X",
"6X6X6X6X6X6X6X6X6X6X6X6X6X6X6X6X6X6X6X6X6X6X6X6X6X6X6X6X6X6X<X'.{.6X6X6X6X6X6X6X6X6X6X6X6X6X6X6X6X6X6X6X6X6X6X6X6X6X6X6X6X6X6X6X",
"6X6X6X6X6X6X6X6X6X6X6X6X6X6X6X6X6X6X6X6X6X6X6X6X6X6X<X=X6X6X2X_.Q.6X6X6X5X=X6X6X6X6X6X6X6X6X6X6X6X6X6X6X6X6X6X6X6X6X6X6X6X6X6X6X",
"6X6X6X6X6X6X6X6X6X6X6X6X6X6X6X6X6X6X6X6X6X6X6X6X6X<X{.!.6X6XoXG.D.6X6X-X^.!.6X6X6X6X6X6X6X6X6X6X6X6X6X6X6X6X6X6X6X6X6X6X6X6X6X6X",
"6X6X6X6X6X6X6X6X6X6X6X6X6X6X6X6X6X6X6X6X6X6X6X6X6X+X!.~.*X6XU.G.J.@X$X+X^.3X6X6X6X6X6X6X6X6X6X6X6X6X6X6X6X6X6X6X6X6X6X6X6X6X6X6X",
"6X6X6X6X6X6X6X6X6X6X6X6X6X6X6X6X6X6X6X6X6X6X6X6X6X6X%X*XOXI.J.`._.D.U.OX+X6X6X6X6X6X6X6X6X6X6X6X6X6X6X6X6X6X6X6X6X6X6X6X6X6X6X6X",
"6X6X6X6X6X6X6X6X6X6X6X6X6X6X6X6X6X6X6X6X6X6X6X6X6X6X6X$XI.k.z.].].j.G.s 6X6X6X6X6X6X6X6X6X6X6X6X6X6X6X6X6X6X6X6X6X6X6X6X6X6X6X6X",
"6X6X6X6X6X6X6X6X6X6X6X6X6X6X6X6X6X6X6X6X6X6X6X6X6X6X6X6XA.g.z.].].h.8.s 6X6X6X6X6X6X6X6X6X6X6X6X6X6X6X6X6X6X6X6X6X6X6X6X6X6X6X6X",
"6X6X6X6X6X6X6X6X6X6X6X6X6X6X6X6X6X6X6X6X6X6X6X6X6X6X6X6Xu l.j.].].g.7.a 6X6X6X6X6X6X6X6X6X6X6X6X6X6X6X6X6X6X6X6X6X6X6X6X6X6X6X6X",
"6X6X6X6X6X6X6X6X6X6X6X6X6X6X6X6X6X6X6X6X6X6X6X6X6X6X:X#Xa A._.`.`.F.Z.XX6X6X6X6X6X6X6X6X6X6X6X6X6X6X6X6X6X6X6X6X6X6X6X6X6X6X6X6X",
"6X6X6X6X6X6X6X6X6X6X6X6X6X6X6X6X6X6X6X6X6X6X6X6X6X=X,X,X#X|.I.k.G.oX&X@X3X1X6X6X6X6X6X6X6X6X6X6X6X6X6X6X6X6X6X6X6X6X6X6X6X6X6X6X",
"6X6X6X6X6X6X6X6X6X6X6X6X6X6X6X6X6X6X6X6X6X6X6X6X6X<X{.4X%X6XXXH.T.&X;X=X{.^.6X6X6X6X6X6X6X6X6X6X6X6X6X6X6X6X6X6X6X6X6X6X6X6X6X6X",
"6X6X6X6X6X6X6X6X6X6X6X6X6X6X6X6X6X6X6X6X6X6X6X6X6X6X1X<X6X6X6XoXXX6X6X6X1X1X6X6X6X6X6X6X6X6X6X6X6X6X6X6X6X6X6X6X6X6X6X6X6X6X6X6X",
"6X6X6X6X6X6X6X6X6X6X6X6X6X6X6X6X6X6X6X6X6X6X6X6X6X6X6X6X6X6X6X6X6X6X6X6X6X6X6X6X6X6X6X6X6X6X6X6X6X6X6X6X6X6X6X6X6X6X6X6X6X6X6X6X",
"6X6X6X6X6X6X6X6X6X6X6X6X6X6X6X6X6X6X6X6X6X6X6X6X6X6X6X6X6X6X6X6X6X6X6X6X6X6X6X6X6X6X6X6X6X6X6X6X6X6X6X6X6X6X6X6X6X6X6X6X6X6X6X6X",
"6X6X6X6X6X6X6X6X6X6X6X6X6X6X6X6X6X6X6X6X6X6X6X6X6X6X6X6X6X6X6Xe 6X6X6X6X6X6X6X6X6X6X6X6X6X6X6X6X6X6X6X6X6X6X6X6X6X6X6X6X6X6X6X6X",
"6X6X6X6X6X6X6X6X6X6X6X6X6X6X6X6X6X6X6X6X6X6X6X6X6X6X6X6X6X6Xe  .c.6X6X6X6X6X6X6X6X6X6X6X6X6X6X6X6X6X6X6X6X6X6X6X6X6X6X6X6X6X6X6X",
"6X6X6X6X6X6X6X6X6X6X6X6X6X6X6X6X6X6X6X6X6X6X6X6X6X6X6X6X6Xq c.I ..8 6X6X6X6X6X6X6X6X6X6X6X6X6X6X6X6X6X6X6X6X6X6X6X6X6X6X6X6X6X6X",
"6X6X6X6X6X6X6X6X6X6X6X6X6X6X6X6X6X6X6X6X6X6X6X6X6X6X6X6X6X[ { Y @.~ # 6X6X6X6X6X6X6X6X6X6X6X6X6X6X6X6X6X6X6X6X6X6X6X6X6X6X6X6X6X",
"6X6X6X6X6X6X6X6X6X6X6X6X6X6X6X6X6X6X6X6X6X6X6X6X6X6X6X6X= M Z E I h   6X6X6X6X6X6X6X6X6X6X6X6X6X6X6X6X6X6X6X6X6X6X6X6X6X6X6X6X6X",
"6X6X6X6X6X6X6X6X6X6X6X6X6X6X6X6X6X6X6X6X6X6X6X6X6X6X6X6X< S U E K c ] 6X6X6X6X6X6X6X6X6X6X6X6X6X6X6X6X6X6X6X6X6X6X6X6X6X6X6X6X6X",
"6X6X6X6X6X6X6X6X6X6X6X6X6X6X6X6X6X6X6X6X6X6X6X6X6X6X6X6Xm.J L E I A ] 2 6X6X6X6X6X6X6X6X6X6X6X6X6X6X6X6X6X6X6X6X6X6X6X6X6X6X6X6X",
"6X6X6X6X6X6X6X6X6X6X6X6X6X6X6X6X6X6X6X6X6X6X6X6X6X6X6Xw x.T E >.%.S ~ ; 6X6X6X6X6X6X6X6X6X6X6X6X6X6X6X6X6X6X6X6X6X6X6X6X6X6X6X6X",
"6X6X6X6X6X6X6X6X6X6X6X6X6X6X6X6X6X6X6X6X6X6X6X6X6X6X= [ O.1.,.>.%.o./ ! X 6X6X6X6X6X6X6X6X6X6X6X6X6X6X6X6X6X6X6X6X6X6X6X6X6X6X6X",
"6X6X6X6X6X6X6X6X6X6X6X6X6X6X6X6X6X6X6X6X6X6X6X6X6X6X] C I 2.3.2.%.o.( f d @ 6X6X6X6X6X6X6X6X6X6X6X6X6X6X6X6X6X6X6X6X6X6X6X6X6X6X",
"6X6X6X6X6X6X6X6X6X6X6X6X6X6X6X6X6X6X6X6X6X6X6X6X6X6X| G L 1.2.2.#.o.( h d % 6X6X6X6X6X6X6X6X6X6X6X6X6X6X6X6X6X6X6X6X6X6X6X6X6X6X",
"6X6X6X6X6X6X6X6X6X6X6X6X6X6X6X6X6X6X6X6X6X6X6X6X6Xr  .K R &.2.2.%.o._ l k > 6X6X6X6X6X6X6X6X6X6X6X6X6X6X6X6X6X6X6X6X6X6X6X6X6X6X",
"6X6X6X6X6X6X6X6X6X6X6X6X6X6X6X6X6X6X6X6X6X6X6X6X6X8 =.R E 1.1.1.&.#.o.S ^ % 3 6X6X6X6X6X6X6X6X6X6X6X6X6X6X6X6X6X6X6X6X6X6X6X6X6X",
"6X6X6X6X6X6X6X6X6X6X6X6X6X6X6X6X6X6X6X6X6X6X6X6Xo { %.>.>.1.1.1.1.%.#.o.` ! X # 6X6X6X6X6X6X6X6X6X6X6X6X6X6X6X6X6X6X6X6X6X6X6X6X",
"6X6X6X6X6X6X6X6X6X6X6X6X6X6X6X6X6X6X6X6X6X6X6X- N G Y 2.1.1.1.1.2.2.1.#.X.M g   6X6X6X6X6X6X6X6X6X6X6X6X6X6X6X6X6X6X6X6X6X6X6X6X",
"6X6X6X6X6X6X6X6X6X6X6X6X6X6X6X6X6X6X6X6X6X6X6X< S U T 2.2.1.1.1.2.2.1.#.` M g n 6X6X6X6X6X6X6X6X6X6X6X6X6X6X6X6X6X6X6X6X6X6X6X6X",
"6X6X6X6X6X6X6X6X6X6X6X6X6X6X6X6X6X6X6X6X6X6X6Xm.J L E >.1.1.1.1.1.1.&.+.` N z ] 2 6X6X6X6X6X6X6X6X6X6X6X6X6X6X6X6X6X6X6X6X6X6X6X",
"6X6X6X6X6X6X6X6X6X6X6X6X6X6X6X6X6X6X6X6X6X6Xw x.%.R E E 1.1.1.&.1.1.&.+.` N M ~ : 6X6X6X6X6X6X6X6X6X6X6X6X6X6X6X6X6X6X6X6X6X6X6X",
"6X6X6X6X6X6X6X6X6X6X6X6X6X6X6X6X6X6X6X6X6X= [ $.&.>.1.1.1.1.1.1.1.2.&.+._ _ ( / ] * 6X6X6X6X6X6X6X6X6X6X6X6X6X6X6X6X6X6X6X6X6X6X",
"6X6X6X6X6X6X6X6X6X6X6X6X6X6X6X6X6X6X6X6X6X[ C I 1.2.1.2.2.4.2.2.>.2.&.+.o.` ` _ h d # 6X6X6X6X6X6X6X6X6X6X6X6X6X6X6X6X6X6X6X6X6X",
"6X6X6X6X6X6X6X6X6X6X6X6X6X6X6X6X6X6X6X6X6X| G L 1.2.1.3.p.i.4.3.1.>.1.%.#.O.o.( h f & 6X6X6X6X6X5X<X6X6X6X6X6X6X6X6X6X6X6X6X6X6X",
"6X6X6X6X6X6X6X6X6X6X6X6X6X6X6X6X6X6X6X6X6X .K L 1.&.1.4.a.s.p.4.E 1.1.1.1.%.o._ l k > 6X6X6X6X6X4X[.,X6X6X6X6X6X6X6X6X6X6X6X6X6X",
"6X6X6X6X6X6X6X6X6X6X6X6X6X6X6X6X6X6X6X6X7 =.R T 1.1.1.2.r.p.4.2.1.1.1.2.2.%.o._ M ^ - 2 6X6X6X6XQ.k.Y.6X6X6X6X6X6X6X6X6X6X6X6X6X",
"6X6X6X6X6X6X6X6X6X6X5X4X,X6X6X6X6X6X6Xv.1.%.&.E 1.1.2.1.*.*.2.2.1.1.1.2.2.%.o._ _ _ / X & 6X6X6XA.7.K.6X6X6X6X6X6X6X6X6X6X6X6X6X",
"6X6X6X6X6X6X6X6X6X6X,X`.Q.6X6X6X6X6Xc.I Y E 1.1.1.2.2.%.O.o.+.&.1.1.1.2.1.%.o.) ` ` N g   1 6X6Xu S.6X6X6X6X6X6X6X6X6X6X6X6X6X6X",
"6X6X6X6X6X6X6X6X6X6XU.l.H.6X6X6X6X, ..R E E 2.1.2.2.2.%.` _ o.&.2.2.1.2.1.%.o._ _ _ ^ z v @ + 6X6X6X6X6X6X6X6X6X6X6X6X6X6X6X6X6X",
"6X6X6X6X6X6X6X6X6X6Xu S.Z.6X6X6Xo ( J E ,.1.1.1.1.2.1.J ) ^ ` %.2.2.1.2.1.#.o._ _ _ _ ^ b v m # 6X6X6X6X6X6X6X6X6X6X6X6X6X6X6X6X",
"6X6X6X6X6X6X6X6X6X6X6X6Xi 6X6X: ) G L 2.2.2.1.1.1.1.&.O./ Q ` &.3.>.1.1.2.&.+.o.` _ _ / ^ f d X 1 6X6X6X6X6X6X6X6X6X6X6X6X6X6X6X",
"6X6X6X6X6X6X6X6X6X6X6X6X6X6X% ' H R E 1.1.1.1.1.1.&.#.o./ Q ` %.2.2.1.1.1.1.&.#.o.` _ _ ) B k v . & 6X6X6X6X6X6X6X6X6X6X6X6X6X6X",
"6X6X6X6X6X6X6X6X6X6X6X6X6X:.V F ,.e.>.>.E 1.1.1.&.#.H ( ^ b ` %.3.1.1.1.1.1.2.1.+.` _ _ _ B Q v n @ 6X6X6X6X6X6X6X6X6X6X6X6X6X6X",
"6X6X6X6X6X6X6X6X6X6X6X6Xn.=.;.;.u.t.e.&.T T &.&.%.H S z d f N Y >.1.1.1.1.1.2.1.+._ ) _ _ N Q o ; 6X6X6X6X6X6X6X6X6X6X6X6X6X6X6X",
"6X6X6X6X6X6X6X6X6X6X6Xv.*.t.s.(.s.i.4.2.E 1.&.#.O._ Q b m v _ %.,.2.1.1.1.1.2.&.J { _ _ ( M k $ 6X6X6X6X6X6X6X6X6X6X6X6X6X6X6X6X",
"6X6X6X6X6X6X6X6X6X6X6Xn.b.C.W.3XW.C.5.e.9.w.-.P _ } : ; O ; :.4.9.0.>.T &.>.1.&.#.H { V ( j j = 6X6X6X6X6X6X6X6X6X6X6X6X6X6X6X6X",
"6X6X6X6X6X6X6X6X6X6X6X6X6X6X6X6X6X XB.d.d.f.-.F ! : 6X6X6X6XV.a.u.9.>.%.>.>.1.1.T %.+.H ( c h $ 6X6X6X6X6X6X6X6X6X6X6X6X6X6X6X6X",
"6X6X6X6X6X6X6X6X6X6X6X6X6X6X6X6X6X6XL.).(.).M.| $ 6X6X6X6X6X6XR.a.r.,.,.3.,.2.1.>.>.%.o.) ! [ 0 6X6X6X6X6X6X6X6X6X6X6X6X6X6X6X6X",
"6X6X6X6X6X6X6X6X6X6X6X6X6X6X6X6X6X6X6X>X>X>Xy 6X6X6X6X6X6X6X6X6XL.N.u.q.u.w.2.>.>.>.Y S ) : q }.@X5X6X6X6X6X6X6X6X6X6X6X6X6X6X6X",
"6X6X6X6X6X6X6X6X6X6X6X6X6X6X6X6X6X6X6X6X6X6X6X6X6X6X6X6X6X6X6X6X6XR.s.f.s.a.e.>.E E R D | q 6X:X3X{.1X6X6X6X6X6X6X6X6X6X6X6X6X6X",
"6X6X6X6X6X6X6X6X6X6X6X6X6X6X6X6X6X6X6X6X6X6X6X6X6X6X6X6X6X6X6X6X6X6XE.R.E.C.5.9.9.e.-.Z { q 6X6X/.`.Y.6X6X6X6X6X6X6X6X6X6X6X6X6X",
"6X6X6X6X6X6X6X6X6X6X6X6X6X6X6X6X6X6X6X6X6X6X6X6X6X6X6X6X6X6X6X6X6X6X6X6X6X XB.y.d.d.q.;.*.r 6X6XI.F.U.6X6X6X6X6X6X6X6X6X6X6X6X6X",
"6X6X6X6X6X6X6X6X6X6X6X6X6X6X6X6X6X6X6X6X6X6X6X6X6X6X6X6X6X6X6X6X6X6X6X6X6X6XP.).(.).N.5.b.6X6X6Xu <.a 6X6X6X6X6X6X6X6X6X6X6X6X6X",
"6X6X6X6X6X6X6X6X6X6X6X6X6X6X6X6X6X6X6X6X6X6X6X6X6X6X6X6X6X6X6X6X6X6X6X6X6X6X6X>X>X X X.X X6X6X6X9 5 6 6X6X6X6X6X6X6X6X6X6X6X6X6X",
"6X6X6X6X6X6X6X6X6X6X6X6X6X6X6X6X6X6X6X6X6X6X6X6X6X6X6X6X6X6X6X6X6X6X6X6X6X6X6X6X6X6X6X6X6X6X6X6X4 4 6 6X6X6X6X6X6X6X6X6X6X6X6X6X",
"6X6X6X6X6X6X6X6X6X6X6X6X6X6X6X6X6X6X6X6X6X6X6X6X6X6X6X6X6X6X6X6X6X6X6X6X6X6X6X6X6X6X6X6X6X6X6X6X6X6X6X6X6X6X6X6X6X6X6X6X6X6X6X6X",
"6X6X6X6X6X6X6X6X6X6X6X6X6X6X6X6X6X6X6X6X6X6X6X6X6X6X6X6X6X6X6X6X6X6X6X6X6X6X6X6X6X6X6X6X6X6X6X6X6X6X6X6X6X6X6X6X6X6X6X6X6X6X6X6X"
};
