/* XPM */
static char *_efbfa495f704be6e53753cc04c0099dmmwD8Kdg32kOS7Cf[] = {
/* columns rows colors chars-per-pixel */
"64 64 229 2 ",
"   c None",
".  c #151415",
"X  c #191616",
"o  c #171817",
"O  c #1A1916",
"+  c #171618",
"@  c #1A161A",
"#  c #171819",
"$  c #1A191A",
"%  c #0E0E0E",
"&  c #221D1B",
"*  c #1F201A",
"=  c #24211C",
"-  c #27251C",
";  c #36301D",
":  c #1B1A23",
">  c #231524",
",  c #221A24",
"<  c #2B152D",
"1  c #291829",
"2  c #2E1531",
"3  c #38183A",
"4  c #331D2F",
"5  c #1F2127",
"6  c #242324",
"7  c #292521",
"8  c #2A2827",
"9  c #372C29",
"0  c #363625",
"q  c #292A3D",
"w  c #3B2539",
"e  c #3C3C3D",
"r  c #363639",
"t  c #2D3928",
"y  c #473926",
"u  c #493A36",
"i  c #4C323A",
"p  c #38442B",
"a  c #50492E",
"s  c #574938",
"d  c #5B5334",
"f  c #4F4931",
"g  c #645836",
"h  c #58713B",
"j  c #6B633B",
"k  c #7A6A3C",
"l  c #64753F",
"z  c #3E1843",
"x  c #3A3946",
"c  c #333254",
"v  c #2E336B",
"b  c #461B49",
"n  c #4E1F53",
"m  c #4B224C",
"M  c #432146",
"N  c #522454",
"B  c #562458",
"V  c #5A275D",
"C  c #4E3848",
"Z  c #4A3662",
"A  c #6B336F",
"S  c #612D5D",
"D  c #3D4249",
"F  c #434344",
"G  c #484648",
"H  c #584942",
"J  c #5B5649",
"K  c #494955",
"L  c #545156",
"P  c #69554B",
"I  c #69544F",
"U  c #79665C",
"Y  c #6F6E4A",
"T  c #5C5F62",
"R  c #6C5872",
"E  c #636568",
"W  c #756A68",
"Q  c #797879",
"!  c #71716F",
"~  c #5D6060",
"^  c #846A3B",
"/  c #8C743C",
"(  c #91783E",
")  c #877B46",
"_  c #8D7C4C",
"`  c #88756C",
"'  c #987A6A",
"]  c #917A74",
"[  c #63893F",
"{  c #648648",
"}  c #7A9B4C",
"|  c #738E4F",
" . c #758A77",
".. c #8B8349",
"X. c #9A8748",
"o. c #829A4E",
"O. c #9C9354",
"+. c #938950",
"@. c #A18B49",
"#. c #A5924C",
"$. c #AA964D",
"%. c #A49A54",
"&. c #AE9B52",
"*. c #A59656",
"=. c #B29E52",
"-. c #B19E4F",
";. c #83A44C",
":. c #8DAC4F",
">. c #86A653",
",. c #94AC52",
"<. c #95B353",
"1. c #9AB557",
"2. c #9AA84F",
"3. c #ADA65B",
"4. c #B4A253",
"5. c #BBAB56",
"6. c #BEAD59",
"7. c #B6A85B",
"8. c #BDB15B",
"9. c #AFAA53",
"0. c #9A8977",
"q. c #AE8872",
"w. c #8CA868",
"e. c #B8AE77",
"r. c #B7AE68",
"t. c #C2B35B",
"y. c #C7B95C",
"u. c #C9BB5E",
"i. c #C1B257",
"p. c #C1AF5C",
"a. c #C3997B",
"s. c #CCBE62",
"d. c #C6B967",
"f. c #C5BB76",
"g. c #CDC15E",
"h. c #CDC161",
"j. c #D1C463",
"k. c #D6CA65",
"l. c #DACE6A",
"z. c #D6CA68",
"x. c #DED26B",
"c. c #D5CA78",
"v. c #E1D46E",
"b. c #E4DA70",
"n. c #333B86",
"m. c #394996",
"M. c #4D5888",
"N. c #595796",
"B. c #5F649C",
"V. c #766F86",
"C. c #4443AA",
"Z. c #4657A9",
"A. c #7674AE",
"S. c #6C6FBB",
"D. c #7578B7",
"F. c #6B6DAD",
"G. c #675D94",
"H. c #8E7BA6",
"J. c #7C848C",
"K. c #7D83BB",
"L. c #868487",
"P. c #8B8897",
"I. c #949598",
"U. c #96918D",
"Y. c #A19284",
"T. c #AD9C8F",
"R. c #B89888",
"E. c #A69795",
"W. c #97A595",
"Q. c #B4AC8E",
"!. c #969DA6",
"~. c #9085B5",
"^. c #8B95B9",
"/. c #8E8EAA",
"(. c #A493AD",
"). c #9CA1A6",
"_. c #97A5B9",
"`. c #A5A5A8",
"'. c #B6B8BB",
"]. c #AAACB5",
"[. c #C59D89",
"{. c #C8B899",
"}. c #D0A992",
"|. c #C5B4A5",
" X c #CEB8B0",
".X c #ECBEA9",
"XX c #E7BBA5",
"oX c #E1BBB4",
"OX c #E4B59D",
"+X c #B1C1B5",
"@X c #E4C88A",
"#X c #E6C595",
"$X c #DCCDB5",
"%X c #EBC2AD",
"&X c #E5C0AD",
"*X c #EBCCB8",
"=X c #ECD2BE",
"-X c #E6D3BC",
";X c #F0C9B4",
":X c #8B97C1",
">X c #9AA9C2",
",X c #AAB6C7",
"<X c #B6BCC5",
"1X c #A59DC1",
"2X c #BBC5D4",
"3X c #B9C1CB",
"4X c #CAD4D8",
"5X c #D4D7DC",
"6X c #CCC9CB",
"7X c #EDD5C1",
"8X c #EED9C4",
"9X c #E8D3C9",
"0X c #F2DAC6",
"qX c #F1D8C5",
"wX c #EEDFD3",
"eX c #F0DFD2",
"rX c #CDD8E2",
"tX c #D4DBE5",
"yX c #C6CAE0",
"uX c #DCE3E9",
"iX c #DAE1E5",
"pX c #E2E6EB",
"aX c #E4E9ED",
"sX c #E8E8E9",
"dX c #E9ECF1",
"fX c #F3F2F4",
"gX c #FBFBFB",
"hX c #F6F6F7",
"jX c #F3F0EF",
/* pixels */
"                                                                                                                                ",
"                                                                                                                                ",
"                                                                                                                                ",
"                                                                                                                                ",
"                                              + O O + # @                                                                       ",
"                                            : # + # + + : n                                                                     ",
"                                            H a a a a a u C                                                                     ",
"                                        < $ k 4.&.&.&.@.@.d & @ @ @ @ < S                                                       ",
"                                        > O k 4.4.=.-.#.@.g - = 7 - = 1 S                                                       ",
"                                    & @ $ O _ u.y.y.y.i.5.4.%.$.X.X./ ^ y @ 3                                                   ",
"                                    . & O O ..j.j.u.u.t.6.i.p.5.=.&.X./ y . 2                                                   ",
"                                z i j g g g $.h.j.k.k.u.d.y.y.y.8.6.-.$.k g s i b                                               ",
"                              2 . d -.$.@.@.p.s.k.v.v.g.j.s.h.h.h.g.t.p.$.@.j O 1                                               ",
"                            m H a ) p.5.$.@.p.y.g.v.v.j.u.y.i.t.g.h.y.y.=.#.` K Z V                                             ",
"                          @ & _ =.p.s.s.=.-.4.p.y.l.v.g.h.6.=.4.s.g.g.h.5.=.0.S.F.q . 3                                         ",
"                          O & ..-.i.y.i.$.$.p.t.s.v.v.j.s.5.&.=.d.u.s.s.7.*.0.D.F.c . 3                                         ",
"                          # = O.h.4.( ( / ^ a.OX@Xx.x.j.h.7.@.#.6.6.i.p.P.A.D.>X^.x o z                                         ",
"                          # & %.h.4.) ( ^ ^ a.%X#Xc.x.h.h.4.@.#.5.d.6.p.P.S.K.>X!.r o 3                                         ",
"                          o & %.h.4./ ^ y y R.;X}.j Y 8.l.u.5.3.P.P.W.`.!.:X:XD.K.q + 3                                         ",
"                          o = %.j.4.( k - $ Y.0XT.o * 8.b.z.h.e.A.S.:X_.>X>X:XS.B.q # 3                                         ",
"                          o & *.j.4.) ^ - O Y.0XT.$ = ..O.8.k.d.P./.^.^.:X:X^./.J.H u u                                         ",
"                          o = *.j.=.( k & & Y.0XT.$ $ $ O ..v.x.h.d.P.S.S.S.P.d.d.7.4.g + 2                                     ",
"                          1 9 O.d.&.( ^ - $ Y.0XT.: : 6 6 ..x.k.h.d.P.A.A.D.I.s.s.4.3.j = i                                     ",
"                              i 0 k d.&.7 $ Y.0X`.v v !.3XQ.$.4.l.z.e.e.e.e.e.s.h.u.y.4.O._ w < < 2 b                           ",
"                              2 . j j.7.- $ Y.0X].n.n.2XjX{.X.$.l.x.y.i.y.g.g.s.h.h.h.y.8.O.- . . . b                           ",
"                                1 d k Y 6 @ Y.0X].n.m.yXjX{.X.$.l.x.5.-.i.j.g.g.h.z.k.h.y.7.j g g g P                           ",
"                                    # . @ $ Y.0X'.m.Z.rXgX{.X.$.x.x.4.X.p.s.j.s.j.x.x.k.g.h.i.i.=.=.Y & >                       ",
"                                    2 < @ @ Y.0X XB.F.5XjX{.$.4.l.l.#.) *.7.3.3.3.j.x.k.h.g.6.6.4.=.) 0 9                       ",
"                                        1 o Y.qX9X6X9XoX%X@Xl.z.h.h.d = = 7 7 7 0 3.h.k.x.k.4.-.p.i.=.#.X.9 < n                 ",
"                                        < , Y.9X*X7X7X%XXX@Xx.l.g.d.f o $ $ * $ 8 O.g.j.v.k.4.-.4.p.5.=.$.; & V                 ",
"                                            L H ` 9X7X.XXX@Xb.y.d f L.].).`.).!.I.J a ..j.j.j.s.$.X.#.5.4.) Y P 4 z             ",
"                                            & % H 9X7X%XXX@Xv.7.* o ).dXuXuXuXrX6Xe % j j.k.x.v.$./ @.p.p.4.=.g . 1             ",
"                                            T ~ ! Y.Y.Q.Q.h.x.8.~ ~ 3XiXiXuXuXiX5XV.~ Y +.O.h.l.5.$.O.) ) $.=.g # 2             ",
"                                        < , I.aX).* * h { ,.g.{.4X4XiXuXuXiXaXhXhXsXuXL.o 0 d.j.l.v.O.O = X.=.g . <             ",
"                                        2 , P.4XW.6 - h [ 2.h.c.4XrXiXiXuXuXuXuXiX4X4XQ . 0 3.8.k.v.O.O & ) *.g : 3             ",
"                                            C e d o.;.>.:.9.8.e.5XiXiXiXdXgX+XF e r x 8 o $ 0 ; O.l.+.O O 7 9 i                 ",
"                                            & % p <.1.<.1.1.8.c.iXiXiXuXfXgX'.O . + . + $ o O O ..k.+.$ + @ > b                 ",
"                                        z 3 J l { <.<.<.<.<.<.r.4XtXaXdX).! Q ' ` 9 # # + + + $ ..u...O > N B                   ",
"                                        1 O { 1.1.<.<.<.<.:.} w.4X5XdXgXE % s .XOX0 . $ $ o O $ ..y...O >                       ",
"                                        > O l <.:.:.<.:.<.w.} } +X+X3X XW u W .XoXU G 9 + O + o j X.Y 4 3                       ",
"                                    : : @ o l ;.} ;.;.;.;.} { { [ { p : ] .X.X=X=X-X-X` + + @ + O & m                           ",
"                                    : : , & l o.} } } >.} | { { { { t # ] XXoX=XqX9X9X] : : @ + , > b                           ",
"                              z 2 K N.G.' ' d t p t p W.+XJ.m.M.M.M.c % y u ` .XoXH.F.N.n.Z : @ N                               ",
"                              2 . c S.H.[.[.H . . . : !.2XK.C.C.C.n.c o X . u XXoXB.C.C.C.m.: @                                 ",
"                          b N R U H.1X(.(.E.C + # # 5  .W./.~.H.H.H.C . @ . r ` ] H.~.~.~.V., >                                 ",
"                          $ 1 Q.=XqX0X6XD.S.c + # # * h [ Q.0X=X.XoXH @ . O + O 1 ].0X7X9X X7 @                                 ",
"                          O = {.=X=X*X$XF.B.c X o # * { | Q.qX=X.XXXP 7 & O + + - }.9X7X0X|.6 : b                               ",
"                          O - R.%XOX}.q.r 6 : o o o 5 Q.-X-X7X=X.XXXq.' u . + O - [..X;X0X|.7 @ & > b                           ",
"                          O & R.%XOXa.q.8 + o O + O 6 {.qX7X7X7X.X.Xa.' u @ X . 7 R.%X*X0X|.7 o # o m                           ",
"                          + $ H P P d s , $ ! `.E.U.Y.$X7X*X;X}.U ^ ' a.q.] 0.`.).U P I U J $ : E P.V.z b                       ",
"                          $ $ . % . % . O o `.gXjX9X7X7XqX;X%XR.> X ' }.OX.XqXgXjXf % % % . $ O !.tXI.# <                       ",
"                          @ $ G ~ L L L D D '.fXsXwXwXwXeX|.R.' & @ U ' {.;X9XjXuXE D K K D $ $ !.tX].K L A A                   ",
"                          o 6 6XfXfXjXaX,X_.2XuXsXhXhXhXgX0.$ $ @ . & & `.gXjXuXtX>X_.<XtX<X8 $ ).iXtX4X3Xx <                   ",
"                          > 1 '.dXfXhXdX,X,X2XtXsXhXhXjXdXQ . o @ & X . `.dXsX5XrX,X>X2XrX'.6 O ).uXiXrX2Xr + B                 ",
"                              L D I.gXfXaXuX2X,X3XpXtXE G 8 # $ . @ X @ r G F D G ,XtXP.F e $ $ ).uXaXfXiXD + V                 ",
"                              2 . Q gXgXgXgX2X>X,XuX5Xx . . @ @ @ @ @ @ O O . o 6 <XaXL.. # @ $ ).uXdXhXsXp + V                 ",
"                                N R I.U.P.U._.>X,XuX4XF + w B B B B B B B V M & 6 '.aXJ.. 1 B V Q L.`.hXsXe @ V                 ",
"                                    O @ # O V.>X<XpX5Xx @ B                   & 6 '.dXL.. 3     3 . ~ gXsXx + B                 ",
"                                    b m m m R V.J.!.I.r : N                   : , J.!.Q M 3     b b R ].`.S n                   ",
"                                            , $ : $ @ . & n                   > O O O b             A , ,                       ",
"                                            < 1 > > 1 > 1 n                   < > > < b               2 2                       ",
"                                                                                                                                ",
"                                                                                                                                ",
"                                                                                                                                "
};
