/* XPM */
static char *_21f98b75baa4db0f6976959dbfe256412YNlAXRQfaOw3fw[] = {
/* columns rows colors chars-per-pixel */
"64 64 242 2 ",
"   c None",
".  c #000000",
"X  c #00000D",
"o  c #050C02",
"O  c #000013",
"+  c #030618",
"@  c #120612",
"#  c #151512",
"$  c #1B1A1A",
"%  c #181916",
"&  c #0F140B",
"*  c #211F1B",
"=  c #231F04",
"-  c #16211C",
";  c #24211D",
":  c #2B2918",
">  c #332E1C",
",  c #010326",
"<  c #191A28",
"1  c #1C0034",
"2  c #0E142A",
"3  c #2A1D28",
"4  c #230032",
"5  c #2A0037",
"6  c #2F0F33",
"7  c #232322",
"8  c #2A2423",
"9  c #2C2C2C",
"0  c #292628",
"q  c #383525",
"w  c #262935",
"e  c #372838",
"r  c #3A3736",
"t  c #322B2E",
"y  c #182E26",
"u  c #433B36",
"i  c #423C3A",
"p  c #41273E",
"a  c #3F4133",
"s  c #385F11",
"d  c #47453B",
"f  c #574D37",
"g  c #5C543D",
"h  c #5C5233",
"j  c #554E2B",
"k  c #635B3A",
"l  c #775E32",
"z  c #557036",
"x  c #796837",
"c  c #6B6A35",
"v  c #0B145B",
"b  c #3E1F40",
"n  c #3E2441",
"m  c #343659",
"M  c #36364F",
"N  c #000575",
"B  c #33386D",
"V  c #472649",
"C  c #533055",
"Z  c #421143",
"A  c #484947",
"S  c #575346",
"D  c #484C57",
"F  c #545051",
"G  c #675A4C",
"H  c #576244",
"J  c #766B4B",
"K  c #776552",
"L  c #716D54",
"P  c #464E6C",
"I  c #7A777C",
"U  c #6C6C6B",
"Y  c #6B5D77",
"T  c #856B38",
"R  c #8B733A",
"E  c #867A3D",
"W  c #927839",
"Q  c #957C44",
"!  c #887344",
"~  c #847A71",
"^  c #709932",
"/  c #6C970A",
"(  c #718F4A",
")  c #7DA14B",
"_  c #8AA027",
"`  c #9B8746",
"'  c #9C9349",
"]  c #9A8954",
"[  c #8B8B50",
"{  c #A38D48",
"}  c #A6924B",
"|  c #AD9A4D",
" . c #AA954B",
".. c #B29D4D",
"X. c #A99856",
"o. c #B19E54",
"O. c #86A74D",
"+. c #87A553",
"@. c #95B354",
"#. c #9AB859",
"$. c #94AF54",
"%. c #B4A254",
"&. c #BCAC56",
"*. c #BDAD5A",
"=. c #B5A458",
"-. c #BEB15A",
";. c #B1A14B",
":. c #95906A",
">. c #B7AB68",
",. c #BDB36C",
"<. c #BEB064",
"1. c #B3AA76",
"2. c #B1A66A",
"3. c #A4AB72",
"4. c #C8B848",
"5. c #C4B55B",
"6. c #CABD5E",
"7. c #C4B759",
"8. c #C0AF5A",
"9. c #CABC61",
"0. c #C4B664",
"q. c #C6B973",
"w. c #CDC15E",
"e. c #CEC456",
"r. c #D2C658",
"t. c #E1D35B",
"y. c #CEC161",
"u. c #CCC26B",
"i. c #D2C563",
"p. c #D5C964",
"a. c #D6CB68",
"s. c #DED46B",
"d. c #DFD667",
"f. c #DBD175",
"g. c #D0C573",
"h. c #E1D66D",
"j. c #E3D96D",
"k. c #E4D674",
"l. c #EBE174",
"z. c #00019A",
"x. c #000181",
"c. c #1A12A8",
"v. c #323AAD",
"b. c #172AA0",
"n. c #24469E",
"m. c #7C7F83",
"M. c #6C7684",
"N. c #4F4EB1",
"B. c #5D62BC",
"V. c #666BBB",
"C. c #7275BB",
"Z. c #4A479C",
"A. c #5E64C3",
"S. c #6B6FC2",
"D. c #4E5CC5",
"F. c #857F99",
"G. c #7F8993",
"H. c #898A8A",
"J. c #948E98",
"K. c #969698",
"L. c #8D8D92",
"P. c #A79688",
"I. c #BA9791",
"U. c #AC958D",
"Y. c #B9A392",
"T. c #B0AB8E",
"R. c #969BA6",
"E. c #8A8FAF",
"W. c #A69CAB",
"Q. c #9BA2A7",
"!. c #9BABBD",
"~. c #8EA1B6",
"^. c #A5A8AB",
"/. c #BCADA3",
"(. c #A9B2BD",
"). c #BABABA",
"_. c #B5B4B7",
"`. c #ABAEB5",
"'. c #9FA19E",
"]. c #C9A695",
"[. c #D0AA88",
"{. c #E8BA9B",
"}. c #C2B3A5",
"|. c #C9B6A7",
" X c #D0B4AE",
".X c #E9BBA6",
"XX c #F0BDA2",
"oX c #BDC7B5",
"OX c #D9CA90",
"+X c #E6CC8D",
"@X c #D3D0AE",
"#X c #EBC2AB",
"$X c #F2C3AB",
"%X c #E3CCBA",
"&X c #EBC5B1",
"*X c #ECD3BC",
"=X c #E8D5BF",
"-X c #F7C9B2",
";X c #8B97C2",
":X c #8C95C1",
">X c #98A8C1",
",X c #9DB1C3",
"<X c #A9B8C8",
"1X c #B5B7CA",
"2X c #B3AFCB",
"3X c #C3B6C6",
"4X c #B6C2CE",
"5X c #B9C8D6",
"6X c #AFC1D1",
"7X c #CECECD",
"8X c #C4C7C9",
"9X c #C6CCD5",
"0X c #C9D4DD",
"qX c #C7D2DA",
"wX c #D4D6D9",
"eX c #D9CCC7",
"rX c #ECD5C3",
"tX c #EBD6C7",
"yX c #F3DCC5",
"uX c #F5DDC9",
"iX c #EDDED7",
"pX c #FAE3CE",
"aX c #F1E3DA",
"sX c #CBD7E2",
"dX c #D4DCE4",
"fX c #D6DDE4",
"gX c #DBE1E5",
"hX c #DDE4EB",
"jX c #DCE8ED",
"kX c #DCE6F0",
"lX c #E2E6EA",
"zX c #E4E9ED",
"xX c #E7E7E7",
"cX c #EBEEF1",
"vX c #E4EBF1",
"bX c #EDF1F4",
"nX c #EBF2F8",
"mX c #F5F5F6",
"MX c #F5F6F9",
"NX c #FDFDFD",
"BX c #F7F8F7",
"VX c #F3F0EB",
/* pixels */
"                                                                                                                                ",
"                                                                                                                                ",
"                                                                                                                                ",
"                                                                                                                                ",
"                                  3 ; ; ; ; ; % e                                                                               ",
"                                  . . . . . X . 4                                                                               ",
"                                  G g g S k f f S                                                                               ",
"                            V < t X.=.2.o.o.} { ] e 3 8 8 3 3 e 3                                                               ",
"                            V o : { |  . ...{ ` Q + . . . . X X X                                                               ",
"                        $   w # q &.7.5.5.5.=...o.` ' ` E Q x x l % $                                                           ",
"                        # # # O q 6.i.y.6.y.5.5.-.0.5.8...=.` W R # # V                                                         ",
"                        0 0 0 < q 0.y.w.w.i.5.*.-.&.*.&.| o.` W T 8 8 C                                                         ",
"                  V 4 G X.X.] ] ] 6.6.i.s.s.i.9.9.9.6.9.9.9.5.*.=.] ] K 1 e                                                     ",
"                  4 . j ....{ ` { 9.w.i.s.h.i.6.y.i.w.y.y.y.8.&.&.` { l . o                                                     ",
"                  K k R &.=.| { } 7.6.y.h.h.i.y.6.0.5.6.w.9.7.5.*.{  .~ B P                                                     ",
"              % < X.o.&.i.y.&.X.o.*.&.6.h.s.i.y.9.|  .&.y.w.y.y.9.| ..L.S.S.m @ V                                               ",
"              % < ] | %.i.i.<.| o.8.&.w.d.s.i.y.9.o.| &.i.9.y.y.9...| H.B.V.m o n                                               ",
"              % < 2.6.-.} X.` W ` [.[.{.s.s.i.y.9.} { o.5.5.5.8.>.F.F.E.;X;XD . n                                               ",
"              % < q.i.5.T R T l T .X.X+Xj.s.i.w.9.{ W  .7.&.&.4.2.V.A.:X,X!.D o n                                               ",
"              # < ,.r.*.R W T l ! {..X{.a.a.y.y.9. .{ X.>.>.<.5.1.S.V.E.>X!.D . n                                               ",
"              % < ,.i.8.T Q g . u %XuX}.o < -.h.a.9.r.T.V.C.:X!.!.>X>XE.V.S.m o b                                               ",
"              # < ,.i.8.R Q g . r %XpX}.. O 7.l.h.w.r.T.D.B.>X,X,X!.,X;XB.V.m o b                                               ",
"              # < ,.r.8.R Q f . u %XuX/.. O :.2.1.u.p.q.J.K.E.:X:X:X;XE.L.J.A . V                                               ",
"              % < ,.i.8.R Q k . u %XpX}.. 0 O o e f.h.d.6.g.E.B.V.V.V.J.7.5.h X e                                               ",
"              % < 0.a.5.T Q f . r %XuX}.o : . . q f.k.a.7.u.E.D.S.V.V.J.&.8.j . 5                                               ",
"                  K c Q 8.0.J . u %XuX}.N N `.wX8X=...0.s.s.>.1.1.T.T.q.6.7.o.| ] , 8                                           ",
"                  4 . c a.a.[ . i %XpX1Xx.x.9XMXxX{ W &.j.s.4.&.4.r.r.r.w.i.5.7.2.. X                                           ",
"                  V 4 K ,.q.L . i %XuX Xx.x.3XbXiX} Q 8.j.h.<.2.>.>.0.,.,.,.-.7.2.d f                                           ",
"                        < 2 $ X r %XuX Xn.n.sXNXxXX.` &.d.f.L , w w w w w 2 *.y.9.>.0.[ , e                                     ",
"                        % # % o r %XuX).z.z.dXNXVX] R -.l.k.c o . . . o . . -.a.y.&.7.x . X                                     ",
"                            e . r %X*XeXW.W.eXaXtX8.8.*.o.X.Q.Q.Q.R.R.L.G.G.:.' X.0.6.} x T                                     ",
"                            V . r %XyX*XuXuX&X{.{.k.k.=.. . 9XbXjXdXsXsX6X5XD o S u.e.-.=. .O * C                               ",
"                            V . r %XtXtX*XtX&X.X#Xf.j.-.. . 8XhXdXqX0X5X<X1XF o H g.i.=.| ' + ,                                 ",
"                            C 9 t U U U.tXtX.X.X+Xs.t.OX9X7XfXhXhXbXbXcXcXcXqX9X).S S X.9.<.] X.K 1 V                           ",
"                            . . . . . ~ pXuX&X$X$Xk.t.@XvXhXhXfXhXNXNXNXNXNXbXbXsX. . ' p.9.| =.J . $                           ",
"                        C 4 W.).`.L.H.J.'.Y.U.P.P.g.r.@XhXgXzXcXlX).).).).).`.^.K.= O ' p.5. .=.J X :                           ",
"                        t o 7XNXNX5X5XQ.. . . . - q.4.@XkXgXmXNXxX. . . . . . . . : . ' p.5.| o.J . ;                           ",
"                        t . 7XNXmX6X6XQ.. t 0 @ d q.4.@XkXgXcXNXxX* $ 7 ; ; ; ; $ ; . ' a.0.| =.J . :                           ",
"                            I I ( xXMX8X. < ^ O.O.@._ @XMXMXK.U H.9XqX8X4X4X(.<XR.= O ' i.5.| =.J . ;                           ",
"                            5 . w bXNXwX. + [ #.@.) / oXNXNXI . D lXjXgXsXsX4X6X(.. . } a.9. .o.J . ;                           ",
"                            C b P wXxX).> g ) @.$.) ^ `.gXiXK.U L.hXlXgXdXdX5X4X(.D D :.,.2.%.&.J . ;                           ",
"                                  X . z #.#.@.@.@.) O.^ . o 8XlXxXmXmXmXmXNXdX0XsX!.,XM.. G y.p.[ . q                           ",
"                                  8 O J #.@.@.@.$.) ) ( . . 5XkXjXNXNXNXmXmXsX0X5X~.>XM.. c y.a.[ X O                           ",
"                                  8 . H @.O.O.O.) ( ^ +.Y.Y.%XrXeX2X2XwXNXmXdXsXsX5XqXL.. k *.*.o.' ' j                         ",
"                                  * . H O.) ) O.) ( s T.uXuX&X.X Xc.z.2XNXMXdX0XsXkXcXQ.. h .. .0.p.i.j . V                     ",
"                                  7 . S +.O.+.) ) ( ^ K.yX*X&XXX.XB.c.2XNXMXdXqX0XhXzXQ.. k o.o.>.q.q.j . V                     ",
"                                  0 . K 1.[.L y r d . P.uX*X.XXX].N.z.2XNXmXmXmXbXsXsXgXcX7Xq A A S S t 7 9 n e                 ",
"                                  = X ! [.[.K . @ . . P.uXyX-X$X.XN.c.2XNXmXBXBXbXqX5XvXNXgX. . . . . . . . . .                 ",
"                                  m v Y I.I.G . e ~ U U.@X|.].].I.Z.N 1XNXBXmXmXmXdXdXxXmXgXH.H.L.H.H.:.m.I U U                 ",
"                            C > w N.N.v.v.v.B o F yXpX}.. + . . . : . `.NXmXmXNXmXMXNXcXfXzXNXNXNXNXMXkXvXfX6X5XG.X n           ",
"                            1 . . b.c.v.N.N.v X w =XyXY.. . . . . t . _.NXMXBXmXmXmXmXcXfXlXBXBXMXmXMXfXgX0X<X6XU . @           ",
"                        C 1 U.}./.3X1XW.v v U.}./.rXrX%X8X9X^.R.L.r . _.NXmXmXBXBXBXmXmXcXcXxXzXbXNXMXbXbXzX0XdX<XE.K.C b       ",
"                        0 . }.pXyXyXpX|.. .  XpXpXrX*XaXNXNXsX6X<X7 . _.NXmXBXmXBXBXBXmXBXmXfXfXcXBXmXBXBXmXhXlX0X5X6Xi . $     ",
"                        0 . Y.yX%X%XrX/.. . }.uX*X=X*XaXMXBXqX6X<XA . `.mXcXmXBXmXBXBXBXmXmXhXgXbXBXmXmXBXcXwXfX5X<X<Xr o 3     ",
"                        8 . Y.&X.XG i u * . ]..X.X#X{.tXBXBXqX<X6X9XqXQ.r F xXBXmXmXmXmXmXMXmXmXmXmXmXmXNXwX8 F i i a < $ $     ",
"                        8 . ].-X.Xu . & 8 . ].-X$X$XXXiXNXNXsX<X5XsXjXQ.. . xXNXNXNXNXNXNXNXNXNXNXNXNXNXNXgX. & . . . # # #     ",
"                        V 1 P.].I.r & * 3 . :.].Y.I.I.|.7XqX`.R.Q.(.(.H.. % oXwX7X7X7X7X7X7X7X7X7X7X7X7XwX).4 C V V V V n       ",
"                            5 . . # $ % % $ . . . . o . . . . . . . . . $ $ . . . . . . . . . o . . . o . .                     ",
"                            V 8 8 $ $ $ % % 7 0 8 8 8 0 t 9 0 0 0 0 0 7 % $ 0 9 9 9 9 9 9 t 9 9 9 9 9 9 9 V                     ",
"                                                                                                                                ",
"                                                                                                                                ",
"                                                                                                                                ",
"                                                                                                                                ",
"                                                                                                                                "
};
