/* XPM */
static char *_20cf3c705ab441cda8787b1e7fe70f7XsBrd9f7lrLLjJyl[] = {
/* columns rows colors chars-per-pixel */
"64 64 226 2 ",
"   c None",
".  c #0F1013",
"X  c #151516",
"o  c #181717",
"O  c #191917",
"+  c #171718",
"@  c #1A171B",
"#  c #1A191A",
"$  c #171818",
"%  c #211E1B",
"&  c #25231C",
"*  c #2E2A1D",
"=  c #312C1E",
"-  c #37311F",
";  c #1D1B22",
":  c #1B1C29",
">  c #231922",
",  c #2A1A2A",
"<  c #251725",
"1  c #321A32",
"2  c #3E1B3E",
"3  c #301A2F",
"4  c #1F2021",
"5  c #242424",
"6  c #2B2624",
"7  c #2B2B2C",
"8  c #27272A",
"9  c #372D28",
"0  c #3B3523",
"q  c #22223B",
"w  c #292A35",
"e  c #342A36",
"r  c #2E3133",
"t  c #353538",
"y  c #433B23",
"u  c #463828",
"i  c #473B35",
"p  c #492F35",
"a  c #45361F",
"s  c #4E4627",
"d  c #564A28",
"f  c #47403C",
"g  c #574439",
"h  c #57512E",
"j  c #62532B",
"k  c #685C2C",
"l  c #675336",
"z  c #6D6432",
"x  c #796A32",
"c  c #716630",
"v  c #2B2C45",
"b  c #383C45",
"n  c #382E47",
"m  c #39386E",
"M  c #453949",
"N  c #3C4247",
"B  c #454748",
"V  c #584944",
"C  c #454A56",
"Z  c #4D5257",
"A  c #575758",
"S  c #59534C",
"D  c #6A5246",
"F  c #745D53",
"G  c #685E56",
"H  c #6D665C",
"J  c #786557",
"K  c #505963",
"L  c #5D6770",
"P  c #646564",
"I  c #7C6F65",
"U  c #7C7068",
"Y  c #676A77",
"T  c #68717A",
"R  c #73747B",
"E  c #62506C",
"W  c #87662D",
"Q  c #867736",
"!  c #957934",
"~  c #896E30",
"^  c #8C6F55",
"/  c #8C6E61",
"(  c #997563",
")  c #8C7873",
"_  c #A27C69",
"`  c #8D823B",
"'  c #99853A",
"]  c #9C913E",
"[  c #A58C3B",
"{  c #A5893A",
"}  c #AC943E",
"|  c #A8943E",
" . c #B49B3F",
".. c #94815F",
"X. c #AB9647",
"o. c #B39C41",
"O. c #B49B41",
"+. c #AD905F",
"@. c #B6A043",
"#. c #BAA444",
"$. c #BEA946",
"%. c #B9A44A",
"&. c #97897B",
"*. c #918A72",
"=. c #AA8676",
"-. c #B28F6D",
";. c #B1A361",
":. c #C1AC47",
">. c #C2AE48",
",. c #C5B24A",
"<. c #C8B64B",
"1. c #CDBD4E",
"2. c #C7B54A",
"3. c #CAB253",
"4. c #C89376",
"5. c #D59C7D",
"6. c #D99F7E",
"7. c #C08F7B",
"8. c #DBBD66",
"9. c #D9A678",
"0. c #C7AC63",
"q. c #E2BF76",
"w. c #D0C14F",
"e. c #D5C552",
"r. c #DBCE54",
"t. c #D9C856",
"y. c #DED155",
"u. c #E0D356",
"i. c #E2D05D",
"p. c #D5C670",
"a. c #3C3D94",
"s. c #3F41B3",
"d. c #544C9C",
"f. c #787B99",
"g. c #6E7784",
"h. c #4242AA",
"j. c #4141A3",
"k. c #4647B5",
"l. c #7C7BA3",
"z. c #6D72BD",
"x. c #6E6FB8",
"c. c #6357A8",
"v. c #6C72C3",
"b. c #6F76C5",
"n. c #886D97",
"m. c #8C709B",
"M. c #8B7CB1",
"N. c #A07C92",
"B. c #7A838A",
"V. c #768596",
"C. c #7C88AD",
"Z. c #7C89C3",
"A. c #8C888B",
"S. c #838C93",
"D. c #999C9E",
"F. c #909493",
"G. c #A18F81",
"H. c #AA9688",
"J. c #A69385",
"K. c #B29790",
"L. c #B1A891",
"P. c #8796A7",
"I. c #979EA5",
"U. c #899BB5",
"Y. c #958CB3",
"T. c #8FA2B8",
"R. c #97A8B9",
"E. c #98A4AB",
"W. c #B9B9BA",
"Q. c #A7ACB0",
"!. c #C99A84",
"~. c #D79F81",
"^. c #D9A589",
"/. c #D2A691",
"(. c #EBB59B",
"). c #F2BE99",
"_. c #E7B58C",
"`. c #D7BAA9",
"'. c #CFB3A3",
"]. c #E9BCA5",
"[. c #F5BCA4",
"{. c #F9BFA6",
"}. c #ECC294",
"|. c #F5C2AB",
" X c #EDCFBB",
".X c #E7C8B4",
"XX c #F2CAB3",
"oX c #F4CBB5",
"OX c #EDD1BC",
"+X c #F1D4BE",
"@X c #E0C3AE",
"#X c #DDC2AF",
"$X c #899AC2",
"%X c #9096CB",
"&X c #95ABC3",
"*X c #99ACC3",
"=X c #9DB1C7",
"-X c #8EA0C1",
";X c #A5B6C5",
":X c #B5BECC",
">X c #B8C2C8",
",X c #B7C7D6",
"<X c #BFD0DD",
"1X c #CBCBCB",
"2X c #C5C6C6",
"3X c #C2CED6",
"4X c #C9D3DA",
"5X c #D7D9DA",
"6X c #F4D6C1",
"7X c #F6D9C3",
"8X c #EFD6CB",
"9X c #CBDAE4",
"0X c #C8D6E1",
"qX c #D3DCE4",
"wX c #D2D9E8",
"eX c #C5C4E4",
"rX c #DCE4EA",
"tX c #D7E1E6",
"yX c #E4EAED",
"uX c #E5E8EB",
"iX c #EAEEF0",
"pX c #E3EBF1",
"aX c #F4F5F5",
"sX c #FBFBFA",
"dX c #F8F8F8",
"fX c #EEF1F3",
/* pixels */
"                                                                                                                                ",
"                                                                                                                                ",
"                                                        # O O O @ # <                                                           ",
"                                                      p = - 6 = * * 9                                                           ",
"                                                  , ; h [ [ [ [ ' ! x > > ; % > % <                                             ",
"                                                  < X j o.o.o.o.} [ W # + # + + o %                                             ",
"                                              , , ; + k 2.,.,.,.#.@.} Q Q x x k k j u ,                                         ",
"                                              @ + + X z e.w.1.w.<.>.>.>.>.#.O.[ ! ! u O <                                       ",
"                                              y y 0 0 Q e.1.e.e.1.,.,.<.2.$.#.O.{ { k - u                                       ",
"                                    < % @ @ s | } { { @.1.e.r.u.e.1.1.1.1.1.1.<.$.$.} { x % @                                   ",
"                                    @ X @ . y o. .[ { o.1.e.u.u.e.w.e.w.w.w.w.<.>.>.} [ ~ O @                                   ",
"                                  p d j j z x ,.:.} } #.<.1.y.u.t.1.1.,.,.1.w.1.<.<.O.} ^ C m M                                 ",
"                                @ = [ O.,.w.w.w.1.#.O.#.>.,.r.u.e.w.<. .o.<.w.w.w.w.$.o.+.z.z.v o ,                             ",
"                                @ = X. .,.1.1.<.,.O.} #.3.1.y.u.t.w.2. .o.<.1.1.1.1.%.X.*.z.z.v o ,                             ",
"                                @ - :.1.$. . .! ! ! W -.(._.i.u.w.w.,.[ [ $.,.,.,.,.G.x.C.-XU.b o ,                             ",
"                                @ a >.w.:. .} ! ! W W +.[.).i.u.t.w.>.[ [ #.:.:.>.>.A.v.Z.-X-XN + ,                             ",
"                                # 0 o.$.x h d s u y a ( ).).i.u.t.1.,.X.X.&.S.J.L.L.U.$XZ.b.C.b + ,                             ",
"                              1 o = [ o.s $ X X + $ $ J {.).i.u.t.1.<.o.X.l.v.b.T.&X&X*X$Xv.v.v o <                             ",
"                                < u Q ! y + $ $ O O $ J |.}.8.i.t.w.1.%.o.A.l.P.$X$X$X$XU.l.f.b O ,                             ",
"                                    > % O + $ $ O O X I +XXX^.9.8.u.y.1.1.o.X.&.v.v.v.b.l.X.X.0 + ,                             ",
"                                    @ $ # % > % 4 O X I +XXX5.5.8.r.e.w.1.#. .*.z.z.z.z.V.o.o.y O 3                             ",
"                                    % # I L.K.L.J.t X I 7X`.V i s d x r.r.#. .X.....*.;.;.2.,.' Q k , ,                         ",
"                                    > # J.7X7X7X.Xf X I 7X`.& X X X s r.y.$. .} [ [ @.2.w.e.w.$.O.x X ;                         ",
"                                    @ # J.6X+X6X.Xi X S G.*.H H D h J r.y.:. .! c k x Q x ` ` o.:.! s d                         ",
"                                    ; # J.7X6X6X.XB X @ + t `.+X_.4.9.u.u.$. .c O O O O O O % ` ,.#.O.] 6 @                     ",
"                                    @ # J.oXoX X`.i + % 6 B @X+X(.^.9.u.r.@.[ z 7 7 7 7 7 7 r ` @.o.o.[ = @                     ",
"                                > > # # ( ^.^.^.!.p X G '.`.OX+X@X(._.w.w.d * H >X>X>X>X>XW.R.S * k o.[ = #                     ",
"                                o o # # ^ 6.6.6.4.u + U 7X6X6X+X|.[._.t.$.s . T rXrXuXrXtX9X<XB . d o.[ * @                     ",
"                            3 p d s % o E m.m.m.n.7 X f I *.|.XX}.p.0.x c *.S.W.iXiXiXiXrXtX4XP.g.H k j p                       ",
"                          < X d ! W % @ m k.s.k.h.q + + X 9 /.[.p.w.] O 4 2XsXsXsXsXsXsXdXrXrX9X9XV.$ #                         ",
"                          9 0 k { ~ - * m a.j.c.d.q # # X 9 =.!.0.w.X.N B Q.1X1X1X2X1X1X4XuXrXqXtXF.$ ;                         ",
"                    , @ 6 ! X.o.:. .! ~ u : i !.7.u + O + @ 6 6 ' e.p.4X1XZ 5 8 8 6 5 5 A iXdXdXdXD.# #                         ",
"                    < $ & ' O.@.:.o.! ! u X i 5.4.9 + @ # # # @ ` 1.p.tX0XB # # # # # # S yXfXfXdXD.O #                         ",
"                    , + & [ :.Q s s a a % @ g (.^.i X S H.H.H.H.J d h A K &.H.H.H.H.=.=.( P P P H N # %                         ",
"                    , O & [ ,.z X + X o O o V {.].i X I 7X7X6X6XG . X . % L.7X7X6X6XoX|.!.# X . . X # @                         ",
"                    < $ & ] :.z + @ < , , < V =.=.9 X I 6X6XOX6XU q b A G '.7X+XoXoX/.=./ ; $ b C t # >                         ",
"                    , + & ' O.k + >           @ # O + I 6X6X6XOXM.s.x.8X+X+X+XXX[.[.F O # $ # V.R.T O ;                         ",
"                    , + % ' O.k + <           # o o X I 6X6XOX6XM.s.x.8X6X+X6XXX[.[.F X O $ # V.-Xg.O >                         ",
"                      , p j k g ,           , O 4 Z L U ) *.Y.Y.m.n.K.].XX|.XX!./ / i $ O # ; P.,XB.X #                         ",
"                          < O 1         , + + $ 4 U.,XT O , j.k.N.~.^.[.[.[.{.) X X $ O $ $ 5 Q.pXP.X #                         ",
"                          , < 2         n r r r b V.R.L X 4 a.a.n.-.4.!./.!././ 9 9 % @ O o 4 Q.iXI.r r                         ",
"                                > > % % T U.R.R.R.N 6 5 O O : : % 6 * , 6 7 6 D 4.4.g o O + % W.sX4XU.C.e @                     ",
"                                # + O O g.&X=X,X;Xt X + # # # # o @ o o O O O D 6.5.D o $ + 5 W.sXqX&XP.r +                     ",
"                          1 , Y D.D.E.Q.,XwX:Xz.x.q X g =.( / ^ i X t =.G.J.=.H.5.5.D @ O O 5 W.sXrX,X;Xr $                     ",
"                          < X R yXpXsXsXsXsXeXk.h.q X ^ {.{.^.6.g X V OX6X6X7X].9.~.D O O o ; W.sXyX0X>Xt o                     ",
"                          A A I.yXyXiXyXwXeX=Xk.j.q X H ]./._ ( F V I  X+X X X/._ _ i X > b B 2XsXuX<X;Xr o                     ",
"                    , @ 7 1XaXaXaXiXwX4Xb.k.k.k.j.q + K *XP.7 % &. X X+X+X|.{.( O % O X t U.&XtXsXtX,XR.r +                     ",
"                    , o 7 1XsXdXaXiX4X3Xz.h.h.k.j.q X K T.C.r & G.+X+X+X X].(./ X X @ X N R.=XrXdXtX;XR.t @                     ",
"                    < O 7 1XsXiXwX>XZ N v q q q q ; $ 8 t Z W.2X`.[.[.^.^.G i 9 $ $ $ X B 3X4X9XtXI.N N                         ",
"                    < + 7 1XsXrX9XW.8 X X $ O # # O $ + X t qXsX7X[.(.6.4.u X + O $ $ X B qXuXqX9XV.o #                         ",
"                    , + 7 1XsX>XB.g.e , , , , , , @ $ r K L 4XyX8X8XOX.X`.i X $ $ O B L B.,X,XP.A.Y , 1                         ",
"                    , + 7 1XsXA.@ <               > $ K &X*X0X0XiXsXsXsXfXB + O $ O B.0X<X*XT.N X ,                             ",
"                    1 % e W.qXA.@ ,               e w L =X=X<X<XwXfXpXqX1XB O $ O O R >XQ.U.C.N @ 1                             ",
"                          i e M               < 8 V.P.;XqX0X=X=X;X;XP.t t # O # O O 4 r r 7 r                                   ",
"                          < O 1               # ; V.&X,XrXqX*X&X-XR.f.O + # # # @ @ # # # # @                                   ",
"                                              @ 5 Q.wXrXfXpX3X,X,X,XP.# # 1                                                     ",
"                                              # & 1XsXdXdXaXrXrXqX9XE.4 O                                                       ",
"                                              # 5 1XdXdXdXaX9X0XW.R.B.4 #                                                       ",
"                                              # 6 2XdXdXdXiX=X*XK 4 4 $ # @ @ ; > @ @ @ ,                                       ",
"                                              @ 5 2XfXfXfXuX*XT.N # # $ O o # @ @ @ @ @ ,                                       ",
"                                              # # B A A A S N N 8 + O $ + $ O ,                                                 ",
"                                              @ O + X X X $ X X + $ # $ # + @ ,                                                 ",
"                                              , , , , , , , , , < , , , , , ,                                                   ",
"                                                                                                                                "
};
