/* XPM */
static char *_bbc6369204b430ef89b9601630a7905NBQQaSuhCMq005ue[] = {
/* columns rows colors chars-per-pixel */
"64 64 227 2 ",
"   c None",
".  c #151515",
"X  c #161817",
"o  c #191917",
"O  c #151519",
"+  c #19161A",
"@  c #171819",
"#  c #1B1A1B",
"$  c #191617",
"%  c #0D0E0E",
"&  c #211D1B",
"*  c #1F231A",
"=  c #23221E",
"-  c #29291E",
";  c #1C1A22",
":  c #251526",
">  c #261529",
",  c #2A162C",
"<  c #251C29",
"1  c #351638",
"2  c #1E2026",
"3  c #222323",
"4  c #2A2623",
"5  c #222428",
"6  c #2B2B2D",
"7  c #2B2A24",
"8  c #332C2A",
"9  c #373529",
"0  c #2A2D32",
"q  c #362432",
"w  c #333536",
"e  c #3A3A3A",
"r  c #393938",
"t  c #2F372A",
"y  c #411A3D",
"u  c #463636",
"i  c #3A492A",
"p  c #4D482B",
"a  c #454235",
"s  c #554936",
"d  c #5B553B",
"f  c #514D30",
"g  c #645B39",
"h  c #775D3D",
"j  c #5A6C3C",
"k  c #6A613B",
"l  c #75643B",
"z  c #77683B",
"x  c #7B703D",
"c  c #3A3950",
"v  c #353576",
"b  c #192558",
"n  c #401841",
"m  c #4F2C45",
"M  c #3D4145",
"N  c #464748",
"B  c #575C47",
"V  c #595857",
"C  c #524B4E",
"Z  c #65544D",
"A  c #5C7642",
"S  c #786B42",
"D  c #7C754B",
"F  c #6C6C4F",
"G  c #5C5E63",
"H  c #555C6D",
"J  c #5E6466",
"K  c #5C646B",
"L  c #666A6C",
"P  c #7A6C64",
"I  c #6B7578",
"U  c #777679",
"Y  c #6E6C71",
"T  c #625969",
"R  c #91793D",
"E  c #886E3A",
"W  c #867D45",
"Q  c #867A4A",
"!  c #8F7341",
"~  c #88766E",
"^  c #5E863F",
"/  c #688746",
"(  c #7B9E4B",
")  c #7A964B",
"_  c #79914B",
"`  c #7FA34A",
"'  c #988747",
"]  c #978B53",
"[  c #92914F",
"{  c #A28B49",
"}  c #A28B47",
"|  c #A5914A",
" . c #AB974E",
".. c #B19E4F",
"X. c #AA9B54",
"o. c #B19E52",
"O. c #82A44C",
"+. c #83A94C",
"@. c #88A655",
"#. c #94B353",
"$. c #9BB456",
"%. c #96AA59",
"&. c #ACA658",
"*. c #B4A253",
"=. c #BDAC57",
"-. c #BCAC5A",
";. c #B7A757",
":. c #BFB15A",
">. c #A0B357",
",. c #94916A",
"<. c #A7887A",
"1. c #A78978",
"2. c #A0997D",
"3. c #ADA26B",
"4. c #BAB268",
"5. c #B4AB75",
"6. c #B5AF70",
"7. c #8CA861",
"8. c #C0AF59",
"9. c #C4B45B",
"0. c #C7B85D",
"q. c #C9BB5D",
"w. c #C1B057",
"e. c #CCBE61",
"r. c #C5BA68",
"t. c #C8B473",
"y. c #CEC15F",
"u. c #D1C45F",
"i. c #CEC161",
"p. c #CAC168",
"a. c #D1C463",
"s. c #D6CA67",
"d. c #D9CC6A",
"f. c #D5CA68",
"g. c #DDD26B",
"h. c #CEC572",
"j. c #E1D56D",
"k. c #E2D278",
"l. c #323C8D",
"z. c #1B2D81",
"x. c #31499A",
"c. c #484D91",
"v. c #5F629E",
"b. c #7A7D80",
"n. c #6D6B96",
"m. c #4645AB",
"M. c #7779AC",
"N. c #6B6EBB",
"B. c #7378BB",
"V. c #6A6FAE",
"C. c #817F9F",
"Z. c #857AB3",
"A. c #7A8493",
"S. c #7D86BD",
"D. c #7E88AA",
"F. c #858485",
"G. c #858995",
"H. c #969799",
"J. c #919294",
"K. c #AB9687",
"L. c #91A984",
"P. c #B4A396",
"I. c #A8A288",
"U. c #8886A3",
"Y. c #9786AA",
"T. c #8996A6",
"R. c #949BA2",
"E. c #8B96BC",
"W. c #929AB7",
"Q. c #8F8AB6",
"!. c #A99AA9",
"~. c #99A8BA",
"^. c #9FA8AE",
"/. c #A6A8A7",
"(. c #A5ABB8",
"). c #ABB4B8",
"_. c #B7B7B7",
"`. c #BFA2AE",
"'. c #CFA994",
"]. c #C9B7A9",
"[. c #CAB8A9",
"{. c #D6BAA8",
"}. c #ECBDA9",
"|. c #E7BDA9",
" X c #C29E8F",
".X c #BFC0BF",
"XX c #E7C396",
"oX c #DBC4B4",
"OX c #C0C0BF",
"+X c #EEC1AA",
"@X c #F1C2AC",
"#X c #EBC9B4",
"$X c #E3CEBC",
"%X c #EAD2BD",
"&X c #F1C6B2",
"*X c #97A7C3",
"=X c #ACB9C8",
"-X c #B5BDC5",
";X c #919FC3",
":X c #BEC6CC",
">X c #B7C5D4",
",X c #C4C4C4",
"<X c #C5C9CB",
"1X c #C4CCD5",
"2X c #CCD4DC",
"3X c #C8D1D9",
"4X c #D6DAD7",
"5X c #D0D2C6",
"6X c #EDD6C2",
"7X c #EDD8C4",
"8X c #E4D6C6",
"9X c #F1DAC5",
"0X c #F3DDCD",
"qX c #CCD7E1",
"wX c #D4DCE3",
"eX c #D5DAE2",
"rX c #DDE3EA",
"tX c #DBE0E7",
"yX c #E1E5EA",
"uX c #E4E9ED",
"iX c #E6E6E6",
"pX c #EAEDF2",
"aX c #EEF1F3",
"sX c #FCFCFC",
"dX c #F5F6F7",
"fX c #F8EAE6",
"gX c #DDE0D7",
/* pixels */
"                                                                                                                                ",
"                                                                                                                                ",
"                                                                                                                                ",
"                                                                                                                                ",
"                                                                                                                                ",
"                                                                      : ; + + ; + >                                             ",
"                                                                      - 7 - 7 7 - u                                             ",
"                                                          ; $ + $ $ o l ' ' | |  .Q = +                                         ",
"                                                        y + & & & ; = x }  ...o.o.] = +                                         ",
"                                                      , u h E Q ' ] ] o.;.8.9.0.0.X.- + , ,                                     ",
"                                                    $ . s R }  .o.-.8.8.w.0.e.y.e.&.4 O . +                                     ",
"                                                  # s g ! o.o.9.w.0.0.q.0.a.d.f.a.=.l g g S s +                                 ",
"                                                > ; k | o.8.9.e.i.i.i.i.i.f.j.s.e.0.| {  .o.s . +                               ",
"                                                m c D | o.9.0.e.e.w.w.q.e.s.j.d.0.9. . .o.8.S s u                               ",
"                                            ; < v.N.2. .8.e.e.e.e.*.o.0.e.s.j.a.w.8.o.o.e.e.8.X.z # 1                           ",
"                                            + 2 V.Q.G.,.3.0.0.0.w. . .9.u.s.j.d.t.t.{ R o.o.-.8.x o ,                           ",
"                                            @ 5 T.*XS.N.J.w.w.8.=.{ } w.y.s.j.XX}.'.E E R R *.a.' X <                           ",
"                                            $ 5 D.;XS.B.J.6.6.3.3. . .0.u.0.:.t.@X'.h g E R *.a.D X ,                           ",
"                                            $ < v.N.E.*X~.(.W.B.M.r.y.s.j./ & Z %X{.7 & l R *.a.' X ,                           ",
"                                            @ 2 n.B.E.*X*X*XE.V.M.t.u.h.h.S % V %X{.4 & l R *.a.D X ,                           ",
"                                            @ 4 ,.3.U.B.B.B.U.6.4.d.s.k r - . V 9X].4 & l R *.a.' % ,                           ",
"                                            X 4 X.:.G.N.N.N.U.p.u.j.d.p + ; O Z %X[.4 # z ! *.a._ . ,                           ",
"                                        $ u W W :.q.6.I.I.2.5.f.f.;.;.I.R.H b L 6X].4 & ' ;.Q s p                               ",
"                                        O 9 =.w.q.y.i.y.0.w.y.g.d.| { 5XpXS.z.n.6X].4 * X.e.g O .                               ",
"                                      m d S e.e.e.e.q.0.=...=.g.f.| ' 8XaXQ.l.n.6X].4 # B Q Z 1                                 ",
"                                    + d X.-.d.j.a.a.0.w...' ..g.d.| { 8XsXE.x.S.7X].4 O $ o                                     ",
"                                  u u z =.w.s.a.&.| ' ' ' l ' g.f.....%XfX(.v.W.7X].4 @ # +                                     ",
"                              ; $ f  .=.g.g.u.4.9 # # # @ X p :.e.g.j.XX}.#X8X8X7X[.7 @                                         ",
"                              + $ s *.9.g.f.4.3.a 6 6 6 0 6 d 4.4.g.g.XX}.#X%X$XoXP.q >                                         ",
"                              + $ g e.y.i.&.9 i ^.:X:X<X<X1XH.9 a h.j.XX}.#X6XP.8 u                                             ",
"                              @ O g p.p.e.] = 5 ).qXtXrXrXrX(.2 9 r.g.XX|.+X6XK.o ,                                             ",
"                              @ O g p.] p B G.R.wXpXaXaXuXrX3X/./.h.y.%.,.F C L (.H.6 @                                         ",
"                              + O g p.D % c =X>XpXsXdXdXaXwXrXrXgXh.y.) ^ i % V uX-Xq +                                         ",
"                              + O g f.Q . N 4X2XJ.F.G.,._.pXuXrX4Xr.0.+.( / j F b.U m                                           ",
"                              @ . d a.Q . N dXiXr . . % F.sXdXrX4X4.w.>.#.$.#.A $ :                                             ",
"                              O @ d r.D O i /./.0 . u C ~ _.-XwX4X4.&.$.#.#.$._ i a                                             ",
"                              ; X s ;.S @ # @ @ o # 1.+X~ . C qX:X7.` #.#.#.#.#.#.O.< $                                         ",
"                                > s ] g X # 0 0 + @ <.@X~ w V ).).7.( +.#.#.#.#.#._ * O                                         ",
"                                  m 4 < . w T.G.6 o <.+X|.oXK.6 t ^ / ( O.O.O.O.O._ = o                                         ",
"                                    + X . c ~.~.0 o <.+X#X9XP.& * A / ( O.O.( ( ( _ = +                                         ",
"                                      1 $ M >X=Xw @ <.}.#X9XK.: 2 c.c.W..XK i t i w                                             ",
"                                        O M 3X:Xq $ <.}.#X9XP.& 2 x.m.*X>XL % O % ;                                             ",
"                                        O N 2X1Xw & <.}.].Z.n.& 2 K _ T.L.B . $ @ <                                             ",
"                                        . N 4X3Xw & <.}.Z.m.v + - ( ` ` ` f O O . >                                             ",
"                                      C G b.rX2Xr $ ~ !.Y.Z.M.Z F A k %.5.B O 8 Z Z                                             ",
"                                    + L 2XwXdXiXe $ l.m.Q.6X6X7X[.0 & K.}.F % Z }.'.4 .                                         ",
"                                    O L eXwXdXiXr . v l.Y.9X6X%X[.8 2 K.&XP . s  XK.1 ,                                         ",
"                                    O L rXyXdXiXe . O ; ~ 9X#X}.'.8 # P.9XP . # & q                                             ",
"                                    < I yXiXuX4Xr $ 2 = P 8X#X|. X8 # P.0XP . @ + ,                                             ",
"                                + G ).1XdX<XC e # @ I ^.Y e r 9 r # = _.sX~ . +                                                 ",
"                              + . J qXrXsX,X& $ # # A.>XI % $ $ . $ 2 _.sXA.. +                                                 ",
"                              + . J qXrXsX,X3 O @ ; A.>X)./././.H.4 # J.1XL . #                                                 ",
"                              # O J qXrXsX,X3 @ X X A.>XwXsXsXsXiXw $ b.*XH % .                                                 ",
"                              + . J qXtXsX,X3 # V K (.3X2XqXqXeX-X6 # W.2XR.U L                                                 ",
"                              # $ J qXrXsX,X3 5 ~.>XqXrX>X~.~.*XT.2 @ .XsXsXsX_.@ ,                                             ",
"                                > T ^.<XsX,X3 5 ^.>X-X).=X=X=X=X(.V C /.,X,X,XF.@ >                                             ",
"                                    ; U sX<X3 7 ,XrXG @ b.yXuXsXdXdXpXV & = * # + >                                             ",
"                                    , Y ,XH.& 5 H.).N . G ).)._..X:X_.N X : , , , n                                             ",
"                                        < & @ # ; # @ $ # < < = * # 2 # @ n                                                     ",
"                                        & $ $ @ @ @ o o o X $ # X X o X +                                                       ",
"                                                                                                                                ",
"                                                                                                                                ",
"                                                                                                                                ",
"                                                                                                                                "
};
