/* XPM */
static char *result[] = {
/* columns rows colors chars-per-pixel */
"64 64 197 2 ",
"   c #151516",
".  c #181717",
"X  c #171817",
"o  c #1A1917",
"O  c #161618",
"+  c #1A151A",
"@  c #171818",
"#  c #1A1A19",
"$  c #201B1D",
"%  c #25231D",
"&  c #29261E",
"*  c #2E2C1F",
"=  c #322F1F",
"-  c #1F1520",
";  c #221523",
":  c #2A142B",
">  c #271826",
",  c #2E1430",
"<  c #321433",
"1  c #361438",
"2  c #39163A",
"3  c #242425",
"4  c #2B2924",
"5  c #252728",
"6  c #2A2B2C",
"7  c #29272A",
"8  c #322D23",
"9  c #332C29",
"0  c #353222",
"q  c #393524",
"w  c #3B362A",
"e  c #272631",
"r  c #3A2535",
"t  c #2F3235",
"y  c #313232",
"u  c #3B3C3D",
"i  c #383838",
"p  c #433C27",
"a  c #433D29",
"s  c #493739",
"d  c #563E3B",
"f  c #4A432D",
"g  c #47432A",
"h  c #554A2E",
"j  c #594B2D",
"k  c #4E4538",
"l  c #554A36",
"z  c #5C5534",
"x  c #5B532F",
"c  c #6C5E35",
"v  c #675937",
"b  c #725C31",
"n  c #68623E",
"m  c #72653B",
"M  c #796A3B",
"N  c #7C723F",
"B  c #222549",
"V  c #423742",
"C  c #5C3947",
"Z  c #3D4349",
"A  c #424343",
"S  c #4A4C48",
"D  c #5B4D46",
"F  c #564841",
"G  c #454B52",
"H  c #584E59",
"J  c #58514C",
"K  c #66584A",
"L  c #715A4D",
"P  c #7A6E43",
"I  c #7E7242",
"U  c #7F7048",
"Y  c #7E675C",
"T  c #6E6843",
"R  c #6B6D6E",
"E  c #656769",
"W  c #717273",
"Q  c #787977",
"!  c #706C70",
"~  c #8E743C",
"^  c #85753F",
"/  c #8B703A",
"(  c #837642",
")  c #8B7D44",
"_  c #877943",
"`  c #8A6E5E",
"'  c #947A6E",
"]  c #8B8145",
"[  c #8C824A",
"{  c #9C8645",
"}  c #99894A",
"|  c #968B52",
" . c #9C914D",
".. c #A28C47",
"X. c #A28C48",
"o. c #A6924C",
"O. c #AA954D",
"+. c #AD9A4F",
"@. c #A49553",
"#. c #A59955",
"$. c #AD9B52",
"%. c #B19E51",
"&. c #AFA55C",
"*. c #B4A353",
"=. c #B8A655",
"-. c #BBAB56",
";. c #B4A85C",
":. c #BDAD59",
">. c #B1A55B",
",. c #BEB35A",
"<. c #AE8E7E",
"1. c #C3B45B",
"2. c #C7B95E",
"3. c #CABC5F",
"4. c #C1B156",
"5. c #C0AF58",
"6. c #CBBE60",
"7. c #C5B761",
"8. c #CEC15F",
"9. c #CEC161",
"0. c #D2C563",
"q. c #D5CA66",
"w. c #D8CC67",
"e. c #DACD69",
"r. c #D7CA68",
"t. c #DED36B",
"y. c #DFD570",
"u. c #E0D56C",
"i. c #595C93",
"p. c #4041AA",
"a. c #6769A5",
"s. c #716AB1",
"d. c #8E7594",
"f. c #8879AC",
"g. c #7B858F",
"h. c #8B9096",
"j. c #959595",
"k. c #93999B",
"l. c #888B8F",
"z. c #A1869C",
"x. c #8C99A9",
"c. c #979FA9",
"v. c #828FA2",
"b. c #99A7B7",
"n. c #A9ABAC",
"m. c #A6B2BC",
"M. c #ACB2B7",
"N. c #B9B9B9",
"B. c #B0B5B9",
"V. c #ADABB3",
"C. c #C39E8B",
"Z. c #CEA284",
"A. c #D4A68C",
"S. c #D4AB94",
"D. c #C2B09F",
"F. c #D8B29B",
"G. c #C4B2A1",
"H. c #D3B2A9",
"J. c #EBBEA9",
"K. c #EABBA4",
"L. c #DCC7B4",
"P. c #EAC2AC",
"I. c #ECCDB9",
"U. c #A8B7C8",
"Y. c #B3BDC5",
"T. c #B5BEC6",
"R. c #C1B3C3",
"E. c #BEC1C5",
"W. c #B4C3D2",
"Q. c #B9C7D3",
"!. c #C7C8CA",
"~. c #C5CED5",
"^. c #CAD5DE",
"/. c #C3D1DB",
"(. c #D2D2D2",
"). c #D5D9DC",
"_. c #E9D2C2",
"`. c #F0D7C3",
"'. c #CED9E2",
"]. c #CCD7E1",
"[. c #D4DDE5",
"{. c #DDE1E5",
"}. c #DDE3E9",
"|. c #D7E0E6",
" X c #E4E4E3",
".X c #E1E6EA",
"XX c #E4E9ED",
"oX c #E9EBEB",
"OX c #ECEEF1",
"+X c #EDF0F3",
"@X c #F5F6F6",
"#X c #F8F7F7",
"$X c #F7F7F8",
"%X c #F8F7F8",
"&X c #FAFAFA",
"*X c #F7F8F5",
"=X c None",
/* pixels */
"=X=X=X=X=X=X=X=X=X=X=X=X=X=X=X=X=X=X=X=X=X=X=X=X=X=X=X=X=X=X=X=X=X=X=X=X=X=X=X=X=X=X=X=X=X=X=X=X=X=X=X=X=X=X=X=X=X=X=X=X=X=X=X=X",
"=X=X=X=X=X=X=X=X=X=X=X=X=X=X=X=X=X=X=X=X=X=X=X=X=X=X=X=X=X=X=X=X=X=X=X=X=X=X=X=X=X=X=X=X=X=X=X=X=X=X=X=X=X=X=X=X=X=X=X=X=X=X=X=X",
"=X=X=X=X=X=X=X=X=X=X=X=X=X=X=X=X=X=X=X=X=X=X=X=X=X=X=X=X=X=X=X=X=X=X=X=X=X=X=X=X=X=X=X=X=X=X=X=X=X=X=X=X=X=X=X=X=X=X=X=X=X=X=X=X",
"=X=X=X=X=X=X=X=X=X=X=X=X=X=X=X=X=X=X=X=X=X=X=X=X=X=X=X=X=X=X=X=X=X=X=X=X=X=X=X=X=X=X=X=X=X=X=X=X=X=X=X=X=X=X=X=X=X=X=X=X=X=X=X=X",
"=X=X=X=X=X=X=X=X=X=X=X=X=X=X=X=X=X=X=X=X=X=X=X=X=X=X=X=X=X=X=X=X=X=X=X=X=X=X=X=X=X=X=X=X=X=X=X=X=X=X=X=X=X=X=X=X=X=X=X=X=X=X=X=X",
"=X=X=X=X=X=X=X=X=X=X=X=X=X=X=X=X=X=X=X=X=X=X=X=X=X=X=X=X=X=X=X=X=X=X=X=X=X=X=X=X=X=X=X=X=X=X=X=X=X=X=X=X=X=X=X=X=X=X=X=X=X=X=X=X",
"=X=X=X=X=X=X=X=X=X=X=X=X=X=X=X=X=X=X=X=X=X=X=X=X=X=X=X=X=X=X=X=X=X=X=X=X=X=X=X=X=X=X=X=X=X=X=X=X=X=X=X=X=X=X=X=X=X=X=X=X=X=X=X=X",
"=X=X=X=X=X=X=X=X=X=X=X=X=X=X=X=X=X=X=X=X=X=X=X=X=X=X=X=X=X=X=X=X=X=X=X=X=X=X=X=X=X=X=X=X=X=X=X=X=X=X=X=X=X=X=X=X=X=X=X=X=X=X=X=X",
"=X=X=X=X=X=X=X=X=X=X=X=X=X=X=X=X=X=X=X=X=X=X=X=X=X=X=X=X=X=X=X=X=X=X=X=X=X=X=X=X=X=X=X=X=X=X=X=X=X=X=X=X=X=X=X=X=X=X=X=X=X=X=X=X",
"=X=X=X=X=X=X=X=X=X=X=X=X=X=X=X=X=X=X=X=X=X=X=X=X=X=X=X=X=X=X=X=X=X=X=X=X=X=X=X=X=X=X=X=X=X=X=X=X=X=X=X=X=X=X=X=X=X=X=X=X=X=X=X=X",
"=X=X=X=X=X=X=X=X=X=X=X=X=X=X=X=X=X=X=X=X=X=X=X=X=X=X=X=X=X=X=X=X=X=X=X=X=X=X=X=X=X=X=X=X=X=X=X=X=X=X=X=X=X=X=X=X=X=X=X=X=X=X=X=X",
"=X=X=X=X=X=X=X=X=X=X=X=X=X=X=X=X=X=X=X=X=X=X=X=X=X=X=X=X=X=X=X=X=X=X=X=X=X=X=X=X=X=X=X=X=X=X=X=X=X=X=X=X=X=X=X=X=X=X=X=X=X=X=X=X",
"=X=X=X=X=X=X=X=X=X=X=X=X=X=X=X=X=X=X=X=X=X=X=X=X=X=X=X=X=X=X=X=X=X=X=X=X=X=X=X=X=X=X=X=X=X=X=X=X=X=X=X=X=X=X=X=X=X=X=X=X=X=X=X=X",
"=X=X=X=X=X=X=X=X=X=X=X=X=X=X=X=X=X=X=X=X=X=X=X=X=X=X=X=X=X=X=X=X=X=X=X=X=X=X=X=X=X=X=X=X=X=X=X=X=X=X=X=X=X=X=X=X=X=X=X=X=X=X=X=X",
"=X=X=X=X=X=X=X=X=X=X=X=X=X=X=X=X=X=X=X=X=X=X=X=X=X=X=X=X=X=X=X=X=X=X=X=X=X=X=X=X=X=X=X=X=X=X=X=X=X=X=X=X=X=X=X=X=X=X=X=X=X=X=X=X",
"=X=X=X=X=X=X=X=X=X=X=X=X=X=X=X=X=X=X=X=X=X=X=X=X=X=X=X=X=X=X=X=X=X=X=X=X=X=X=X=X=X=X=X=X=X=X=X=X=X=X=X=X=X=X=X=X=X=X=X=X=X=X=X=X",
"=X=X=X=X=X=X=X=X=X=X=X=X=X=X=X=X=X=X=X=X=X=X=X=X=X=X=X=X=X=X=X=X=X=X=X=X=X=X=X=X=X=X=X=X=X=X=X=X=X=X=X=X=X=X=X=X=X=X=X=X=X=X=X=X",
"=X=X=X=X=X=X=X=X=X=X=X=X=X=X=X=X=X=X=X=X=X=X=X=X=X=X=X=X=X=X=X=X=X=X=X=X=X=X=X=X=X=X=X=X=X=X=X=X=X=X=X=X=X=X=X=X=X=X=X=X=X=X=X=X",
"=X=X=X=X=X=X=X=X=X=X=X=X=X=X=X=X=X=X=X=X=X=X=X=X=X=X=X=X=X=X=X=X=X=X=X=X=X: : : : : : : : : > > : =X=X=X=X=X=X=X=X=X=X=X=X=X=X=X",
"=X=X=X=X=X=X=X=X=X=X=X=X=X=X=X=X=X=X=X=X=X=X=X=X=X=X=X=X=X=X=X=X=X=X=X=X@ @ X O @   O . . . X X @ =X=X=X=X=X=X=X=X=X=X=X=X=X=X=X",
"=X=X=X=X=X=X=X=X=X=X=X=X=X=X=X=X=X=X=X=X=X=X=X=X=X=X=X=X=X=X=X=X=XX #   j c M ( ( ] ] ] ] ^ N m c f O =X=X=X=X=X=X=X=X=X=X=X=X=X",
"=X=X=X=X=X=X=X=X=X=X=X=X=X=X=X=X=X=X=X=X=X=X=X=X=X=X=X=X=X=X=X=XO .   O c ..+.4.2.9.8.8.0.1.1.+.X.h O < =X=X=X=X=X=X=X=X=X=X=X=X",
"=X=X=X=X=X=X=X=X=X=X=X=X=X=X=X=X=X=X=X=X=X=X=X=X=X=X1 2 2 2 =Xr l j z v ] %.=.1.8.q.q.q.0.8.8.-.*.( j d 2 =X=X=X=X=X=X=X=X=X=X=X",
"=X=X=X=X=X=X=X=X=X=X=X=X=X=X=X=X=X=X=X=X=X=X=X=X=X1 + O O O   % ) X.@.$.=.,.2.9.0.t.t.t.t.u.u.0.6.*.X.c # + =X=X=X=X=X=X=X=X=X=X",
"=X=X=X=X=X=X=X=X=X=X=X=X=X=X=X=X=X=X=X=X=X=X=X=X=Xs w p p p g h { o.%.=.1.3.3.0.q.t.u.t.t.u.t.q.0.5.O.T o # =X=X=X=X=X=X=X=X=X=X",
"=X=X=X=X=X=X=X=X=X=X=X=X=X=X=X=X=X=X=X=X=X=X=XO O v X.{ {  .O.+.+.%.2.6.e.u.u.u.t.t.t.u.u.t.t.t.u.6.5.(   @ =X=X=X=X=X=X=X=X=X=X",
"=X=X=X=X=X=X=X=X=X=X=X=X=X=X=X=X=X=X=X=X=X=X=X9 8 m o.o.o.O.*.;.=.=.1.3.0.q.e.e.t.t.t.t.t.t.t.w.r.6.1.[ 8 8 =X=X=X=X=X=X=X=X=X=X",
"=X=X=X=X=X=X=X=X=X=X=X=X=X=X=X: - $ ; ; $ $ > U o.-.3.2.8.8.e.e.e.e.-.%.%.*.=.4.1.8.8.t.t.8.8.-.%.5.6.5.@._ > : =X=X=X=X=X=X=X=X",
"=X=X=X=X=X=X=X=X=X=X=X=X=X=X=X7 7 3 7 3 3 3 e I o.*.7.,.,.7.e.t.t.t.-.%.*.%.=.4.1.8.0.u.u.0.6.-.%.5.0.1.%.) # ; =X=X=X=X=X=X=X=X",
"=X=X=X=X=X=X=X=X=X=X=X=X=X  J !.(.E.T.m.m.x.g.S 8 8 0 0 0 z 9.0.9.8.w.w.q.q.e.e.e.w.t.u.u.e.u.6.2.0.t.6.%.) $ $ =X=X=X=X=X=X=X=X",
"=X=X=X=X=X=X=X=X=X=X=X=X=X6 E @X@X}.[././.b.x.G 7 6 6 5 6 k ;.,.8.8.e.t.t.t.t.t.t.u.t.u.u.u.u.0.6.r.u.6.%.) # ; =X=X=X=X=X=X=X=X",
"=X=X=X=X=X=X=X=X=X=X<   R ).). X|.Q.W.U.b.Z e g.b.m.Y.Y.W.k.0 a *.,.9.8.8.9.q.u.u.t.u.t.t.u.u.u.u.t.u.6.*.] $ ; =X=X=X=X=X=X=X=X",
"=X=X=X=X=X=X=X=X=X=X<   W $X@X}.[.Q.U.b.x.t @ h.Q.Q.].].].n.3 8 #.;.6.6.6.3.0.t.t.t.t.u.t.t.u.t.u.u.u.3.%.) $ : =X=X=X=X=X=X=X=X",
"=X=X=X=X=X=X=X=X=X=X< O R XX}.'.[.XX~.G Z g.x.W.].].|.|.|.).E.n.l g } =.=.=.:.2.2.2.2.0.0.e.u.q.8.0.0.3.-.%.) ( r : =X=X=X=X=X=X",
"=X=X=X=X=X=X=X=X=X=X<   E }.[.^.'.*X(.5 3 b.Q./.].'.}.}.}.XX&X Xt o ) %.+.+.=.:.5.:.,.9.8.t.u.0.3.0.8.3.5.-.%. .4   =X=X=X=X=X=X",
"=X=X=X=X=X=X=X=X=X@ ! h.M.}.}.XXXX$X(.5 5 N.}.oXXX}.}.M.R R W R l j ) X...o.+.=.=.3.3.r.e.q.0.=.O.=.1.1.2.2.1.-.N m q =X=X=X=X=X",
"=X=X=X=X=X=X=X=XO   l..X}.}.XX$X&X&X(.3 3 (.&X&X&X+XXXk.      X b / ~ ~ { { X.%.=.9.9.t.t.0.6.X.~ O.4.1.8.8.8.3.*.+.q O =X=X=X=X",
"=X=X=X=X=X=X=X=X! Q N.OXoXoXOX$X*X&X[.Q W h.j.j.k.h.l.Q v T T T X.O.O.O.+.*.=.-.1.q.w.t.t.6.7.P j ~ +.%.4.1.2.2.:.=.w   =X=X=X=X",
"=X=X=X=X=X=X: $ N.&X$X$X@X#X#X#X*X@X@XXX).i       X   x 9.q.y.u.t.t.0.9.9.9.6.9.0.t.t.u.t.1.:.k   j ~ { %.*.4.1.9.2.a O =X=X=X=X",
"=X=X=X=X=X=X: # N.&X$X$X#X#X@X@X@X@X.XV.c.y   q g g g N 3.3.r.q.r.e.q.0.0.0.0.0.q.e.e.w.0. .) p   a m M _ _ [ } 1.1.a @ =X=X=X=X",
"=X=X=X=X=X=X; # B.&X@X$X$X$X#X#X@XXXE.6 @ @ # ] :.1.6.1.4.1.4.1.9.9.t.t.t.t.t.u.e.0.6.1.=.q @ @ O + + # # # # 8 &.-.w X =X=X=X=X",
"=X=X=X=X=X=XF B L.%X@X$X@X@X@XOXXX!.n.3 @ 4 q [ 5.1.6.:.#.#.#.#.&.;.9.e.e.q.w.r.9.&.&.#. .i e y i w w 4 # # . & | @.s ; =X=X=X=X",
"=X=X=X=X$ y !.oX@X*X%X&XOX.X[.Q.m.i 5 @ $ | >.*.%.%.*.^ 3 & & & 4 8 | *.*.*.*.=.) & & & 7 i.s.V.L.F.F.' . # # # % & =X=X=X=X=X=X",
"=X=X=X=X. 8 !.oXoXoXoXoX{.^.~.U.c.5 O $ 4 #.,.+.o.o.o.m $ % 3 $ O # ( o.o.o.o.o.^ 3 3 3 9 a.s.R._.P.J.' @ @ + #   X =X=X=X=X=X=X",
"=X=X=X=X+ # V A A A A A k B u u y # * _ { $.%.x 0 0 = K Z.C.Z.z.7 . * 0 0 0 0 8 K D.G.G.G.H.H.f.s.f.A.` # + =X=X=X=X=X=X=X=X=X=X",
"=X=X=X=X+ + + + + # + + $ + + + + + 9 @.$.$.$.a       K K.K.P.S.9 . O           J I.`.`.`.P.J.s.p.d.Z.` + + =X=X=X=X=X=X=X=X=X=X",
"=X=X=X=X=X=X=X=X=X=X=X=X=X=X=X=X=X=X=Xf f f f &   # X 9 D D D F $ @ # # # #     J P.P.F.S.S.A.H B V l C =X=X=X=X=X=X=X=X=X=X=X=X",
"=X=X=X=X=X=X=X=X=X=X=X=X=X=X=X=X=X=X=X@   O     @ @ @ X   X   O #   o O # X #   F K.K.Z.Z.Z.Z.k   . . < =X=X=X=X=X=X=X=X=X=X=X=X",
"=X=X=X=X=X=X=X=X=X=X=X=X=X=X=X=X=X=X=X=X=X=X=X=X=X=X=X=X=X=X=X=X=X=X=X=X=X=X=X=Xk Y Y L L L L s =X=X=X=X=X=X=X=X=X=X=X=X=X=X=X=X",
"=X=X=X=X=X=X=X=X=X=X=X=X=X=X=X=X=X=X=X=X=X=X=X=X=X=X=X=X=X=X=X=X=X=X=X=X=X=X=X=X=X          ; =X=X=X=X=X=X=X=X=X=X=X=X=X=X=X=X=X",
"=X=X=X=X=X=X=X=X=X=X=X=X=X=X=X=X=X=X=X=X=X=X=X=X=X=X=X=X=X=X=X=X=X=X=X=X=X=X=X=X=X, , , : < < =X=X=X=X=X=X=X=X=X=X=X=X=X=X=X=X=X",
"=X=X=X=X=X=X=X=X=X=X=X=X=X=X=X=X=X=X=X=X=X=X=X=X=X=X=X=X=X=X=X=X=X=X=X=X=X=X=X=X=X=X=X=X=X=X=X=X=X=X=X=X=X=X=X=X=X=X=X=X=X=X=X=X",
"=X=X=X=X=X=X=X=X=X=X=X=X=X=X=X=X=X=X=X=X=X=X=X=X=X=X=X=X=X=X=X=X=X=X=X=X=X=X=X=X=X=X=X=X=X=X=X=X=X=X=X=X=X=X=X=X=X=X=X=X=X=X=X=X",
"=X=X=X=X=X=X=X=X=X=X=X=X=X=X=X=X=X=X=X=X=X=X=X=X=X=X=X=X=X=X=X=X=X=X=X=X=X=X=X=X=X=X=X=X=X=X=X=X=X=X=X=X=X=X=X=X=X=X=X=X=X=X=X=X",
"=X=X=X=X=X=X=X=X=X=X=X=X=X=X=X=X=X=X=X=X=X=X=X=X=X=X=X=X=X=X=X=X=X=X=X=X=X=X=X=X=X=X=X=X=X=X=X=X=X=X=X=X=X=X=X=X=X=X=X=X=X=X=X=X",
"=X=X=X=X=X=X=X=X=X=X=X=X=X=X=X=X=X=X=X=X=X=X=X=X=X=X=X=X=X=X=X=X=X=X=X=X=X=X=X=X=X=X=X=X=X=X=X=X=X=X=X=X=X=X=X=X=X=X=X=X=X=X=X=X",
"=X=X=X=X=X=X=X=X=X=X=X=X=X=X=X=X=X=X=X=X=X=X=X=X=X=X=X=X=X=X=X=X=X=X=X=X=X=X=X=X=X=X=X=X=X=X=X=X=X=X=X=X=X=X=X=X=X=X=X=X=X=X=X=X",
"=X=X=X=X=X=X=X=X=X=X=X=X=X=X=X=X=X=X=X=X=X=X=X=X=X=X=X=X=X=X=X=X=X=X=X=X=X=X=X=X=X=X=X=X=X=X=X=X=X=X=X=X=X=X=X=X=X=X=X=X=X=X=X=X",
"=X=X=X=X=X=X=X=X=X=X=X=X=X=X=X=X=X=X=X=X=X=X=X=X=X=X=X=X=X=X=X=X=X=X=X=X=X=X=X=X=X=X=X=X=X=X=X=X=X=X=X=X=X=X=X=X=X=X=X=X=X=X=X=X",
"=X=X=X=X=X=X=X=X=X=X=X=X=X=X=X=X=X=X=X=X=X=X=X=X=X=X=X=X=X=X=X=X=X=X=X=X=X=X=X=X=X=X=X=X=X=X=X=X=X=X=X=X=X=X=X=X=X=X=X=X=X=X=X=X",
"=X=X=X=X=X=X=X=X=X=X=X=X=X=X=X=X=X=X=X=X=X=X=X=X=X=X=X=X=X=X=X=X=X=X=X=X=X=X=X=X=X=X=X=X=X=X=X=X=X=X=X=X=X=X=X=X=X=X=X=X=X=X=X=X",
"=X=X=X=X=X=X=X=X=X=X=X=X=X=X=X=X=X=X=X=X=X=X=X=X=X=X=X=X=X=X=X=X=X=X=X=X=X=X=X=X=X=X=X=X=X=X=X=X=X=X=X=X=X=X=X=X=X=X=X=X=X=X=X=X",
"=X=X=X=X=X=X=X=X=X=X=X=X=X=X=X=X=X=X=X=X=X=X=X=X=X=X=X=X=X=X=X=X=X=X=X=X=X=X=X=X=X=X=X=X=X=X=X=X=X=X=X=X=X=X=X=X=X=X=X=X=X=X=X=X",
"=X=X=X=X=X=X=X=X=X=X=X=X=X=X=X=X=X=X=X=X=X=X=X=X=X=X=X=X=X=X=X=X=X=X=X=X=X=X=X=X=X=X=X=X=X=X=X=X=X=X=X=X=X=X=X=X=X=X=X=X=X=X=X=X"
};
