/* XPM */
static char *result[] = {
/* columns rows colors chars-per-pixel */
"64 64 243 2 ",
"   c #040507",
".  c #0C1608",
"X  c #14190B",
"o  c #0A0B15",
"O  c #141415",
"+  c #1C1B19",
"@  c #1B1817",
"#  c #100D16",
"$  c #231A1C",
"%  c #18280B",
"&  c #17261A",
"*  c #162E09",
"=  c #272618",
"-  c #273B12",
";  c #313212",
":  c #1A1923",
">  c #181723",
",  c #291528",
"<  c #32142E",
"1  c #2E0935",
"2  c #380938",
"3  c #371735",
"4  c #2D0C2D",
"5  c #1C272C",
"6  c #272827",
"7  c #3A2D26",
"8  c #2A3527",
"9  c #382D37",
"0  c #363736",
"q  c #2F3631",
"w  c #443C1A",
"e  c #450A3C",
"r  c #46342A",
"t  c #4D2F34",
"y  c #2E490F",
"u  c #387117",
"i  c #35493E",
"p  c #33502F",
"a  c #336E31",
"s  c #514C17",
"d  c #547715",
"f  c #696915",
"g  c #757119",
"h  c #564832",
"j  c #664939",
"k  c #6D5231",
"l  c #766925",
"z  c #67642C",
"x  c #5B6224",
"c  c #1A1B5C",
"v  c #311650",
"b  c #1B2350",
"n  c #34314A",
"m  c #1D1D63",
"M  c #211B64",
"N  c #272667",
"B  c #31376D",
"V  c #1F2160",
"C  c #500A4C",
"Z  c #621057",
"A  c #562947",
"S  c #573358",
"D  c #6B2F51",
"F  c #501064",
"G  c #70356A",
"H  c #680B68",
"J  c #394643",
"K  c #395543",
"L  c #3D5D62",
"P  c #474748",
"I  c #47584B",
"U  c #595646",
"Y  c #575855",
"T  c #524E4D",
"R  c #674D44",
"E  c #7A5749",
"W  c #665954",
"Q  c #69534F",
"!  c #516D56",
"~  c #656652",
"^  c #4E546E",
"/  c #714970",
"(  c #5A686C",
")  c #666565",
"_  c #737071",
"`  c #84721B",
"'  c #887722",
"]  c #8A6927",
"[  c #A57A2B",
"{  c #957359",
"}  c #89766C",
"|  c #8E6F69",
" . c #A87967",
".. c #B57D60",
"X. c #9E5451",
"o. c #2C8511",
"O. c #398828",
"+. c #478B1B",
"@. c #48951D",
"#. c #57831B",
"$. c #628D1C",
"%. c #5FA219",
"&. c #68A81B",
"*. c #7DB61F",
"=. c #6CAB1E",
"-. c #45892C",
";. c #499627",
":. c #519331",
">. c #7CB720",
",. c #69B022",
"<. c #559256",
"1. c #729277",
"2. c #74A064",
"3. c #97911E",
"4. c #AA991D",
"5. c #928527",
"6. c #AA8C26",
"7. c #AB9826",
"8. c #B69A27",
"9. c #B29334",
"0. c #86BC21",
"q. c #BBA529",
"w. c #C5AD2C",
"e. c #C3A628",
"r. c #CBB42C",
"t. c #CAB52A",
"y. c #D4BC2B",
"u. c #CEBA31",
"i. c #D2BE30",
"p. c #D8BF30",
"a. c #C2A938",
"s. c #C19E2B",
"d. c #8BC422",
"f. c #D7C62C",
"g. c #D5C332",
"h. c #DCCB33",
"j. c #D9C531",
"k. c #DCCE33",
"l. c #E2D435",
"z. c #E6DA36",
"x. c #E3CB30",
"c. c #919956",
"v. c #AD964A",
"b. c #B6A34A",
"n. c #918B6F",
"m. c #AD8F77",
"M. c #94AD6D",
"N. c #B2A66C",
"B. c #84AC53",
"V. c #CCB045",
"C. c #C89174",
"Z. c #D1A965",
"A. c #D2C258",
"S. c #2E338B",
"D. c #3B36A7",
"F. c #3330AC",
"G. c #423DAD",
"H. c #423DB2",
"J. c #2C47A7",
"K. c #4E5092",
"L. c #70708C",
"P. c #4D4BB3",
"I. c #6E74B4",
"U. c #576B9F",
"Y. c #554FC6",
"T. c #6C6ACC",
"R. c #625CCF",
"E. c #887D85",
"W. c #8B7DB0",
"Q. c #8178D7",
"!. c #7A858B",
"~. c #718B90",
"^. c #7787A9",
"/. c #5F8081",
"(. c #7689C8",
"). c #87878A",
"_. c #8E8F91",
"`. c #AF968A",
"'. c #98A895",
"]. c #86A08D",
"[. c #B9AC8C",
"{. c #8D93A9",
"}. c #A38EB0",
"|. c #88A4A9",
" X c #9AB8B2",
".X c #A9B8B6",
"XX c #B7BAB7",
"oX c #A7ACAC",
"OX c #CF9C88",
"+X c #DCA68C",
"@X c #C6A895",
"#X c #D2B491",
"$X c #E9B798",
"%X c #F3B398",
"&X c #DBBCA8",
"*X c #CCB6AF",
"=X c #E6BAA7",
"-X c #FCBCA3",
";X c #E7BFB1",
":X c #B8C3BA",
">X c #D0C592",
",X c #E9C888",
"<X c #DAC4B1",
"1X c #E8C8AD",
"2X c #FDC9AA",
"3X c #EACCB4",
"4X c #F7CDB7",
"5X c #F8D4B9",
"6X c #F3D3B0",
"7X c #FFE2BF",
"8X c #8885DB",
"9X c #9496CD",
"0X c #8EABC7",
"qX c #97B3CA",
"wX c #95B0CD",
"eX c #ACBCCF",
"rX c #8D88E3",
"tX c #AFACE7",
"yX c #D2B9CD",
"uX c #C1BEF4",
"iX c #AAC3D6",
"pX c #B7C8D9",
"aX c #B2C5C6",
"sX c #BED3E8",
"dX c #C6C6C8",
"fX c #D2D3D0",
"gX c #E8CCC5",
"hX c #FCDBC6",
"jX c #E5D5D3",
"kX c #FEE8C8",
"lX c #FBE3D5",
"zX c #E0E5DB",
"xX c #C7D7E6",
"cX c #D8D8F8",
"vX c #CDCEEC",
"bX c #DDE8EF",
"nX c #E8EBEA",
"mX c #F8F4ED",
"MX c #E6E7F7",
"NX c #EEF3F8",
"BX c #F8FAF9",
"VX c #E0E0E7",
"CX c None",
/* pixels */
"CXCXCXCXCXCXCXCXCXCXCXCXCXCXCXCXCXCXCXCXCXCXCXCXCXCXCXCXCXCXCXCXCXCXCXCXCXCXCXCXCXCXCXCXCXCXCXCXCXCXCXCXCXCXCXCXCXCXCXCXCXCXCXCX",
"CXCXCXCXCXCXCXCXCXCXCXCXCXCXCXCXCXCXCXCXCXCXCXCXCXCXCXCXCXCXCXCXCXCXCXCXCXCXCXCXCXCXCXCXCXCXCXCXCXCXCXCXCXCXCXCXCXCXCXCXCXCXCXCX",
"CXCXCXCXCXCXCXCXCXCXCXCXCXCXCXCXCXCXCXCXCXCXCXCXCXZ 2 1 C CXCXCXCXe 2 2 2 2 CXCXCXCXCXCXCXCXCXCXCXCXCXCXCXCXCXCXCXCXCXCXCXCXCXCX",
"CXCXCXCXCXCXCXCXCXCXCXCXCXCXCXCXCXCXCXCXCXCXCXCXCX9 * * 7 G CXCXD = * = % = t CXCXCXCXCXCXCXCXCXCXCXCXCXCXCXCXCXCXCXCXCXCXCXCXCX",
"CXCXCXCXCXCXCXCXCXCXCXCXCXCXCXCXCXCXCXCXCXCXCXH A h f f f X.X.X.] f f f f f h A CXCXCXCXCXCXCXCXCXCXCXCXCXCXCXCXCXCXCXCXCXCXCXCX",
"CXCXCXCXCXCXCXCXCXCXCXCXCXCXCXCXCXCXCXCXCXCXH < w ` 6.6.4.[ [ [ 9.q.w.w.q.q.' w < CXCXCXCXCXCXCXCXCXCXCXCXCXCXCXCXCXCXCXCXCXCXCX",
"CXCXCXCXCXCXCXCXCXCXCXCXCXCXCXCXCXCXCXCXCXCXA w f 3.e.s.6.4.4.q.g.h.x.j.f.u.4.g s D CXCXCXCXCXCXCXCXCXCXCXCXCXCXCXCXCXCXCXCXCXCX",
"CXCXCXCXCXCXCXCXCXCXCXCXCXCXCXCXCXCXCXCXH t s ` 6.8.e.8.6.8.e.f.h.l.l.l.x.f.f.q.5.k 3 CXCXCXCXCXCXCXCXCXCXCXCXCXCXCXCXCXCXCXCXCX",
"CXCXCXCXCXCXCXCXCXCXCXCXCXCXCXCXCXCXCXCX1 O s 6.w.r.w.q.8.w.f.l.l.k.l.h.g.g.h.g.q.g ; t CXCXCXCXCXCXCXCXCXCXCXCXCXCXCXCXCXCXCXCX",
"CXCXCXCXCXCXCXCXCXCXCXCXCXCXCXCXCXCXZ 1 o X x q.u.i.u.g.i.f.k.k.k.g.g.i.i.j.j.i.r.4.` k t CXCXCXCXCXCXCXCXCXCXCXCXCXCXCXCXCXCXCX",
"CXCXCXCXCXCXCXCXCXCXCXCXCXCXCXCXCXCX9 % & 8 l q.p.p.j.k.l.z.l.k.j.g.r.w.r.i.t.t.r.a.8.l ; 4 CXCXCXCXCXCXCXCXCXCXCXCXCXCXCXCXCXCX",
"CXCXCXCXCXCXCXCXCXCXCXCXCXCXCXCXCXD l $.g 5.7.u.g.i.g.l.z.z.z.l.l.g.g.r.w.w.t.t.a.b.n.~ 6 O 2 CXCXCXCXCXCXCXCXCXCXCXCXCXCXCXCXCX",
"CXCXCXCXCXCXCXCXCXCXCXCXCXCXCXCX, s 7.g.g.j.p.y.i.g.g.h.z.z.l.z.l.l.g.g.w.q.q.t.a.`.^.K.b . . 4 CXCXCXCXCXCXCXCXCXCXCXCXCXCXCXCX",
"CXCXCXCXCXCXCXCXCXCXCXCXCXCXCXG U z 5.q.y.x.p.t.w.w.t.f.f.f.f.t.u.g.j.j.r.q.7.b.N.{.(.U.5 X p h G CXCXCXCXCXCXCXCXCXCXCXCXCXCXCX",
"CXCXCXCXCXCXCXCXCXCXCXCXCXC A } [.n.r s 5.e.8.6.7.8.e.y.f.t.e.8.7.8.i.h.i.e.v.n.|.0X0XU.5 6 } [.} A CXCXCXCXCXCXCXCXCXCXCXCXCXCX",
"CXCXCXCXCXCXCXCXCXCXCXCXCX1 p n.4X@Xt 7 f ] ] l [ 9.V.V.A.V.V.8.6.6.u.l.f.e.v.!.^.(.^.( A U @X3Xn.- 2 CXCXCXCXCXCXCXCXCXCXCXCXCX",
"CXCXCXCXCXCXCXCXCXCXCXCXCX4 8 n.5X=X .k h w w w ] C.Z.%XA.2X#XZ.9.6.t.l.j.8.v.^.T.U.^ U E ..=X4Xn.& 2 CXCXCXCXCXCXCXCXCXCXCXCXCX",
"CXCXCXCXCXCXCXCXCXCXCXCXCX2 8 n.6X6X+X..t $   @ R OX2XhX5XhX5X$Xv.6.t.l.f.q.v.).U.B = t m.%X4X3Xn.6 2 CXCXCXCXCXCXCXCXCXCXCXCXCX",
"CXCXCXCXCXCXCXCXCXCXCXCXCX2 8 n.6XkX6XC.h o   # Q OX5XkXlXlXhX>Xb.s.y.x.x.r.b.m._ n @ h C.2XkX6Xn.8 C CXCXCXCXCXCXCXCXCXCXCXCXCX",
"CXCXCXCXCXCXCXCXCXCXCXCXCX2 8 n.3XkX7X@XR #   O R OX2X5XhXhXhX$Xb.6.e.f.h.g.r.a.5.h @ U #X7XlX;X} 6 2 CXCXCXCXCXCXCXCXCXCXCXCXCX",
"CXCXCXCXCXCXCXCXCXCXCXCXCX< 8 _ *XyXyX}.P .   O t  .m.`.[.&XhX#X[ ] ` 6.q.t.f.y.8.s $ A }.yXyX@X) & 2 CXCXCXCXCXCXCXCXCXCXCXCXCX",
"CXCXCXCXCXCXCXCXCXCXCXCXCX< & B T.Q.T.K.b o . @ = 0 t h R `.3X@XR = % s g q.f.x.t.f % b K.T.Q.T.L & 3 CXCXCXCXCXCXCXCXCXCXCXCXCX",
"CXCXCXCXCXCXCXCXCXCXCXCXCXC 3 N D.H.P.K.S $ @ @ & 5 5 # : } 1X@XW : # > h b.g.i.q.z ; n K.H.P.G.N < C CXCXCXCXCXCXCXCXCXCXCXCXCX",
"CXCXCXCXCXCXCXCXCXCXCXCXCXCXCXF v K.W.}.| E w $ A 1.L.B b L.&X1X`._ n b ( #X>Xc.x k X.| }.W.K.N F CXCXCXCXCXCXCXCXCXCXCXCXCXCXCX",
"CXCXCXCXCXCXCXCXCXCXCXCXCXCXCXC < ~ *X4X%XC.h $ W dXxXI.S.U.<XkXhX*XK.S.^.xXfXY = k C.%X4X@X! , CXCXCXCXCXCXCXCXCXCXCXCXCXCXCXCX",
"CXCXCXCXCXCXCXCXCXCXCXCXCXCXCXC $ z <XkX5X+Xj $ W fXMXI.J.I.;XkXkX<XI.J.(.cXdXP # E +X5XkX<Xh $ CXCXCXCXCXCXCXCXCXCXCXCXCXCXCXCX",
"CXCXCXCXCXCXCXCXCXCXCXCXCXCXCXC & ~ >XlXkX&XQ + U &XjXT.J.^.3X5XkXgXI.J.T.jX&Xh @ W =XlXkX>XI $ CXCXCXCXCXCXCXCXCXCXCXCXCXCXCXCX",
"CXCXCXCXCXCXCXCXCXCXCXCXCXCXCXCXC W `.1X5X2X_.T W `.[.^.I.}.gXkXhX3X}.I.{.[.m.Y T `.3XhX<Xm.U r Z CXCXCXCXCXCXCXCXCXCXCXCXCXCXCX",
"CXCXCXCXCXCXCXCXCXCXCXCXCXCXCXCXCXG Q } +X4XgXXX).W W _.yXgXhXhXhXhXgXyX).W Y _.XXgX4X+X} R z ] k C CXCXCXCXCXCXCXCXCXCXCXCXCXCX",
"CXCXCXCXCXCXCXCXCXCXCXCXCXCXCXCXCXCX, 7 { =XlXmXoXP t n.;X3X3X6X3X3X3X1X} t P XXmXhX%X| 7 = ` 7.g ; A CXCXCXCXCXCXCXCXCXCXCXCXCX",
"CXCXCXCXCXCXCXCXCXCXCXCXCXCXCXCXCXCX4 X r { &XlXfX).( ) } n.M.M.M.M.n.| _ ( _.fXlX&X{ r o = ' e.3.g h D CXCXCXCXCXCXCXCXCXCXCXCX",
"CXCXCXCXCXCXCXCXCXCXCXCXCXCXCXCXCXCX< . X 7  .=X4XaX{.^ 6 p -.:.:.a y 6 ^ {.dXgX%X| 7 o o ; ` 8.r.q.' ; 3 CXCXCXCXCXCXCXCXCXCXCX",
"CXCXCXCXCXCXCXCXCXCXCXCXCXCXCXCXCXCX< & q Y |  .`.{.!.I y u @.@.%.+.y y I ~.{.`. .| T q > & s ' q.r.3.- > CXCXCXCXCXCXCXCXCXCXCX",
"CXCXCXCXCXCXCXCXCXCXCXCXCXCXCXCXCXCX, q ~.oX} P 7 0 i x $.&.&.,.,.=.&.$.x K 9 r T !.oX!.0 O @ w ' a.3.y , CXCXCXCXCXCXCXCXCXCXCX",
"CXCXCXCXCXCXCXCXCXCXCXCXCXCXCXCXCXCX4 i .XxX!.6   X y $.0.d.>.0.0.0.d.0.$.- #   6 _.VXoXP     + l q.3.y , CXCXCXCXCXCXCXCXCXCXCX",
"CXCXCXCXCXCXCXCXCXCXCXCXCXCXCXCXCXCX4 p .XbX).& . y d &.0.d.d.d.0.d.d.d.&.d y . 6 _.VX.X0     @ l e.4.; , CXCXCXCXCXCXCXCXCXCXCX",
"CXCXCXCXCXCXCXCXCXCXCXCXCXCXCXCXCXCX3 I oXxXL.6 - d ,.*.,.>.>.>.>.>.>.,.*.=.d - 6 E.xXoXP O o = f 7.5.w < CXCXCXCXCXCXCXCXCXCXCX",
"CXCXCXCXCXCXCXCXCXCXCXCXCXCXCXCXCXG _ !.9X9X^ , y +.,.,.,.%.%.%.%.%.%.,.=.,.+.- 6 K.9X9X).) q + ; f l D CXCXCXCXCXCXCXCXCXCXCXCX",
"CXCXCXCXCXCXCXCXCXCXCXCXCXCXCXCXt ) oXtX(.P.N : - u ;.@.;.;.@.@.O.@.O.@.@.;.u - : B P.rXvXXX~ + . % t CXCXCXCXCXCXCXCXCXCXCXCXCX",
"CXCXCXCXCXCXCXCXCXCXCXCXCXCXCXC O ! xXcX8XD.m : * u a a a <.<.<.<.<.<.! a a y * , M G.rXMXzX_ O # 4 CXCXCXCXCXCXCXCXCXCXCXCXCXCX",
"CXCXCXCXCXCXCXCXCXCXCXCXCXCXCXC O ! fXMXrXF.M : X * 5 B K.^. X X X^.^.U.B 5 * X + M G.rXMXfX) O 2 CXCXCXCXCXCXCXCXCXCXCXCXCXCXCX",
"CXCXCXCXCXCXCXCXCXCXCXCXCXCXCXZ 9 1.zXcXrXD.N > @ = q B J.(.qXaX:X X^.J.B n $ X > N P.rXMXfX1.9 Z CXCXCXCXCXCXCXCXCXCXCXCXCXCXCX",
"CXCXCXCXCXCXCXCXCXCXCXCXCXCXG / _.:XBXMX8XG.c > r E } ( L 1./.~.2.~.<.L ) | E 7 > M G.8XMXmX:X)./ CXCXCXCXCXCXCXCXCXCXCXCXCXCXCX",
"CXCXCXCXCXCXCXCXCXCXCXCXCXe 9 L.fXNXBXvXQ.D.c : j C.+XM.-.O.;.-.;.O.O.<.c.+XC.j > m H.8XcXBXNXdXL.9 e CXCXCXCXCXCXCXCXCXCXCXCXCX",
"CXCXCXCXCXCXCXCXCXCXCXCXCX4 - ].MXNXvX9XT.D.m : E +X2XZ.2.:.o.o.o.O.:.2.A.7X+Xj > m H.T.tXvXNXMX~.8 4 CXCXCXCXCXCXCXCXCXCXCXCXCX",
"CXCXCXCXCXCXCXCXCXCXCXCXCX1 8 '.nXvX(.Y.Y.H.N : j +X6X6X>XB.@.o.o.;.M.>X5X6XOXj : m J.Y.R.T.cXnXM.q 2 CXCXCXCXCXCXCXCXCXCXCXCXCX",
"CXCXCXCXCXCXCXCXCXCXCXCXCX2 0 '.nXuXR.F.D.S.b @ t  .+X4X5X>X2.$.:.2.>X7X4X+X{ r > b S.D.F.R.vXnX_.8 2 CXCXCXCXCXCXCXCXCXCXCXCXCX",
"CXCXCXCXCXCXCXCXCXCXCXCXCX2 0 '.MXuXR.F.V b > O = r W @X6X1XOXN.N.[.1X6X@XE r $ + > b N F.T.uXMX].q 2 CXCXCXCXCXCXCXCXCXCXCXCXCX",
"CXCXCXCXCXCXCXCXCXCXCXCXCX2 q '.nXuXI.S.v 4 @ O O @ P `.4X5X-X-X-X-X5X4X_.h @ O + @ , v S.I.vXnX'.8 2 CXCXCXCXCXCXCXCXCXCXCXCXCX",
"CXCXCXCXCXCXCXCXCXCXCXCXCX4 p '.NXaX^ M F Z e $ q ( _.*X4X4X-X-X-X-X4X3X*X_.Y 8 $ e Z F M K.pXmX'.= 4 CXCXCXCXCXCXCXCXCXCXCXCXCX",
"CXCXCXCXCXCXCXCXCXCXCXCXCX2 q '.nXoXh v CXCXZ , I XXzXlX4X2X-X-X%X-X2XhXlXzX.XI , CXCXCX2 P XXnX'.8 2 CXCXCXCXCXCXCXCXCXCXCXCXCX",
"CXCXCXCXCXCXCXCXCXCXCXCXCXCXS E.oXE.S CXCXCXCX, ! fXBXmXlX3X;X=X=X1X5XlXmXBXpX! , CXCXCXCXS ).oXE.S CXCXCXCXCXCXCXCXCXCXCXCXCXCX",
"CXCXCXCXCXCXCXCXCXCXCXCXCXCXCXG P S CXCXCXCXCX, ! aXBXBXmXVXdXaXeXdXjXmXBXNX:XI , CXCXCXCXCXS P G CXCXCXCXCXCXCXCXCXCXCXCXCXCXCX",
"CXCXCXCXCXCXCXCXCXCXCXCXCXCXCXCX2 CXCXCXCXCXZ , I .XMXNXnXxXiXqXqXpXxXMXNXbX XK , CXCXCXCXCXCX3 CXCXCXCXCXCXCXCXCXCXCXCXCXCXCXCX",
"CXCXCXCXCXCXCXCXCXCXCXCXCXCXCXCXCXCXCXCXCXCXC : K |.sXxXsXiXqX0XwXqXpXxXxXsX^.i @ CXCXCXCXCXCXCXCXCXCXCXCXCXCXCXCXCXCXCXCXCXCXCX",
"CXCXCXCXCXCXCXCXCXCXCXCXCXCXCXCXCXCXCXCXCXCXCX< J ~.wXiXiXeXqX0X0XqXeXiXiXqX~.J < CXCXCXCXCXCXCXCXCXCXCXCXCXCXCXCXCXCXCXCXCXCXCX",
"CXCXCXCXCXCXCXCXCXCXCXCXCXCXCXCXCXCXCXCXCXCXCXCXS L 1.:XxXsXiXqXqXiXsXxX X1.^ S CXCXCXCXCXCXCXCXCXCXCXCXCXCXCXCXCXCXCXCXCXCXCXCX",
"CXCXCXCXCXCXCXCXCXCXCXCXCXCXCXCXCXCXCXCXCXCXCXCXCX3 J oXNXbXsXeXeXsXNXNX Xi 3 CXCXCXCXCXCXCXCXCXCXCXCXCXCXCXCXCXCXCXCXCXCXCXCXCX",
"CXCXCXCXCXCXCXCXCXCXCXCXCXCXCXCXCXCXCXCXCXCXCXCXCXC S ).aX.X|.~.~.^.:X:X).A CXCXCXCXCXCXCXCXCXCXCXCXCXCXCXCXCXCXCXCXCXCXCXCXCXCX",
"CXCXCXCXCXCXCXCXCXCXCXCXCXCXCXCXCXCXCXCXCXCXCXCXCXCXCX/ I i i i J K K I G CXCXCXCXCXCXCXCXCXCXCXCXCXCXCXCXCXCXCXCXCXCXCXCXCXCXCX",
"CXCXCXCXCXCXCXCXCXCXCXCXCXCXCXCXCXCXCXCXCXCXCXCXCXCXCXCX, , , , , , + < CXCXCXCXCXCXCXCXCXCXCXCXCXCXCXCXCXCXCXCXCXCXCXCXCXCXCXCX",
"CXCXCXCXCXCXCXCXCXCXCXCXCXCXCXCXCXCXCXCXCXCXCXCXCXCXCXCXCXCXCXCXCXCXCXCXCXCXCXCXCXCXCXCXCXCXCXCXCXCXCXCXCXCXCXCXCXCXCXCXCXCXCXCX",
"CXCXCXCXCXCXCXCXCXCXCXCXCXCXCXCXCXCXCXCXCXCXCXCXCXCXCXCXCXCXCXCXCXCXCXCXCXCXCXCXCXCXCXCXCXCXCXCXCXCXCXCXCXCXCXCXCXCXCXCXCXCXCXCX",
"CXCXCXCXCXCXCXCXCXCXCXCXCXCXCXCXCXCXCXCXCXCXCXCXCXCXCXCXCXCXCXCXCXCXCXCXCXCXCXCXCXCXCXCXCXCXCXCXCXCXCXCXCXCXCXCXCXCXCXCXCXCXCXCX"
};
