/* XPM */
static char *_f1669c463384d7eaa1b87a1a1dd22584yC4PXwV8oXpmmSd[] = {
/* columns rows colors chars-per-pixel */
"64 64 220 2 ",
"   c None",
".  c #151515",
"X  c #181717",
"o  c #161816",
"O  c #181817",
"+  c #161619",
"@  c #1A161B",
"#  c #1B1B1B",
"$  c #171919",
"%  c #0E100F",
"&  c #211D1A",
"*  c #1E241C",
"=  c #22221C",
"-  c #2E2B1E",
";  c #25251B",
":  c #2D3A1F",
">  c #1C1D21",
",  c #1C1924",
"<  c #1C1D30",
"1  c #2C152C",
"2  c #241926",
"3  c #341535",
"4  c #1D2126",
"5  c #212223",
"6  c #2A2623",
"7  c #2B2B2D",
"8  c #25272A",
"9  c #332C28",
"0  c #2D3824",
"q  c #393428",
"w  c #292D32",
"e  c #382232",
"r  c #3A3A3A",
"t  c #353635",
"y  c #2F3436",
"u  c #43173F",
"i  c #423934",
"p  c #493431",
"a  c #364925",
"s  c #4C4629",
"d  c #574A2D",
"f  c #564537",
"g  c #595539",
"h  c #494B30",
"j  c #645B36",
"k  c #615837",
"l  c #70592D",
"z  c #547037",
"x  c #77622E",
"c  c #786836",
"v  c #706D38",
"b  c #383A4E",
"n  c #242C63",
"m  c #481C4A",
"M  c #53294A",
"N  c #3E4246",
"B  c #474848",
"V  c #57595A",
"C  c #53514E",
"Z  c #635952",
"A  c #67504C",
"S  c #71694F",
"D  c #565C69",
"F  c #635A6C",
"G  c #5D6466",
"H  c #5D666C",
"J  c #5B716A",
"K  c #6B6B6B",
"L  c #6A7577",
"P  c #797A7A",
"I  c #726C6F",
"U  c #94772F",
"Y  c #877D39",
"T  c #887739",
"R  c #967833",
"E  c #8A6B33",
"W  c #857944",
"Q  c #917E42",
"!  c #89736F",
"~  c #568737",
"^  c #67883D",
"/  c #729B3A",
"(  c #6F9D3F",
")  c #78A53C",
"_  c #779844",
"`  c #7AA44A",
"'  c #7D807F",
"]  c #9B873B",
"[  c #8D803A",
"{  c #A68B3C",
"}  c #A88C3B",
"|  c #AB923D",
" . c #B49B3F",
".. c #8CB53F",
"X. c #9A8B48",
"o. c #909658",
"O. c #A99844",
"+. c #B59D42",
"@. c #B49D46",
"#. c #A89349",
"$. c #8CB341",
"%. c #96B544",
"&. c #8AA84B",
"*. c #BAA244",
"=. c #BBA747",
"-. c #BAB157",
";. c #B1A750",
":. c #998B71",
">. c #AE8677",
",. c #AF8878",
"<. c #AF9674",
"1. c #B6A966",
"2. c #AAAA70",
"3. c #82A37B",
"4. c #C2AD46",
"5. c #C3AE49",
"6. c #C6B24A",
"7. c #C9B64C",
"8. c #CCBA4C",
"9. c #C5B64B",
"0. c #D0BF4E",
"q. c #C8B956",
"w. c #D1BF50",
"e. c #C0AE50",
"r. c #C6B664",
"t. c #D1B069",
"y. c #D2C24D",
"u. c #D3C452",
"i. c #DACB54",
"p. c #D8C958",
"a. c #DED157",
"s. c #CEC155",
"d. c #E2D356",
"f. c #E2D359",
"g. c #D1C562",
"h. c #E9CC71",
"j. c #33398A",
"k. c #152D85",
"l. c #2D48A1",
"z. c #464D94",
"x. c #717090",
"c. c #4744B3",
"v. c #5F63A4",
"b. c #7377B3",
"n. c #6E72AF",
"m. c #6A6EC3",
"M. c #6E74C2",
"N. c #717AC2",
"B. c #837DAD",
"V. c #7B8996",
"C. c #7B89AD",
"Z. c #7B86C1",
"A. c #858585",
"S. c #969799",
"D. c #8E8890",
"F. c #A7998B",
"G. c #B49989",
"H. c #B8A394",
"J. c #AFA697",
"K. c #8887A4",
"L. c #8797A6",
"P. c #9787B6",
"I. c #8A98BE",
"U. c #9490AC",
"Y. c #98A8B7",
"T. c #95A4B1",
"R. c #A4A4A5",
"E. c #A6ABAD",
"W. c #A4ACBA",
"Q. c #AAB3B6",
"!. c #B7B8B8",
"~. c #A6B8AF",
"^. c #A5A397",
"/. c #CA9E8D",
"(. c #D7A992",
"). c #E5AF96",
"_. c #CDB6A6",
"`. c #D0B2AB",
"'. c #F5BCA5",
"]. c #F9BEA7",
"[. c #E9BEAB",
"{. c #BFC0BE",
"}. c #F0C08E",
"|. c #EDC28F",
" X c #D3C3B6",
".X c #EBC5AE",
"XX c #F9C2AA",
"oX c #F2C9B3",
"OX c #F3D4BE",
"+X c #E7CEB8",
"@X c #8C9BC2",
"#X c #94A8C4",
"$X c #A9BAC8",
"%X c #B4BDC4",
"&X c #BDC6CB",
"*X c #B7C8D6",
"=X c #B4C8D2",
"-X c #C4C4C4",
";X c #C4C9CC",
":X c #C3CDD6",
">X c #C9D3DB",
",X c #D6DAD5",
"<X c #D9D1C1",
"1X c #E9D4C2",
"2X c #F2D6C1",
"3X c #F5D9C2",
"4X c #F7DCC9",
"5X c #CCD9E4",
"6X c #C8D6E1",
"7X c #D4DDE4",
"8X c #DCE4EB",
"9X c #DAE3EA",
"0X c #E4E7E8",
"qX c #E8EDF2",
"wX c #EEF1F4",
"eX c #F4F7F9",
"rX c #FCFCFC",
"tX c #F5F5F5",
"yX c #FBE9E5",
"uX c #DCE1D5",
/* pixels */
"                                                                                                                                ",
"                                                                                                                                ",
"                                                                                                                                ",
"                                                                                                                                ",
"                                                                                                                                ",
"                                            1 + @ 2 , # 2                                                                       ",
"                                            9 9 - - - ; -                                                                       ",
"                                        + ; Q } } #.{ R x # + X # + @                                                           ",
"                                        X ; X.*.+.+.| } E = & # & & & m                                                         ",
"                                    1 1 + ; #.8.7.7.6.=.*.X.X.Q Q c E p 1                                                       ",
"                                    @ $ + 5 ;.y.y.0.7.4.=.9.5.*. .] R p o +                                                     ",
"                                + f c l l x -.y.u.i.y.8.9.8.7.6.4.+.+.R l d +                                                   ",
"                              + + d @.+.} } 7.y.i.f.i.y.y.y.8.0.0.6.5.+.{ x @ 1                                                 ",
"                              f f c =.*.| O.6.8.i.d.i.0.8.6.7.0.0.7.5.+.} W b b m                                               ",
"                          1 @ c @.=.w.7.+.+.5.5.u.d.i.8.7.+. .0.0.0.0.4.+.:.m.v.8 &                                             ",
"                          1 o c 4.4.*.+.{ { t.t.p.d.i.y.6.|  .6.8.8.8.1.:.D.@Xn.< +                                             ",
"                          1 o Y u.*.U U E E ).'.h.f.i.u.6.{ } =.6.4.4.D.m.Z.#XL.8 $                                             ",
"                          1 o Y y.*.U U l l ).'.r.=.9.u.7.| O.;.1.-.1.S.M.Z.#XK.5 +                                             ",
"                          1 $ Y y.*.R x & 9 `.oXS X S f.i.8.q.B.n.I.Y.#X#X@XM.v.2 $                                             ",
"                          1 $ [ y.*.R x X 6 _.2XZ o v g.p.0.r.b.b.@X#X#X@X@Xb.v.4 $                                             ",
"                          1 o [ u.*.R x & 6 _.3XC @ 6 q j i.i.r.1.K.N.N.M.K.1.o.6 o                                             ",
"                          1 o [ y.*.R x X 6 _.OXC % X . s i.d.y.w.K.m.m.m.D.=.#.6 o                                             ",
"                              d d v =.] = 6 _.2Xx.n D R.F.=.*.i.i.1.<.<.2.1.y.=.[ T p X                                         ",
"                              + # j p.@.# 6 _.OXv.k.C.wX<X{ } i.a.0.-.9.y.y.y.0.6.=.q +                                         ",
"                                3 A W j # 6 _.2Xn.k.I.tX<X#.} i.a.4. .4.6.8.0.0.u.8.c g M                                       ",
"                                    @ @ o 6 _.OXb.l.I.rX<X{ | i.a.+.} *.4.8.y.y.d.f.=.@.g &                                     ",
"                                    , + o - _.OXU.n.W.yX+X*.*.i.i.] c Y ] ] | O.i.i.9.4.c p p                                   ",
"                                        o ;  X3X1X+X.XXX|.a.a.y.y.s X # * * O q -.y.i.d.4.O.d X @                               ",
"                                        2 e H. X+X2XoX'.|.f.d.e.-.g 7 w 7 7 8 a ;.-.i.f.9.*.d . #                               ",
"                                            m q G.3XoX'.}.f.r.s 9 S.;X:X&X&X&XY.r : O.y.8.w.k o @                               ",
"                                            1 # F.OX.X).|.f.q.q > E.8X8X9X9X5X%X8 * O.y.w.s.j + #                               ",
"                                        o 7 S.E.I C S o.&.i.g.R.E.>X9X0XwXwXqX7XS.V.C s X.s.k + @                               ",
"                                        X 7 ;X0XV % a ~ / 8.g.uX8X9X9XqXrXtXrXwX*X$XN . v i.j o +                               ",
"                                          m P x.Z z ~ ) &.9.g.,X9XqXqX!.:.V.A.D.>X,XB . W u.j o $                               ",
"                                            1 % ^ $...$.%.4.g.,X9XtXrXV.% . . t 0XtXB o W y.j o $                               ",
"                                            h a / ........O.%.,X5X%X!.! f i . t R.E.r o S y.j o $                               ",
"                                        $ ; _ $...........) ` =X6XC . ! ].>.# X $ X o $ c @.d . $                               ",
"                                        $ ; _ $.$.$.$.$.` ( ` {.$XC q ! XX,.# $ w 8 # X j X.f 1                                 ",
"                                        X ; ^ ) ) ) ) ) ( ~ ~ a 7 F..X[.].,.$ 7 L.L.y X 5 6 M                                   ",
"                                        X ; ^ ) / / ) ` ( ~ z * X H.2XoX].,.X w I.Y.b . X 2                                     ",
"                                            q 0 0 : J {.V.z.z.4 # H.OXoX].>.X y $X*XN + 3                                       ",
"                                            1 X + . G =X#Xc.l.< & H.2XoX].,.X t &X:XN +                                         ",
"                                            1 o $ + z ^.V.' ~ 4 @ x.P.`.].,.$ t =X>XB @                                         ",
"                                            2 . + > a ) ..) ( 4 % j.c.B.XX,.X t ,X5XM .                                         ",
"                                            A A 9 . g 2.o.z z S A B.B.P.H.B.@ r ,X8X' D C                                       ",
"                                        o 6 (.].A . S ].<.@ 9  X2XoX3XP.c.n + e 0XeX9X>XH @                                     ",
"                                        1 e ,./.p @ ! XX/.@ 9 `.2X2X2XB.z.n @ b 0XeX9X>XH +                                     ",
"                                            e 2 & @ S OXH.# 9 (.].oX3X! 1 @ @ p 0XtX9X9XK +                                     ",
"                                            1 + $ . I 4XH.& 9 /.)..X+XI 4 > o r ,XqX8X8XI 2 M                                   ",
"                                                @ . ! tX!.& # q r i i K T.L $ > i B ;XeX:X$XF @                                 ",
"                                                @ . ' rX!.= + + o . . L *XV.$ $ + 5 -XrX8X5XG . @                               ",
"                                                $ + K :XL.$ 7 S.R.R.R.$X*XV.$ + X 5 -XrX9X6XG . #                               ",
"                                                + % V #Xx.4 y uXrXrXrX7X=XV.+ % X 5 -XrX8X6XG + +                               ",
"                                                K P T.>XL.$ 7 =X7X6X6X>X>XY.H V # 5 -XrX9X6XG + $                               ",
"                                            1 X Q.rXrXrX X$ 4 L.#X#X#X*X8X5X=XT.8 * -XrX0X6XG @ $                               ",
"                                            1 X A.-X-X-XR.C D Y.$X$X$X$XQ.%X*XW.8 2 -XrX;XY.F 1                                 ",
"                                            2 o # & = # V qXeXeXeXqX8Xx.& G 9X-X7 & ;XrXP &                                     ",
"                                            u 3 1 3 2 . B !.&X`.`.Q.Q.G % B ~.S.8 = S.-XI 1                                     ",
"                                                    m X o * = 5 4 4 4 # + # = # $ $ = 2 m                                       ",
"                                                      + o o X X $ $ o o X X $ $ X X $ @                                         ",
"                                                                                                                                ",
"                                                                                                                                ",
"                                                                                                                                ",
"                                                                                                                                "
};
