/* XPM */
static char *_3c63f079b0648c29da5c49bf969e094puaG6vD5L52OBgwB[] = {
/* columns rows colors chars-per-pixel */
"64 64 225 2 ",
"   c None",
".  c #151616",
"X  c #171618",
"o  c #19171A",
"O  c #1A191A",
"+  c #181917",
"@  c #101012",
"#  c #211E1B",
"$  c #1E231A",
"%  c #24221C",
"&  c #2B291D",
"*  c #302D1E",
"=  c #2D351E",
"-  c #1B1D28",
";  c #251625",
":  c #241924",
">  c #281927",
",  c #291929",
"<  c #291829",
"1  c #351A35",
"2  c #381B37",
"3  c #30172F",
"4  c #1D2028",
"5  c #242323",
"6  c #2C2624",
"7  c #2A2B2B",
"8  c #25262A",
"9  c #352B28",
"0  c #373328",
"q  c #2B2E33",
"w  c #352836",
"e  c #2E3236",
"r  c #3B3A3B",
"t  c #353637",
"y  c #2C3027",
"u  c #4C3933",
"i  c #3D5D29",
"p  c #544A27",
"a  c #5D522A",
"s  c #584537",
"d  c #474D2F",
"f  c #655B2D",
"g  c #624C37",
"h  c #4E722F",
"j  c #6B602F",
"k  c #6D6533",
"l  c #736A32",
"z  c #627C31",
"x  c #776F32",
"c  c #393C41",
"v  c #2B2B58",
"b  c #2C2A4F",
"n  c #192F7D",
"m  c #373678",
"M  c #313366",
"N  c #4A3E55",
"B  c #3C4145",
"V  c #464748",
"C  c #534859",
"Z  c #4D555D",
"A  c #5A5658",
"S  c #524B4C",
"D  c #68544B",
"F  c #725D52",
"G  c #527A54",
"H  c #546F49",
"J  c #73655B",
"K  c #726C57",
"L  c #4A5565",
"P  c #5B5B62",
"I  c #644C64",
"U  c #5D6774",
"Y  c #6B6C6D",
"T  c #686567",
"R  c #776967",
"E  c #676D74",
"W  c #737678",
"Q  c #716E77",
"!  c #977836",
"~  c #877636",
"^  c #917054",
"/  c #8C756D",
"(  c #538933",
")  c #548836",
"_  c #4F8730",
"`  c #689839",
"'  c #649438",
"]  c #739D39",
"[  c #668935",
"{  c #79A53C",
"}  c #638E46",
"|  c #679249",
" . c #73944F",
".. c #6D9862",
"X. c #7B9C72",
"o. c #9B873A",
"O. c #9D903E",
"+. c #A28639",
"@. c #A48B3B",
"#. c #A98E3C",
"$. c #AD933E",
"%. c #A4913E",
"&. c #B2993F",
"*. c #81AC3E",
"=. c #AC9A44",
"-. c #B39B41",
";. c #B09845",
":. c #A89755",
">. c #BB9F5C",
",. c #8CB440",
"<. c #8FB841",
"1. c #B6A244",
"2. c #BBA545",
"3. c #B6A751",
"4. c #958D6F",
"5. c #A88576",
"6. c #B48C70",
"7. c #8FA467",
"8. c #A7A36E",
"9. c #929457",
"0. c #C1AD47",
"q. c #C2AF48",
"w. c #C5B249",
"e. c #CDBC4D",
"r. c #C9B64B",
"t. c #D19C79",
"y. c #CBB072",
"u. c #D1C14F",
"i. c #D4C450",
"p. c #DACB53",
"a. c #D6C755",
"s. c #DED055",
"d. c #CFC050",
"f. c #E1D456",
"g. c #1A3187",
"h. c #2E3F82",
"j. c #344793",
"k. c #324CA7",
"l. c #4E5395",
"z. c #5F6B92",
"x. c #6A7786",
"c. c #717C86",
"v. c #727A9B",
"b. c #4545B2",
"n. c #4948B3",
"m. c #5755B5",
"M. c #4D50AF",
"N. c #5767AB",
"B. c #7677A9",
"V. c #6E74B3",
"C. c #6A6FC5",
"Z. c #727AC5",
"A. c #837883",
"S. c #788696",
"D. c #6E849E",
"F. c #7E97B6",
"G. c #7A88AE",
"H. c #7D8AC3",
"J. c #858B95",
"K. c #939494",
"L. c #95999C",
"P. c #8A898B",
"I. c #BA9584",
"U. c #A9928A",
"Y. c #8597A9",
"T. c #9296B1",
"R. c #B393AA",
"E. c #96A1AC",
"W. c #96A6B9",
"Q. c #8CA2BA",
"!. c #A4A6A8",
"~. c #B2A8B4",
"^. c #ADB5BA",
"/. c #B5B5B6",
"(. c #B0AEAF",
"). c #CA9C89",
"_. c #D7B987",
"`. c #D6A690",
"'. c #D1A990",
"]. c #E8B297",
"[. c #D4BDBC",
"{. c #D1B2A9",
"}. c #F5BCA4",
"|. c #F6BFA7",
" X c #EDBDA3",
".X c #E1CA8C",
"XX c #D9C4BA",
"oX c #DDC7AB",
"OX c #F8C3AA",
"+X c #E4CBB9",
"@X c #F3C9B2",
"#X c #EFD3BE",
"$X c #F1D4BE",
"%X c #EDC3AC",
"&X c #96ABC2",
"*X c #98AAC7",
"=X c #9CB1C8",
"-X c #A8B9C9",
";X c #ADBFD0",
":X c #B5BDC5",
">X c #AFC1D2",
",X c #B4C4D4",
"<X c #BCCBD7",
"1X c #BCC4CC",
"2X c #C7C7C8",
"3X c #C3CDD6",
"4X c #C8D2DC",
"5X c #DBDCDD",
"6X c #D3D3D5",
"7X c #F2D5C1",
"8X c #F7D9C2",
"9X c #E3D6CF",
"0X c #F4E7D8",
"qX c #C9D7E1",
"wX c #D5DEE5",
"eX c #DAE0E7",
"rX c #DCE4EA",
"tX c #D7E0E7",
"yX c #E6E9EB",
"uX c #EBEFF1",
"iX c #EEF1F3",
"pX c #F3F4F4",
"aX c #FBFBFB",
"sX c #F6F7F8",
"dX c #F5EEE7",
/* pixels */
"                                                                                                                                ",
"                                                    2 2 2         2 2 2 2 2 2                                                   ",
"                                                  ; X X . ;     1 o X o o o X :                                                 ",
"                                                  9 & & & u     u * * * * * & 9                                                 ",
"                                              ; 9 ~ ! o.+.o.! ! @.&.=.&.=.%.@.~ 6 >                                             ",
"                                              o % ! +.$.-.&.! ! $.w.w.w.q.2.-.o.# X                                             ",
"                                          1 p a f #.&.&.$.$.-.-.w.u.u.u.u.r.q.1.x l s 3                                         ",
"                                        : X a @.#.0.q.&.+.#.e.e.p.f.f.f.f.a.u.e.w.q.a X >                                       ",
"                                        : X a #.$.0.w.2.$.&.u.u.p.s.s.p.p.a.u.e.q.2.k * u                                       ",
"                                    : # O X k 2.0.e.e.u.p.p.s.s.a.u.u.r.w.e.u.e.q.q.$.%.~ % ;                                   ",
"                                    O + X @ f 3.w.e.e.p.f.f.f.f.a.u.e.w.0.r.u.e.w.q.2.1.o.% o                                   ",
"                                w g x x ~ o.O.d.e.e.u.p.f.f.f.f.s.a.a.r.r.r.0.0.q.2.:.P.Y : O                                   ",
"                              : X j u.i.f.f.p.u.u.u.u.p.f.f.f.f.f.f.s.u.u.0.&.1.0.0.P.C.N.: o                                   ",
"                              : + j u.i.i.i.u.r.r.r.e.u.f.s.p.i.p.i.i.u.u.0.&.1.3.>.J.Z.z.# O                                   ",
"                              : . l f.p.&.$.+.! +.&.1.w.u.e.2.1.$.$.&.p.f.w.&.:.Y.Y.Y.&XD.5 -                                   ",
"                              : . l f.p.$.@.! ! ! &.&.0.u.r.1.=.$.+.$.p.f.r.&.:.F.F.Q.&XS.8 X                                   ",
"                              : o l f.p.$.@.x p g t.y.y..X.X_._.>.@.$.p.s.w.&.:.G.V.Z.Q.B.l j u 1                               ",
"                              : X l s.p.$.@.a @ 9 `.}.OX8X8X7X7Xy.+.$.p.s.r.&.:.Z.C.C.C.A.-.&.p X :                             ",
"                              : . k s.a.&.#.a . 9 `.}.@X7X7X$X7Xy.o.$.i.s.r.1.:.v.B.B.B.J.:.&.p X >                             ",
"                              : . k i.e.-.&.f . 9 `.}.@X7X7X$X7Xy.+.$.d.i.u.d.w.! ^ :.>.q.;.$.p X ,                             ",
"                              : X j u.e.-.&.f o 9 `.}.%X#X#X$X$Xy.+.#.r.d.d.d.r.! ! &.0.0.&.&.p X :                             ",
"                                  g j j 2.r.l o % D F J K / +X$X4.u p f j O.r.2.&.2.$.#.$.1.2.p X ,                             ",
"                                    . % 1.i.x o + . . . . 9 [.$XR @ . . + x w.r.e.e.$.! o.0.2.a X :                             ",
"                                  u * d O.1.f o - c c q - c  X$X4.u r 4 4 ^ y.e.e.e.! ~ ~ O.%.s ; 1                             ",
"                              , - a #.! 0 & $ . t 2XyXY.n j.[.$X+XXX(.m n W.dX0Xa.d.k - $ $ 6                                   ",
"                              : . a -.@.6 . . . t 6XsXT.g.j.oX$X$X$XXXj.g.*XsX0Xa.d.f X + + o                                   ",
"                              : X y a p $ + X X w 2X0XT.j.k.XX$X$X$X[.j.j.W.0XoXk f T S.c.c.c.C 3                               ",
"                              : o . . . . X X . 0 {.7XT.k.N.XX7X$X$X[.M.k.E.8X{.5 . W >X>X>X;XZ . ;                             ",
"                              : . 7 B B B d r t S U.(.K.N.B.XX7X#X7XXXV.N.K.'.U.V c S.,X,X<X,XQ V S                             ",
"                          : - o . T ,X<X4X4X1X-XE.r 5 / 7X+X#X7X$X#X#X+X9XR 5 B E.-X,X4X4XwXwXyXyX/.6 ;                         ",
"                          O + + . E 4XqXtXrX4X>XW.e . / 7X$X$X7X#X#X+X#X#XR . t -X;X<XqXqXeXrXiXpX2X5 -                         ",
"                          o 5 W S.^.uXyXiXiXrXqX3XJ.S.Y A K 7.7.7.7.7.T F W c.J.3XqXqXwXtXuXiXL.Y Y                             ",
"                          o 7 ^.qXeXpXpXsXpXuXeXwX,X;XT X % h _ ( ( h $ . x.;X,XwXeXeXeXyXpXpXT . >                             ",
"                          o 7 2XuX/.Y Y Y T (.pX5XE Z H z ) ] { { { ] z z H Z Q yXiXiXiX6XW Y I                                 ",
"                          O 7 6XaXK.. . . @ c.aX5Xw . h ,.,.,.,.,.,.,.<.<.d @ c yXaXaXaX2X5 +                                   ",
"                          > w (.2XW X O 9 u / 2X/.d = z *.,.,.,.,.,.,.,.<.h = d /.2X2X2X!.% O                                   ",
"                              w 7 % X 6 6.t.F # y [ { { ,.,.,.,.,.,.,.<.<.{ ] [ 9 5 6 5 5 o #                                   ",
"                              : + O + 6 6.).^ @ & ' { *.,.,.,.,.,.,.,.<.,.*.{ [ # . O + o o o                                   ",
"                              : . b m l.'.%X'.U.4.` ' ' ` ` ' ' ' ' ` ` ` ` ' h # . ^ / / m m b ,                               ",
"                              : . v b.M.2X7X7X8X+X| ( ( ( ( ) _ ( ( ( ( ( ( ( h # ; / |.{.m.b.b o >                             ",
"                              : . v b.m.[.$X$X@X XH h h G G | ..| | | G H H h i $ + R {.R.n.n.b o >                             ",
"                              ; o v n.m.[.8X@X|.`.9 . M M.m.*X      &XM.n.v . + + + m n.n.n.b.b . ,                             ",
"                              : o v b.m.[.#X@X}.`.9 # M b.m.*X      *Xn.n.M O O o o m n.n.n.b.v . >                             ",
"                          , w x.x.L b b S A D D D ^ ^ K G G ........X.~.~.U.5.^ ; @ / R.R.R.R.S + >                             ",
"                          O 7 S.&XE . . . . . . * t.t.9.( ( ( ( ) ( } oX$X@X}.).6 . / OXOXOX|.D . ;                             ",
"                          + 8 F.=XS.S V % o o . 9 / t.6. . .) ( |  .7.+X8XOX}.).6 o F I.6.t.6.R V S                             ",
"                          O 8 E.>X4XuX6Xr . X . & t.t.`. X_.} ( 8. X}.#X$XOXOX).6 X O % : 5 5 K.wX(.8 ;                         ",
"                          O 7 E.,X4XaX5Xr . + + 6 t.t.].|.`.} ( 8.}.}.#X$X@X X).6 X + X O O O L.rX^.8 O                         ",
"                    2 > C x.D.;X<XtXsX5Xr + + X # u s 5.|.`.d = 4.}.}.$X7X4.S s O + + X q x.c.1XpXwX!.E.A >                     ",
"                    : X Z &X*X<X4XrXaXeXr + + o + . @ ^ OX'.6 . ^ }.|.#X7XJ . X O X + . c Q.=XwXaXpXyXeXP . ,                   ",
"                    : X P -X>X4XtX3X[.!.t + + + $ e c T 6.5.A S U.}.|.#X7XP.S B O O + X 8 x.S.:XrXeXyXrXP . >                   ",
"                    : X E tXrXpXsXK.4 O + + + o 4 v.G.Z $ r 1XtX[.}.|.@X$X9XtX^.7 + X + + - O x.=X;XiXpXT + >                   ",
"                    : . E rXrXpXaXK.X o o O O X q D.F.L . e 1XrX7X}.}.7X7X5XeX/.7 X O o O O : x.W.-XpXpXT @ >                   ",
"                    : X Y rXrXiXaXK.. #     1 O 8 D.F.L + y W.>X6X0X0XyXdX4X;XT.8 X 2         N B E uXpXT . >                   ",
"                    : + Y rXyXpXaXK.X :       O 8 D.F.L + 7 F.W.4XaXaXaXaX<X&XS.5 o           , . S uXsXT . >                   ",
"                    1 , Y E.(.yXaXK.X :       , b U z.B . e W.,X4XeXeXwXrX<X,XE.8 o             > C (./.V . >                   ",
"                          : t 6XaXK.+ :           , O O X r 5XsX3X*X&X&X=X4XaX2X7 O                 : 5 O + :                   ",
"                          O q 2XpXK.O :           , O O o r 6XpX<X*X*X*X&X4XsX2Xw O                 : O O : ,                   ",
"                              A A I                         A A R.eXeXeXeXK.A P                                                 ",
"                              ; X 1                         o . J.aXaXaXaXW @ #                                                 ",
"                              2 ,                           2 , A././.(./.Q < 2                                                 ",
"                                                                2 # # # #                                                       ",
"                                                                  - # - #                                                       ",
"                                                                                                                                "
};
