/* XPM */
static char *f79a8b0df87b4daf9f6d1d335b788a0cKREJUeeKgXJ0CwaZ[] = {
/* columns rows colors chars-per-pixel */
"64 64 231 2 ",
"   c None",
".  c #151515",
"X  c #181616",
"o  c #161816",
"O  c #191817",
"+  c #161618",
"@  c #19161A",
"#  c #171819",
"$  c #1A1A1A",
"%  c #0F1010",
"&  c #211D1C",
"*  c #1F201F",
"=  c #27271D",
"-  c #1F1520",
";  c #1E1E20",
":  c #241425",
">  c #2B142D",
",  c #271728",
"<  c #331435",
"1  c #361439",
"2  c #381438",
"3  c #2E132E",
"4  c #2D2A22",
"5  c #2D2D2C",
"6  c #262726",
"7  c #322E2B",
"8  c #342D26",
"9  c #383626",
"0  c #292A36",
"q  c #2E3135",
"w  c #323333",
"e  c #383839",
"r  c #443E29",
"t  c #433C28",
"y  c #483B37",
"u  c #523F38",
"i  c #37402B",
"p  c #45422A",
"a  c #4A452C",
"s  c #5F502E",
"d  c #4B433A",
"f  c #5B5638",
"g  c #584C32",
"h  c #685C38",
"j  c #576838",
"k  c #796A3A",
"l  c #706E3D",
"z  c #383844",
"x  c #2D2C4B",
"c  c #2D2256",
"v  c #483348",
"b  c #3D4145",
"n  c #3B4264",
"m  c #434649",
"M  c #4B4B4C",
"N  c #464646",
"B  c #52504E",
"V  c #6F5C52",
"C  c #6B5950",
"Z  c #7A6C40",
"A  c #7D7244",
"S  c #6F665D",
"D  c #73665D",
"F  c #6F7750",
"G  c #585A65",
"H  c #4A4774",
"J  c #5D6269",
"K  c #686A6C",
"L  c #626668",
"P  c #747374",
"I  c #76797D",
"U  c #686B72",
"Y  c #625B61",
"T  c #8C723B",
"R  c #91783E",
"E  c #816536",
"W  c #847745",
"Q  c #8D734E",
"!  c #987B6B",
"~  c #8E7D75",
"^  c #A17E6A",
"/  c #7A994C",
"(  c #6E8545",
")  c #8A834A",
"_  c #9C8643",
"`  c #9F8945",
"'  c #97874A",
"]  c #9A8C52",
"[  c #929250",
"{  c #A08A46",
"}  c #A38D49",
"|  c #A6924B",
" . c #AD994E",
".. c #A8944B",
"X. c #AD9B51",
"o. c #A79A59",
"O. c #B19E51",
"+. c #B19C4E",
"@. c #85A74D",
"#. c #94B352",
"$. c #9CB755",
"%. c #8DA953",
"&. c #B5A353",
"*. c #BBAA56",
"=. c #BDAD5A",
"-. c #B7A959",
";. c #BDB45A",
":. c #ABAB59",
">. c #97877B",
",. c #988B72",
"<. c #A69370",
"1. c #B3A966",
"2. c #BDB364",
"3. c #B4A474",
"4. c #AEA370",
"5. c #C3B45B",
"6. c #C7BA5D",
"7. c #C9BC5E",
"8. c #C0B056",
"9. c #C2AF5C",
"0. c #CCBE61",
"q. c #C5BA66",
"w. c #C0B670",
"e. c #CEC15F",
"r. c #CDC161",
"t. c #D2C564",
"y. c #D6CA66",
"u. c #D6CC6C",
"i. c #D9CE69",
"p. c #D5C969",
"a. c #DED36C",
"s. c #DCCB76",
"d. c #E0D56C",
"f. c #E3D86C",
"g. c #E5D778",
"h. c #1E3084",
"j. c #384B9F",
"k. c #76778E",
"l. c #4746AC",
"z. c #5B56A8",
"x. c #7977A6",
"c. c #6A6DBA",
"v. c #6D73B8",
"b. c #7578B7",
"n. c #6C71AF",
"m. c #5A5FA0",
"M. c #6B6CC1",
"N. c #807FA1",
"B. c #7B818B",
"V. c #7E86C0",
"C. c #9C9481",
"Z. c #8B8E93",
"A. c #8B939A",
"S. c #9B9C9B",
"D. c #969696",
"F. c #8C888A",
"G. c #A59A86",
"H. c #B89987",
"J. c #A08F83",
"K. c #ADAA83",
"L. c #B8A89A",
"P. c #BEA38E",
"I. c #8D98A2",
"U. c #939BA4",
"Y. c #8489B6",
"T. c #8B97BD",
"R. c #868BAE",
"E. c #97A7BA",
"W. c #9CA6AC",
"Q. c #A4ADB7",
"!. c #ACB1B6",
"~. c #B9B9BA",
"^. c #AFACAC",
"/. c #DCB69C",
"(. c #D1AA91",
"). c #D3BFAE",
"_. c #DCBBA4",
"`. c #CAB7B0",
"'. c #E9BDA7",
"]. c #E0BA91",
"[. c #BFC0BE",
"{. c #E4C88B",
"}. c #D3C0AE",
"|. c #C4C4BC",
" X c #D5C1B1",
".X c #D5C2BB",
"XX c #EAC2AC",
"oX c #EACBB6",
"OX c #EAD2BD",
"+X c #EFCBAF",
"@X c #D6C59C",
"#X c #97A7C1",
"$X c #AAB6C5",
"%X c #B1BCC8",
"&X c #A7B4C8",
"*X c #8E9AC0",
"=X c #B5C3D2",
"-X c #BCC7D4",
";X c #B6C1C8",
":X c #C3C3C3",
">X c #C3C8CD",
",X c #C4CCD4",
"<X c #C6CFD7",
"1X c #C6D2DB",
"2X c #CBD4DC",
"3X c #DCDDDD",
"4X c #D5D8DA",
"5X c #D6C4C4",
"6X c #EDD6C2",
"7X c #EED9C3",
"8X c #EBD6C5",
"9X c #F2DAC6",
"0X c #EFDFD0",
"qX c #EBE9D3",
"wX c #CCD8E1",
"eX c #D3DCE3",
"rX c #D9DEE5",
"tX c #DDE4E9",
"yX c #DCE2E7",
"uX c #E1E6EC",
"iX c #E3E9EE",
"pX c #E9E9EB",
"aX c #F4F2EE",
"sX c #EBEEF2",
"dX c #E5EBF1",
"fX c #EEF1F3",
"gX c #F4F4F5",
"hX c #FBFBFB",
"jX c #F7F7F7",
"kX c #F0EFEF",
"lX c #DDE0CA",
/* pixels */
"                                                                                                                                ",
"                                                                                                                                ",
"                                                                                                                                ",
"                                        2 1 1 1 < < 1                                                                           ",
"                                        : + + + @ + X                                                                           ",
"                                        8 9 8 9 9 8 8                                                                           ",
"                                    . 4 ] .. .| } _ ) 9 @ X O O O @                                                             ",
"                                    + 4 } O.O.O. .` _ 9 X & $ $ $ $                                                             ",
"                              2 3 : + 4 :.5.5.5.5.&.&.' ) W W W h k u 3 3                                                       ",
"                              > . X + 4 =.0.0.0.7.=.8.5.5.&.X. .Q R t % @                                                       ",
"                              u a a p g 2.e.t.y.r.6.5.5.5.9.*.&.} { h r r                                                       ",
"                          @ $ W +...{ } 5.t.y.d.i.e.r.0.0.t.r.e.9.8.+.} E @ &                                                   ",
"                          9 r ] &.O.} ..5.6.p.d.i.e.e.6.5.7.r.7.5.9.O.} W x x                                                   ",
"                      + 9  . .5.e.8.O.O.=.5.t.d.i.e.r.&.O.*.r.r.0.0.*.+.<.n.n.0 X                                               ",
"                      + 9  .O.5.7.8.+.&.9.9.t.d.a.e.0.&. .*.r.r.0.e.9.O.,.n.n.x X #                                             ",
"                      X p 5.5..._ _ T Q (.].s.a.i.r.0. .{ O.5.5.5.5.>.N.R.T.T.z + O                                             ",
"                      + p 6.0.` R T E T ].'.{.f.a.e.q..._  .8.8.=.=.Z.c.V.E.E.z + #                                             ",
"                      + p 6.0.` T k u h _.XX3.) o.t.t.*.&.o.C.C.K.K.U.V.V.T.V.e o $                                             ",
"                      . p 6.7.` R s . 7 ).9XD % a s.d.t.r.G.c.v.#X#X#X#XT.v.c.x o #                                             ",
"                      + p 6.7.{ R s . 7 ).6XS . p w.q.0.r.K.x.V.T.#X#XE.T.x.x.q . @                                             ",
"                      + p q.r.` R s + 7 ).7XD + & 4 9 -.a.u.w.3.V.v.b.v.R.1.4.e X @                                             ",
"                      o p q.r.` R s + 7 ).6XS . X . $ :.f.i.r.q.x.c.M.M.x.=.&.t + +                                             ",
"                          h h | &.k . 7 `.8Xk.c n Z.Z.1.-.q.i.t.<.C.G.K.3.q.6.) l h @                                           ",
"                          . $ o.y.W + 7 ).lXn.c m.uXpX4._ &.d.i.q.;.6.r.e.e.e.8.6.Z . :                                         ",
"                          > 3 ) o.h o 4 }.7Xx.h.m.tXpX1._ *.a.i.=.&.6.r.r.r.t.6.5.) r y                                         ",
"                              3 * * o 7 }.7XR.j.n.sXgX3._ *.d.y.| ` *.r.r.a.a.r.7.6.=.o.8 @                                     ",
"                              > # # o 7  X7XY.j.x.sXaX3.` -.i.t.` _ &.6.e.a.a.t.e.6.8.o.8 *                                     ",
"                                    o 7  X7X.X`.`.oXoXs.r.] a p 9 9 t p h 5.6.y.a.7.&.O.' ' g o >                               ",
"                                    . 7 ).9XOXOX6X'.'.g.f.) . % . % . % 9 ;.5.i.d.0. .O.=.5.f % >                               ",
"                                    < v ~ >.`.7XOX{.{.o.[ P K K U U J J Y l A ;.t.7.5.=.O.O.W f B                               ",
"                                        : . >.9X+Xd.u.a % K uXyXyXyX-X=XI.$ $ ] 5.r.d.y...{ &.5.] & &                           ",
"                                        , + ~ .X@Xa.a.B 6 I uXuXtXtXwX-XU.q 5 )  .5.d.y. .} O.=.' & @                           ",
"                                            7 7 C u.d.|.,X4XgXgXgXgXuXyX1XQ.E.m = h r.t.y.i.&.} A & o                           ",
"                                            o o p u.d.lXtXkXhXjXjXhXsXyX4X=X;Xb % h r.t.a.d.*.` k & #                           ",
"                                        2 < B l / 0.u.qXfX~.P P P P ;XfXiX2X-Xm . 9 j l q.i.&.` T $ $                           ",
"                                        : # j $.$.0.p.qXhXS.% X % % S.hXjXtXyXM . + . 4 -.r.&.} Z $ #                           ",
"                                        e 9 ( #.$.;.;.`.:XF.N N d y F.:X[.!.Q.G b 5 . 4 -.r.| k h : $                           ",
"                                    # 4 @.#.#.#.#.@./ i $ D OXoX'.'.D $ * * 6 A.;Xk.. 6 =.r.h @ 3                               ",
"                                    # = @.#.#.#.#./ / i X D 7XOX'.'.V . o o * A.=XB.$ 9 1.q.h % >                               ",
"                                    o = / @.@.@.( i i Q ,.P.7XOXXX'.V o # o ; A.=X%X!.S.B p 6 @ >                               ",
"                                    # = / / @.@.( X & ^ (./.6XOXXX'.V & o O ; I.=X1XtX<Xx % + + >                               ",
"                                    @ 4 j j j j B c x H./.'.6XoX>.! u X O + $ J k.W.yX2X/ P z + :                               ",
"                                        : o o o c l.l.`.OX7X9X|.4 . + + + $ O o o J 2X4XgXhXP . o + +                           ",
"                                        : o 6 7 c z.z.!.5X.X X(.y 8 , + o $ o $ o J 1XwXfXgXF.5 w w w                           ",
"                                        : o ~ }.).5X5XN.l.H 5 y H./.B X @ @ X @ . J =X-XfXjXiX3X3X3X4XB : : : : : :             ",
"                                        : o >.7X6X6X8Xc.l.n . 4 (.XXC % X @ X X % G =X-XfXjXjXhXhXjXkXB . o . . + +             ",
"                                    @ $ @ + ,.oXoX6X8XG c G >.J. XoXH.Q C X X @ o w G U 2XtXfXjXjXjXgX^.S.S.S.S.S.D.N .         ",
"                                    + + $ @ ! '.'.6X8Xu % K 0X0X7X7X/.(.^ X X . o . % 6 ;XwXdXhXhXhXhXhXhXhXhXhXhXaXN o <       ",
"                                  M B N : + D H.H.L.P.e . B L.(.OX6XXX(.H.B M M M b b B U.W.!.|.>XsXsXkXgXfXfXkX:X~.v <         ",
"                < : - - - - - - - P gX4Xw + $ & & & & @ + $ & 9 }.7XOXOX8XkXfXwX-X1X1X$Xw $ 6 $ M 2XwXrXtXtXtX,Xw =             ",
"                > + O * * & * * # I hX3Xe $ = & $ $ $ X o $ + 7 `.OXOX7X0XjXjXeXwXwXwX;X5 # X + m -X1XwXeX4XyX;X5 #             ",
"                > + B [.:X|.;XA.B.Q.iXtX:X:X%X|.S.$ @ $ O # O $ d d ^.aXaXjXgX=X&X-XyX,X5 o X + 6 N m M N M M m                 ",
"                3 X K hXhXhXjX%X#X=XtXuXjXhXhXhX:X6 $ + O o O $ . % S.hXhXhXgX%XE.=XiX<X0 X @ + . . + . . . + +                 ",
"                  3 Y S.!.gXjX4X-X,X-X1XdXgX~.S.I $ o @ + $ + $ o o L W.S.S.S.%X=XE.Z.F.v < < < < < < < < < < 1                 ",
"                      . B gXhXhXhX4XE.#XeXtXK . X @ O O O $ + O O o X X o o * !.tXZ.o -                                         ",
"                      + M 4X3X4X3X,X#X&XeXtXK . $ @ O O O O O O O O O O # # ; !.dXZ.o :                                         ",
"                          w w w 5 J #X&XwXtXU . >                         X ; !.dXZ.# ,                                         ",
"                          + . . % G E.E.1X4XL . >                         $ = W.4XZ.+ :                                         ",
"                                    e e z N 6 + >                         $ + w N z                                             ",
"                                    + O O o + @ 3                         @ $ @ X @                                             ",
"                                    1 < 1 < 1 <                           1 < < 1                                               ",
"                                                                                                                                ",
"                                                                                                                                ",
"                                                                                                                                "
};
