/* XPM */
static char *result[] = {
/* columns rows colors chars-per-pixel */
"32 32 225 2 ",
"   c #757975",
".  c #757A74",
"X  c #777B75",
"o  c #787B75",
"O  c #797D77",
"+  c #727B7B",
"@  c #747A78",
"#  c #767B78",
"$  c #747C7A",
"%  c #757C7A",
"&  c #757D7D",
"*  c #757E7D",
"=  c #747D7E",
"-  c #757E7F",
";  c #777F7E",
":  c #777F7F",
">  c #787D79",
",  c #7B7F78",
"<  c #787F7C",
"1  c #87734E",
"2  c #87734F",
"3  c #88724C",
"4  c #88724D",
"5  c #88734E",
"6  c #88734F",
"7  c #877350",
"8  c #877555",
"9  c #887450",
"0  c #8C7751",
"q  c #887654",
"w  c #8E7B57",
"e  c #8F7B57",
"r  c #83765C",
"t  c #82765D",
"y  c #81765E",
"u  c #82765E",
"i  c #907B54",
"p  c #937F58",
"a  c #827861",
"s  c #7B817B",
"d  c #7C8079",
"f  c #7D8079",
"g  c #7F827A",
"h  c #7F827B",
"j  c #79807D",
"k  c #7B817C",
"l  c #7A807D",
"z  c #7A817D",
"x  c #78807E",
"c  c #79807E",
"v  c #79807F",
"b  c #7A817E",
"n  c #7B827E",
"m  c #7C817C",
"M  c #7C827C",
"N  c #7D827D",
"B  c #7D837E",
"V  c #968159",
"C  c #93815E",
"Z  c #95815C",
"A  c #99845D",
"S  c #9A855D",
"D  c #9C875D",
"F  c #9C865E",
"G  c #8F8367",
"H  c #9E8960",
"J  c #9F8C63",
"K  c #9F8C64",
"L  c #9F8C65",
"P  c #9F8D65",
"I  c #9D8C67",
"U  c #9F8D66",
"Y  c #9E8D67",
"T  c #9F8D67",
"R  c #9F8E67",
"E  c #97896B",
"W  c #978A6B",
"Q  c #95896C",
"!  c #96896C",
"~  c #968A6E",
"^  c #9A8B69",
"/  c #8A8572",
"(  c #8E8771",
")  c #8C8773",
"_  c #898675",
"`  c #80827B",
"'  c #80847C",
"]  c #81847D",
"[  c #80857F",
"{  c #958E7A",
"}  c #98937F",
"|  c #A08B62",
" . c #A28D61",
".. c #A38D61",
"X. c #A08C62",
"o. c #A08C63",
"O. c #A18C63",
"+. c #A18D63",
"@. c #A28D62",
"#. c #A38D62",
"$. c #A28D63",
"%. c #A38E63",
"&. c #A08D64",
"*. c #A18D64",
"=. c #A08D65",
"-. c #A18D65",
";. c #A18E65",
":. c #A08D67",
">. c #A28F67",
",. c #A69269",
"<. c #A4926B",
"1. c #AB966B",
"2. c #B09B6F",
"3. c #AE9A70",
"4. c #AF9C73",
"5. c #AF9C74",
"6. c #A1987F",
"7. c #B09B70",
"8. c #B39F73",
"9. c #B49F73",
"0. c #B49F74",
"q. c #B4A075",
"w. c #B6A176",
"e. c #B6A37B",
"r. c #B7A47B",
"t. c #BAA579",
"y. c #BBA67B",
"u. c #BDA97F",
"i. c #6F7C81",
"p. c #6E7C82",
"a. c #6F7D82",
"s. c #6F7D83",
"d. c #707C80",
"f. c #717D80",
"g. c #717D81",
"h. c #707D82",
"j. c #707D83",
"k. c #747F82",
"l. c #707E85",
"z. c #717F85",
"x. c #727F84",
"c. c #727F85",
"v. c #717F86",
"b. c #727F86",
"n. c #758083",
"m. c #778182",
"M. c #778183",
"N. c #718085",
"B. c #728085",
"V. c #738085",
"C. c #728086",
"Z. c #738086",
"A. c #738186",
"S. c #728087",
"D. c #738087",
"F. c #738187",
"G. c #778284",
"H. c #748187",
"J. c #758287",
"K. c #798280",
"L. c #7A8282",
"P. c #7B8382",
"I. c #7D8380",
"U. c #7D8480",
"Y. c #7E8481",
"T. c #7E8581",
"R. c #7F8581",
"E. c #7E8683",
"W. c #788385",
"Q. c #748288",
"!. c #758288",
"~. c #758389",
"^. c #768388",
"/. c #778488",
"(. c #78868A",
"). c #818681",
"_. c #818783",
"`. c #838882",
"'. c #838883",
"]. c #848882",
"[. c #848983",
"{. c #868A83",
"}. c #878B83",
"|. c #868B87",
" X c #8A8D85",
".X c #8A8E85",
"XX c #8A8E86",
"oX c #8F9083",
"OX c #959384",
"+X c #9B9682",
"@X c #9D9782",
"#X c #90958F",
"$X c #818D91",
"%X c #838E92",
"&X c #869192",
"*X c #869295",
"=X c #879295",
"-X c #8B9596",
";X c #8A9699",
":X c #8C979A",
">X c #8D989B",
",X c #929791",
"<X c #A09982",
"1X c #B3A482",
"2X c #BBA981",
"3X c #BDA981",
"4X c #BDAA81",
"5X c #BEAA81",
"6X c #BFAB81",
"7X c #BDAA82",
"8X c #BDAB83",
"9X c #BEAA82",
"0X c #BEAB82",
"qX c #BFAB82",
"wX c #BEAB83",
"eX c #BFAC82",
"rX c #BFAC83",
"tX c #C1AC80",
"yX c #C0AC81",
"uX c #C2AD81",
"iX c #C3AD81",
"pX c #C0AC82",
"aX c #C1AC82",
"sX c #C2AD82",
"dX c None",
/* pixels */
"dXdXdXdXdXdXdXdXdXdXdXdXdXdXdXdXdXdXdXdXdXdXdXdXdXdXdXdXdXdXdXdX",
"dXdXdXdXdXdXdXdXdXdXdXdXQ.C.F.J.H.F.S.~.dXdXdXdXdXdXdXdXdXdXdXdX",
"dXdXdXdXdXdXdXdXdXdXdXdX.X}.{.k.n.}.}.XXdXdXdXdXdXdXdXdXdXdXdXdX",
"dXdXdXdXdXdXdXdX(.Z.v. XeXaX2XY.`.9XyX8X|.b.Z.dXdXdXdXdXdXdXdXdX",
"dXdXdXdXdXdXdXF.OX@Xm.' 3.t.4XT.].pXiX0X_.P.<XoXl.dXdXdXdXdXdXdX",
"dXdXdXdXdXdXdXM.6.3XE.d | 9.7XT.`.u.tX0X_.[.sX+XG.dXdXdXdXdXdXdX",
"dXdXdXdXdXA.] ^ >.<.K.d X.9.0XR.N ,.w.wX_.[.pX2X1X[.z.dXdXdXdXdX",
"dXdXdXdXdXC.` $. .U v f X.2.e.I.m o.8.wX_.[.pXiX6X'.v.dXdXdXdXdX",
"dXdXdXdXdXC.h +.@.T v f +.%.=.< M &.0.rX_.[.pXuX5X`.z.dXdXdXdXdX",
"dXdXdXdXdXC.h +.@.T v f +.@.K < M &.1.5.U.[ 4.y.5X`.z.dXdXdXdXdX",
"dXdXdXdXdXC.h +.@.T v f +.@.K < M *. .K l m o.0.0X`.z.dXdXdXdXdX",
"dXdXdXdXdXC.h +.@.T v f +.@.K < M &.@.=.l m &.q.qX`.z.dXdXdXdXdX",
"dXdXdXdXdXZ.g +.@.T v f +.@.K < M &.@.P l m &.7.r.).N.dXdXdXdXdX",
"dXdXdXdXdXZ.g +.@.T v f +.@.K < M &.@.P l m &.%.=.m C.dXdXdXdXdX",
"dXdXdXdXdXC.g +.@.T v f +.@.K < M &.@.=.l m *.@.J k B.dXdXdXdXdX",
"dXdXdXdXdXC.h +.@.T v f +.@.K < M *.O.I n B R ;.Y k C.dXdXdXdXdX",
"dXdXdXdXdXC.h +.@.T v f +.@.K < M *.( b &X-X,X,X#XW.B.dXdXdXdXdX",
"dXdXdXdXdXC.h +.@.T v f +.@.K < M *._ s.%X=X*X;X:X/.B.dXdXdXdXdX",
"dXdXdXdXdXS.h +.@.T v f +.@.K < M *._ p.h.h.a.$X>X/.B.dXdXdXdXdX",
"dXdXdXdXdXZ., Z H T v f +.@.K < M *.W / - : ) { } L.B.dXdXdXdXdX",
"dXdXdXdXdXA.X 7 A :.v f +.@.K < M &...*.l m *...o.s C.dXdXdXdXdX",
"dXdXdXdXdXA.X 9 A :.v f +.@.K < M &.@.P l m &.@.K k B.dXdXdXdXdX",
"dXdXdXdXdXA.X 9 A :.v f +.@.K < M &.@.P l m *.@.K k B.dXdXdXdXdX",
"dXdXdXdXdXF.X 9 S :.v f +.#.K < M &.@.P l m *.@.K k B.dXdXdXdXdX",
"dXdXdXdXdXD.X 6 i C ; O p D K < M &.@.P l m *.@.K k B.dXdXdXdXdX",
"dXdXdXdXdXF.X 6 4 8 &   2 V L < m &.@.=.l m &.@.K k B.dXdXdXdXdX",
"dXdXdXdXdXD.o 5 3 q * . 1 0 w % > e F -.z m +...o.k C.dXdXdXdXdX",
"dXdXdXdXdXc.# t r a = @ t r y + $ u G ~ x j ! E Q c C.dXdXdXdXdX",
"dXdXdXA.x.h.i.d.d.d.i.i.d.d.d.i.i.d.f.g.i.i.f.f.f.i.h.Z.dXdXdXdX",
"dXdXdXj.i.i.i.i.i.i.i.i.i.i.i.i.i.i.i.i.i.i.i.i.i.i.i.i.h.J.dXdX",
"dXdX!.V.V.V.V.V.V.V.V.V.V.V.V.V.V.V.V.V.V.V.V.V.V.V.V.V.V.^.dXdX",
"dXdXdXdXdXdXdXdXdXdXdXdXdXdXdXdXdXdXdXdXdXdXdXdXdXdXdXdXdXdXdXdX"
};
