/* XPM */
static char *result[] = {
/* columns rows colors chars-per-pixel */
"32 32 254 2 ",
"   c #130F08",
".  c #130F09",
"X  c #17130D",
"o  c #19150E",
"O  c gray8",
"+  c #141514",
"@  c #1D1D1D",
"#  c #281E0F",
"$  c #2B200E",
"%  c #362305",
"&  c #362406",
"*  c #3D2702",
"=  c #3A2605",
"-  c #392606",
";  c #3E2803",
":  c #3F2904",
">  c #3E2906",
",  c #342A17",
"<  c #342B1D",
"1  c gray14",
"2  c #262727",
"3  c #282828",
"4  c #2C2D2C",
"5  c #2E2E2F",
"6  c #2F2F31",
"7  c gray19",
"8  c #343434",
"9  c #353535",
"0  c #393A39",
"q  c #3A3A3A",
"w  c #3A3B3A",
"e  c #3B3B3A",
"r  c #3C3C3C",
"t  c #3C3D3C",
"y  c #402A05",
"u  c #53370C",
"i  c #5E3B0D",
"p  c #5D3A0E",
"a  c #5A3C14",
"s  c #603D0B",
"d  c #603C0C",
"f  c #613D10",
"g  c #624117",
"h  c #4F355D",
"j  c #46046B",
"k  c #400772",
"l  c #440571",
"z  c #440572",
"x  c #4C1571",
"c  c #46117B",
"v  c #4F1F78",
"b  c #531D77",
"n  c #521779",
"m  c #4F277C",
"M  c #53217F",
"N  c #5A277A",
"B  c #572C79",
"V  c #56297D",
"C  c #5A3C72",
"Z  c #5D367A",
"A  c #5D317F",
"S  c gray25",
"D  c #424142",
"F  c #444443",
"G  c #4E4E4D",
"H  c #504B53",
"J  c #514B54",
"K  c #514F55",
"L  c #525155",
"P  c #535254",
"I  c #545355",
"U  c #555655",
"Y  c #575756",
"T  c #585858",
"R  c #595A58",
"E  c #554567",
"W  c #604178",
"Q  c #62457A",
"!  c #6B5C7F",
"~  c #636164",
"^  c #656466",
"/  c DimGray",
"(  c #6A6A69",
")  c #6E6279",
"_  c #6E687C",
"`  c #706B78",
"'  c #73707A",
"]  c #79747F",
"[  c #787879",
"{  c #7A7979",
"}  c #7E7E7E",
"|  c #8E7C63",
" . c #998168",
".. c #98887A",
"X. c #A6917A",
"o. c #3D0382",
"O. c #3A0483",
"+. c #3A028A",
"@. c #3B0488",
"#. c #320293",
"$. c #4C0380",
"%. c #4B0780",
"&. c #46048F",
"*. c #490589",
"=. c #520586",
"-. c #510488",
";. c #54078A",
":. c #54068B",
">. c #51068E",
",. c #57068F",
"<. c #5A098F",
"1. c #42158A",
"2. c #490691",
"3. c #4A0596",
"4. c #500494",
"5. c #530495",
"6. c #54059B",
"7. c #50059D",
"8. c #451B9F",
"9. c #501792",
"0. c #621C86",
"q. c #611293",
"w. c #681196",
"e. c #5E3883",
"r. c #5F3688",
"t. c #5B348E",
"y. c #5B3D89",
"u. c #5A2B9E",
"i. c #553D91",
"p. c #632587",
"a. c #623285",
"s. c #653186",
"d. c #6F2E97",
"f. c #692F9D",
"g. c #71249D",
"h. c #703194",
"j. c #4404A7",
"k. c #4E04A1",
"l. c #4904A9",
"z. c #5A0EA0",
"x. c #4B11A6",
"c. c #5305B8",
"v. c #6805A6",
"b. c #6404AB",
"n. c #6A04A8",
"m. c #690FAA",
"M. c #7005AC",
"N. c #751BA8",
"B. c #6705B5",
"V. c #6E05BE",
"C. c #7305BB",
"Z. c #7906B9",
"A. c #6613BF",
"S. c #7B1EB9",
"D. c #782FA3",
"F. c #7C26A8",
"G. c #7520B7",
"H. c #7320BD",
"J. c #614387",
"K. c #6D528C",
"L. c #705B82",
"P. c #7A5B8D",
"I. c #77429A",
"U. c #724E9A",
"Y. c #735195",
"T. c #7D5995",
"R. c #766A84",
"E. c #7942A1",
"W. c #7F43A6",
"Q. c #775DA0",
"!. c #7E67A3",
"~. c #5E04C8",
"^. c #5B04D7",
"/. c #5804DB",
"(. c #780FC8",
"). c #7521CA",
"_. c #7A20CD",
"`. c #6F2DD5",
"'. c #7334DC",
"]. c #7C09E1",
"[. c #6B1DE4",
"{. c #863BB0",
"}. c #827D8A",
"|. c #866D9F",
" X c #896C9B",
".X c #886E9F",
"XX c #8669A0",
"oX c #8E65A9",
"OX c #8168AC",
"+X c #957FAC",
"@X c #9278BB",
"#X c #8310C2",
"$X c #8214CA",
"%X c #8006D5",
"&X c #8E06D9",
"*X c #8805DD",
"=X c #8A50CB",
"-X c #9162D6",
";X c #A46FC7",
":X c #818181",
">X c #868487",
",X c #88848B",
"<X c #898A89",
"1X c #8A8A8B",
"2X c #8B8A8B",
"3X c #8B8B8C",
"4X c #919192",
"5X c #929196",
"6X c #979697",
"7X c #989898",
"8X c #9A9999",
"9X c #99999A",
"0X c #9C9A9E",
"qX c gray61",
"wX c #9D9D9E",
"eX c #9F9F9F",
"rX c #B9A093",
"tX c #B9A193",
"yX c #BAA293",
"uX c #BBA492",
"iX c #BBA395",
"pX c #BCA698",
"aX c #9883AD",
"sX c #9D82AD",
"dX c #9A93A1",
"fX c #9990A7",
"gX c #9F93A9",
"hX c #A292AC",
"jX c #A396B7",
"kX c #A5A3A7",
"lX c #A7A4AB",
"zX c #A6A2AC",
"xX c #A8A3AD",
"cX c #ADADAE",
"vX c #AAA1B2",
"bX c #ACA3B4",
"nX c #AFA1BD",
"mX c #B0A4B9",
"MX c gray69",
"NX c #B7B5BA",
"BX c gray73",
"VX c #C0BDC4",
"CX c #C4C3C5",
"ZX c #DED4CF",
"AX c #E2DAD2",
"SX c #E4DED9",
"DX c #E7E0DB",
"FX c #E7E7E7",
"GX c #E7E8E8",
"HX c gray91",
"JX c #E8E9E8",
"KX c #ECECEC",
"LX c #F0EFF0",
"PX c None",
/* pixels */
"PXPXPXPXPXPXPXPXPXPXPXPXPXPXPXPXPXPXPXPXPXPXPXPXPXPXPXPXPXPXPXPX",
"PXPXPXPXPXPXPXPXPXPXPXPXPXPXPXPXPXPXPXPXPXPXPXPXPXPXPXPXPXPXPXPX",
"PXPXPXPXPXPXPXPXPXPXPXPXPXPXPXPXPXPXPXPXPXPXPXPXPXPXPXPXPXPXPXPX",
"PXPXPXPXPXPXPXPXPXPXPXPXPXPXPXPXPXPXPXPXPXPXPXPXPXPXPXPXPXPXPXPX",
"PXPXPXPXPXPXPXPXPXPXPXPXPXPXPXPXPXPXPXPXPXPXPXPXPXPXPXPXPXPXPXPX",
"PXPXPXPXPXPXPXPXPXPXPXPXPXPXPXPXPXPXPXPXPXPXPXPXPXPXPXPXPXPXPXPX",
"PXPXPXPXPXPXPXPXPXPXPXPXPXPXPXPXPXPXPXPXPXPXPXPXPXPXPXPXPXPXPXPX",
"PXPXPXPXPXPXPXPXPXPXPXPXPXPXPXPXPXPXPXPXPXPXPXPXPXPXPXPXPXPXPXPX",
"PXPXPXPXPXPXPXPXPXPXPXPXPXPXPXPXPXPXPXPXPXPXPXPXPXPXPXPXPXPXPXPX",
"PXPXPXPXPXPXPXPXPXPXPXPXPXPXPXPXPXPXPXPXPXPXPXPXPXPXPXPXPXPXPXPX",
"PXPXPXPXPXPXPXPXPXPXPXPXPXPXPXPXPXPXPXPXPXPXPXPXPXPXPXPXPXPXPXPX",
"PXPXPXPXPXPXPXPXPXPXPXPXPXPXPXPXPXPXPXPXPXPXPXPXPXPXPXPXPXPXPXPX",
"PXPXPXPXPXPXPXPXPXPXPXPXPXX . . .   o PXPXPXPXPXPXPXPXPXPXPXPXPX",
"PXPXPXPXPXPXPXPXPXPXPXPX$ & % % % % & # PXPXPXPXPXPXPXPXPXPXPXPX",
"PXPXPXPXPXPXPXPXPXPXG , = > > > > > > - < PXPXPXPXPXPXPXPXPXPXPX",
"PXPXPXPXPXPXPXPXPXD 8X| u * * * ; : y a ..1XPXPXPXPXPXPXPXPXPXPX",
"PXPXPXPXPXPXPXPXPX3 MXAX .f s d i p g X.DX6X2 PXPXPXPXPXPXPXPXPX",
"PXPXPXPXPXPXPXPXPX1 qXLXZXiXuXyXtXrXpXSXKX:X@ PXPXPXPXPXPXPXPXPX",
"PXPXPXPXPXPXPXPXPXO S cXJXHXGXGXGXFXGXFXeX8 + PXPXPXPXPXPXPXPXPX",
"PXPXPXPXPXPXPXPXPX7 2X>XH J L P K R Y I 9X[ 5 PXPXPXPXPXPXPXPXPX",
"PXPXPXPXPXPXPXPXT eX3Xh j $.B Z b  XP.C ,X4X7XPXPXPXPXPXPXPXPXPX",
"PXPXPXPXPXPXPXU 0XsXQ v Z.*X#X$X(.).G.E.W L.fX' PXPXPXPXPXPXPXPX",
"PXPXPXPXPXPXPXt mX{.;X-X].&X%X[.'.c.m.W.a.A V ! 6 PXPXPXPXPXPXPX",
"PXPXPXPXPXPXPXe hXD.=X`./.^.~.A.H.5.,.q.oXU.M R.3 PXPXPXPXPXPXPX",
"PXPXPXPXPXPXPXq vXh.B.V.C._.S.n.b.6.j.3.I.XXQ.lX4 PXPXPXPXPXPXPX",
"PXPXPXPXPXPXPXw gXp.w.N.M.F.g.v.k.l.7.=.9.t.Y.zX9 PXPXPXPXPXPXPX",
"PXPXPXPXPXPXPX0 bXs.0.d.:.;.<.z.x.4.-.&.@.k !.NXw PXPXPXPXPXPXPX",
"PXPXPXPXPXPXPXF CX+Xn %.*.2.>.f.@X8.+.o.l x jXBXr PXPXPXPXPXPXPX",
"PXPXPXPXPXPXPXPX{ VXaXr.c O.#.u.OX1.z N T..XxX( PXPXPXPXPXPXPXPX",
"PXPXPXPXPXPXPXPXPX/ ^ dX|.m i.y.e.J.K.nXkX~ / PXPXPXPXPXPXPXPXPX",
"PXPXPXPXPXPXPXPXPXPXPX<X_ E ] ` ) }.5XwX} PXPXPXPXPXPXPXPXPXPXPX",
"PXPXPXPXPXPXPXPXPXPXPXPXPXPXPXPXPXPXPXPXPXPXPXPXPXPXPXPXPXPXPXPX"
};
