/* XPM */
static char *result[] = {
/* columns rows colors chars-per-pixel */
"32 32 209 2 ",
"   c #030303",
".  c #0C0C0C",
"X  c #1C1304",
"o  c #19130C",
"O  c #130A19",
"+  c #110A15",
"@  c #121213",
"#  c #1A1A1B",
"$  c #1B1710",
"%  c #0C0910",
"&  c #2B1D07",
"*  c #3B2502",
"=  c #3E2A05",
"-  c #362506",
";  c #26221D",
":  c #190F27",
">  c #232323",
",  c #2B2A2C",
"<  c #352D3C",
"1  c #313232",
"2  c #3A3A3A",
"3  c #363639",
"4  c #452D03",
"5  c #442C0A",
"6  c #473005",
"7  c #473009",
"8  c #573809",
"9  c #6C420D",
"0  c #6B4218",
"q  c #714513",
"w  c #6F5230",
"e  c #77572E",
"r  c #3B3441",
"t  c #3D1867",
"y  c #3F0975",
"u  c #3D1979",
"i  c #3E216F",
"p  c #41105B",
"a  c #4B066E",
"s  c #430C6C",
"d  c #480B6E",
"f  c #45066B",
"g  c #45156E",
"h  c #49156D",
"j  c #44057A",
"k  c #4B0878",
"l  c #54097B",
"z  c #53057A",
"x  c #471274",
"c  c #561A7A",
"v  c #56267B",
"b  c #55297B",
"n  c #563279",
"m  c #4A2572",
"M  c #613F7F",
"N  c #48484A",
"B  c #4A4554",
"V  c #544E59",
"C  c #535253",
"Z  c #5C5C5C",
"A  c #636363",
"S  c #696969",
"D  c #686967",
"F  c #727272",
"G  c #7C7C7B",
"H  c #77737E",
"J  c #926E53",
"K  c #997C5B",
"L  c #9F7A6B",
"P  c #A17E6B",
"I  c #80817F",
"U  c #A38372",
"Y  c #3B0485",
"T  c #36048C",
"R  c #3A0588",
"E  c #330492",
"W  c #38039B",
"Q  c #2A059C",
"!  c #332180",
"~  c #3604A9",
"^  c #2C10A1",
"/  c #3216A0",
"(  c #3B03B0",
")  c #460689",
"_  c #540A84",
"`  c #5E068C",
"'  c #5B098C",
"]  c #570787",
"[  c #4F1F8F",
"{  c #561B83",
"}  c #450995",
"|  c #5E0593",
" . c #500895",
".. c #590797",
"X. c #591596",
"o. c #630695",
"O. c #650A94",
"+. c #670B9B",
"@. c #661898",
"#. c #70159F",
"$. c #621A8D",
"%. c #422089",
"&. c #50239F",
"*. c #5F3C84",
"=. c #682597",
"-. c #663F86",
";. c #4302AC",
":. c #4504A2",
">. c #5508A6",
",. c #4805B4",
"<. c #5605B5",
"1. c #6E07A8",
"2. c #7207A6",
"3. c #6906B5",
"4. c #7A05B4",
"5. c #7608B5",
"6. c #7B14B5",
"7. c #5531AC",
"8. c #7927A4",
"9. c #5F4890",
"0. c #634586",
"q. c #72498C",
"w. c #6B5889",
"e. c #765A8F",
"r. c #6C5A9A",
"t. c #785596",
"y. c #734794",
"u. c #5440A1",
"i. c #6A63A7",
"p. c #4F02CF",
"a. c #5B06C8",
"s. c #4F07DE",
"d. c #5C16DA",
"f. c #5803D6",
"g. c #6605C9",
"h. c #7004C1",
"j. c #7612CF",
"k. c #6123CE",
"l. c #6C27D9",
"z. c #4805E6",
"x. c #530CEB",
"c. c #7505E3",
"v. c #7947CA",
"b. c #6C56EA",
"n. c #8210BA",
"m. c #88789D",
"M. c #826397",
"N. c #915CB2",
"B. c #895DA3",
"V. c #8E6BA5",
"C. c #8E79A5",
"Z. c #957DA8",
"A. c #8B6CB5",
"S. c #8609C5",
"D. c #9307D6",
"F. c #860DD1",
"G. c #952DD0",
"H. c #840AE6",
"J. c #9C08E8",
"K. c #9F3AE5",
"L. c #AA66CE",
"P. c #AB7AD2",
"I. c #838383",
"U. c #8D8D8D",
"Y. c gray58",
"T. c #9B9B9B",
"R. c #92889F",
"E. c #BBAB98",
"W. c #9E94AF",
"Q. c #9D8DB2",
"!. c #9E92B0",
"~. c #A085B1",
"^. c #AA99B9",
"/. c #A39AAE",
"(. c #ACACAC",
"). c #A4A3A5",
"_. c #ADA0BD",
"`. c #B7B7B8",
"'. c #B7ADB2",
"]. c #C9C1B9",
"[. c #9C97CC",
"{. c #AD9DC0",
"}. c #B793CD",
"|. c #B4ACC5",
" X c #BAAEC5",
".X c #B4A3C3",
"XX c #BDB8C8",
"oX c #BEB1CA",
"OX c #B3A3E8",
"+X c #C1B7CB",
"@X c #CAB7D6",
"#X c #C4C4C5",
"$X c #CACACA",
"%X c #D8CFDF",
"&X c #DCDBDC",
"*X c #D5D3D8",
"=X c #D0C5CB",
"-X c #E2DAD6",
";X c #E1E1DF",
":X c #DCD6E3",
">X c #DCCDEB",
",X c #E4DFE7",
"<X c #E2E2E2",
"1X c #EAE9EA",
"2X c #F0EFEC",
"3X c #EFF0EF",
"4X c #F6F5F5",
"5X c #F9F9F9",
"6X c None",
/* pixels */
"6X6X6X6X6X6X6X6X6X6X6X6X6X6X6X6X6X6X6X6X6X6X6X6X6X6X6X6X6X6X6X6X",
"6X6X6X6X6X6X6X6X6X6X6X                    6X6X6X6X6X6X6X6X6X6X6X",
"6X6X6X6X6X6X6X6X6X6X$ X X X X X X X X X X o 6X6X6X6X6X6X6X6X6X6X",
"6X6X6X6X6X6X6X6X6X  X = = = = = = = = = * &   6X6X6X6X6X6X6X6X6X",
"6X6X6X6X6X6X6X6X. & - = = = = = = = = = = - & X @ 6X6X6X6X6X6X6X",
"6X6X6X6X6X6X6X> ; = 4 = = = = 4 = = = = = = 4 ; > 6X6X6X6X6X6X6X",
"6X6X6X6X6X6X> `.].e 8 * * * * * * = = = = 8 0 '.#X, @ 6X6X6X6X6X",
"6X6X6X6X6X@ > $X2XK e 7 4 4 6 6 4 6 4 6 7 w J &X<X1 @ 6X6X6X6X6X",
"6X6X6X6X6X@ > $X4X3X].q 9 9 9 9 9 9 9 9 9 E.2X5X&X1 @ 6X6X6X6X6X",
"6X6X6X6X6X. > $X5X5X-XU L U U K L L L P U =X5X5X;X, @ 6X6X6X6X6X",
"6X6X6X6X6X@ # I.`.2X5X5X4X4X4X4X4X4X4X4X4X4X4X`.U.@ . 6X6X6X6X6X",
"6X6X6X6X6X.   @ N <X5X5X5X5X5X5X5X4X5X5X4X4X4XA .   . 6X6X6X6X6X",
"6X6X6X6X6X@ # U.(.H F F F F F F F F F F F F H (.T.> @ 6X6X6X6X6X",
"6X6X6X6X6X> 1 $X&X, + O + + # @ O @ > > @ % , #X&X2 > 6X6X6X6X6X",
"6X6X6X6X# T.$XI.B p z o.o.{ R.0.@.M oX@XC.t /.I.D $X'.> 6X6X6X6X",
"6X6X6X6XC (.:XV : a 2.3.c.5.8.n.n.#.G.K.8.#.}.V < *X#X3 2 6X6X6X",
"6X6X. F 2XZ.{ c 9.X.S.J.J.D.n.H.H.j.,.f.O.y.*.h n e.W.i.T.. 6X6X",
"6X6X. A ,XN.6.L.>Xl.H.J.D.D.H.x.b.d.p.<.n.P.t.d e.c g t.G o 6X6X",
"6X6X. F ^.+.G.@XOXl.x.c.h.h.z.d.P.j.o.z ' @.=.B.n j d -.B   6X6X",
"6X6X. F %Xy.+.v.k.f.f.z.s.g.<.1.6.<.) >.` ` @.oX^.&.g C.G   6X6X",
"6X6X. F @X0.2.h.g.5.5.g.j.j.2.o.<.2.] <.W :.X.y.`.{ 9.%XI   6X6X",
"6X6X. F :Xt.z 2.h.4.4.4.L.A.4.4.3.o.>.( ;.) l $.|.{ r.4XI.. 6X6X",
"6X6X. F +Xv ` ` 8.o.5.4.8.=.+.1. .~ ,.;.o.z ] } u.x v .XY.@ 6X6X",
"6X6X. F .Xv k c }.@. .o._ k +.>.( ( | | ` ] W E y s r.1XT.@ 6X6X",
"6X6X. F 4XV.f ] $.l l l  . .O.+.7...] ) _ W E j a y i.5XT.@ 6X6X",
"6X6X. F 5X|.n d l )  . . .' ' X..XA.^ Q T R j a a v /.5XT.@ 6X6X",
"6X6X@ A (.*X|.n s Y R R E T ) &.>X[./ ) a a d s s w.*X(.I # 6X6X",
"6X6X6X6X# (.5X+X~.b g d Y Q ~ [ V.! j a d g C.^.^.oX+X> # 6X6X6X",
"6X6X6X6X6XA F F I. XQ.g x ! ! t g d m i m R.<X).F F S 6X6X6X6X6X",
"6X6X6X6X6X@ . . 3 <X+Xt M.XXw.W.{.w.|.XX+X:X1XZ . . @ 6X6X6X6X6X",
"6X6X6X6X6X6X6X6X6XZ N : r Z 3 C C < Z Z Z Z Z 6X6X6X6X6X6X6X6X6X",
"6X6X6X6X6X6X6X6X6X6X6X6X6X6X6X6X6X6X6X6X6X6X6X6X6X6X6X6X6X6X6X6X"
};
