/* XPM */
static char *result[] = {
/* columns rows colors chars-per-pixel */
"32 32 117 2 ",
"   c #036E01",
".  c #007100",
"X  c #077B00",
"o  c #0C7C01",
"O  c #117B02",
"+  c #0C8300",
"@  c #148403",
"#  c #1C8602",
"$  c #168B02",
"%  c #1C8D03",
"&  c #158309",
"*  c #198408",
"=  c #179300",
"-  c #1C9301",
";  c #1F9D00",
":  c #1E9408",
">  c #229402",
",  c #2C9702",
"<  c #249B02",
"1  c #2A9E03",
"2  c #22950A",
"3  c #279E09",
"4  c #2A9D0A",
"5  c #329D01",
"6  c #2F9F14",
"7  c #26A202",
"8  c #2CA302",
"9  c #2DAA01",
"0  c #2BA20A",
"q  c #2BA90A",
"w  c #32A503",
"e  c #33AC02",
"r  c #3AAC04",
"t  c #32A30B",
"y  c #35AE09",
"u  c #3BAE09",
"i  c #34B302",
"p  c #3BB403",
"a  c #35B904",
"s  c #3DBB03",
"d  c #37B20A",
"f  c #3CB30A",
"g  c #3EBB09",
"h  c #33A313",
"j  c #3BAF11",
"k  c #40A905",
"l  c #40AF0E",
"z  c #41B605",
"x  c #42BC03",
"c  c #49BF02",
"v  c #41B40B",
"b  c #42BD0B",
"n  c #4BBD0D",
"m  c #3EC202",
"M  c #3FC508",
"N  c #44C203",
"B  c #4AC503",
"V  c #45CA03",
"C  c #4BCC03",
"Z  c #45C20B",
"A  c #4CC40A",
"S  c #45C80A",
"D  c #4CCA09",
"F  c #50C505",
"G  c #53CD04",
"H  c #59CE01",
"J  c #53C60A",
"K  c #51CC0A",
"L  c #58CF0A",
"P  c #4CD204",
"I  c #4ED209",
"U  c #52D303",
"Y  c #5AD405",
"T  c #55DB03",
"R  c #5CDC03",
"E  c #54D30B",
"W  c #5CD40C",
"Q  c #54DA0C",
"!  c #5CDC0B",
"~  c #4AC515",
"^  c #4FC91D",
"/  c #51CD19",
"(  c #53D410",
")  c #59D513",
"_  c #5BDA11",
"`  c #60DF07",
"'  c #62D50C",
"]  c #62DD0C",
"[  c #68DD0F",
"{  c #64DC11",
"}  c #57E007",
"|  c #59E104",
" . c #5CE30B",
".. c #66ED04",
"X. c #65E00D",
"o. c #68E00E",
"O. c #66EA0C",
"+. c #6CEB0B",
"@. c #7AEE04",
"#. c #76E80C",
"$. c #6BF103",
"%. c #6FF806",
"&. c #6EF20D",
"*. c #71F306",
"=. c #7DF706",
"-. c #7DFD06",
";. c #71F30B",
":. c #7DF30C",
">. c #76F80B",
",. c #6BEB11",
"<. c #7CFA14",
"1. c #74F41B",
"2. c #73F322",
"3. c #82F706",
"4. c #82FD05",
"5. c #84FD0C",
"6. c #86F712",
/* pixels */
".   & 8 w v n x e 9 8 9 8 e y r p p u w e ' *.$.G B x e r w 1 5 ",
". . @ 8 8 f n c e 8 8 8 8 e e i a p r w w W ;.$.G C x e e w 8 1 ",
"X X : a p s x x p p e 1 1 b S C p i p e i A Q Q V Z g w w w 5 8 ",
": $ q I U N p p N A f < < ) 1.+.s i p x s i 8 9 s x p 8 8 8 w w ",
": $ q T T m f z c J l , < ) 1.,.s i p g g i 8 9 s s p 8 8 8 8 w ",
"X X 7 } | a > , w r r 5 1 g S s 8 < 7 9 9 i r z C P Z 9 e p z x ",
"    0  . .0 O # , 1 5 t 8 8 8 8 > % > < < e z x U Q S e e s A B ",
"O o 4 Q ! 8 # # 5 5 5 5 5 8 8 4 > % > 3 7 p B B U U V e e x V B ",
"u r e e 9 8 8 8 c A u > > 4 0 w > % 2 0 w ' :.@.C N p 8 8 p s x ",
"f f e 8 8 0 0 9 N A f - % < w 1 % > > 8 e [ 5.-.B x p 7 3 i x m ",
"L L A z r w 8 8 x N p 8 7 e i e , > < 7 9 F ] ] Y U N < ; p V V ",
"4.5.+.H A r 1 8 p p g g g Z N b 1 4 0 0 7 8 8 i O.&.E = = a P V ",
"-.3.+.H F r 1 8 p m s x N M N g 8 1 0 0 7 7 8 e O.&.I - = a P P ",
"Y W A p u 8 3 4 p s s p g e e p B A s 9 e D  .] C P x < ; s V V ",
"N c p 1 < < 3 0 f x s p p w 1 8 Y | D a i ] 5.=.N p e < 7 p V V ",
"N c p < < 9 e 9 x x c x z e 1 w D ) ~ 8 e _ :.@.F B s 8 9 s B B ",
"B B f 8 8 ) +...C B F U L A b v p j 6 * % l J H @.:.+.U I V m m ",
"C C f 1 8 ) >.*.U C U Q ( B z f e 0 2 o o t n G 3.5.;.T Q V s V ",
"N B c i p K X.` B B Z Z Z s s a 9 0 2 @ @ t v x ] o.W s g s p p ",
"x x B K F N N N N V a 7 < a m m 9 7 0 2 > 8 w e w w < X + 2 t w ",
"x x N G C B N N x Z d < ; a M M 8 0 1 3 < 1 t w w t > o + 2 h h ",
"p p p s m V P C a e 9 8 7 9 9 9 - $ - 1 1 < > 8 ' [ J < < < 1 1 ",
"a 9 a a a P T P 9 8 8 8 8 8 1 < + X % t 8 > # , :.5.[ r w 8 7 7 ",
"a a a a a V P P a 9 e e e w w 1 @ o - r r , % , #.:.' r r 0 7 7 ",
"I I S s b 9 7 9 P Q ( P P Z b f % $ y ,.,.x w t k k z G F x f u ",
"U T U m N 8 ; 7 E  .} } T C N x > $ j 2.1.A w w 5 w p L Y x p z ",
"B B B C C S g g S V V s s B C Z % @ t ^ / f e w w 5 k A B F L H ",
"0 7 p ! T &.>.&.9 8 > & & Z T E # o o + + 8 z f r r r w e { <.-.",
"4 8 f W R +.>.,.e 0 > * & b ! E # o o X X 0 v f i r r w e ] 6.-.",
"8 8 p N B N b b 8 1 z L ' H C V t 0 4 2 : < 1 w E ! J z r L R R ",
"e e r x p 8 > > , 1 F 6.5.Y s s z z d 8 0 < % 7 O.>.] z x B B B ",
"t w e z z 8 < > 1 5 n 6.5.Y s s x s p 8 8 > % 1 ..%.` z c N B B "
};
