/* XPM */
static char *f62ad63652824f02c20f9f1871eb7338ML8f9nvV2qRH2alZ[] = {
/* columns rows colors chars-per-pixel */
"32 32 22 1 ",
"  c #434343",
". c gray28",
"X c gray29",
"o c gray30",
"O c gray32",
"+ c #565656",
"@ c #585858",
"# c gray36",
"$ c #626262",
"% c #646464",
"& c DimGray",
"* c gray43",
"= c #727272",
"- c #747474",
"; c #797979",
": c gray50",
"> c #818181",
", c gray53",
"< c gray54",
"1 c #8D8D8D",
"2 c #909090",
"3 c gray58",
/* pixels */
"oOOOOOoO+OO+oO+OO+OoOOO+OoOOOOOo",
"O<2112#>2112%-2112-%3113>@2112<O",
"o-;;;;+*;;-:#%:;-:&#:--:*+;;;;-o",
"O*====+&-==-#$-==-$@===-&+====*O",
"o=--=-+&----#%-=--$#--=-&+--=-=o",
"O$%$$%+#%$%%+#%$%%@+%%$%#O%$$%$O",
".XXooX.XXooXXXXooXXXooOXoXXoOXX.",
",<<+:<,<<$-<,,1*&1<,<-#1,,<:+,<,",
">:>+;>>:>#=>>:>%%,:>>=#>:>>;+:::",
"*=*O&==*=+%=*==##=**=%@==*=&O=*=",
"---+*--=-@&---;#$---;&@-=--=+---",
"&&%O%&&&&+$&%&&@@*&%*#+&&%&%O&%&",
"OXX .XOXX...oo....oo....oO.. XXO",
"o:::::+=:::>$&>::>&$>:::=+::::;o",
"O><,,<@:<<,<%*1,,<=$<,<<;@<,,<,O",
"o*****O%***=@$=**=$@=**=%+***=&o",
"O=----+&;---#%;==-%#;=--*+----=o",
"o&*&**+$*&**@#****$@*&**$+****&O",
".XX+oo.XoOOoX.oOOoX.oOOoX.ooOoo ",
"===O*===-+%===-##==*-%+-===&O===",
"111@>2112$;2112**2112;$2111,@111",
"*=*O&==*=+$==*=##-**=%+=**=&O=**",
"---O*--=;@&----$$;--;&@----*+---",
"***+&=**=@%=**=##=**=$+=**=&O**=",
"@++XO++++Xo+@++oo++++oX++@+OXO+@",
"o$$%$$O#%%$%+@%$$%@+%%%%#O%%$$$o",
"O<2222#>2223%-3223-&3122>#21121O",
"O*====+&===-#$-==-%@-==-&+-====o",
"o=-=--+&----#%--=-%#----&+-=-==o",
"o=====O&-===@%-===$@====&+====*O",
"o#$###O@####O+###$+O$###@O$####o",
"ooooooooooOooooooooooooooooooooo"
};
