/* XPM */
static char *_acc89d1ffbf4d3be08df0a169eed01efbKi5IoSVlGd6aDU[] = {
/* columns rows colors chars-per-pixel */
"64 64 224 2 ",
"   c None",
".  c #000000",
"X  c #000D01",
"o  c #07070A",
"O  c #160204",
"+  c #001707",
"@  c #030514",
"#  c #0C1213",
"$  c #031816",
"%  c #141315",
"&  c #1C1C1C",
"*  c #191617",
"=  c #191210",
"-  c #2B0000",
";  c #251319",
":  c #251618",
">  c #300C0C",
",  c #18211C",
"<  c #28221C",
"1  c #332711",
"2  c #1A1D22",
"3  c #071624",
"4  c #221821",
"5  c #361D24",
"6  c #042929",
"7  c #1C2B28",
"8  c #04332B",
"9  c #0B3236",
"0  c #242423",
"q  c #2C2C2C",
"w  c #262928",
"e  c #322423",
"r  c #382A28",
"t  c #3A342E",
"y  c #283235",
"u  c #343A39",
"i  c #3C3C3B",
"p  c #373734",
"a  c #25302D",
"s  c #4F001A",
"d  c #412218",
"f  c #54240F",
"g  c #5A1A2C",
"h  c #610028",
"j  c #462D32",
"k  c #4A2E2F",
"l  c #672839",
"z  c #6F3728",
"x  c #28423D",
"c  c #4A4339",
"v  c #6C5020",
"b  c #1E3C42",
"n  c #4F3E44",
"m  c #6C3342",
"M  c #6B3946",
"N  c #753C4B",
"B  c #77384B",
"V  c #3D4144",
"C  c #374B54",
"Z  c #3A5258",
"A  c #4A4544",
"S  c #484846",
"D  c #544D4B",
"F  c #5D5C5C",
"G  c #575555",
"H  c #515153",
"J  c #69454D",
"K  c #7F4353",
"L  c #625D5C",
"P  c #685E59",
"I  c #6B6758",
"U  c #495661",
"Y  c #6B5E68",
"T  c #646363",
"R  c #6B6B6A",
"E  c #6C6767",
"W  c #706B69",
"Q  c #727172",
"!  c #7A7877",
"~  c #726C70",
"^  c #905200",
"/  c #A36C00",
"(  c #9E5231",
")  c #A86337",
"_  c #B26C3E",
"`  c #B16935",
"'  c #C3713A",
"]  c #853E4C",
"[  c #9B3A5A",
"{  c #903152",
"}  c #A3355B",
"|  c #AD3C63",
" . c #900A47",
".. c #834354",
"X. c #874859",
"o. c #9E435E",
"O. c #925058",
"+. c #A2435F",
"@. c #B44D5C",
"#. c #B67148",
"$. c #925D6D",
"%. c #9F4760",
"&. c #A64963",
"*. c #AA4A67",
"=. c #B5496A",
"-. c #B4526D",
";. c #BC5A6D",
":. c #BA5B75",
">. c #BD5C79",
",. c #B95673",
"<. c #B0526E",
"1. c #9A6575",
"2. c #9E7B62",
"3. c #BE627A",
"4. c #A5766D",
"5. c #C96E4E",
"6. c #C05C78",
"7. c #D77563",
"8. c #C3647C",
"9. c #E37A67",
"0. c #BC9635",
"q. c #F6821C",
"w. c #F9BB00",
"e. c #FB8A2B",
"r. c #F98D36",
"t. c #FF9937",
"y. c #FFC100",
"u. c #8B8676",
"i. c #B18D72",
"p. c #FC9948",
"a. c #C6896C",
"s. c #C2987A",
"d. c #D89A75",
"f. c #FDB27C",
"g. c #F2AA76",
"h. c #D08356",
"j. c #2E5B94",
"k. c #827783",
"l. c #9378A2",
"z. c #B37285",
"x. c #C8748C",
"c. c #CD7A92",
"v. c #CD7491",
"b. c #D47B94",
"n. c #D37792",
"m. c #C06C84",
"M. c #0489EA",
"N. c #0094F6",
"B. c #3095EF",
"V. c #88888C",
"C. c #9A9A88",
"Z. c #8B8E93",
"A. c #8D9196",
"S. c #969596",
"D. c #9B9A9A",
"F. c #929298",
"G. c #A59D89",
"H. c #97A296",
"J. c #A3A28D",
"K. c #ADA088",
"L. c #AEAE99",
"P. c #ABA996",
"I. c #B5B49D",
"U. c #B0A794",
"Y. c #9F9FA1",
"T. c #A994B0",
"R. c #A6A7A6",
"E. c #BCBBA7",
"W. c #B8A1BE",
"Q. c #B3B3B0",
"!. c #DA839B",
"~. c #D9899F",
"^. c #D0968E",
"/. c #CBB688",
"(. c #F2B98B",
"). c #DE8AA0",
"_. c #D99DA4",
"`. c #E68EAB",
"'. c #E494AC",
"]. c #EB95AF",
"[. c #EE96B1",
"{. c #ED98B2",
"}. c #F396B3",
"|. c #F39BB6",
" X c #F59EB9",
".X c #CDB5B0",
"XX c #F5A2BB",
"oX c #F9A4BD",
"OX c #F6A9BF",
"+X c #E2A6AD",
"@X c #F5C196",
"#X c #F9C59C",
"$X c #FCD69A",
"%X c #EED68A",
"&X c #C9C8B7",
"*X c #D2D0BA",
"=X c #FECCA4",
"-X c #F3CAA7",
";X c #FED4A7",
":X c #F0D4B4",
">X c #AFAACA",
",X c #9FACCE",
"<X c #FCAAC2",
"1X c #F4BCC4",
"2X c #EEBCC1",
"3X c #DED6CC",
"4X c #D2CAC3",
"5X c #FAC4CB",
"6X c #F7C2C8",
"7X c #EADCD3",
"8X c #F1D7D0",
"9X c #EAEACA",
"0X c #FBE6C3",
"qX c #EAE6D5",
"wX c #FEE3DB",
"eX c #FFE8DF",
"rX c #F4F5D5",
"tX c #FAFAD7",
"yX c #FEFDDC",
"uX c #EDF0D1",
"iX c #FFEAE2",
"pX c #E8F8E2",
"aX c #FFFFE4",
"sX c #FFFFE9",
/* pixels */
"                                                                                                                                ",
"                                                                                                                                ",
"                                                                                                                                ",
"                                                                                                                                ",
"                                                                                                                                ",
"                                                                                                                                ",
"                                                                                                                                ",
"                                                                                                                                ",
"                                                                                                                                ",
"                                                                                                                                ",
"                                                                                                                                ",
"                                                                                                                                ",
"                                                                                                                                ",
"                                                                                                                                ",
"                                                                                                                                ",
"                                                                                                                                ",
"                                                7 X $ $ . y     $ . X 7                                                         ",
"                                              E N B m N $.1.    1.$.B M Y                                                       ",
"                                            8 . } | *.,.|.XX,.-.|.|.,.+.O x                                                     ",
"                                          P 1.1._._.c.n.{.{.c.!.1X1X!.x...J G                                                   ",
"                                    9 . . X ].<XiXiX<X X X<X X<XeXeXoX`.:.[ r q                                                 ",
"                                  E 1.1.1.1.c.).1X5X X{.!.b.{. X5X5X5XOX!.m.r &                                                 ",
"                                7 j {.<X<X X| } `. X<X{.-.<.[. X].XXeXeX<X'.w $                                                 ",
"                                u H 1.z.b.b._.+X|.|.b.b.-.,.[. X|.XX5X5XoX'...m G                                               ",
"                                    8 .  .-.wXiX<X[.,.*.=.,.|. X|.XXXX|.XX].:.&.; i                                             ",
"                                    u j ^.+X6X6X).c.X...5.7.b.).|.|.!.!.|.].:.+.; p                                             ",
"                                    6 r 8XeXoX`.=.[ . > r.p.@.<.[.[.=.*.{.{.:.&.; u                                             ",
"                                  F m X.8XwX).b.9.7.j.j.#.#.<.>.[.[.3.:.[.[.:.o.; u                                             ",
"                                a t [ m.wXwX:.=.e.p.B.M.. . [ -. X X=.| |.|.:.&.; i                                             ",
"                                & 5 o.>.1X1XX...g.(.B.M.H.K.c.n.n.n.^.^.!.c.X.m ; w T                                           ",
"                                7 5 &.>.}.`.$ $ (.:XM.B.pXyXoX}.=.6.=X$X;.{ + . = o . &                                         ",
"                                V D N X.].'.4 < (.:XM.B.pXtXOX].;.-.i.i.v.x...l & & F T G                                       ",
"                                    9 . ].[.2 < (.:XM.N.pXtX<X}.6.*.. . ). X>.*.O . S.S.. @                                     ",
"                                    u > c.n.% 1 (.;X,X,X0X0X~.v.X.N M X.{.]...N L R D.Y.C.C.R                                   ",
"                                    V O &.&.@ k -X;X$X#X=X#X;.[ . X } =.|.].$ X A.Y.Z.Y.sXtXi %                                 ",
"                                      n K B % < i.^.-X=X(.g.O.M m ..^._.!.x.5 w E.*X&X&XI.J.w #                                 ",
"                                        6 . = * . . #X;Xp.e.1 o &.3.iXwX8.} 4 8 uXaXsXuX# . w q                                 ",
"                                        T F < % F E i.i._ ) k t o.:.1X2XO.l k z :X0X;X@Xc 6 L T                                 ",
"                                            i * D.D.. . @ @ . - &.>.|.`.e . z ( #X#Xt.q.f y                                     ",
"                                              H R W J.K.v v G.G.N ] b.x.5 o f z /.s.h.#.r y D                                   ",
"                                                . 1 uXyX/ / yXtXX . *.&.: o $ $ C Z Z C p w % q                                 ",
"                                              T ; p &X*X/./.*X&XR F K N q , = : n J ! ! i w % w                                 ",
"                                            i # X 6 V.R.yXaXR.F.R.S.. . * * # * s l S.Z.q . * w                                 ",
"                                            S t ( ) R ! E.E.! ! Q R Y T E T & = > k &X&X! F 0 0                                 ",
"                                            . . r.r.- . n V % + . # S.R.R.S.q # . q rXaXR.Z.p &                                 ",
"                                          R C.J.d.i.r % S S j j e r T Q Q R & % q D %X$XP.Z.q <                                 ",
"                                        0 i tXsXR.A.q . X . g g . . . . . . o < U I w.w.U.F.1 e                                 ",
"                                          D L.I.i.2.w % m m g l 2.2.: & E Y 0 < H L 0.0.Q Q D x                                 ",
"                                            . . ^ ^ . O @.<.s h =X#X1 3 T.T.. . F F U Z . &                                     ",
"                                          R C.J././.E F N ..2.a.f.f.> y .X4XJ.u.S S n S Y ~ R                                   ",
"                                        2 x tXsXsXyXQ.S.8 = #X;Xp.r.. a uXaXsXuX. . . . T.W.. ,                                 ",
"                                        % < U.I.I.P.! T & 5 g.f.' _ Y k.uXtX3X4XJ.C.! ~ ! k.C.I                                 ",
"                                        q % . . . . . O @ 1 r.r.. 6 l.>XyXaXW.W.sXyXW.l.. . rX                                  ",
"                                        F F T T T T F T G P _ ) - p 3X7XI.L.k.k.L.Q.7XqX&XL.L.u.                                ",
"                                                            b @ X j uX9X. . X . . . 9XaXsX9X@ @                                 ",
"                                                            S u u G     D V i n i G         G A                                 ",
"                                                                                                                                ",
"                                                                                                                                ",
"                                                                                                                                ",
"                                                                                                                                ",
"                                                                                                                                ",
"                                                                                                                                ",
"                                                                                                                                ",
"                                                                                                                                "
};
