/* XPM */
static char *_cf0ef13d478449fed9f0a0aeadfbe72h7ywqAnnPsqMNzU0[] = {
/* columns rows colors chars-per-pixel */
"64 64 243 2 ",
"   c None",
".  c #030101",
"X  c #0C0101",
"o  c #0C050B",
"O  c #0E0A0B",
"+  c #0A0907",
"@  c #130100",
"#  c #1A0200",
"$  c #150D04",
"%  c #110C0E",
"&  c #1A0C08",
"*  c #1C130A",
"=  c #16120D",
"-  c #0A0A14",
";  c #140C12",
":  c #190C14",
">  c #151114",
",  c #1A1415",
"<  c #1D151A",
"1  c #1C1A1B",
"2  c #1B1916",
"3  c #091114",
"4  c #230C05",
"5  c #271405",
"6  c #371A0B",
"7  c #221C1D",
"8  c #261916",
"9  c #301C11",
"0  c #2A221A",
"q  c #372718",
"w  c #1D1B21",
"e  c #221D22",
"r  c #271F25",
"t  c #252324",
"y  c #2A2524",
"u  c #2C252B",
"i  c #2D2B2C",
"p  c #26262B",
"a  c #322D2E",
"s  c #342827",
"d  c #3B332B",
"f  c #37332A",
"g  c #2C2D31",
"h  c #322F30",
"j  c #333233",
"k  c #393434",
"l  c #3C3935",
"z  c #3B353B",
"x  c #3C3A3A",
"c  c #31363C",
"v  c #1B242B",
"b  c #5C350D",
"n  c #4C2914",
"m  c #4A381E",
"M  c #553B1B",
"N  c #522D1B",
"B  c #663D1C",
"V  c #453323",
"C  c #4B3A26",
"Z  c #44352A",
"A  c #4C3C2D",
"S  c #473729",
"D  c #523E2C",
"F  c #573B28",
"G  c #4C3B31",
"H  c #413C3D",
"J  c #453B36",
"K  c #533E35",
"L  c #422E2C",
"P  c #603E23",
"I  c #3C433D",
"U  c #724A1D",
"Y  c #4A402D",
"T  c #5C4224",
"R  c #53432B",
"E  c #5B432C",
"W  c #5D4924",
"Q  c #44433C",
"!  c #4B4138",
"~  c #554434",
"^  c #5C4433",
"/  c #5A4937",
"(  c #58503B",
")  c #644A2C",
"_  c #664728",
"`  c #764728",
"'  c #6A5029",
"]  c #644E38",
"[  c #744A37",
"{  c #6C5434",
"}  c #63523B",
"|  c #655436",
" . c #77583A",
".. c #785628",
"X. c #6C532B",
"o. c #363B41",
"O. c #433D43",
"+. c #3D4744",
"@. c #25435F",
"#. c #2B5470",
"$. c #444344",
"%. c #4A4546",
"&. c #46454A",
"*. c #4A454A",
"=. c #4B4A4A",
"-. c #474B49",
";. c #544A48",
":. c #4C4B52",
">. c #4A4654",
",. c #534955",
"<. c #555354",
"1. c #5B5455",
"2. c #5C5B5B",
"3. c #59575A",
"4. c #535751",
"5. c #685645",
"6. c #735B43",
"7. c #785845",
"8. c #655A59",
"9. c #6F564D",
"0. c #5E605D",
"q. c #78654C",
"w. c #67645C",
"e. c #7B6958",
"r. c #716C56",
"t. c #615D64",
"y. c #695C63",
"u. c #646264",
"i. c #6A6669",
"p. c #6C6B6B",
"a. c #696867",
"s. c #716C6E",
"d. c #766B66",
"f. c #6D746C",
"g. c #76736C",
"h. c #6F6C72",
"j. c #736E72",
"k. c #756876",
"l. c #6D787A",
"z. c #737172",
"x. c #7A7776",
"c. c #87573B",
"v. c #975838",
"b. c #94512B",
"n. c #85633D",
"m. c #9A6638",
"M. c #8B612F",
"N. c #A7663C",
"B. c #AD6734",
"V. c #A3552E",
"C. c #875B46",
"Z. c #845C53",
"A. c #83654D",
"S. c #846B4D",
"D. c #8A6D4B",
"F. c #876846",
"G. c #976248",
"H. c #89714D",
"J. c #846C54",
"K. c #866B55",
"L. c #996B56",
"P. c #897358",
"I. c #997959",
"U. c #A56C47",
"Y. c #A87458",
"T. c #B97955",
"R. c #AC7149",
"E. c #8A7865",
"W. c #937A68",
"Q. c #887875",
"!. c #AB7D64",
"~. c #C87B5A",
"^. c #7E8279",
"/. c #B48357",
"(. c #AD815A",
"). c #9B8466",
"_. c #838279",
"`. c #998778",
"'. c #A88A68",
"]. c #A68874",
"[. c #B69776",
"{. c #B08E6F",
"}. c #C8935A",
"|. c #D89359",
" X c #D98B4B",
".X c #CF9466",
"XX c #EEAE6E",
"oX c #E19D61",
"OX c #326994",
"+X c #2874AF",
"@X c #286094",
"#X c #8C8C8C",
"$X c #878684",
"%X c #999796",
"&X c #949190",
"*X c #B99C89",
"=X c #A69B95",
"-X c #A99789",
";X c #BAA283",
":X c #AAA59A",
">X c #B1A79C",
",X c #A4A3A3",
"<X c #ACABAC",
"1X c #A9A4A7",
"2X c #B4A9A7",
"3X c #B8B5AB",
"4X c #B4B3B2",
"5X c #BBBCBC",
"6X c #B9B8B7",
"7X c #B0B0B1",
"8X c #A19F9E",
"9X c #C2A684",
"0X c #D3BB9B",
"qX c #D5AF8C",
"wX c #C5B5AB",
"eX c #C2BAB8",
"rX c #D0BFB7",
"tX c #DAAA8A",
"yX c #B9C0B9",
"uX c #FDC589",
"iX c #E7C89A",
"pX c #FBC897",
"aX c #FFD39F",
"sX c #C9C7BA",
"dX c #CFCDB4",
"fX c #E9CAA4",
"gX c #F9C8A4",
"hX c #F1D5AD",
"jX c #BABBC4",
"kX c #C5BEC1",
"lX c #B9C4C3",
"zX c #C9C7C5",
"xX c #DAD8D7",
"cX c #D3D3C5",
"vX c #E7E2CD",
"bX c #E9E8D9",
"nX c #FDFBD9",
"mX c #FCF1C9",
"MX c #CDECEA",
"NX c #FCFCE4",
"BX c #FAFAF6",
"VX c #ECE4E7",
"CX c #E0DFD7",
/* pixels */
"                                        zXzXlXlX7XbX    rX6XjXjXjXjXjX5XyXyXyXyX                                                ",
"                                      BXi.. . . . 3X    H . . . . o . . . . . . X                                               ",
"                                        Q.X d d . dX    1.+ s 0 0 0 0 0 9 0 q s X                                               ",
"                              z.g.z.l.f.&X*XW.C V 8.x.z.a . V e.6.I.[.`.e.K.} ~ ! p.a.                                          ",
"                              + . . . . ].;X{.) } 0 . . X X Y P.H.].9X[.A.K.7.E / + . a.                                        ",
"                              ! I f y = ].[.'.N ~ S J ! Z V R 6.| ).[.'.I.I.A.) | m $ r.                                        ",
"                          . 7 d.d.5.X *  .K.7.4 X 5.P.q.J.P.q.X $ } S.I.{.[.'.F.F.{ R Y X X                                     ",
"                          . . r.P.} X @ q.K.A.4 @ } H.S.F.S.( X X r.K.H.9X9X'.n.H.' ) R q X                                     ",
"                              ;.~ } 5.5.{ 6.] 5 @ K 7.' '.'.)./ } / / } P.P.D.n.D.' _ T K 9 Q.                                  ",
"                              d @ ^ P.e.| / F # @ S _ _ [.9X'.J.P.D @ X C C [ H.H.' M ) F } 8 X +                               ",
"                              J X ^ J.e.} ~ ^ 6 6 F T T '..X'.F.H.T 4 q } ^ 6.S.A.' _ ) R ( l 7 l                               ",
"                              J X m ] ] q X N A.F.[ ' ' P.J.I.[.[.I.q.q.9 5 9 q 5 q.S.q.5 9 8 X y                               ",
"                              l X Z ) E q @ n c.c.b.b b n.H.(.;X9X).F.S.@ @ X X #  .P.q.X @ . @ 8                               ",
"                              Q X S _ T q X T [.}.R.V.m.n.X.H.).I.D. .q.T ^ R R F 5.9.} Y ~ R R /                               ",
"                              k . S _ _ q + J.gXuXXX|.|...B C X @ V E ) q.H.H.P.J.Z X S J.J.J.J.e.. X                           ",
"                              l . Z ) ' q @  .pXuXXX|.oX..) G X X A / } H.S.q.q.d.A X V K.J.S.J.e.& .                           ",
"                              l . 0 G q C.` U.pXuX.XU c.m q G 9.9.K 8 Z G Y Y Y G A M P [ 6.^ S !                               ",
"                              I + . . # 7.v.T.pXpX(.@ . . . A J.J.F @ @ @ X . X X F ' _ ) ) q X 8                               ",
"                              j . +.i.8.Z.c.T.tXpX].- @.4.r. .H.H.E @ q ) { K @ & F ) W D ~ C 5 d                               ",
"                              =..       Q.4 B /.!.Q.@XOXMXnXhXX.H.{ R  .fXfX*X@ 9 F W M 5 @ m / ! l +                           ",
"                              . .       Q.X ` Y.I.k.@X+XMXnXiXU m...M  .fXhX;X@ q Y | R $ . S ( ;.. . $X                        ",
"                                        Q.. _ tXqX#X+X+XMXnXaX(./.M.W ' '.*X`.X 5 q C d ; O f d J                               ",
"                                        Q.@ C.gXhX,X+X+XMXnXaX/.oXm.b W $ X X 8 8 $ X $ > > * X 0                               ",
"                                        _.@ C.gXfX:X#.#.vXmXaX}.oXm.W W 4 , . . . X . o > ; . o .                               ",
"                                        ^.X C.gXpXiX0X0XXXXXoXB.R.' # ( 1X:X6XvXxX3X1X%Xw . 7XVX                                ",
"                                        ^.X F.gXpXpXuXuX X X XV.m.n @ s 3X3XcXNXBXsXsX<Xw . zX                                  ",
"                                        Q.X Z.0XqX0XuXuX|.|.T.C.7.9.2.d.dXdXdXbXbX6X=X%Xp o 1XVXxX                              ",
"                                        $Xy J X . {.uXuXB.v.[ # @ =X4XeXmXnXcX:X3Xu.f Q -.-.v . .                               ",
"                                        #Xh &.. . ;XgXpXB.v.7.@ . 1X6XeXnXnXvXyX5Xg.f H $.-.h - h VX                            ",
"                                    4X7X0.. ,.#X&X`.'./.N.G.7.d u x.&X%X:X>X%Xx.#Xa.8.w.0.u.>.g +.,X1X                          ",
"                              . . . X @ > . t.jXyX^.X @ v.N.7.~ ;.8.p.8.3 3 v I p u.k.k.j.h.i.+.+.. . #X                        ",
"                              &.w H 1.%.f . <.6XyX_.0 ( C.L.7.Y K y.s.i.3.>.:.+.:.y.k.k.s.x.:.-.-.x . &X                        ",
"                          t <.$.$.z : 8 1 . 3.4X7XcXmXvXwXwX-Xf *.z s s 7 e e w ; t.h.k.j.j.3.$.&.i . %X                        ",
"                          . > $.-.g X : > . 3.jX2XvXNXNX6X7X%XI *.; X . . . o ; o u.l.i.a.k.t.$.%.y . &X                        ",
"                          . x =.2.&.r s e . 3.4X4XsXdXsXcXzX3X2 l 0.z.a.$.x h : - 3.u.u.i.i.,.$.+.h . &X                        ",
"                          . k a.h.t.%.*.i X 1.eX3X$X4.w.bXBXsX. . %XlX7Xf.x.2.. ; $.+.$.+.$.&.*.$.z . %X                        ",
"                          + c p.k.t.$.&.u o 1.wXwX=Xw.g.vXNXsXX . %XjX<Xf.f.4.. ; z *.=.*.&.*.%.$.. . #X                        ",
"                          . a <.3.4.$.%.u @ F ].].q.Z ( vXNXcXX + p.#X$X2.4.;.z k H k k O.:.H 0 j zXxX                          ",
"                          . . $.Q I +.-.p X n c.v.F X X vXNXsX. 1 1.k.t.*.O.&.&.,.k r k >.:.a . t BX                            ",
"                          =.0.Q Q I +.+.u @ N c.F._ n F dXmXdXX * 8.k.k.*.*.O.&.O.a s z O.O.k = a xX                            ",
"                              $.t g p p e : 4 9 # C.T.T.N.N.[ # & H ,.O.O.,.o.g h < : < e o h %.$.z . %X                        ",
"                              . . . . o . < : < # Z..XT.V.b.[ # X l ,.O.>.*.O.j h e @ ; : o O.$.I + . $X                        ",
"                                      <X3.. < : # 5.L.G.!.*XQ.8 a J O.o.o.c g e 0 2 ; < e o a j H ,X1X                          ",
"                                        ^.o L 8 : L G K 2XkX=Xz / q @ : - 3 + & $ & 1 3 < y 1 + i                               ",
"                                        h.. . . o y H H 4XeX,XL ^ 6 # o . o o 4 @ $ > + + . . . .                               ",
"                                                  zX%X1Xk.y.d.L.Y.U.Y.W.=X=XW.[ A.m . a.xXVX                                    ",
"                                                    jXjXy.9 C.{.~.~.~.!.eXrX9XC.G.F . l.                                        ",
"                                                    &X1X1.G  .L.U.Y.Y.!.=X>X!.C.G.G . l.                                        ",
"                                                    . 1 %.! J @ @ 9.d.r.Q l J ~ ! s . z.                                        ",
"                                                    . i H <.z , . 2.j.p.%.&.=.&.%.j . z.                                        ",
"                                                    . i l =.k > . 2.j.a.%.%.%.&.&.i . j.                                        ",
"                                                    . h &.$.H % . 2.z.a.&.$.%.$.%.i . z.                                        ",
"                                                    . y l *.H = o 3.s.u.*.%.%.*.%.i . z.                                        ",
"                                              $.<.x + 7 7 1 < > . x <.;.$.$.%.Q -.i . z.                                        ",
"                                              . . . . . % + ; > % z %.%.%.=.=.=.=.i . z.                                        ",
"                                              1 h O.$.H u 7 < , O h J x J z z $.x i . u.                                        ",
"                                        z.. . %.$.u.s.z.l i y > : ; > o % . < a i i a 1 . .                                     ",
"                                          . x =.$.8.z.s.H u a + % + . + % , t a i h i i x .                                     ",
"                                          . i g i x &.x i t h k k ;.2.3.i u 7 7 1 i i t i . 5X                                  ",
"                                          . . . . . . . . . % <.%.i.x.j.a j 0 % 3 y j p t . zX                                  ",
"                                          =.0.2.2.8.2.2.3.u.<.x x 4.p.u.i i t O > t y t g . 6X                                  ",
"                                                              . x a i i y i g p t i i i k . zX                                  ",
"                                                            xX. . . . . . . . . . . . . + . 5X                                  ",
"                                                              ,X<X<X<X<X<X<X1X<X<X<X1X1X7X,XxX                                  "
};
