/* XPM */
static char *result[] = {
/* columns rows colors chars-per-pixel */
"32 32 148 2 ",
"   c #161617",
".  c #1C1B1B",
"X  c #221F1F",
"o  c #25231E",
"O  c #2B291F",
"+  c #221322",
"@  c #241A24",
"#  c #2A1E24",
"$  c #242120",
"%  c #2C2224",
"&  c #2B2923",
"*  c #28252B",
"=  c #2F2A28",
"-  c #312E21",
";  c #34252B",
":  c #302E28",
">  c #333023",
",  c #393524",
"<  c #3C332B",
"1  c #3E3928",
"2  c #2F2B3A",
"3  c #332934",
"4  c #353336",
"5  c #3D3732",
"6  c #3A383F",
"7  c #40392D",
"8  c #483B2F",
"9  c #41352A",
"0  c #463337",
"q  c #453D35",
"w  c #4D383A",
"e  c #454130",
"r  c #4B403A",
"t  c #4A4232",
"y  c #584E31",
"u  c #52433C",
"i  c #544A39",
"p  c #5E5235",
"a  c #5D5739",
"s  c #54523C",
"d  c #645A35",
"f  c #6B5D35",
"g  c #685738",
"h  c #6B5E38",
"j  c #66613D",
"k  c #6B623B",
"l  c #7A6C3B",
"z  c #77703D",
"x  c #3F3B40",
"c  c #413D43",
"v  c #454146",
"b  c #514B51",
"n  c #5A575F",
"m  c #5D5B5F",
"M  c #5D5D54",
"N  c #706945",
"B  c #7D7746",
"V  c #7E764A",
"C  c #565368",
"Z  c #5B646D",
"A  c #60666F",
"S  c #696C6F",
"D  c #6A636A",
"F  c #6E726E",
"G  c #666D72",
"H  c #6D7175",
"J  c #6D747A",
"K  c #717171",
"L  c #7C7C7C",
"P  c #87753F",
"I  c #827441",
"U  c #8C7D45",
"Y  c #907C43",
"T  c #8C716B",
"R  c #99796B",
"E  c #8D7F70",
"W  c #977E72",
"Q  c #8D8246",
"!  c #938446",
"~  c #9B8A4B",
"^  c #9C924D",
"/  c #A18B48",
"(  c #A5954D",
")  c #AA964C",
"_  c #A7994F",
"`  c #A9994F",
"'  c #A79750",
"]  c #A79951",
"[  c #A99C53",
"{  c #ADA155",
"}  c #B3A454",
"|  c #B8A755",
" . c #B5A856",
".. c #BFAD57",
"X. c #BFAF58",
"o. c #B5AA5A",
"O. c #BEB25B",
"+. c #9F8274",
"@. c #A08375",
"#. c #AF8F7E",
"$. c #C2B35B",
"%. c #C7B85D",
"&. c #C8BA5E",
"*. c #CCBE60",
"=. c #CFC263",
"-. c #D1C463",
";. c #D6CA66",
":. c #D9CC67",
">. c #DBCF68",
",. c #DDD26A",
"<. c #85749C",
"1. c #7F8081",
"2. c #7C868F",
"3. c #8F9290",
"4. c #999999",
"5. c #8E87A8",
"6. c #8995A2",
"7. c #959EAA",
"8. c #A68EA9",
"9. c #9EA2A7",
"0. c #AEADAD",
"q. c #A1A3A5",
"w. c #AFB4B9",
"e. c #B2B4B8",
"r. c #B8B9B9",
"t. c #D0A78C",
"y. c #DBB49D",
"u. c #C7AEA5",
"i. c #CBB2A4",
"p. c #B6BFC7",
"a. c #BABDC0",
"s. c #BCC9D7",
"d. c #C1C2C3",
"f. c #C0CDD8",
"g. c #C3CBD2",
"h. c #CCD2D6",
"j. c #D1D3D4",
"k. c #D6DADD",
"l. c #DCDDDC",
"z. c #D1DBE4",
"x. c #D9E0E7",
"c. c #DDE5EB",
"v. c #E3E8ED",
"b. c #E8ECEF",
"n. c #EEF1F2",
"m. c #F6F6F6",
"M. c #FBFBFB",
"N. c None",
/* pixels */
"N.N.N.N.N.N.N.N.N.N.N.N.N.N.N.N.N.N.N.N.N.N.N.N.N.N.N.N.N.N.N.N.",
"N.N.N.N.N.N.N.N.N.N.N.N.N.N.N.N.N.N.N.N.N.N.N.N.N.N.N.N.N.N.N.N.",
"N.N.N.N.N.N.N.N.N.N.N.N.N.N.N.N.N.N.N.N.N.N.N.N.N.N.N.N.N.N.N.N.",
"N.N.N.N.N.N.N.N.N.N.N.N.N.N.N.N.N.N.N.N.N.N.N.N.N.N.N.N.N.N.N.N.",
"N.N.N.N.N.N.N.N.N.N.N.N.N.N.N.N.N.N.N.N.N.N.N.N.N.N.N.N.N.N.N.N.",
"N.N.N.N.N.N.N.N.N.N.N.N.N.N.N.N.N.N.N.N.N.N.N.N.N.N.N.N.N.N.N.N.",
"N.N.N.N.N.N.N.N.N.N.N.N.N.N.N.N.N.N.N.N.N.N.N.N.N.N.N.N.N.N.N.N.",
"N.N.N.N.N.N.N.N.N.N.N.N.N.N.N.N.N.N.N.N.N.N.N.N.N.N.N.N.N.N.N.N.",
"N.N.N.N.N.N.N.N.N.N.N.N.N.N.N.N.N.N.N.N.N.N.N.N.N.N.N.N.N.N.N.N.",
"N.N.N.N.N.N.N.N.N.N.N.N.N.N.N.N.N.N.# % % % % # # N.N.N.N.N.N.N.",
"N.N.N.N.N.N.N.N.N.N.N.N.N.N.N.N.. o f Q ^ ^ ^ U d % N.N.N.N.N.N.",
"N.N.N.N.N.N.N.N.N.N.N.N.N.@ @ ; h I ` %.;.,.:.-.` g # N.N.N.N.N.",
"N.N.N.N.N.N.N.N.N.N.N.N.9 f f l ( $.*.;.,.,.,.,.*.U o N.N.N.N.N.",
"N.N.N.N.N.N.N.N.+ + + 8 I | ..*.&.$.$.&.-.>.,.-.&.} h ; N.N.N.N.",
"N.N.N.N.N.N.N.D L J A M k z Q =.;.&.%.&.;.,.>.*.%.*.! = N.N.N.N.",
"N.N.N.N.N.N.K d.x.s.6.Z G J F B $.;.;.,.,.,.,.>.>.-.! % N.N.N.N.",
"N.N.N.N.N.@ q.v.z.9.Z 2.s.z.s.+.V } $.&.-.;.>.,.:.=._ p N.N.N.N.",
"N.N.N.N.N.n e.x.v.L G z.c.f.9.3.i Y ) } X.*.:.*.X.%.$.` p N.N.N.",
"N.N.N.N.m r.v.n.m.4.1.r.r.3.b d Y / ) } %.>.;._ P } %.%.` , N.N.",
"N.N.N.3 d.M.m.m.m.h.G : e j O.-.;.-.*.-.:.>.O.j , l ! (  .1 N.N.",
"N.N.N.b j.M.m.n.k.H & a } | ) [ | -.:.;.O.{ N 4 5 < $ , Q 1 N.N.",
"N.N.4 0.l.l.j.s.J & j _ ) P 8 7 1 Q _ ( N e C 5.u.+.@ . & N.N.N.",
"N.N.@ 6 v v c 6 * y ~ z - y 4.@.; O - > E u.u.8.<.R % N.N.N.N.N.",
"N.N.N.N.N.N.N.N.N., 1 O   O w q X       W y.t.T 2 0 N.N.N.N.N.N.",
"N.N.N.N.N.N.N.N.N.N.N.N.N.N.N.N.N.N.N.N.u u u w N.N.N.N.N.N.N.N.",
"N.N.N.N.N.N.N.N.N.N.N.N.N.N.N.N.N.N.N.N.N.N.N.N.N.N.N.N.N.N.N.N.",
"N.N.N.N.N.N.N.N.N.N.N.N.N.N.N.N.N.N.N.N.N.N.N.N.N.N.N.N.N.N.N.N.",
"N.N.N.N.N.N.N.N.N.N.N.N.N.N.N.N.N.N.N.N.N.N.N.N.N.N.N.N.N.N.N.N.",
"N.N.N.N.N.N.N.N.N.N.N.N.N.N.N.N.N.N.N.N.N.N.N.N.N.N.N.N.N.N.N.N.",
"N.N.N.N.N.N.N.N.N.N.N.N.N.N.N.N.N.N.N.N.N.N.N.N.N.N.N.N.N.N.N.N.",
"N.N.N.N.N.N.N.N.N.N.N.N.N.N.N.N.N.N.N.N.N.N.N.N.N.N.N.N.N.N.N.N.",
"N.N.N.N.N.N.N.N.N.N.N.N.N.N.N.N.N.N.N.N.N.N.N.N.N.N.N.N.N.N.N.N."
};
