/* XPM */
static char *result[] = {
/* columns rows colors chars-per-pixel */
"32 32 186 2 ",
"   c #1D1C1D",
".  c #161418",
"X  c #1E1E20",
"o  c #231525",
"O  c #271828",
"+  c #242424",
"@  c #2A2A22",
"#  c #2B2A2C",
"$  c #29242A",
"%  c #312C2B",
"&  c #303427",
"*  c #36332D",
"=  c #3C342D",
"-  c #2C2A32",
";  c #372C32",
":  c #323133",
">  c #3C3C3D",
",  c #3B3537",
"<  c #433A2A",
"1  c #402D3C",
"2  c #4A3733",
"3  c #453E32",
"4  c #473939",
"5  c #4A432E",
"6  c #45402C",
"7  c #544B2D",
"8  c #4A4431",
"9  c #494538",
"0  c #554C30",
"q  c #524732",
"w  c #45583E",
"e  c #5A5433",
"r  c #615535",
"t  c #655B39",
"y  c #7F6C39",
"u  c #746D3E",
"i  c #627D3F",
"p  c #2A2A4C",
"a  c #3C3845",
"s  c #2F3352",
"d  c #3F3C57",
"f  c #423B48",
"g  c #434343",
"h  c #44454A",
"j  c #49454F",
"k  c #474B4E",
"l  c #4C4747",
"z  c #445040",
"x  c #4E4D54",
"c  c #4F5255",
"v  c #58585A",
"b  c #60594A",
"n  c #6D5754",
"m  c #58614D",
"M  c #716540",
"N  c #7D7648",
"B  c #6B6759",
"V  c #71615A",
"C  c #6A7C58",
"Z  c #757455",
"A  c #585C63",
"S  c #6A646D",
"D  c #696B6B",
"F  c #6B6A68",
"G  c #776C66",
"H  c #6D7170",
"J  c #75797D",
"K  c #7B7C7C",
"L  c #797675",
"P  c #90793E",
"I  c #836943",
"U  c #887846",
"Y  c #846E65",
"T  c #887869",
"R  c #6D8544",
"E  c #7A924A",
"W  c #7B9A49",
"Q  c #729453",
"!  c #7F986E",
"~  c #8D844B",
"^  c #948A4C",
"/  c #93874B",
"(  c #9F944F",
")  c #938C50",
"_  c #9F9555",
"`  c #A7944C",
"'  c #AA9651",
"]  c #AF9D52",
"[  c #A79856",
"{  c #B39F51",
"}  c #87A74E",
"|  c #83A354",
" . c #92B152",
".. c #A6AE55",
"X. c #A9A058",
"o. c #B5A555",
"O. c #BBAA56",
"+. c #BCAD5A",
"@. c #B5A657",
"#. c #978E66",
"$. c #9E996B",
"%. c #8C837A",
"&. c #958C7D",
"*. c #AB9E7E",
"=. c #A8897A",
"-. c #B9AC66",
";. c #AEA373",
":. c #B3A77C",
">. c #BAB071",
",. c #C4B55B",
"<. c #C9BA5E",
"1. c #C5BA5F",
"2. c #C6AF67",
"3. c #CBBE61",
"4. c #C8BC67",
"5. c #C9BB71",
"6. c #CEC061",
"7. c #CEC26C",
"8. c #D3C664",
"9. c #DBCE6A",
"0. c #575A81",
"q. c #695C87",
"w. c #727D8B",
"e. c #6B6E98",
"r. c #6870A5",
"t. c #797DB7",
"y. c #7C8786",
"u. c #7783A3",
"i. c #83878C",
"p. c #898B8D",
"a. c #8B8C93",
"s. c #82879C",
"d. c #8E9396",
"f. c #94989D",
"g. c #9C9C9C",
"h. c #A68F83",
"j. c #A59E83",
"k. c #A29D8D",
"l. c #BA9787",
"z. c #B29186",
"x. c #A7989B",
"c. c #9AAF88",
"v. c #ABA29B",
"b. c #BDAB9B",
"n. c #898BA9",
"m. c #9C88AF",
"M. c #8B96A1",
"N. c #979EA8",
"B. c #8187B6",
"V. c #8B97BD",
"C. c #A293B6",
"Z. c #9BA3AA",
"A. c #99A4B5",
"S. c #A1A0A1",
"D. c #BCACA3",
"F. c #B3A3A4",
"G. c #A4AEB9",
"H. c #BAAFBA",
"J. c #ADB3B8",
"K. c #B7B8BA",
"L. c #D2AF8F",
"P. c #C4B68F",
"I. c #DBBEAC",
"U. c #C5B4A7",
"Y. c #D8C388",
"T. c #C7C89F",
"R. c #E6CB85",
"E. c #D5C8A8",
"W. c #D7C2BE",
"Q. c #E8CABA",
"!. c #F0C7B1",
"~. c #F5D5BF",
"^. c #B5BCC4",
"/. c #BABFC3",
"(. c #B1BDCC",
"). c #B5BAD2",
"_. c #CBCCCD",
"`. c #C6C6C7",
"'. c #CDD4DA",
"]. c #D2D6DB",
"[. c #D9DBDD",
"{. c #D3DAE1",
"}. c #D9DEE4",
"|. c #DFE5EB",
" X c #E9EEF2",
".X c None",
/* pixels */
".X.X.X.X.X.X.X.X.X.X.X.X.X.X.X.X.X.X.X.X.X.X.X.X.X.X.X.X.X.X.X.X",
".X.X.X.X.X.X.X.X.X.X.X.X.X.X.X.X.X.X.X.X.X.X.X.X.X.X.X.X.X.X.X.X",
".X.X.X.X.X.X.X.X.X.X.X.X.X.X.X.X.X.XO o O .X.X.X.X.X.X.X.X.X.X.X",
".X.X.X.X.X.X.X.X.X.X.X.X.X.X.X. .X< e t r % .X.X.X.X.X.X.X.X.X.X",
".X.X.X.X.X.X.X.X.X.X.X.X.X.X2 7 e U { O.` @ o .X.X.X.X.X.X.X.X.X",
".X.X.X.X.X.X.X.X.X.X.X.X.X< P ] O.,.<.8.+.0 8 .X.X.X.X.X.X.X.X.X",
".X.X.X.X.X.X.X.X.X.X.X.Xa U O.<.1.<.8.9.,.` [ r .X.X.X.X.X.X.X.X",
".X.X.X.X.X.X.X.X.X.X.X- e.&.-.1.O.O.8.9.2.' o.] q .X.X.X.X.X.X.X",
".X.X.X.X.X.X.X.X.X.X.X# u.B.j.>.[ O.3.5.L.P P o.e .X.X.X.X.X.X.X",
".X.X.X.X.X.X.X.X.X.X.X$ e.V.A.n.j.3.) b b.3 y O.e .X.X.X.X.X.X.X",
".X.X.X.X.X.X.X.X.X.X.X* #.n.t.k.7.[ * l v.< P { e .X.X.X.X.X.X.X",
".X.X.X.X.X.X.X.X.X.X< ^ ,.>.;.4.,.:.s.0.F.2 / b .X.X.X.X.X.X.X.X",
".X.X.X.X.X.X.X.X.X4 U 6.6.1.{ 1.+.P.).r.D.* 3 4 .X.X.X.X.X.X.X.X",
".X.X.X.X.X.X.X.X< U 6.4.u e q ( 6.Y.W.H.U.; .X.X.X.X.X.X.X.X.X.X",
".X.X.X.X.X.X.X.X< +.4.N H J J Z ;.R.!.E.T a .X.X.X.X.X.X.X.X.X.X",
".X.X.X.X.X.X.X.X8 @.N D '. X|.f.$.7.j.T S .X.X.X.X.X.X.X.X.X.X.X",
".X.X.X.X.X.X.X.X8 ) g K.K.K.[.|.E...i m p.a .X.X.X.X.X.X.X.X.X.X",
".X.X.X.X.X.X.X.X8 ~ 9 Z.> 4 g.[.T... .E 9 .X.X.X.X.X.X.X.X.X.X.X",
".X.X.X.X.X.X.X.X8 M + : $ =.V p.c.}  . .E @ .X.X.X.X.X.X.X.X.X.X",
".X.X.X.X.X.X.X.X.X+ : w.> l.I.F w Q } W R @ .X.X.X.X.X.X.X.X.X.X",
".X.X.X.X.X.X.X.X.X.Xa A.a l.Q.B s u.y.& & .X.X.X.X.X.X.X.X.X.X.X",
".X.X.X.X.X.X.X.X.X.Xl J.9 z.m.d w ! C   o .X.X.X.X.X.X.X.X.X.X.X",
".X.X.X.X.X.X.X.X.Xj Z._.f q.C.x.B N #., Y = .X.X.X.X.X.X.X.X.X.X",
".X.X.X.X.X.X.X.X.Xx [.[.> p F.~.G V h.% n .X.X.X.X.X.X.X.X.X.X.X",
".X.X.X.X.X.X.X.Xf a.].p.: c L T 9 G v.o .X.X.X.X.X.X.X.X.X.X.X.X",
".X.X.X.X.X.X.X.Xk ]._.% + M.y.F > D f.  .X.X.X.X.X.X.X.X.X.X.X.X",
".X.X.X.X.X.X.X.Xk ]._.: h G.{.|.J A N.v .X.X.X.X.X.X.X.X.X.X.X.X",
".X.X.X.X.X.X.X.Xj /._.g A.^.(.(.y.K `.g.- .X.X.X.X.X.X.X.X.X.X.X",
".X.X.X.X.X.X.X.X.XS S.> d.c i././.K ; ; O .X.X.X.X.X.X.X.X.X.X.X",
".X.X.X.X.X.X.X.X.X.X# X $   + : : + o .X.X.X.X.X.X.X.X.X.X.X.X.X",
".X.X.X.X.X.X.X.X.X.X.X.X.X.X.X.X.X.X.X.X.X.X.X.X.X.X.X.X.X.X.X.X",
".X.X.X.X.X.X.X.X.X.X.X.X.X.X.X.X.X.X.X.X.X.X.X.X.X.X.X.X.X.X.X.X"
};
