/* XPM */
static char *result[] = {
/* columns rows colors chars-per-pixel */
"32 32 194 2 ",
"   c #0F0E12",
".  c #141411",
"X  c #21171B",
"o  c #1D290F",
"O  c #262517",
"+  c #342A18",
"@  c #1C1E2F",
"#  c #291726",
"$  c #371634",
"%  c #341933",
"&  c #391837",
"*  c #1F262D",
"=  c #2B2726",
"-  c #352525",
";  c #2C2933",
":  c #383637",
">  c #3A312F",
",  c #523E34",
"<  c #4A2F32",
"1  c #284C14",
"2  c #375C15",
"3  c #3E7F2C",
"4  c #5E5E1E",
"5  c #54481C",
"6  c #675E1A",
"7  c #4D771A",
"8  c #577C1B",
"9  c #6A6919",
"0  c #7D731B",
"q  c #54413A",
"w  c #574738",
"e  c #5B4F25",
"r  c #624A27",
"t  c #685428",
"y  c #645537",
"u  c #7E6D27",
"i  c #746234",
"p  c #1F1C48",
"a  c #211E49",
"s  c #341549",
"d  c #361F59",
"f  c #25234B",
"g  c #282C42",
"h  c #343354",
"j  c #282B75",
"k  c #521A46",
"l  c #4C3B5A",
"z  c #583A59",
"x  c #423A43",
"c  c #3C4254",
"v  c #494647",
"b  c #494B58",
"n  c #584A4E",
"m  c #654C4F",
"M  c #655742",
"N  c #735448",
"B  c #655955",
"V  c #705C5A",
"C  c #53654F",
"Z  c #6A6C4F",
"A  c #676356",
"S  c #73645E",
"D  c #7F7547",
"F  c #5A5A63",
"G  c #655669",
"H  c #73576E",
"J  c #5A6D73",
"K  c #5F6B6D",
"L  c #656867",
"P  c #766968",
"I  c #6A7167",
"U  c #71776D",
"Y  c #686973",
"T  c #736A72",
"R  c #607373",
"E  c #877A1D",
"W  c #8E7B24",
"Q  c #967A26",
"!  c #A76E3B",
"~  c #9A745A",
"^  c #81675A",
"/  c #836E68",
"(  c #9A7465",
")  c #877F78",
"_  c #85786F",
"`  c #A77B65",
"'  c #3A8B1D",
"]  c #5B9E1B",
"[  c #6EAD1C",
"{  c #67AB1F",
"}  c #4B8940",
"|  c #579843",
" . c #4E8158",
".. c #5D9A5A",
"X. c #799F53",
"o. c #8E881F",
"O. c #978424",
"+. c #9D9225",
"@. c #A89926",
"#. c #B89A29",
"$. c #B9993C",
"%. c #AD8D2E",
"&. c #84BB20",
"*. c #BBA72D",
"=. c #CBB42D",
"-. c #CDB92F",
";. c #D5BF2B",
":. c #C0A639",
">. c #D4BF38",
",. c #C9B034",
"<. c #D4C12F",
"1. c #D8C82F",
"2. c #D6C331",
"3. c #DBCB32",
"4. c #D8C631",
"5. c #E3D635",
"6. c #E0CD33",
"7. c #92A85F",
"8. c #BCAA4F",
"9. c #8C8269",
"0. c #918B74",
"q. c #A7937D",
"w. c #AF846B",
"e. c #8FAE61",
"r. c #9AA461",
"t. c #A7A178",
"y. c #484291",
"u. c #515194",
"i. c #57669A",
"p. c #667298",
"a. c #4E4AB7",
"s. c #5651BF",
"d. c #7768A6",
"f. c #6966BF",
"g. c #5A56C1",
"h. c #6B67C4",
"j. c #7570C5",
"k. c #897AAC",
"l. c #7B8581",
"z. c #7D8C88",
"x. c #7D8C90",
"c. c #7F8DB6",
"v. c #888B87",
"b. c #958C83",
"n. c #9F9087",
"m. c #808F93",
"M. c #9D9E9F",
"N. c #B69687",
"B. c #9B8CBE",
"V. c #9A9AB5",
"C. c #8183B7",
"Z. c #9FA1A1",
"A. c #8CAFAA",
"S. c #ABB7B6",
"D. c #B9B9B8",
"F. c #B8AEAF",
"G. c #C49C8C",
"H. c #D4AD98",
"J. c #CAB69C",
"K. c #D5B39A",
"L. c #D1AB8F",
"P. c #F9BB9F",
"I. c #D0B8A4",
"U. c #CDB5B1",
"Y. c #EFBDAB",
"T. c #F9BCA0",
"R. c #E9C498",
"E. c #DBC4A6",
"W. c #D8C6BB",
"Q. c #E6C5A9",
"!. c #EFD0A1",
"~. c #E7CBB6",
"^. c #F5CBB3",
"/. c #EBD1B6",
"(. c #9794DE",
"). c #929CC5",
"_. c #97B4CD",
"`. c #9EA4C9",
"'. c #B8BECB",
"]. c #A6BFD3",
"[. c #ACB4C8",
"{. c #AEC5D5",
"}. c #B6CBDC",
"|. c #C4CAD9",
" X c #CDD1DE",
".X c #EBD0C1",
"XX c #F8D6C5",
"oX c #EDE6DE",
"OX c #C6C7E4",
"+X c #C8D8E1",
"@X c #D7DAEA",
"#X c #DEE0E3",
"$X c #E6EBEE",
"%X c None",
/* pixels */
"%X%X%X%X%X%X%X%X%X%X%X%X%X%X%X%X%X%X%X%X%X%X%X%X%X%X%X%X%X%X%X%X",
"%X%X%X%X%X%X%X%X%X%X%X%X%X- < %X< - - %X%X%X%X%X%X%X%X%X%X%X%X%X",
"%X%X%X%X%X%X%X%X%X%X%Xk r 0 Q ! O.o.W t %X%X%X%X%X%X%X%X%X%X%X%X",
"%X%X%X%X%X%X%X%X%X%Xk r O.#.#.*.2.3.2.@.t %X%X%X%X%X%X%X%X%X%X%X",
"%X%X%X%X%X%X%X%X%X%X# 0 =.=.=.3.3.2.<.<.@.r %X%X%X%X%X%X%X%X%X%X",
"%X%X%X%X%X%X%X%X%Xe 4 @.>.3.5.5.3.-.=.=.*.D = %X%X%X%X%X%X%X%X%X",
"%X%X%X%X%X%X%X%Xy +.-.-.=.<.3.3.2.2.,.*.t.i.* > %X%X%X%X%X%X%X%X",
"%X%X%X%X%X%X%XS q.y Q O.%.,.>.,.#.2.=.0.C.x.v q.S %X%X%X%X%X%X%X",
"%X%X%X%X%X%X%XA Q.` < + ~ R.!.L.$.;.=.0.i.v w.Y.A %X%X%X%X%X%X%X",
"%X%X%X%X%X%X%XA /.K.> . ( ^.XX!.$.;.<.8.M < K.^.B %X%X%X%X%X%X%X",
"%X%X%X%X%X%X%Xb B.k.= . q ^ n.H.i 6 @.<.E : k.).v %X%X%X%X%X%X%X",
"%X%X%X%X%X%X%Xd y.d.m O v h G U.P ; 9.8.u B d.y.d %X%X%X%X%X%X%X",
"%X%X%X%X%X%X%X%Xv E.L., b.).i.~.W.i.`.v., L.I.v %X%X%X%X%X%X%X%X",
"%X%X%X%X%X%X%X%Xn I.Q.S ) V.c./.~.C.V._ P ~.J.w %X%X%X%X%X%X%X%X",
"%X%X%X%X%X%X%X%X%Xm G.W.) P U.~.~.U.P k..XN.M u r %X%X%X%X%X%X%X",
"%X%X%X%X%X%X%X%X%XX w I.F.Y Z 7.X.Z L J.H., O Q +.t %X%X%X%X%X%X",
"%X%X%X%X%X%X%X%X%X; L / G C 7 ] ] 7 C L / L = 5 @.9 # %X%X%X%X%X",
"%X%X%X%X%X%X%X%X%X: S.F o ] &.&.&.&.8 o F D.; . O.9 % %X%X%X%X%X",
"%X%X%X%X%X%X%X%X%XY V.b 2 { [ [ [ [ { 2 F V.F = 6 t %X%X%X%X%X%X",
"%X%X%X%X%X%X%X%Xn [.f.f 1 3 } | | 3 3 1 g f.{.v . %X%X%X%X%X%X%X",
"%X%X%X%X%X%X%X%XA  Xf.a O c i.A.A.i.h o a h.+XF %X%X%X%X%X%X%X%X",
"%X%X%X%X%X%X%XG {.@Xf.a N 9. .....K 9.N f h.#XD.G %X%X%X%X%X%X%X",
"%X%X%X%X%X%X%XL @X(.a.a ( R.e.' ' e.R.~ f a.(.@XI %X%X%X%X%X%X%X",
"%X%X%X%X%X%X%XU |.s.j @ w G.E.r.7.Q.N.w @ j g.OXI %X%X%X%X%X%X%X",
"%X%X%X%X%X%X%XU |.y.s # : n.^.T.R.^.b.: # s u.|.I %X%X%X%X%X%X%X",
"%X%X%X%X%X%X%XT Z.z %X& v.oX/.Y.Y.XXoXl.& %Xz Z.T %X%X%X%X%X%X%X",
"%X%X%X%X%X%X%X%Xz %X%X& z.$X#X{.{.oX$Xl.% %X%Xz %X%X%X%X%X%X%X%X",
"%X%X%X%X%X%X%X%X%X%X%X% R {.}._._.}.{.J % %X%X%X%X%X%X%X%X%X%X%X",
"%X%X%X%X%X%X%X%X%X%X%X%Xl x. X].].+Xm.l %X%X%X%X%X%X%X%X%X%X%X%X",
"%X%X%X%X%X%X%X%X%X%X%X%X%XH l.R R l.H %X%X%X%X%X%X%X%X%X%X%X%X%X",
"%X%X%X%X%X%X%X%X%X%X%X%X%X%X$ & $ & %X%X%X%X%X%X%X%X%X%X%X%X%X%X",
"%X%X%X%X%X%X%X%X%X%X%X%X%X%X%X%X%X%X%X%X%X%X%X%X%X%X%X%X%X%X%X%X"
};
