/* XPM */
static char *result[] = {
/* columns rows colors chars-per-pixel */
"32 32 193 2 ",
"   c #141414",
".  c #171718",
"X  c #1C191A",
"o  c #24221E",
"O  c #1F1C25",
"+  c #231526",
"@  c #241A24",
"#  c #271628",
"$  c #28162A",
"%  c #2C1B2C",
"&  c #261D28",
"*  c #311F2F",
"=  c #341A36",
"-  c #361C38",
";  c #2B2525",
":  c #2D2B2B",
">  c #292526",
",  c #302625",
"<  c #33282D",
"1  c #2A3120",
"2  c #353125",
"3  c #3A342C",
"4  c #3A3525",
"5  c #2B2533",
"6  c #332C31",
"7  c #372835",
"8  c #373434",
"9  c #3C3434",
"0  c #3B3B3C",
"q  c #3C3936",
"w  c #493F2D",
"e  c #463734",
"r  c #442D34",
"t  c #494839",
"y  c #5C4E34",
"u  c #52443C",
"i  c #43513F",
"p  c #5C5133",
"a  c #5C5838",
"s  c #50462C",
"d  c #665C39",
"f  c #665A38",
"g  c #67603A",
"h  c #6C663E",
"j  c #76693C",
"k  c #60783B",
"l  c #392945",
"z  c #3E3E41",
"x  c #3F3453",
"c  c #3E3C7B",
"v  c #452648",
"b  c #4B344A",
"n  c #603D62",
"m  c #3E425A",
"M  c #464648",
"N  c #5D4B40",
"B  c #5A5648",
"V  c #494050",
"C  c #544656",
"Z  c #535253",
"A  c #6D5B40",
"S  c #665C5C",
"D  c #716C42",
"F  c #7B7342",
"G  c #686858",
"H  c #776358",
"J  c #617F56",
"K  c #70794F",
"L  c #524E6A",
"P  c #4E5172",
"I  c #51536A",
"U  c #625666",
"Y  c #675968",
"T  c #5A6275",
"R  c #696568",
"E  c #647062",
"W  c #7C726E",
"Q  c #706B79",
"!  c #6F7275",
"~  c #777477",
"^  c #846F3A",
"/  c #817543",
"(  c #8B7844",
")  c #806456",
"_  c #887567",
"`  c #877876",
"'  c #977B70",
"]  c #748945",
"[  c #749451",
"{  c #898248",
"}  c #9C8C4A",
"|  c #988647",
" . c #819F51",
".. c #9E9350",
"X. c #A5934D",
"o. c #AB974D",
"O. c #AC9951",
"+. c #A69851",
"@. c #91A44E",
"#. c #94B253",
"$. c #9BB052",
"%. c #89A857",
"&. c #AEA255",
"*. c #B5A355",
"=. c #B9A755",
"-. c #BBAB57",
";. c #BDAD5B",
":. c #BFB45E",
">. c #82847F",
",. c #9F8578",
"<. c #8E8669",
"1. c #AD9E62",
"2. c #A2877A",
"3. c #A98B7C",
"4. c #B18972",
"5. c #B8AC68",
"6. c #B1B56F",
"7. c #B9AF74",
"8. c #A8A965",
"9. c #C3B35B",
"0. c #C6BA5E",
"q. c #C9BB5E",
"w. c #C3B862",
"e. c #CBBE61",
"r. c #C2BB6F",
"t. c #C6BE76",
"y. c #CFC263",
"u. c #CCC26C",
"i. c #D2C564",
"p. c #D6CA66",
"a. c #D6C769",
"s. c #D9CD67",
"d. c #DCC57F",
"f. c #505690",
"g. c #6A648F",
"h. c #777981",
"j. c #635EA7",
"k. c #7677A1",
"l. c #837E8A",
"z. c #7E87BB",
"x. c #85878A",
"c. c #8E9D89",
"v. c #888598",
"b. c #918D91",
"n. c #969798",
"m. c #968A8A",
"M. c #A49788",
"N. c #AF9E96",
"B. c #B7A597",
"V. c #B3B08E",
"C. c #8E81A3",
"Z. c #9C8FA1",
"A. c #8B98A7",
"S. c #9A9FA4",
"D. c #848BB9",
"F. c #8890BC",
"G. c #9397B5",
"H. c #A98DA1",
"J. c #B299AE",
"K. c #9EA6AD",
"L. c #A4A4A6",
"P. c #B3AFAD",
"I. c #A6ADB6",
"U. c #B7A8BA",
"Y. c #ABB1B8",
"T. c #B5B7BA",
"R. c #CBAA91",
"E. c #DDBCAA",
"W. c #CEB9A7",
"Q. c #E6BBA5",
"!. c #B1C4B4",
"~. c #E7C696",
"^. c #D6CABC",
"/. c #DCD0B7",
"(. c #E1C1AF",
"). c #E5C9B8",
"_. c #EED3BC",
"`. c #F2D3BC",
"'. c #9D9FC2",
"]. c #A7B1C0",
"[. c #B4BDCB",
"{. c #BDC1C0",
"}. c #C3C5C9",
"|. c #CBD3DC",
" X c #D5DAD9",
".X c #D6D7D9",
"XX c #C0CBD7",
"oX c #EDD8C7",
"OX c #EEE3DC",
"+X c #DEE3EA",
"@X c #E7E9EC",
"#X c #E8EDF2",
"$X c None",
/* pixels */
"$X$X$X$X$X$X$X$X$X$X$X$X$X$X$X$X$X$X$X$X$X$X$X$X$X$X$X$X$X$X$X$X",
"$X$X$X$X$X$X$X$X$X$X$X$X$X$X$X$X$X$X$X$X$X$X$X$X$X$X$X$X$X$X$X$X",
"$X$X$X$X$X$X$X$X$X$X$X$X$X$X$X$X$X$ O X * $X$X$X$X$X$X$X$X$X$X$X",
"$X$X$X$X$X$X$X$X$X$X$X$X$X$X$ $ $ y j F A 7 $X$X$X$X$X$X$X$X$X$X",
"$X$X$X$X$X$X$X$X$X$X$X$X$X, s p g } -.9.| o + $X$X$X$X$X$X$X$X$X",
"$X$X$X$X$X$X$X$X$X$X$X$Xr p } =.9.9.e.i.O.s w b $X$X$X$X$X$X$X$X",
"$X$X$X$X$X$X$X$X$X$X$Xl A X.9.q.0.q.p.s.9.X.O.f r $X$X$X$X$X$X$X",
"$X$X$X$X$X$X$X$X$X$X$ P l.1.q.q.*.9.p.p.;.O.9.&.p - $X$X$X$X$X$X",
"$X$X$X$X$X$X$X$X$X$X@ T D.v.5.5.o.9.i.d.R.^ ^ -.d - $X$X$X$X$X$X",
"$X$X$X$X$X$X$X$X$X$X# P z.F.S.v.5.i.{ _ R.s ^ -.g - $X$X$X$X$X$X",
"$X$X$X$X$X$X$X$X$Xo f <.n.'.A.M.u.{ 2 R B.2 j 9.g - $X$X$X$X$X$X",
"$X$X$X$X$X$X$X$X< f X.q.7.n.c.y.w.<.V Q B.4 | { N $X$X$X$X$X$X$X",
"$X$X$X$X$X$X2 w y O.i.i.i.q.:.i.O.^.z.k.B.3 / u $X$X$X$X$X$X$X$X",
"$X$X$X$X$X7 f O.=.y.s.5.&.+...y.*./.G.G.B.; * $X$X$X$X$X$X$X$X$X",
"$X$X$X$X, d O.=.=.i.e.F q 3 a :.i.~.).}.N.< $X$X$X$X$X$X$X$X$X$X",
"$X$X$X* j X.O.o.y.e.h ~ Y.T.n.a 0.~.`.N.C $X$X$X$X$X$X$X$X$X$X$X",
"$X$X$X& / / F 9.0.j x.}.#X+X|.n.r.1.K ` l.l $X$X$X$X$X$X$X$X$X$X",
"$X$X$X$Xp 4 f 9.j ; E x.Y.#X+X Xt.@.k G ~ v $X$X$X$X$X$X$X$X$X$X",
"$X$X$X$X* + a ..> . . 9 W T.+X X6.$.#.] t $X$X$X$X$X$X$X$X$X$X$X",
"$X$X$X$X$X$Xy F o . 8 ,.3.G T.!.%.%.#.#.] > $X$X$X$X$X$X$X$X$X$X",
"$X$X$X$X$X$X$X, . > b./.E.2.t J [ [ [ [ ] 1 = $X$X$X$X$X$X$X$X$X",
"$X$X$X$X$X$X$X$XO c j.J.3.3 5 f.f.A.E 1 u <.g.b $X$X$X$X$X$X$X$X",
"$X$X$X$X$X$X$X$X7 Z.U.` e   r H.U.c.M   8 l.[.H.S $X$X$X$X$X$X$X",
"$X$X$X$X$X$X$X+ 6 W.`.R   o ) Q.oXV.B   > L R.oXH - $X$X$X$X$X$X",
"$X$X$X$X$X$XV M 1 ` ,.W S H 4.M.Q.oXM.S Z o H ' N = $X$X$X$X$X$X",
"$X$X$X$X$Xb h.I.: 0 z S.OXE.) 3 3.).oXOX}.M M M 5 - $X$X$X$X$X$X",
"$X$X$X$XO ~ |.Y.0 K.K.P..XP.< X : L.@X@X|.Y..X.XQ - $X$X$X$X$X$X",
"$X$X$X$X. b.#XY.2 0 I.z.0 0 @ X O 8 S.|.[.+X@Xh.b $X$X$X$X$X$X$X",
"$X$X$X$XX b.[.U v > L.Q $ $X$X$X$X@ x.XXA.R Y n $X$X$X$X$X$X$X$X",
"$X$X$X$X$XY Y $X$X$XU z * $X$X$X$X# m U C v $X$X$X$X$X$X$X$X$X$X",
"$X$X$X$X$X$X$X$X$X$X$X$ $X$X$X$X$X$XX # $X$X$X$X$X$X$X$X$X$X$X$X",
"$X$X$X$X$X$X$X$X$X$X$X$X$X$X$X$X$X$X$X$X$X$X$X$X$X$X$X$X$X$X$X$X"
};
