/* XPM */
static char *result[] = {
/* columns rows colors chars-per-pixel */
"32 32 155 2 ",
"   c #181617",
".  c #181418",
"X  c #1C1C1C",
"o  c #201E1C",
"O  c #1F1F20",
"+  c #261D24",
"@  c #271E28",
"#  c #2B1B2B",
"$  c #2E2824",
"%  c #27252C",
"&  c #2A262E",
"*  c #29292A",
"=  c #352E25",
"-  c #3C2C2C",
";  c #393627",
":  c #3B302A",
">  c #2E2234",
",  c #322E3A",
"<  c #393737",
"1  c #40352A",
"2  c #453D2B",
"3  c #49422C",
"4  c #46422D",
"5  c #46403D",
"6  c #49473E",
"7  c #534633",
"8  c #5B4F30",
"9  c #5D5234",
"0  c #625532",
"q  c #665C39",
"w  c #686038",
"e  c #75663A",
"r  c #73693F",
"t  c #7A6A3C",
"y  c #393B43",
"u  c #413E46",
"i  c #423E4A",
"p  c #42374C",
"a  c #434444",
"s  c #454448",
"d  c #48404B",
"f  c #4B4B4F",
"g  c #595649",
"h  c #514655",
"j  c #4F5055",
"k  c #4E505E",
"l  c #505256",
"z  c #57515B",
"x  c #5A5C5E",
"c  c #5E5C51",
"v  c #615D4E",
"b  c #756A42",
"n  c #7F7041",
"m  c #61635F",
"M  c #505560",
"N  c #5E5F60",
"B  c #575B65",
"V  c #535B7D",
"C  c #605E69",
"Z  c #5F6362",
"A  c #5C6470",
"S  c #636363",
"D  c #686C6C",
"F  c #6D706A",
"G  c #656A75",
"H  c #747773",
"J  c #787971",
"K  c #72747C",
"L  c #81703D",
"P  c #847B42",
"I  c #827548",
"U  c #918547",
"Y  c #928948",
"T  c #9C8848",
"R  c #96864B",
"E  c #958B5F",
"W  c #99915E",
"Q  c #A28D4A",
"!  c #A5924B",
"~  c #A8954D",
"^  c #AC994F",
"/  c #A59753",
"(  c #AD9B52",
")  c #B19E50",
"_  c #B2A354",
"`  c #B9A755",
"'  c #BCAB56",
"]  c #B4A45A",
"[  c #BDAE59",
"{  c #ACA37C",
"}  c #B7AF7A",
"|  c #BAB27E",
" . c #C2B45A",
".. c #C6B85D",
"X. c #CABC5E",
"o. c #CBBE62",
"O. c #CEC262",
"+. c #D1C563",
"@. c #D6CA66",
"#. c #D9CD67",
"$. c #D5C968",
"%. c #DACF68",
"&. c #DFD46B",
"*. c #6B7585",
"=. c #757B86",
"-. c #757282",
";. c #656F9B",
":. c #7E7F9D",
">. c #7C858E",
",. c #7A839D",
"<. c #7D88BE",
"1. c #9B9589",
"2. c #8E8B9C",
"3. c #818C9C",
"4. c #92959A",
"5. c #93999E",
"6. c #AAA487",
"7. c #A5A08D",
"8. c #B4AE83",
"9. c #8B8FAC",
"0. c #8E9BAD",
"q. c #9599A2",
"w. c #808BBE",
"e. c #8A98BF",
"r. c #8A90B2",
"t. c #99A0A7",
"y. c #95A0AF",
"u. c #9CA3A9",
"i. c #A4ADB5",
"p. c #ABB0B6",
"a. c #B3B8BD",
"s. c #8B9BC0",
"d. c #AFB8C0",
"f. c #ACBACC",
"g. c #B4BCC3",
"h. c #B8C1C9",
"j. c #C5C9CD",
"k. c #CBCFD2",
"l. c #CDD5DB",
"z. c #D0D4D8",
"x. c #CED8E0",
"c. c #D5DDE4",
"v. c #DDE2E6",
"b. c #DDE4E9",
"n. c #E1E5E7",
"m. c #E1E6EA",
"M. c #E6EAED",
"N. c #EAECEE",
"B. c #EBEEF1",
"V. c #EEF0F2",
"C. c #F5F5F6",
"Z. c #F8F7F7",
"A. c #F8F8F7",
"S. c #F8F8F8",
"D. c None",
/* pixels */
"D.D.D.D.D.D.D.D.D.D.D.D.D.D.D.D.D.D.D.D.D.D.D.D.D.D.D.D.D.D.D.D.",
"D.D.D.D.D.D.D.D.D.D.D.D.D.D.D.D.D.D.D.D.D.D.D.D.D.D.D.D.D.D.D.D.",
"D.D.D.D.D.D.D.D.D.D.D.D.1 3 3 7 D.7 2 - D.D.D.D.D.D.D.D.D.D.D.D.",
"D.D.D.D.D.D.D.D.D.D.D.- e ~ _ ( Q ( Q 0 - D.D.D.D.D.D.D.D.D.D.D.",
"D.D.D.D.D.D.D.D.D.D.o e ~ [ O.X. .X.` Q 8 . D.D.D.D.D.D.D.D.D.D.",
"D.D.D.D.D.D.D.D.D.D.* I [ +.&.&.#.#.O.] q % D.D.D.D.D.D.D.D.D.D.",
"D.D.D.D.D.D.D.D.D.& *.:.{ @.&.&.&.&.O.1.:.A D.D.D.D.D.D.D.D.D.D.",
"D.D.D.D.D.D.D.D.D.& ,.e.9.8.&.&.&.&.7.r.e.A O D.D.D.D.D.D.D.D.D.",
"D.D.D.D.D.D.D.D.D.% ;.w.q.} &.&.&.&.6.9.<.V X D.D.D.D.D.D.D.D.D.",
"D.D.D.D.D.D.D.D.D.& -.2.} #.&.&.&.&.$.6.2.C X D.D.D.D.D.D.D.D.D.",
"D.D.D.D.D.D.D.D.D.$ / o.&.&.&.&.&.&.&.@.o.I X D.D.D.D.D.D.D.D.D.",
"D.D.D.D.D.D.D.D.D.2 _ %.&.&.&.&.&.&.&.&.@.Y = D.D.D.D.D.D.D.D.D.",
"D.D.D.D.D.D.D.D.: R X.#.&.&.&.&.&.&.&.&.#.[ r # D.D.D.D.D.D.D.D.",
"D.D.D.D.D.D.D.D.; _ o.#.&.&.&.&.&.&.&.&.@.X.P + D.D.D.D.D.D.D.D.",
"D.D.D.D.D.D.D.D.; _ o.+.&.&.&.&.&.&.&.#.O.X.P @ D.D.D.D.D.D.D.D.",
"D.D.D.D.D.D.D.y D ] X.X.+.&.&.&.&.&.&.O.X.X.W B D.D.D.D.D.D.D.D.",
"D.D.D.D.D.D.D.i H / [ [ +.&.#.&.&.&.&.O. .[ E D > D.D.D.D.D.D.D.",
"D.D.D.D.D.D.D.D.: t ! ' +.#.+.&.&.&.#.X.' ~ 0 % D.D.D.D.D.D.D.D.",
"D.D.D.D.D.D.D.D.D.5 n ) +.+.+.&.&.&.+.) T b < D.D.D.D.D.D.D.D.D.",
"D.D.D.D.D.D.D.D.u t.6 U X.X. .+.&.&.+.Q 9 Z =.# D.D.D.D.D.D.D.D.",
"D.D.D.D.D.D.D.D.a a.a t ` ( Q  .O.O.[ w D h.5.% D.D.D.D.D.D.D.D.",
"D.D.D.D.D.D.D.D.a z.u.g L t 0 ^  ...r D h.B.q.% D.D.D.D.D.D.D.D.",
"D.D.D.D.D.D.D.s 4.M.M.5.v c m q ^ ` 4 >.b.C.j.K D.D.D.D.D.D.D.D.",
"D.D.D.D.D.D.D.j l.C.C.v.t.u.d.H 9 q H a.M.A.B.i.* D.D.D.D.D.D.D.",
"D.D.D.D.D.D.p =.c.C.C.b.b.M.B.k.D D j.B.V.S.V.g.M D.D.D.D.D.D.D.",
"D.D.D.D.D.. M f.m.S.C.M.V.S.S.V.m.b.C.Z.S.S.V.x.0., D.D.D.D.D.D.",
"D.D.D.D.D.D.k y.j.V.C.Z.S.S.S.C.S.S.S.C.C.C.V.l.3., D.D.D.D.D.D.",
"D.D.D.D.D.D.D.& l g.z.N.S.C.S.S.S.S.S.C.n.l.z.p.y D.D.D.D.D.D.D.",
"D.D.D.D.D.D.D.D.D.i f a.n.m.V.C.B.V.n.c.4.s s d D.D.D.D.D.D.D.D.",
"D.D.D.D.D.D.D.D.D.D.D.z x N m S S S N x h D.D.D.D.D.D.D.D.D.D.D.",
"D.D.D.D.D.D.D.D.D.D.D.D.D.D.D.D.D.D.D.D.D.D.D.D.D.D.D.D.D.D.D.D.",
"D.D.D.D.D.D.D.D.D.D.D.D.D.D.D.D.D.D.D.D.D.D.D.D.D.D.D.D.D.D.D.D."
};
