/* XPM */
static char *result[] = {
/* columns rows colors chars-per-pixel */
"32 32 202 2 ",
"   c #1E151E",
".  c #1B1A1B",
"X  c #1A1A17",
"o  c #29231E",
"O  c #21271B",
"+  c #1F1622",
"@  c #1B1C29",
"#  c #201623",
"$  c #231B23",
"%  c #2E1F2E",
"&  c #1E2021",
"*  c #242323",
"=  c #2F202E",
"-  c #2B2B2B",
";  c #332526",
":  c #332C23",
">  c #372E28",
",  c #3B3522",
"<  c #363126",
"1  c #2C2A35",
"2  c #302E31",
"3  c #362836",
"4  c #343334",
"5  c #393637",
"6  c #2E343B",
"7  c #443C24",
"8  c #46372A",
"9  c #473934",
"0  c #3A5A27",
"q  c #4C432A",
"w  c #4A4627",
"e  c #594B2D",
"r  c #554731",
"t  c #5D522B",
"y  c #62542C",
"u  c #67592C",
"i  c #665F30",
"p  c #506F2E",
"a  c #617D2F",
"s  c #6C6431",
"d  c #676030",
"f  c #756635",
"g  c #617F31",
"h  c #7A7233",
"j  c #2E2842",
"k  c #3B2F41",
"l  c #38374C",
"z  c #2B2A59",
"x  c #343F5A",
"c  c #2D2D63",
"v  c #3E4144",
"b  c #3B4255",
"n  c #47474C",
"m  c #464B57",
"M  c #574C55",
"N  c #5D5D5E",
"B  c #57555A",
"V  c #594C45",
"C  c #65574A",
"Z  c #61595B",
"A  c #755A4E",
"S  c #59664A",
"D  c #6F6E5D",
"F  c #7F665B",
"G  c #647942",
"H  c #4A5465",
"J  c #535562",
"K  c #625E67",
"L  c #56706D",
"P  c #6E6D6D",
"I  c #656568",
"U  c #6F716A",
"Y  c #7B7565",
"T  c #777579",
"R  c #776A62",
"E  c #846B31",
"W  c #867636",
"Q  c #907D37",
"!  c #856658",
"~  c #907C5D",
"^  c #807E63",
"/  c #987462",
"(  c #847979",
")  c #876E63",
"_  c #528239",
"`  c #638536",
"'  c #729F39",
"]  c #76A33B",
"[  c #7FAA3C",
"{  c #5A8943",
"}  c #619145",
"|  c #7C9458",
" . c #759C6F",
".. c #9B8B3C",
"X. c #99863B",
"o. c #A38B3C",
"O. c #A4873A",
"+. c #B1983E",
"@. c #839954",
"#. c #AB9B44",
"$. c #AD9540",
"%. c #B39C41",
"&. c #B19B4C",
"*. c #AE924A",
"=. c #8EB640",
"-. c #B5A344",
";. c #BBA848",
":. c #B8A351",
">. c #9B9864",
",. c #8F8177",
"<. c #998A78",
"1. c #988C6D",
"2. c #A39764",
"3. c #A68273",
"4. c #B28B74",
"5. c #94A66D",
"6. c #BCA279",
"7. c #A7A271",
"8. c #C2AE47",
"9. c #C2AF49",
"0. c #C5B24A",
"q. c #CDBB4D",
"w. c #C9B74B",
"e. c #D0BF4F",
"r. c #CCB75A",
"t. c #D1C14F",
"y. c #D4C451",
"u. c #D9CB53",
"i. c #E1D456",
"p. c #D4C774",
"a. c #5E7085",
"s. c #576197",
"d. c #697685",
"f. c #727F8D",
"g. c #606B9C",
"h. c #63739F",
"j. c #524FB2",
"k. c #6458A3",
"l. c #7579B6",
"z. c #7574AF",
"x. c #76828E",
"c. c #7A81AC",
"v. c #8C8B8B",
"b. c #868588",
"n. c #9F9084",
"m. c #878C91",
"M. c #8A9097",
"N. c #87939D",
"B. c #959696",
"V. c #AF9E8E",
"C. c #AF9095",
"Z. c #AD8995",
"A. c #A6A29F",
"S. c #8A97A3",
"D. c #8293A9",
"F. c #929FAB",
"G. c #908FB1",
"H. c #8694B9",
"J. c #9598B8",
"K. c #AD99A8",
"L. c #96A5AB",
"P. c #9FAEBD",
"I. c #97B0AD",
"U. c #A6A6A7",
"Y. c #A4ACB2",
"T. c #ACAEB1",
"R. c #ADB4BA",
"E. c #B9B9BA",
"W. c #BBB9AF",
"Q. c #D09D86",
"!. c #D8AE9A",
"~. c #DDB295",
"^. c #D6BDA9",
"/. c #CFBCBA",
"(. c #E7BAA3",
"). c #E0C49F",
"_. c #DDC5AA",
"`. c #EEC3A8",
"'. c #ECD0AF",
"]. c #E6CABA",
"[. c #E7CAB7",
"{. c #F3CEB9",
"}. c #F9CBB4",
"|. c #EDD2BE",
" X c #E1D9B6",
".X c #B1BBC5",
"XX c #B8C7D5",
"oX c #BBC1C5",
"OX c #C7C9CA",
"+X c #C1CDDA",
"@X c #CCD5DE",
"#X c #CAD1D7",
"$X c #D6D4D2",
"%X c #F2D5C1",
"&X c #EDE1DC",
"*X c #CBD7E2",
"=X c #D5DEE5",
"-X c #D9E2EB",
";X c #E5EAED",
":X c #EAEEF1",
">X c #F4EFED",
",X c None",
/* pixels */
",X,X,X,X,X,X,X,X,X,X,X,X,X,X,X,X,X,X,X,X,X,X,X,X,X,X,X,X,X,X,X,X",
",X,X,X,X,X,X,X,X,X,X,X,X,X8 7 q ,Xq 7 7 8 ,X,X,X,X,X,X,X,X,X,X,X",
",X,X,X,X,X,X,X,X,X,X,X,X; f o.o.O.-.;.-.h > ,X,X,X,X,X,X,X,X,X,X",
",X,X,X,X,X,X,X,X,X,X,X: f +.+.+.w.u.u.t.;.$., ,X,X,X,X,X,X,X,X,X",
",X,X,X,X,X,X,X,X,X,X# o ..0.q.t.u.y.e.e.e.;.W 8 ,X,X,X,X,X,X,X,X",
",X,X,X,X,X,X,X,X,Xr f h ;.e.u.i.i.u.e.8.8.:.1.5 ,X,X,X,X,X,X,X,X",
",X,X,X,X,X,X,X,X# i e.q.0.0.t.u.t.e.e.8.&.7.c.l ,X,X,X,X,X,X,X,X",
",X,X,X,X,X,X,X,X# s e.+.E $.r.r.9.*.q.w.2.D.H.n ; ,X,X,X,X,X,X,X",
",X,X,X,X,X,X,X,X+ s t.X.7 3.`.'.).*.q.q.>.l.z.1.y % ,X,X,X,X,X,X",
",X,X,X,X,X,X,X,X# d w.o.< 3.}.|.'.&.8.t.&.~ 2.&.y + ,X,X,X,X,X,X",
",X,X,X,X,X,X,X,X,Xr W #., r F n.^.f i ..8.+.+.+.Q e ,X,X,X,X,X,X",
",X,X,X,X,X,X,X,X,X,X, h : n b J ^.R j Y p.q.O.+.;...e ,X,X,X,X,X",
",X,X,X,X,X,X,X,X,Xk 6 1 * A.J.s.].].s.H. X#.W Q -.w.#.q ,X,X,X,X",
",X,X,X,X,X,X,X,X3 I .XL.v n.F.z.%X%Xl.G.V.5 < < f -.q.-.q ,X,X,X",
",X,X,X,X,X,X,X% v.OX*XXXF.N ( /.|.|./.( N S.Y.P.I i ;.0.w ,X,X,X",
",X,X,X,X,X,X,X,XI Y.;X=X*XS.P Y 5.5.Y P N.@X;X;XR.U s %.w ,X,X,X",
",X,X,X,X,X,X,X,X,XM v.;X:XM.S g ] ] ` p M.=Xb.P R.W.y y 9 ,X,X,X",
",X,X,X,X,X,X,X,X,X,X5 B.B.S a =.=.=.=.g S v.C o Z <.E o ,X,X,X,X",
",X,X,X,X,X,X,X,X,Xj 3 9 - p [ [ [ [ =.' G C 4.M & , u ; ,X,X,X,X",
",X,X,X,X,X,X,X,X# z k.C.5 0 _ { } } { p | (.].z.z . $ ,X,X,X,X,X",
",X,X,X,X,X,X,X,X# z j.k.1 O b g.I.I.h.b C (.[.z.c X   ,X,X,X,X,X",
",X,X,X,X,X,X,X,X# M K.Z.5 A C.F. . .L D ! C Z l H H $ ,X,X,X,X,X",
",X,X,X,X,X,X,X,XK ( / ! < 3.}._.5.} @.6.~ o X N F.x.$ ,X,X,X,X,X",
",X,X,X,X,X,X,XM U.F.5   X F !.}.~.G 6.Q.A . $ W.-XS.n ,X,X,X,X,X",
",X,X,X,X,X,X2 R.=X.Xd.+ X - ( }.~.V 1.) - . . U.=XXXD.- ,X,X,X,X",
",X,X,X,X,X,X- OX+Xf.1 X . b.$X}.(.E.I J L . . 4 B.:XE.2 ,X,X,X,X",
",X,X,X,X,X,X2 OXm.l ,X,X& x.@X>X&X.Xm H a.+ ,X+ v.:XoX3 ,X,X,X,X",
",X,X,X,X,X,X$ P Z ,X,X,X$ N.*X+X*X+XB j m ,X,X$ m.$Xf.5 ,X,X,X,X",
",X,X,X,X,X,X$ # ,X,X,X,X% b..XXXXXT.Z   ,X,X,X,XT v.= ,X,X,X,X,X",
",X,X,X,X,X,X,X,X,X,X,X,X,X% T $X.Xn ,X,X,X,X,X,X,X= ,X,X,X,X,X,X",
",X,X,X,X,X,X,X,X,X,X,X,X,X,X,X5 5 ,X,X,X,X,X,X,X,X,X,X,X,X,X,X,X",
",X,X,X,X,X,X,X,X,X,X,X,X,X,X,X,X,X,X,X,X,X,X,X,X,X,X,X,X,X,X,X,X"
};
