/* XPM */
static char *result[] = {
/* columns rows colors chars-per-pixel */
"32 32 190 2 ",
"   c #151515",
".  c #1B151B",
"X  c #1A1919",
"o  c #161518",
"O  c #211F1E",
"+  c #25231E",
"@  c #1F0F20",
"#  c #1F1520",
"$  c #211122",
"%  c #221923",
"&  c #2D1A2E",
"*  c #242223",
"=  c #2A2126",
"-  c #2B2B23",
";  c #2C242C",
":  c #2D2B2B",
">  c #342C24",
",  c #382A2D",
"<  c #333025",
"1  c #363329",
"2  c #362D34",
"3  c #2F3032",
"4  c #353434",
"5  c #3D3933",
"6  c #3B323A",
"7  c #3C3A3D",
"8  c #373536",
"9  c #40312B",
"0  c #443E29",
"q  c #423435",
"w  c #413B32",
"e  c #3C473E",
"r  c #544B2E",
"t  c #50462D",
"y  c #4F4635",
"u  c #51423B",
"i  c #585436",
"p  c #685D35",
"a  c #705E33",
"s  c #5F6C3C",
"d  c #5F743D",
"f  c #7B6F3C",
"g  c #746639",
"h  c #64773E",
"j  c #7B723E",
"k  c #6A6139",
"l  c #3C395F",
"z  c #453944",
"x  c #3D4145",
"c  c #454A4D",
"v  c #4A4848",
"b  c #544741",
"n  c #544D4B",
"m  c #514752",
"M  c #4C5054",
"N  c #53565A",
"B  c #5C5B5C",
"V  c #535555",
"C  c #534D50",
"Z  c #645F40",
"A  c #766D45",
"S  c #786945",
"D  c #7C7543",
"F  c #716751",
"G  c #4F506D",
"H  c #525571",
"J  c #6D5C62",
"K  c #5A616F",
"L  c #646566",
"P  c #65686A",
"I  c #6E7275",
"U  c #6F7479",
"Y  c #727372",
"T  c #797776",
"R  c #6C6B6C",
"E  c #856D39",
"W  c #837B43",
"Q  c #867B47",
"!  c #877569",
"~  c #877C72",
"^  c #6C8641",
"/  c #7F9A4B",
"(  c #8D8246",
")  c #958648",
"_  c #908B58",
"`  c #9A9256",
"'  c #A68E4E",
"]  c #AD994F",
"[  c #A2914C",
"{  c #AE9D52",
"}  c #AB9958",
"|  c #B19E51",
" . c #8FB051",
".. c #9FB454",
"X. c #89A34D",
"o. c #AFA357",
"O. c #AAAC56",
"+. c #B3A455",
"@. c #B8A653",
"#. c #BCAB57",
"$. c #B8AA57",
"%. c #BEB15B",
"&. c #8E9762",
"*. c #8F8075",
"=. c #B2927D",
"-. c #A09675",
";. c #BDAC6E",
":. c #ABA071",
">. c #B0A674",
",. c #B4AC78",
"<. c #B8AE74",
"1. c #C2B45C",
"2. c #C6B95C",
"3. c #C9BB5E",
"4. c #CBBF61",
"5. c #C1B66A",
"6. c #CDB377",
"7. c #CFC161",
"8. c #D1C463",
"9. c #D6CA65",
"0. c #D2C669",
"q. c #D8CC67",
"w. c #DDCE70",
"e. c #565685",
"r. c #6F7593",
"t. c #787E86",
"y. c #6D73AE",
"u. c #7D8387",
"i. c #85898B",
"p. c #86878A",
"a. c #9A8C86",
"s. c #8E9194",
"d. c #939293",
"f. c #9C978B",
"g. c #A8978B",
"h. c #B19384",
"j. c #B0A88B",
"k. c #B7A79A",
"l. c #8688A9",
"z. c #969DA9",
"x. c #8987B4",
"c. c #919EBC",
"v. c #A49BB7",
"b. c #9BA0A3",
"n. c #9DA7B1",
"m. c #ADAEAE",
"M. c #A3ACB4",
"N. c #BCBCBC",
"B. c #B3B7BA",
"V. c #D5B297",
"C. c #C3B1A3",
"Z. c #C8B6AA",
"A. c #DBB9A0",
"S. c #D3BEB9",
"D. c #E5BCA7",
"F. c #DDCC8B",
"G. c #D4CF94",
"H. c #D8C9A8",
"J. c #DFC9B6",
"K. c #D7C2BA",
"L. c #E1DBA2",
"P. c #E6CAB5",
"I. c #F1D3BD",
"U. c #EBCDAB",
"Y. c #858FC1",
"T. c #9FA8CC",
"R. c #ACB8C6",
"E. c #B5BCC3",
"W. c #C4B9C4",
"Q. c #B8C3CC",
"!. c #B9C5D2",
"~. c #C4C7CA",
"^. c #C5C9CC",
"/. c #DCCFC3",
"(. c #C3CDD3",
"). c #C1CEDC",
"_. c #CCD2D6",
"`. c gray86",
"'. c #D5DADD",
"]. c #E0E0DF",
"[. c #CED7E0",
"{. c #DDDFE0",
"}. c #DCE1E5",
"|. c #DFE5EC",
" X c #E5E9EC",
".X c #E4E4E5",
"XX c #E8EDF1",
"oX c #EEF2F5",
"OX c #F7F6F5",
"+X c None",
/* pixels */
"+X+X+X+X+X+X+X+X+X+X+X+X+X+X+X+X+X+X+X+X+X+X+X+X+X+X+X+X+X+X+X+X",
"+X+X+X+X+X+X+X+X+X+X+X+X+X+X+X+X+X+X+X+X+X+X+X+X+X+X+X+X+X+X+X+X",
"+X+X+X+X+X+X+X+X+X+X+X+X+X+X+X+X+X+X> > > , +X+X+X+X+X+X+X+X+X+X",
"+X+X+X+X+X+X+X+X+X+X+X+X+X+X+X+ + + a ) [ ( > +X+X+X+X+X+X+X+X+X",
"+X+X+X+X+X+X+X+X+X+X+X+X+X+X1 g Q ) ] 1.3.o.< O +X+X+X+X+X+X+X+X",
"+X+X+X+X+X+X+X+X+X+X+X+X+X0 E { 2.3.3.8.9.1.f g t +X+X+X+X+X+X+X",
"+X+X+X+X+X+X+X+X+X+X+X+Xl R O.2.3.1.2.9.9.1.] #.) r +X+X+X+X+X+X",
"+X+X+X+X+X+X+X+X+X+X+X. K l.-.%.3.| #.9.w.6.' ] #.f X +X+X+X+X+X",
"+X+X+X+X+X+X+X+X+X+X+XX K Y.l.>.:.} 1.5.;.V.g E +.W X +X+X+X+X+X",
"+X+X+X+X+X+X+X+X+X+X+X. G x.T.c.l.<.7.D n C.w a @.W X +X+X+X+X+X",
"+X+X+X+X+X+X+X+X+X+X+X+ A f.Y.u.,.0.Q ; n C.5 g +.D . +X+X+X+X+X",
"+X+X+X+X+X+X+X+X+X+X= D $.;.g.>.0.#.j.r.K C.5 ( D 0 +X+X+X+X+X+X",
"+X+X+X+X+X+X+X+X+X, S +.0.9.2.@.9.] H.T.y.k.5 y u +X+X+X+X+X+X+X",
"+X+X+X+X+X+X+X+X1 p | 4.9.+.f k ( o.H.E.v.Z.8 o +X+X+X+X+X+X+X+X",
"+X+X+X+X+X+X+Xq p | %.8.o.A x c C _ 6.U.P.g.q +X+X+X+X+X+X+X+X+X",
"+X+X+X+X+X+Xo i { | 8.$.Z I !.'._.R ` F.g.2 +X+X+X+X+X+X+X+X+X+X",
"+X+X+X+X+X+Xo r o.0.%.r U Q.}. X X_.F.` 5 +X+X+X+X+X+X+X+X+X+X+X",
"+X+X+X+X+X+Xo t ] %.i + i. X~.B B ~.L.O.h ; +X+X+X+X+X+X+X+X+X+X",
"+X+X+X+X+X+X+X9 g o.< K U I T ! *.T &...X.s : +X+X+X+X+X+X+X+X+X",
"+X+X+X+X+X+X+X+X< A U n.B   u D.P.! i ^  ./ - +X+X+X+X+X+X+X+X+X",
"+X+X+X+X+X+X+X# * L Q.M.c   w h.P.H.J l h h - +X+X+X+X+X+X+X+X+X",
"+X+X+X+X+X+X8 8 P {.(.M X o + b k.S.x.G < O +X+X+X+X+X+X+X+X+X+X",
"+X+X+X; : ; d.`.].oXE.x     u =.n e.v.S.-.= +X+X+X+X+X+X+X+X+X+X",
"+X+Xz m.N.N.].OXoX!.N *   u =.J.k.m a.I.h.% X +X+X+X+X+X+X+X+X+X",
"+X+Xz p.{.oXXXB.I P t.i.s.k.P.J.T 3 y J u : p.m @ $ $ +X+X+X+X+X",
"+X+X+X3 u.i.i.N   2 Q.). XOX/.~ +     u T p._.u.L T V % +X+X+X+X",
"+X+X+X+X% % % % O 6 z.R.E.N.d.*       B ~. X[.!.}.].p.& +X+X+X+X",
"+X+X+X+X+X+X+X+X+X+X2 M.U * * o X X X X B _.R.Q.'.d.: +X+X+X+X+X",
"+X+X+X+X+X+X+X+X+X+X; b.L   +X+X+X+X+X$ v E.z.V 7 8 +X+X+X+X+X+X",
"+X+X+X+X+X+X+X+X+X+X+X7 ; X +X+X+X+X+X+X= 7 l +X+X+X+X+X+X+X+X+X",
"+X+X+X+X+X+X+X+X+X+X+X+X+X+X+X+X+X+X+X+X+X+X+X+X+X+X+X+X+X+X+X+X",
"+X+X+X+X+X+X+X+X+X+X+X+X+X+X+X+X+X+X+X+X+X+X+X+X+X+X+X+X+X+X+X+X"
};
