/* XPM */
static char *result[] = {
/* columns rows colors chars-per-pixel */
"32 32 169 2 ",
"   c #1A161A",
".  c #1A181A",
"X  c #151515",
"o  c #24221D",
"O  c #29261E",
"+  c #231B25",
"@  c #2A1929",
"#  c #331C35",
"$  c #391D3C",
"%  c #272424",
"&  c #2A2123",
"*  c #27272E",
"=  c #2B212A",
"-  c #27282F",
";  c #2E2C29",
":  c #3E2F2E",
">  c #363325",
",  c #3C3326",
"<  c #3D3529",
"1  c #2A2C33",
"2  c #3D2931",
"3  c #373430",
"4  c #31323B",
"5  c #3C3A3E",
"6  c #403D2D",
"7  c #422B37",
"8  c #48432F",
"9  c #554D2F",
"0  c #4C463A",
"q  c #544436",
"w  c #5E5534",
"e  c #625635",
"r  c #665A35",
"t  c #645338",
"y  c #635C3A",
"u  c #74633B",
"i  c #7E6D3D",
"p  c #3E1B42",
"a  c #383548",
"s  c #3A3947",
"d  c #411D41",
"f  c #422B45",
"g  c #443C49",
"h  c #40344C",
"j  c #493F55",
"k  c #523556",
"l  c #424145",
"z  c #40424A",
"x  c #494149",
"c  c #535147",
"v  c #484856",
"b  c #57475D",
"n  c #4E5056",
"m  c #665F44",
"M  c #615F57",
"N  c #7F7541",
"B  c #6F6B50",
"V  c #5E5F67",
"C  c #595565",
"Z  c #4F5573",
"A  c #605F6D",
"S  c #6C6D64",
"D  c #6F6A6F",
"F  c #727060",
"G  c #656C76",
"H  c #766D78",
"J  c #6D727A",
"K  c #747575",
"L  c #76727C",
"P  c #787C7C",
"I  c #7A7B75",
"U  c #87773F",
"Y  c #867642",
"T  c #847945",
"R  c #8A7B45",
"E  c #93784C",
"W  c #847E76",
"Q  c #7C807F",
"!  c #8B8146",
"~  c #8F8449",
"^  c #9C8B4A",
"/  c #95854B",
"(  c #9F924E",
")  c #9C925E",
"_  c #A18C4A",
"`  c #A4934D",
"'  c #AC9C51",
"]  c #B3A354",
"[  c #BBA956",
"{  c #BEAE59",
"}  c #B7A758",
"|  c #BEB15B",
" . c #938B78",
".. c #AEA367",
"X. c #BBAF6C",
"o. c #BFB46E",
"O. c #BDB475",
"+. c #C2B45B",
"@. c #CABC5F",
"#. c #C6BA5D",
"$. c #C8BA60",
"%. c #C5B96A",
"&. c #CDC061",
"*. c #D2C564",
"=. c #D6CA66",
"-. c #D9CD66",
";. c #D5C96B",
":. c #DACE69",
">. c #DFD36B",
",. c #C9C077",
"<. c #D3C870",
"1. c #E0D56B",
"2. c #5E688D",
"3. c #65718A",
"4. c #777B80",
"5. c #7A7D80",
"6. c #606A90",
"7. c #6A6C95",
"8. c #6F7C9D",
"9. c #7577A6",
"0. c #7D8084",
"q. c #7C8AA4",
"w. c #7F80AC",
"e. c #7C8BB0",
"r. c #8A8A8E",
"t. c #848C95",
"y. c #868F9B",
"u. c #8B949D",
"i. c #969695",
"p. c #A8A288",
"a. c #AEA782",
"s. c #B8B084",
"d. c #898AA8",
"f. c #9399A1",
"g. c #838BB8",
"h. c #8B97BE",
"j. c #8796B4",
"k. c #9BA2A8",
"l. c #A7A8AA",
"z. c #A1ABB5",
"x. c #ABAEB2",
"c. c #AAB1B8",
"v. c #BABABA",
"b. c #ADB9C3",
"n. c #BEBFC1",
"m. c #B6C3D4",
"M. c #C4C6C9",
"N. c #CACED3",
"B. c #CCD5DE",
"V. c #C6D0DB",
"C. c #D2D5D8",
"Z. c #DBDBDC",
"A. c #D1D0D1",
"S. c #CCD6E0",
"D. c #D4DCE4",
"F. c #DEE5EB",
"G. c gray88",
"H. c #E2E7ED",
"J. c #E5E9EE",
"K. c #E8EBEF",
"L. c #EBEEF1",
"P. c #EEF0F2",
"I. c #F5F5F6",
"U. c #F8F7F7",
"Y. c #F7F7F8",
"T. c #F8F7F8",
"R. c #F7F8F9",
"E. c #FAF9FA",
"W. c None",
/* pixels */
"W.W.W.W.W.W.W.W.W.W.W.W.W.W.W.W.W.W.W.W.W.W.W.W.W.W.W.W.W.W.W.W.",
"W.W.W.W.W.W.W.W.W.W.W.W.W.W.W.W.W.W.W.W.W.W.W.W.W.W.W.W.W.W.W.W.",
"W.W.W.W.W.W.W.W.W.W.W.W.W.@ o o 7 W.& & W.W.W.W.W.W.W.W.W.W.W.W.",
"W.W.W.W.W.W.W.W.W.W.W.W.= r R R E E R u 2 W.W.W.W.W.W.W.W.W.W.W.",
"W.W.W.W.W.W.W.W.W.W.W.& e / } $.[ ] [ ` u : W.W.W.W.W.W.W.W.W.W.",
"W.W.W.W.W.W.W.W.W.W.W.& U [ &.-.*.=.*.+._ > W.W.W.W.W.W.W.W.W.W.",
"W.W.W.W.W.W.W.W.W.W.W.C W X.-.>.1.1.:.%. .A 5 W.W.W.W.W.W.W.W.W.",
"W.W.W.W.W.W.W.W.W.W.; d.g.i.,.1.1.1.;.p.g.j.g W.W.W.W.W.W.W.W.W.",
"W.W.W.W.W.W.W.W.W.W.- 8.h.d.s.1.>.1.,.d.h.e.s p W.W.W.W.W.W.W.W.",
"W.W.W.W.W.W.W.W.W.W.* 7.w.a.;.>.>.>.>.O.d.9.a d W.W.W.W.W.W.W.W.",
"W.W.W.W.W.W.W.W.W.W.; ) o.;.>.>.>.1.>.;.%...0 p W.W.W.W.W.W.W.W.",
"W.W.W.W.W.W.W.W.W.W.> ] -.>.>.>.>.>.>.>.:.#.q d W.W.W.W.W.W.W.W.",
"W.W.W.W.W.W.W.W.W.: T $.>.>.>.>.1.1.>.>.>.;.^ q W.W.W.W.W.W.W.W.",
"W.W.W.W.W.W.W.W.W.< ] :.>.>.>.>.>.>.>.1.1.>.$.w @ W.W.W.W.W.W.W.",
"W.W.W.W.W.W.W.W.W.3 ] :.>.>.>.>.>.>.>.1.>.=.*./ 6 W.W.W.W.W.W.W.",
"W.W.W.W.W.W.W.W.h B } *.$.-.>.>.>.1.>.>.>.*.*.+.r $ W.W.W.W.W.W.",
"W.W.W.W.W.W.W.W.v 4.~ +.+.&.>.=.=.>.>.>.:.#.+.[ r # W.W.W.W.W.W.",
"W.W.W.W.W.W.W.W.W.@ > ` ] +.=.-.=.:.>.>.>.+.^ _ r # W.W.W.W.W.W.",
"W.W.W.W.W.W.W.W.W.W.3 Y ^ ' | ;.*.&.>.>.>.| 9 r t $ W.W.W.W.W.W.",
"W.W.W.W.W.W.W.W.W.g t.0 i e T +.&.+.[ $.&.' 8 % 7 W.W.W.W.W.W.W.",
"W.W.W.W.W.W.W.W.W.z b.u.c P S N #.( r ] | y Q n @ W.W.W.W.W.W.W.",
"W.W.W.W.W.W.W.W.b f.B.B.x.M.c.S ! ! O w ( < k.l.C W.W.W.W.W.W.W.",
"W.W.W.W.W.W.W.x y.D.F.K.Y.I.H.c.F B 0.K m Q N.B.J # W.W.W.W.W.W.",
"W.W.W.W.W.W.v y.V.B.K.I.Y.E.J.J.v.l.K.Z.u.C.I.D.J # W.W.W.W.W.W.",
"W.W.W.W.W.  G m.B.D.I.U.U.K.J.L.E.E.E.I.L.I.Y.H.4.# W.W.W.W.W.W.",
"W.W.W.W.W.W.G z.D.I.I.U.U.H.L.E.G.v.v.M.I.E.I.L.5.# W.W.W.W.W.W.",
"W.W.W.W.W.W.$ H C.E.E.E.E.I.Z.A.r.4 4 n v.L.I.C.4.$ W.W.W.W.W.W.",
"W.W.W.W.W.W.W.W.D Z.G.G.G.C.K ; v 6.6.Z z x.N.L f W.W.W.W.W.W.W.",
"W.W.W.W.W.W.W.W.W.x x x l 5 % X v q.3.1 + s g k W.W.W.W.W.W.W.W.",
"W.W.W.W.W.W.W.W.W.W.W.W.    . . - s 4 + W.W.W.W.W.W.W.W.W.W.W.W.",
"W.W.W.W.W.W.W.W.W.W.W.W.W.W.W.W.W.W.W.W.W.W.W.W.W.W.W.W.W.W.W.W.",
"W.W.W.W.W.W.W.W.W.W.W.W.W.W.W.W.W.W.W.W.W.W.W.W.W.W.W.W.W.W.W.W."
};
