/* XPM */
static char *result[] = {
/* columns rows colors chars-per-pixel */
"32 32 192 2 ",
"   c #141415",
".  c #1B141C",
"X  c #191919",
"o  c #181818",
"O  c #211E1E",
"+  c #25221E",
"@  c #28251E",
"#  c #1F0F20",
"$  c #1F1320",
"%  c #221923",
"&  c #251526",
"*  c #242223",
"=  c #292126",
"-  c #2B2C23",
";  c #2C242C",
":  c #2D2B2A",
">  c #342C24",
",  c #382B2D",
"<  c #333025",
"1  c #38322B",
"2  c #352D34",
"3  c #2F3131",
"4  c #343435",
"5  c #3D3933",
"6  c #3B323A",
"7  c #3C3A3D",
"8  c #373536",
"9  c #43392A",
"0  c #423435",
"q  c #413B33",
"w  c #3C473E",
"e  c #534B2E",
"r  c #50462D",
"t  c #4F4637",
"y  c #51423B",
"u  c #504531",
"i  c #595535",
"p  c #685D35",
"a  c #705E33",
"s  c #5F6D3C",
"d  c #5F733C",
"f  c #7C6F3C",
"g  c #75663A",
"h  c #64773E",
"j  c #7B723E",
"k  c #6A6138",
"l  c #3C395F",
"z  c #443845",
"x  c #3E4145",
"c  c #46494C",
"v  c #4B4948",
"b  c #544741",
"n  c #544D4B",
"m  c #56534C",
"M  c #514752",
"N  c #4C5053",
"B  c #53565A",
"V  c #5C5B5B",
"C  c #545658",
"Z  c #4A4555",
"A  c #645F41",
"S  c #766D45",
"D  c #796945",
"F  c #7D7543",
"G  c #716751",
"H  c #535769",
"J  c #505278",
"K  c #6D5C62",
"L  c #5A6170",
"P  c #646566",
"I  c #65686A",
"U  c #6E7275",
"Y  c #6E7479",
"T  c #727372",
"R  c #797776",
"E  c #6C6B6C",
"W  c #846D38",
"Q  c #827B43",
"!  c #867B47",
"~  c #877568",
"^  c #877C72",
"/  c #6C8541",
"(  c #7E9A4B",
")  c #8E8246",
"_  c #958648",
"`  c #9A9256",
"'  c #908A58",
"]  c #A68E4E",
"[  c #A9974E",
"{  c #AE9D52",
"}  c #AA9958",
"|  c #B19E51",
" . c #8FB051",
".. c #9FB554",
"X. c #89A34D",
"o. c #AFA256",
"O. c #A9AC56",
"+. c #B3A555",
"@. c #B8A653",
"#. c #BCAB57",
"$. c #B8AA57",
"%. c #BEB15B",
"&. c #8E9762",
"*. c #8F8075",
"=. c #B2927E",
"-. c #A19575",
";. c #BDAC6E",
":. c #ADA474",
">. c #B4AD79",
",. c #B4AA73",
"<. c #C2B45B",
"1. c #C5B85C",
"2. c #C9BA5E",
"3. c #CBBF61",
"4. c #C1B669",
"5. c #CDB377",
"6. c #CFC262",
"7. c #D1C464",
"8. c #D6CA65",
"9. c #D2C769",
"0. c #D8CC67",
"q. c #DDCE71",
"w. c #575584",
"e. c #6F7592",
"r. c #787D86",
"t. c #6E74AD",
"y. c #7B8285",
"u. c #7F868C",
"i. c #85898B",
"p. c #868689",
"a. c #9A8C86",
"s. c #888C90",
"d. c #8E9294",
"f. c #939293",
"g. c #9C978B",
"h. c #A8978B",
"j. c #B29384",
"k. c #B0A88B",
"l. c #B7A69A",
"z. c #8688A8",
"x. c #969DAA",
"c. c #8987B4",
"v. c #919EBC",
"b. c #A49BB7",
"n. c #9BA0A3",
"m. c #9DA7B1",
"M. c #ADAEAE",
"N. c #A3ACB5",
"B. c #BCBCBC",
"V. c #B3B7BA",
"C. c #D5B297",
"Z. c #C3B1A2",
"A. c #C8B6AA",
"S. c #DBB9A0",
"D. c #D3BFB9",
"F. c #E5BCA7",
"G. c #D3CF94",
"H. c #DCCD8A",
"J. c #D8C9A8",
"K. c #DEC9B6",
"L. c #D7C3B9",
"P. c #E1DBA3",
"I. c #E4C7B1",
"U. c #E8CDB9",
"Y. c #F1D3BD",
"T. c #EBCDAB",
"R. c #858FC1",
"E. c #9FA8CB",
"W. c #ACB7C6",
"Q. c #B5BCC3",
"!. c #C4B9C4",
"~. c #B8C3CC",
"^. c #B9C4D2",
"/. c #C5C7CA",
"(. c #C5C9CC",
"). c #DCCFC3",
"_. c #C4CDD4",
"`. c #C1CEDB",
"'. c #CCD2D7",
"]. c #D5D9DD",
"[. c #DBDBDB",
"{. c #E0E0DF",
"}. c #CED6E0",
"|. c #DDDFE1",
" X c #DCE1E5",
".X c #DFE5EC",
"XX c #E5E9EC",
"oX c #E4E4E6",
"OX c #E8EDF1",
"+X c #EEF2F5",
"@X c #F7F6F5",
"#X c None",
/* pixels */
"#X#X#X#X#X#X#X#X#X#X#X#X#X#X#X#X#X#X#X#X#X#X#X#X#X#X#X#X#X#X#X#X",
"#X#X#X#X#X#X#X#X#X#X#X#X#X#X#X#X#X#X#X#X#X#X#X#X#X#X#X#X#X#X#X#X",
"#X#X#X#X#X#X#X#X#X#X> < > > #X#X#X#X#X#X#X#X#X#X#X#X#X#X#X#X#X#X",
"#X#X#X#X#X#X#X#X#X> _ ] _ a @ + + #X#X#X#X#X#X#X#X#X#X#X#X#X#X#X",
"#X#X#X#X#X#X#X#XO > +.1.<.| _ ! g 0 #X#X#X#X#X#X#X#X#X#X#X#X#X#X",
"#X#X#X#X#X#X#Xu g f <.8.6.2.2.<.[ f 9 #X#X#X#X#X#X#X#X#X#X#X#X#X",
"#X#X#X#X#X#Xe _ #.| <.8.8.1.<.2.2.| K l #X#X#X#X#X#X#X#X#X#X#X#X",
"#X#X#X#X#XX f #.[ ] 5.q.8.#.| 1.1.-.z.L O #X#X#X#X#X#X#X#X#X#X#X",
"#X#X#X#X#XX Q @.W D C.;.4.<.} :.k.u.R.L X #X#X#X#X#X#X#X#X#X#X#X",
"#X#X#X#X#XX Q @.a 5 Z.m F 3.,.z.v.E.c.J X #X#X#X#X#X#X#X#X#X#X#X",
"#X#X#X#X#XX Q | g q Z.b : Q 9.>.u.R.g.S + #X#X#X#X#X#X#X#X#X#X#X",
"#X#X#X#X#X#X9 F ! q Z.w.e.k.#.9.:.h.4.@.j = #X#X#X#X#X#X#X#X#X#X",
"#X#X#X#X#X#X#Xy e 5 A.t.E.J.| 8.+.1.8.7.$.D 2 #X#X#X#X#X#X#X#X#X",
"#X#X#X#X#X#X#X#X  1 A.b.B.J.o.! p f +.8.3.{ p 1 #X#X#X#X#X#X#X#X",
"#X#X#X#X#X#X#X#X#X6 h.I.T.5.' m c c S O.7.#.| p 0 #X#X#X#X#X#X#X",
"#X#X#X#X#X#X#X#X#X#X2 h.H.` I '.}.^.I A $.7.| | i . #X#X#X#X#X#X",
"#X#X#X#X#X#X#X#X#X#X#Xw ` H.'.XXOX X~.U i %.8.o.r   #X#X#X#X#X#X",
"#X#X#X#X#X#X#X#X#X#X; A +.P./.V V /.XXi.@ i %.[ e   #X#X#X#X#X#X",
"#X#X#X#X#X#X#X#X#X- d X...&.R ^ ~ T U Y H < +.g 1 #X#X#X#X#X#X#X",
"#X#X#X#X#X#X#X#X#X- (  ./ i ~ U.F.t   L N.T S < #X#X#X#X#X#X#X#X",
"#X#X#X#X#X#X#X#X#X- d h 7 K S.U.j.0   c m.(.P * . #X#X#X#X#X#X#X",
"#X#X#X#X#X#X#X#X#X#X* 1 J c.D.l.y O o X N `.|.P 8 6 #X#X#X#X#X#X",
"#X#X#X#X#X#X#X#X#X#X* a.L.b.w.n j.y X   x W.+XoX[.f.; ; ; #X#X#X",
"#X#X#X#X#X#X#X#X#XX - j.Y.p.Z l.I.=.y o * B (.+X@XoXB.B.M.c #X#X",
"#X#X#X#X#X& % # M y.: y G v > ~ I.I.l.d.u.r.I T V.OX+X Xp.z #X#X",
"#X#X#X#X% C T P r.].p.T q o   - ^ ).@X.X`.~.4   B i.s.u.3 #X#X#X",
"#X#X#X#X& s.{.|.^.].XX/.H o o o * d.B.Q.W.x.6 % $ % % % #X#X#X#X",
"#X#X#X#X#X; f.].(.W.'.C O o o o o * * U M.2 #X#X#X#X#X#X#X#X#X#X",
"#X#X#X#X#X#X7 5 B x.W.v $ #X#X#X#X#X  P x.; #X#X#X#X#X#X#X#X#X#X",
"#X#X#X#X#X#X#X#X#X6 l + #X#X#X#X#X#Xo : 7 #X#X#X#X#X#X#X#X#X#X#X",
"#X#X#X#X#X#X#X#X#X#X#X#X#X#X#X#X#X#X#X#X#X#X#X#X#X#X#X#X#X#X#X#X",
"#X#X#X#X#X#X#X#X#X#X#X#X#X#X#X#X#X#X#X#X#X#X#X#X#X#X#X#X#X#X#X#X"
};
