/* XPM */
static char *result[] = {
/* columns rows colors chars-per-pixel */
"32 32 189 2 ",
"   c #161516",
".  c #181516",
"X  c #181817",
"o  c #1A191A",
"O  c #19131B",
"+  c #24211E",
"@  c #26291F",
"#  c #1F1D20",
"$  c #221721",
"%  c #2A182C",
"&  c #241B26",
"*  c #252321",
"=  c #2A2424",
"-  c #2C2C2B",
";  c #2B2828",
":  c #372F20",
">  c #34312D",
",  c #383C29",
"<  c #2B2A3D",
"1  c #27263D",
"2  c #332B31",
"3  c #2F3233",
"4  c #323232",
"5  c #353639",
"6  c #463F2A",
"7  c #443B28",
"8  c #443E35",
"9  c #4A3A34",
"0  c #4A452C",
"q  c #524C2B",
"w  c #57522C",
"e  c #4B4938",
"r  c #574A3B",
"t  c #5D5030",
"y  c #61543D",
"u  c #6D653A",
"i  c #77663A",
"p  c #252552",
"a  c #483847",
"s  c #44454A",
"d  c #5A5643",
"f  c #554A59",
"g  c #4E5256",
"h  c #575656",
"j  c #594A44",
"k  c #665A48",
"l  c #6A5B5A",
"z  c #6D6847",
"x  c #67674C",
"c  c #786C44",
"v  c #7F7442",
"b  c #7F7D49",
"n  c #6E665C",
"m  c #666155",
"M  c #595D63",
"N  c #5C586A",
"B  c #676469",
"V  c #6E6D6E",
"C  c #656463",
"Z  c #6E7577",
"A  c #727171",
"S  c #797C78",
"D  c #686D74",
"F  c #80723C",
"G  c #807843",
"H  c #887A45",
"J  c #917A41",
"K  c #8D7F73",
"L  c #6B8545",
"P  c #738947",
"I  c #7E9B4E",
"U  c #7F8475",
"Y  c #968549",
"T  c #9D914B",
"R  c #9E8F50",
"E  c #839D53",
"W  c #9E9553",
"Q  c #A5914D",
"!  c #AF9B4D",
"~  c #AE9D53",
"^  c #A59955",
"/  c #B19E52",
"(  c #B79E5E",
")  c #88A74C",
"_  c #8EAB53",
"`  c #90B051",
"'  c #ADA35D",
"]  c #BBAA56",
"[  c #B4AB5D",
"{  c #BCAD5A",
"}  c #B6A757",
"|  c #938461",
" . c #809460",
".. c #8C8072",
"X. c #918175",
"o. c #908B70",
"O. c #B18F70",
"+. c #A19970",
"@. c #AE9179",
"#. c #AEA16C",
"$. c #B7AB65",
"%. c #BDB561",
"&. c #AFB475",
"*. c #C2B45B",
"=. c #C7B95D",
"-. c #CABC5E",
";. c #CBBF63",
":. c #CFB876",
">. c #CFC261",
",. c #C8C16E",
"<. c #D1C563",
"1. c #D6CA69",
"2. c #DED26B",
"3. c #D1C771",
"4. c #2B3190",
"5. c #373882",
"6. c #424088",
"7. c #515387",
"8. c #716D8C",
"9. c #424BA5",
"0. c #7A7DAE",
"q. c #6D6AB8",
"w. c #6D72B2",
"e. c #7373BF",
"r. c #8D76AA",
"t. c #7A82BA",
"y. c #7881C1",
"u. c #898789",
"i. c #888B95",
"p. c #94959A",
"a. c #929595",
"s. c #A59A8B",
"d. c #B99C8E",
"f. c #B7A89A",
"g. c #B7A79B",
"h. c #ABA487",
"j. c #8691A0",
"k. c #999EA2",
"l. c #909BA9",
"z. c #878FB2",
"x. c #9AA3AC",
"c. c #98A4B9",
"v. c #A6A8A9",
"b. c #A4ADB6",
"n. c #AFB4BA",
"m. c #B5B4B5",
"M. c #B7BBBE",
"N. c #C4A291",
"B. c #C9BC9B",
"V. c #C3AFA0",
"C. c #C7B3A3",
"Z. c #C8B6AA",
"A. c #C4B4BB",
"S. c #CFCA84",
"D. c #DFC88F",
"F. c #DBD48B",
"G. c #E7C691",
"H. c #D7C5B4",
"J. c #EEC3AD",
"K. c #F0C5AE",
"L. c #EACCBF",
"P. c #EBD2BE",
"I. c #8B97C0",
"U. c #AFBBC6",
"Y. c #B0BAC2",
"T. c #C9BBC0",
"R. c #BAC5CD",
"E. c #BECBD8",
"W. c #C4C4C4",
"Q. c #CBC8C6",
"!. c #C3CCDB",
"~. c #CBD0D5",
"^. c #CBD5DE",
"/. c #D7D6DA",
"(. c #ECD7C6",
"). c #D4DCE3",
"_. c #D3D5E6",
"`. c #DEE3E6",
"'. c #DDE4EB",
"]. c #E1E7EB",
"[. c #E4E9EE",
"{. c #E8E9E9",
"}. c #EEEFF1",
"|. c #EEF1F3",
" X c #F3F4F5",
".X c #F7F7F8",
"XX c #F9F9F9",
"oX c #F8F8F7",
"OX c None",
/* pixels */
"OXOXOXOXOXOXOXOXOXOXOXOXOXOXOXOXOXOXOXOXOXOXOXOXOXOXOXOXOXOXOXOX",
"OXOXOXOXOXOXOXOXOXOXOXOXOXOXOXOXOXOXOXOXOXOXOXOXOXOXOXOXOXOXOXOX",
"OXOXOXOXOXOXOXOXOX. X O OXOXOXOXOXOXOXOXOXOXOXOXOXOXOXOXOXOXOXOX",
"OXOXOXOXOXOXOXOXy c c i r % % % OXOXOXOXOXOXOXOXOXOXOXOXOXOXOXOX",
"OXOXOXOXOXOXOXO i ] ] ! F q q 7 : OXOXOXOXOXOXOXOXOXOXOXOXOXOXOX",
"OXOXOXOXOXOX; = H -.-.=.*.*.! Y t 2 OXOXOXOXOXOXOXOXOXOXOXOXOXOX",
"OXOXOXOXOX9 T J ! -.2.-.=.=.-.*.Q c % OXOXOXOXOXOXOXOXOXOXOXOXOX",
"OXOXOXOXr Y *./ *.-.2.-.*.*.-.=.] | 7.1 OXOXOXOXOXOXOXOXOXOXOXOX",
"OXOXOX  y *.} Q ( :.2.<.} / =.=.#.i.t.< OXOXOXOXOXOXOXOXOXOXOXOX",
"OXOXOX  z =.J i O.G.;.;.} ! $.$.a.t.l.5 OXOXOXOXOXOXOXOXOXOXOXOX",
"OXOXOX  c *.F 7 X.Z.7 ;.<.&.0.c.c.I.q.p OXOXOXOXOXOXOXOXOXOXOXOX",
"OXOXOX  c -.F : K C.$ e ^ 3.h.t.y.z.+.> OXOXOXOXOXOXOXOXOXOXOXOX",
"OXOXOXOXk T Q , K Z.p N +.;.3.s.i.s.*.i 8 OXOXOXOXOXOXOXOXOXOXOX",
"OXOXOXOXOXr #.0 X.A.4.T.B.^ 1.[ ' $.[ *.c > OXOXOXOXOXOXOXOXOXOX",
"OXOXOXOXOXOX; X ..T.9._.C.! 1.d 3 > , [ %.Y = OXOXOXOXOXOXOXOXOX",
"OXOXOXOXOXOXOXO ..(.m.(.D.] u v.b.x.j.x ^ { F $ OXOXOXOXOXOXOXOX",
"OXOXOXOXOXOXOX# h f.P.J.D.,.S ~.].'.^.i.o.T ' t a OXOXOXOXOXOXOX",
"OXOXOXOXOXOXOXB C S f.d.:.F.`.]./.W.W.M.h w *.} 6   OXOXOXOXOXOX",
"OXOXOXOXOXOX2 Q./.x.- @ Y S.'.}.u.> 4 4 & w =.~ 6 OXOXOXOXOXOXOX",
"OXOXOXOXOXOXOXf x.Q.- L I &.[.U p.R.Y.b.g w =.~ 6   OXOXOXOXOXOX",
"OXOXOXOXOXOXOXOXB U L ` _ I 8.x.~. X[.^.l.Z b { 0 OXOXOXOXOXOXOX",
"OXOXOXOXOXOXOXOXOX, _ ` ) P n H./.). X).E.j.0 [ G q OXOXOXOXOXOX",
"OXOXOXOXOXOXOXOXOX, ) I L I (.J.r.e. X).).n.j T { b $ OXOXOXOXOX",
"OXOXOXOXOXOXOXOXOXe @.j @ m L.K.r.q. X X'.).R.e 8 > & & OXOXOXOX",
"OXOXOXOXOXOXOXOXp 5.8.p l s.n k a 8. XoX}.[.`.m.m.v.x.i.s OXOXOX",
"OXOXOXOXOXOXOXl 8.q.5.N f.J.A g 3 C oX XXX X[. X.X X].!.Z f OXOX",
"OXOXOXOXOXOX; V.L.g.= C.P.(. X!.Z D {. XXXoX X].|.XX}.~.U.D   OX",
"OXOXOXOXOXOX= N.@.> + N.J.P. X!.R.x.h /.XXXXXX X.XXX/.s 5 ; o OX",
"OXOXOXOXOXOXOXl 8   o j k l V M M g o C A A A A V A V OXOXOXOXOX",
"OXOXOXOXOXOXOXOXo o o   O   X X     X X X X X X X o OXOXOXOXOXOX",
"OXOXOXOXOXOXOXOXOXOXOXOXOXOXOXOXOXOXOXOXOXOXOXOXOXOXOXOXOXOXOXOX",
"OXOXOXOXOXOXOXOXOXOXOXOXOXOXOXOXOXOXOXOXOXOXOXOXOXOXOXOXOXOXOXOX"
};
