/* XPM */
static char *result[] = {
/* columns rows colors chars-per-pixel */
"32 32 184 2 ",
"   c #1D1C1D",
".  c #1E1E20",
"X  c #241525",
"o  c #281828",
"O  c #1F2122",
"+  c #252524",
"@  c #272B20",
"#  c #2C2A2B",
"$  c #2A2528",
"%  c #362B2A",
"&  c #2F3424",
"*  c #33322E",
"=  c #39322E",
"-  c #3C362B",
";  c #282832",
":  c #2F3233",
">  c #323132",
",  c #3D3D3D",
"<  c #38333C",
"1  c #352B34",
"2  c #413529",
"3  c #483A29",
"4  c #442B3C",
"5  c #4C3F3B",
"6  c #473833",
"7  c #4B442B",
"8  c #4A442A",
"9  c #564A2A",
"0  c #5B532D",
"q  c #444538",
"w  c #41553C",
"e  c #66582D",
"r  c #635532",
"t  c #6A5F36",
"y  c #5A7E35",
"u  c #756937",
"i  c #2A294E",
"p  c #3C3943",
"a  c #2D3354",
"s  c #3F3C59",
"d  c #463B4B",
"f  c #434343",
"g  c #44454B",
"h  c #474B4E",
"j  c #4B464B",
"k  c #4B4952",
"l  c #4D5255",
"z  c #58585A",
"x  c #715653",
"c  c #625947",
"v  c #556249",
"b  c #797646",
"n  c #6C6657",
"m  c #736059",
"M  c #657D52",
"N  c #747054",
"B  c #575D64",
"V  c #6A636D",
"C  c #676C6D",
"Z  c #696868",
"A  c #766A64",
"S  c #7E756F",
"D  c #6B7170",
"F  c #74797E",
"G  c #787A7B",
"H  c #836A2E",
"J  c #8C7B3D",
"K  c #877339",
"L  c #947831",
"P  c #88683B",
"I  c #807A41",
"U  c #8C7F5C",
"Y  c #896D64",
"T  c #8A746A",
"R  c #73963B",
"E  c #658638",
"W  c #7FA83E",
"Q  c #689447",
"!  c #7AA445",
"~  c #789966",
"^  c #97893E",
"/  c #AB933E",
"(  c #8AB23F",
")  c #8F8340",
"_  c #948A44",
"`  c #998D5C",
"'  c #A79646",
"]  c #B49D42",
"[  c #B09442",
"{  c #8BB242",
"}  c #A3AE44",
"|  c #AAA049",
" . c #BCA645",
".. c #BEA945",
"X. c #B6A648",
"o. c #BBAB58",
"O. c #9F9962",
"+. c #8E8279",
"@. c #978C77",
"#. c #AF8778",
"$. c #A69E7B",
"%. c #AD9D79",
"&. c #B6A964",
"*. c #B5A673",
"=. c #C1AE49",
"-. c #C2AC45",
";. c #C6B44A",
":. c #CDBB4D",
">. c #C8B74B",
",. c #CBAE5A",
"<. c #CCBD51",
"1. c #CABC5B",
"2. c #D0BF50",
"3. c #CCBA63",
"4. c #D1C04E",
"5. c #D6C551",
"6. c #D9C958",
"7. c #DCC27D",
"8. c #EBCA77",
"9. c #555A83",
"0. c #6C5C89",
"q. c #6F7E8C",
"w. c #696E9A",
"e. c #6670A9",
"r. c #777EBB",
"t. c #798785",
"y. c #7484A5",
"u. c #81878D",
"i. c #888B8E",
"p. c #8A8C93",
"a. c #80879E",
"s. c #8D9397",
"d. c #93989E",
"f. c #9C9C9C",
"g. c #AB8E80",
"h. c #A29D87",
"j. c #B99084",
"k. c #A59B9B",
"l. c #94AF82",
"z. c #ACA299",
"x. c #BEAA9D",
"c. c #888BAA",
"v. c #959FAA",
"b. c #8087BA",
"n. c #8896A2",
"m. c #A087B1",
"M. c #A592B8",
"N. c #99A3AC",
"B. c #96A4B6",
"V. c #A1A0A1",
"C. c #B7A3A2",
"Z. c #A1AFBB",
"A. c #BCAEBA",
"S. c #ACB3B9",
"D. c #B7B9BA",
"F. c #C19584",
"G. c #D9AD8A",
"H. c #C5B090",
"J. c #C0ACA3",
"K. c #C9B3A5",
"L. c #E0BDA9",
"P. c #D3CE99",
"I. c #C6C898",
"U. c #DCC1AD",
"Y. c #DAC1BD",
"T. c #EDC8B7",
"R. c #FCD4BC",
"E. c #F8C6AD",
"W. c #8997C1",
"Q. c #ADBBCA",
"!. c #B4BDC5",
"~. c #BABFC3",
"^. c #AEBFD1",
"/. c #B2BAD4",
"(. c #CBCCCD",
"). c #C6C7C7",
"_. c #CCD5DC",
"`. c #D3D9DD",
"'. c #D7DADB",
"]. c #D1DBE2",
"[. c #D8DEE5",
"{. c #DEE6EC",
"}. c #E8EEF3",
"|. c None",
/* pixels */
"|.|.|.|.|.|.|.|.|.|.|.|.|.|.|.|.|.|.|.|.|.|.|.|.|.|.|.|.|.|.|.|.",
"|.|.|.|.|.|.|.|.|.|.|.|.|.|.|.|.|.|.|.|.|.|.|.|.|.|.|.|.|.|.|.|.",
"|.|.|.|.|.|.|.|.|.|.|.o o o |.|.|.|.|.|.|.|.|.|.|.|.|.|.|.|.|.|.",
"|.|.|.|.|.|.|.|.|.|.% r e e 2 |.|.|.|.|.|.|.|.|.|.|.|.|.|.|.|.|.",
"|.|.|.|.|.|.|.|.|.X $ ' =.] K 0 9 3 |.|.|.|.|.|.|.|.|.|.|.|.|.|.",
"|.|.|.|.|.|.|.|.|.7 9 ..5.:.;.=.] K 3 |.|.|.|.|.|.|.|.|.|.|.|.|.",
"|.|.|.|.|.|.|.|.r [ / >.6.5.:.:.:. .I d |.|.|.|.|.|.|.|.|.|.|.|.",
"|.|.|.|.|.|.|.9 ]  .[ ,.6.5.X...:.=.@.w.; |.|.|.|.|.|.|.|.|.|.|.",
"|.|.|.|.|.|.|.0  .L P G.3.:...] &.$.b.y.; |.|.|.|.|.|.|.|.|.|.|.",
"|.|.|.|.|.|.|.0 ..H 3 J.c _ 4.$.c.B.W.w.; |.|.|.|.|.|.|.|.|.|.|.",
"|.|.|.|.|.|.|.0 X.H - J.j - ' 5.h.y.c.` & |.|.|.|.|.|.|.|.|.|.|.",
"|.|.|.|.|.|.|.|.t ^ 6 x.9.y.*.>.3.*.&.;.^ 3 |.|.|.|.|.|.|.|.|.|.",
"|.|.|.|.|.|.|.|.6 3 = J.e./.H.-.:./ >.4.4.J 6 |.|.|.|.|.|.|.|.|.",
"|.|.|.|.|.|.|.|.|.|.> K.A.Y.7.4.' 9 e u <.:.J 2 |.|.|.|.|.|.|.|.",
"|.|.|.|.|.|.|.|.|.|.4 T U.E.8.| N G F D b :.=.7 |.|.|.|.|.|.|.|.",
"|.|.|.|.|.|.|.|.|.|.|.C +.%.3.O.d.{.}._.C b X.7 |.|.|.|.|.|.|.|.",
"|.|.|.|.|.|.|.|.|.|.< i.v E { P.{._.S.D.!.q _ 7 |.|.|.|.|.|.|.|.",
"|.|.|.|.|.|.|.|.|.|.|.q R { } I._.z.5 q v.q ) 7 |.|.|.|.|.|.|.|.",
"|.|.|.|.|.|.|.|.|.|.@ R ( ( W $.u.Y #.$ < + u 3 |.|.|.|.|.|.|.|.",
"|.|.|.|.|.|.|.|.|.|.@ E R ! Q w n U.j.< q.> $ |.|.|.|.|.|.|.|.|.",
"|.|.|.|.|.|.|.|.|.|.|.& & t.y.a n T.F.f B.p |.|.|.|.|.|.|.|.|.|.",
"|.|.|.|.|.|.|.|.|.|.|.X   M ~ w d m.j.f S.j |.|.|.|.|.|.|.|.|.|.",
"|.|.|.|.|.|.|.|.|.|.= Y 6 U b n k.M.0.g (.N.j |.|.|.|.|.|.|.|.|.",
"|.|.|.|.|.|.|.|.|.|.4 x = g.m Y R.C.i p '.].l |.|.|.|.|.|.|.|.|.",
"|.|.|.|.|.|.|.|.|.|.|.|.+ z.A q T S l : i.`.s.d |.|.|.|.|.|.|.|.",
"|.|.|.|.|.|.|.|.|.|.|.|.  d.Z , Z u.n.O # (._.h |.|.|.|.|.|.|.|.",
"|.|.|.|.|.|.|.|.|.|.|.|.z v.B G [.].Z.g > (._.h |.|.|.|.|.|.|.|.",
"|.|.|.|.|.|.|.|.|.|.|.1 f.).G q.^.Q.!.N.f (.!.k |.|.|.|.|.|.|.|.",
"|.|.|.|.|.|.|.|.|.|.|.o > > G ~.~.u.l s., V.V |.|.|.|.|.|.|.|.|.",
"|.|.|.|.|.|.|.|.|.|.|.|.|.X $ > * +   $   > |.|.|.|.|.|.|.|.|.|.",
"|.|.|.|.|.|.|.|.|.|.|.|.|.|.|.|.|.|.|.|.|.|.|.|.|.|.|.|.|.|.|.|.",
"|.|.|.|.|.|.|.|.|.|.|.|.|.|.|.|.|.|.|.|.|.|.|.|.|.|.|.|.|.|.|.|."
};
