/* XPM */
static char *result[] = {
/* columns rows colors chars-per-pixel */
"32 32 203 2 ",
"   c #161616",
".  c #171718",
"X  c #1C161C",
"o  c #1D1B1B",
"O  c #21161F",
"+  c #231C1F",
"@  c #25221C",
"#  c #221622",
"$  c #221B23",
"%  c #291D25",
"&  c #2B1D2A",
"*  c #261B2B",
"=  c #201F38",
"-  c #242323",
";  c #2B232C",
":  c #2A292B",
">  c #292723",
",  c #332D23",
"<  c #312B2A",
"1  c #3A2C28",
"2  c #3B3526",
"3  c #2D2D31",
"4  c #3C2F3C",
"5  c #352935",
"6  c #323536",
"7  c #383738",
"8  c #2B3E22",
"9  c #443927",
"0  c #443732",
"q  c #483D38",
"w  c #364D3E",
"e  c #4A4426",
"r  c #4F492A",
"t  c #4E412E",
"y  c #524D2B",
"u  c #58492A",
"i  c #59542D",
"p  c #505238",
"a  c #68572E",
"s  c #4E6030",
"d  c #547831",
"f  c #526637",
"g  c #7B6D33",
"h  c #2B2F45",
"j  c #32306D",
"k  c #33347A",
"l  c #443E4A",
"z  c #413F76",
"x  c #3F4262",
"c  c #444346",
"v  c #4D454E",
"b  c #4C4C4D",
"n  c #5D4A45",
"m  c #4B5340",
"M  c #534E52",
"N  c #45555E",
"B  c #555056",
"V  c #685847",
"C  c #795B4C",
"Z  c #546048",
"A  c #77645A",
"S  c #404560",
"D  c #4B5666",
"F  c #555C67",
"G  c #5F5176",
"H  c #586879",
"J  c #5E7C7C",
"K  c #676467",
"L  c #6D6D6D",
"P  c #6A6369",
"I  c #646C75",
"U  c #6F757B",
"Y  c #7B7B7C",
"T  c #737778",
"R  c #6D6E69",
"E  c #827233",
"W  c #8D7B38",
"Q  c #987E38",
"!  c #82665A",
"~  c #8C7052",
"^  c #937569",
"/  c #877C76",
"(  c #A47D67",
")  c #5D8F3A",
"_  c #668534",
"`  c #639339",
"'  c #6C9B3C",
"]  c #749D39",
"[  c #7FA93D",
"{  c #6D8F47",
"}  c #759E6F",
"|  c #778B78",
" . c #7CA37B",
".. c #98853A",
"X. c #AC933E",
"o. c #AD933F",
"O. c #8AB23F",
"+. c #87B03F",
"@. c #85AB3D",
"#. c #978257",
"$. c #A89440",
"%. c #A79941",
"&. c #B39D42",
"*. c #B09741",
"=. c #AB9957",
"-. c #B49855",
";. c #BBA546",
":. c #B6A656",
">. c #908E6E",
",. c #B99C67",
"<. c #A58677",
"1. c #AF946F",
"2. c #B8A67A",
"3. c #C1AD49",
"4. c #C1AC46",
"5. c #C5B34A",
"6. c #CCBB4E",
"7. c #C9B64B",
"8. c #D0BF4D",
"9. c #C9B957",
"0. c #C7B760",
"q. c #CFC04F",
"w. c #D2C14F",
"e. c #D5C551",
"r. c #DACB53",
"t. c #D7C851",
"y. c #E0D356",
"u. c #4A4D8A",
"i. c #715F87",
"p. c #6A5A87",
"a. c #586B83",
"s. c #737C84",
"d. c #626F9E",
"f. c #717190",
"g. c #7A6990",
"h. c #5B57B0",
"j. c #695EB6",
"k. c #5463A6",
"l. c #747CB0",
"z. c #747EC1",
"x. c #8C76B3",
"c. c #7A8B89",
"v. c #87878A",
"b. c #858E97",
"n. c #828F9D",
"m. c #9B999B",
"M. c #8E919B",
"N. c #A19E9D",
"B. c #AB9988",
"V. c #B6B68C",
"C. c #B5A48E",
"Z. c #868AA7",
"A. c #999FA2",
"S. c #8899AE",
"D. c #98A7B6",
"F. c #ACACAD",
"G. c #A7A8A9",
"H. c #A7ABB7",
"J. c #ADB6BF",
"K. c #A9B1B8",
"L. c #B9BAB9",
"P. c #B4B7BB",
"I. c #C89A88",
"U. c #D39F82",
"Y. c #CDA789",
"T. c #D6AE9E",
"R. c #CCB19E",
"E. c #E4BB8F",
"W. c #CEB3A8",
"Q. c #CFBEB1",
"!. c #C8B7BD",
"~. c #D3BCB5",
"^. c #DDC297",
"/. c #E6CC9E",
"(. c #D6C1BA",
"). c #EDC7AF",
"_. c #E6C7B2",
"`. c #F6CAB4",
"'. c #EED1BB",
"]. c #FAD0B8",
"[. c #B6AFC0",
"{. c #A5B6C7",
"}. c #B6BEC6",
"|. c #B9C6D4",
" X c #C3C5C7",
".X c #C7CACC",
"XX c #DAC1C1",
"oX c #D5D7D9",
"OX c #D6D9DB",
"+X c #C7D0D9",
"@X c #E8CDC0",
"#X c #E6D9C8",
"$X c #F4D6C1",
"%X c #F7DCCD",
"&X c #E4DED9",
"*X c #C9D7E1",
"=X c #D1DBE4",
"-X c #D8DFE4",
";X c #DAE3EA",
":X c #E2E6EA",
">X c #E7EDF2",
",X c #F0F4F7",
"<X c None",
/* pixels */
"<X<X<X<X<X<X<X<X<X<X<X<X<X<X<X<X<X<X<X<X<X<X<X<X<X<X<X<X<X<X<X<X",
"<X<X<X<X<X<X<X<X<X<X<X<X1 , 9 <X0 , , 1 <X<X<X<X<X<X<X<X<X<X<X<X",
"<X<X<X<X<X<X<X<X<X<X<X& u Q ..Q %.%.X.W 1 <X<X<X<X<X<X<X<X<X<X<X",
"<X<X<X<X<X<X<X<X<X<X& a ..&.*.4.w.r.t.;...9 <X<X<X<X<X<X<X<X<X<X",
"<X<X<X<X<X<X<X<X<X# o E ;.5.5.t.r.e.8.8.4.E q <X<X<X<X<X<X<X<X<X",
"<X<X<X<X<X<X<X<X0 y i %.q.t.y.y.r.6.5.7.3.=.p # <X<X<X<X<X<X<X<X",
"<X<X<X<X<X<X<X<Xr 5.q.7.7.w.y.r.r.e.7.&.:.c.k # <X<X<X<X<X<X<X<X",
"<X<X<X<X<X<X<X<Xy 6.&.Q o.5.e.;.$.7.8.=.n.D.F & <X<X<X<X<X<X<X<X",
"<X<X<X<X<X<X<X<Xy q.X.u ~ E.).^.-.5.e.=.z.c./ a & <X<X<X<X<X<X<X",
"<X<X<X<X<X<X<X<Xr 6.X.9 ! `.'.'.:.;.w.;.x.v.=.g + <X<X<X<X<X<X<X",
"<X<X<X<X<X<X<X<Xr ..&.e n <.B._.#.E X.5.X.X.&.g + <X<X<X<X<X<X<X",
"<X<X<X<X<X<X<X<X<Xe ..e 3 6 l W.A : p 7.7.....g % <X<X<X<X<X<X<X",
"<X<X<X<X<X<X<X<X9 E 2 o Y H.u.Q._.f.d.#X:.i , 2 <X<X<X<X<X<X<X<X",
"<X<X<X<X<X<X<X<X@ 2 o   / J.k.~.$XZ.l.(.V U S.U ; <X<X<X<X<X<X<X",
"<X<X<X<X<X<X<XX 6 T c.s.L / H.'.'.!.M.R s.{.*X[.v.0 <X<X<X<X<X<X",
"<X<X<X<X<X<X# 6 c.=X>X=Xb.K B.C.V.B./ I }.*X:XoXN.h <X<X<X<X<X<X",
"<X<X<X<X<X<X# U +XG.G.oXK.I s ` [ d Z b.;X>X.Xv.5 <X<X<X<X<X<X<X",
"<X<X<X<X<X<X# / m.> 0 G.| s +.O.+.+._ m L..XL $ <X<X<X<X<X<X<X<X",
"<X<X<X<X<X<X<Xh : < #.V f ] O.O.+.+.@._ 2 7 : * <X<X<X<X<X<X<X<X",
"<X<X<X<X<X<X<X<X; u.W.R.>.) ) ) ` ` ) d @ ^ g.k & <X<X<X<X<X<X<X",
"<X<X<X<X<X<X<X<Xh h.XX$X>.w H } } | N w . I j.k # <X<X<X<X<X<X<X",
"<X<X<X<X<X<X<Xc j S x.<.! B G c.c.c.g.n % p.x.G # <X<X<X<X<X<X<X",
"<X<X<X<X<X<X$ F c.c @   C ,.{ ) { V.).I.1 ^ I.^ c <X<X<X<X<X<X<X",
"<X<X<X<X<X<X; H *X(.2   V U.Y.{ V._.'.I.< > < L F.l <X<X<X<X<X<X",
"<X<X<X<X<X& H D.=XoX7 . > A Y.p 1.].C.q o . D K.:XK.v <X<X<X<X<X",
"<X<X<X<X<X% n.;X.XL - . h F A v.T.`.Q.s.: . 6 s.+X-Xb <X<X<X<X<X",
"<X<X<X<X<X; A.,XL.- # o F a.7 {.%X%X&XH.3 # # l b.OXM <X<X<X<X<X",
"<X<X<X<X<X; v.OXL.; <X& D F 6 D.=X:X*XD.3 <X<X<Xv F.c <X<X<X<X<X",
"<X<X<X<X<X<X5 v.F.5 <X<X<X* 7  X}.{.|.}.7 <X<X<X<X5 - <X<X<X<X<X",
"<X<X<X<X<X<X<Xv v <X<X<X<X<X<XB [.>XH.B <X<X<X<X<X<X<X<X<X<X<X<X",
"<X<X<X<X<X<X<X<X<X<X<X<X<X<X<X<XP L P <X<X<X<X<X<X<X<X<X<X<X<X<X",
"<X<X<X<X<X<X<X<X<X<X<X<X<X<X<X<X<X# <X<X<X<X<X<X<X<X<X<X<X<X<X<X"
};
