/* XPM */
static char *result[] = {
/* columns rows colors chars-per-pixel */
"32 32 195 2 ",
"   c #141415",
".  c #1C161C",
"X  c #1D1A1D",
"o  c #20151F",
"O  c #211D1E",
"+  c #25211D",
"@  c #2D271C",
"#  c #352C1C",
"$  c #1E1C21",
"%  c #1D1C29",
"&  c #201623",
"*  c #231B21",
"=  c #251D28",
"-  c #252224",
";  c #292523",
":  c #2A2629",
">  c #2A292A",
",  c #342C23",
"<  c #352B2C",
"1  c #3B3223",
"2  c #252338",
"3  c #2F3237",
"4  c #3B3A34",
"5  c #34343A",
"6  c #342C3A",
"7  c #463929",
"8  c #493D36",
"9  c #4B4429",
"0  c #56482B",
"q  c #48413D",
"w  c #5A5230",
"e  c #5D4F34",
"r  c #604D27",
"t  c #63532B",
"y  c #675C2D",
"u  c #745D2C",
"i  c #7D6A31",
"p  c #686139",
"a  c #3B3F44",
"s  c #312D4F",
"d  c #2E2E68",
"f  c #473C49",
"g  c #483E65",
"h  c #46464B",
"j  c #574B46",
"k  c #59514B",
"l  c #5F584E",
"z  c #474A53",
"x  c #5E4C5F",
"c  c #4B5359",
"v  c #585659",
"b  c #624E48",
"n  c #615344",
"m  c #6C5444",
"M  c #725A4A",
"N  c #6B5D54",
"B  c #655B54",
"V  c #785D51",
"C  c #6B6054",
"Z  c #7D6256",
"A  c #72665D",
"S  c #515964",
"D  c #595D63",
"F  c #4F547A",
"G  c #4F5579",
"H  c #645D63",
"J  c #5C6777",
"K  c #5C626A",
"L  c #616468",
"P  c #616A75",
"I  c #6E6F70",
"U  c #6A7379",
"Y  c #737274",
"T  c #7B7B7B",
"R  c #77777A",
"E  c #777563",
"W  c #836E32",
"Q  c #837234",
"!  c #8B7434",
"~  c #8E7F39",
"^  c #85763C",
"/  c #967F38",
"(  c #867A40",
")  c #95725F",
"_  c #8C6B5A",
"`  c #A47E4D",
"'  c #8A6E62",
"]  c #987763",
"[  c #8E7E71",
"{  c #A97F68",
"}  c #938239",
"|  c #9D8C3D",
" . c #98853A",
".. c #8A803A",
"X. c #A38C3C",
"o. c #A1873A",
"O. c #AA953F",
"+. c #B0983F",
"@. c #A99742",
"#. c #B49B42",
"$. c #AB9958",
"%. c #B19E51",
"&. c #B6A244",
"*. c #BEA946",
"=. c #BCAE48",
"-. c #BCA645",
";. c #BCAB52",
":. c #8D8878",
">. c #91847B",
",. c #9B8C67",
"<. c #A8816D",
"1. c #AD8878",
"2. c #AEA065",
"3. c #A5A173",
"4. c #C1AD4B",
"5. c #C5B34A",
"6. c #CDBC4D",
"7. c #CAB74B",
"8. c #D0BE4E",
"9. c #CBB454",
"0. c #C99578",
"q. c #D9BA68",
"w. c #E0BD77",
"e. c #D4C451",
"r. c #DBCC54",
"t. c #DBC759",
"y. c #E1CF5E",
"u. c #E2CF60",
"i. c #5A4D81",
"p. c #6B5882",
"a. c #737C86",
"s. c #6D7B8B",
"d. c #4646A6",
"f. c #7568A8",
"g. c #686CB1",
"h. c #7E7ECA",
"j. c #9F7F9A",
"k. c #877D87",
"l. c #7D8384",
"z. c #798492",
"x. c #7D89C3",
"c. c #85848C",
"v. c #87868B",
"b. c #8B8A99",
"n. c #A18F81",
"m. c #B69E8F",
"M. c #A79487",
"N. c #BAA393",
"B. c #848FBE",
"V. c #8E9DB9",
"C. c #8F9AA4",
"Z. c #A08FAC",
"A. c #99A5A8",
"S. c #97A6B6",
"D. c #A3A6A9",
"F. c #A5B1BD",
"G. c #AFB5B9",
"H. c #AFB3B7",
"J. c #CAA28F",
"K. c #D6A68C",
"L. c #C7A999",
"P. c #DEB39A",
"I. c #E6B598",
"U. c #E6B987",
"Y. c #CDB3A1",
"T. c #DBBAA5",
"R. c #D6A9A0",
"E. c #EABFA2",
"W. c #EBCBB6",
"Q. c #EDCFBA",
"!. c #E4C7B6",
"~. c #F2D2BC",
"^. c #F1C7B0",
"/. c #9FABD0",
"(. c #AAB9C6",
"). c #B6BEC4",
"_. c #BDBFC1",
"`. c #BAC3CB",
"'. c #AEC1D2",
"]. c #B7C5D3",
"[. c #C4C7C9",
"{. c #C3CEDB",
"}. c #D2D9DE",
"|. c #F3DFD5",
" X c #F4D7C1",
".X c #EFE4DF",
"XX c #CFDAE4",
"oX c #D6DAE6",
"OX c #DCE2E8",
"+X c #E8EAEC",
"@X c #E4E7EB",
"#X c #EBEEF1",
"$X c #EFF4F8",
"%X c #F2F4F5",
"&X c None",
/* pixels */
"&X&X&X&X&X&X&X&X&X&X&X&X&X&X&X&X&X&X&X&X&X&X&X&X&X&X&X&X&X&X&X&X",
"&X&X&X&X&X&X&X&X&X&X&X&X&X&X, # , &X&X&X&X&X&X&X&X&X&X&X&X&X&X&X",
"&X&X&X&X&X&X&X&X&X&X&X&X&X7 | X./ 0 + - O &X&X&X&X&X&X&X&X&X&X&X",
"&X&X&X&X&X&X&X&X&X&X&X&XX 9 5.7.*.O.} ! u 7 &X&X&X&X&X&X&X&X&X&X",
"&X&X&X&X&X&X&X&X&X& & 0 y ^ e.e.6.6.6.4.O.i 7 &X&X&X&X&X&X&X&X&X",
"&X&X&X&X&X&X&X&X&X7 9 } #.#.6.r.e.6.6.8.5.+.j s &X&X&X&X&X&X&X&X",
"&X&X&X&X&X&X&X&X1 | 4.5.-.#.9.r.e.*.*.6.6.%.k.F * &X&X&X&X&X&X&X",
"&X&X&X&X&X&X&X&X1 -.+.` W @.U.y.e.&.@.4.;.b.B.J * &X&X&X&X&X&X&X",
"&X&X&X&X&X&X&X&X1 X.t 1 # m U.y.e.-.,.b.A.V.x.G * &X&X&X&X&X&X&X",
"&X&X&X&X&X&X&X&X< 0 +     j E.w.t.8.$.v.x.x.b.l X &X&X&X&X&X&X&X",
"&X&X&X&X&X&X&X&X&X- k A q j T.] ~ =.7.$.v.v.2.} 0 &X&X&X&X&X&X&X",
"&X&X&X&X&X&X&X&X&X> N.~.[ h n.k 8 @.e.X.W } | @. .7 &X&X&X&X&X&X",
"&X&X&X&X&X&X&X&X&X: N.~.[ ; k Y.K.q.5.^ 8 4 4 p +. ., &X&X&X&X&X",
"&X&X&X&X&X&X&X&XO ; <.K._ q L.Q.E.q...v G.[.).l.w } , &X&X&X&X&X",
"&X&X&X&X&X&X&X7 r ; i.f.g - N P.w.^ E [.#X%X@X].l.9 &X&X&X&X&X&X",
"&X&X&X&X&X&X9 Q o.t s p.x   O M =.3.c.T R T `.$XG.> &X&X&X&X&X&X",
"&X&X&X&X&X. t @.Q t @ ] ' < B H ( :.T B N M >.D.T - &X&X&X&X&X&X",
"&X&X&X&X&XX y ~ + o * ' V k !.T.v a >.Q.W.J.j > 3 X &X&X&X&X&X&X",
"&X&X&X&X&X$ t ^ * &X&X: X k T. Xf.Z.W.W.I.j X c s.= &X&X&X&X&X&X",
"&X&X&X&X&X&X7 7 &X&X* . h a.H f.Z.R.^.J.k ;   L A.: &X&X&X&X&X&X",
"&X&X&X&X&X&X&X&Xo = S P U c $ s b V Z Z M ,   I [.P 6 &X&X&X&X&X",
"&X&X&X&X&X&X&Xf L I F./.G ; b e O 8 l ' 0.8   Y @XS.3 &X&X&X&X&X",
"&X&X&X&X&X&Xf R oX#XoXh.d j R.{ b M.~.P.{ 7 - c.#X(.5 &X&X&X&X&X",
"&X&X&X&X&Xo R +X#X).g.d.d a z.k m.^.^.1.: X J ].OXS.5 &X&X&X&X&X",
"&X&X&X&X&X. T #X).c 2 2 % $ c G.W.I.] 1 X X z.XXF.h &X&X&X&X&X&X",
"&X&X&X&X&X. c.[.D &X&X&Xo 3 a.XX.X|.v.  O U F.C.c &X&X&X&X&X&X&X",
"&X&X&X&X&X&XH Y &X&X&X&Xh s.'.'.{.D.v   X D P c &X&X&X&X&X&X&X&X",
"&X&X&X&X&X&X&X&X&X&X&X& K {.OX'.(.S X * X X o &X&X&X&X&X&X&X&X&X",
"&X&X&X&X&X&X&X&X&X&X&X. T %X%XXX(.c * &X&X&X&X&X&X&X&X&X&X&X&X&X",
"&X&X&X&X&X&X&X&X&X&X&X. E @X}.S.h $ X X o o &X&X&X&X&X&X&X&X&X&X",
"&X&X&X&X&X&X&X&X&X&X&X* < h h 5 $ .   X &X&X&X&X&X&X&X&X&X&X&X&X",
"&X&X&X&X&X&X&X&X&X&X&X&X&X&X&X&X&X&X&X&X&X&X&X&X&X&X&X&X&X&X&X&X"
};
