/* XPM */
static char *result[] = {
/* columns rows colors chars-per-pixel */
"32 32 171 2 ",
"   c #181517",
".  c #1C161C",
"X  c #1B1A1D",
"o  c #20141F",
"O  c #221C1F",
"+  c #2C291D",
"@  c #211521",
"#  c #2B1E26",
"$  c #2D162D",
"%  c #2D1D2F",
"&  c #301E29",
"*  c #321F32",
"=  c #2B2122",
"-  c #2C2820",
";  c #24222B",
":  c #272421",
">  c #352728",
",  c #3F3A25",
"<  c #3A3023",
"1  c #2C2532",
"2  c #2C2A33",
"3  c #352939",
"4  c #38273D",
"5  c #2F3139",
"6  c #37363A",
"7  c #413526",
"8  c #403A25",
"9  c #42342B",
"0  c #473A2B",
"q  c #503C2D",
"w  c #422638",
"e  c #474228",
"r  c #57452C",
"t  c #5B502F",
"y  c #5D543A",
"u  c #60572E",
"i  c #645A2E",
"p  c #655F38",
"a  c #696439",
"s  c #746332",
"d  c #776737",
"f  c #3F2D45",
"g  c #333641",
"h  c #42334A",
"j  c #463E4F",
"k  c #3F404C",
"l  c #3E4146",
"z  c #3D4350",
"x  c #44454A",
"c  c #4B444F",
"v  c #474849",
"b  c #4D4A4E",
"n  c #424243",
"m  c #524552",
"M  c #615942",
"N  c #6B6443",
"B  c #706B42",
"V  c #63635B",
"C  c #797351",
"Z  c #454B63",
"A  c #4F5660",
"S  c #5B5764",
"D  c #5D5E63",
"F  c #565468",
"G  c #4D5872",
"H  c #515A78",
"J  c #586474",
"K  c #6E6A60",
"L  c #646877",
"P  c #656D7F",
"I  c #6F757E",
"U  c #707176",
"Y  c #787C78",
"T  c #84743B",
"R  c #897C3B",
"E  c #887637",
"W  c #937D38",
"Q  c #9D833B",
"!  c #96843E",
"~  c #A3893B",
"^  c #AA913F",
"/  c #9C8F55",
"(  c #A28D41",
")  c #A69644",
"_  c #AD9741",
"`  c #AC9B43",
"'  c #B59F45",
"]  c #B4A446",
"[  c #B9A344",
"{  c #BEA847",
"}  c #BCAB4B",
"|  c #B3A76A",
" . c #B9AF78",
".. c #B6AC72",
"X. c #BDB372",
"o. c #C1AD49",
"O. c #C1AD47",
"+. c #C4B54D",
"@. c #CAB74C",
"#. c #C7B84E",
"$. c #CEBC4E",
"%. c #C7B754",
"&. c #CCBC56",
"*. c #D2C14F",
"=. c #D5C452",
"-. c #DCCC54",
";. c #DBCD5E",
":. c #D3C458",
">. c #DFD056",
",. c #E2D357",
"<. c #E2D458",
"1. c #5A6888",
"2. c #5B6892",
"3. c #706F8A",
"4. c #6B7182",
"5. c #7B7C91",
"6. c #6574A0",
"7. c #7E828C",
"8. c #778DAF",
"9. c #7689A2",
"0. c #7C8CC1",
"q. c #838585",
"w. c #898C89",
"e. c #9D9586",
"r. c #838792",
"t. c #8B9298",
"y. c #98999D",
"u. c #A29C8A",
"i. c #A7A083",
"p. c #8887A1",
"a. c #8C8FA7",
"s. c #8483A4",
"d. c #8E95A5",
"f. c #989BA0",
"g. c #888FB3",
"h. c #8790B6",
"j. c #94A5B7",
"k. c #AAB0B8",
"l. c #BEBEBD",
"z. c #B4B6BA",
"x. c #8393C3",
"c. c #889AC3",
"v. c #A5B7C6",
"b. c #B5BDC4",
"n. c #BEC1C6",
"m. c #BCC6CF",
"M. c #BAC6D1",
"N. c #BEC8D1",
"B. c #C4C2C5",
"V. c #C3C8CF",
"C. c #CDCDCD",
"Z. c #C4CDD5",
"A. c #C5D3DE",
"S. c #CBD3DA",
"D. c #D3D4D6",
"F. c #D4D9DE",
"G. c #DADADB",
"H. c #C7D5E1",
"J. c #D1DCE6",
"K. c #DCE4EB",
"L. c #D5E0E8",
"P. c #E4E5E5",
"I. c #E5E8EC",
"U. c #EBEEF1",
"Y. c #EFF1F4",
"T. c #F4F5F6",
"R. c #F8F8F7",
"E. c #F7F7F8",
"W. c #F6F8F8",
"Q. c #F9F9F9",
"!. c None",
/* pixels */
"!.!.!.!.!.!.!.!.!.!.!.!.!.!.!.!.!.!.!.!.!.!.!.!.!.!.!.!.!.!.!.!.",
"!.!.!.!.!.!.!.!.!.!.!.!.!.!.!.!.!.!.!.!.!.!.!.!.!.!.!.!.!.!.!.!.",
"!.!.!.!.!.!.!.!.!.!.!.!.< , 7 q !.0 7 !.!.!.!.!.!.!.!.!.!.!.!.!.",
"!.!.!.!.!.!.!.!.!.!.!.w s ^ ^ ^ ~ ^ Q r w !.!.!.!.!.!.!.!.!.!.!.",
"!.!.!.!.!.!.!.!.!.!.= d ^ O.$.@.O.@.' Q q * !.!.!.!.!.!.!.!.!.!.",
"!.!.!.!.!.!.!.!.!.!.: R O.*.>.>.-.-.%.) t * !.!.!.!.!.!.!.!.!.!.",
"!.!.!.!.!.!.!.!.!.4 P 5.| -.,.,.,.>.=.| 5.F !.!.!.!.!.!.!.!.!.!.",
"!.!.!.!.!.!.!.!.!.2 9.x.d.X.,.,.,.;.u.g.x.J @ !.!.!.!.!.!.!.!.!.",
"!.!.!.!.!.!.!.!.!.1 6.x.a. .,.,.,.;.u.h.0.G @ !.!.!.!.!.!.!.!.!.",
"!.!.!.!.!.!.!.!.!.1 3.p...-.,.,.,.,.:.e.s.F o !.!.!.!.!.!.!.!.!.",
"!.!.!.!.!.!.!.!.!.> ) &.>.,.<.,.,.,.,.:.%.d . !.!.!.!.!.!.!.!.!.",
"!.!.!.!.!.!.!.!.!.9 ] -.,.,.,.<.,.,.,.>.-.T > !.!.!.!.!.!.!.!.!.",
"!.!.!.!.!.!.!.!.9 ( =.,.,.,.<.<.,.,.,.,.<.o.d & !.!.!.!.!.!.!.!.",
"!.!.!.!.!.!.!.!.0 ] -.-.-.,.<.<.,.,.-.>.<.=.R # !.!.!.!.!.!.!.!.",
"!.!.!.!.!.!.!.9 T #.=.*.-.,.,.,.,.>.*.-.<.=.R # !.!.!.!.!.!.!.!.",
"!.!.!.!.!.!.!., ' #.+.*.>.,.,.,.>.-.-.>.,.$./ S !.!.!.!.!.!.!.!.",
"!.!.!.!.!.!.!.8 [ ^ [ =.,.,.,.>.-.*.>.>.-.^ C L 3 !.!.!.!.!.!.!.",
"!.!.!.!.!.!.!.8 ) E [ -.,.,.,.-.*.=.>.>.} i O 1 !.!.!.!.!.!.!.!.",
"!.!.!.!.!.!.!.9 s 7 ] -.,.,.-.@.@.-.>.+.B 5 3 !.!.!.!.!.!.!.!.!.",
"!.!.!.!.!.!.!.!.+ + ) $.=.@.[ ^ $.>.+.a I j.4.% !.!.!.!.!.!.!.!.",
"!.!.!.!.!.!.!.!.. > W { O.T , u #.+.a I v.H.t.2 !.!.!.!.!.!.!.!.",
"!.!.!.!.!.!.!.!.6 q.y W s V A e ` a w.m.L.L.N.7.3 !.!.!.!.!.!.!.",
"!.!.!.!.!.!.!.h r.J.t.p K k.b.Y N q.J.Y.U.I.L.N.4.h !.!.!.!.!.!.",
"!.!.!.!.!.!.!.j b.Y.I.f.b.T.E.D.f.S.T.R.W.T.K.A.M.I h !.!.!.!.!.",
"!.!.!.!.!.!.!.x Z.E.E.U.T.Q.Q.Q.E.K.U.T.R.R.U.S.A.v.k !.!.!.!.!.",
"!.!.!.!.!.!.!.v F.E.W.E.D.l.l.C.E.E.I.T.E.E.E.U.N.a.j !.!.!.!.!.",
"!.!.!.!.!.!.!.c B.T.E.G.U 5 5 D C.G.U.R.R.R.Q.T.B.m !.!.!.!.!.!.",
"!.!.!.!.!.!.!.!.S V.Z.D Z 1.2.H 6 h z.P.P.P.I.B.m !.!.!.!.!.!.!.",
"!.!.!.!.!.!.!.!.!.c x ; ; G 8.1.X X 6 v b b b m !.!.!.!.!.!.!.!.",
"!.!.!.!.!.!.!.!.!.!.!.!.X 5 z g X     X $ !.!.!.!.!.!.!.!.!.!.!.",
"!.!.!.!.!.!.!.!.!.!.!.!.!.!.!.!.!.!.!.!.!.!.!.!.!.!.!.!.!.!.!.!.",
"!.!.!.!.!.!.!.!.!.!.!.!.!.!.!.!.!.!.!.!.!.!.!.!.!.!.!.!.!.!.!.!."
};
