/* XPM */
static char *result[] = {
/* columns rows colors chars-per-pixel */
"32 32 195 2 ",
"   c #3C7D30",
".  c #407936",
"X  c #437937",
"o  c #48733F",
"O  c #487939",
"+  c #567E3B",
"@  c #597E3C",
"#  c #547245",
"$  c #5F714B",
"%  c #AA633F",
"&  c #886A66",
"*  c #E2767C",
"=  c #3C921E",
"-  c #3E931E",
";  c #388725",
":  c #378923",
">  c #398D21",
",  c #3C8925",
"<  c #459B1B",
"1  c #469C1A",
"2  c #4B9A1E",
"3  c #4D9C1E",
"4  c #519C1F",
"5  c #53A51A",
"6  c #5BA51D",
"7  c #5FA51F",
"8  c #5FA81D",
"9  c #62A71F",
"0  c #69AA1F",
"q  c #68B318",
"w  c #68B418",
"e  c #6BB919",
"r  c #73B41D",
"t  c #74B71D",
"y  c #7AB71E",
"u  c #7FB61F",
"i  c #7EB71F",
"p  c #7FB71F",
"a  c #75B91A",
"s  c #77B91B",
"d  c #78BA1B",
"f  c #7AB81E",
"g  c #7DB81E",
"h  c #7EB91F",
"j  c #7FB91F",
"k  c #498E27",
"l  c #41862B",
"z  c #4A872D",
"x  c #48882B",
"c  c #528F2C",
"v  c #449321",
"b  c #469222",
"n  c #469124",
"m  c #4A9620",
"M  c #4C9622",
"N  c #4F9623",
"B  c #5A9727",
"V  c #509822",
"C  c #539823",
"Z  c #539923",
"A  c #559923",
"S  c #579B23",
"D  c #579F20",
"F  c #5B9F22",
"G  c #5C9F23",
"H  c #5B902F",
"J  c #478430",
"K  c #5A8A32",
"L  c #5D8C32",
"P  c #619D2B",
"I  c #739F2E",
"U  c #70893E",
"Y  c #619230",
"T  c #6A9631",
"R  c #7A9E33",
"E  c #72903A",
"W  c #5CA022",
"Q  c #61A222",
"!  c #62A222",
"~  c #66A721",
"^  c #64A422",
"/  c #64A522",
"(  c #65A622",
")  c #67A325",
"_  c #65A126",
"`  c #68A722",
"'  c #6BAA21",
"]  c #6DAA22",
"[  c #71AD21",
"{  c #72AD22",
"}  c #73AE22",
"|  c #74AF21",
" . c #74AE22",
".. c #76AF22",
"X. c #7AAE25",
"o. c #75A62A",
"O. c #72B020",
"+. c #74B021",
"@. c #79B221",
"#. c #7AB321",
"$. c #79B222",
"%. c #79B420",
"&. c #7BB421",
"*. c #7BB422",
"=. c #7DB521",
"-. c #7FB620",
";. c #7EB720",
":. c #7FB720",
">. c #7FB721",
",. c #70B821",
"<. c #758345",
"1. c #80B621",
"2. c #80B721",
"3. c #81B721",
"4. c #81B920",
"5. c #81B821",
"6. c #82B920",
"7. c #82B821",
"8. c #83B821",
"9. c #82B921",
"0. c #83B921",
"q. c #81BA21",
"w. c #82BA20",
"e. c #82B822",
"r. c #84BA23",
"t. c #82B824",
"y. c #86BB25",
"u. c #84B926",
"i. c #86BC24",
"p. c #88BC2C",
"a. c #90BF2C",
"s. c #80A232",
"d. c #87A93D",
"f. c #94BD33",
"g. c #84C51E",
"h. c #89C722",
"j. c #8AC722",
"k. c #8DCA24",
"l. c #8DC029",
"z. c #94D227",
"x. c #91C932",
"c. c #99C831",
"v. c #9BCB31",
"b. c #A1C03C",
"n. c #A9CC3E",
"m. c #DBDD36",
"M. c #DFE439",
"N. c #83884A",
"B. c #8A9D4A",
"V. c #919646",
"C. c #8B8450",
"Z. c #A79B58",
"A. c #91A942",
"S. c #A6B944",
"D. c #AEBD4A",
"F. c #B4B753",
"G. c #BFB45E",
"H. c #CD8A51",
"J. c #D3A645",
"K. c #D4A049",
"L. c #DEB84E",
"P. c #DCA855",
"I. c #DEA957",
"U. c #E1A15D",
"Y. c #E48F6C",
"T. c #E29465",
"R. c #E5936A",
"E. c #E79E6C",
"W. c #E48371",
"Q. c #C1A169",
"!. c #C4A868",
"~. c #CDA471",
"^. c #E2A862",
"/. c #EDAE6C",
"(. c #EDA774",
"). c #EFA674",
"_. c #B6C150",
"`. c #E1CF47",
"'. c #E0C749",
"]. c #E67285",
"[. c #E87281",
"{. c #F36C9B",
"}. c #E07A93",
"|. c #F27F93",
" X c #F5749C",
".X c #F364A2",
"XX c #F762AC",
"oX c #F48D8D",
"OX c #F59A87",
"+X c #F8978F",
"@X c #F69B8A",
"#X c #F4A382",
"$X c #F5A085",
"%X c #F5A185",
"&X c None",
/* pixels */
"&X&X&X&X&X&X&X&X&X&X&X&X&X&X&X&X&X&X&X&X&X&X&X&X&X&X&X&X&X&X&X&X",
"&X&X&X&X&X&X&X&X&X&X&X&X&X&X&X&X&X&X&X&X&X&X&X&X&X&X&X&X&X&X&X&X",
"&X&X&X&X&X&X&X&X&X&X&X&X&X&X&X&X&X&X&X&X&X&X&X&X&X&X&X&X&X&X&X&X",
"&X&X&X&X&X&X&X&X&X&X&X&X&X&X&X/.).&X&X&X&X&X&X&X&X&X&X&X&X&X&X&X",
"&X&X&X&X&X&X&X&X&X&X&X&X&XOX{.U.R. X%X&X&X&X&X&X&X&X&X&X&X&X&X&X",
"&X&X&X&X&X&X&X&X&X&X&X&X&X.XT.`.'.Y.&X&X&X&X&X&X&X&X&X&X&X&X&X&X",
"&X&X&X&X&X&X&X&X&X&X&X&X&X&XJ.M.m.K.&X&X&X&X&X&X&X&X&X&X&X&X&X&X",
"&X&X&X&X&X&X&X&X&X&X&X&X&X|.* L.I.].oX&X&X&X&X&X&X&X&X&X&X&X&X&X",
"&X&X&X&X&X&X&X&X&X&X&X&X&X@X&XW.[.XX$X&X&X&X&X&X&X&X&X&X&X&X&X&X",
"&X&X&X&X&X&X&X&X&X&X&X&X&X&X&X&X&X&X&X&X&X&X&X&X&X&X&X&X&X&X&X&X",
"&X&X&X&X&X&X&X&X&X&X&X&X&X&X&XC.&X&X&X&X&X&X&X&X&X&X&X&X&X&X&X&X",
"&X&X&X&X&X&X&X&X&X&X&X&X&X&X&XI T &X&X&X&X&X&X&X&X&X&X&X&X&X&X&X",
"&X&X&X&X&X&X&X&X&X&X&X&X&X&XY w 5 O &X&X&X&X&X&X&X&X&X&X&X&X&X&X",
"&X&X&X&X&X&X&X&X&X&X&X&X&X&XR s 8 @ &X&X&X&X&X&X&X&X&X&X&X&X&X&X",
"&X&X&X&X&X&X&X&X&X&X&X&X&XH +.6.' n X &X&X&X&X&X&X&X&X&X&X&X&X&X",
"&X&X&X&X&X&X&X&X&X&X&X&X&X) a 8.] < J &X&X&X&X&X&X&X&X&X&X&X&X&X",
"&X&X&X&X&X&X&X&X&X&X&X&XU X.h 3.@.9 c # &X&X&X&X&X&X&X&X&X&X&X&X",
"&X&X&X&X&X&X&X&X&X&X&X&X6 f 7.2.9...3 ; &X&X&X&X&X&X&X&X&X&X&X&X",
"&X&X&X&X&X&X&X&X&X&X&XN.O.g 1.2.7. .4 k &X&X&X&X&X&X&X&X&X&X&X&X",
"&X&X&X&X&X&X&X&X&X&X&X_ ;.5.r.e.5.| F V l &X&X&X&X&X&X&X&X&X&X&X",
"&X&X&X&X&X&X&X&X&X&XE q p y.c.l.:.=.{ D = $ &X&X#X&X&X&X&X&X&X&X",
"&X&X&X&X&X+X&X&X&X&Xs.y :.t.p.u.>.7.*.W M + &X&XP.&X&X&X&X&X&X&X",
"&X&X&X&X&X^.E.&X&Xo.d 5.7.#.! [ 5.7.$.G Z - . &X&X&X&X&X&X&X&X&X",
"&X&X&X&X&X&X&X&XB r 4.3.7.} N ` 0.7.&.^ S M >   &X&X&X&X&X&X&X&X",
"&X&X&X&X&X&X&XP t j 1.2.%.7 v ~ 7.2.2.#.Q C m , o &X&X&X&X&X&X&X",
"&X&X&X&X&X&Xd.x.v.i.i %.( b : / w.2.5.>.^ A 2 z &X&X&X&X&X&X&X&X",
"&X&X&X&X&X&XZ.~.Q.b.z.,.L &X&XA.j.i -.>.} Q 1 x &X&X&X&X&X&X&X&X",
"&X&X&X&X&X&X&X&X&X!.G.B.&X&X&X&XS.k.h.q.u 0 K & }.&X&X&X&X&X&X&X",
"&X&X&X&X&X&X&X&X&X&X&X&X&X&X&X&X&X_.D.a.g.e <.&X(.&X&X&X&X&X&X&X",
"&X&X&X&X&X&X&X&X&X&X&X&X&X&X&X&X&X&X&XF.n.f.V.&XH.&X&X&X&X&X&X&X",
"&X&X&X&X&X&X&X&X&X&X&X&X&X&X&X&X&X&X&X&X&X&X&X&X% &X&X&X&X&X&X&X",
"&X&X&X&X&X&X&X&X&X&X&X&X&X&X&X&X&X&X&X&X&X&X&X&X&X&X&X&X&X&X&X&X"
};
