/* XPM */
static char *result[] = {
/* columns rows colors chars-per-pixel */
"32 32 201 2 ",
"   c #151415",
".  c #1A141C",
"X  c #1C191B",
"o  c #171718",
"O  c #201C1F",
"+  c #25221E",
"@  c #29311F",
"#  c #1E1E29",
"$  c #241525",
"%  c #231A24",
"&  c #291E25",
"*  c #29162B",
"=  c #2B1A2B",
"-  c #251A2B",
";  c #301E2E",
":  c #2F1B30",
">  c #331C34",
",  c #381A39",
"<  c #2A2525",
"1  c #2D2A25",
"2  c #2C2C2C",
"3  c #26212D",
"4  c #362A2D",
"5  c #3A342C",
"6  c #373225",
"7  c #2C2632",
"8  c #352431",
"9  c #3D263B",
"0  c #362A36",
"q  c #373434",
"w  c #3A3B3C",
"e  c #3C3635",
"r  c #493F2D",
"t  c #452E36",
"y  c #463439",
"u  c #484735",
"i  c #594A37",
"p  c #43513F",
"a  c #5B5233",
"s  c #5A5639",
"d  c #4D452B",
"f  c #614E39",
"g  c #65573C",
"h  c #635B38",
"j  c #695C39",
"k  c #67613A",
"l  c #6C663D",
"z  c #756B3D",
"x  c #61783B",
"c  c #3E3E41",
"v  c #3F2C54",
"b  c #3D3450",
"n  c #3E3C7B",
"m  c #4C344E",
"M  c #4D2850",
"N  c #553E59",
"B  c #482D4C",
"V  c #3E425A",
"C  c #444345",
"Z  c #48474A",
"A  c #564944",
"S  c #5A5648",
"D  c #4A4953",
"F  c gray32",
"G  c #665C5B",
"H  c #726741",
"J  c #677C40",
"K  c #7C7444",
"L  c #69665A",
"P  c #7A6053",
"I  c #76655C",
"U  c #627F57",
"Y  c #78775B",
"T  c #524F6A",
"R  c #4E5171",
"E  c #52536A",
"W  c #615666",
"Q  c #675868",
"!  c #5B6274",
"~  c #68666B",
"^  c #637062",
"/  c #7C726E",
"(  c #706B78",
")  c #6F7274",
"_  c #777577",
"`  c #826D3B",
"'  c #867643",
"]  c #806456",
"[  c #877567",
"{  c #877876",
"}  c #977A70",
"|  c #748945",
" . c #749351",
".. c #898247",
"X. c #9D8B49",
"o. c #968446",
"O. c #819E52",
"+. c #9E9450",
"@. c #A4934D",
"#. c #AA964D",
"$. c #AC9A51",
"%. c #A69851",
"&. c #91A44D",
"*. c #94B153",
"=. c #9CB052",
"-. c #89A856",
";. c #AEA255",
":. c #B4A354",
">. c #B9A756",
",. c #BAA956",
"<. c #BCAC5B",
"1. c #B6A358",
"2. c #BFB35C",
"3. c #8A856F",
"4. c #82837E",
"5. c #9F8579",
"6. c #918763",
"7. c #AD9E61",
"8. c #A28779",
"9. c #A98B7C",
"0. c #B18972",
"q. c #B8AC68",
"w. c #B1B56F",
"e. c #B9AF74",
"r. c #A8A965",
"t. c #C3B35C",
"y. c #C9BC5F",
"u. c #C6B85D",
"i. c #C4B961",
"p. c #C9BE60",
"a. c #C3BB6E",
"s. c #C6BE76",
"d. c #CFC262",
"f. c #CDC36A",
"g. c #D2C564",
"h. c #D6CA66",
"j. c #D8CA68",
"k. c #DBC57F",
"l. c #51578F",
"z. c #777982",
"x. c #69648E",
"c. c #635EA7",
"v. c #7677A0",
"b. c #7D87BC",
"n. c #818489",
"m. c #86878A",
"M. c #8E9D89",
"N. c #888697",
"B. c #908E90",
"V. c #969798",
"C. c #978A8B",
"Z. c #A49888",
"A. c #AF9E95",
"S. c #B6A599",
"D. c #B7A596",
"F. c #BEBC96",
"G. c #A8A288",
"H. c #8D81A4",
"J. c #9B8FA1",
"K. c #8B98A8",
"L. c #9B9EA4",
"P. c #848AB9",
"I. c #8890BC",
"U. c #9397B6",
"Y. c #A88DA1",
"T. c #B399AD",
"R. c #9FA6AC",
"E. c #A4A4A6",
"W. c #B3AFAD",
"Q. c #A6ADB6",
"!. c #B8A8BB",
"~. c #ABB1B8",
"^. c #B6B7BA",
"/. c #CAAC9E",
"(. c #CDA884",
"). c #DDBCAA",
"_. c #CDBAA8",
"`. c #E6BBA4",
"'. c #B2C3B4",
"]. c #E6C697",
"[. c #D6CABB",
"{. c #DCD0B7",
"}. c #E1C1AE",
"|. c #E5C9B8",
" X c #EED3BC",
".X c #F2D3BD",
"XX c #9D9FC4",
"oX c #A7B2C0",
"OX c #B2BBC6",
"+X c #B9C1C8",
"@X c #C2C5C9",
"#X c #CBD3DC",
"$X c #D5D8D9",
"%X c #C1CBD8",
"&X c #EED8C6",
"*X c #EEE2DC",
"=X c #DDE3E9",
"-X c #E3E6EA",
";X c #EBEBED",
":X c #E8EDF1",
">X c None",
/* pixels */
">X>X>X>X>X>X>X>X>X>X>X>X>X>X>X>X>X>X>X>X>X>X>X>X>X>X>X>X>X>X>X>X",
">X>X>X>X>X>X>X>X>X>X>X>X>X>X>X>X>X>X>X>X>X>X>X>X>X>X>X>X>X>X>X>X",
">X>X>X>X>X>X>X>X>X>X>X% X X ; >X>X>X>X>X>X>X>X>X>X>X>X>X>X>X>X>X",
">X>X>X>X>X>X>X>X>X>X8 j z z f = $ = >X>X>X>X>X>X>X>X>X>X>X>X>X>X",
">X>X>X>X>X>X>X>X>X. + X.t.,.X.k h d t >X>X>X>X>X>X>X>X>X>X>X>X>X",
">X>X>X>X>X>X>X>X4 d d $.g.y.t.t.>.X.a t >X>X>X>X>X>X>X>X>X>X>X>X",
">X>X>X>X>X>X>Xt j #.@.t.h.h.y.u.y.t.#.A v >X>X>X>X>X>X>X>X>X>X>X",
">X>X>X>X>X>X. a $.t.#.t.h.h.t.:.y.y.7.N.R * >X>X>X>X>X>X>X>X>X>X",
">X>X>X>X>X>Xo h ,.o.` (.].d.2.#.<.q.N.b.! % >X>X>X>X>X>X>X>X>X>X",
">X>X>X>X>X>X  k <.` r /.[ ..d.q.N.R.I.XXR - >X>X>X>X>X>X>X>X>X>X",
">X>X>X>X>X>Xo k ,.` 6 D.G 6 ..a.G.P.P.V.6.g = >X>X>X>X>X>X>X>X>X",
">X>X>X>X>X>X>XA ' o.5 D.( D 3.i.f.Z.B.e.y.@.g 9 >X>X>X>X>X>X>X>X",
">X>X>X>X>X>X>X>Xu ' 5 S.v.b.[.$.g.2.u.d.g.g.$.a r y >X>X>X>X>X>X",
">X>X>X>X>X>X>X>X>X< < S.U.XX{.1.d.+.%.;.i.j.d.>.$.g 0 >X>X>X>X>X",
">X>X>X>X>X>X>X>X>X>X8 A.[.|.].j.<.s e e K i.g.t.>.$.j t >X>X>X>X",
">X>X>X>X>X>X>X>X>X>X>XA Z.|.].i.s V.^.~._ l p.p.#.$.#.l ; >X>X>X",
">X>X>X>X>X>X>X>X>X>X9 n._ Y r.e.V.#X=X:X@X4.H d.2.K ' ' & >X>X>X",
">X>X>X>X>X>X>X>X>X>X9 ) U x &.f.$X=X:X~.m.~ @ H u.s 6 i >X>X>X>X",
">X>X>X>X>X>X>X>X>X>X>Xu | *.=.w.$X=X'./ e o o + +.s % , >X>X>X>X",
">X>X>X>X>X>X>X>X>X>X& | *.*.-.-.'.+XL 9.5.q o + K s >X>X>X>X>X>X",
">X>X>X>X>X>X>X>X>X3 1 J  .O. . . .V } ).&XC.3 o < >X>X>X>X>X>X>X",
">X>X>X>X>X>X>X>Xb x.} u @ ^ K.l.l.3 5 9.T.c.n - >X>X>X>X>X>X>X>X",
">X>X>X>X>X>X>XG A.!.H.c   p M.!.C.e   5 { !.J.7 >X>X>X>X>X>X>X>X",
">X>X>X>X>X>X. I |./.T #   S F. X`.] &   I .X_.8 $ >X>X>X>X>X>X>X",
">X>X>X>X>X>Xo i } P @ F G 9.&X).9.0.P G / 5.{ 2 D N >X>X>X>X>X>X",
">X>X>X>X>X>Xo 7 Z m C @X*X&X|.8.5 ] ).*XL.c w 2 E.z.m >X>X>X>X>X",
">X>X>X>X>X>X. ~ $X$XoX#X:X;XE.1 X 6 W.$XOXQ.L.e ~.$Xz.> >X>X>X>X",
">X>X>X>X>X>X>Xm _ -X=XOX#XR.5 X X # r 5 b.Q.C 7 ~.:XN.> >X>X>X>X",
">X>X>X>X>X>X>X>XN Q ~ K.[.b.= >X>X>X>X$ ) E.7 M Q OXB.8 >X>X>X>X",
">X>X>X>X>X>X>X>X>X>XB D F C > >X>X>X>X= w W >X>X>XQ Q >X>X>X>X>X",
">X>X>X>X>X>X>X>X>X>X>X>X# $ >X>X>X>X>X>X* >X>X>X>X>X>X>X>X>X>X>X",
">X>X>X>X>X>X>X>X>X>X>X>X>X>X>X>X>X>X>X>X>X>X>X>X>X>X>X>X>X>X>X>X"
};
