/* XPM */
static char *result[] = {
/* columns rows colors chars-per-pixel */
"32 32 197 2 ",
"   c #1D161D",
".  c #1C1C1C",
"X  c #161819",
"o  c #231C1D",
"O  c #1F301A",
"+  c #1D2C18",
"@  c #2B281C",
"#  c #3B361C",
"$  c #302B18",
"%  c #1F1421",
"&  c #221423",
"*  c #231B21",
"=  c #2B1A27",
"-  c #242324",
";  c #292627",
":  c #2D2B26",
">  c #2C232C",
",  c #2E2B2C",
"<  c #272725",
"1  c #372C23",
"2  c #39332E",
"3  c #393328",
"4  c #312B33",
"5  c #362738",
"6  c #3B3735",
"7  c #3D303E",
"8  c #423423",
"9  c #4C3A25",
"0  c #483B36",
"q  c #36681E",
"w  c #584B1E",
"e  c #4D421E",
"r  c #665C1F",
"t  c #547B1C",
"y  c #574A24",
"u  c #5F5029",
"i  c #675820",
"p  c #685926",
"a  c #634A28",
"s  c #51633D",
"d  c #4A7521",
"f  c #7B6B25",
"g  c #252642",
"h  c #3F2D40",
"j  c #34384C",
"k  c #2F245C",
"l  c #344757",
"z  c #39434B",
"x  c #45484B",
"c  c #544842",
"v  c #5A4F49",
"b  c #484E53",
"n  c #584956",
"m  c #525255",
"M  c #5A5B5C",
"N  c #47525D",
"B  c #674E45",
"V  c #6D5950",
"C  c #576749",
"Z  c #69665D",
"A  c #78655B",
"S  c #7C785A",
"D  c #514F6E",
"F  c #675F6B",
"G  c #527D6F",
"H  c #566D69",
"J  c #696867",
"K  c #696A73",
"L  c #7A797C",
"P  c #736E6C",
"I  c #896F22",
"U  c #8A7826",
"Y  c #937A25",
"T  c #957C4F",
"R  c #837269",
"E  c #8E746D",
"W  c #AA7E6E",
"Q  c #3E8C22",
"!  c #5E861B",
"~  c #468E28",
"^  c #518121",
"/  c #4C932D",
"(  c #609F20",
")  c #63953C",
"_  c #68A721",
"`  c #76B020",
"'  c #679C44",
"]  c #71A378",
"[  c #8C8228",
"{  c #918328",
"}  c #968A29",
"|  c #9F9128",
" . c #A88726",
".. c #A79129",
"X. c #B99E29",
"o. c #B29629",
"O. c #B49336",
"+. c #B59E38",
"@. c #AD9C31",
"#. c #81B820",
"$. c #BCA42C",
"%. c #BEAA2E",
"&. c #BBA33B",
"*. c #C4AD2C",
"=. c #C6B22F",
"-. c #CCB62E",
";. c #CDB82D",
":. c #CFBB31",
">. c #C9B631",
",. c #D1BE31",
"<. c #D5C332",
"1. c #DCCC33",
"2. c #D8C632",
"3. c #E3D535",
"4. c #978653",
"5. c #A08F5A",
"6. c #A59756",
"7. c #898467",
"8. c #968376",
"9. c #B58573",
"0. c #95AB6B",
"q. c #AEA872",
"w. c #D1B846",
"e. c #C49375",
"r. c #D7C75D",
"t. c #5A508F",
"y. c #515290",
"u. c #695D99",
"i. c #5C7397",
"p. c #636F81",
"a. c #737391",
"s. c #7779B6",
"d. c #706DAB",
"f. c #8373BE",
"g. c #8272A3",
"h. c #7B8690",
"j. c #7983B4",
"k. c #7B92B4",
"l. c #848484",
"z. c #808F9B",
"x. c #86929D",
"c. c #949498",
"v. c #908284",
"b. c #AA9284",
"n. c #B39B8B",
"m. c #A09C9F",
"M. c #BBB090",
"N. c #8999A5",
"B. c #909FAA",
"V. c #8A90B6",
"C. c #89AEA1",
"Z. c #98A1AA",
"A. c #9AA6B0",
"S. c #A3A3A3",
"D. c #AAAAAB",
"F. c #A6AAAC",
"G. c #ABB2B7",
"H. c #B9B7B6",
"J. c #A1AEBA",
"K. c #C69480",
"L. c #C6A999",
"P. c #D2AF8E",
"I. c #E7B591",
"U. c #D5B6A4",
"Y. c #D3BDBA",
"T. c #E9BBA4",
"R. c #FFBBA2",
"E. c #C9C095",
"W. c #E2C094",
"Q. c #DAC8BD",
"!. c #ECC6A9",
"~. c #F4C7AA",
"^. c #F1D0AD",
"/. c #E8C9B9",
"(. c #FACAB3",
"). c #F1CDB5",
"_. c #F5D2BD",
"`. c #E2D9AB",
"'. c #8F98C0",
"]. c #98AFC5",
"[. c #96B0C8",
"{. c #A1B7CA",
"}. c #B4BCC2",
"|. c #AEC2D4",
" X c #BEC8CE",
".X c #C8D5DF",
"XX c #D0D8DF",
"oX c #C6C6C6",
"OX c #ECD9D1",
"+X c #CFDEE8",
"@X c #CAD7E2",
"#X c #D3DEE8",
"$X c #D4E0E9",
"%X c #E5EAED",
"&X c #F5EFEB",
"*X c #EAEFF2",
"=X c None",
/* pixels */
"=X=X=X=X=X=X=X=X=X=X=X=X=X& =X=X& % & =X=X=X=X=X=X=X=X=X=X=X=X=X",
"=X=X=X=X=X=X=X=X=X=X=X=X9 e a =Xu y y 9 =X=X=X=X=X=X=X=X=X=X=X=X",
"=X=X=X=X=X=X=X=X=X=X=X# Y o. . .*.=.%.U 3 =X=X=X=X=X=X=X=X=X=X=X",
"=X=X=X=X=X=X=X=X=X=X1 Y X.X.X.:.1.1.2.=. .8 =X=X=X=X=X=X=X=X=X=X",
"=X=X=X=X=X=X=X=X=X% # @.:.,.2.1.2.:.:.:.%.U 9 =X=X=X=X=X=X=X=X=X",
"=X=X=X=X=X=X=X=Xp U } =.,.1.3.3.1.:.=.*.&.8.6 =X=X=X=X=X=X=X=X=X",
"=X=X=X=X=X=X=X* U 1.-.*.=.<.2.,.:.<.=.+.0.j.j =X=X=X=X=X=X=X=X=X",
"=X=X=X=X=X=X=X* { -. .I O.w.w.*.o.,.-.6.V.k.b 1 =X=X=X=X=X=X=X=X",
"=X=X=X=X=X=X=X* { ,.I 8 e.~.^.I.@.<.;.5.s.s.4.u * =X=X=X=X=X=X=X",
"=X=X=X=X=X=X=X* [ >.Y 3 e.(.OX!.O.-.;.&.T 6.&.i & =X=X=X=X=X=X=X",
"=X=X=X=X=X=X=X=Xu { ..@ B A b.U.p i | *.X...$.i & =X=X=X=X=X=X=X",
"=X=X=X=X=X=X=X=X=Xu f < m j J U.Z g S r.-. .%.[ y =X=X=X=X=X=X=X",
"=X=X=X=X=X=X=X=X=X= . < H.j.u.)./.y.].`.@.U ..%.{ - =X=X=X=X=X=X",
"=X=X=X=X=X=X=X=X5 < - : n.V.V._./.d.V.n.6 : # f { * =X=X=X=X=X=X",
"=X=X=X=X=X=X=X= K N.B.k.M v.Y._.OXY.E J h.A.N.J # o =X=X=X=X=X=X",
"=X=X=X=X=X=X5 L }.+X+X Xh.P 7.0.0.7.K h..X+X$XG.M * =X=X=X=X=X=X",
"=X=X=X=X=X=X=XK ] D.*X%Xh.C t ( ( t C x.*X*XZ.a.M o =X=X=X=X=X=X",
"=X=X=X=X=X=X=X= % m F.S.s ! #.` #.#.t C F.S.e : # . =X=X=X=X=X=X",
"=X=X=X=X=X=X=X=X& = 6 @ t _ ` ` ` ` _ d < 6 = i I o =X=X=X=X=X=X",
"=X=X=X=X=X=X=X=X& V n.: q / ~ ~ / ~ ^ q 7 n.u w f * =X=X=X=X=X=X",
"=X=X=X=X=X=X=X=X& A L.; O l i.C.C.i.l + 6 U.x o 8 =X=X=X=X=X=X=X",
"=X=X=X=X=X=X=X=Xk t.a.> V P ] ] ] G P u 4 d.y.= & =X=X=X=X=X=X=X",
"=X=X=X=X=X=X=X& D f.u.5 e.q.) Q Q ' P.9.4 d.f.D * =X=X=X=X=X=X=X",
"=X=X=X=X=X=X=X& W OXL.2 W !.M.) ) P.T.E 0 U.(.R & =X=X=X=X=X=X=X",
"=X=X=X=X=X=X=X5 8.~.K.: 2 b.).I.I.(.E : 8 L.^.R > =X=X=X=X=X=X=X",
"=X=X=X=X=X=X5 m.L c 0 ; c.Q.(.R.~.(.oXh.= y c l.c.> =X=X=X=X=X=X",
"=X=X=X=X=X=X4 oXA.z X ; H.&XOXY.Y.OX&XF.* X b G.H.; =X=X=X=X=X=X",
"=X=X=X=X=X=X, oXJ.N X - A.#X@X{.{.XX#XN.. . N  XG.= =X=X=X=X=X=X",
"=X=X=X=X=X=X4 B.K o . ; a.{.{.[.{.|.].K *   * a.c.> =X=X=X=X=X=X",
"=X=X=X=X=X=X=X0 =X=X=X=X5 c.@X{.{.XXl.5 =X=X=Xh h =X=X=X=X=X=X=X",
"=X=X=X=X=X=X=X=X=X=X=X=X=Xn m x b m n =X=X=X=X=X=X=X=X=X=X=X=X=X",
"=X=X=X=X=X=X=X=X=X=X=X=X=X=X& & & & =X=X=X=X=X=X=X=X=X=X=X=X=X=X"
};
