/* XPM */
static char *result[] = {
/* columns rows colors chars-per-pixel */
"32 32 173 2 ",
"   c #16120B",
".  c #1A150F",
"X  c #1B0C17",
"o  c #181611",
"O  c #1B1B15",
"+  c #1E1D1C",
"@  c #201713",
"#  c #201A11",
"$  c #241D1C",
"%  c #22111B",
"&  c #1F201C",
"*  c #23241B",
"=  c #26291B",
"-  c #2C2B1C",
";  c #2D231E",
":  c #36391D",
">  c #36331B",
",  c #291725",
"<  c #231F21",
"1  c #2B1A24",
"2  c #2A1628",
"3  c #2D1B2C",
"4  c #3A1D28",
"5  c #2D1D37",
"6  c #321D32",
"7  c #391D33",
"8  c #381E3A",
"9  c #262425",
"0  c #272824",
"q  c #2C232A",
"w  c #2E2723",
"e  c #332923",
"r  c #2B352B",
"t  c #323622",
"y  c #393428",
"u  c #343E21",
"i  c #2F2432",
"p  c #362035",
"a  c #3A203F",
"s  c #352F32",
"d  c #353136",
"f  c #50202E",
"g  c #5C2235",
"h  c #483E34",
"j  c #463C33",
"k  c #752C38",
"l  c #3D411F",
"z  c #3D4024",
"x  c #42421B",
"c  c #404722",
"v  c #404925",
"b  c #43452A",
"n  c #574F2B",
"m  c #5E4D2F",
"M  c #4E5523",
"N  c #595F27",
"B  c #545729",
"V  c #574A3D",
"C  c #5A5539",
"Z  c #6D4C34",
"A  c #5F632F",
"S  c #5F6533",
"D  c #606925",
"F  c #646728",
"G  c #636C2C",
"H  c #6B752D",
"J  c #69693C",
"K  c #6E7434",
"L  c #717836",
"P  c #707738",
"I  c #737336",
"U  c #3B1E40",
"Y  c #342242",
"T  c #3D2143",
"R  c #3D2C45",
"E  c #3D234B",
"W  c #352941",
"Q  c #363341",
"!  c #3B2654",
"~  c #432544",
"^  c #412D42",
"/  c #4A3747",
"(  c #493E40",
")  c #44384A",
"_  c #432655",
"`  c #462C56",
"'  c #432B5B",
"]  c #4A2959",
"[  c #4C3356",
"{  c #563E5A",
"}  c #60395C",
"|  c #442C61",
" . c #4B2C65",
".. c #4D2D69",
"X. c #452662",
"o. c #4E316E",
"O. c #533365",
"+. c #56346C",
"@. c #5F366F",
"#. c #5B3463",
"$. c #4F2E72",
"%. c #533272",
"&. c #5A3674",
"*. c #5F3877",
"=. c #563479",
"-. c #59367C",
";. c #5C397C",
":. c #6A3E6E",
">. c #633C7D",
",. c #673B74",
"<. c #434844",
"1. c #574A49",
"2. c #584548",
"3. c #4B4356",
"4. c #5D4C5F",
"5. c #665257",
"6. c #685650",
"7. c #616547",
"8. c #747745",
"9. c #7C7756",
"0. c #684A6F",
"q. c #624361",
"w. c #6F5169",
"e. c #6E5366",
"r. c #67417C",
"t. c #6D417C",
"y. c #6E4D79",
"u. c #7D497C",
"i. c #6F6860",
"p. c #786462",
"a. c #817E54",
"s. c #87557E",
"d. c #826F66",
"f. c #7B8537",
"g. c #788044",
"h. c #7F8057",
"j. c #8C953B",
"k. c #848B48",
"l. c #8D984D",
"z. c #878E54",
"x. c #8A8F50",
"c. c #948D57",
"v. c #878366",
"b. c #969C62",
"n. c #A3AA71",
"m. c #5F3980",
"M. c #633D82",
"N. c #683B80",
"B. c #6E4384",
"V. c #634383",
"C. c #724385",
"Z. c #774A81",
"A. c #73468C",
"S. c #794789",
"D. c #774989",
"F. c #7D488B",
"G. c #7C4A90",
"H. c #824B8B",
"J. c #8A4E8F",
"K. c #914F8D",
"L. c #894F95",
"P. c #854D94",
"I. c #8E539A",
"U. c #91559C",
"Y. c #836D83",
"T. c #925AA5",
"R. c #995FA6",
"E. c #9E63AA",
"W. c #A560B0",
"Q. c #B179B8",
"!. c #A8A787",
"~. c #C38ED3",
"^. c None",
/* pixels */
"^.^.^.^.^.^.^.^.^.^.^.^.^.^.^.^.^.^.^.^.^.^.^.^.^.^.^.^.^.^.^.^.",
"^.^.^.^.^.^.^.^.^.^.^.^.^.^.^.^.^.^.^.^.^.^.^.^.^.^.^.^.^.^.^.^.",
"^.^.^.^.^.^.^.^.^.^.^.^.^.^.^.^.^.^.^.^.^.^.^.^.^.^.^.^.^.^.^.^.",
"^.^.^.^.^.^.^.^.^.^.^.^.^.^.^.^.^.^.^.^.^.^.^.^.^.^.^.^.^.^.^.^.",
"^.^.^.^.^.^.^.^.^.^.^.^.^.^.^.^.^.^.^.^.^.^.^.^.^.^.^.^.^.^.^.^.",
"^.^.^.^.^.^.^.^.^.^.^.^.^.^.^.^.^.^.^.^.^.^.^.^.^.^.^.^.^.^.^.^.",
"^.^.^.^.^.^.^.^.^.^.^.^.^.^.^.^.^.^.^.^.^.^.^.^.^.^.^.^.^.^.^.^.",
"^.^.^.^.^.^.^.^.^.^.^.^.^.^.^.^.^.^.^.^.^.^.^.^.^.^.^.^.^.^.^.^.",
"^.^.^.^.^.^.^.^.^.^.^.^.^.^.^.^.^.^.^.^.^.^.^.^.^.^.^.^.^.^.^.^.",
"^.^.^.^.^.^.^.^.^.^.^.^.^.^.^.^.^.^.^.^.^.^.^.^.^.^.^.^.^.^.^.^.",
"^.^.^.^.^.^.^.^.^.^.^.^.^.^.^.^.^.^.^.^.^.^.^.^.^.^.^.^.^.^.^.^.",
"^.^.^.^.^.^.^.^.^.^.^.^.^.^.^.^.^.^.^.^.^.^.^.^.^.^.^.^.^.^.^.^.",
"^.^.^.^.^.^.^.^.^.^.! | ..-.B.r.| ^.^.^.^.^.^.^.^.^.^.^.^.^.^.^.",
"^.^.^.^.^.^.^.^.6 E _  ...%.M.B.o.~ g ^.^.^.^.^.^.^.^.^.^.^.^.^.",
"^.^.^.^.^.^.^., a ! _ &.%.A.T.U.O.Z Z b ^.^.^.^.^.^.^.^.^.^.^.^.",
"^.^.^.^.^.^.1 4 7 7 ~  .;.L.~.Q.#.I J 3.B.O.^.^.^.^.^.^.^.^.^.^.",
"^.^.^.^.^.2 7 ~ ~ U ] ,.N.B.E.R.*.[ O.S.I.>.+.u.5.f.P ^.^.^.^.^.",
"^.^.^.^.^.8 E 8 4 h 2.{ C.M.P.P.N.-.&.N.>.>.H.C.h D G v ^.^.^.^.",
"^.^.^.^.6 _ E 4 k V v.6.:.F.G.G.-.=.-.M.C.>.M.d.7.t ^.= ^.^.^.^.",
"^.^.^.^.' X.b n f ] r.H.K.H.B.;.=.-.M.C.L.s.) G l.K ^.^.^.^.^.^.",
"^.^.^.Y  .~ n 1.,.S.M.M.D.D.H.F.S.C.B.C.e.c.8.y ^.M u ^.^.^.^.^.",
"^.^.^.5  . .R t.W.I.M.m.D.y.w.u.Z.p.q.^ g.b.n.k.^.^.^.^.^.^.^.^.",
"^.^.^.5 %.-.%.F.T.U.M.M.Y.a.J 9./ k.9.# x j.A G : X ^.^.^.^.^.^.",
"^.^.^.6 ..$.M.r.r.0.4.i.!.x.u z.- > L z   M B * e 6 2 ^.^.^.^.^.",
"^.^.^.Y  ...$.2.C 8.h.: K G . A > % w t . * t # 8 *.' 3 ^.^.^.^.",
"^.^.r q 7 _ ' e z B A o : :   = ; T 8 $ @ 3 < + < ,.t.R ^.^.^.^.",
"^.^.^.^.s p W 0 = = - & o + 9 & q ' ` 9 ^.^.^.^.d [ ^.^.^.^.^.^.",
"^.^.^.^.^.^.<.^.^.^.r ^.^.^.^.^.^.3.Q ^.^.^.^.^.^.^.^.^.^.^.^.^.",
"^.^.^.^.^.^.^.^.^.^.^.^.^.^.^.^.^.^.^.^.^.^.^.^.^.^.^.^.^.^.^.^.",
"^.^.^.^.^.^.^.^.^.^.^.^.^.^.^.^.^.^.^.^.^.^.^.^.^.^.^.^.^.^.^.^.",
"^.^.^.^.^.^.^.^.^.^.^.^.^.^.^.^.^.^.^.^.^.^.^.^.^.^.^.^.^.^.^.^.",
"^.^.^.^.^.^.^.^.^.^.^.^.^.^.^.^.^.^.^.^.^.^.^.^.^.^.^.^.^.^.^.^."
};
