/* XPM */
static char *result[] = {
/* columns rows colors chars-per-pixel */
"32 32 169 2 ",
"   c #141413",
".  c #191A1C",
"X  c #1C1D26",
"o  c #261926",
"O  c #271A2A",
"+  c #281A2A",
"@  c #2E1C32",
"#  c #321A34",
"$  c #3A1C3B",
"%  c #341B3A",
"&  c #1E2022",
"*  c #232425",
"=  c #26282C",
"-  c #27232A",
";  c #322F2D",
":  c #33302C",
">  c #2D2230",
",  c #2C2D34",
"<  c #2D2538",
"1  c #2C2B3D",
"2  c #262934",
"3  c #312937",
"4  c #36293C",
"5  c #3B2F3B",
"6  c #2D3136",
"7  c #31363F",
"8  c #2F2A40",
"9  c #322849",
"0  c #3C2A48",
"q  c #37384A",
"w  c #3B2952",
"e  c #3A3B58",
"r  c #393D66",
"t  c #411B42",
"y  c #402447",
"u  c #402C43",
"i  c #533748",
"p  c #452B53",
"a  c #492954",
"s  c #49295A",
"d  c #433D5C",
"f  c #513357",
"g  c #413A61",
"h  c #3F414C",
"j  c #3E445A",
"k  c #3D416F",
"l  c #404751",
"z  c #474D56",
"x  c #42415F",
"c  c #40485C",
"v  c #514256",
"b  c #525254",
"n  c #6C6356",
"m  c #706054",
"M  c #444462",
"N  c #424B60",
"B  c #454069",
"V  c #4A536E",
"C  c #515862",
"Z  c #54556C",
"A  c #474C75",
"S  c #4F5A72",
"D  c #465079",
"F  c #4A5479",
"G  c #535474",
"H  c #5B616C",
"J  c #5A6472",
"K  c #686A6F",
"L  c #66696C",
"P  c #77746F",
"I  c #696772",
"U  c #676A7C",
"Y  c #6E7279",
"T  c #747375",
"R  c #7B7B7C",
"E  c #8B7F6C",
"W  c #525F84",
"Q  c #596885",
"!  c #59678D",
"~  c #5F6D8C",
"^  c #5E708F",
"/  c #5B699D",
"(  c #6A7589",
")  c #6A7484",
"_  c #747D8B",
"`  c #787F8B",
"'  c #747888",
"]  c #687898",
"[  c #677893",
"{  c #717E94",
"}  c #6779A4",
"|  c #697AA7",
" . c #6272A6",
".. c #7E838C",
"X. c #778193",
"o. c #7B8395",
"O. c #6E82AD",
"+. c #7C8AA2",
"@. c #6D80BC",
"#. c #7689BA",
"$. c #7185B9",
"%. c #7D92C1",
"&. c #838383",
"*. c #87888B",
"=. c #868C98",
"-. c #898F9B",
";. c #878C95",
":. c #9B999D",
">. c #818CAC",
",. c #8A93A4",
"<. c #8B99AE",
"1. c #929BAC",
"2. c #869BBF",
"3. c #909AB1",
"4. c #9EA2AA",
"5. c #93A3BA",
"6. c #9EA8B8",
"7. c #A4A7AC",
"8. c #AFB4BC",
"9. c #B1B3BA",
"0. c #869EC6",
"q. c #9CABCC",
"w. c #92A5C9",
"e. c #8DA7D4",
"r. c #88A0D8",
"t. c #91AAD7",
"y. c #91ABDB",
"u. c #9CB4DE",
"i. c #A7B5CC",
"p. c #B1B8C4",
"a. c #BDBFC4",
"s. c #B6BECD",
"d. c #A7B7D7",
"f. c #B1BED3",
"g. c #9BB6E0",
"h. c #A3BBE3",
"j. c #BFCADD",
"k. c #AEC2E4",
"l. c #B6C7E6",
"z. c #B7CAE6",
"x. c #BBCCE6",
"c. c #CECECF",
"v. c #C5C9D3",
"b. c #C4CDDC",
"n. c #C8CFDA",
"m. c #CACDD2",
"M. c #D3D4D8",
"N. c #DBDBDC",
"B. c #C4CFE4",
"V. c #C3D1E5",
"C. c #CBD5E5",
"Z. c #C5D3EA",
"A. c #CBD6E8",
"S. c #CFDAEB",
"D. c #D2DBEA",
"F. c #D8DEEA",
"G. c #D4D9E1",
"H. c #DFE1E4",
"J. c #DCE1EC",
"K. c #E2E6ED",
"L. c #E6E8ED",
"P. c #EBECEF",
"I. c #EFF0EF",
"U. c #E2E6F0",
"Y. c #EDEEF0",
"T. c #F0EFF0",
"R. c #EFF1F5",
"E. c #F1F1F2",
"W. c None",
/* pixels */
"W.W.W.W.W.W.W.W.W.W.W.W.W.W.W.W.W.W.W.W.W.W.W.W.W.W.W.W.W.W.W.W.",
"W.W.W.W.W.W.W.W.W.W.W.W.W.W.W.W.W.W.W.W.W.W.W.W.W.W.W.W.W.W.W.W.",
"W.W.W.W.W.W.W.W.W.W.W.W.W.W.W.W.W.W.W.W.W.W.W.W.W.W.W.W.W.W.W.W.",
"W.W.W.W.W.W.W.W.W.W.W.W.W.l J J J Z 0 W.W.W.W.W.W.W.W.W.W.W.W.W.",
"W.W.W.W.W.W.W.W.W.W.W.W.v o.B.V.z.w.A 0 W.W.W.W.W.W.W.W.W.W.W.W.",
"W.W.W.W.W.W.W.W.W.W.W.q ;.H.P.P.D.k.%.q W.W.W.W.W.W.W.W.W.W.W.W.",
"W.W.W.W.W.W.W.W.W.W.o _ C.I.T.P.F.l.e.N a W.W.W.W.W.W.W.W.W.W.W.",
"W.W.W.W.W.W.W.W.W.W.3 -.K.I.T.T.L.A.u.#.d W.W.W.W.W.W.W.W.W.W.W.",
"W.W.W.W.W.W.W.W.W.= X.n.P.T.P.F.L.D.k.t.N # W.W.W.W.W.W.W.W.W.W.",
"W.W.W.W.W.W.W.W.4 X.b.Y.T.T.L.D.F.D.Z.u.O.M W.W.W.W.W.W.W.W.W.W.",
"W.W.W.W.W.W.W.W.3 5.D.U.K.L.P.K.D.D.A.k.y.V $ W.W.W.W.W.W.W.W.W.",
"W.W.W.W.W.W.W.W.3 5.,._ 3.V.I.P.J.V.S.z.g.S $ W.W.W.W.W.W.W.W.W.",
"W.W.W.W.W.W.W.W.4 ( J , q +.C.P.P.x.x.k.y.V $ W.W.W.W.W.W.W.W.W.",
"W.W.W.W.W.W.W.W.W.* ,.H   k q.P.P.z.h.t.} M W.W.W.W.W.W.W.W.W.W.",
"W.W.W.W.W.W.W.W.W.* 4.L   z d.L.P.l.e.} d W.W.W.W.W.W.W.W.W.W.W.",
"W.W.W.W.W.W.W.W.W.- :.R * C B.P.K.x.w.Z f W.W.W.W.W.W.W.W.W.W.W.",
"W.W.W.W.W.W.W.W.W.W.5 &.R T L.K.C.J.J.v.I W.W.W.W.W.W.W.W.W.W.W.",
"W.W.W.W.W.W.W.W.W.> - ; &.N.P.J.J.j.D.L.v.Y y W.W.W.W.W.W.W.W.W.",
"W.W.W.W.W.W.W.W.u o.,.z R P.P.L.v.Y m.Y.P.s.U # W.W.W.W.W.W.W.W.",
"W.W.W.W.W.W.W.i E L 9.j.&.;.D.M.P E T c.E.J.X.+ W.W.W.W.W.W.W.W.",
"W.W.W.W.W.W.W.i m : 7.R.8.J -.M.*.n : 9.Y.J...o W.W.W.W.W.W.W.W.",
"W.W.W.W.W.W.W.W.# * 1.J.Z.{ b K.n.S 2 6.J.J.X.+ W.W.W.W.W.W.W.W.",
"W.W.W.W.W.W.W.W.W.> ' d.l.^ b K.D.w.7 ) f.z.( O W.W.W.W.W.W.W.W.",
"W.W.W.W.W.W.W.W.W.W.> { g.~ b F.S.i., & +.g.Q O W.W.W.W.W.W.W.W.",
"W.W.W.W.W.W.W.W.W.W.+ ~ r.W l d.Z.q.2 . ] %.G % W.W.W.W.W.W.W.W.",
"W.W.W.W.W.W.W.W.W.W.+ W @.A h 2.k.0.2 . ! F y W.W.W.W.W.W.W.W.W.",
"W.W.W.W.W.W.W.W.W.W.+ D D < W.j %.#.2 X F B t W.W.W.W.W.W.W.W.W.",
"W.W.W.W.W.W.W.W.W.W.+ k r o W.1 $. .8 r e p W.W.W.W.W.W.W.W.W.W.",
"W.W.W.W.W.W.W.W.W.W.W.9 w W.W.8 / g s w p W.W.W.W.W.W.W.W.W.W.W.",
"W.W.W.W.W.W.W.W.W.W.W.W.W.W.W.p k f W.W.W.W.W.W.W.W.W.W.W.W.W.W.",
"W.W.W.W.W.W.W.W.W.W.W.W.W.W.W.W.W.W.W.W.W.W.W.W.W.W.W.W.W.W.W.W.",
"W.W.W.W.W.W.W.W.W.W.W.W.W.W.W.W.W.W.W.W.W.W.W.W.W.W.W.W.W.W.W.W."
};
