/* XPM */
static char *result[] = {
/* columns rows colors chars-per-pixel */
"32 32 171 2 ",
"   c #141414",
".  c #1A1A1B",
"X  c #1D151F",
"o  c #1C1D24",
"O  c #271A2A",
"+  c #291A2B",
"@  c #29152A",
"#  c #311A34",
"$  c #371B3B",
"%  c #1F2022",
"&  c #24212B",
"*  c #28242A",
"=  c #312F2D",
"-  c #33302C",
";  c #2E2131",
":  c #272934",
">  c #2C2C34",
",  c #2C2C3D",
"<  c #342637",
"1  c #34243A",
"2  c #3C243E",
"3  c #3B2E3A",
"4  c #2D3135",
"5  c #32363F",
"6  c #2F2A41",
"7  c #3C2B42",
"8  c #3D274D",
"9  c #392745",
"0  c #34384A",
"q  c #3C2B53",
"w  c #363659",
"e  c #3F3E5A",
"r  c #3E3F54",
"t  c #373D66",
"y  c #393C64",
"u  c #442C47",
"i  c #523646",
"p  c #452A51",
"a  c #4B2B5A",
"s  c #423B5E",
"d  c #4A3A55",
"f  c #3E4357",
"g  c #3E455E",
"h  c #3F4163",
"j  c #3C4170",
"k  c #404752",
"l  c #4A4058",
"z  c #40485D",
"x  c #45475A",
"c  c #504257",
"v  c #4F5154",
"b  c #535355",
"n  c #6E6254",
"m  c #434363",
"M  c #434B60",
"N  c #4A546D",
"B  c #4D586C",
"V  c #505667",
"C  c #515863",
"Z  c #464F78",
"A  c #474C74",
"S  c #465179",
"D  c #4A557F",
"F  c #4B5772",
"G  c #505274",
"H  c #5B616C",
"J  c #576073",
"K  c #5B6473",
"L  c #67686C",
"P  c #676870",
"I  c #686B70",
"U  c #62697B",
"Y  c #706B7B",
"T  c #6E7279",
"R  c #757473",
"E  c #7B7A7B",
"W  c #8C7F6B",
"Q  c #525F83",
"!  c #5A6885",
"~  c #59678E",
"^  c #5F6E8B",
"/  c #5F708F",
"(  c #5A6A9C",
")  c #677489",
"_  c #6A7484",
"`  c #70748B",
"'  c #757C8C",
"]  c #787F8B",
"[  c #787C84",
"{  c #67789A",
"}  c #687893",
"|  c #767E94",
" . c #697AA6",
".. c #6271A8",
"X. c #7F838C",
"o. c #7C8395",
"O. c #6E82AC",
"+. c #7C8AA3",
"@. c #6D80BB",
"#. c #758ABB",
"$. c #7185B9",
"%. c #7D92C1",
"&. c #838283",
"*. c #87888B",
"=. c #878A97",
"-. c #868C98",
";. c #898F9A",
":. c #888C94",
">. c #9B989C",
",. c #818CAB",
"<. c #8A93A4",
"1. c #8A99AE",
"2. c #929BAA",
"3. c #869BBF",
"4. c #909AB1",
"5. c #9DA3AA",
"6. c #94A3BB",
"7. c #9DA8B8",
"8. c #A3A7AC",
"9. c #B0B4BB",
"0. c #869EC7",
"q. c #90A1CA",
"w. c #95A9CA",
"e. c #8EA7D5",
"r. c #88A0D8",
"t. c #9AA8D0",
"y. c #91ABDA",
"u. c #9BB4DE",
"i. c #A0B1CB",
"p. c #ACB9CD",
"a. c #B1B8C4",
"s. c #BDBFC4",
"d. c #B5BFCD",
"f. c #ADBED8",
"g. c #A2B1D4",
"h. c #B1BED3",
"j. c #9CB6E0",
"k. c #9EB9E5",
"l. c #A4BCE3",
"z. c #BFCADE",
"x. c #AEC2E3",
"c. c #B3C6E5",
"v. c #B7CAE6",
"b. c #BBCBE6",
"n. c #CECECF",
"m. c #C4C9D4",
"M. c #CACCD3",
"N. c #C4CDDB",
"B. c #C8CEDA",
"V. c #D3D4D8",
"C. c gray86",
"Z. c #C4CEE4",
"A. c #C4D1E5",
"S. c #CAD5E6",
"D. c #C5D3E9",
"F. c #CCD6E9",
"G. c #CFD9EA",
"H. c #D4DAE4",
"J. c #D3DBEA",
"K. c #D0D4E4",
"L. c #DFE0E3",
"P. c #DCE2EC",
"I. c #E0E0E5",
"U. c #E2E6EE",
"Y. c #E6E9EE",
"T. c #EBECEF",
"R. c #F0EFEF",
"E. c #EDEDF0",
"W. c #F0EFF0",
"Q. c #F1F1F3",
"!. c None",
/* pixels */
"!.!.!.!.!.!.!.!.!.!.!.!.!.!.!.!.!.!.!.!.!.!.!.!.!.!.!.!.!.!.!.!.",
"!.!.!.!.!.!.!.!.!.!.!.!.!.!.!.!.!.!.!.!.!.!.!.!.!.!.!.!.!.!.!.!.",
"!.!.!.!.!.!.!.!.!.!.!.!.!.!.!.!.!.!.!.!.!.!.!.!.!.!.!.!.!.!.!.!.",
"!.!.!.!.!.!.!.!.!.!.!.!.!.!.B K K K l !.!.!.!.!.!.!.!.!.!.!.!.!.",
"!.!.!.!.!.!.!.!.!.!.!.!.8 N w.b.A.A.*.d !.!.!.!.!.!.!.!.!.!.!.!.",
"!.!.!.!.!.!.!.!.!.!.!.!.0 %.x.F.E.E.P.:.d !.!.!.!.!.!.!.!.!.!.!.",
"!.!.!.!.!.!.!.!.!.!.!.!.g e.v.J.T.R.W.F.' O !.!.!.!.!.!.!.!.!.!.",
"!.!.!.!.!.!.!.!.!.!.!.s #.u.S.T.T.E.T.U.;.< !.!.!.!.!.!.!.!.!.!.",
"!.!.!.!.!.!.!.!.!.!.# M y.c.K.T.P.T.W.E.N.o.9 !.!.!.!.!.!.!.!.!.",
"!.!.!.!.!.!.!.!.!.!.m O.u.D.J.J.J.Y.Q.Q.E.N.| 7 !.!.!.!.!.!.!.!.",
"!.!.!.!.!.!.!.!.!.  N y.l.J.J.J.P.T.Y.P.U.J.6.> !.!.!.!.!.!.!.!.",
"!.!.!.!.!.!.!.!.!.  B j.b.F.S.J.T.T.Z.4.[ <.6.< !.!.!.!.!.!.!.!.",
"!.!.!.!.!.!.!.!.!.  F y.c.b.b.T.R.K.,.0 4 K ` 3 !.!.!.!.!.!.!.!.",
"!.!.!.!.!.!.!.!.!.!.z  .y.l.b.Y.T.t.g . H <.1 !.!.!.!.!.!.!.!.!.",
"!.!.!.!.!.!.!.!.!.!.!.s  .e.v.T.E.g.z   I 5.1 !.!.!.!.!.!.!.!.!.",
"!.!.!.!.!.!.!.!.!.!.!.!.V q.b.U.E.A.b * E >.2 !.!.!.!.!.!.!.!.!.",
"!.!.!.!.!.!.!.!.!.!.3 L z.P.P.S.U.Y.R E &.3 !.!.!.!.!.!.!.!.!.!.",
"!.!.!.!.!.!.!.!.!.< Y m.Y.H.z.L.P.Y.C.X.= & 7 !.!.!.!.!.!.!.!.!.",
"!.!.!.!.!.!.!.!.# U z.Y.T.n.T z.Y.T.T.E k 1.o.u !.!.!.!.!.!.!.!.",
"!.!.!.!.!.!.!.!.+ ] P.R.n.R W R V.J.:.&.s.a.L W i !.!.!.!.!.!.!.",
"!.!.!.!.!.!.!.!.+ &.U.E.9.- n *.V.-.U 9.Q.8.- n i !.!.!.!.!.!.!.",
"!.!.!.!.!.!.!.!.+ ] J.P.7.: J N.I.b { D.P.2.; $ !.!.!.!.!.!.!.!.",
"!.!.!.!.!.!.!.!.+ ) v.f._ 5 w.G.L.v } x.p.` 2 !.!.!.!.!.!.!.!.!.",
"!.!.!.!.!.!.!.!.+ ! k.+.% 4 i.G.C.v / k.o.: !.!.!.!.!.!.!.!.!.!.",
"!.!.!.!.!.!.!.!.$ G %.{ . 4 w.A.f.k Q r.^ + !.!.!.!.!.!.!.!.!.!.",
"!.!.!.!.!.!.!.!.!.& Z ~ . > 0.x.0.e A @.! + !.!.!.!.!.!.!.!.!.!.",
"!.!.!.!.!.!.!.!.!.X y Q o : $.0.r !.6 Z Z O !.!.!.!.!.!.!.!.!.!.",
"!.!.!.!.!.!.!.!.!.!.p w t , ..$., !.@ t t O !.!.!.!.!.!.!.!.!.!.",
"!.!.!.!.!.!.!.!.!.!.!.6 q 8 h ( 6 !.!.8 p !.!.!.!.!.!.!.!.!.!.!.",
"!.!.!.!.!.!.!.!.!.!.!.!.!.!.p s a !.!.!.!.!.!.!.!.!.!.!.!.!.!.!.",
"!.!.!.!.!.!.!.!.!.!.!.!.!.!.!.!.!.!.!.!.!.!.!.!.!.!.!.!.!.!.!.!.",
"!.!.!.!.!.!.!.!.!.!.!.!.!.!.!.!.!.!.!.!.!.!.!.!.!.!.!.!.!.!.!.!."
};
