/* XPM */
static char *result[] = {
/* columns rows colors chars-per-pixel */
"32 32 176 2 ",
"   c #161516",
".  c #181817",
"X  c #181719",
"o  c #17191A",
"O  c #1A1A1C",
"+  c #1C1D21",
"@  c #281627",
"#  c #261328",
"$  c #2F162F",
"%  c #271C2A",
"&  c #2F1630",
"*  c #2D1C31",
"=  c #331E36",
"-  c #351C39",
";  c #391C3F",
":  c #25232C",
">  c #28202D",
",  c #262424",
"<  c #252631",
"1  c #2F2037",
"2  c #242830",
"3  c #2A2D34",
"4  c #2C2D39",
"5  c #322B3D",
"6  c #33223B",
"7  c #2E3138",
"8  c #303032",
"9  c #35343B",
"0  c #2A2F40",
"q  c #3C2544",
"w  c #3C2549",
"e  c #3A2C4D",
"r  c #3A2C47",
"t  c #363140",
"y  c #393B4C",
"u  c #3F2F50",
"i  c #3C3453",
"p  c #3F3B53",
"a  c #3B3D5D",
"s  c #461F49",
"d  c #412348",
"f  c #48224E",
"g  c #432E4D",
"h  c #442B47",
"j  c #47354D",
"k  c #512854",
"l  c #443150",
"z  c #403B59",
"x  c #45355E",
"c  c #56345E",
"v  c #473D61",
"b  c #573567",
"n  c #38424F",
"m  c #3D4353",
"M  c #3F4263",
"N  c #42454A",
"B  c #44484F",
"V  c #4F4D57",
"C  c #45425B",
"Z  c #464B5A",
"A  c #484857",
"S  c #53575D",
"D  c #6B614E",
"F  c #404467",
"G  c #40486C",
"H  c #4A5264",
"J  c #5D5866",
"K  c #535B6C",
"L  c #4C4D74",
"P  c #4C4E78",
"I  c #455076",
"U  c #4C5870",
"Y  c #4F5B7C",
"T  c #525B7C",
"R  c #5B5C7D",
"E  c #5E636E",
"W  c #576077",
"Q  c #5D6574",
"!  c #64676F",
"~  c #646174",
"^  c #696C74",
"/  c #6C737E",
"(  c #78797B",
")  c #95866D",
"_  c #555C81",
"`  c #536082",
"'  c #56628F",
"]  c #58658F",
"[  c #5F6F95",
"{  c #5A699C",
"}  c #69758B",
"|  c #6B778B",
" . c #747D8A",
".. c #64759C",
"X. c #6B7797",
"o. c #757E91",
"O. c #6A7DAB",
"+. c #747FA1",
"@. c #6B7DB5",
"#. c #8C3C8F",
"$. c #993F9F",
"%. c #7B8294",
"&. c #7183A4",
"*. c #7587AB",
"=. c #788BB8",
"-. c #7C91B6",
";. c #7F96BD",
":. c #80868A",
">. c #8C8D99",
",. c #888694",
"<. c #94979A",
"1. c #808FA7",
"2. c #8695AE",
"3. c #8E9AAE",
"4. c #919DAF",
"5. c #808EB5",
"6. c #8E9CBF",
"7. c #99A4B7",
"8. c #A8AAAC",
"9. c #A7ABB7",
"0. c #A1A9BA",
"q. c #AAB1BE",
"w. c #C4BBAA",
"e. c #879CC1",
"r. c #8B9CC1",
"t. c #859DD1",
"y. c #8DA6CF",
"u. c #96A5C3",
"i. c #96A8C5",
"p. c #9EAEC6",
"a. c #92A6C8",
"s. c #8BA1D3",
"d. c #8EA8D2",
"f. c #91A6D5",
"g. c #A2ADC2",
"h. c #A1AECD",
"j. c #A9B3C6",
"k. c #B0B7C2",
"l. c #B0B8C5",
"z. c #ABBAD2",
"x. c #A6BADA",
"c. c #ADBEDB",
"v. c #A3B5D6",
"b. c #B0BDD5",
"n. c #AFBFE1",
"m. c #A5BCE0",
"M. c #BBC0CA",
"N. c #B2C1DB",
"B. c #BDC9DD",
"V. c #BCC6DB",
"C. c #AEC2E3",
"Z. c #BAC9E5",
"A. c #BACCE9",
"S. c #B7C9E3",
"D. c #D5D3CD",
"F. c #C6CEDC",
"G. c #CCD1DC",
"H. c #D7D8D9",
"J. c #C3CEE2",
"K. c #CFD8E6",
"L. c #C5D3EA",
"P. c #CAD5E9",
"I. c #C9D3E6",
"U. c #D3DBEA",
"Y. c #DADFE9",
"T. c #DCE2ED",
"R. c #E1E5EC",
"E. c #E6E9EE",
"W. c #ECECEF",
"Q. c #E4E4E5",
"!. c #F0EFEF",
"~. c #EFF0EF",
"^. c #E1E6F0",
"/. c #EDEEF1",
"(. c #F0F0F1",
"). c None",
/* pixels */
").).).).).).).).).).).).).).).).).).).).).).).).).).).).).).).).",
").).).).).).).).).).).).).).).& & $ ).).).).).).).).).).).).).).",
").).).).).).).).).).).).).).C Z Z Z C ).).).).).).).).).).).).).",
").).).).).).).).).).).).).p *.x.N.C.e.C ).).).).).).).).).).).).",
").).).).).).).).).).).).: &.m.J.K.L.C.6.p ).).).).).).).).).).).",
").).).).).).).).).).).).: 2.L.T.W.R.L.x.B d ).).).).).).).).).).",
").).).).).).).).).).).r X.z.T.W.~.W.R.J.+.v ).).).).).).).).).).",
").).).).).).).).).).).7 a.L.E.~.~.~.W.U.v.H # ).).).).).).).).).",
").).).).).).).).).).l K v.K.E.~.W.!.E.U.S.} i ).).).).).).).).).",
").).).).).).).).).).p d.C.K.E.~.!.!.W.U.Z.f.T - ).).).).).).).).",
").).).).).).).).).).n d.x.J.E.~./.(./.K.c.s.Y - ).).).).).).).).",
").).).).).).).).).).n ;.H 4.F.G.G.G.F.l.K ..T - ).).).).).).).).",
").).).).).).).).).).m -.3 9 n N N N N y , ` T - ).).).).).).).).",
").).).).).).).).).).i K } 7           O Q T a ).).).).).).).).).",
").).).).).).).).).).).9 7.B   o o . . , 7.E # ).).).).).).).).).",
").).).).).).).).).).).9 M.Q +     . O y j.! # ).).).).).).).).).",
").).).).).).).).).).).V 7.r.H 7 4 4 m 5.g.^ j ).).).).).).).).).",
").).).).).).).).).).J 9.S 0.N.r.=.e.z.B.E >.,.h ).).).).).).).).",
").).).).).).).).; ! l.T.q.G.^.T.U.Y.^.K.l.G.G.>.q ).).).).).).).",
").).).).).).).).~ q.Y.z./ j.Y.E.(./.Y.B. .3.K.G.%.g ).).).).).).",
").).).).).).).o o.U.R.8.8 K 7.I.^.U.p.} 3 ( H.^.p.t ).).).).).).",
").).).).).).).o | L.D.) , , ..C.U.Z.=.2 X D w.U.i.t ).).).).).).",
").).).).).).).- _ i.u.B O + &.Z.Y.P.r.3 X 4 %.b.X.l ).).).).).).",
").).).).).).).).- U t.O.2 6 X.B.(.T.p.3 X T f.2.4 ).).).).).).).",
").).).).).).).).& M @.@.5 #.c <.(.Y.7.5 @ _ t.&.% ).).).).).).).",
").).).).).).).).).e M { 5 $.k %.T.j.V ).).i _ ..> ).).).).).).).",
").).).).).).).).).).e a P b *  .A.1.= ).).# M ' % ).).).).).).).",
").).).).).).).).).).).q M 2 y O.-.R d ).).).v M F q ).).).).).).",
").).).).).).).).).).).).O 0 I ] L - ).).).).).i P w ).).).).).).",
").).).).).).).).).).).).= P i * s ).).).).).).).; ).).).).).).).",
").).).).).).).).).).).).).w ).).).).).).).).).).).).).).).).).).",
").).).).).).).).).).).).).).).).).).).).).).).).).).).).).).).)."
};
