/* XPM */
static char *result[] = {
/* columns rows colors chars-per-pixel */
"32 32 147 2 ",
"   c #131212",
".  c #1B1519",
"X  c #1D1520",
"o  c #1E1F24",
"O  c #271726",
"+  c #271929",
"@  c #2F1D32",
"#  c #301B34",
"$  c #391A3A",
"%  c #1E2123",
"&  c #202125",
"*  c #272A37",
"=  c #29243B",
"-  c #2A2A3A",
";  c #312236",
":  c #37213F",
">  c #322E3B",
",  c #2E2943",
"<  c #362444",
"1  c #3E2447",
"2  c #332E43",
"3  c #382E45",
"4  c #3B264D",
"5  c #362B49",
"6  c #2B3043",
"7  c #383247",
"8  c #333944",
"9  c #36344C",
"0  c #3B364C",
"q  c #3B3B4D",
"w  c #373951",
"e  c #3E3B53",
"r  c #38335E",
"t  c #363C58",
"y  c #422246",
"u  c #413E4D",
"i  c #4F2E5C",
"p  c #572D5C",
"a  c #403752",
"s  c #483656",
"d  c #403559",
"f  c #443C5C",
"g  c #6D2F6F",
"h  c #6C306E",
"j  c #693270",
"k  c #7A337D",
"l  c #3D4555",
"z  c #3A4261",
"x  c #454557",
"c  c #454856",
"v  c #494D56",
"b  c #43455A",
"n  c #48425D",
"m  c #4E4F59",
"M  c #4E5156",
"N  c #434962",
"B  c #40476A",
"V  c #444A6C",
"C  c #4D4E6B",
"Z  c #5C516D",
"A  c #525D6D",
"S  c #535364",
"D  c #4E4570",
"F  c #4F5075",
"G  c #535B72",
"H  c #535D7E",
"J  c #6B597D",
"K  c #71547A",
"L  c #4A548D",
"P  c #525B8B",
"I  c #555F90",
"U  c #596799",
"Y  c #5C6A98",
"T  c #757D8E",
"R  c #697694",
"E  c #66789E",
"W  c #5F6EA5",
"Q  c #6A7CAA",
"!  c #6C7FB0",
"~  c #813686",
"^  c #7285A3",
"/  c #7588A6",
"(  c #7C8BAA",
")  c #758BB6",
"_  c #7A8EB3",
"`  c #7185BE",
"'  c #7589B8",
"]  c #7B8EBA",
"[  c #7384B2",
"{  c #7D91B3",
"}  c #778BC5",
"|  c #798DC7",
" . c #7D93CD",
".. c #868EA0",
"X. c #8492AA",
"o. c #8A95A9",
"O. c #929CAC",
"+. c #8091B3",
"@. c #8398BC",
"#. c #95A2B5",
"$. c #A0A4AE",
"%. c #8199C6",
"&. c #8B9FC2",
"*. c #839CD4",
"=. c #8BA3CD",
"-. c #9AACC6",
";. c #8DA6D3",
":. c #8BA6D9",
">. c #8EAADB",
",. c #90A8D0",
"<. c #93AEDD",
"1. c #9DB2D1",
"2. c #9CB4DE",
"3. c #A4B6D2",
"4. c #A9BBD5",
"5. c #A7BDDD",
"6. c #ACBFDB",
"7. c #B0BFD9",
"8. c #9DB6E0",
"9. c #A4BBE2",
"0. c #A9BDE1",
"q. c #B3C1DE",
"w. c #B8C2DA",
"e. c #AEC3E4",
"r. c #B3C6E5",
"t. c #BCCCE4",
"y. c #BECDE8",
"u. c #C2CADE",
"i. c #C7D0DF",
"p. c #C2CFE6",
"a. c #C0CFE8",
"s. c #C3D1E7",
"d. c #CFD6E0",
"f. c #C4D2E9",
"g. c #CCD6E9",
"h. c #CFD9EA",
"j. c #DBDFE6",
"k. c #D3DBEA",
"l. c #D9DFEB",
"z. c #DCE2ED",
"x. c #E2E6ED",
"c. c #E6E9EE",
"v. c #EEEEEF",
"b. c #F0EFEF",
"n. c #EEEEF0",
"m. c #F0EFF0",
"M. c None",
/* pixels */
"M.M.M.M.M.M.M.M.M.M.M.M.M.M.M.M.M.M.M.M.M.M.M.M.M.M.M.M.M.M.M.M.",
"M.M.M.M.M.M.M.M.M.M.M.M.M.M.M.M.M.M.M.M.M.M.M.M.M.M.M.M.M.M.M.M.",
"M.M.M.M.M.M.M.M.M.M.M.M.M.M.> > > 2 M.M.M.M.M.M.M.M.M.M.M.M.M.M.",
"M.M.M.M.M.M.M.M.M.M.M.M.M.G &.-.-.@.N M.M.M.M.M.M.M.M.M.M.M.M.M.",
"M.M.M.M.M.M.M.M.M.M.M.M.C =.r.f.g.e.@.C M.M.M.M.M.M.M.M.M.M.M.M.",
"M.M.M.M.M.M.M.M.M.M.M.  A t.z.x.x.l.r.G $ M.M.M.M.M.M.M.M.M.M.M.",
"M.M.M.M.M.M.M.M.M.M.M.S o.k.b.b.v.n.h.o.Z M.M.M.M.M.M.M.M.M.M.M.",
"M.M.M.M.M.M.M.M.M.M.O T k.c.b.b.v.v.x.k.^ O M.M.M.M.M.M.M.M.M.M.",
"M.M.M.M.M.M.M.M.M.M.b O.z.b.b.b.v.b.v.x.O.b M.M.M.M.M.M.M.M.M.M.",
"M.M.M.M.M.M.M.M.M.% ^ t.z.v.b.b.b.v.b.z.t./ ; M.M.M.M.M.M.M.M.M.",
"M.M.M.M.M.M.M.M.M.% X.s.z.v.v.v.v.b.v.z.f.X.; M.M.M.M.M.M.M.M.M.",
"M.M.M.M.M.M.M.M.M.% X.s.k.x.n.v.n.n.z.h.s.X.; M.M.M.M.M.M.M.M.M.",
"M.M.M.M.M.M.M.M.M.o ^ e.s.k.z.l.l.l.k.s.e./ ; M.M.M.M.M.M.M.M.M.",
"M.M.M.M.M.M.M.M.M.o Q <.5.r.y.y.y.y.r.9.2.E # M.M.M.M.M.M.M.M.M.",
"M.M.M.M.M.M.M.M.M.< F ! *.<.9.9.8.5.>.*.! F y M.M.M.M.M.M.M.M.M.",
"M.M.M.M.M.M.M.M.M.M.+ t W  .:.<.<.:. .W t + M.M.M.M.M.M.M.M.M.M.",
"M.M.M.M.M.M.M.M.M.M.7 8 H | *.<.>.*.} H 8 7 M.M.M.M.M.M.M.M.M.M.",
"M.M.M.M.M.M.M.M.M.e ( 3.7.9.8.2.8.2.0.6.3.( f M.M.M.M.M.M.M.M.M.",
"M.M.M.M.M.M.M.M.0 { t.l.z.h.h.h.h.g.h.z.z.t.+.q M.M.M.M.M.M.M.M.",
"M.M.M.M.M.M.M.0 _ 5.l.k.h.c.v.c.c.c.c.h.h.x.t.{ a M.M.M.M.M.M.M.",
"M.M.M.M.M.M.M.8 ;.a.x.z.q.u.m.b.b.v.w.q.l.v.z.1.q M.M.M.M.M.M.M.",
"M.M.M.M.M.M.M.8 ,.g.z.h.o...x.b.b.j.T ( y.h.z.4.u M.M.M.M.M.M.M.",
"M.M.M.M.M.M.M.s R 4.y.#.J K $.x.v.i.M c { e.y.1.q M.M.M.M.M.M.M.",
"M.M.M.M.M.M.M.M.- [ 2.A h ~ v i.z.p.v X C { 2.=.q M.M.M.M.M.M.M.",
"M.M.M.M.M.M.M.M.< I ` N g ~ c 6.p.&.N M.M.n [ %.q M.M.M.M.M.M.M.",
"M.M.M.M.M.M.M.M.M., P z j k l <.1.x p M.M.M.w Q 9 M.M.M.M.M.M.M.",
"M.M.M.M.M.M.M.M.M.M.5 V D @ l :.+.5 M.M.M.M.- U 2 M.M.M.M.M.M.M.",
"M.M.M.M.M.M.M.M.M.M.M.w * 6 Y ' V p M.M.M.M.= L , M.M.M.M.M.M.M.",
"M.M.M.M.M.M.M.M.M.M.M.. , z V C 1 M.M.M.M.M.< r 4 M.M.M.M.M.M.M.",
"M.M.M.M.M.M.M.M.M.M.M.M.d f # M.M.M.M.M.M.M.M.M.M.M.M.M.M.M.M.M.",
"M.M.M.M.M.M.M.M.M.M.M.M.M.M.M.M.M.M.M.M.M.M.M.M.M.M.M.M.M.M.M.M.",
"M.M.M.M.M.M.M.M.M.M.M.M.M.M.M.M.M.M.M.M.M.M.M.M.M.M.M.M.M.M.M.M."
};
