/* XPM */
static char *result[] = {
/* columns rows colors chars-per-pixel */
"32 32 168 2 ",
"   c #151515",
".  c #181717",
"X  c #171718",
"o  c #191819",
"O  c #251726",
"+  c #241B27",
"@  c #271729",
"#  c #291728",
"$  c #271A29",
"%  c #2D1B2D",
"&  c #311733",
"*  c #351E37",
"=  c #371B3B",
"-  c #3B1C3D",
";  c #1D2023",
":  c #222029",
">  c #2B2335",
",  c #252935",
"<  c #292B35",
"1  c #2B2E3D",
"2  c #312239",
"3  c #322D3B",
"4  c #2F3237",
"5  c #32333B",
"6  c #4B4438",
"7  c #392242",
"8  c #382841",
"9  c #392A4B",
"0  c #323741",
"q  c #363B45",
"w  c #393D46",
"e  c #3B334A",
"r  c #3A3548",
"t  c #363E51",
"y  c #3C3C5D",
"u  c #412A46",
"i  c #432B4B",
"p  c #45354C",
"a  c #483C4F",
"s  c #433C49",
"d  c #492E59",
"f  c #47355E",
"g  c #4A3758",
"h  c #443A61",
"j  c #692E6D",
"k  c #6C3274",
"l  c #3D4149",
"z  c #39425E",
"x  c #3A4554",
"c  c #3F4760",
"v  c #3F4961",
"b  c #484E56",
"n  c #484D58",
"m  c #484754",
"M  c #4D5157",
"N  c #5E5D5C",
"B  c #434364",
"V  c #494366",
"C  c #424B63",
"Z  c #40486B",
"A  c #4B4E6B",
"S  c #4A496A",
"D  c #554269",
"F  c #4D596F",
"G  c #505A6D",
"H  c #5B5E68",
"J  c #494E77",
"K  c #494771",
"L  c #5B5970",
"P  c #555D79",
"I  c #565E72",
"U  c #57606F",
"Y  c #5D687D",
"T  c #626874",
"R  c #606B7E",
"E  c #74787F",
"W  c #505684",
"Q  c #515C8B",
"!  c #5B6886",
"~  c #596488",
"^  c #5E6C94",
"/  c #576494",
"(  c #646F86",
")  c #656B8B",
"_  c #65728B",
"`  c #697289",
"'  c #777F8D",
"]  c #797E89",
"[  c #787C83",
"{  c #606F99",
"}  c #677793",
"|  c #6D7C9E",
" . c #6E7993",
".. c #737E90",
"X. c #677AA3",
"o. c #903A93",
"O. c #943D9B",
"+. c #7D828B",
"@. c #768090",
"#. c #7A8393",
"$. c #7D8896",
"%. c #7A859E",
"&. c #6E81A3",
"*. c #7C88A2",
"=. c #7083BD",
"-. c #788CBD",
";. c #7990B8",
":. c #7F95CD",
">. c #848B99",
",. c #8A919E",
"<. c #A99E8D",
"1. c #AAA08E",
"2. c #8C94A7",
"3. c #9193A0",
"4. c #9C9DAA",
"5. c #8795B0",
"6. c #8F9FB5",
"7. c #8090BE",
"8. c #8498BC",
"9. c #9DA2AE",
"0. c #8294C0",
"q. c #889EC2",
"w. c #8A9FD2",
"e. c #8BA1C2",
"r. c #8EA2CE",
"t. c #9AA7C6",
"y. c #9BACC6",
"u. c #99A9C8",
"i. c #98ADD7",
"p. c #9CB3D7",
"a. c #B0BBCF",
"s. c #A3B4D1",
"d. c #A9B7D7",
"f. c #AEBCD4",
"g. c #A1B8DE",
"h. c #ACBCDE",
"j. c #B1BEDC",
"k. c #A2B9E0",
"l. c #B8C0CD",
"z. c #BEC7D4",
"x. c #BDC9DD",
"c. c #AEC3E4",
"v. c #B1C4E4",
"b. c #BCCBE3",
"n. c #B4C8E8",
"m. c #BFCEE8",
"M. c #D0CFCB",
"N. c #C2C7D0",
"B. c #C3C8D1",
"V. c #C9D1DC",
"C. c #D6D7DA",
"Z. c #C1CDE3",
"A. c #C3D0E6",
"S. c #CAD4E6",
"D. c #C5D3E9",
"F. c #CAD5E9",
"G. c #CED9EB",
"H. c #D2D7E3",
"J. c #D4DBE5",
"K. c #D5DEEC",
"L. c #DADFEB",
"P. c #D8DDE3",
"I. c #DCE2EC",
"U. c #E2E5ED",
"Y. c #E5E8ED",
"T. c #EFEFEF",
"R. c #EEEEF0",
"E. c None",
/* pixels */
"E.E.E.E.E.E.E.E.E.E.E.E.E.E.E.E.E.E.E.E.E.E.E.E.E.E.E.E.E.E.E.E.",
"E.E.E.E.E.E.E.E.E.E.E.E.E.E.E.E.E.E.E.E.E.E.E.E.E.E.E.E.E.E.E.E.",
"E.E.E.E.E.E.E.E.E.E.E.E.E.E.E.3 5 3 3 E.E.E.E.E.E.E.E.E.E.E.E.E.",
"E.E.E.E.E.E.E.E.E.E.E.E.E.E.F q.y.y.8.C E.E.E.E.E.E.E.E.E.E.E.E.",
"E.E.E.E.E.E.E.E.E.E.E.E.E.U e.v.F.D.v.8.A E.E.E.E.E.E.E.E.E.E.E.",
"E.E.E.E.E.E.E.E.E.E.E.E.; _ n.G.U.U.D.v.I - E.E.E.E.E.E.E.E.E.E.",
"E.E.E.E.E.E.E.E.E.E.E.E.S 6.G.Y.T.T.U.D.*.h E.E.E.E.E.E.E.E.E.E.",
"E.E.E.E.E.E.E.E.E.E.E.@ _ b.I.T.T.T.T.L.h.! % E.E.E.E.E.E.E.E.E.",
"E.E.E.E.E.E.E.E.E.E.E.e %.D.I.T.T.T.T.L.b.%.e E.E.E.E.E.E.E.E.E.",
"E.E.E.E.E.E.E.E.E.E.: | g.A.I.T.T.T.T.L.m.i.^ 2 E.E.E.E.E.E.E.E.",
"E.E.E.E.E.E.E.E.E.E.; &.k.m.I.T.R.T.T.L.b.i.{ > E.E.E.E.E.E.E.E.",
"E.E.E.E.E.E.E.E.E.E.; &.} >.Z.H.H.H.S.x.' ! { > E.E.E.E.E.E.E.E.",
"E.E.E.E.E.E.E.E.E.E.: &.F 4 b M b M b b < v ^ > E.E.E.E.E.E.E.E.",
"E.E.E.E.E.E.E.E.E.E.E.A R l     .     . n Y B E.E.E.E.E.E.E.E.E.",
"E.E.E.E.E.E.E.E.E.E.E.O @.T   . . . . . +.#.$ E.E.E.E.E.E.E.E.E.",
"E.E.E.E.E.E.E.E.E.E.E.O +.#.<     . . 1 3.>.$ E.E.E.E.E.E.E.E.E.",
"E.E.E.E.E.E.E.E.E.E.E.a ] t.} 0 1 1 w | y.+.s E.E.E.E.E.E.E.E.E.",
"E.E.E.E.E.E.E.E.E.E.r 4.[ ,.b.y.7.0.s.Z.] E 4.p E.E.E.E.E.E.E.E.",
"E.E.E.E.E.E.E.E.E.p 9.P.N.z.I.U.L.I.U.K.l.B.P.3.u E.E.E.E.E.E.E.",
"E.E.E.E.E.E.E.E.g 2.H.m.#.2.F.U.T.T.I.Z.$.@.m.V.>.i E.E.E.E.E.E.",
"E.E.E.E.E.E.E.E.w f.U.M.H w %.j.I.L.d...5 N M.I.y.3 E.E.E.E.E.E.",
"E.E.E.E.E.E.E.E.q s.P.1.6   C i.G.D.r.t   6 <.H.t.3 E.E.E.E.E.E.",
"E.E.E.E.E.E.E.E.g  .f.` < X G h.L.K.p.x   < ( y.) i E.E.E.E.E.E.",
"E.E.E.E.E.E.E.E.E.3 e.w.C   U Z.T.U.5.D # v :.X.2 E.E.E.E.E.E.E.",
"E.E.E.E.E.E.E.E.E.3 -.:.h O L f.Y.C.m O.j v =.W 7 E.E.E.E.E.E.E.",
"E.E.E.E.E.E.E.E.E., X.n 8 E.i H S.N.s o.k z Q 9 E.E.E.E.E.E.E.E.",
"E.E.E.E.E.E.E.E.E., / e E.E.E.m i.s.q * K K 9 E.E.E.E.E.E.E.E.E.",
"E.E.E.E.E.E.E.E.d J y d E.E.E.g P 8./ , , f E.E.E.E.E.E.E.E.E.E.",
"E.E.E.E.E.E.E.E.9 h 9 E.E.E.E.E.9 S Z Z 1 - E.E.E.E.E.E.E.E.E.E.",
"E.E.E.E.E.E.E.E.E.- E.E.E.E.E.E.E.& 7 K h E.E.E.E.E.E.E.E.E.E.E.",
"E.E.E.E.E.E.E.E.E.E.E.E.E.E.E.E.E.E.E.- E.E.E.E.E.E.E.E.E.E.E.E.",
"E.E.E.E.E.E.E.E.E.E.E.E.E.E.E.E.E.E.E.E.E.E.E.E.E.E.E.E.E.E.E.E."
};
