/* XPM */
static char *result[] = {
/* columns rows colors chars-per-pixel */
"32 32 147 2 ",
"   c #151314",
".  c #181617",
"X  c #19171A",
"o  c #1B191D",
"O  c #1D1D21",
"+  c #261626",
"@  c #211C25",
"#  c #291629",
"$  c #271F2F",
"%  c #2C1C32",
"&  c #311937",
"*  c #212224",
"=  c #21232E",
"-  c #26292D",
";  c #2B2330",
":  c #262837",
">  c #2E2D3E",
",  c #322236",
"<  c #30233D",
"1  c #342F41",
"2  c #3B2846",
"3  c #372D4C",
"4  c #353442",
"5  c #3D3046",
"6  c #343A45",
"7  c #383C43",
"8  c #35354A",
"9  c #3B324E",
"0  c #3A3A4D",
"q  c #2E3051",
"w  c #33365B",
"e  c #373B63",
"r  c #413D4D",
"t  c #403A59",
"y  c #3E4456",
"u  c #3D415B",
"i  c #3D456C",
"p  c #3F4872",
"a  c #494D56",
"s  c #44435D",
"d  c #444B5C",
"f  c #4A5059",
"g  c #444B64",
"h  c #534D64",
"j  c #485265",
"k  c #4B536C",
"l  c #50516E",
"z  c #535E6F",
"x  c #595E68",
"c  c #444E74",
"v  c #454F7E",
"b  c #465173",
"n  c #4B567B",
"m  c #4F5978",
"M  c #515873",
"N  c #5A5B70",
"B  c #5F656F",
"V  c #576272",
"C  c #5D697D",
"Z  c #4E5681",
"A  c #4C5883",
"S  c #515E88",
"D  c #5C6A83",
"F  c #53618B",
"G  c #5B698E",
"H  c #626880",
"J  c #606D8F",
"K  c #667183",
"L  c #697485",
"P  c #777E87",
"I  c #747D8C",
"U  c #606E99",
"Y  c #6F7C97",
"T  c #6A7B9C",
"R  c #6374A2",
"E  c #6E7EA5",
"W  c #6A7EA9",
"Q  c #788496",
"!  c #71839E",
"~  c #7A889F",
"^  c #7583A1",
"/  c #7D8BA0",
"(  c #7C8EAC",
")  c #6F84B6",
"_  c #6E82BF",
"`  c #7388C5",
"'  c #778CC8",
"]  c #7F99C8",
"[  c #8E959F",
"{  c #848FA6",
"}  c #8592A8",
"|  c #8896AB",
" . c #8D99AE",
".. c #8A97B7",
"X. c #8B9BB3",
"o. c #859ABD",
"O. c #899BB9",
"+. c #929FB7",
"@. c #96A3BE",
"#. c #99A5BA",
"$. c #899FC2",
"%. c #819ACB",
"&. c #889BCD",
"*. c #859ED3",
"=. c #889DD0",
"-. c #8BA2C5",
";. c #9CAEC7",
":. c #9CAECC",
">. c #87A2D7",
",. c #88A2D6",
"<. c #8FADDE",
"1. c #96AED2",
"2. c #97B2DF",
"3. c #99B3DE",
"4. c #A1B2CE",
"5. c #ABB9D3",
"6. c #A1B7D8",
"7. c #A4B8DF",
"8. c #9FB8E0",
"9. c #A2BBE2",
"0. c #A9BFE3",
"q. c #AEC2DE",
"w. c #B4C1D5",
"e. c #B3C4DC",
"r. c #AAC0E2",
"t. c #B3C6E4",
"y. c #B5C8E5",
"u. c #BBCBE5",
"i. c #BECFE8",
"p. c #C5CEDD",
"a. c #C8CFDA",
"s. c #C2CFE5",
"d. c #C5D0E3",
"f. c #CCD5E5",
"g. c #C6D4E8",
"h. c #CAD6E9",
"j. c #CED9E8",
"k. c #D2D9E6",
"l. c #D3DCEA",
"z. c #D9DEE9",
"x. c #DCE2EB",
"c. c #E2E6EC",
"v. c #E6E9ED",
"b. c #EEEEEF",
"n. c #F0EFEF",
"m. c #EDEEF0",
"M. c None",
/* pixels */
"M.M.M.M.M.M.M.M.M.M.M.M.M.M.M.M.M.M.M.M.M.M.M.M.M.M.M.M.M.M.M.M.",
"M.M.M.M.M.M.M.M.M.M.M.M.M.M.M.M.M.M.M.M.M.M.M.M.M.M.M.M.M.M.M.M.",
"M.M.M.M.M.M.M.M.M.M.M.M.M.M.4 > 4 4 M.M.M.M.M.M.M.M.M.M.M.M.M.M.",
"M.M.M.M.M.M.M.M.M.M.M.M.M.k -.4.4.O.d M.M.M.M.M.M.M.M.M.M.M.M.M.",
"M.M.M.M.M.M.M.M.M.M.M.M.k -.t.h.j.t.o.s M.M.M.M.M.M.M.M.M.M.M.M.",
"M.M.M.M.M.M.M.M.M.M.M.X V i.x.v.v.x.q.d M.M.M.M.M.M.M.M.M.M.M.M.",
"M.M.M.M.M.M.M.M.M.M.M.N #.l.n.n.n.b.f. .h M.M.M.M.M.M.M.M.M.M.M.",
"M.M.M.M.M.M.M.M.M.M.# I j.v.n.n.n.b.c.h.B   M.M.M.M.M.M.M.M.M.M.",
"M.M.M.M.M.M.M.M.M.M.k #.x.n.n.n.n.n.v.x. .d M.M.M.M.M.M.M.M.M.M.",
"M.M.M.M.M.M.M.M.M.O ! i.x.n.n.n.n.n.n.x.t.D # M.M.M.M.M.M.M.M.M.",
"M.M.M.M.M.M.M.M.M.O / g.x.v.n.n.n.n.v.l.i.L + M.M.M.M.M.M.M.M.M.",
"M.M.M.M.M.M.M.M.M.O / i.j.x.v.v.v.v.x.j.y.L + M.M.M.M.M.M.M.M.M.",
"M.M.M.M.M.M.M.M.M.O T 0.u.h.j.l.j.j.h.u.9.D + M.M.M.M.M.M.M.M.M.",
"M.M.M.M.M.M.M.M.M.@ G >.2.9.t.t.y.t.8.8.*.m # M.M.M.M.M.M.M.M.M.",
"M.M.M.M.M.M.M.M.M.M.9 F ' ,.2.2.8.8.] ` n 4 M.M.M.M.M.M.M.M.M.M.",
"M.M.M.M.M.M.M.M.M.M.+ : A ` ,.<.>.] ` v =   M.M.M.M.M.M.M.M.M.M.",
"M.M.M.M.M.M.M.M.M.M.k C ^ &.,.<.<.>.*.T C g M.M.M.M.M.M.M.M.M.M.",
"M.M.M.M.M.M.M.M.M.g O.i.g.y.0.0.9.r.u.g.y.( s M.M.M.M.M.M.M.M.M.",
"M.M.M.M.M.M.M.M.M -.f.x.x.x.x.x.x.x.x.x.x.g.O.j M.M.M.M.M.M.M.M.",
"M.M.M.M.M.M.M.1 -.y.x.l.s.z.n.n.b.b.k.i.x.c.s.( ; M.M.M.M.M.M.M.",
"M.M.M.M.M.M.M.4 ;.j.v.x.4.@.v.n.n.c...5.c.c.h.X.; M.M.M.M.M.M.M.",
"M.M.M.M.M.M.M.5 +.s.c.p.C x k.n.b.a.a Q k.x.u.{ , M.M.M.M.M.M.M.",
"M.M.M.M.M.M.M.M.r #.h.P * a u.v.v.w.7 - [ h.} 4 M.M.M.M.M.M.M.M.",
"M.M.M.M.M.M.M.M.$ E 3.M   d 6.l.l.:.6 . I 9.J o M.M.M.M.M.M.M.M.",
"M.M.M.M.M.M.M.M.M.u W b + 3 D e.e.H 2 o D T t M.M.M.M.M.M.M.M.M.",
"M.M.M.M.M.M.M.M.M.o S g # M.6 1.1.0 M.o n b + M.M.M.M.M.M.M.M.M.",
"M.M.M.M.M.M.M.M.M.O v e # M.6 ] ] 0 M.o p i + M.M.M.M.M.M.M.M.M.",
"M.M.M.M.M.M.M.M.M.O e q M.M.4 U ) 8 M.M.w w M.M.M.M.M.M.M.M.M.M.",
"M.M.M.M.M.M.M.M.M.M.% M.M.M.M.> R 8 M.M.& M.M.M.M.M.M.M.M.M.M.M.",
"M.M.M.M.M.M.M.M.M.M.M.M.M.M.M.< Z 3 M.M.M.M.M.M.M.M.M.M.M.M.M.M.",
"M.M.M.M.M.M.M.M.M.M.M.M.M.M.M.M.$ M.M.M.M.M.M.M.M.M.M.M.M.M.M.M.",
"M.M.M.M.M.M.M.M.M.M.M.M.M.M.M.M.M.M.M.M.M.M.M.M.M.M.M.M.M.M.M.M."
};
