/* XPM */
static char *result[] = {
/* columns rows colors chars-per-pixel */
"32 32 173 2 ",
"   c #141415",
".  c #1A1A1C",
"X  c #1D1E21",
"o  c #1E1F29",
"O  c #221622",
"+  c #251C25",
"@  c #271A28",
"#  c #2B1A2D",
"$  c #2F1C32",
"%  c #3A1C3C",
"&  c #1F2122",
"*  c #1F2329",
"=  c #212224",
"-  c #26292C",
";  c #2B2737",
":  c #29243C",
">  c #2C293C",
",  c #262531",
"<  c #33233A",
"1  c #3D3D3E",
"2  c #442A3D",
"3  c #444037",
"4  c #49453B",
"5  c #3F1E42",
"6  c #372A4E",
"7  c #3F2343",
"8  c #2D304A",
"9  c #363940",
"0  c #3B3B47",
"q  c #37364A",
"w  c #39344B",
"e  c #363D4A",
"r  c #3D3D49",
"t  c #3E3F59",
"y  c #373661",
"u  c #442542",
"i  c #442C52",
"p  c #4C2C55",
"a  c #4A3254",
"s  c #4B365A",
"d  c #3C4457",
"f  c #3A416B",
"g  c #444B56",
"h  c #5C475C",
"j  c #4C5058",
"k  c #525355",
"l  c #58595C",
"z  c #6D5959",
"x  c #726A5E",
"c  c #434A62",
"v  c #44466D",
"b  c #464363",
"n  c #4C5362",
"m  c #5A566C",
"M  c #585B6C",
"N  c #454F7E",
"B  c #495474",
"V  c #4E5877",
"C  c #4D567B",
"Z  c #5F5C73",
"A  c #505679",
"S  c #545C78",
"D  c #645E6F",
"F  c #67686D",
"G  c #676766",
"H  c #696473",
"J  c #606876",
"K  c #666679",
"L  c #666F7F",
"P  c #696D79",
"I  c #67707E",
"U  c #7B7A7B",
"Y  c #917E6C",
"T  c #92856C",
"R  c #495289",
"E  c #556184",
"W  c #5C6680",
"Q  c #576588",
"!  c #5C6C89",
"~  c #5A638B",
"^  c #5A6798",
"/  c #677182",
"(  c #6E7488",
")  c #6E798B",
"_  c #73778F",
"`  c #727C8C",
"'  c #747981",
"]  c #607099",
"[  c #66799E",
"{  c #6D7F9E",
"}  c #647490",
"|  c #717E92",
" . c #6374AD",
".. c #6C7EB3",
"X. c #7C828A",
"o. c #778397",
"O. c #7D8695",
"+. c #6D80AA",
"@. c #768ABA",
"#. c #7E90BD",
"$. c #7F96C7",
"%. c #7F97CA",
"&. c #868687",
"*. c #938F8B",
"=. c #808690",
"-. c #8F8E93",
";. c #828892",
":. c #8F9195",
">. c #8D939E",
",. c #818EA4",
"<. c #8994A5",
"1. c #949BA7",
"2. c #9D9EA2",
"3. c #919BB7",
"4. c #9EA4AE",
"5. c #9CA6B6",
"6. c #A8AEB9",
"7. c #A3ABB9",
"8. c #ACB3BE",
"9. c #B4B5B8",
"0. c #8A9FC3",
"q. c #8498C9",
"w. c #8FA6CD",
"e. c #8BA2D3",
"r. c #8EA7DA",
"t. c #9DABD0",
"y. c #92ACDA",
"u. c #92AAD3",
"i. c #9BB4DE",
"p. c #AEB5C4",
"a. c #A9B6CC",
"s. c #AFBBCF",
"d. c #B4B8C0",
"f. c #B0BACA",
"g. c #A7B9D4",
"h. c #9BB5E1",
"j. c #9FBAE3",
"k. c #A2B7E0",
"l. c #A1B9E1",
"z. c #BCC2CF",
"x. c #B9C6DF",
"c. c #BDC9DE",
"v. c #ACC1E4",
"b. c #B3C6E4",
"n. c #BBCBE6",
"m. c #BCCCE9",
"M. c #C1C7D2",
"N. c #CECFD2",
"B. c #C4CCD8",
"V. c LightGray",
"C. c #C2CFE7",
"Z. c #C2D0E7",
"A. c #CCD6E7",
"S. c #C6D4E9",
"D. c #CBD6E9",
"F. c #CFD8E9",
"G. c #D0D7E6",
"H. c #D3D8E4",
"J. c #DDDEE2",
"K. c #D3DCEA",
"L. c #D9DEE9",
"P. c #DFE0E3",
"I. c #DDE3ED",
"U. c #DFE5F0",
"Y. c #E2E5ED",
"T. c #E6E9EE",
"R. c #EBECEF",
"E. c #F1EFEF",
"W. c #F0F0EF",
"Q. c #E6E9F0",
"!. c #EDEEF1",
"~. c #F1F0F1",
"^. c None",
/* pixels */
"^.^.^.^.^.^.^.^.^.^.^.^.^.^.^.^.^.^.^.^.^.^.^.^.^.^.^.^.^.^.^.^.",
"^.^.^.^.^.^.^.^.^.^.^.^.^.^.^.^.^.^.^.^.^.^.^.^.^.^.^.^.^.^.^.^.",
"^.^.^.^.^.^.^.^.^.^.^.^.^.^.^.^.^.^.^.^.^.^.^.^.^.^.^.^.^.^.^.^.",
"^.^.^.^.^.^.^.^.^.^.^.^.^.^.w 0 d a a ^.^.^.^.^.^.^.^.^.^.^.^.^.",
"^.^.^.^.^.^.^.^.^.^.^.^.^.g 0.g.a.a.K ^.^.^.^.^.^.^.^.^.^.^.^.^.",
"^.^.^.^.^.^.^.^.^.^.^.^.t #.l.A.Y.T.M.Z ^.^.^.^.^.^.^.^.^.^.^.^.",
"^.^.^.^.^.^.^.^.^.^.^.$ c y.b.K.R.W.T.p.M ^.^.^.^.^.^.^.^.^.^.^.",
"^.^.^.^.^.^.^.^.^.^.^.b +.i.S.Y.W.W.W.I.P % ^.^.^.^.^.^.^.^.^.^.",
"^.^.^.^.^.^.^.^.^.^.  B y.v.K.T.Y.R.E.T.7.m ^.^.^.^.^.^.^.^.^.^.",
"^.^.^.^.^.^.^.^.^.^.t [ l.Z.K.I.L.T.E.~.I.5.m ^.^.^.^.^.^.^.^.^.",
"^.^.^.^.^.^.^.^.^.@ E r.v.F.G.K.L.T.T.T.T.K.,.< ^.^.^.^.^.^.^.^.",
"^.^.^.^.^.^.^.^.^.+ ! j.n.F.A.L.R.W.K.f.6.s.,.< ^.^.^.^.^.^.^.^.",
"^.^.^.^.^.^.^.^.^.@ ! h.b.Z.m.T.R.L.3.g 1 / ) 7 ^.^.^.^.^.^.^.^.",
"^.^.^.^.^.^.^.^.^.# V q.i.v.n.T.R.t.c   I ` < ^.^.^.^.^.^.^.^.^.",
"^.^.^.^.^.^.^.^.^.^.; A %.i.n.T.R.t.d   X.=.+ ^.^.^.^.^.^.^.^.^.",
"^.^.^.^.^.^.^.^.^.^.^.i S e.n.T.R.b.n X -.:.# ^.^.^.^.^.^.^.^.^.",
"^.^.^.^.^.^.^.^.^.^.^.P 8.A.I.S.T.Y.F U &.h ^.^.^.^.^.^.^.^.^.^.",
"^.^.^.^.^.^.^.^.^.^.H 9.I.I.A.I.L.R.9.U 1 O ^.^.^.^.^.^.^.^.^.^.",
"^.^.^.^.^.^.^.^.^.Z 8.R.W.z.O.J.Y.T.E.G 0 I Z ^.^.^.^.^.^.^.^.^.",
"^.^.^.^.^.^.^.^.& <.U.W.V.*.x :.V.Y.9.U 4.a.' z ^.^.^.^.^.^.^.^.",
"^.^.^.^.^.^.^.^.& 1.T.~.2.2 T F V.p.J 9.!.-.4 Y 2 ^.^.^.^.^.^.^.",
"^.^.^.^.^.^.^.^.= 1.I.U.<.= k z.J.l | K.U.O.+ u ^.^.^.^.^.^.^.^.",
"^.^.^.^.^.^.^.^.* O.S.n.` e 0.D.L.k } m.x.( $ ^.^.^.^.^.^.^.^.^.",
"^.^.^.^.^.^.^.^.& { v.O.- e u.D.J.k Q g.) a ^.^.^.^.^.^.^.^.^.^.",
"^.^.^.^.^.^.^.^., ^ r.W O w 3.l.B.g E e.S % ^.^.^.^.^.^.^.^.^.^.",
"^.^.^.^.^.^.^.< ~ @.E s ^.p c w.g.g C C s ^.^.^.^.^.^.^.^.^.^.^.",
"^.^.^.^.^.^.^.* ^ C w ^.^.^.; ..q.e ; i ^.^.^.^.^.^.^.^.^.^.^.^.",
"^.^.^.^.^.^.^.* R 8 ^.^.^.^.i v  .R : ^.^.^.^.^.^.^.^.^.^.^.^.^.",
"^.^.^.^.^.^.^.^.y 6 ^.^.^.^.^.< v f : ^.^.^.^.^.^.^.^.^.^.^.^.^.",
"^.^.^.^.^.^.^.^.5 ^.^.^.^.^.^.^.5 % < ^.^.^.^.^.^.^.^.^.^.^.^.^.",
"^.^.^.^.^.^.^.^.^.^.^.^.^.^.^.^.^.^.^.^.^.^.^.^.^.^.^.^.^.^.^.^.",
"^.^.^.^.^.^.^.^.^.^.^.^.^.^.^.^.^.^.^.^.^.^.^.^.^.^.^.^.^.^.^.^."
};
