/* XPM */
static char *result[] = {
/* columns rows colors chars-per-pixel */
"32 32 157 2 ",
"   c #181717",
".  c #181816",
"X  c #181718",
"o  c #19191B",
"O  c #231624",
"+  c #261628",
"@  c #29142A",
"#  c #271E2C",
"$  c #2D1C2D",
"%  c #1F222A",
"&  c #212327",
"*  c #24232B",
"=  c #292532",
"-  c #262834",
";  c #2C2E34",
":  c #2B2B3A",
">  c #312A3F",
",  c #2E313F",
"<  c #36393F",
"1  c #2E2F42",
"2  c #352540",
"3  c #322E43",
"4  c #333746",
"5  c #363C46",
"6  c #3A3D46",
"7  c #383648",
"8  c #34384C",
"9  c #3D3B4C",
"0  c #342F55",
"q  c #362F59",
"w  c #333751",
"e  c #3A3153",
"r  c #323851",
"t  c #393B56",
"y  c #3E3F62",
"u  c #403C4C",
"i  c #413C56",
"p  c #4F3561",
"a  c #652C68",
"s  c #612C64",
"d  c #653069",
"f  c #3C4453",
"g  c #3D465B",
"h  c #3D446E",
"j  c #464E5A",
"k  c #47485A",
"l  c #4A505B",
"z  c #474667",
"x  c #454F62",
"c  c #484F63",
"v  c #40486D",
"b  c #4E4F6B",
"n  c #5E466B",
"m  c #49566B",
"M  c #515864",
"N  c #455074",
"B  c #485075",
"V  c #49527A",
"C  c #525673",
"Z  c #525F77",
"A  c #575E7A",
"S  c #526276",
"D  c #536279",
"F  c #5F6A79",
"G  c #526080",
"H  c #5D6C85",
"J  c #53608F",
"K  c #5C6C8B",
"L  c #576596",
"P  c #5C6A9C",
"I  c #637082",
"U  c #687283",
"Y  c #69758A",
"T  c #6D798B",
"R  c #66748A",
"E  c #717880",
"W  c #7D7188",
"Q  c #606C92",
"!  c #6B7795",
"~  c #707F9C",
"^  c #5D6DA1",
"/  c #6375A0",
"(  c #6172A8",
")  c #6679A8",
"_  c #6C7EAB",
"`  c #6C7DA2",
"'  c #6A7BB6",
"]  c #9B3EA1",
"[  c #A13DA6",
"{  c #6F80A1",
"}  c #768AA8",
"|  c #7D8FAE",
" . c #7284A5",
".. c #7083B4",
"X. c #7E92B2",
"o. c #7287C1",
"O. c #788FCB",
"+. c #7B93CD",
"@. c #8D98AE",
"#. c #8E9EB6",
"$. c #8D9FBE",
"%. c #8194B4",
"&. c #93A0B6",
"*. c #92A2BC",
"=. c #889ECA",
"-. c #839BC9",
";. c #839CD0",
":. c #8EA3C2",
">. c #94AACD",
",. c #98ADCE",
"<. c #87A1D5",
"1. c #8CA6D5",
"2. c #8CA8DA",
"3. c #9CAED0",
"4. c #92AEDD",
"5. c #9DB3D4",
"6. c #94B1DD",
"7. c #9BB2D9",
"8. c #A8B1C1",
"9. c #A5B4C8",
"0. c #ADB8CA",
"q. c #B5BDC9",
"w. c #A4B5D1",
"e. c #ABBFDD",
"r. c #A4BADB",
"t. c #9FB8E2",
"y. c #A4BCE3",
"u. c #A8BFE3",
"i. c #B3C2DC",
"p. c #BBC6DF",
"a. c #ACC1E3",
"s. c #B3C7E6",
"d. c #B6C9E6",
"f. c #BDCDE5",
"g. c #BDCEE8",
"h. c #C1C6CC",
"j. c #C6CEDA",
"k. c #CCD2DC",
"l. c #C1CEE3",
"z. c #C3D1E6",
"x. c #C8D4E5",
"c. c #C4D3EA",
"v. c #CAD6E9",
"b. c #CDD8E8",
"n. c #D0D9E6",
"m. c #D8DCE7",
"M. c #D2DBEA",
"N. c #D9DFEB",
"B. c #DCE2EC",
"V. c #E1E6ED",
"C. c #E6E9ED",
"Z. c #EEEEEF",
"A. c #F0EFEF",
"S. c #F1F0EF",
"D. c #EBEDF1",
"F. c #F0EFF0",
"G. c None",
/* pixels */
"G.G.G.G.G.G.G.G.G.G.G.G.G.G.G.G.G.G.G.G.G.G.G.G.G.G.G.G.G.G.G.G.",
"G.G.G.G.G.G.G.G.G.G.G.G.G.G.G.G.G.G.G.G.G.G.G.G.G.G.G.G.G.G.G.G.",
"G.G.G.G.G.G.G.G.G.G.G.G.G.G.O .     G.G.G.G.G.G.G.G.G.G.G.G.G.G.",
"G.G.G.G.G.G.G.G.G.G.G.G.G.2 A I U H b G.G.G.G.G.G.G.G.G.G.G.G.G.",
"G.G.G.G.G.G.G.G.G.G.G.G.G.S >.d.l.a.X.x G.G.G.G.G.G.G.G.G.G.G.G.",
"G.G.G.G.G.G.G.G.G.G.G.G.5 >.g.M.B.b.s.} # G.G.G.G.G.G.G.G.G.G.G.",
"G.G.G.G.G.G.G.G.G.G.G.G.M e.C.Z.D.Z.B.&.u G.G.G.G.G.G.G.G.G.G.G.",
"G.G.G.G.G.G.G.G.G.G.G.6 9.m.Z.A.F.F.V.x.&.; G.G.G.G.G.G.G.G.G.G.",
"G.G.G.G.G.G.G.G.G.G.G.l j.Z.Z.A.S.D.S.C.q.6 G.G.G.G.G.G.G.G.G.G.",
"G.G.G.G.G.G.G.G.G.G.k $.n.Z.Z.Z.S.S.S.C.z.X.7 G.G.G.G.G.G.G.G.G.",
"G.G.G.G.G.G.G.G.G.G.k e.M.Z.S.Z.Z.S.S.C.v.5.5 G.G.G.G.G.G.G.G.G.",
"G.G.G.G.G.G.G.G.G.G.l i.M.B.Z.S.S.D.C.B.b.9.6 G.G.G.G.G.G.G.G.G.",
"G.G.G.G.G.G.G.G.G.G.j r.z.M.B.V.V.V.B.b.g.,.5 G.G.G.G.G.G.G.G.G.",
"G.G.G.G.G.G.G.G.G.G.g 1.u.d.z.z.z.x.l.d.y.-.4 G.G.G.G.G.G.G.G.G.",
"G.G.G.G.G.G.G.G.G.G.t _ <.4.y.a.y.a.7.2.;./ , G.G.G.G.G.G.G.G.G.",
"G.G.G.G.G.G.G.G.G.G.G.1 P +.2.4.t.t.<.o.J - G.G.G.G.G.G.G.G.G.G.",
"G.G.G.G.G.G.G.G.G.G.G.* t ' +.2.2.<.O.^ , & G.G.G.G.G.G.G.G.G.G.",
"G.G.G.G.G.G.G.G.G.G.c X.*.7.4.6.6.4.4.,.#.} f G.G.G.G.G.G.G.G.G.",
"G.G.G.G.G.G.G.G.G.m :.v.B.b.z.l.z.z.c.b.B.z.X.4 G.G.G.G.G.G.G.G.",
"G.G.G.G.G.G.G.G.C $.v.B.b.C.C.C.C.C.C.B.b.B.a. .i G.G.G.G.G.G.G.",
"G.G.G.G.G.G.G.o R c.C.C.z.p.C.S.S.S.m.i.k.C.c.7.f G.G.G.G.G.G.G.",
"G.G.G.G.G.G.G.o T v.B.M.w.! k.Z.S.D.8.{ x.V.b.7.f G.G.G.G.G.G.G.",
"G.G.G.G.G.G.G.o Y d.g.5.K < q.D.D.p.W n @.j.d.| f G.G.G.G.G.G.G.",
"G.G.G.G.G.G.G.o K t.5. .= ; 0.V.m.E d ] 6 >.=.7 G.G.G.G.G.G.G.G.",
"G.G.G.G.G.G.G.o H ;.Q : G.; %.f.g.F a [ 3 ..( : G.G.G.G.G.G.G.G.",
"G.G.G.G.G.G.G.o G K 3 G.G.G.9 *.y.Z a ] 3 L t G.G.G.G.G.G.G.G.G.",
"G.G.G.G.G.G.G.o V N + G.G.G.# ` 2.D $ p V w G.G.G.G.G.G.G.G.G.G.",
"G.G.G.G.G.G.G.o h h + G.G.G.G.g _ ) w % t G.G.G.G.G.G.G.G.G.G.G.",
"G.G.G.G.G.G.G.G.q 0 G.G.G.G.G.G.z V h 8 O G.G.G.G.G.G.G.G.G.G.G.",
"G.G.G.G.G.G.G.G.G.G.G.G.G.G.G.G.G.@ 7 h G.G.G.G.G.G.G.G.G.G.G.G.",
"G.G.G.G.G.G.G.G.G.G.G.G.G.G.G.G.G.G.G.G.G.G.G.G.G.G.G.G.G.G.G.G.",
"G.G.G.G.G.G.G.G.G.G.G.G.G.G.G.G.G.G.G.G.G.G.G.G.G.G.G.G.G.G.G.G."
};
