/* XPM */
static char *result[] = {
/* columns rows colors chars-per-pixel */
"32 32 171 2 ",
"   c #161616",
".  c #181717",
"X  c #171718",
"o  c #191318",
"O  c #1B1B1C",
"+  c #1E1E21",
"@  c #271529",
"#  c #261C2C",
"$  c #29192D",
"%  c #2B132D",
"&  c #1F2022",
"*  c #212225",
"=  c #24262B",
"-  c #26292F",
";  c #282B2F",
":  c #242630",
">  c #2A2432",
",  c #272934",
"<  c #2C2B34",
"1  c #2E293B",
"2  c #31283B",
"3  c #35213C",
"4  c #2D3136",
"5  c #2D323C",
"6  c #303236",
"7  c #32353C",
"8  c #443E33",
"9  c #2F2F4F",
"0  c #2E2A43",
"q  c #382540",
"w  c #302848",
"e  c #3C2C40",
"r  c #2D3247",
"t  c #343345",
"y  c #353A4B",
"u  c #383C4A",
"i  c #303052",
"p  c #3B3852",
"a  c #323759",
"s  c #41394C",
"d  c #413F56",
"f  c #403C5B",
"g  c #3C434D",
"h  c #3B4354",
"j  c #3D425D",
"k  c #3F4962",
"l  c #40464F",
"z  c #494B4D",
"x  c #404753",
"c  c #474B54",
"v  c #444B5B",
"b  c #4E525D",
"n  c #54555C",
"m  c #7D715A",
"M  c #414B64",
"N  c #49526B",
"B  c #495465",
"V  c #555C67",
"C  c #535D6E",
"Z  c #434D79",
"A  c #4C5572",
"S  c #525E72",
"D  c #5D5D73",
"F  c #57616D",
"G  c #5B626D",
"H  c #5C6676",
"J  c #63666D",
"K  c #676170",
"L  c #666A73",
"P  c #465087",
"I  c #505C88",
"U  c #576281",
"Y  c #5E6C87",
"T  c #5D6D8A",
"R  c #5D6D94",
"E  c #5E6D9E",
"W  c #546293",
"Q  c #606D8A",
"!  c #6F7681",
"~  c #657288",
"^  c #6E798B",
"/  c #677894",
"(  c #667999",
")  c #667392",
"_  c #6777A1",
"`  c #6678A4",
"'  c #6B7DA3",
"]  c #728298",
"[  c #7D8899",
"{  c #788396",
"}  c #7281A5",
"|  c #788BA9",
" . c #7D90AC",
".. c #7085B0",
"X. c #768BB4",
"o. c #7D8EB6",
"O. c #7891B5",
"+. c #898C93",
"@. c #858E9E",
"#. c #828995",
"$. c #8E919C",
"%. c #AFA38A",
"&. c #838FA5",
"*. c #8090AD",
"=. c #8F9AAC",
"-. c #8A93A3",
";. c #9196A1",
":. c #979FAB",
">. c #939AA5",
",. c #8697B4",
"<. c #919FBA",
"1. c #99A0AA",
"2. c #95A0B5",
"3. c #9FA5B0",
"4. c #9DA7B8",
"5. c #A6AEBC",
"6. c #ABB1BB",
"7. c #C9C5BC",
"8. c #869EC1",
"9. c #8A9FC1",
"0. c #8097C9",
"q. c #859FCE",
"w. c #8CA5CB",
"e. c #8CA2C6",
"r. c #93A7C7",
"t. c #98A6C7",
"y. c #9EAEC6",
"u. c #9AAECD",
"i. c #8BA1D3",
"p. c #9AB0D1",
"a. c #9BB2DB",
"s. c #A1AEC2",
"d. c #A9B5C8",
"f. c #B4BBC5",
"g. c #A9B7D1",
"h. c #A7BAD7",
"j. c #ABB9D2",
"k. c #A4BADD",
"l. c #ABBDD8",
"z. c #B9C1CD",
"x. c #B8C2D5",
"c. c #B1C0D8",
"v. c #B9C6DA",
"b. c #ACC2E6",
"n. c #B4C6E2",
"m. c #B7C8E5",
"M. c #BFCCE4",
"N. c #C0C4C8",
"B. c #CACFD6",
"V. c #D1D6DD",
"C. c #C2CEE2",
"Z. c #C4D1E6",
"A. c #CBD3E5",
"S. c #CFD8E6",
"D. c #C3D3EA",
"F. c #CFD9E9",
"G. c #D1D7E1",
"H. c #DCDFE3",
"J. c #D3DCEA",
"K. c #D7E0ED",
"L. c #DCE2EB",
"P. c #E0E5ED",
"I. c #E5E9EE",
"U. c #EDEEEF",
"Y. c #F0EFEF",
"T. c #EFF0EF",
"R. c #F0F0EF",
"E. c #E5E9F0",
"W. c #EFF0F0",
"Q. c #F0F1F0",
"!. c None",
/* pixels */
"!.!.!.!.!.!.!.!.!.!.!.!.!.!.!.!.!.!.!.!.!.!.!.!.!.!.!.!.!.!.!.!.",
"!.!.!.!.!.!.!.!.!.!.!.!.!.!.!.!.!.!.!.!.!.!.!.!.!.!.!.!.!.!.!.!.",
"!.!.!.!.!.!.!.!.!.!.!.!.!.x S D F B !.!.!.!.!.!.!.!.!.!.!.!.!.!.",
"!.!.!.!.!.!.!.!.!.!.!.!.u / k.m.n.e.N !.!.!.!.!.!.!.!.!.!.!.!.!.",
"!.!.!.!.!.!.!.!.!.!.!.@ T k.Z.J.J.n.e.t !.!.!.!.!.!.!.!.!.!.!.!.",
"!.!.!.!.!.!.!.!.!.!.!.2 ] M.L.U.I.J.g.x !.!.!.!.!.!.!.!.!.!.!.!.",
"!.!.!.!.!.!.!.!.!.!.# ) l.L.U.U.U.I.Z.o.p !.!.!.!.!.!.!.!.!.!.!.",
"!.!.!.!.!.!.!.!.!.!.* | D.L.Y.R.R.U.J.h.v !.!.!.!.!.!.!.!.!.!.!.",
"!.!.!.!.!.!.!.!.!.3 Q u.Z.P.R.U.U.U.F.n.} f !.!.!.!.!.!.!.!.!.!.",
"!.!.!.!.!.!.!.!.!.> O.b.D.L.R.R.U.U.J.m.i.M !.!.!.!.!.!.!.!.!.!.",
"!.!.!.!.!.!.!.!.!., X. .s.J.E.E.E.P.C.&.X.M !.!.!.!.!.!.!.!.!.!.",
"!.!.!.!.!.!.!.!.!., | j V =.1.1.:.:.[ 7 R M !.!.!.!.!.!.!.!.!.!.",
"!.!.!.!.!.!.!.!.!.> Y C 6 + & & * # & g U j !.!.!.!.!.!.!.!.!.!.",
"!.!.!.!.!.!.!.!.!.!.= @.G   X X     = =.b !.!.!.!.!.!.!.!.!.!.!.",
"!.!.!.!.!.!.!.!.!.!.* >.! + . X . X 7 6.n !.!.!.!.!.!.!.!.!.!.!.",
"!.!.!.!.!.!.!.!.!.!.; ;.t.A & & & 4 } j.n !.!.!.!.!.!.!.!.!.!.!.",
"!.!.!.!.!.!.!.!.!.e $.L -.g.*._ } 2.j.L +.K !.!.!.!.!.!.!.!.!.!.",
"!.!.!.!.!.!.!.!.7 $.V.6.f.J.J.A.Z.K.A.3.B.f.J !.!.!.!.!.!.!.!.!.",
"!.!.!.!.!.!.!.s #.V.Z.@.5.F.I.Y.Q.L.v.#.5.J.s.D !.!.!.!.!.!.!.!.",
"!.!.!.!.!.!.!.g l.I.N.z c ,.M.P.L.j.^ 4 +.P.J.[ # !.!.!.!.!.!.!.",
"!.!.!.!.!.!.!.g h.H.%.8   N a.G.Z.o.= O m 7.D.] O !.!.!.!.!.!.!.",
"!.!.!.!.!.!.!.u ,.l.V *   S b.J.F.e.; . 7 &.p.Y + !.!.!.!.!.!.!.",
"!.!.!.!.!.!.!.!.y t.w.x   H Z.U.I.y.; X ( a.~ > !.!.!.!.!.!.!.!.",
"!.!.!.!.!.!.!.!.1 ' q.x o H x.U.L.2.< # } 0.N $ !.!.!.!.!.!.!.!.",
"!.!.!.!.!.!.!.!.!.t ` h !.q L S.f.c !.# R A > !.!.!.!.!.!.!.!.!.",
"!.!.!.!.!.!.!.!.!.> W i !.!.B n.s.6 !.# I j !.!.!.!.!.!.!.!.!.!.",
"!.!.!.!.!.!.!.!.!.# P r !.!.v a.8.5 !.# Z a !.!.!.!.!.!.!.!.!.!.",
"!.!.!.!.!.!.!.!.!.!.i 0 !.!.u T ..4 !.!.9 9 !.!.!.!.!.!.!.!.!.!.",
"!.!.!.!.!.!.!.!.!.!.!.!.!.!.!.r E , !.!.!.!.!.!.!.!.!.!.!.!.!.!.",
"!.!.!.!.!.!.!.!.!.!.!.!.!.!.!.0 Z : !.!.!.!.!.!.!.!.!.!.!.!.!.!.",
"!.!.!.!.!.!.!.!.!.!.!.!.!.!.!.!.$ !.!.!.!.!.!.!.!.!.!.!.!.!.!.!.",
"!.!.!.!.!.!.!.!.!.!.!.!.!.!.!.!.!.!.!.!.!.!.!.!.!.!.!.!.!.!.!.!."
};
