/* XPM */
static char *result[] = {
/* columns rows colors chars-per-pixel */
"32 32 164 2 ",
"   c #161515",
".  c #171518",
"X  c #1A121B",
"o  c #1B1A1A",
"O  c #1E1E23",
"+  c #231B24",
"@  c #291C2B",
"#  c #231C2B",
"$  c #2D1D31",
"%  c #331935",
"&  c #351E3B",
"*  c #212123",
"=  c #29232C",
"-  c #2D2132",
";  c #2F273B",
":  c #292D3E",
">  c #382C30",
",  c #312338",
"<  c #352E3B",
"1  c #34363F",
"2  c #3D3D3F",
"3  c #372A44",
"4  c #382C46",
"5  c #3E294A",
"6  c #3B2544",
"7  c #373A41",
"8  c #383C45",
"9  c #3C364F",
"0  c #353A4D",
"q  c #373E51",
"w  c #383A5D",
"e  c #3E3B6B",
"r  c #492E40",
"t  c #43244D",
"y  c #472B50",
"u  c #4C2D54",
"i  c #453352",
"p  c #443759",
"a  c #473B52",
"s  c #473E61",
"d  c #5B3162",
"f  c #3A4152",
"g  c #3D4859",
"h  c #4E4940",
"j  c #424244",
"k  c #5C504C",
"l  c #414652",
"z  c #4B4051",
"x  c #49425F",
"c  c #554855",
"v  c #4F5257",
"b  c #545458",
"n  c #645B4C",
"m  c #404663",
"M  c #4D4062",
"N  c #47456F",
"B  c #4A576E",
"V  c #575E69",
"C  c #424A73",
"Z  c #4C4D74",
"A  c #4C5876",
"S  c #4B537A",
"D  c #4E5A7C",
"F  c #5D5771",
"G  c #5D5D72",
"H  c #5F6265",
"J  c #576378",
"K  c #5B6473",
"L  c #6A6867",
"P  c #636A7C",
"I  c #6B6C7C",
"U  c #696C73",
"Y  c #737373",
"T  c #7D7D7E",
"R  c #88847E",
"E  c #948771",
"W  c #A08C74",
"Q  c #545D80",
"!  c #58658B",
"~  c #586691",
"^  c #606586",
"/  c #647086",
"(  c #6F7989",
")  c #6A748C",
"_  c #737D8D",
"`  c #7B7D8B",
"'  c #616E94",
"]  c #636E99",
"[  c #637294",
"{  c #66769E",
"}  c #67799E",
"|  c #6272A7",
" . c #6A7FA3",
".. c #6C7FB3",
"X. c #7E828D",
"o. c #6E819E",
"O. c #7A889D",
"+. c #7E8BAB",
"@. c #7B8CB3",
"#. c #798FB8",
"$. c #7489B4",
"%. c #7D93BC",
"&. c #7E95D2",
"*. c #818181",
"=. c #838491",
"-. c #848991",
";. c #918F94",
":. c #919294",
">. c #8694AA",
",. c #929AA8",
"<. c #989CA3",
"1. c #AFAFAF",
"2. c #A6A9B1",
"3. c #8099C5",
"4. c #8E9FC9",
"5. c #849CCD",
"6. c #869FD1",
"7. c #9FAAC0",
"8. c #9DAFCD",
"9. c #92A5C3",
"0. c #95AAD5",
"q. c #9AAED9",
"w. c #9AB3DF",
"e. c #A4ADC1",
"r. c #A5B0C3",
"t. c #ACB5C4",
"y. c #A8B7CE",
"u. c #AAB8CE",
"i. c #B5BBC6",
"p. c #B7BDC6",
"a. c #AFBED7",
"s. c #A0B6DF",
"d. c #A2B9DC",
"f. c #9EB7E2",
"g. c #A2BAE2",
"h. c #B9C0CE",
"j. c #ACC2E4",
"k. c #BBCCE5",
"l. c #CBCBCD",
"z. c #C2C7D2",
"x. c #C6CFDF",
"c. c #C5CBD4",
"v. c #CAD0D9",
"b. c #D4D5D7",
"n. c #D4D5D9",
"m. c #C3CFE3",
"M. c #C3D1E7",
"N. c #CCD4E5",
"B. c #C5D3E9",
"V. c #CAD6E8",
"C. c #CFD9E9",
"Z. c #DADDE6",
"A. c #D3DCEA",
"S. c #D9DFEB",
"D. c #DDE2EB",
"F. c #E2E6EC",
"G. c #E6E9EE",
"H. c #ECEDEF",
"J. c #E0E6F0",
"K. c #E5E9F0",
"L. c #ECEDF1",
"P. c #F0EFF0",
"I. c #F2F2F3",
"U. c None",
/* pixels */
"U.U.U.U.U.U.U.U.U.U.U.U.U.U.U.U.U.U.U.U.U.U.U.U.U.U.U.U.U.U.U.U.",
"U.U.U.U.U.U.U.U.U.U.U.U.U.U.U.U.U.U.U.U.U.U.U.U.U.U.U.U.U.U.U.U.",
"U.U.U.U.U.U.U.U.U.U.U.U.U.U.U.      . U.U.U.U.U.U.U.U.U.U.U.U.U.",
"U.U.U.U.U.U.U.U.U.U.U.U.U.U.a P K P J x U.U.U.U.U.U.U.U.U.U.U.U.",
"U.U.U.U.U.U.U.U.U.U.U.U.U.z ` m.V.k.g.[ p U.U.U.U.U.U.U.U.U.U.U.",
"U.U.U.U.U.U.U.U.U.U.U.U.i =.Z.H.L.A.k.0.! @ U.U.U.U.U.U.U.U.U.U.",
"U.U.U.U.U.U.U.U.U.U.U.X G x.L.P.L.D.k.f.' ; U.U.U.U.U.U.U.U.U.U.",
"U.U.U.U.U.U.U.U.U.U.U.O U D.P.P.L.L.A.j.3.! - U.U.U.U.U.U.U.U.U.",
"U.U.U.U.U.U.U.U.U.U.& P i.K.P.L.D.H.S.k.f. ., U.U.U.U.U.U.U.U.U.",
"U.U.U.U.U.U.U.U.U.U.I t.K.P.P.K.A.S.A.V.j.3.Q 5 U.U.U.U.U.U.U.U.",
"U.U.U.U.U.U.U.U.U.* >.A.K.F.G.H.F.C.A.C.k.w.$.4 U.U.U.U.U.U.U.U.",
"U.U.U.U.U.U.U.U.U.# >.r.<.e.M.L.P.Z.V.V.M.j.%.4 U.U.U.U.U.U.U.U.",
"U.U.U.U.U.U.U.U.U.= ( P 7 f >.N.H.H.M.k.k.f.%.4 U.U.U.U.U.U.U.U.",
"U.U.U.U.U.U.U.U.U.U.- _ ( o q 4.F.P.M.j.f.6.] 5 U.U.U.U.U.U.U.U.",
"U.U.U.U.U.U.U.U.U.U.@ -.=.  0 4.G.P.M.g.6.[ 4 U.U.U.U.U.U.U.U.U.",
"U.U.U.U.U.U.U.U.U.U.$ ;.:.o l a.H.K.M.q.[ 9 U.U.U.U.U.U.U.U.U.U.",
"U.U.U.U.U.U.U.U.U.U.U.c T U b Z.G.V.A.A.p.=.t U.U.U.U.U.U.U.U.U.",
"U.U.U.U.U.U.U.U.U.U.U.. 2 R 1.H.D.S.A.S.K.c.` u U.U.U.U.U.U.U.U.",
"U.U.U.U.U.U.U.U.U.U.F K 7 Y I.H.F.F.,.r.G.P.v./ u U.U.U.U.U.U.U.",
"U.U.U.U.U.U.U.U.U.k ` u.,.T p.D.F.2.L R l.P.L.r.< U.U.U.U.U.U.U.",
"U.U.U.U.U.U.U.U.r W h :.L.<.H r.b.L E n Y P.L.i.< U.U.U.U.U.U.U.",
"U.U.U.U.U.U.U.U.U.> * -.F.N.O.v b.z.H * Y H.K.i.1 U.U.U.U.U.U.U.",
"U.U.U.U.U.U.U.U.U.U.+ _ B.k.o.j b.A.9.g Y F.A.2.< U.U.U.U.U.U.U.",
"U.U.U.U.U.U.U.U.U.U.$ ) g.+.9 2 b.C.d.B U C.u.F d U.U.U.U.U.U.U.",
"U.U.U.U.U.U.U.U.U.- ^ #.| s % 2 z.k./ A @.w.@.4 U.U.U.U.U.U.U.U.",
"U.U.U.U.U.U.U.U.U.O  .{ s U.U.7 8.0.f S 5...Z u U.U.U.U.U.U.U.U.",
"U.U.U.U.U.U.U.U.U.O ~ m % U.U.i ' $.0 S | N t U.U.U.U.U.U.U.U.U.",
"U.U.U.U.U.U.U.U.U.$ Z w U.U.U.U.6 S : C C $ U.U.U.U.U.U.U.U.U.U.",
"U.U.U.U.U.U.U.U.U.U.& U.U.U.U.U.U.& O w s & U.U.U.U.U.U.U.U.U.U.",
"U.U.U.U.U.U.U.U.U.U.U.U.U.U.U.U.U.U.$ # t U.U.U.U.U.U.U.U.U.U.U.",
"U.U.U.U.U.U.U.U.U.U.U.U.U.U.U.U.U.U.U.U.U.U.U.U.U.U.U.U.U.U.U.U.",
"U.U.U.U.U.U.U.U.U.U.U.U.U.U.U.U.U.U.U.U.U.U.U.U.U.U.U.U.U.U.U.U."
};
