/* XPM */
static char *result[] = {
/* columns rows colors chars-per-pixel */
"32 32 172 2 ",
"   c #151515",
".  c #1C131C",
"X  c #1A1A1C",
"o  c #1F1620",
"O  c #1D1F22",
"+  c #231E24",
"@  c #271B2A",
"#  c #2A1B2C",
"$  c #2E1B31",
"%  c #381D3A",
"&  c #311D33",
"*  c #27292B",
"=  c #222326",
"-  c #232536",
";  c #2A2A3B",
":  c #332235",
">  c #352439",
",  c #36393F",
"<  c #37383C",
"1  c #432A3D",
"2  c #453F38",
"3  c #4B453B",
"4  c #2F2F4B",
"5  c #362442",
"6  c #3C2244",
"7  c #372842",
"8  c #38284F",
"9  c #352C48",
"0  c #3B3B47",
"q  c #39364B",
"w  c #353C4B",
"e  c #3B3D48",
"r  c #3E3150",
"t  c #3E3665",
"y  c #481E4C",
"u  c #41254C",
"i  c #42284D",
"p  c #4C2D57",
"a  c #4B375A",
"s  c #413F5D",
"d  c #443151",
"f  c #4A3E62",
"g  c #3D4357",
"h  c #3A416C",
"j  c #484B53",
"k  c #504950",
"l  c #4C5059",
"z  c #535354",
"x  c #59595C",
"c  c #6B5A55",
"v  c #716A5E",
"b  c #434A62",
"n  c #44466E",
"m  c #474363",
"M  c #4C5462",
"N  c #56596A",
"B  c #4B5670",
"V  c #4B547A",
"C  c #5F5C73",
"Z  c #51567A",
"A  c #535C77",
"S  c #635F6D",
"D  c #67686D",
"F  c #676666",
"G  c #6C6374",
"H  c #616975",
"J  c #676E78",
"K  c #66707F",
"L  c #68707F",
"P  c #7A7A7A",
"I  c #907F69",
"U  c #92846D",
"Y  c #454E80",
"T  c #485287",
"R  c #546185",
"E  c #576689",
"W  c #5C6C89",
"Q  c #5C6487",
"!  c #596897",
"~  c #677182",
"^  c #6E7587",
"/  c #6E798A",
"(  c #757980",
")  c #73778F",
"_  c #717C8C",
"`  c #607099",
"'  c #66799E",
"]  c #6C7F9E",
"[  c #637492",
"{  c #717E93",
"}  c #6374AD",
"|  c #6C7EB1",
" . c #7D818B",
".. c #778496",
"X. c #7D8695",
"o. c #6D80AB",
"O. c #778ABA",
"+. c #7D90BE",
"@. c #7E96C6",
"#. c #7F97C9",
"$. c #818181",
"%. c #898B8D",
"&. c #928F8B",
"*. c #808690",
"=. c #8F8E92",
"-. c #838892",
";. c #8F9195",
":. c #8C939E",
">. c #808EA4",
",. c #8994A4",
"<. c #949CA6",
"1. c #9D9FA2",
"2. c #919BB9",
"3. c #9EA4AE",
"4. c #9CA6B6",
"5. c #A3A9B7",
"6. c #A8AEB9",
"7. c #A4ADBC",
"8. c #ACB3BF",
"9. c #B0B3B8",
"0. c #B5B6B7",
"q. c #8A9FC4",
"w. c #8498C8",
"e. c #8FA7CD",
"r. c #8BA3D2",
"t. c #8EA8D9",
"y. c #9DABD0",
"u. c #92ACDA",
"i. c #92AAD3",
"p. c #9BB4DF",
"a. c #ADB5C4",
"s. c #A8B5C8",
"d. c #ACBACF",
"f. c #B0B9CA",
"g. c #B4B8C1",
"h. c #A7B9D4",
"j. c #9BB5E1",
"k. c #A2B7E0",
"l. c #A0BAE2",
"z. c #BCC2CF",
"x. c #B9C6DF",
"c. c #BDCADE",
"v. c #ACC1E4",
"b. c #B4C6E4",
"n. c #BBCBE5",
"m. c #BDCCE8",
"M. c #C2C7D1",
"N. c #CECFD1",
"B. c #C5CCD8",
"V. c #D4D2D4",
"C. c #C3D1E7",
"Z. c #CCD6E7",
"A. c #CBD6E9",
"S. c #CED8E8",
"D. c #C5D4EA",
"F. c #D2D7E4",
"G. c #D0D9E7",
"H. c #DCDEE3",
"J. c #D3DBEA",
"K. c #D8DFEB",
"L. c #DFE0E3",
"P. c #DDE3EC",
"I. c #E2E6EE",
"U. c #E6E9EF",
"Y. c #EBECEE",
"T. c #E0E5F0",
"R. c #ECEDF1",
"E. c #E5E9F0",
"W. c #F0EFF0",
"Q. c #EFF0F2",
"!. c #F1F0F0",
"~. c None",
/* pixels */
"~.~.~.~.~.~.~.~.~.~.~.~.~.~.~.~.~.~.~.~.~.~.~.~.~.~.~.~.~.~.~.~.",
"~.~.~.~.~.~.~.~.~.~.~.~.~.~.~.~.~.~.~.~.~.~.~.~.~.~.~.~.~.~.~.~.",
"~.~.~.~.~.~.~.~.~.~.~.~.~.~.~.~.~.~.~.~.~.~.~.~.~.~.~.~.~.~.~.~.",
"~.~.~.~.~.~.~.~.~.~.~.~.~.~.0 0 0 q ~.~.~.~.~.~.~.~.~.~.~.~.~.~.",
"~.~.~.~.~.~.~.~.~.~.~.~.~.H d.d.h.q.b ~.~.~.~.~.~.~.~.~.~.~.~.~.",
"~.~.~.~.~.~.~.~.~.~.~.~.D M.U.I.A.v.O.s ~.~.~.~.~.~.~.~.~.~.~.~.",
"~.~.~.~.~.~.~.~.~.~.~.N s.U.!.Y.J.b.u.l & ~.~.~.~.~.~.~.~.~.~.~.",
"~.~.~.~.~.~.~.~.~.~.  J K.W.W.Y.I.C.p.| m ~.~.~.~.~.~.~.~.~.~.~.",
"~.~.~.~.~.~.~.~.~.~.N 5.U.Y.Y.I.Y.J.v.u.B % ~.~.~.~.~.~.~.~.~.~.",
"~.~.~.~.~.~.~.~.~.N 4.P.W.!.U.K.P.J.C.l.' f ~.~.~.~.~.~.~.~.~.~.",
"~.~.~.~.~.~.~.~.+ >.J.R.U.Y.U.P.J.F.S.v.t.R # ~.~.~.~.~.~.~.~.~.",
"~.~.~.~.~.~.~.~.O >.d.6.f.J.R.Y.K.A.S.n.l.W # ~.~.~.~.~.~.~.~.~.",
"~.~.~.~.~.~.~.~.: ) ~ , g 2.H.Y.U.n.C.b.j.W @ ~.~.~.~.~.~.~.~.~.",
"~.~.~.~.~.~.~.~.~.> _ L X b y.Y.U.n.v.p.@.Z # ~.~.~.~.~.~.~.~.~.",
"~.~.~.~.~.~.~.~.~.@ -. .  g y.Y.U.n.p.#.Z i ~.~.~.~.~.~.~.~.~.~.",
"~.~.~.~.~.~.~.~.~.$ ;.%.X M b.Y.U.n.r.A d ~.~.~.~.~.~.~.~.~.~.~.",
"~.~.~.~.~.~.~.~.~.~.k $.P D I.U.A.K.G.a.G ~.~.~.~.~.~.~.~.~.~.~.",
"~.~.~.~.~.~.~.~.~.~.  < I 0.U.P.K.A.K.U.g.G ~.~.~.~.~.~.~.~.~.~.",
"~.~.~.~.~.~.~.~.~.C K g S Y.Y.I.F.X.M.R.R.a.C ~.~.~.~.~.~.~.~.~.",
"~.~.~.~.~.~.~.~.c ( s.3.P 9.P.H.=.v &.V.!.P.,.> ~.~.~.~.~.~.~.~.",
"~.~.~.~.~.~.~.1 U 3 =.!.9.H 7.N.D U 2 1.Y.U.<.> ~.~.~.~.~.~.~.~.",
"~.~.~.~.~.~.~.~.: + -.P.J.{ x H.M.l = :.T.I.<.> ~.~.~.~.~.~.~.~.",
"~.~.~.~.~.~.~.~.~.$ ^ c.m.[ z H.Z.q.w _ c.D.X.> ~.~.~.~.~.~.~.~.",
"~.~.~.~.~.~.~.~.~.~.< / k.W k H.A.i.w * ..v.o.> ~.~.~.~.~.~.~.~.",
"~.~.~.~.~.~.~.~.~.~.. A r.R j C.v.@.q o Q r.` 7 ~.~.~.~.~.~.~.~.",
"~.~.~.~.~.~.~.~.~.~.~.a V V j h.e.b p ~.a R O.Q u ~.~.~.~.~.~.~.",
"~.~.~.~.~.~.~.~.~.~.~.~.9 ; w #.| ; ~.~.~.r V ! 5 ~.~.~.~.~.~.~.",
"~.~.~.~.~.~.~.~.~.~.~.~.~.- V } n p ~.~.~.~.4 T 5 ~.~.~.~.~.~.~.",
"~.~.~.~.~.~.~.~.~.~.~.~.~.- t n 6 ~.~.~.~.~.8 t u ~.~.~.~.~.~.~.",
"~.~.~.~.~.~.~.~.~.~.~.~.~.% > u ~.~.~.~.~.~.~.y ~.~.~.~.~.~.~.~.",
"~.~.~.~.~.~.~.~.~.~.~.~.~.~.~.~.~.~.~.~.~.~.~.~.~.~.~.~.~.~.~.~.",
"~.~.~.~.~.~.~.~.~.~.~.~.~.~.~.~.~.~.~.~.~.~.~.~.~.~.~.~.~.~.~.~."
};
