/* XPM */
static char *result[] = {
/* columns rows colors chars-per-pixel */
"32 32 167 2 ",
"   c #161515",
".  c #1B1A1A",
"X  c #1C161F",
"o  c #1E1C22",
"O  c #241A24",
"+  c #2A1C2D",
"@  c #261729",
"#  c #311835",
"$  c #351E3B",
"%  c #381938",
"&  c #1D2125",
"*  c #222120",
"=  c #2C202F",
"-  c #25292F",
";  c #21262D",
":  c #2E2136",
">  c #262C31",
",  c #2C2B3C",
"<  c #2E263A",
"1  c #312236",
"2  c #32233C",
"3  c #38223E",
"4  c #352E3A",
"5  c #3E3D3E",
"6  c #422C3A",
"7  c #4D493F",
"8  c #3C2B40",
"9  c #382442",
"0  c #373A40",
"q  c #3C3C43",
"w  c #34394C",
"e  c #3B3649",
"r  c #373E52",
"t  c #383A5C",
"y  c #3D3B68",
"u  c #401D41",
"i  c #482B4F",
"p  c #4B2E43",
"a  c #43324D",
"s  c #483255",
"d  c #493C5C",
"f  c #4B3F61",
"g  c #3A4152",
"h  c #3E4859",
"j  c #3F4763",
"k  c #414245",
"l  c #4B4050",
"z  c #47425F",
"x  c #414653",
"c  c #4E5158",
"v  c #535459",
"b  c #645B4A",
"n  c #634E53",
"m  c #47466E",
"M  c #474E6D",
"N  c #4B576E",
"B  c #59576D",
"V  c #575D6C",
"C  c #424A74",
"Z  c #494C76",
"A  c #4D5876",
"S  c #4A537A",
"D  c #4F5C7C",
"F  c #5D5E71",
"G  c #604860",
"H  c #51607F",
"J  c #586279",
"K  c #5C6474",
"L  c #636465",
"P  c #6B6761",
"I  c #6D6C6D",
"U  c #62677B",
"Y  c #636B7D",
"T  c #6A6D7B",
"R  c #696C73",
"E  c #737373",
"W  c #7E7D7E",
"Q  c #88847E",
"!  c #958770",
"~  c #9F8B75",
"^  c #59668A",
"/  c #5C6685",
"(  c #586691",
")  c #5F6E97",
"_  c #686780",
"`  c #647085",
"'  c #69748C",
"]  c #727B8C",
"[  c #7A7E8A",
"{  c #626E91",
"}  c #626F99",
"|  c #627293",
" . c #65769E",
".. c #66799D",
"X. c #6778A6",
"o. c #6C7FB3",
"O. c #7D828D",
"+. c #70819D",
"@. c #7A879D",
"#. c #7E8AA9",
"$. c #7B8CB4",
"%. c #798FB8",
"&. c #7489B6",
"*. c #7C93BD",
"=. c #7E95D2",
"-. c #818181",
";. c #838691",
":. c #848993",
">. c #918E93",
",. c #8F9092",
"<. c #919397",
"1. c #9C9D9F",
"2. c #8694A9",
"3. c #929AA8",
"4. c #949BA5",
"5. c #AFAFAF",
"6. c #A5A9B1",
"7. c #8198C4",
"8. c #849ECE",
"9. c #8F9FCA",
"0. c #869FD0",
"q. c #9FAAC0",
"w. c #9DAFCD",
"e. c #93A4C4",
"r. c #96ABD7",
"t. c #9FB6DF",
"y. c #A4ADC0",
"u. c #A5B1C3",
"i. c #ACB5C4",
"p. c #A8B6CE",
"a. c #AAB8CE",
"s. c #B4BCC7",
"d. c #B7BCC5",
"f. c #AFBED9",
"g. c #A2B9DD",
"h. c #9CB6E1",
"j. c #9FB9E2",
"k. c #A2BAE2",
"l. c #B9C0CE",
"z. c #ACC2E4",
"x. c #BBCBE6",
"c. c #CBCBCD",
"v. c #C2C7D2",
"b. c #C8CDD4",
"n. c #C6CFDF",
"m. c #CACFD9",
"M. c #C2C9D3",
"N. c #D5D5D7",
"B. c #D4D5D9",
"V. c #C2CEE3",
"C. c #C4D1E7",
"Z. c #CBD3E4",
"A. c #C5D3E9",
"S. c #CBD6E8",
"D. c #CFD9E9",
"F. c #D9DEE6",
"G. c #D4DCEA",
"H. c #D9DFEA",
"J. c #DDE2EB",
"K. c #E3E6ED",
"L. c #E7E8EE",
"P. c #ECEDEF",
"I. c #E5E9F0",
"U. c #ECEDF0",
"Y. c #F0EFF0",
"T. c #F2F3F2",
"R. c None",
/* pixels */
"R.R.R.R.R.R.R.R.R.R.R.R.R.R.R.R.R.R.R.R.R.R.R.R.R.R.R.R.R.R.R.R.",
"R.R.R.R.R.R.R.R.R.R.R.R.R.R.R.R.R.R.R.R.R.R.R.R.R.R.R.R.R.R.R.R.",
"R.R.R.R.R.R.R.R.R.R.R.R.R.      X R.R.R.R.R.R.R.R.R.R.R.R.R.R.R.",
"R.R.R.R.R.R.R.R.R.R.R.R.z J Y Y U d R.R.R.R.R.R.R.R.R.R.R.R.R.R.",
"R.R.R.R.R.R.R.R.R.R.R.w | k.x.S.V.[ d R.R.R.R.R.R.R.R.R.R.R.R.R.",
"R.R.R.R.R.R.R.R.R.R.O / r.x.G.U.Y.F.O.a R.R.R.R.R.R.R.R.R.R.R.R.",
"R.R.R.R.R.R.R.R.R.R.< | j.x.H.Y.Y.U.n.F % R.R.R.R.R.R.R.R.R.R.R.",
"R.R.R.R.R.R.R.R.R.o ^ 8.z.G.L.P.Y.Y.J.T 9 R.R.R.R.R.R.R.R.R.R.R.",
"R.R.R.R.R.R.R.R.R.& X.k.x.H.L.J.P.Y.I.s._ $ R.R.R.R.R.R.R.R.R.R.",
"R.R.R.R.R.R.R.R.; D 7.z.S.F.H.G.P.Y.U.I.i.T 1 R.R.R.R.R.R.R.R.R.",
"R.R.R.R.R.R.R.R.- &.h.x.D.D.D.K.P.K.I.I.G.2.1 R.R.R.R.R.R.R.R.R.",
"R.R.R.R.R.R.R.R.> *.z.C.D.S.H.U.P.C.u.3.u.2.2 R.R.R.R.R.R.R.R.R.",
"R.R.R.R.R.R.R.R.> *.k.x.x.C.U.U.Z.2.r 0 T ' 3 R.R.R.R.R.R.R.R.R.",
"R.R.R.R.R.R.R.R.< | 0.j.z.C.U.K.9.r   ] [ = R.R.R.R.R.R.R.R.R.R.",
"R.R.R.R.R.R.R.R.R., ) 0.h.A.U.I.9.w   ;.:.@ R.R.R.R.R.R.R.R.R.R.",
"R.R.R.R.R.R.R.R.R.R.e | r.A.U.I.f.x . >.>.+ R.R.R.R.R.R.R.R.R.R.",
"R.R.R.R.R.R.R.R.R.: ;.l.G.G.S.P.F.v I -.G R.R.R.R.R.R.R.R.R.R.R.",
"R.R.R.R.R.R.R.R.4 [ b.K.J.D.J.J.L.5.-.6 @ R.R.R.R.R.R.R.R.R.R.R.",
"R.R.R.R.R.R.R.i T m.P.P.6.3.J.K.Y.T.E g K B R.R.R.R.R.R.R.R.R.R.",
"R.R.R.R.R.R.R.4 u.U.T.b.-.P 6.K.J.d.W 4.a.[ n R.R.R.R.R.R.R.R.R.",
"R.R.R.R.R.R.R.4 s.U.Y.E b ! L B.5.V 1.U.<.7 ~ p R.R.R.R.R.R.R.R.",
"R.R.R.R.R.R.R.4 s.U.U.E * L M.N.c @.D.J.:.* 6 R.R.R.R.R.R.R.R.R.",
"R.R.R.R.R.R.R.4 y.G.L.E h e.J.N.g +.x.A.O.O R.R.R.R.R.R.R.R.R.R.",
"R.R.R.R.R.R.R.R.B p.D.R N t.D.N.5 g @.k.| ; R.R.R.R.R.R.R.R.R.R.",
"R.R.R.R.R.R.R.R.- $.h.$.A ` x.l.a u d X.*./ $ R.R.R.R.R.R.R.R.R.",
"R.R.R.R.R.R.R.R.R.M o.=.D g r.w.0 R.R.d  ...1 R.R.R.R.R.R.R.R.R.",
"R.R.R.R.R.R.R.R.R.9 m X.S w &.) s R.R.+ j ( : R.R.R.R.R.R.R.R.R.",
"R.R.R.R.R.R.R.R.R.R.+ C C , Z 9 R.R.R.R.t Z $ R.R.R.R.R.R.R.R.R.",
"R.R.R.R.R.R.R.R.R.R.# y t o 3 R.R.R.R.R.R.$ R.R.R.R.R.R.R.R.R.R.",
"R.R.R.R.R.R.R.R.R.R.R.2 @ + R.R.R.R.R.R.R.R.R.R.R.R.R.R.R.R.R.R.",
"R.R.R.R.R.R.R.R.R.R.R.R.R.R.R.R.R.R.R.R.R.R.R.R.R.R.R.R.R.R.R.R.",
"R.R.R.R.R.R.R.R.R.R.R.R.R.R.R.R.R.R.R.R.R.R.R.R.R.R.R.R.R.R.R.R."
};
