/* XPM */
static char *_2a0a6d2dc504d9dcbe96478bb9853c74NgbihIW07wFEGhB[] = {
/* columns rows colors chars-per-pixel */
"64 64 225 2 ",
"   c None",
".  c #0C0706",
"X  c #120A06",
"o  c #130D0C",
"O  c #190E0C",
"+  c #14140C",
"@  c #17150B",
"#  c #130C13",
"$  c #1A0B15",
"%  c #131212",
"&  c #1B1314",
"*  c #1C1B13",
"=  c #1C1319",
"-  c #18181A",
";  c #0F0E0C",
":  c #230E18",
">  c #24151C",
",  c #251A1C",
"<  c #271619",
"1  c #1D231B",
"2  c #1D2718",
"3  c #1C220D",
"4  c #27290F",
"5  c #252819",
"6  c #2B3719",
"7  c #393B19",
"8  c #251623",
"9  c #2B1624",
"0  c #2A1A24",
"q  c #2E1B2B",
"w  c #281828",
"e  c #351B2B",
"r  c #341728",
"t  c #2B1A36",
"y  c #341C32",
"u  c #3A1E35",
"i  c #3C1E3A",
"p  c #341C3B",
"a  c #1F2521",
"s  c #222322",
"d  c #242B24",
"f  c #2B2D2C",
"g  c #282628",
"h  c #372A2B",
"j  c #2B3327",
"k  c #363A25",
"l  c #2C2730",
"z  c #322E34",
"x  c #3C213D",
"c  c #36273B",
"v  c #383639",
"b  c #141829",
"n  c #6D1E1A",
"m  c #403A1E",
"M  c #401A2D",
"N  c #701D20",
"B  c #43392A",
"V  c #443638",
"C  c #4C2E35",
"Z  c #60202F",
"A  c #411510",
"S  c #37431C",
"D  c #3B4525",
"F  c #344E31",
"G  c #44451A",
"H  c #45531E",
"J  c #555A1D",
"K  c #444C25",
"L  c #474826",
"P  c #4A5427",
"I  c #545A29",
"U  c #49423B",
"Y  c #554E33",
"T  c #6C522F",
"R  c #596428",
"E  c #5F6439",
"W  c #4D6124",
"Q  c #636C2B",
"!  c #656928",
"~  c #6B722D",
"^  c #687126",
"/  c #777B2B",
"(  c #6C673D",
")  c #777932",
"_  c #361A47",
"`  c #391D52",
"'  c #2C174A",
"]  c #2E2541",
"[  c #3F2143",
"{  c #3C244D",
"}  c #372648",
"|  c #392655",
" . c #3D3354",
".. c #3F2E6A",
"X. c #412244",
"o. c #42244D",
"O. c #462C4E",
"+. c #453445",
"@. c #442555",
"#. c #45275C",
"$. c #462A58",
"%. c #53395C",
"&. c #4F3254",
"*. c #431E62",
"=. c #452563",
"-. c #452A63",
";. c #4C2C64",
":. c #472D6B",
">. c #4B2C6C",
",. c #48266B",
"<. c #502F6C",
"1. c #53316D",
"2. c #59366A",
"3. c #4D2E74",
"4. c #4D2F78",
"5. c #552D7B",
"6. c #4F3376",
"7. c #533374",
"8. c #54337B",
"9. c #5A367C",
"0. c #5C397E",
"q. c #583874",
"w. c #4C336C",
"e. c #643C7D",
"r. c #6B3B7B",
"t. c #653669",
"y. c #464744",
"u. c #5D564C",
"i. c #4D5651",
"p. c #615A46",
"a. c #69585B",
"s. c #5A615E",
"d. c #787755",
"f. c #726F50",
"g. c #5B4172",
"h. c #5A4569",
"j. c #675668",
"k. c #684477",
"l. c #79427A",
"z. c #704E6F",
"x. c #5B6064",
"c. c #756C60",
"v. c #66626D",
"b. c #812B3B",
"n. c #B53439",
"m. c #963248",
"M. c #8D456D",
"N. c #7A832B",
"B. c #7C8732",
"V. c #7D8058",
"C. c #828A2E",
"Z. c #838D34",
"A. c #8C9736",
"S. c #939D36",
"D. c #8A902E",
"F. c #97A338",
"G. c #8EA035",
"H. c #A0AB3D",
"J. c #A5B43E",
"K. c #879645",
"L. c #939B42",
"P. c #878A42",
"I. c #9AA448",
"U. c #A3AD46",
"Y. c #B2BE55",
"T. c #A6B151",
"R. c #949273",
"E. c #A08069",
"W. c #AEB471",
"Q. c #B7C546",
"!. c #BBC563",
"~. c #C0CA69",
"^. c #CCD96F",
"/. c #C3D159",
"(. c #5D3A81",
"). c #633D83",
"_. c #6B3E83",
"`. c #643481",
"'. c #664184",
"]. c #6B4386",
"[. c #6E4588",
"{. c #6F4986",
"}. c #744486",
"|. c #734689",
" X c #7D468A",
".X c #75488B",
"XX c #7B4A8B",
"oX c #7D4785",
"OX c #71558D",
"+X c #834C8C",
"@X c #8B4C8D",
"#X c #854787",
"$X c #944E8D",
"%X c #92518E",
"&X c #8A4F93",
"*X c #8C5190",
"=X c #935191",
"-X c #9B5392",
";X c #9A569B",
":X c #8F4F90",
">X c #A85796",
",X c #A45491",
"<X c #867495",
"1X c #9B5BA7",
"2X c #9557A9",
"3X c #A35AA5",
"4X c #9F65B4",
"5X c #A863B5",
"6X c #B165B5",
"7X c #AA60AB",
"8X c #9D64C2",
"9X c #B46FD1",
"0X c #B36FCB",
"qX c #C27AE5",
"wX c #959289",
"eX c #B7BC8C",
"rX c #C299BF",
"tX c #BFC489",
"yX c #C4C999",
"uX c #DAE492",
"iX c #C5C7A7",
"pX c #D3D8AA",
"aX c #C387D4",
"sX c #D9B7E6",
"dX c #D5C8DC",
/* pixels */
"                                                                                                                                ",
"                                                                                                                                ",
"                                                                                                                                ",
"                                                                                                                                ",
"                                                                                                                                ",
"                                                                                                                                ",
"                                                                                                                                ",
"                                                                                                                                ",
"                                                                                                                                ",
"                                                                                                                                ",
"                                                                                                                                ",
"                                                                                                                                ",
"                                                                                                                                ",
"                                                                                                                                ",
"                                                                                                                                ",
"                                                                                                                                ",
"                                                                                                                                ",
"                                                                                                                                ",
"                                                                                                                                ",
"                                                                                                                                ",
"                                                                                                                                ",
"                                                                                                                                ",
"                                                                                                                                ",
"                                                } c  .w.8...                                                                    ",
"                                          } c | :.:.q.'.{.].e.-.c                                                               ",
"                                      q } :...3.9.9.(.(.[.=X+X0.:.:.c >                                                         ",
"                                  w y [ | >.#.>.<.;.<.3.8.|.|.(.6.6.$.e M r                                                     ",
"                              8 0 y | { i @.>.@.o.1.0.;.>.(.|..X0.-.q &.M.N >                                                   ",
"                            > , l o.3.=.[ >.0.<.$.>.].[.[..X=X+X(.` 4 T b.C D D                                                 ",
"                          0 , e u o.;.i i >.].).k.7.(.8X5X0X4X=X X` J ) N Q ~ D g                                               ",
"                        8 < e i r u X.e i @.<.;.8.(.}.&X9XsXrX>Xr.p ) Q.F.~ U +.-.:.o.                                          ",
"                      > < r e e r e e e i u { ,.8.[.%X-X9XsXsX5Xr.` ( A.I +.:.r.1X8Xg.| t q C &.                                ",
"                    > < u u e _ [ i y i i M =.e.9.).}.+X3XaXaX&X9.,.C V ' ,.).+X>X6XXX3.| %.M.M.0.+.V U                         ",
"                    # y M u o.;.#.X.X.=.7.r.$X-X|.].9.0. X3X;XXX].5.=.=.q. X@X}.+XoX0.0.(.'.&X>Xj.R G.J.B.( U                   ",
"                  q 0 o.$.X.o.@.p 9 9 p o.&.t.r.=XXX4.4.).XX%X+X#X X8.4.3.t._.).'.).0.|.&X_.'._.2.E G.S.B.N.W k                 ",
"                  = u [ @.X.e < = g G ! ! 7 p @.r.].e. X@X5X1X]._. X).8.>.q.).).0.7.1.].&X$X@X9.' 5 7 6 S I P S g               ",
"                e q x o.#.u $ A b.l.B d.yXT.) G c 4._. X+X2X1XoX0.(.).8.(.).(.).].8.1.7.e.#X#Xc.S % %     q 2 5 %               ",
"                = o.=.>.=.q b Z n.m.< U <XR.c.z.z.M.=XXX].(.}.XX9.>.;.8.(.4.4.'.XX*X@X'.8.7.c.T.eXV.S                           ",
"                l ,.3.>._ 7 I C n n r _ *.`.#X-X>X>X;X+X{.(.6.0.8.-.:.0.).0.(.[.XX-X,X|.4.$.Q U.tX!.B.D                         ",
"              i | 4.,.o.q ^ F.j $ c 1.e.)..X@X#X@X:X.X].].].(.8.8.9.'.).).].XX@XXX-X,Xj.y.s 6 P W B.G.N.P h                     ",
"              t 1.8.#.r m C.Z.] ` 1.#XXX{.].9.8.'..X{.{.+X=XXX0.(.+X+X(.8.[.+X X`.l.E.J.~ 2 =     k H R D S                     ",
"              ] 3.#.=._ G ! V <.).#X*X.X].9.4.).XX&XXX.X+X>X,X*XXX=X=X(.].*X|.7.h.u.N.Y.!.V.D           f 6 5                   ",
"            w | ;.o.>.#.h v 1.}.;X7X*X].(.8.8.].XX*X Xe.g.l.*X-X+XXXoXh.r.l.2. .Q U.R.V.yXuXK.k           s +                   ",
"            ; | >.1.).>.y [ ].@X6XqX6X*X[.'.(.(..X[.z.g.u.p.g.].'.k.d.N.u.` h * W !.pXE f.yX^.^ ,                               ",
"            % } 3.).].9.-.;.XX=X1X9X0X;XXX'.4.5.k.j.L.a.u.F.) &.3.u.S.Y.R.C : . 4 N.Q.S.L Q F.S.K % #                           ",
"            & u ;.9.8.8.9.8.}.&X.X X=X.X).8.3.<XOXR./.f.f F.!.c.p h I W.yXZ.* X o 4 D.J.R 5 k ~ R 3 #                           ",
"            & u ;.3.>.8.).).).|.'.'.].0.h.3.2.iX<XdXuX! - R yXwX$ : 4 P L.U.P % o @ K N.C.k % - 7 5 9 > &                       ",
"            = M 1.1.=.7.'.].(.k.z.q.6.a.P.&.v U.f.iX^.J . d I.S.6 X X # L C.~ d X X * P ) I * $ 8 e X.p q ,                     ",
"            s #.9.8.#.;.9.3.*.u.Z.[ h U.~.+.* ^ I U.H.G . - R D.J o O O - k K D @ X & d K K , < i o.<.4.#.e =                   ",
"            q #.:.$.#.4.8.;.t T H.g S /.pXy.o D 5 / C.7 . o k ~ J $ e e 9 - f f O O r > d d @ X < #.].}.0.#.8                   ",
"          5 5 c u u #.3.0.;.: B ) d 5 A.!.G o a * ^ ! 4 X X a D 7 : x o.[ < - s O < l r % @ + + O x r.=X*X).} 0                 ",
"        v d s l , e x [ ;.{ o 4 P D 5 R / 4 o O & K k + X + + s , > M #.#.e > * @ , l x g f f g @ < | '.$Xk. .f c               ",
"        y.      d g q } | t % 2 2 5 % j K 4 a + X 2 - # s d * + * r { 8.7.x g 1 *             z 2 j l =.2.V     j.              ",
"      z     v.j.    5 d g       g - % - a - d d % % =         2 f f } q.g.| f 5               z   v.  2.        v               ",
"          F     v v       i.s.    +.  2 3 a f         v               v v f v                 v +.    x.                        ",
"                        +.F y.        i.F i.                        x.      z                                                   ",
"                                                                                                                                ",
"                                                                                                                                ",
"                                                                                                                                ",
"                                                                                                                                ",
"                                                                                                                                ",
"                                                                                                                                ",
"                                                                                                                                ",
"                                                                                                                                "
};
