/* XPM */
static char *_361e705505c4545a4aecee789ae0272Henlp2n0RlVS0rN6[] = {
/* columns rows colors chars-per-pixel */
"64 64 143 2 ",
"   c None",
".  c #7F7867",
"X  c #7D7A6E",
"o  c #6C7A7F",
"O  c #777B77",
"+  c #7B7C75",
"@  c #747C7B",
"#  c #797E7B",
"$  c #836E4B",
"%  c #8B7244",
"&  c #86724D",
"*  c #89734B",
"=  c #877351",
"-  c #8B7653",
";  c #8D7955",
":  c #917C56",
">  c #927D59",
",  c #817967",
"<  c #827A69",
"1  c #7C807B",
"2  c #95815C",
"3  c #98825A",
"4  c #9F8A5F",
"5  c #A58E5F",
"6  c #A88F5D",
"7  c #998561",
"8  c #9F8A60",
"9  c #9E8D69",
"0  c #878273",
"q  c #8B8575",
"w  c #82837C",
"e  c #88877B",
"r  c #8A897D",
"t  c #938973",
"y  c #908978",
"u  c #98917F",
"i  c #A28D62",
"p  c #A08E69",
"a  c #A69165",
"s  c #AA9467",
"d  c #A79269",
"f  c #A9956B",
"g  c #B6A176",
"h  c #B8A376",
"j  c #B6A279",
"k  c #BAA57A",
"l  c #BDA87D",
"z  c #C1AA7C",
"x  c #657781",
"c  c #677881",
"v  c #6D7B82",
"b  c #6C7F89",
"n  c #717D82",
"m  c #6E818B",
"M  c #748185",
"N  c #7D8483",
"B  c #778489",
"V  c #79858A",
"C  c #7C898E",
"Z  c #7F8D92",
"A  c #838782",
"S  c #868983",
"D  c #8D8C82",
"F  c #8F8D81",
"G  c #888B85",
"H  c #8D8E86",
"J  c #8F8F86",
"K  c #8F8F87",
"L  c #888A81",
"P  c #80898F",
"I  c #908E82",
"U  c #8F928E",
"Y  c #919186",
"T  c #949285",
"R  c #979384",
"E  c #979385",
"W  c #969384",
"Q  c #9C9582",
"!  c #999585",
"~  c #989486",
"^  c #999586",
"/  c #9D9784",
"(  c #9E9784",
")  c #9F9884",
"_  c #96978D",
"`  c #94968F",
"'  c #828E91",
"]  c #869194",
"[  c #8C9493",
"{  c #8A9598",
"}  c #8E999C",
"|  c #929997",
" . c #919B9C",
".. c #A09985",
"X. c #A39B86",
"o. c #A39D89",
"O. c #A59E89",
"+. c #B6A581",
"@. c #B7A681",
"#. c #BBA982",
"$. c #BBA983",
"%. c #BEAA80",
"&. c #BFAA80",
"*. c #BFAB80",
"=. c #BCAA83",
"-. c #C0AB80",
";. c #C0AB81",
":. c #C0AC80",
">. c #C1AC80",
",. c #C0AC81",
"<. c #C1AC81",
"1. c #C1AD81",
"2. c #C2AD80",
"3. c #C2AD81",
"4. c #C3AD81",
"5. c #C3AE80",
"6. c #C3AE81",
"7. c #C1AD82",
"8. c #C2AD82",
"9. c #C3AE82",
"0. c #C3AF83",
"q. c #C5AF80",
"w. c #C4AE81",
"e. c #C5AF81",
"r. c #C5AF82",
"t. c #C4AF83",
"y. c #C3AF84",
"u. c #C4AF84",
"i. c #C4AF85",
"p. c #C6B081",
"a. c #C7B081",
"s. c #C5B082",
"d. c #C5B083",
"f. c #C6B082",
"g. c #C7B082",
"h. c #C6B083",
"j. c #C7B183",
"k. c #C4B084",
"l. c #C8B181",
"z. c #C8B282",
"x. c #CBB382",
"c. c #CAB383",
"v. c #CCB381",
/* pixels */
"                                                                                                                                ",
"                                                                                                                                ",
"                                                B V V V B B V V V V V V V V V V                                                 ",
"                                                C M M M B M M M M M B M M M M P                                                 ",
"                                                m c x x x x v v v v x x c x x b                                                 ",
"                                              Y O./ / / / ) N v v A ) ) / / / O.[   V     V                                     ",
"                                  Z B C V V m X.v.w.p.p.p.p.L v c ^ c.w.p.p.w.v._ M V V V C B                                   ",
"                                  v c c v n x Q p.4.4.4.*.4.S c c T p.*.4.*.4.4.Y c n v c c v                                   ",
"                                  G A A M o c W z l l 4.8.z L x c T p.4.s.*.4.k.U o c M A S G                                   ",
"                          P C c A k.s.k.G o v 0 i 8 a 4.8.8.L v c ~ p.4.*.4.*.k.Y o c Q p.s.=.M v V                             ",
"                          P V c A 4.*.k.G c v q 5 i a 4.8.4.L v x / p.4.4.4.4.p.Y c c / s.z =.M n M                             ",
"                          C V c A 4.4.k.G c v 0 i 8 a 8.8.w.A v x T p.*.*.4.4.k.I c c T p.4.=.v c B                             ",
"                    B v v r p 9 9 d s f A c v 0 5 i a 4.4.w.L v c r s a f 4.*.k.Y c x ~ w.8.4.+.@.=.D x n v                     ",
"                    B V b y 5 5 i 8 4 a N v v q 5 i d z 8.w.L v v r 5 4 d 4.4.p.Y c v ~ w.8.4.4.w.v.Y v C n                     ",
"                    B n c q 5 i i i i a N v v q a 8 d 4.9.9.L v v r i 4 d *.4.k.I c c ~ w.8.z *.4.w.D x B v                     ",
"                    B M v q 5 i i i 8 a N o c q 5 8 a g g h w o c r a 5 d 4.*.k.K c v ~ v.8.4.4.4.w.I c V n                     ",
"                    B M v q 5 i i i i i A c v q 5 i i 5 7 5 # n o e a 8 d *.4.p.Y c c ~ p.*.k.*.8.w.D c B o                     ",
"                    M M v q 5 i i i i i N v c q i i i i i i # v v e 5 4 d 4.4.c.J c c ~ k.*.4.4.*.w.I c B M                     ",
"                    M M v q 5 p i i i a N v v q 5 i i i i i # v v e a 4 d *.l z J o c / p.*.*.4.4.p.I o V o                     ",
"                    B M b e 5 i i i 8 p A c v q i i i i i i # n v e a 8 8 a p a w c c r a i f *.4.w.D x V n                     ",
"                    B M v y a 8 i i i i N v c q 6 i i i i i n v c e 5 4 i 8 i 5 w v v r 5 4 s s.*.w.D o B v                     ",
"                    B M b q 5 i i i i p N o v q i i i i i i w v m e 5 i i i 8 a w v c r a 4 d *.4.w.I c V o                     ",
"                    M M c q 5 8 i i i i N v c q 5 i i i i i # n m e 5 i i i i a w v v w a 4 f *.4.p.D c V o                     ",
"                    B M v q a 8 i i i i N v v q 5 i i i i i # v o e 5 i i i 8 a w v v r a 8 d *.l p.D c V n                     ",
"                    B n b q 5 a i i i i N o v r i i i i i i < v o e a 4 a 4 i a w m o e 5 8 a s.s.z.I c V @                     ",
"                    B M v q 5 8 i i i p A v v < 6 i i i i i N v c e 5 i 4 a i 5 w v v e a 8 a j j k r o V v                     ",
"                    B n v y 5 i i i i i n n b < i i i i i i # v m e 4 i i i i i A v c e 5 8 8 4 4 4 1 v B v                     ",
"                    N M c y 5 i i i i p A v b q i i i i i i # v o e 5 4 i i i i 1 v v e 5 a a a i 5 w v B v                     ",
"                    B M v q 5 p i i i p A v v q 5 i i i i i # n m r 5 i i i 8 i w v v e a i a 8 8 5 1 v V 1                     ",
"                    B n v q i 8 i i i i N v n r i i i i i i # v o r 5 i i i i a w o v e 5 i 8 8 a 5 1 v V o                     ",
"                    B M v y 5 i i i i p N o v < 5 i i i i i # v o 1 a 4 i 4 8 i w m o e a 8 8 a 8 5 w o B o                     ",
"                    M M v e 5 i i i i i N o v q 6 i i i i i # n 1 e 5 i i a 5 5 1 o o e 6 4 5 5 5 6 1 v B M                     ",
"                    M M v q 5 i i i i i N v v 0 i 8 i i i p # v m 1 5 i 9 1 1 1 ] ] ] [ _ ` ` ` ` | N 1 B o                     ",
"                    M M v q 5 i i i i i N c v q i i i i i d < v 1 e i 4 9 M m 1 {  .} } } } } } } } m 1 B @                     ",
"                    M M b q 5 i i i i p A c v q 5 i i i i i # n x e 5 5 t 1 o 1 {  .} {  . . .} } } m 1 B m                     ",
"                    V M c e 5 p i i 5 p A v c q 5 i i i i i # v m 1 5 4 9 m o o Z Z Z C Z Z ] } } } m x V v                     ",
"                    V M v r 5 i i i i p N o c q i p i i i 5 # v 1 r 5 4 9 m o 1 o o o o 1 o 1 } } } B 1 m m                     ",
"                    B M v q 5 i i i i i A o v q 6 i i i i i w v x r 5 i 9 1 o x 1 m x m x 1 m } } } m x m 1                     ",
"                    M M v r i i i i i i N v c q 5 i i i i i # v m 1 5 i 9 1 1 1 1 x 1 1 m 1 N  .|  .V 1 m 1                     ",
"                    B n b < * = > i i p N v v 0 5 i i i i i 1 v 1 e 5 5 9 9 7 9 1 o m e 9 9 i 9 a a 1 1 B 1                     ",
"                    B M v < * * > d i i A o v < 5 8 i i i i 1 v x 1 6 5 i i i a 1 1 m 1 5 i i i 4 5 1 v B n                     ",
"                    B n v + * & > i i d A v v e 5 i i i i i # v m 1 6 9 i i 4 i 1 M 1 1 5 i i i a 6 w v B v                     ",
"                    B M v + * & > i i p N v v q 5 i i i i i # n 1 1 5 i i i i i 1 x m 1 5 i i 9 4 5 1 o B o                     ",
"                    B n b < % & > d i i N c v q 5 i i i i i # v m r 5 i i i i a M 1 1 e 5 i i 4 i 5 w o B M                     ",
"                    B M n + * & > i i a A v v < 5 p i i i i # v 1 1 5 i i i 4 i 1 m m 1 5 i i i i a 1 o B 1                     ",
"                    B n v < % & > i i p N v v e 5 i i i i i 1 v m 1 5 4 i i i a 1 1 1 e i i i i i 4 1 m m 1                     ",
"                    B n b X * & > p i i N v v q 6 i i i i i 1 n 1 1 5 i i i 4 5 1 1 m 1 5 i i i i 5 0 o B o                     ",
"                    B n b < * & > a i p A c v q i i i i i 5 # v m 1 5 i i i 9 5 1 m o 1 5 i i i i 5 1 o N m                     ",
"                    B n n < * & > i 4 p A o v 0 4 8 8 i i i 1 v c e 5 i i i i a w c v e i i i i i 5 1 m B m                     ",
"                    B n v + * = = = & = N o v X * & = i i i 1 v v e 5 i i i i i L v v e i 8 i i i 4 1 o B @                     ",
"                    B M n + % & = * & - M v v X % & ; i i i 1 v v w 5 5 i i i i w v c e i i i i 4 5 0 o B v                     ",
"                    B n v < * = * = & - 1 @ v + * & ; i i a 1 v v r a p i i i i w v v e 5 i i i 5 5 1 m V v                     ",
"                    B n v X * & * = & ; M v v X * & = 3 2 2 # v v w 3 2 7 i i i A v c r 5 i i i i 5 w 1 m 1                     ",
"                    B B b X * = & & & ; 1 v v + * = & & & * @ v v + * $ : i i i w v c e 5 i i i i i 1 c B c                     ",
"                    B n v < % * * * * - N v v X % * * * * % O v v + % % : a 5 i w v v e 6 5 5 5 4 6 w v B 1                     ",
"                    n b v + , , , , , < # v v O , , , , , , @ v v # . . 0 t t t N v v w t q t y t t 1 v m M                     ",
"              C B B n n v v v v v v b v v v v v v v v v v v v n v v v v v v v v v v n v c v v v v v v n v n B C v               ",
"              n n n v n n v v n @ o v n v n @ v v v v @ n o n v n n n v n n v v v @ v n n n v @ v o n v v n v n n               ",
"              M o n o o v v n v v n v n n v n n n v n v n v v n v n v v v n v n n v v n v o n n n v v n n n v n v               ",
"      n M n n n n v n n n @ v n n v n v v n o n v n v n v n n v n v @ v n v n v n o n v v n n o v n v v @ v v n n n n V         ",
"      v B v v v v n n v v n v n v n v n n v n v n v n v v n v n n v n v v v @ v v n v n v n n v n v n v n v n v v v v B         ",
"      n ' M B B B B B B B B B B B V B B B B B B B V B V V B B B B B B B V B B B B V B B B B B V B B B B B B B B B B B Z         ",
"                                                                                                                                ",
"                                                                                                                                "
};
