/* XPM */
static char *_cafe9d6168b4b1dd5c094885b3868c9LHjV7E7FBS67ib2R[] = {
/* columns rows colors chars-per-pixel */
"64 64 230 2 ",
"   c None",
".  c #0D0902",
"X  c #0C0D0D",
"o  c #070708",
"O  c #140F06",
"+  c #0F0E11",
"@  c #100F12",
"#  c #141414",
"$  c #1C1C1C",
"%  c #1B1812",
"&  c #0F100F",
"*  c #271E10",
"=  c #362405",
"-  c #3B2603",
";  c #3E2906",
":  c #34260D",
">  c #27231D",
",  c #332612",
"<  c #1D1A23",
"1  c #1F0C34",
"2  c #291B36",
"3  c #222322",
"4  c #2C2C2C",
"5  c #2A2626",
"6  c #262331",
"7  c #323232",
"8  c #3C3B3C",
"9  c #373738",
"0  c #322C33",
"q  c #452C05",
"w  c #513504",
"e  c #56380B",
"r  c #4A3105",
"t  c #3F403F",
"y  c #71460F",
"u  c #72480E",
"i  c #6D4312",
"p  c #62461C",
"a  c #69420E",
"s  c #715432",
"d  c #361256",
"f  c #310D48",
"g  c #39244A",
"h  c #3C126A",
"j  c #3E1367",
"k  c #3C087D",
"l  c #3D0F69",
"z  c #3E2073",
"x  c #42095E",
"c  c #443F51",
"v  c #4A056D",
"b  c #46096D",
"n  c #4A0B6E",
"m  c #470869",
"M  c #44136C",
"N  c #48176D",
"B  c #460676",
"V  c #4B0C71",
"C  c #480779",
"Z  c #53067C",
"A  c #500777",
"S  c #481974",
"D  c #591D7D",
"F  c #4B2373",
"G  c #57287A",
"H  c #4C3276",
"J  c #58357B",
"K  c #434243",
"L  c #4B4C4C",
"P  c #464548",
"I  c #4C4A54",
"U  c #545455",
"Y  c #595859",
"T  c #504F57",
"R  c #554A68",
"E  c #635274",
"W  c #6D6D6E",
"Q  c #646364",
"!  c #7A7A7A",
"~  c #747377",
"^  c #706F71",
"/  c #8A5D4B",
"(  c #8D644B",
")  c #926E54",
"_  c #968776",
"`  c #A68B78",
"'  c #AC977E",
"]  c #34048D",
"[  c #360986",
"{  c #320394",
"}  c #3D0594",
"|  c #370998",
" . c #2E118B",
".. c #37218A",
"X. c #2E06A8",
"o. c #3B03AE",
"O. c #3904B3",
"+. c #3E26A1",
"@. c #4B0685",
"#. c #550582",
"$. c #5A0686",
"%. c #5E0B8A",
"&. c #590788",
"*. c #5B1686",
"=. c #460597",
"-. c #580698",
";. c #61078D",
":. c #630693",
">. c #630B92",
",. c #66089A",
"<. c #631293",
"1. c #651999",
"2. c #5E3E84",
"3. c #502689",
"4. c #66298D",
"5. c #673A87",
"6. c #662396",
"7. c #68399A",
"8. c #70339B",
"9. c #4504A9",
"0. c #5606A5",
"q. c #5909AE",
"w. c #6D06A2",
"e. c #6607A5",
"r. c #7406AB",
"t. c #7A06B5",
"y. c #7908B7",
"u. c #6E0DB3",
"i. c #482EAC",
"p. c #7F29B2",
"a. c #782CA5",
"s. c #544082",
"d. c #684789",
"f. c #6A518D",
"g. c #7A4898",
"h. c #79639B",
"j. c #7C7395",
"k. c #7E49A2",
"l. c #6D4AAE",
"z. c #7E76A2",
"x. c #5E05CB",
"c. c #5F14CA",
"v. c #4A04DA",
"b. c #5304DC",
"n. c #4F0FD4",
"m. c #6505C8",
"M. c #7609C7",
"N. c #6806D1",
"B. c #700BD9",
"V. c #7628C8",
"C. c #6B2DD2",
"Z. c #4804E6",
"A. c #5809E4",
"S. c #4F14E9",
"D. c #7C05E6",
"F. c #633FE5",
"G. c #5A31E9",
"H. c #7557E4",
"J. c #8008BC",
"K. c #8218B9",
"L. c #87679D",
"P. c #88779C",
"I. c #9149B8",
"U. c #8B67A5",
"Y. c #8B79A7",
"T. c #957AA9",
"R. c #986DB6",
"E. c #8408C7",
"W. c #8908D6",
"Q. c #8A1ED9",
"!. c #920DD6",
"~. c #890AE6",
"^. c #9C07E8",
"/. c #9554C9",
"(. c #A772C7",
"). c #B872E0",
"_. c #AB5AD7",
"`. c #848484",
"'. c #8B8B8B",
"]. c #89868B",
"[. c #91839A",
"{. c #959595",
"}. c #9C9C9C",
"|. c #8C8990",
" X c #AE9983",
".X c #BBAA9C",
"XX c #9885AD",
"oX c #9B97A6",
"OX c #9C8BB1",
"+X c #A384B9",
"@X c #AA9AB8",
"#X c #B09DBF",
"$X c #A29DA6",
"%X c #A4A4A5",
"&X c #ABAAAB",
"*X c #A7A5AA",
"=X c #ADA6B5",
"-X c #B6B6B7",
";X c #B8ADBE",
":X c #8D86C3",
">X c #B69CC6",
",X c #B294CB",
"<X c #B4A3C2",
"1X c #B9ABC8",
"2X c #BBB4C9",
"3X c #AFA7CD",
"4X c #B7A2E7",
"5X c #C3BDC8",
"6X c #C8BDD4",
"7X c #D2B0EB",
"8X c #C3C2C4",
"9X c #C9C6CA",
"0X c #CCCBCC",
"qX c #C6C4C8",
"wX c #D0CAD4",
"eX c #D4D3D6",
"rX c #D4CCCF",
"tX c #E3DED9",
"yX c #E8E4DF",
"uX c #DCD7E3",
"iX c #D5C1EC",
"pX c #E3DCEA",
"aX c #E4E3E4",
"sX c #E8E4E0",
"dX c #ECEBEB",
"fX c #E9E7EA",
"gX c #F4F4F4",
"hX c #FAFAF9",
"jX c #F7F7F8",
"kX c #F0EFED",
/* pixels */
"                                                                                                                                ",
"                                                                                                                                ",
"                                                                                                                                ",
"                                                                                                                                ",
"                                                                                                                                ",
"                                                                                                                                ",
"                                                                                                                                ",
"                                                                                                                                ",
"                                                                                                                                ",
"                                                                                                                                ",
"                                                                                                                                ",
"                                                                                                                                ",
"                                                                                                                                ",
"                                                                                                                                ",
"                                                                                                                                ",
"                                                                                                                                ",
"                                                                                                                                ",
"                                                                                                                                ",
"                                                                                                                                ",
"                                                                                                                                ",
"                                                                                                                                ",
"                                                                                                                                ",
"                                                                                                                                ",
"                                                                                                                                ",
"                                                  7 # X X X X X X X X X X # 9                                                   ",
"                                                  > . . . . . . . . . . . O 7                                                   ",
"                                              5 > : = = = - = = = = = - = = , $ 7                                               ",
"                                              % O = ; ; ; ; ; ; ; ; ; ; - q * . >                                               ",
"                                          7 > : = - ; ; ; ; ; ; ; ; ; ; q ; = = , 3 4                                           ",
"                                        ! 3 * - ; ; ; - ; ; ; q ; ; ; ; ; ; - ; : $ 5                                           ",
"                                      Y '.%X_ p e q - - - - - - - ; ; ; ; ; r e s {.}.W                                         ",
"                                    4 $ '.jXrXs a q - - - - - - - ; ; ; ; ; w i ) dXfXU 3                                       ",
"                                    5 # `.gXtX X_ p w w w w w w w w w w w r s ' .XkXaXT $                                       ",
"                                    3 # `.gXgXkXyX) i y u u y y y i i i i i  XkXkXjXaXL $                                       ",
"                                    3 # `.gXjXjXdX` ( / ( ( ( / / / / / / ( .XgXjXhXaXP #                                       ",
"                                    > # ! aXaXgXgXdXyXyXyXyXyXaXyXyXsXsXsXsXdXgXkXaXeX8 &                                       ",
"                                    3 o 5 L `.fXjXhXhXjXgXjXgXgXjXjXjXjXjXjXjXjXeXW P # @                                       ",
"                                    3 o # $ Q aXkXkXgXkXgXgXgXgXkXkXgXkXgXkXkXgX0XP $ X @                                       ",
"                                    5 @ Q -X&X~ W W W W W W ^ W W W W W W W ^ W '.-X&X8 %                                       ",
"                                    9 # `.hX9X5 X @ + @ + # & & @ @ # # # # + + Y fXaXL $                                       ",
"                                    '.`.}.%X|.g f v f m d I W f M g ~ '.`.R 1 c {.*X%X'.'.'.                                    ",
"                                K 4 -XhX-X5 2 m $.r.0.M.e.L.+X1.y.4.,X7X7XR.D R.qXt 8 rXgX`.3                                   ",
"                              {.! ^ =X6X[.2 2 v r.w.N.~.t.,.K.E.y.,.Q.Q.Q.1.<./.@Xg g =XfX`.P ^                                 ",
"                            $ K 0XdXT.D *.F E -.t.!.^.^.W.J.E.~.~.W.-.n.q.%.4.s.S N G R <Xj.OX*X3 t                             ",
"                            # 7 rXkXU.<.p.(.7XC.~.^.^.^.^.^.D.S.G.S.v.v.N.E.(.,XF G P.G G F XXoX$ 9                             ",
"                            # 7 0XOXK.Q.).uXiXC.A.~.W.J.J.N.Z.F.4XV.u.-.&.,.a.g.*.D J V b m 2.I @ 4                             ",
"                            # 7 9XL.*.r.R.3XH.S.Z.A.b.m.m.v.b.V./.c.-.A Z %.>.<.g.#XE | @.M Y.~ X 4                             ",
"                            # 4 rXwXg.>.V.C.c.m.m.Z.Z.Z.m.q.0.t.y.u.@.9.0.%.$.>.I.5X1X7.V N =X{.X 4                             ",
"                            # 7 0X1X5.:.M.x.m.t.t.M.x.B.M.r.>.-.x.r.#.0.9.} } -.4.L.2X5...Y.uX{.X 4                             ",
"                            # 7 qX1X5.Z w.u.m.t.t.t.t._./.r.J.,.x.,.-.0.O.O.9.=.$.4.;Xd...2XhX}.& 4                             ",
"                            # 4 0XwXg.Z -.w.r.w.r.y.y.(.U.w.y.t.:.@.q.O.9.0.$.A Z 6.,X2.b Y.aXoX# 4                             ",
"                            # 4 qXL.M $.$.1.I.;.r.r.r.*.*.,.>.q.=.O.9.9.0.&.$.#.=.| ..V n d.2X*X3 9                             ",
"                            # 7 0XOXG v v L.>X6.9.%.%.@.Z :.e.9.O.o.-.-.&.$.#.=.{ ] k M z =XgX&X> 9                             ",
"                            # 4 0XfXL.B Z <.6.A C A A =.=.:.<.-.i.-.-.#.B #.=.{ ] C v V ..2XjX*X$ 9                             ",
"                            # 7 0XjXY.N A Z *.A &.&.&.-.-.>.>.7.XX7.} { { { { ] C v v V H 2XjX&X3 9                             ",
"                            $ 8 0XkXuXY.N V C ] } } =.| @.Z @.l.uX6Xi.X.} k B B b v b F @XaXgX&X3 9                             ",
"                              }.'.`.0XuXY.N M @.[ B [  .{ } 9.l.uX:X+.] C v v V S N N H 6X&X!                                   ",
"                                K 4 -XhXuX<XXXF M m v [ { X.| 4.U...[ b v v N f.@X#X>X<XpX`.3                                   ",
"                                  L {.}.}.}.$XOXXXJ b k  . .k h M n M j j j f.5XaX&X}.}.}.`.L                                   ",
"                                    7 % # # Y fXfXf.j f.z.f.2.j.h.3.h.z.z.L.5XgXrX9 $ # 5                                       ",
"                                      3 $ $ W qX2XR d [.8X].E 8X@XE *X8X8X8X8X9X-XL 3 $ 7                                       ",
"                                              U P 4 < g T 8 4 L K 4 P L L L L T Q                                               ",
"                                                                                                                                ",
"                                                                                                                                "
};
