/* XPM */
static char *_06abfb3ae6245e282d96cf6ecf73b14YJjtlXShYcvfVbfq[] = {
/* columns rows colors chars-per-pixel */
"64 64 214 2 ",
"   c #036D01",
".  c #0B6F07",
"X  c #027300",
"o  c #0A7601",
"O  c #047900",
"+  c #0C7C00",
"@  c #137E01",
"#  c #1A7D00",
"$  c #137F0D",
"%  c #1D7E09",
"&  c #147E14",
"*  c #157F19",
"=  c #068200",
"-  c #0C8200",
";  c #0D8A00",
":  c #138401",
">  c #1A8501",
",  c #158C01",
"<  c #1C8C01",
"1  c #1A840B",
"2  c #178E09",
"3  c #1C8C09",
"4  c #169100",
"5  c #1C9300",
"6  c #1E9B00",
"7  c #1C920A",
"8  c #228E04",
"9  c #228E09",
"0  c #229401",
"q  c #299703",
"w  c #259C01",
"e  c #2B9D02",
"r  c #24960C",
"t  c #269C0A",
"y  c #2B9D0B",
"u  c #319705",
"i  c #329D01",
"p  c #389D01",
"a  c #228F11",
"s  c #2B9D10",
"d  c #25A200",
"f  c #2CA301",
"g  c #27A800",
"h  c #2DAA00",
"j  c #26A108",
"k  c #2CA30B",
"l  c #2CA80C",
"z  c #32A402",
"x  c #39A500",
"c  c #33AB01",
"v  c #39AC02",
"b  c #32A40B",
"n  c #39A50F",
"m  c #34AA0B",
"M  c #39AC0C",
"N  c #2FB404",
"B  c #34B301",
"V  c #3BB401",
"C  c #34B902",
"Z  c #3DBB01",
"A  c #3DB30B",
"S  c #3EBB0A",
"D  c #2DA411",
"F  c #33A413",
"G  c #34AA13",
"H  c #3BAE12",
"J  c #33A31A",
"K  c #3AAB1B",
"L  c #3EB113",
"P  c #3BB216",
"I  c #39A721",
"U  c #41B502",
"Y  c #43BC01",
"T  c #49BE02",
"R  c #42B50A",
"E  c #44BB0B",
"W  c #4ABE0B",
"Q  c #42B413",
"!  c #45BB12",
"~  c #4ABD13",
"^  c #41B61A",
"/  c #47BD19",
"(  c #4CBB1B",
")  c #3EC301",
"_  c #3FC40D",
"`  c #44C302",
"'  c #49C601",
"]  c #4AC402",
"[  c #4EC501",
"{  c #4AC607",
"}  c #46CA01",
"|  c #4AC900",
" . c #4CCA02",
".. c #4DCD00",
"X. c #44C20B",
"o. c #4BC40B",
"O. c #45C909",
"+. c #4EC90A",
"@. c #4CCA0B",
"#. c #51C601",
"$. c #53CC01",
"%. c #59CE04",
"&. c #52C60B",
"*. c #53CC0B",
"=. c #47D003",
"-. c #4CD202",
";. c #4DD30B",
":. c #4ED909",
">. c #53D403",
",. c #58D605",
"<. c #53DB02",
"1. c #5ADB02",
"2. c #54D40B",
"3. c #59D40B",
"4. c #55DB0B",
"5. c #5BDB0B",
"6. c #45C411",
"7. c #4BC313",
"8. c #4DCA13",
"9. c #48C71E",
"0. c #50C312",
"q. c #55CB13",
"w. c #5ACE15",
"e. c #53D313",
"r. c #58D414",
"t. c #55D913",
"y. c #5CDB13",
"u. c #56D519",
"i. c #5AD61B",
"p. c #56D91A",
"a. c #5BDC1B",
"s. c #66DF00",
"d. c #60DD0E",
"f. c #61DD15",
"g. c #6BDF12",
"h. c #61DC1E",
"j. c #56E100",
"k. c #5BE204",
"l. c #5FE806",
"z. c #5DE10B",
"x. c #5DE212",
"c. c #65E703",
"v. c #69E401",
"b. c #64E907",
"n. c #6AEC02",
"m. c #62E40B",
"M. c #6CE30C",
"N. c #61E909",
"B. c #6DEC0C",
"V. c #73E60F",
"C. c #71EC0C",
"Z. c #6BF303",
"A. c #6EF200",
"S. c #6DF501",
"D. c #6EFB02",
"F. c #6DF20C",
"G. c #72F504",
"H. c #71FA00",
"J. c #76FC03",
"K. c #7EFC03",
"L. c #72F50D",
"P. c #7DF50A",
"I. c #75F90B",
"U. c #7DFC0B",
"Y. c #62E212",
"T. c #6AE415",
"R. c #6CED14",
"E. c #65E21B",
"W. c #6FE619",
"Q. c #6EEC1A",
"!. c #71EB12",
"~. c #71EC1B",
"^. c #79EB1B",
"/. c #6EF014",
"(. c #6DF01A",
"). c #73F514",
"_. c #7BF514",
"`. c #75FA14",
"'. c #7CFC14",
"]. c #73F21B",
"[. c #7DF31B",
"{. c #76F81C",
"}. c #7DFA19",
"|. c #5BD720",
" X c #5DD62B",
".X c #71DD20",
"XX c #66E224",
"oX c #6DE922",
"OX c #77E521",
"+X c #75ED23",
"@X c #70EE29",
"#X c #73F323",
"$X c #7BF522",
"%X c #7FFB25",
"&X c #79F62C",
"*X c #79F72D",
"=X c #76F23B",
"-X c #7CF939",
";X c #83F701",
":X c #83FC02",
">X c #8AFE02",
",X c #82F50A",
"<X c #83FC0B",
"1X c #8AFF0B",
"2X c #83F514",
"3X c #83FC13",
"4X c #8AFE14",
"5X c #83F61A",
"6X c #83FA19",
"7X c #8AFF1C",
"8X c #86F622",
"9X c #84FE23",
"0X c #8AFD22",
"qX c #83FB2B",
/* pixels */
"X X   X o 3 y z i z M ! ~ W T T c h f h f z h f f b c f m m m M Z V Z R Q b p i z z #.~.n.G.H.S.|  .| { *.V c v v c z f e e z i ",
"  X     o a y z z z M ! ~ W T T h h h f h f f h f c c m M A B v V V V R A M z z x z #.^.A.G.H.G. .| ' ' @.V c c v c z f i e i f ",
"X X   X O r z c f z V E ~ W T Y c h h h f f f f f f f f c c c c C B V V U M p z z f T ~.C.A.S.Z...o.' @.o.V f v v c z z e i e e ",
"X X   X O 5 f f f z c R E o.Y ' c c h f h f f f h f c c B B V V C Z V Z v z f e z z { #X].F.Z.F...*.] @.@.V c B c x z z i e e z ",
"X X X X O 5 d g f h c Z E o.{ ' h h f c c f f f f w h c g f c h Z C V C V c z c z c ' oX#X(./.(.| { X.{ o.V f c c b z z f e i f ",
"- ; + ; = P Z } } } ` U U Y Y Z Y U Y E V c e w d w Y XXT.5.b.z.V N B V V V V V B V Z Y } ) ) | ` ` ` X.E B f c z z z i z e e z ",
"2 7 2 7 4 9.e.4.>.-.@.Z V V V V ] [ o.7.! c w q w w Z &X].).).R.C N h V V V Z E Z Y V g g h g g Z Y Z Y E c d z f f z f z f z z ",
"4 7 2 , ; S =.<.<.>.} V V V V V ] ] ] 0.~ c w w w w Y &X].`.I.`.Z B B B C Z Z X.Z _ V d f g g f Z Z Z Z X.c f f f f f z e z z z ",
"4 , 2 4 ; O.:.:.<.<. .B ! A V V [ T &.0.( v e 0 w w Z *X].).I.{.B B B c C Z Z S X.Z V g g f g g Z Z Z ` X.c f h f z f f f z z z ",
"r 2 a 4 ; _ <.:.j.<.;.c ! A ! E &.T o.0.~ x q w w 6 Y *X]./.F./.B A A B V S _ S Z S S h h f f f ) ) Z Z Z h w f f f f f f f f f ",
"1 - , - = 6.z.j.j.k.@.6 z e z q U U U R R z i e e e Y XXy.5.z.,.h f f f g c B C B B C h c c c c ' } } o.@.V f h f h c A V V V V ",
"X X X = O 6.z.l.k.l.O.- > > 8 > i q i i z i e i e w f f d d f d 0 0 5 5 5 6 w d 6 d h V R E E E 2.>.>.t.e._ c B c c A X.6.o.o.o.",
"    o   X 6.x.l.k.Y.X.+ : @ > # i i q i i u e z z z z f g h c g 5 8 0 < < w w w w d h A U E U Y >.<.2.2.t.Z h h h h Z { @.@.[ *.",
"  .   X X 7.x.l.b.m.X.+ @ @ % # i i i i i z i b e e f f f f f f 8 0 8 < < w t d 6 d z A U U U U >.<.>.4.2.Z h B B c V X.o.' Y } ",
". . o     7.x.N.l.Y.X.- @ @ % # u u i i e i b i e b f k m k f k 8 8 8 8 < r t t w w f U Y Y U T ,.<.<.4.2.) h B B c V X.&.` ` ' ",
"o o o O X 9.x.x.x.x.E : @ # > > i q i i q z b i e b k e k k f b 8 8 9 3 7 r y t w f c Y T T T T ,.>.-.>.;.Z h c c h V { ..' '  .",
"R Q L A A h f g d f f f h f f z o.[ o.0.~ i 0 < 5 < 0 b y b b k 9 9 9 3 9 r s y e f #.qX2X,X>X,X$.Y ` ' Z c f w f e B Y Z Z ` Z ",
"U U U V V c f d f d d g h h g h ] [ ] 0.7.z 5 8 3 < q F y z b z 8 0 0 < 3 y b z z z #.0X,X;X>X;XT V Y ] Y v z e t w c Z Z ` X.Z ",
"U U V R V z f f f j f f f k f c o.[ ] o.7.z 0 < 5 < w m b z z z 5 0 < < 0 e f f z f [ 6X<X;X:X:X[ Y Y ] Y c w t e w c Z Z ) Y Z ",
"U Y U U R c f f e f k k b D l f ` ] o.o.o.f 5 5 < , 0 f f f f e < < 0 < 5 w f f f c $.0X4X:X:X<X .Y Y Y Z h w k k w N Y ` Z ) Z ",
"V V v V V i z z e e f y y b k f X.` { X.E h w 5 5 4 w f f f f f 0 0 8 5 5 w f f f h $.$X9X'.3X3X[ } Z } } h w k j w h X.} ) ) ) ",
"C.C.M.~.W.*.Y o.R R M z e e k f Y } Y X.X.V f c c g B E S Z Z Z w e q q w f f f f g B } [ ' [ ..1.1.1.z.x.V 4 6 5 4 h O.} } } } ",
"<X<X3X3X_.m.%.3.*.&.E z e e f w Z Z Z Z Y S S S ! S E 8.X.} { X.q s t t t s l l w d f w d d f h ).I.F.`.#X_ ; , 4 ; g ;.>.=.} ;.",
":X:X:X<XP.s.$.%.$.#.Y e w w e f V Z C Z Z S S S X.V X.X.` Z X.Y e y y r t t D j j l f 6 d f f f R.F.Z.F.].Z , 4 4 4 h @.4.=.=.=.",
"K.:X:XU.G.s.#.#.$.&.U e w e e f Z Z Z Z Z X.S X.Z X.X.Z X.} Z X.i e e y e k D j j j d d g d w h R.Z.Z.F.Q.Z 4 4 4 4 h O.:.-.=.} ",
":XK.<X3X_.M.%.>.*.w.W f e e e d S Z Z Z Y Z ) Y Z 6.X.) X.o.X.X.e w e f w d k g d d d d f d d h R./.F.B.#X) 4 4 4 4 N O.-.-.=.=.",
"C.C.!.~.W.%.Y W R ! M e e e w w S Z Z Z Z Z Z Z Z Y Z c V C B Z Z V V U V h h g h N V Z  .} } $.<.5.<.1.y.V 5 5 4 5 N { =.=.=...",
"Y Y V Y U f e f e z w 0 r y t t S U Z U Z Y V Z V Z c f f f w f y.5.5.y.2.Z C B h B -.#X%X}.'.}.Y Z C Z ` h w t j 6 h } } } } } ",
"' ] T W E v f e 0 t w 0 y D t k R Z U Z V Y V V V Z c w e w q w ,.1.1.5.t.} h C B h >.).'.<X:X<X` Z V Z V c d t l w B | } } } ` ",
"T T T E U c w e w f t w j t w w A Y Y U Y U U V V R c e e f y f ,.1.<.5.y.` g c c B $._.U.K.:XP.Y U U Y V f w w t w c ' | } ' } ",
"Y ' T o.E B d d w f w d f d 6 d V U Y Y Y U V V V R c e i y y z 3.z.5.y.|.X.d B V h $.[.<X:X>X<XU U U Y V c e 0 d w c ' } ` { X.",
"` Y ` ` Y c w w w d d d h h g B Y Y Y Y Y Y Y U V U v e f e q z e.5.y.|. X/ f M c c 0.qX[.P.;X,X#.U Y Y V c c d f d B } ' } ` } ",
"' [ ' { 6.B e f d e ` &XR.B.I.Z.-.@.{  ...>.,.3.d.*.q.W E Q Q Q V v c H K 9 @ > > : i ~ %.T #.%.,X,X,X,X`.m.>.2.t.;.=.) ) ) ) ` ",
".. . .o.0.c w w f w ' #XL.G.J.G...|  .| ..,.,.>.3.3.*.` o.E ! Q v z b K I a : 1 1 @ y ( ~ T T #.>X>X;X<X3Xn.<.1.:.:.-.) ) ) Z ) ",
"'  .[ o.7.v f w e w ' $X).G.J.G... .|  . .>.3.3.y.3.o.` V R E E c z k F J 3 o $ @ + q ( ~ T T #.;X:X;X:XU.c.:.<.j.:.=.) ) Z } Z ",
"' ' ' { W V f e e d T &X}.L.I.I.-. . .{ @.2.2.t.r.q.o.Y V v V V f h f b y > X O o O 0 ( 0.W #.#.<X>X<X<X'.b.<.j.4.t.:.) Z ` } Y ",
"' [ ' ' o.v z f f c ` +X].B.C.!...' ' { @.@.u.u.a.e.o._ ) C C V f h f f y , O + + + 0 ^ ~ Y ` [ 7X7X6X9X%XR.2.t.t.p.;.X.Z ` Y Z ",
"Y ' Y T ` T V Y Y Z ' ,.,.,.1.1.' } ` { ` Z B V V B C Z ) ) ) _ f h f k D r , < < , e P A v v V #.$.$.$.*.B d d d g h h c B V v ",
"Y Y Y Y ' o.&.*.*.*.[ Y Y Y Y Y ' ` Y ` C g d 6 6 d g Z ) ) ) ) g f f d k t 7 t r 5 y M z f z z e e e e w - O O - ; 5 w z z e z ",
"Y Y Y Z ' ' { *.*.2.{ Y ` Y ` ` ` Y ` X.6.N 6 6 6 d h _ _ ) ) ) g g d d k t 5 t w 5 t m f f z c v x c b b < + = + + > J I y b n ",
"Y Y Y Y ` ' @.*.*.{ ' ` Y Y ` Y ` Y Y 7.! h 6 6 4 6 g S _ ) ) ) h d k l j t w 5 5 t w e b c e f c v z b k < + + O - 2 J J F F n ",
"` Y Y ` } o.@.*.2.|  .' Z Y ` Z o.Y 6.7.S l t 6 6 d N _ _ _ ) O.l j k l j t f 6 w f t f M G b c q e q e e < X + - + > y J F y b ",
"Z V V V Z Z ` } } ` } ;.| { -.{ Y Z V S A f d d t d g B B C C C w 5 5 6 5 w k w w e w q e e e f #.%.$.*.q.z 0 < < < 0 t e f f z ",
"B B B B N B C V Z C } :.>.4.4.2.N f f h g f d k f d f d g g g f : - - - : 0 f e e e w < < < < 0 $X<X}.8X+Xw.c z z b f e f f w w ",
"B N C N N N B C N C ) :.:.<.<.:.h f f f f g c m b k f f f w e e - + + : : 0 b b z b q < < > > q 5X:X<X7X5X%.z x c z f e w d d d ",
"N C N N B C C C C C ) z.:.<.<.:.h g f f f f f f f f f e e e f q : + + + - 0 b b z b q < < > > q <X:X:X3X2X#.i c z z f w w d d d ",
"N N N N N N N N C C ) 4.<.<.j.<.h h f g f f f f f z z e e e e y : + + o @ 0 n z z z q 8 > > 8 u 4X>X:X4X2X#.x v M b l e t 6 6 6 ",
"N C N C P C C C C C ) :.:.:.<.:.g h N h h c h h c c c z f z z e @ + @ + - e v z z v f 8 < < 8 q 8X<X6X5X^.#.z z c M k f d j j d ",
" .p.e.e.p.O.Z Z S 8.B 6 d g d h <.<.t.p.p.p.;.-.;.e.7.P ~ ! Y o.< > < < O 2.Q./.!.R.f.d c z F p x U p p z #.%.*.*.r.` V V R M H ",
"4.5.>.-.3.} Z O.V 6.h 5 w 6 4 6 k.k.z.x.x.4.<.:.<.>.e.6.6.X.Y ` < < 5 5 ; T./.L.I.).m.d c z n n p p x p i ' *.>.$.5.&.V U R R R ",
">.>.-.>.,.} Z } Z 6.c 6 d w 6 d 4.j.j.4.:.<.:.<.<.<.-.} ` ` } E < < < , = y.(././.].5.w c z x b i p i i i T *.2.' $.' Z v U U U ",
"<.,.1.d.5.| Z Y } @.B 6 6 6 w d p.4.4.z.z.j.j.j.<.<.-.) Z ` Y E 8 3 < > = i.@X&X(.#Xf.f c z z z p i i p z T w.*.y.f.$.V v U U U ",
"<.>.<.,.>.| ` ) Z Z g 6 4 4 4 4 a.t.2.z.y.<.>.,.>.$...| } ` ' E < 3 3 > <  X=X=X-X-Xi.f z f c x i i p z x W q.w.o.[ ` Z c V U V ",
"Z V V Z V } 3.>.,.5.5.Y.Y.f.y.y.) C Z ) Z B f z c d Z >.-.>.>.8.: # : + , k f c c B B c v v v v x z x x z v W U Y Y >.T.M.B.B.v.",
"w w w w d { E.5.,.<.b.'.'.'.'.{.g d d d 6 , @ + 2 : f a.,.,.5.u.: o + + + + + - - = < A W R U v v v x v c z c c z c ' [.`.'.<XU.",
"y k b f d o.E.>.1.1.n.I.J.J.J.L.g d d h f < $ * & @ f XX5.,.,.p.: @ @ @ : = O + = - 5 ! M v R R v v v v v z z z f z [ 9X6X'.K.K.",
"y y k w f W y.,.v.1.n.I.G.J.U.).f d f f e < $ & a o z h.3.>.z.u.> @ o + + + O + + O 5 L A v U V V c c V v c v z f c [ qX'.U.<XK.",
"y y f e f o.y.3.1.<.n.).I.L.'.(.h w f w w < @ > . O c y.m.z.z.u.: + o + + O X O O O 6 ^ Q ! ~ U c h c c z z z f z f #.qX}.U.U.K.",
"f f c f f Y 2.$.5.>.5.T.f.Y.E.|.e t f f f U v U U Y ' %.>.-.=.8.w 0 0 9 0 3 , , , - w G b f z c | }  .>.{ V v x v c { ~.M.v.A.n.",
"c z c f h V Y Y U c z w , , 5 < e e f e z T.8X0X7X7Xv.} Y ) ) X.R Q Q Q P G D D J t w 0 5 < 0 0 #X).Q.#XOXr.Y U U U T %.| }  . .",
"c c c c f V Y V Y V c w 0 0 0 0 y k f z q V.<X1X;X1Xv.Y Y ` C Z U U R R Q M k k G D w < < < 0 w R.F././.~.%.U Y T U T ' ' ' | | ",
"z f c c f V Y V U U c w w e q t y e i e 8 V.,X>X;X1Xv.Y Z } Z Z U V V U V c d w f f w 5 0 0 < w F.D.D.F.!.>.V U U U T T [  .' | ",
"b k z c z A E U V E c q w w 5 w f e e p 8 ^.2X,X4X4XV.Y V Z ) Z Y U V Y Z c f f w k w < 5 < < w F.D.D.L.L.>.v T U T T T o.#.' ' ",
"F s b b z c R V V E c 5 q q 0 q f e i u 8 .X5X4X<X2Xg.' V _ X.) Y Y V Y Y B h f f m q , 5 8 < d F.D.D.Z.L.>.V T U T T T ] o.' { "
};
